<?xml version="1.0" encoding="UTF-8"?> <svg xmlns="http://www.w3.org/2000/svg" xmlns:xlink="http://www.w3.org/1999/xlink" version="1.1" id="Layer_1" x="0px" y="0px" viewBox="0 0 120 60" style="enable-background:new 0 0 120 60;" xml:space="preserve"> <path d="M47.7,28c-1.1-1.2-2.4-2.3-3.8-3.1c4.9-3.6,7.3-8.3,7-14.3H29.2v4.5h16.6c-1.2,3.7-3.9,6.4-8.2,8.2v4.5c3.5,0,6.5,2.1,7.8,5 C45.9,31.1,46.7,29.5,47.7,28 M46.8,33.4c0.4-1.4,1-2.8,1.8-4.2c3-5.1,8.5-8.7,14.9-8.9v6.3c3.2-3.7,7.8-6.1,13-6.3v18.2H72V25.7 c-5,2.1-8.5,7-8.5,12.8H59V25.7c-3.6,1.5-6.5,4.5-7.8,8.2c-0.7,2-0.5,3.6-1,5.6c-1.4,5.7-6.6,9.9-12.7,9.9 c-7.2,0-13.1-5.9-13.1-13.1H29c0,4.8,3.9,8.6,8.6,8.6c4,0,7.3-2.7,8.3-6.4C46.3,36.9,46.3,35.2,46.8,33.4z M88,22.2 c1.2-1.5,1.9-3.4,1.9-5.4h4.5c0,3.1-1.1,6.1-2.9,8.4C90.5,24.1,89.3,23,88,22.2z M87.2,23.2c5.3,3.2,8.4,10.5,8.4,15.3h-4.4 c0-5.8-3.5-10.7-8.5-12.8v12.8h-4.5V10.6h4.5V21C84.2,21.5,85.8,22.2,87.2,23.2z"></path> </svg> 