<?xml version="1.0" encoding="UTF-8"?> <svg xmlns="http://www.w3.org/2000/svg" xmlns:xlink="http://www.w3.org/1999/xlink" version="1.1" id="Layer_1" x="0px" y="0px" viewBox="0 0 120 60" style="enable-background:new 0 0 120 60;" xml:space="preserve"> <style type="text/css"> .st0{clip-path:url(#SVGID_00000029041206196425857860000009275455469949495479_);fill-rule:evenodd;clip-rule:evenodd;fill:#1C2729;} .st1{clip-path:url(#SVGID_00000095303662540054929190000008000878830419210632_);fill:#1C2729;} .st2{clip-path:url(#SVGID_00000099631272093173205890000001955790370326971524_);fill:#1C2729;} .st3{clip-path:url(#SVGID_00000123413669822379793880000013515722517390100616_);fill:#1C2729;} .st4{clip-path:url(#SVGID_00000103981553036309134560000018169769413308758197_);fill:#1C2729;} .st5{clip-path:url(#SVGID_00000106141427064512030730000006718524203905342646_);fill:#1C2729;} .st6{clip-path:url(#SVGID_00000109715719473980420340000006420080543408777907_);fill:#1C2729;} .st7{clip-path:url(#SVGID_00000026131060306141724320000017759399814109301130_);fill:#1C2729;} .st8{clip-path:url(#SVGID_00000036964246079938085650000006368560200378730172_);fill:#1C2729;} .st9{clip-path:url(#SVGID_00000017513605593438109290000007313278834728851891_);fill:#1C2729;} .st10{clip-path:url(#SVGID_00000160155202191136300480000013202698239673147527_);fill:#1C2729;} .st11{clip-path:url(#SVGID_00000049218106166650452510000006497394885805023367_);fill:#1C2729;} .st12{clip-path:url(#SVGID_00000089549486257526646560000011708521034326752928_);fill:#1C2729;} .st13{clip-path:url(#SVGID_00000153671608868352710810000002013512528926873250_);fill:#1C2729;} .st14{clip-path:url(#SVGID_00000067953152160654109560000012489800142319874223_);fill:#FAA33A;} .st15{clip-path:url(#SVGID_00000029036931617049260980000005035893763828399537_);fill:#1C2729;} .st16{clip-path:url(#SVGID_00000099645244008143569810000005302399779332767123_);fill:#1C2729;} .st17{clip-path:url(#SVGID_00000157285220415759456300000016980994028742080156_);fill:#1C2729;} </style> <g> <g> <defs> <rect id="SVGID_1_" x="11.2" y="16.2" width="97.6" height="27.7"></rect> </defs> <clipPath id="SVGID_00000003065115243607688370000013715317406489513142_"> <use xlink:href="#SVGID_1_" style="overflow:visible;"></use> </clipPath> <path style="clip-path:url(#SVGID_00000003065115243607688370000013715317406489513142_);fill-rule:evenodd;clip-rule:evenodd;fill:#1C2729;" d=" M106.5,21.9c1.1,0,2.1,0.9,2.1,2.1s-0.9,2.1-2.1,2.1c-1.1,0-2.1-0.9-2.1-2.1C104.5,22.8,105.4,21.9,106.5,21.9 M106.5,22.2 c1,0,1.8,0.8,1.8,1.8c0,1-0.8,1.8-1.8,1.8c-1,0-1.8-0.8-1.8-1.8C104.8,23,105.6,22.2,106.5,22.2 M105.7,25.2v-2.4h1 c0.2,0,0.4,0,0.5,0.1l0.3,0.2l0.1,0.3c0,0.2-0.1,0.3-0.2,0.4c-0.1,0.1-0.3,0.2-0.5,0.2l0.2,0.1l0.3,0.3l0.4,0.7h-0.4l-0.3-0.5 c-0.1-0.1-0.2-0.3-0.2-0.3l-0.2-0.2l-0.1-0.1l-0.2,0H106v1.1L105.7,25.2L105.7,25.2z M106,23.8h0.7c0.1,0,0.2,0,0.3,0l0.2-0.1 l0.1-0.2l-0.1-0.3c-0.1-0.1-0.2-0.1-0.4-0.1H106V23.8z"></path> </g> <g> <defs> <rect id="SVGID_00000116229207074934285340000005077910968699492773_" x="11.2" y="16.2" width="97.6" height="27.7"></rect> </defs> <clipPath id="SVGID_00000110471318626026271530000009794758567998031760_"> <use xlink:href="#SVGID_00000116229207074934285340000005077910968699492773_" style="overflow:visible;"></use> </clipPath> <polygon style="clip-path:url(#SVGID_00000110471318626026271530000009794758567998031760_);fill:#1C2729;" points="81.6,18.6 81.6,19 79.7,19 79.7,20.3 81.1,20.3 81.1,20.7 79.7,20.7 79.7,22.2 81.7,22.2 81.7,22.5 79.1,22.5 79.1,18.6 "></polygon> </g> <g> <defs> <rect id="SVGID_00000018235982544871545970000015367843525427625373_" x="11.2" y="16.2" width="97.6" height="27.7"></rect> </defs> <clipPath id="SVGID_00000118378377402880710370000012380681969190381229_"> <use xlink:href="#SVGID_00000018235982544871545970000015367843525427625373_" style="overflow:visible;"></use> </clipPath> <path style="clip-path:url(#SVGID_00000118378377402880710370000012380681969190381229_);fill:#1C2729;" d="M84.3,19.6 c0-0.4-0.3-0.7-0.8-0.7c-0.4,0-0.7,0.2-0.7,0.5c0,0.9,2.1,0.9,2.1,2.2c0,0.6-0.5,1-1.4,1c-0.8,0-1.3-0.4-1.3-1.1h0.5 c0,0.5,0.3,0.8,0.9,0.8c0.5,0,0.8-0.2,0.8-0.7c0-0.9-2.1-1-2.1-2.1c0-0.5,0.5-0.9,1.3-0.9c0.8,0,1.3,0.4,1.3,1.1 C84.9,19.6,84.3,19.6,84.3,19.6z"></path> </g> <g> <defs> <rect id="SVGID_00000013189340021319506720000006950397939355371434_" x="11.2" y="16.2" width="97.6" height="27.7"></rect> </defs> <clipPath id="SVGID_00000036208995119626008210000008409371507601402276_"> <use xlink:href="#SVGID_00000013189340021319506720000006950397939355371434_" style="overflow:visible;"></use> </clipPath> <polygon style="clip-path:url(#SVGID_00000036208995119626008210000008409371507601402276_);fill:#1C2729;" points="88,18.6 88,19 86.9,19 86.9,22.5 86.4,22.5 86.4,19 85.3,19 85.3,18.6 "></polygon> </g> <g> <defs> <rect id="SVGID_00000120541183597269882920000003930752319171098244_" x="11.2" y="16.2" width="97.6" height="27.7"></rect> </defs> <clipPath id="SVGID_00000075882952630523401100000014891133867634036608_"> <use xlink:href="#SVGID_00000120541183597269882920000003930752319171098244_" style="overflow:visible;"></use> </clipPath> <rect x="88" y="22" style="clip-path:url(#SVGID_00000075882952630523401100000014891133867634036608_);fill:#1C2729;" width="0.6" height="0.5"></rect> </g> <g> <defs> <rect id="SVGID_00000168802238257373609340000005321880623757985203_" x="11.2" y="16.2" width="97.6" height="27.7"></rect> </defs> <clipPath id="SVGID_00000014631731669698865360000004164697437199466114_"> <use xlink:href="#SVGID_00000168802238257373609340000005321880623757985203_" style="overflow:visible;"></use> </clipPath> <path style="clip-path:url(#SVGID_00000014631731669698865360000004164697437199466114_);fill:#1C2729;" d="M91.6,22.5v-0.3h0.7 v-3.2l-0.7,0v-0.2c0.3-0.1,0.6-0.1,0.8-0.3h0.4v3.7h0.6v0.3H91.6z"></path> </g> <g> <defs> <rect id="SVGID_00000118369521053724143840000003292756038707697567_" x="11.2" y="16.2" width="97.6" height="27.7"></rect> </defs> <clipPath id="SVGID_00000009579847085764835570000000586536085596812928_"> <use xlink:href="#SVGID_00000118369521053724143840000003292756038707697567_" style="overflow:visible;"></use> </clipPath> <path style="clip-path:url(#SVGID_00000009579847085764835570000000586536085596812928_);fill:#1C2729;" d="M95.1,21.8 c0.1,0.4,0.4,0.5,0.6,0.5c0.5,0,0.8-0.5,0.8-1.6c-0.2,0.2-0.5,0.3-0.8,0.3c-0.6,0-1.1-0.3-1.1-1.2c0-0.8,0.4-1.2,1.1-1.2 c0.9,0,1.4,0.4,1.4,1.8c0,1.6-0.5,2.2-1.3,2.2c-0.7,0-0.9-0.3-1-0.8L95.1,21.8z M96.5,20c0-0.8-0.3-1.1-0.8-1.1 c-0.4,0-0.7,0.2-0.7,0.9c0,0.7,0.3,0.9,0.7,0.9c0.3,0,0.6-0.2,0.8-0.3L96.5,20L96.5,20z"></path> </g> <g> <defs> <rect id="SVGID_00000168808734715045699850000011958941550198371513_" x="11.2" y="16.2" width="97.6" height="27.7"></rect> </defs> <clipPath id="SVGID_00000101089063880780954280000002668886158781712570_"> <use xlink:href="#SVGID_00000168808734715045699850000011958941550198371513_" style="overflow:visible;"></use> </clipPath> <path style="clip-path:url(#SVGID_00000101089063880780954280000002668886158781712570_);fill:#1C2729;" d="M99,22.6 c-0.8,0-1.3-0.5-1.3-1c0-0.5,0.3-0.8,0.9-1.1c-0.5-0.3-0.7-0.6-0.7-1c0-0.5,0.5-0.9,1.2-0.9c0.7,0,1.2,0.4,1.2,0.9 c0,0.5-0.3,0.7-0.7,1c0.5,0.3,0.9,0.6,0.9,1.1C100.3,22.1,99.8,22.6,99,22.6 M99,20.6c-0.4,0.2-0.8,0.5-0.8,0.9 c0,0.3,0.2,0.7,0.8,0.7c0.6,0,0.8-0.4,0.8-0.7C99.8,21.1,99.4,20.9,99,20.6 M99,18.9c-0.5,0-0.7,0.3-0.7,0.5 c0,0.4,0.3,0.7,0.7,0.9c0.4-0.2,0.7-0.5,0.7-0.9C99.7,19.1,99.5,18.9,99,18.9"></path> </g> <g> <defs> <rect id="SVGID_00000053510781181676415450000010243974919831925949_" x="11.2" y="16.2" width="97.6" height="27.7"></rect> </defs> <clipPath id="SVGID_00000068646281981465203670000015498107489962880958_"> <use xlink:href="#SVGID_00000053510781181676415450000010243974919831925949_" style="overflow:visible;"></use> </clipPath> <polygon style="clip-path:url(#SVGID_00000068646281981465203670000015498107489962880958_);fill:#1C2729;" points="101.1,18.6 103.5,18.6 103.5,18.8 101.9,22.5 101.4,22.5 102.9,18.9 101.1,18.9 "></polygon> </g> <g> <defs> <rect id="SVGID_00000173844069270164134230000016212021324950605199_" x="11.2" y="16.2" width="97.6" height="27.7"></rect> </defs> <clipPath id="SVGID_00000075139157467936274960000014170631632329088699_"> <use xlink:href="#SVGID_00000173844069270164134230000016212021324950605199_" style="overflow:visible;"></use> </clipPath> <path style="clip-path:url(#SVGID_00000075139157467936274960000014170631632329088699_);fill:#1C2729;" d="M55.5,24.3l-14.4,0 l0,2.7h5.4v13.6l0.9,0c0,0,2.8-0.1,2.8-2.8c0-1.8,0-10.8,0-10.8h5.3L55.5,24.3z"></path> </g> <g> <defs> <rect id="SVGID_00000159456458120448871350000005304650037946595226_" x="11.2" y="16.2" width="97.6" height="27.7"></rect> </defs> <clipPath id="SVGID_00000047019111625171170580000000475732950727899065_"> <use xlink:href="#SVGID_00000159456458120448871350000005304650037946595226_" style="overflow:visible;"></use> </clipPath> <path style="clip-path:url(#SVGID_00000047019111625171170580000000475732950727899065_);fill:#1C2729;" d="M82.2,37 c-0.7,0.5-1.5,0.8-2.5,0.8c-1,0-2-0.4-2.8-1c-0.8-0.7-1.3-1.7-1.6-3c-0.2-1.2-0.2-2.3,0.2-3.5c0.3-1.2,0.9-2,1.7-2.6 c0.8-0.6,1.7-0.8,2.7-0.8c0.9,0,1.7,0.2,2.4,0.6c0.6,0.4,1.1,1.1,1.5,2l3.5-0.3c-0.5-1.6-1.4-2.8-2.8-3.7c-1.4-0.9-3-1.4-5-1.4 c-1.7,0-3.2,0.4-4.6,1.2c-1.3,0.8-2.3,1.9-2.8,3.4c-0.5,1.5-0.7,3.1-0.3,5c0.4,2.2,1.3,3.9,2.8,5.1c1.5,1.2,3.3,1.8,5.5,1.8 c1.9,0,3.6-0.5,4.8-1.4c1.3-0.9,2.1-2.3,2.5-4.1l-3.8-0.5C83.3,35.6,82.9,36.4,82.2,37"></path> </g> <g> <defs> <rect id="SVGID_00000034785359149069261540000004239911698278693050_" x="11.2" y="16.2" width="97.6" height="27.7"></rect> </defs> <clipPath id="SVGID_00000164479017276366092790000009630414802075088020_"> <use xlink:href="#SVGID_00000034785359149069261540000004239911698278693050_" style="overflow:visible;"></use> </clipPath> <path style="clip-path:url(#SVGID_00000164479017276366092790000009630414802075088020_);fill:#1C2729;" d="M99.7,24.3l0,6.3h-7.2 v0h-3.8l0,10h0.8c0,0,3,0.3,3-2.9c0-2,0-4.3,0-4.3h7.2l0,7.3l1,0c0,0,2.8,0.1,2.8-2.5V24.3H99.7z"></path> </g> <g> <defs> <rect id="SVGID_00000047747821266237492380000007724808848327511200_" x="11.2" y="16.2" width="97.6" height="27.7"></rect> </defs> <clipPath id="SVGID_00000016062085175791167130000010569400728262992802_"> <use xlink:href="#SVGID_00000047747821266237492380000007724808848327511200_" style="overflow:visible;"></use> </clipPath> <path style="clip-path:url(#SVGID_00000016062085175791167130000010569400728262992802_);fill:#1C2729;" d="M92.6,28.3L92.6,28.3 c0,0,0,1,0-1.3c0-3-2.9-2.7-2.9-2.7h-0.9l0,0.7l0,4h3.8L92.6,28.3z"></path> </g> <g> <defs> <rect id="SVGID_00000172417681521249958500000011336222604391421842_" x="11.2" y="16.2" width="97.6" height="27.7"></rect> </defs> <clipPath id="SVGID_00000057839893463473485940000011988193948866671264_"> <use xlink:href="#SVGID_00000172417681521249958500000011336222604391421842_" style="overflow:visible;"></use> </clipPath> <path style="clip-path:url(#SVGID_00000057839893463473485940000011988193948866671264_);fill:#1C2729;" d="M33.4,35.7l3.2-4.5 v3.2h2.6v-7h-2.2l-6.1,8.4v2.2h5.7l0,2.7h0.2c0,0,2.4,0.2,2.4-2.1v-0.6h1.7v-2.2L33.4,35.7L33.4,35.7z"></path> </g> <g> <defs> <rect id="SVGID_00000058551278378963434040000017081377965002135715_" x="11.2" y="16.2" width="97.6" height="27.7"></rect> </defs> <clipPath id="SVGID_00000103974174189465391840000006775575637229660344_"> <use xlink:href="#SVGID_00000058551278378963434040000017081377965002135715_" style="overflow:visible;"></use> </clipPath> <path style="clip-path:url(#SVGID_00000103974174189465391840000006775575637229660344_);fill:#FAA33A;" d="M17.6,40.5 c0,0,0.5-0.1,1.2-1c1.1-1.5,4.8-7.9,4.8-7.9s0.6,4.6,0.8,6.3c0.3,2.4-1.7,2.6-1.7,2.6L17.6,40.5z"></path> </g> <g> <defs> <rect id="SVGID_00000057859078900555181650000007095016292623630243_" x="11.2" y="16.2" width="97.6" height="27.7"></rect> </defs> <clipPath id="SVGID_00000026850819714679284460000010268355518542707127_"> <use xlink:href="#SVGID_00000057859078900555181650000007095016292623630243_" style="overflow:visible;"></use> </clipPath> <path style="clip-path:url(#SVGID_00000026850819714679284460000010268355518542707127_);fill:#1C2729;" d="M25.6,20.4 c0,0-2-0.2-3.2,1.8c-1.2,2.1-11.2,18.4-11.2,18.4h2.5c0,0,2.5,0.1,3.8-1.9c1.3-2.1,10.6-18.3,10.6-18.3L25.6,20.4L25.6,20.4z M30.3,37.5c-0.2-1.7-1.9-14.4-1.9-14.4l-3,5.2c0,0-0.4,0.7-0.2,1.9c0.2,1.7,0.7,5.2,1,7.5c0.2,2.3-1,2.8-1,2.8h2.9 C28.1,40.6,30.7,40.5,30.3,37.5"></path> </g> <g> <defs> <rect id="SVGID_00000114752718454485555860000008180275574876229015_" x="11.2" y="16.2" width="97.6" height="27.7"></rect> </defs> <clipPath id="SVGID_00000015354368773077449510000003452975399341173903_"> <use xlink:href="#SVGID_00000114752718454485555860000008180275574876229015_" style="overflow:visible;"></use> </clipPath> <path style="clip-path:url(#SVGID_00000015354368773077449510000003452975399341173903_);fill:#1C2729;" d="M60.7,33.4h9.6l0-2.7 h-9.6v-2.2H57v12h11c2.6,0,2.3-2.4,2.3-2.4l0-0.4l-9.6,0L60.7,33.4L60.7,33.4z"></path> </g> <g> <defs> <rect id="SVGID_00000066516546535308825420000018279019720645681571_" x="11.2" y="16.2" width="97.6" height="27.7"></rect> </defs> <clipPath id="SVGID_00000080205749204149877000000002638431462704194221_"> <use xlink:href="#SVGID_00000066516546535308825420000018279019720645681571_" style="overflow:visible;"></use> </clipPath> <polygon style="clip-path:url(#SVGID_00000080205749204149877000000002638431462704194221_);fill:#1C2729;" points="61.2,27 70.3,27 70.3,24.3 57,24.3 57,27 61.2,27 "></polygon> </g> </g> </svg> 