<?xml version="1.0" encoding="UTF-8"?> <svg xmlns="http://www.w3.org/2000/svg" xmlns:xlink="http://www.w3.org/1999/xlink" version="1.1" id="Layer_1" x="0px" y="0px" viewBox="0 0 120 60" style="enable-background:new 0 0 120 60;" xml:space="preserve"> <style type="text/css"> .st0{fill:#83B81A;} </style> <path class="st0" d="M109.8,19c-0.4-0.5-0.7-0.8-2.5-0.9c-0.5,0-1.9-0.1-4.4-0.1c-6.5,0-11,2-13.2,5.9C90.3,20,86.5,18,78.2,18 c-9.7,0-15.8,3.9-18.3,11.8c-0.9,3-0.9,5.3-0.2,7.2h-2.4c-1.8,0.1-4.1,0.2-5.7,0.2c-3.5,0-5.8-0.6-6.6-1.8c-0.7-1.1-0.7-3.1,0.2-6 c1.5-4.8,5.2-7,11.1-7c3.1,0,6,0.4,6,0.4l0,0c0.4,0,0.6-0.5,0.6-0.8l-0.1-0.4L62.6,20c-0.1-1.1-0.9-1.7-2.4-1.9 C59,18,57.9,18,56.5,18c0,0,0,0-0.1,0c-7.7,0-13.1,2.6-16.1,7.6c1.1-5.1-2.5-7.6-10.6-7.6c-4.6,0-7.9,0.1-9.8,0.4 c-1.5,0.2-2.5,0.8-2.8,1.9l-0.7,2.1c-0.1,0.4,0.1,0.6,0.6,0.6l0,0c0.4,0,1.8-0.2,4.1-0.4c3.2-0.2,5.4-0.4,7-0.4 c4.5,0,6.5,1.2,5.8,3.4c-0.1,0.5-0.5,0.8-1.1,0.9c-4.3,0.7-7.7,1.2-10.2,1.5c-7.1,0.9-11.2,3.1-12.3,6.6c-1.5,4.8,2.2,7.2,11.3,7.2 c4.5,0,8.4-0.2,11.5-0.8c1.8-0.4,2.7-0.7,3.1-1.9l1.7-5.4c-0.1,5.4,3.5,8.1,11.3,8.1c3.3,0,6.5-0.1,8-0.4c1.5-0.2,2.4-0.6,2.7-1.8 l0.4-1.7c1.7,2.6,5.3,3.9,10.9,3.9c5.9,0,9.3-0.1,10.3-0.5c0.8-0.2,1.3-0.7,1.5-1.3c0-0.1,0-0.2,0.1-0.4l0.7-2.2 c0.1-0.4-0.1-0.6-0.6-0.6l-3.8,0.2c-2.5,0.1-4.5,0.2-5.9,0.2c-2.7,0-4.5-0.2-5.6-0.6c-1.5-0.6-2.2-1.7-2.1-3.4L77.8,32 c5.3-0.7,9-2.4,10.7-5l-4.1,13.8c-0.1,0.2,0,0.5,0.1,0.6c0.1,0.1,0.4,0.2,0.8,0.2h5c0.8,0,1.2-0.5,1.3-0.8l4.4-15.2 c0.6-2,2.4-3,5.7-3c3,0,5.1,0,6.5,0.1h0.1c0.2,0,0.7-0.1,1.1-0.7L110,20C110,19.6,110,19.3,109.8,19L109.8,19z M30.2,37.2 c-1.5,0.2-3.8,0.4-6.6,0.4c-5.1,0-7.2-1.1-6.6-3.1c0.5-1.4,1.8-2.4,3.9-2.6l11.5-1.5L30.2,37.2L30.2,37.2z M83,24.9 c-0.5,1.5-2.7,2.6-6.7,3.2l-9.6,1.3l0.2-0.8c0.8-2.6,1.9-4.3,3.3-5.2c1.4-0.9,3.8-1.4,7.1-1.4C81.7,22.1,83.5,23,83,24.9L83,24.9z"></path> </svg> 