<?xml version="1.0" encoding="UTF-8"?> <svg xmlns="http://www.w3.org/2000/svg" xmlns:xlink="http://www.w3.org/1999/xlink" version="1.1" id="Layer_1" x="0px" y="0px" viewBox="0 0 120 60" style="enable-background:new 0 0 120 60;" xml:space="preserve"> <style type="text/css"> .st0{fill:#00204D;} </style> <g> <path class="st0" d="M39.3,27.7c2.1,0,3.4,1.1,4,2.9h3.1C45.7,27.1,43,25,39.3,25c-4.3,0-7.6,3.4-7.6,7.8c0,4.4,3.3,7.7,7.6,7.7 c3.6,0,6.3-2.2,7.1-5.6h-3.1c-0.6,1.7-2,2.9-4,2.9c-2.8,0-4.6-2-4.6-5C34.7,29.8,36.5,27.7,39.3,27.7z"></path> <path class="st0" d="M52.1,26.6l-0.1,0l-0.2-1.5h-2.6v15.3h2.9v-9.7c0-2,1.6-3.2,3.6-3.2c0.4,0,0.5,0,0.5,0v-2.8 c0,0-0.2-0.1-0.5-0.1C54.8,24.8,53.2,25.2,52.1,26.6z"></path> <path class="st0" d="M82.9,24.8c-2.6,0-4.1,1.1-4.8,1.8l-0.1,0l-0.2-1.5h-2.6v15.3h2.9v-9.6c0-2.1,1.9-3.3,4.3-3.3 c2,0,3.5,1,3.5,3.1v9.8h2.9v-9.9C88.8,26.3,85.8,24.8,82.9,24.8z"></path> <rect x="92.5" y="25.2" class="st0" width="2.9" height="15.3"></rect> <path class="st0" d="M64.7,25c-4.4,0-7.7,3.3-7.7,7.7c0,4.4,3.3,7.7,7.7,7.7c4.4,0,7.7-3.3,7.7-7.7C72.4,28.3,69.1,25,64.7,25z M64.7,37.7c-2.8,0-4.7-2.1-4.7-5c0-2.9,1.8-5,4.7-5c2.8,0,4.7,2.1,4.7,5C69.4,35.6,67.6,37.7,64.7,37.7z"></path> <path class="st0" d="M104.7,31.2c-2.8-0.6-2.7-1.3-2.7-1.9c0-0.8,0.8-1.7,2.2-1.7c1.2,0,2.4,0.6,2.4,2.5h2.8c0.1-3.1-2-5.1-5.1-5.1 c-2.8,0-5.1,2-5.1,4.4c0,3,2.4,4,5,4.5c2.8,0.6,3,1.5,3,2.1c0,1.2-1.2,2.1-2.8,2.1c-1.2,0-3-0.7-3-3h-2.8c-0.2,3.5,2.4,5.5,5.7,5.5 c3.2,0,5.8-2.1,5.8-4.8C110,32.8,107.2,31.8,104.7,31.2z"></path> <path class="st0" d="M19.5,19.3L10,40.5h3l1.9-4.3h11.9l1.9,4.3h3l-9.5-21.2H19.5z M20.8,22.9h0.1l0.1,0.4l2.7,6.2h-5.8l2.7-6.2 L20.8,22.9z M16,33.9l0.9-2h8l0.9,2H16z"></path> </g> </svg> 