<?xml version="1.0" encoding="UTF-8"?> <svg xmlns="http://www.w3.org/2000/svg" xmlns:xlink="http://www.w3.org/1999/xlink" version="1.1" id="Calque_1" x="0px" y="0px" viewBox="0 0 120 60" style="enable-background:new 0 0 120 60;" xml:space="preserve"> <style type="text/css"> .st0{fill:url(#SVGID_1_);} </style> <g> <g> <linearGradient id="SVGID_1_" gradientUnits="userSpaceOnUse" x1="43.7724" y1="21.2119" x2="31.2256" y2="45.8801"> <stop offset="6.965175e-02" style="stop-color:#E73E1B"></stop> <stop offset="0.1258" style="stop-color:#E84B23"></stop> <stop offset="0.2265" style="stop-color:#ED6A3C"></stop> <stop offset="0.359" style="stop-color:#F3986A"></stop> <stop offset="0.4602" style="stop-color:#F9BD95"></stop> <stop offset="0.4705" style="stop-color:#F6BE98"></stop> <stop offset="0.574" style="stop-color:#D3C6AB"></stop> <stop offset="0.672" style="stop-color:#B1C8B9"></stop> <stop offset="0.762" style="stop-color:#93C8C3"></stop> <stop offset="0.841" style="stop-color:#7DC7C8"></stop> <stop offset="0.9005" style="stop-color:#74C6CA"></stop> </linearGradient> <path class="st0" d="M47,40.8l-0.6-1.4l-3.9-8.9l-0.3-0.6l-4-9.2l-0.5-1.1l-2.4-5.4h-3.4h-1.6h-0.9l-8.9,20.5l-0.6,1.3l-4.2,9.7 l-0.1,0.3h2.5h6.3l2.3-5.2H33h2.6h2.4L40,45l0.4,0.9h1.2h7.6L47,40.8z M41.5,30.1l-7.1,1.5l-0.7-5.2l4.1-5.1L41.5,30.1z M32.2,32.1l-3.7,0.8l3.4-4.2L32.2,32.1z M35,14.7l2.3,5.4l-3.9,4.6L32,14.7H35z M29.8,14.7h0.7l1.2,12L26,33.4l-4.5,1L29.8,14.7z M20.9,35.7l4-0.9l-7.1,8.4L20.9,35.7z M26.1,39.7l-2.3,5.2h-5l8.7-10.8l4.8-1.1l0.7,6.7H26.1z M38.4,39.7h-2.9l-1-7.3l7.2-1.7 l4,9.3l-5.1,4.4L38.4,39.7z M46.1,41l1.8,4.2l-5.6,0L46.1,41z"></path> <g> <path d="M61.9,27.2h-1.6l-4.8,12.5h1.7l1.4-3.6h5.1l1.4,3.6h1.7L61.9,27.2z M59.2,34.5l2-5.1l1.9,5.1H59.2z"></path> <path d="M68.4,35.7c0-1.5,1.2-2.7,2.7-2.7c0.9,0,1.7,0.5,2.2,1.1l1.2-0.9c-0.1-0.2-0.3-0.3-0.4-0.5c-0.8-0.8-1.8-1.2-3-1.2 c-1.1,0-2.2,0.4-3,1.2c-0.8,0.8-1.2,1.9-1.2,3c0,1.1,0.4,2.2,1.2,3c0.8,0.8,1.9,1.2,3,1.2c1.1,0,2.2-0.4,3-1.2 c0.2-0.2,0.3-0.3,0.4-0.5l-1.2-0.9c-0.5,0.7-1.3,1.1-2.2,1.1C69.6,38.4,68.4,37.2,68.4,35.7"></path> <path d="M78.3,39.7h1.3v-1.4h-1.3c-0.6,0-1.2-0.6-1.2-1.3v-3.9h2.5v-0.9v-0.5h-2.5v-3.1h-1.5v3.1v1.4V37 C75.6,38.5,76.8,39.7,78.3,39.7"></path> <g> <g> <rect x="81.2" y="31.6" width="1.5" height="8.1"></rect> </g> <path d="M83,29.3c0-0.5-0.4-1-1-1c-0.6,0-1,0.4-1,1s0.4,1,1,1C82.5,30.3,83,29.9,83,29.3"></path> </g> <rect x="84.7" y="28.3" width="1.5" height="11.4"></rect> <g> <rect x="88.1" y="31.6" width="1.5" height="8.1"></rect> <path d="M89.9,29.3c0-0.5-0.4-1-1-1c-0.6,0-1,0.4-1,1s0.4,1,1,1C89.4,30.3,89.9,29.9,89.9,29.3"></path> </g> <path d="M94,39.7h1.3v-1.4h-1.3c-0.6,0-1.2-0.6-1.2-1.3v-3.9h2.5v-0.9v-0.5h-2.5v-3.1h-1.5v3.1v1.4V37 C91.3,38.5,92.5,39.7,94,39.7"></path> <path d="M104.4,31.6h-1.6l-2.4,6.1l-2.4-6.1h-1.6l3.3,8.1L98.2,43h1.6L104.4,31.6z"></path> </g> </g> <g> <g> <path d="M55.1,41.9c0-0.7,0.5-1.2,1.1-1.2c0.6,0,0.9,0.3,1,0.7l-0.4,0.1c-0.1-0.3-0.3-0.5-0.6-0.5c-0.4,0-0.7,0.3-0.7,0.8 c0,0.5,0.4,0.8,0.7,0.8c0.4,0,0.6-0.2,0.7-0.5l0.3,0.1c-0.1,0.4-0.4,0.7-1,0.7C55.7,43,55.1,42.6,55.1,41.9z"></path> <path d="M59,42.2c0,0.5-0.3,0.8-0.8,0.8c-0.5,0-0.8-0.3-0.8-0.8c0-0.5,0.3-0.8,0.8-0.8C58.7,41.4,59,41.8,59,42.2z M58.6,42.2 c0-0.3-0.2-0.5-0.4-0.5c-0.2,0-0.4,0.2-0.4,0.5c0,0.3,0.2,0.5,0.4,0.5C58.4,42.7,58.6,42.5,58.6,42.2z"></path> <path d="M59.7,43h-0.4v-1.5h0.4v0.2c0.1-0.2,0.3-0.2,0.4-0.2c0.4,0,0.5,0.3,0.5,0.6v1h-0.4v-0.9c0-0.2-0.1-0.3-0.3-0.3 c-0.2,0-0.3,0.2-0.3,0.4V43z"></path> <path d="M61.5,43h-0.4v-1.5h0.4v0.2c0.1-0.2,0.3-0.2,0.4-0.2c0.4,0,0.5,0.3,0.5,0.6v1h-0.4v-0.9c0-0.2-0.1-0.3-0.3-0.3 c-0.2,0-0.3,0.2-0.3,0.4V43z"></path> <path d="M64.2,42.5c-0.1,0.3-0.3,0.5-0.7,0.5c-0.4,0-0.8-0.3-0.8-0.8c0-0.5,0.4-0.8,0.7-0.8c0.5,0,0.7,0.3,0.7,0.8 c0,0.1,0,0.1,0,0.1h-1.1c0,0.2,0.2,0.4,0.4,0.4c0.2,0,0.3-0.1,0.4-0.3L64.2,42.5z M63.9,42.1c0-0.2-0.1-0.3-0.4-0.3 c-0.2,0-0.4,0.2-0.4,0.3H63.9z"></path> <path d="M64.8,42.2c0,0.3,0.2,0.5,0.4,0.5c0.2,0,0.3-0.2,0.4-0.3l0.3,0.1c-0.1,0.2-0.3,0.5-0.7,0.5c-0.4,0-0.8-0.3-0.8-0.8 c0-0.5,0.3-0.8,0.8-0.8c0.4,0,0.6,0.3,0.7,0.5L65.6,42c0-0.1-0.1-0.3-0.4-0.3C65,41.7,64.8,41.9,64.8,42.2z"></path> <path d="M66.7,41.5H67v0.3h-0.3v0.7c0,0.1,0.1,0.2,0.2,0.2c0,0,0.1,0,0.1,0V43c0,0-0.1,0-0.2,0c-0.3,0-0.5-0.2-0.5-0.5v-0.8H66 v-0.3h0.1c0.2,0,0.2-0.1,0.2-0.2V41h0.3V41.5z"></path> <path d="M67.5,40.7c0.1,0,0.2,0.1,0.2,0.2s-0.1,0.2-0.2,0.2c-0.1,0-0.2-0.1-0.2-0.2S67.4,40.7,67.5,40.7z M67.3,43v-1.5h0.4V43 H67.3z"></path> <path d="M68.5,43h-0.4v-1.5h0.4v0.2c0.1-0.2,0.3-0.2,0.4-0.2c0.4,0,0.5,0.3,0.5,0.6v1h-0.4v-0.9c0-0.2-0.1-0.3-0.3-0.3 c-0.2,0-0.3,0.2-0.3,0.4V43z"></path> <path d="M70.1,43c0,0.2,0.2,0.3,0.4,0.3c0.3,0,0.4-0.1,0.4-0.5v-0.2c-0.1,0.1-0.2,0.2-0.4,0.2c-0.4,0-0.7-0.3-0.7-0.7 c0-0.4,0.3-0.7,0.7-0.7c0.2,0,0.4,0.1,0.4,0.2v-0.2h0.3v1.4c0,0.4-0.2,0.8-0.8,0.8c-0.4,0-0.7-0.2-0.7-0.6L70.1,43z M70.9,42.2 c0-0.3-0.2-0.4-0.4-0.4c-0.2,0-0.4,0.2-0.4,0.4c0,0.3,0.2,0.4,0.4,0.4C70.8,42.6,70.9,42.4,70.9,42.2z"></path> <path d="M73.7,41.5l0.4,1.1l0.3-1.1h0.4L74.2,43h-0.4l-0.4-1.1L73.1,43h-0.4l-0.5-1.5h0.4l0.3,1.1l0.4-1.1H73.7z"></path> <path d="M75.2,40.7c0.1,0,0.2,0.1,0.2,0.2s-0.1,0.2-0.2,0.2c-0.1,0-0.2-0.1-0.2-0.2S75,40.7,75.2,40.7z M75,43v-1.5h0.4V43H75z"></path> <path d="M76.2,41.5h0.3v0.3h-0.3v0.7c0,0.1,0.1,0.2,0.2,0.2c0,0,0.1,0,0.1,0V43c0,0-0.1,0-0.2,0c-0.3,0-0.5-0.2-0.5-0.5v-0.8 h-0.3v-0.3h0.1c0.2,0,0.2-0.1,0.2-0.2V41h0.3V41.5z"></path> <path d="M77.2,43h-0.4v-2.3h0.4v0.9c0.1-0.1,0.3-0.2,0.4-0.2c0.4,0,0.6,0.3,0.6,0.6v1h-0.4v-0.9c0-0.2-0.1-0.3-0.3-0.3 c-0.2,0-0.3,0.1-0.3,0.3V43z"></path> <path d="M79.6,40.7c0.1,0,0.2,0.1,0.2,0.2s-0.1,0.2-0.2,0.2c-0.1,0-0.2-0.1-0.2-0.2S79.4,40.7,79.6,40.7z M79.4,43v-1.5h0.4V43 H79.4z"></path> <path d="M80.6,43h-0.4v-1.5h0.4v0.2c0.1-0.2,0.3-0.2,0.4-0.2c0.4,0,0.5,0.3,0.5,0.6v1h-0.4v-0.9c0-0.2-0.1-0.3-0.3-0.3 c-0.2,0-0.3,0.2-0.3,0.4V43z"></path> <path d="M82.4,41.5h0.3v0.3h-0.3v0.7c0,0.1,0.1,0.2,0.2,0.2c0,0,0.1,0,0.1,0V43c0,0-0.1,0-0.2,0c-0.3,0-0.5-0.2-0.5-0.5v-0.8 h-0.3v-0.3h0.1c0.2,0,0.2-0.1,0.2-0.2V41h0.3V41.5z"></path> <path d="M84.4,42.5c-0.1,0.3-0.3,0.5-0.7,0.5c-0.4,0-0.8-0.3-0.8-0.8c0-0.5,0.4-0.8,0.7-0.8c0.5,0,0.7,0.3,0.7,0.8 c0,0.1,0,0.1,0,0.1h-1.1c0,0.2,0.2,0.4,0.4,0.4c0.2,0,0.3-0.1,0.4-0.3L84.4,42.5z M84.1,42.1c0-0.2-0.1-0.3-0.4-0.3 c-0.2,0-0.4,0.2-0.4,0.3H84.1z"></path> <path d="M84.8,43v-2.3h0.4V43H84.8z"></path> <path d="M85.6,43v-2.3h0.4V43H85.6z"></path> <path d="M86.5,40.7c0.1,0,0.2,0.1,0.2,0.2s-0.1,0.2-0.2,0.2c-0.1,0-0.2-0.1-0.2-0.2S86.4,40.7,86.5,40.7z M86.4,43v-1.5h0.4V43 H86.4z"></path> <path d="M87.4,43c0,0.2,0.2,0.3,0.4,0.3c0.3,0,0.4-0.1,0.4-0.5v-0.2c-0.1,0.1-0.2,0.2-0.4,0.2c-0.4,0-0.7-0.3-0.7-0.7 c0-0.4,0.3-0.7,0.7-0.7c0.2,0,0.4,0.1,0.4,0.2v-0.2h0.3v1.4c0,0.4-0.2,0.8-0.8,0.8c-0.4,0-0.7-0.2-0.7-0.6L87.4,43z M88.2,42.2 c0-0.3-0.2-0.4-0.4-0.4c-0.2,0-0.4,0.2-0.4,0.4c0,0.3,0.2,0.4,0.4,0.4C88.1,42.6,88.2,42.4,88.2,42.2z"></path> <path d="M90.3,42.5C90.2,42.8,90,43,89.6,43c-0.4,0-0.8-0.3-0.8-0.8c0-0.5,0.4-0.8,0.7-0.8c0.5,0,0.7,0.3,0.7,0.8 c0,0.1,0,0.1,0,0.1h-1.1c0,0.2,0.2,0.4,0.4,0.4c0.2,0,0.3-0.1,0.4-0.3L90.3,42.5z M90,42.1c0-0.2-0.1-0.3-0.4-0.3 c-0.2,0-0.4,0.2-0.4,0.3H90z"></path> <path d="M91,43h-0.4v-1.5H91v0.2c0.1-0.2,0.3-0.2,0.4-0.2c0.4,0,0.5,0.3,0.5,0.6v1h-0.4v-0.9c0-0.2-0.1-0.3-0.3-0.3 c-0.2,0-0.3,0.2-0.3,0.4V43z"></path> <path d="M92.7,42.2c0,0.3,0.2,0.5,0.4,0.5c0.2,0,0.3-0.2,0.4-0.3l0.3,0.1c-0.1,0.2-0.3,0.5-0.7,0.5c-0.4,0-0.8-0.3-0.8-0.8 c0-0.5,0.3-0.8,0.8-0.8c0.4,0,0.6,0.3,0.7,0.5L93.5,42c0-0.1-0.1-0.3-0.4-0.3C92.9,41.7,92.7,41.9,92.7,42.2z"></path> <path d="M95.4,42.5c-0.1,0.3-0.3,0.5-0.7,0.5c-0.4,0-0.8-0.3-0.8-0.8c0-0.5,0.4-0.8,0.7-0.8c0.5,0,0.7,0.3,0.7,0.8 c0,0.1,0,0.1,0,0.1h-1.1c0,0.2,0.2,0.4,0.4,0.4c0.2,0,0.3-0.1,0.4-0.3L95.4,42.5z M95.1,42.1c0-0.2-0.1-0.3-0.4-0.3 c-0.2,0-0.4,0.2-0.4,0.3H95.1z"></path> </g> </g> </g> </svg> 