<?xml version="1.0" encoding="UTF-8"?> <svg xmlns="http://www.w3.org/2000/svg" xmlns:xlink="http://www.w3.org/1999/xlink" version="1.1" id="Warstwa_1" x="0px" y="0px" viewBox="0 0 120 60" style="enable-background:new 0 0 120 60;" xml:space="preserve"> <style type="text/css"> .st0{fill:#BD2228;} </style> <g> <path class="st0" d="M58.5,43.4c-15.2-0.2-28.9-2.7-38.7-6.7c8.6,5.3,22.9,8.9,39.1,9.1c17.3,0.2,32.4-3.5,41-9.2 C89.9,40.9,75,43.6,58.5,43.4z"></path> <g> <g> <path class="st0" d="M76.2,33.8c-0.2,0-0.5-0.1-1.1-0.1h-1.5v4.6h0.9v-1.7h0.6c0.4,0,0.7,0,1-0.1c0.2,0,0.3-0.1,0.5-0.2 c0.2-0.1,0.3-0.3,0.4-0.5c0.1-0.2,0.2-0.4,0.2-0.7c0-0.4-0.1-0.7-0.3-0.9C76.7,34,76.5,33.9,76.2,33.8z M76.1,35.5 c-0.1,0.1-0.2,0.2-0.3,0.2c-0.1,0-0.4,0.1-0.7,0.1l-0.5,0v-1.3H75c0.3,0,0.6,0,0.7,0c0.1,0,0.3,0.1,0.4,0.2 c0.1,0.1,0.1,0.2,0.1,0.4C76.2,35.3,76.1,35.4,76.1,35.5z M50,15.6c-0.7-0.6-1.5-1-2.5-1.2c-0.7-0.2-1.7-0.2-3-0.2h-5.9v17.1h6.2 c1,0,1.9-0.1,2.7-0.3c0.8-0.2,1.5-0.5,2-0.9c0.6-0.4,1.1-0.9,1.6-1.5c0.5-0.7,0.9-1.5,1.2-2.5c0.3-1,0.5-2.2,0.5-3.5 c0-1.5-0.2-2.9-0.7-4.1C51.6,17.4,50.9,16.4,50,15.6z M50,25.9c-0.3,0.9-0.7,1.6-1.3,2.2c-0.4,0.4-0.9,0.7-1.5,0.9 c-0.6,0.2-1.5,0.3-2.7,0.3h-3.7V16.2h3.6c1.3,0,2.3,0.1,2.9,0.4c0.8,0.3,1.6,1,2.1,1.9c0.6,1,0.9,2.3,0.9,4.1 C50.4,23.9,50.3,25,50,25.9z M26.7,14.2l-6.6,17.1h2.4l1.9-5.2h7.2l2,5.2h2.6l-7-17.1H26.7z M25.1,24.2l1.9-5 c0.4-1.1,0.7-2.2,0.9-3.3c0.3,0.9,0.7,2.1,1.2,3.6l1.8,4.7H25.1z M56,36.3h2.3v-0.8H56v-1h2.5v-0.8h-3.4v4.6h3.5v-0.8H56L56,36.3 L56,36.3z M66.5,29.2H58V14.2h-2.3v17.1h10.7L66.5,29.2L66.5,29.2z M97.2,26.6c-0.6-0.9-1.2-1.7-1.9-2.3C95,24,94.6,23.8,94,23.5 c1.6-0.2,2.9-0.8,3.6-1.6c0.8-0.8,1.2-1.9,1.2-3.1c0-0.9-0.2-1.8-0.7-2.6c-0.5-0.8-1.1-1.3-1.9-1.6c-0.8-0.3-2-0.5-3.5-0.5h-7.6 v17.1h2.3v-7.6H90c0.6,0,1,0,1.3,0.1c0.4,0.1,0.7,0.2,1,0.5c0.3,0.2,0.7,0.6,1.1,1.1c0.4,0.5,1,1.3,1.6,2.4l2.3,3.6h2.9 L97.2,26.6z M92.3,21.7h-4.9V16h5.4c1.3,0,2.2,0.3,2.8,0.8c0.6,0.5,0.9,1.2,0.9,2c0,0.6-0.2,1.1-0.5,1.5c-0.3,0.5-0.7,0.8-1.3,1 C94.1,21.6,93.3,21.7,92.3,21.7z M78.8,36.3h2.3v-0.8h-2.3v-1h2.5v-0.8h-3.4v4.6h3.5v-0.8h-2.6L78.8,36.3L78.8,36.3z M70.7,33.7 c-0.4,0-0.7,0.1-1,0.2c-0.2,0.1-0.4,0.2-0.6,0.4c-0.2,0.2-0.3,0.4-0.4,0.6c-0.1,0.3-0.2,0.7-0.2,1.2c0,0.7,0.2,1.3,0.6,1.7 c0.4,0.4,0.9,0.6,1.6,0.6c0.7,0,1.2-0.2,1.6-0.6c0.4-0.4,0.6-1,0.6-1.7c0-0.7-0.2-1.3-0.6-1.8C71.9,33.9,71.3,33.7,70.7,33.7z M71.6,37.2c-0.2,0.3-0.5,0.4-0.9,0.4c-0.4,0-0.7-0.1-0.9-0.4c-0.2-0.3-0.4-0.7-0.4-1.2c0-0.5,0.1-0.9,0.4-1.2 c0.2-0.3,0.5-0.4,0.9-0.4c0.4,0,0.7,0.1,0.9,0.4c0.2,0.3,0.3,0.7,0.3,1.2C71.9,36.6,71.8,37,71.6,37.2z M67,36.7 c-0.1-0.1-0.3-0.3-0.5-0.4c0.4-0.1,0.7-0.2,0.9-0.4c0.2-0.2,0.3-0.5,0.3-0.9c0-0.3-0.1-0.5-0.2-0.7c-0.1-0.2-0.3-0.4-0.5-0.4 c-0.2-0.1-0.6-0.1-1.1-0.1h-2v4.6h0.9v-1.9h0.2c0.2,0,0.4,0,0.5,0.1c0.1,0,0.2,0.1,0.3,0.2c0.1,0.1,0.3,0.3,0.5,0.7l0.7,1h1.1 l-0.6-0.9C67.4,37.1,67.2,36.8,67,36.7z M65.6,35.7h-0.7v-1.2h0.7c0.4,0,0.6,0,0.7,0c0.1,0,0.3,0.1,0.3,0.2 c0.1,0.1,0.1,0.2,0.1,0.4c0,0.1,0,0.3-0.1,0.3c-0.1,0.1-0.1,0.2-0.3,0.2C66.3,35.7,66.1,35.7,65.6,35.7z M62.1,36.3 c0,0.4,0,0.6,0,0.8c0,0.2-0.1,0.3-0.2,0.4c-0.1,0.1-0.3,0.2-0.6,0.2c-0.3,0-0.5-0.1-0.6-0.2c-0.1-0.1-0.2-0.3-0.3-0.5 c0-0.1,0-0.4,0-0.8v-2.5h-0.9v2.5c0,0.5,0,0.9,0.1,1.2c0,0.2,0.1,0.3,0.3,0.5c0.1,0.2,0.3,0.3,0.5,0.4c0.2,0.1,0.6,0.2,1,0.2 c0.4,0,0.7,0,0.9-0.1c0.2-0.1,0.4-0.2,0.5-0.4c0.1-0.2,0.2-0.3,0.3-0.6c0-0.2,0.1-0.6,0.1-1.2v-2.4h-0.9V36.3z M71.5,23.4l9.5,0 v-2h-9.5v-5.2l10.1,0v-2H69.2v17.1H82v-2l-10.5,0V23.4L71.5,23.4z"></path> </g> </g> </g> </svg> 