<?xml version="1.0" encoding="UTF-8"?> <svg xmlns="http://www.w3.org/2000/svg" xmlns:xlink="http://www.w3.org/1999/xlink" version="1.1" id="Layer_1" x="0px" y="0px" viewBox="0 0 120 60" style="enable-background:new 0 0 120 60;" xml:space="preserve"> <style type="text/css"> .st0{fill:#00A2DF;} </style> <g> <path class="st0" d="M16.3,30.8l3.8-8.5c1.9,4.2,3.8,8.5,5.7,12.7c2.4,5.5,5.3,7.6,12,7.6c-5.6-0.5-8-3.5-10.1-8.2L20,17.3 l-10.8,24h2.3l3.8-8.4h8.5c-0.3-0.7-0.6-1.4-0.9-2.1C22.9,30.8,16.3,30.8,16.3,30.8z M79.8,22.4H60.4c1,0.5,1.9,1.2,2.6,2.1h6v16.8 h2.1V24.5h6C77.9,23.7,78.8,23,79.8,22.4z M107.1,37.1c-1.3,1.3-3.2,2.2-5.2,2.2c-2,0-3.9-0.8-5.2-2.2c-1.3-1.3-2.2-3.2-2.2-5.2 c0-2,0.8-3.9,2.2-5.2c1.3-1.3,3.2-2.2,5.2-2.2c2,0,3.9,0.8,5.2,2.2c0.6,0.6,1.1,1.3,1.5,2.1h2.2c-0.5-1.4-1.2-2.6-2.2-3.6 c-1.7-1.7-4.1-2.8-6.7-2.8c-2.6,0-5,1.1-6.7,2.8c-0.7,0.7-1.3,1.5-1.7,2.4c-0.5-0.9-1-1.7-1.7-2.4c-1.7-1.7-4.1-2.8-6.7-2.8 c-2.6,0-5,1.1-6.7,2.8c-1.7,1.7-2.8,4.1-2.8,6.7c0,2.6,1.1,5,2.8,6.7c1.7,1.7,4.1,2.8,6.7,2.8c2.6,0,5-1.1,6.7-2.8 c0.3-0.3,0.6-0.7,0.9-1.1c-0.4-0.7-0.8-1.4-1-2.2c-0.4,0.7-0.8,1.3-1.3,1.8c-1.3,1.3-3.2,2.2-5.2,2.2c-2,0-3.9-0.8-5.2-2.2 c-1.1-1.1-1.9-2.6-2.1-4.2h14.7c0.2,2.2,1.2,4.2,2.7,5.6c1.7,1.7,4.1,2.8,6.7,2.8c2.6,0,5-1.1,6.7-2.8c1-1,1.8-2.2,2.2-3.6h-2.2 C108.2,35.8,107.7,36.5,107.1,37.1z M77.7,30.8c0.2-1.6,1-3.1,2.1-4.2c1.3-1.3,3.2-2.2,5.2-2.2c2,0,3.9,0.8,5.2,2.2 c1.1,1.1,1.9,2.6,2.1,4.2H77.7z M55.2,22.5c-2.6,0-5,1.1-6.7,2.8c-0.7,0.7-1.3,1.5-1.7,2.4c-0.5-0.9-1-1.7-1.7-2.4 c-1.7-1.7-4.1-2.8-6.7-2.8c-2.6,0-5,1.1-6.7,2.8c-1.7,1.7-2.8,4.1-2.8,6.7c0,2.6,1.1,5,2.8,6.7c1.7,1.7,4.1,2.8,6.7,2.8 c2.6,0,5-1.1,6.7-2.8c0.3-0.3,0.6-0.7,0.9-1.1c-0.4-0.7-0.8-1.4-1-2.2c-0.4,0.7-0.8,1.3-1.3,1.8c-1.3,1.3-3.2,2.2-5.2,2.2 c-2,0-3.9-0.8-5.2-2.2c-1.1-1.1-1.9-2.6-2.1-4.2h14.7c0.2,2.2,1.2,4.2,2.7,5.6c1.7,1.7,4.1,2.8,6.7,2.8c2.6,0,5-1.1,6.7-2.8 c1.7-1.7,2.8-4.1,2.8-6.7c0-2.6-1.1-5-2.8-6.7C60.1,23.5,57.8,22.5,55.2,22.5z M31.1,30.8c0.2-1.6,1-3.1,2.1-4.2 c1.3-1.3,3.2-2.2,5.2-2.2c2,0,3.9,0.8,5.2,2.2c1.1,1.1,1.9,2.6,2.1,4.2H31.1z M60.4,37.1c-1.3,1.3-3.2,2.2-5.2,2.2 c-2,0-3.9-0.8-5.2-2.2c-1.3-1.3-2.2-3.2-2.2-5.2c0-2,0.8-3.9,2.2-5.2c1.3-1.3,3.2-2.2,5.2-2.2c2,0,3.9,0.8,5.2,2.2 c1.3,1.3,2.2,3.2,2.2,5.2C62.5,33.9,61.7,35.8,60.4,37.1z"></path> </g> </svg> 