<?xml version="1.0" encoding="UTF-8"?> <svg xmlns="http://www.w3.org/2000/svg" xmlns:xlink="http://www.w3.org/1999/xlink" version="1.1" id="Layer_1" x="0px" y="0px" viewBox="0 0 120 60" style="enable-background:new 0 0 120 60;" xml:space="preserve"> <style type="text/css"> .st0{fill-rule:evenodd;clip-rule:evenodd;} .st1{fill-rule:evenodd;clip-rule:evenodd;fill:#ED1C24;} </style> <g> <path class="st0" d="M71.4,38.7c0-0.1,0-0.2,0-0.3c0-3.7,0-7.5,0-11.2c0-0.1,0-0.2,0-0.3c0.1,0,0.2,0,0.2,0c0.8,0,1.5,0,2.3,0 c0.2,0,0.3,0,0.4,0.2c1.7,2.1,3.5,4.2,5.2,6.2c0.1,0.1,0.1,0.1,0.2,0.2c0-2.2,0-4.4,0-6.6c0.9,0,1.8,0,2.7,0c0,0.1,0,0.2,0,0.2 c0,3.8,0,7.6,0,11.3c0,0.1,0,0.2,0,0.2c-0.9,0-1.8,0-2.7,0c0,0-0.1-0.1-0.1-0.1c-1.5-1.8-3-3.6-4.6-5.5c-0.3-0.3-0.6-0.7-0.9-1 c0,2.3,0,4.4,0,6.6C73.2,38.7,72.3,38.7,71.4,38.7z"></path> <path class="st0" d="M88.2,38.7c-0.4-0.1-0.8-0.2-1.2-0.3c-1.9-0.6-3.9-2.6-4-5.3c-0.1-3.1,2-5.2,3.8-5.8c0.6-0.2,1.3-0.4,2-0.4 c2,0,3.9,0,5.9,0c0.1,0,0.1,0,0.2,0c0,0.9,0,1.8,0,2.7c-0.1,0-0.2,0-0.3,0c-1.9,0-3.8,0-5.6,0c-1.4,0-2.7,0.9-3.1,2.2 c-0.6,2.1,0.8,4.1,3,4.2c1.1,0,2.1,0,3.2,0c0,0,0,0,0.1,0c0-0.6,0-1.2,0-1.8c-0.3,0-0.7,0-1,0c-0.3,0-0.6,0-0.9,0 c-0.1,0-0.2-0.1-0.2-0.1c-0.4-0.8-0.7-1.7-1.1-2.5c0,0,0,0,0-0.1c2,0,3.9,0,5.9,0c0,0.1,0,0.2,0,0.3c0,2.2,0,4.5,0,6.7 c0,0.1,0,0.2,0,0.3C92.7,38.7,90.4,38.7,88.2,38.7z"></path> <path class="st0" d="M22.4,38.7c0-3.9,0-7.9,0-11.8c0.9,0,1.8,0,2.7,0c0,1.5,0,3,0,4.5c0.1-0.1,0.2-0.1,0.2-0.2 c1.4-1.4,2.8-2.8,4.2-4.2c0.1-0.1,0.3-0.2,0.4-0.2c1.1,0,2.2,0,3.3,0c0.1,0,0.2,0,0.3,0c-1.8,1.8-3.6,3.6-5.3,5.3 c0.6,0.7,1.2,1.4,1.8,2.1c1.2,1.4,2.4,2.8,3.6,4.2c0,0,0.1,0.1,0.1,0.1c-1.2,0-2.4,0-3.5,0c-1.3-1.5-2.5-3-3.8-4.5 c-0.4,0.4-0.7,0.7-1.1,1.1c0,0-0.1,0.1-0.1,0.2c0,1.1,0,2.2,0,3.3C24.2,38.7,23.3,38.7,22.4,38.7z"></path> <path class="st0" d="M9.1,38.7c0.3-0.7,0.6-1.3,0.9-2c1.4-3.2,2.9-6.4,4.3-9.6c0.1-0.1,0.1-0.2,0.3-0.2c0.6,0,1.1,0,1.7,0 c0.2,0,0.2,0.1,0.3,0.2c1.7,3.9,3.4,7.7,5.1,11.6c0,0,0,0.1,0,0.1c-1,0-2,0-3,0c0,0,0,0,0,0c-1.1-2.5-2.2-4.9-3.3-7.3 c0,0,0-0.1-0.1-0.1c-0.7,1.6-1.4,3.2-2.1,4.8c1.3,0,2.6,0,3.9,0c-0.4,0.9-0.8,1.8-1.2,2.7c-2.2,0-4.5,0-6.7,0 C9.2,38.7,9.1,38.7,9.1,38.7z"></path> <path class="st0" d="M45.8,38.7c0.5-1.1,1-2.2,1.4-3.3c1.2-2.8,2.5-5.6,3.7-8.3c0.1-0.2,0.2-0.2,0.3-0.2c0.6,0,1.1,0,1.7,0 c0.1,0,0.2,0,0.3,0.2c1.7,3.8,3.4,7.6,5.1,11.5c0,0.1,0,0.1,0.1,0.2c-1,0-2,0-2.9,0c-1.1-2.5-2.2-5-3.4-7.5 c-0.7,1.6-1.4,3.2-2.2,4.9c1.3,0,2.6,0,3.9,0c-0.4,0.9-0.8,1.8-1.2,2.7C50.4,38.7,48.1,38.7,45.8,38.7z"></path> <path class="st0" d="M41.5,38.7c-1.2-1.4-2.4-2.9-3.6-4.3c-0.1-0.2-0.2-0.3-0.1-0.4c0.4-0.8,0.7-1.5,1-2.3c0.1-0.1,0.1-0.2,0.3-0.2 c0.8,0,1.5,0,2.3,0c0.4,0,0.7-0.2,0.9-0.5c0.2-0.3,0.1-0.6-0.1-0.9c-0.2-0.3-0.5-0.4-0.9-0.4c-2.1,0-4.1,0-6.2,0 c-0.3,0-0.5,0-0.8,0c0-0.9,0-1.8,0-2.7c0.1,0,0.2,0,0.2,0c2.3,0,4.6,0,6.9,0c2.2,0,3.9,1.9,3.6,4c-0.2,1.9-1.7,3.2-3.6,3.2 c-0.1,0-0.1,0-0.2,0c0.2,0.2,0.4,0.4,0.5,0.6c1.1,1.3,2.1,2.5,3.2,3.8c0,0,0.1,0.1,0.1,0.1C43.9,38.7,42.7,38.7,41.5,38.7z"></path> <path class="st0" d="M62.3,38.7c-0.4-0.1-0.7-0.1-1.1-0.2c-1.9-0.6-3.9-2.5-4.1-5.3c-0.2-3.1,2-5.9,5.1-6.3c0.2,0,0.5,0,0.7,0 c1.4,0,2.7,0,4.1,0c0.1,0,0.1,0,0.2,0c0,0.9,0,1.8,0,2.7c-0.1,0-0.2,0-0.2,0c-1.3,0-2.7,0-4,0c-1.6,0-2.9,1.1-3.2,2.6 c-0.4,2,1.1,3.8,3.2,3.8c1.3,0,2.6,0,3.9,0c0.1,0,0.2,0,0.3,0c0,0.9,0,1.8,0,2.7C65.7,38.7,64,38.7,62.3,38.7z"></path> <path class="st0" d="M68,38.7c0-0.1,0-0.2,0-0.3c0-3.8,0-7.5,0-11.3c0-0.1,0-0.2,0-0.3c0.9,0,1.8,0,2.7,0c0,0.1,0,0.2,0,0.3 c0,3.8,0,7.6,0,11.3c0,0.1,0,0.2,0,0.2C69.8,38.7,68.9,38.7,68,38.7z"></path> <path class="st0" d="M34.3,38.7c0-2.4,0-4.8,0-7.2c0.9,0,1.8,0,2.7,0c0,0.1,0,0.2,0,0.3c0,2.2,0,4.5,0,6.7c0,0.1,0,0.2,0,0.3 C36.1,38.7,35.2,38.7,34.3,38.7z"></path> <path class="st1" d="M110.9,21.6c-0.4,0.5-0.9,1-1.3,1.5c-0.3,0.3-0.5,0.6-0.8,1c-0.1,0.1-0.2,0.1-0.2,0.1c-1.6-0.2-3.3-0.2-4.9,0 c0,0-0.1,0-0.1,0c0-0.1,0.1-0.1,0.1-0.2c0.7-0.8,1.3-1.6,2-2.4c0.1-0.1,0.2-0.2,0.4-0.2c0.5-0.1,0.9-0.1,1.4-0.1c0.6,0,1.2,0,1.8,0 c0.1,0,0.2,0,0.2,0C110,21.4,110.5,21.4,110.9,21.6C110.9,21.5,110.9,21.5,110.9,21.6z"></path> <path class="st1" d="M95.8,26.9c0.2-0.2,0.4-0.5,0.6-0.7c0.5-0.6,1-1.2,1.6-1.8c0.1-0.1,0.2-0.1,0.3-0.1c1.6,0.2,3.3,0.2,4.9,0 c0,0,0.1,0,0.1,0c-0.1,0.1-0.1,0.1-0.1,0.2c-0.6,0.8-1.3,1.5-1.9,2.3c-0.1,0.1-0.2,0.2-0.4,0.2c-1.6,0.2-3.1,0.2-4.7,0 C96,26.9,95.9,26.9,95.8,26.9z"></path> <path class="st1" d="M106.4,26.9c-0.2,0.3-0.4,0.5-0.6,0.7c-0.5,0.6-1,1.2-1.6,1.9c-0.1,0.1-0.2,0.1-0.3,0.1c-1.7-0.2-3.3-0.2-5,0 c0,0,0,0,0,0c0,0,0-0.1,0.1-0.1c0.7-0.8,1.3-1.6,2-2.4c0.1-0.1,0.2-0.2,0.3-0.2c1.5-0.2,3-0.2,4.5,0 C106.1,26.9,106.2,26.9,106.4,26.9z"></path> </g> </svg> 