<?xml version="1.0" encoding="UTF-8"?> <svg xmlns="http://www.w3.org/2000/svg" xmlns:xlink="http://www.w3.org/1999/xlink" version="1.1" id="Layer_1" x="0px" y="0px" viewBox="0 0 120 60" style="enable-background:new 0 0 120 60;" xml:space="preserve"> <style type="text/css"> .st0{fill-rule:evenodd;clip-rule:evenodd;fill:#EA0000;} .st1{fill-rule:evenodd;clip-rule:evenodd;fill:#FFFFFF;} </style> <g> <rect x="10" y="16.3" class="st0" width="100" height="27.5"></rect> <g> <path class="st1" d="M101,25.2v-1.5h0.6c0.1,0,0.2,0,0.3,0c0.1,0,0.1,0.1,0.2,0.2c0,0.1,0.1,0.2,0.1,0.2c0,0.1,0,0.2-0.1,0.3 c-0.1,0.1-0.2,0.1-0.3,0.1c0.1,0,0.1,0.1,0.1,0.1c0.1,0.1,0.1,0.1,0.2,0.2l0.2,0.4h-0.2l-0.2-0.3c-0.1-0.1-0.1-0.2-0.2-0.2 c-0.1-0.1-0.1-0.1-0.1-0.1c0,0-0.1,0-0.1,0c0,0-0.1,0-0.1,0h-0.2v0.6L101,25.2L101,25.2z M88.3,34.7l-4.6-9.5c0.8,0,1.7,0,2.5,0 l4.6,9.5H88.3L88.3,34.7z M92.5,34.7l-4.6-9.5h2.5l3.1,6.5l3.1-6.5c0.8,0,1.7,0,2.5,0l-4.6,9.5h-0.3l0,0 C93.7,34.7,93.1,34.7,92.5,34.7L92.5,34.7z M83.5,27.4c-2.4,0-4.7,0-7.1,0c0-0.7,0-1.5,0-2.2c2.4,0,4.7,0,7.1,0 C83.5,25.9,83.5,26.6,83.5,27.4L83.5,27.4z M83.5,31c-2.4,0-4.7,0-7.1,0c0-0.7,0-1.5,0-2.2c2.4,0,4.7,0,7.1,0 C83.5,29.6,83.5,30.3,83.5,31L83.5,31z M83.5,34.7c-2.4,0-4.7,0-7.1,0c0-0.7,0-1.5,0-2.2c2.4,0,4.7,0,7.1,0 C83.5,33.2,83.5,33.9,83.5,34.7L83.5,34.7z M65.3,34.7l-4.6-9.5c0.8,0,1.7,0,2.5,0l3.1,6.5l3.1-6.5c0.8,0,1.7,0,2.5,0l-4.6,9.5 h-0.3l0,0C66.5,34.7,65.9,34.7,65.3,34.7L65.3,34.7z M58.3,25.2v7.3H63c0,0.7,0,1.5,0,2.2c-2.3,0-4.6,0-6.9,0c0-3.2,0-6.3,0-9.5 C56.8,25.2,57.5,25.2,58.3,25.2L58.3,25.2z M49.8,25.2v7.3h4.7c0,0.7,0,1.5,0,2.2c-2.3,0-4.6,0-6.9,0c0-3.2,0-6.3,0-9.5 C48.3,25.2,49,25.2,49.8,25.2L49.8,25.2z M42.2,25.2l4.6,9.5c-0.8,0-1.7,0-2.5,0l-3.1-6.5L38,34.7c-0.8,0-1.7,0-2.5,0l4.6-9.5 C40.8,25.2,41.5,25.2,42.2,25.2L42.2,25.2z M74.6,25.2c0,3.2,0,6.3,0,9.5c-0.7,0-1.5,0-2.2,0c0-3.2,0-6.3,0-9.5 C73.2,25.2,73.9,25.2,74.6,25.2L74.6,25.2z M101.6,22.9c0.4,0,0.8,0.2,1.1,0.5c0.3,0.3,0.5,0.7,0.5,1.1s-0.2,0.8-0.5,1.1 c-0.3,0.3-0.7,0.5-1.1,0.5c-0.4,0-0.8-0.2-1.1-0.5s-0.5-0.7-0.5-1.1s0.2-0.8,0.5-1.1C100.8,23.1,101.2,22.9,101.6,22.9L101.6,22.9 z M102.5,23.6c-0.2-0.2-0.6-0.4-0.9-0.4c-0.3,0-0.6,0.2-0.9,0.4c-0.2,0.2-0.4,0.6-0.4,0.9s0.2,0.6,0.4,0.9 c0.2,0.2,0.6,0.4,0.9,0.4c0.3,0,0.7-0.2,0.9-0.4c0.2-0.2,0.4-0.6,0.4-0.9C102.9,24.2,102.7,23.9,102.5,23.6L102.5,23.6z M101.2,24.4h0.4c0.1,0,0.2,0,0.2,0c0.1,0,0.1-0.1,0.1-0.1s0-0.1,0-0.1c0-0.1,0-0.1-0.1-0.2c-0.1,0-0.1-0.1-0.2-0.1h-0.5V24.4 L101.2,24.4z"></path> <g> <path class="st1" d="M21.3,23.7c0,0,0,0.1,0.1,0.1c2.2,5.5,4.2,7.6,9.9,10c0,0,0.1,0,0.1,0c0.4,0.2,0.2,1-0.3,1 c-0.1,0-0.1,0-0.2,0c-5.6-0.8-8.4-0.1-13.1,3.5c0,0-0.1,0.1-0.1,0.1c-0.7,0.3-1.1-0.1-0.8-0.7c0-0.1,0.1-0.1,0.1-0.2 c3.5-4.5,4.2-7.3,3.4-13.5c0,0,0-0.1,0-0.1C20.4,23.5,21.1,23.3,21.3,23.7L21.3,23.7z"></path> <path class="st1" d="M23.9,25.4C24,25.4,24,25.5,23.9,25.4c3.2,1.3,4.4,2.4,5.8,5.7c0,0,0,0,0,0.1c0.1,0.2,0.6,0.1,0.6-0.2 c0,0,0-0.1,0-0.1c-0.4-3.2,0-4.8,2-7.4c0,0,0,0,0.1-0.1c0.2-0.4-0.1-0.6-0.4-0.5c0,0-0.1,0-0.1,0.1c-2.6,2-4.2,2.4-7.7,1.9 c0,0,0,0-0.1,0C23.8,24.9,23.7,25.3,23.9,25.4L23.9,25.4z"></path> </g> </g> </g> </svg> 