<?xml version="1.0" encoding="UTF-8"?> <svg xmlns="http://www.w3.org/2000/svg" xmlns:xlink="http://www.w3.org/1999/xlink" version="1.1" id="Layer_1" x="0px" y="0px" viewBox="0 0 120 60" style="enable-background:new 0 0 120 60;" xml:space="preserve"> <style type="text/css"> .st0{fill-rule:evenodd;clip-rule:evenodd;} .st1{fill-rule:evenodd;clip-rule:evenodd;fill:#00A76F;} </style> <g> <path class="st0" d="M34.4,40H29l-1.6-4h-8.9l-1.5,4h-5.3l8.1-20h5.8L34.4,40z M22.7,24.8l-2.9,7.8h6.2L22.7,24.8z"></path> <polygon class="st0" points="53.8,20 58.2,20 58.2,40 53.2,40 53.2,27.5 47.8,33.8 47,33.8 41.7,27.5 41.7,40 36.7,40 36.7,20 41,20 47.4,27.4 "></polygon> <path class="st0" d="M70.8,20c7.3,0,11,4.5,11,10c0,5.7-3.6,10-11.6,10H62V20L70.8,20L70.8,20z M67,36.3h3.3c5,0,6.5-3.4,6.5-6.3 c0-3.4-1.8-6.3-6.6-6.3H67V36.3z"></path> <polygon class="st1" points="102.1,24.8 91.8,24.8 85.5,18.5 108.3,18.5 108.3,41.3 102.1,35.1 "></polygon> <polygon class="st1" points="91.8,35.1 91.8,26 85.3,32.5 85.3,41.5 94.3,41.5 100.8,35.1 "></polygon> </g> </svg> 