<?xml version="1.0" encoding="UTF-8"?> <svg xmlns="http://www.w3.org/2000/svg" xmlns:xlink="http://www.w3.org/1999/xlink" version="1.1" id="Layer_1" x="0px" y="0px" viewBox="0 0 120 60" style="enable-background:new 0 0 120 60;" xml:space="preserve"> <style type="text/css"> .st0{fill-rule:evenodd;clip-rule:evenodd;fill:#231F20;} </style> <path class="st0" d="M61.6,37.1c-3.6,0-4.7-0.4-4.8-4.2v-5.8c0.1-3.9,1.2-4.2,4.8-4.2c3.6,0,4.9,0.4,4.9,4.2v5.8 C66.5,36.7,65.2,37.1,61.6,37.1z M61.6,43.1c7,0,12-1.5,12-9.4v-7.3c0-7.9-4.9-9.4-12-9.4c-7,0-11.9,1.5-11.9,9.4v7.3 C49.7,41.5,54.6,43.1,61.6,43.1L61.6,43.1z M98.7,33.1v0.8c0,2.8-0.1,5.3-2.4,7.3c-2.3,1.9-5.2,1.9-8.2,1.9c-7,0-12-0.4-12-9.8v-6.6 c0-8.5,4.6-9.7,12-9.7c7.1,0,10.4,0.7,10.5,8.4v1h-7v-1c-0.2-2.2-1.9-2.5-4.2-2.5c-3.9,0-4.3,1.2-4.3,4.9v4.1c0,3.8,0.2,5.3,4.3,5.3 c2.9,0,4.2-0.2,4.2-3.2v-0.8L98.7,33.1z M28.4,42.9l7.5-16.3c1.2-2.6,1.9-3.5,4.6-3.5v19.8h6.9V17.1h-7.7c-6.4,0-7.6,2.7-10.7,9.4 l-7.6,16.3L28.4,42.9z"></path> </svg> 