<?xml version="1.0" encoding="UTF-8"?> <svg xmlns="http://www.w3.org/2000/svg" xmlns:xlink="http://www.w3.org/1999/xlink" version="1.1" id="Layer_1" x="0px" y="0px" viewBox="0 0 120 60" style="enable-background:new 0 0 120 60;" xml:space="preserve"> <style type="text/css"> .st0{fill:#D20014;} .st1{fill:#E0000A;} .st2{fill-rule:evenodd;clip-rule:evenodd;fill:#231F20;} .st3{fill:#231F20;} </style> <g> <path class="st0" d="M58.4,42.6H25.6l5.2-11.3c0.9-2.1,1.6-3.6,2.6-4.5c1-1,2.5-1.4,4.5-1.4h4.3L42,25.9h-4.3c-1.9,0-3,0.4-3.9,1.3 s-1.6,2.3-2.5,4.4v0L26.5,42h31.9V42.6z"></path> <path class="st1" d="M58.5,38.6H33.1l0.7-1.9c0.2-0.5,0.4-0.9,0.5-1.3c0.7-1.9,1.3-3.2,2-4.1c0.8-0.9,1.7-1.4,3.1-1.4h0.6l-0.3,0.6 h-0.4c-2.6,0-3.1,1.4-4.5,5.1c-0.2,0.4-0.3,0.8-0.5,1.3L34,38h24.5V38.6L58.5,38.6z"></path> <path class="st2" d="M68.5,31.5c-2.5,0-3.3-0.3-3.3-2.9v-4c0.1-2.7,0.9-3,3.3-3c2.5,0,3.4,0.3,3.4,3v4C71.9,31.2,71,31.5,68.5,31.5 z M68.5,35.7c4.9,0,8.4-1.1,8.4-6.6V24c0-5.5-3.4-6.6-8.4-6.6c-4.8,0-8.3,1.1-8.3,6.6v5.1C60.2,34.6,63.6,35.7,68.5,35.7L68.5,35.7 z M94.4,28.7v0.5c0,1.9-0.1,3.7-1.7,5.1s-3.6,1.3-5.7,1.3c-4.8,0-8.4-0.3-8.4-6.8v-4.6c0-5.9,3.2-6.8,8.4-6.8c5,0,7.3,0.5,7.3,5.9 V24h-4.9v-0.7c-0.2-1.6-1.3-1.7-2.9-1.7c-2.7,0-3,0.9-3,3.4v2.8c0,2.6,0.1,3.7,3,3.7c2,0,2.9-0.1,2.9-2.2v-0.5L94.4,28.7z M45.3,35.5l5.2-11.4c0.9-1.8,1.3-2.4,3.2-2.4v13.8h4.8V17.6h-5.4c-4.5,0-5.3,1.9-7.5,6.6l-5.3,11.4L45.3,35.5z"></path> <path class="st3" d="M65.4,39h-0.5v-0.2c0-0.1-0.1-0.2-0.2-0.2h-3c-0.1,0-0.2,0.1-0.2,0.2v3c0,0.1,0.1,0.2,0.2,0.2h3 c0.1,0,0.2-0.1,0.2-0.2v-1.1h-1.1v-0.5h1.6v1.6c0,0.4-0.3,0.7-0.7,0.7c0,0,0,0,0,0h-3c-0.4,0-0.7-0.3-0.7-0.7c0,0,0,0,0,0v-3 c0-0.4,0.3-0.7,0.7-0.7c0,0,0,0,0,0h3c0.4,0,0.7,0.3,0.7,0.7c0,0,0,0,0,0L65.4,39z M71,38.1c0.4,0,0.7,0.3,0.7,0.7c0,0,0,0,0,0v3.7 h-0.5v-1.6h-3.5v1.6h-0.5v-3.7c0-0.4,0.3-0.7,0.7-0.7c0,0,0,0,0,0L71,38.1z M71.2,40.4v-1.6c0-0.1-0.1-0.2-0.2-0.2h-3 c-0.1,0-0.2,0.1-0.2,0.2v1.6L71.2,40.4z M78,38.1h0.7v4.5h-0.5v-3.9l-2,2.4l-2-2.4v3.9h-0.5v-4.5h0.7l1.9,2.2L78,38.1z M80.5,38.1 H81v4.5h-0.5V38.1z M86.9,38.1h0.5v4.5h-0.7l-3.3-3.9v3.9h-0.5v-4.5h0.7l3.3,3.9V38.1z M93.7,39h-0.5v-0.2c0-0.1-0.1-0.2-0.2-0.2 h-3c-0.1,0-0.2,0.1-0.2,0.2v3c0,0.1,0.1,0.2,0.2,0.2h3c0.1,0,0.2-0.1,0.2-0.2v-1.1h-1.1v-0.5h1.6v1.6c0,0.4-0.3,0.7-0.7,0.7 c0,0,0,0,0,0h-3c-0.4,0-0.7-0.3-0.7-0.7c0,0,0,0,0,0v-3c0-0.4,0.3-0.7,0.7-0.7c0,0,0,0,0,0h3c0.4,0,0.7,0.3,0.7,0.7c0,0,0,0,0,0 L93.7,39z"></path> </g> </svg> 