<?xml version="1.0" encoding="UTF-8"?> <svg xmlns:cc="http://creativecommons.org/ns#" xmlns:inkscape="http://www.inkscape.org/namespaces/inkscape" xmlns:sodipodi="http://sodipodi.sourceforge.net/DTD/sodipodi-0.dtd" xmlns:rdf="http://www.w3.org/1999/02/22-rdf-syntax-ns#" xmlns:svg="http://www.w3.org/2000/svg" xmlns:dc="http://purl.org/dc/elements/1.1/" xmlns="http://www.w3.org/2000/svg" xmlns:xlink="http://www.w3.org/1999/xlink" version="1.1" id="svg2811" inkscape:version="0.48.4 r9939" sodipodi:docname="Apple logo black.svg" x="0px" y="0px" viewBox="0 0 120 60" style="enable-background:new 0 0 120 60;" xml:space="preserve"> <path id="path188" inkscape:connector-curvature="0" d="M69.9,5c-2.5,0.1-5.6,1.7-7.4,3.8c-1.6,1.9-3,4.9-2.7,7.7 c2.8,0.2,5.7-1.4,7.4-3.5C69.1,10.9,70.3,7.9,69.9,5z M69,17.1c-3.6,0-6.8,2.3-8.7,2.3c-2,0-5-2.2-8.2-2.2 c-4.2,0.1-8.2,2.5-10.3,6.3c-4.4,7.6-1.1,19,3.2,25.2c2.1,3,4.6,6.5,7.9,6.3c3.2-0.1,4.4-2,8.2-2c3.8,0,4.9,2,8.3,2 c3.4-0.1,5.6-3.1,7.7-6.1c2.4-3.5,3.4-6.9,3.5-7.1c-0.1,0-6.6-2.5-6.7-10.1c-0.1-6.3,5.2-9.4,5.4-9.5c-2.9-4.3-7.5-4.9-9.1-5 C69.6,17.1,69.3,17,69,17.1L69,17.1z"></path> </svg> 