<?xml version="1.0" encoding="UTF-8"?> <svg xmlns="http://www.w3.org/2000/svg" xmlns:xlink="http://www.w3.org/1999/xlink" version="1.1" id="Layer_1" x="0px" y="0px" viewBox="0 0 120 60" style="enable-background:new 0 0 120 60;" xml:space="preserve"> <style type="text/css"> .st0{fill:#FFFFFF;} .st1{fill:none;} .st2{fill:url(#SVGID_1_);} .st3{fill:url(#SVGID_00000078734981494176989180000011004288500725318275_);} .st4{fill:#ED1C24;} .st5{fill:url(#SVGID_00000039092338498457912560000015726076619037984394_);} .st6{fill:url(#SVGID_00000029042713337143292060000010336894647846485889_);} .st7{fill:#E1251B;} .st8{fill:#ED1F24;} </style> <path class="st0" d="M1456.4-2182.2h2.8l-3.4,8h2.8l15.7-8h4.9l-18,9.2l10.3,9.8h-4.8l-8.9-8.4h-3.1l-3.6,8.4h-2.8L1456.4-2182.2z"></path> <path class="st0" d="M1480.7-2182.3h18.2l-1.1,2.6h-15.4l-2.4,5.6h14.8l-1.1,2.6H1479l-2.5,5.8h15.4l-1.1,2.6h-18.2L1480.7-2182.3z"></path> <path class="st0" d="M1501.8-2182.3h18.2l-1.1,2.6h-15.4l-2.4,5.6h14.8l-1.1,2.6h-14.8l-2.5,5.8h15.4l-1.1,2.6h-18.2L1501.8-2182.3z "></path> <path class="st0" d="M1514.8-2163.3l8.1-19h15.5c1.7,0,2.8,0.5,3.3,1.5c0.5,1,0.4,2.5-0.5,4.6s-2,3.6-3.4,4.6 c-1.4,1-2.9,1.5-4.7,1.5h-12.6l-2.9,6.9H1514.8z M1521.6-2172.7h12.6c0.8,0,1.6-0.3,2.3-0.8c0.7-0.6,1.3-1.4,1.8-2.7 s0.7-2.1,0.4-2.7c-0.2-0.6-0.8-0.9-1.6-0.9h-12.5L1521.6-2172.7z"></path> <path class="st0" d="M1577.5-2182.3h3.8l-16.1,11.4l-3.2,7.6h-2.8l3.2-7.6l-6.4-11.4h3.8l5,9.1L1577.5-2182.3z"></path> <path class="st0" d="M1585.5-2163c-3.9,0-6.6-0.3-8-0.8c-1.4-0.5-1.9-1.5-1.8-2.9c0.1-1,0.8-3,2.1-6.1c1.3-3.1,2.3-5.2,3-6.1 c1-1.4,2.5-2.4,4.3-2.9c1.8-0.5,4.7-0.8,8.6-0.8c3.9,0,6.6,0.3,7.9,0.8c1.3,0.5,1.9,1.5,1.8,2.9c-0.1,1-0.8,3-2.2,6.1 c-1.3,3.1-2.3,5.1-3,6.1c-1,1.4-2.4,2.4-4.2,2.9S1589.4-2163,1585.5-2163z M1586.5-2165.5c4.4,0,7.1-0.3,8.1-1 c1.1-0.6,2.3-2.7,3.8-6.2c1.5-3.5,2-5.6,1.5-6.3s-2.9-1-7.3-1c-4.4,0-7.1,0.3-8.2,1s-2.3,2.7-3.8,6.3c-1.5,3.5-2,5.6-1.5,6.2 C1579.7-2165.9,1582.2-2165.5,1586.5-2165.5z"></path> <path class="st0" d="M1604-2168.8c-0.6,1.5-0.6,2.4,0.1,2.7c0.7,0.3,2.8,0.5,6.3,0.5c3.6,0,5.9-0.2,6.8-0.5s1.8-1.3,2.4-2.7 l5.7-13.5h2.8l-5.7,13.5c-1.1,2.6-2.3,4.2-3.6,4.8c-1.4,0.7-4.6,1-9.5,1c-4.9,0-7.8-0.3-8.6-0.9c-0.8-0.6-0.7-2.2,0.4-4.9l5.7-13.5 h2.8L1604-2168.8z"></path> <path class="st0" d="M1630.3-2182.3h17.1c1.6,0,2.6,0.6,3,1.7c0.4,1.1,0.2,2.6-0.6,4.4c-0.7,1.6-1.4,2.8-2.2,3.5 c-0.6,0.6-1.3,1-2.3,1.3c0.6,0.3,0.9,0.6,1.1,1.1c0.3,0.6,0.2,1.4-0.2,2.3l-2,4.7h-2.8l2-4.7c0.3-0.6,0.2-1.2-0.2-1.6 c-0.4-0.4-1.1-0.6-1.9-0.6H1628l-2.9,6.9h-2.8L1630.3-2182.3z M1629.1-2172.7h13.1c1,0,1.9-0.2,2.5-0.5c0.9-0.5,1.7-1.5,2.4-3 c0.6-1.4,0.7-2.4,0.2-3c-0.3-0.4-1-0.6-2.1-0.6h-13.1L1629.1-2172.7z"></path> <path class="st0" d="M1662.5-2173.9c4.4,0,7.1,0.3,8,0.8c1.1,0.6,1.2,2.2,0.2,4.7c-1,2.3-2.5,3.9-4.5,4.6c-1.7,0.6-4.6,0.9-8.9,0.9 c-4.6,0-7.4-0.5-8.3-1.5c-0.7-0.8-0.5-2.5,0.6-5.1h2.8c-0.8,1.8-0.8,2.9-0.2,3.4c0.6,0.4,2.7,0.7,6.2,0.7c3.5,0,5.8-0.2,6.9-0.5 s2-1.1,2.6-2.4c0.6-1.3,0.5-2.1-0.1-2.4c-0.6-0.3-2.7-0.5-6.3-0.5c-4.4,0-7.1-0.5-8.1-1.6c-0.8-0.8-0.8-2.2,0.1-4.3 c0.9-2.2,2.3-3.7,3.9-4.4c1.7-0.7,4.6-1,8.9-1c4.2,0,6.8,0.5,7.7,1.5c0.7,0.8,0.6,2.4-0.4,4.8h-2.8c0.7-1.6,0.7-2.7,0.1-3.1 c-0.6-0.4-2.5-0.6-5.6-0.6c-2.7,0-4.3,0-5,0.1c-1.9,0.2-3.2,1.1-3.9,2.6c-0.6,1.3-0.4,2.2,0.4,2.6 C1657.4-2174.1,1659.4-2173.9,1662.5-2173.9z"></path> <path class="st0" d="M1678.3-2182.3h18.2l-1.1,2.6h-15.4l-2.4,5.6h14.8l-1.1,2.6h-14.8l-2.5,5.8h15.4l-1.1,2.6h-18.2L1678.3-2182.3z "></path> <path class="st0" d="M1699.3-2182.3h2.8l-7,16.5h14.6l-1.1,2.6h-17.4L1699.3-2182.3z"></path> <path class="st0" d="M1715.3-2171.2l-3.4,7.9h-2.8l8.1-19h17.6l-1.1,2.6H1719l-2.5,6h14.2l-1.1,2.6L1715.3-2171.2L1715.3-2171.2z"></path> <path class="st0" d="M1793.6-2182.3h19.9l-1.1,2.6h-8.5l-7,16.5h-2.8l7-16.5h-8.5L1793.6-2182.3z"></path> <path class="st0" d="M1815-2182.3h2.8l-3.4,8.1h16.3l3.4-8.1h2.8l-8.1,19h-2.8l3.6-8.4h-16.3l-3.6,8.4h-2.8L1815-2182.3z"></path> <path class="st0" d="M1839.7-2182.3h18.2l-1.1,2.6h-15.4l-2.4,5.6h14.8l-1.1,2.6h-14.8l-2.5,5.8h15.4l-1.1,2.6h-18.2L1839.7-2182.3z "></path> <path class="st0" d="M1870.8-2172.8c-1.5,3.5-2,5.6-1.5,6.3c0.5,0.7,2.8,1,6.8,1c4,0,6.5-0.2,7.5-0.7c1-0.5,2-1.9,3-4.2h-9.2 l1.1-2.6h12l-1.1,2.6c-1.4,3.3-2.9,5.3-4.6,6.2c-1.7,0.9-5,1.3-9.8,1.3c-4.9,0-7.8-0.6-8.6-1.7s-0.3-3.9,1.6-8.2 c1.8-4.3,3.6-7,5.4-8.1c1.7-1.1,5.1-1.6,10-1.6c4.9,0,7.8,0.4,8.8,1.1c1,0.7,0.9,2.5-0.3,5.4h-2.8c0.8-1.9,0.8-3,0.1-3.3 c-0.7-0.4-3-0.6-6.9-0.6c-4.1,0-6.7,0.3-7.7,1C1873.5-2178.4,1872.2-2176.3,1870.8-2172.8z"></path> <path class="st0" d="M1910.7-2182.3l1.9,19h-3.2l-0.5-4.2h-13.6l-4,4.2h-3.2l18.1-19H1910.7z M1908.8-2170.1l-0.9-10h-0.7l-9.4,10 H1908.8z"></path> <path class="st0" d="M1927.1-2182.3l3.2,15.6l16.5-15.6h5.1l-8.1,19h-2.8l7-16.5h-0.6l-17.6,16.5h-1.8l-3.6-16.5h-0.5l-7,16.5h-2.8 l8.1-19H1927.1z"></path> <path class="st0" d="M1955-2182.3h18.2l-1.1,2.6h-15.4l-2.4,5.6h14.8l-1.1,2.6h-14.8l-2.5,5.8h15.4l-1.1,2.6H1947L1955-2182.3z"></path> <path class="st0" d="M1968.4-2166.6h3.1l-1.4,3.4h-3.1L1968.4-2166.6z M1969.5-2168.5l6-14h2.6l-6,14H1969.5z"></path> <path class="st0" d="M1744.7-2163.3h-2.8l8.1-19h2.8L1744.7-2163.3z"></path> <path class="st0" d="M1755.7-2182.3h4.1l9.2,16.7l7.1-16.7h2.8l-8.1,19h-4.3l-9.1-16.5l-7,16.5h-2.8L1755.7-2182.3z"></path> <path class="st1" d="M1206.7-2254.8c2.5-1,5-1.9,7.6-2.7c3-1,6.2-1.7,9.3-2.4c3.1-0.6,6.3-1.2,9.4-1.5c3.1-0.5,6.2-0.6,9.4-0.8 c1.6-0.1,3.1,0,4.6-0.1c1.5,0,3.1,0,4.6,0.1c3,0.2,6.1,0.3,9,0.7c2.7,0.3,5.4,0.6,8,0.9c1.3,0.1,2.6,0.3,3.9,0.5 c-1.3-7.1-3.9-14.1-7.5-20.8c-4.2-7.9-9.8-15.4-16.1-22.1c-3.2-3.3-6.5-6.5-9.9-9.4c-1.7-1.4-3.5-2.8-5.2-4.1l-1.2-0.9 c-0.1-0.1-0.1-0.1-0.2-0.1l-0.1-0.1l-0.2-0.1l-0.7-0.4c-1.7-0.9-3.3-1.5-4.6-1.5c-0.7,0-1.4,0.1-1.7,0.8c-0.3,0.7,0,1.5,0.3,2.1 c0.6,1.2,1.4,2.1,1.9,2.7c0.1,0.2,0.2,0.3,0.3,0.5c0,0,0,0,0.1,0.1l0.2,0.4c0.1,0.3,0.2,0.6,0.3,0.8l0.2,0.4 c0.1,0.1,0.2,0.5,0.2,0.7c0.2,0.5,0.3,1.1,0.5,1.6c1.3,4.2,1.9,8.5,1.9,12.5s-0.5,7.7-1.3,10.7c-0.4,1.5-0.8,2.8-1.2,4.1"></path> <linearGradient id="SVGID_1_" gradientUnits="userSpaceOnUse" x1="1167.045" y1="2286.6597" x2="1167.045" y2="2286.6597" gradientTransform="matrix(1 0 0 -1 0 60.0298)"> <stop offset="0" style="stop-color:#808285"></stop> <stop offset="1" style="stop-color:#000000"></stop> </linearGradient> <path class="st2" d="M1167-2226.6"></path> <linearGradient id="SVGID_00000043422371241128640780000016895791470825593763_" gradientUnits="userSpaceOnUse" x1="1181.9351" y1="2300.5996" x2="1181.9351" y2="2300.5996" gradientTransform="matrix(1 0 0 -1 0 60.0298)"> <stop offset="0" style="stop-color:#808285"></stop> <stop offset="1" style="stop-color:#000000"></stop> </linearGradient> <path style="fill:url(#SVGID_00000043422371241128640780000016895791470825593763_);" d="M1181.9-2240.6"></path> <g> <path class="st4" d="M1164.8-2327.3"></path> <path class="st4" d="M1160.1-2331.8c-0.5-0.6-1.1-1.5-1-2.4c0.2-0.9,1-1.2,1.8-1.4c1.6-0.4,3.6-0.2,6,0.4l0.9,0.2l0.2,0.1l0.1,0 c0.1,0,0,0,0.2,0.1l1.7,0.7c2.5,1,5,2.1,7.5,3.3c5,2.4,9.9,5.1,14.6,8.1c9.5,6,18.4,13.2,25.9,21.3c6.3,6.9,10,19,12,19.1 c3.5,0.3,35.1-5.6,37.2-8.7c1.6-2.4-12.9-22.1-22.7-32.8c-9.9-10.8-21.1-19.8-32.9-27.2c-5.9-3.7-11.9-7-18-9.9 c-3.1-1.5-6.1-2.8-9.2-4.1c-2.7-1.1-7.8-3.1-12.2-4.6c-9-3-17.7-4.9-25.6-5.5c-7.9-0.7-14.9-0.1-20.8,1.6c-3,0.9-5.8,2-8.3,3.6 c-2.5,1.6-5,3.7-6.7,6.5c-0.8,1.4-1.4,2.9-1.8,4.4c-0.4,1.5-0.5,2.9-0.5,4.4c0,2.8,0.5,5.4,1.2,8c2.9,10,10.2,19.3,18.3,27.5 c2,2.1,4.1,4.1,5.9,6.1c0.5,0.5,0.9,1,1.4,1.5l0.3,0.4l0.2,0.3l0.4,0.6c0.3,0.4,0.6,0.8,0.9,1.1c0.1,0.2,0.3,0.4,0.4,0.5l0.2,0.4 c1.4,2,2.3,3.9,2.9,5.6c1.2,3.4,1.1,6.4,0.9,8.5c-0.2,2.1-0.6,3.3-0.6,3.3s-0.2,1.2-1,3.4c-0.8,2.3-2.3,5.7-4.9,10 c-2.7,4.3-6.5,9.5-11.4,15.4c-4.9,5.9-10.8,12.4-17.3,20.1c-3.2,3.9-6.6,8-9.7,12.8c-1.6,2.4-3.1,5.1-4.3,8.1 c-1.2,3-2.3,6.4-2.4,10.3c-0.1,1.9,0.2,4,0.7,5.9c0.6,1.9,1.4,3.8,2.5,5.4c1.1,1.7,2.3,3.1,3.6,4.3c0.7,0.6,1.3,1.2,2,1.8 c0.7,0.5,1.3,0.9,2,1.4l2,1.4c0.7,0.4,1.4,0.9,2.2,1.3c0.7,0.4,1.4,0.9,2.2,1.2l2.4,1.1c3.3,1.3,7.2,2.3,11.3,1.7 c4.1-0.6,7.6-2.5,10.3-4.6c2.8-2.1,5.1-4.6,7.3-7c4.3-4.9,8-9.9,12-14.8c7.9-9.8,16.9-19,27.7-26.1c5.3-3.6,11-6.8,16.9-9.3 c1.5-0.7,3-1.3,4.5-1.9s3-1.2,4.5-1.7c3.1-0.9,6.1-2.1,9.3-2.8c1.6-0.4,3.1-0.8,4.7-1.2c1.6-0.4,3.1-0.6,4.7-1 c3.1-0.6,6.2-1.2,9.3-1.8c2.3-0.4,4.5-0.9,6.8-1.4l0.1,0c3.8-0.8,7.5-1.7,11.1-2.6c8-2.1,15.8-4.5,22.9-7.4c3.2-1.2,6.3-2.6,9.3-4 c9.6-4.6,18.1-9.9,24.1-16.1c0.7-0.8,1.4-1.5,2.2-2.3c0.7-0.8,1.3-1.6,1.9-2.3c1.3-1.5,2.2-3.1,3.2-4.6c1.7-3.1,2.9-6.1,3.5-9 c0.6-2.9,0.8-5.6,0.6-8c-0.2-2.5-0.7-4.7-1.3-6.7c-1.3-3.9-3.2-6.8-4.7-8.3c-1.6-1.6-2.8-1.7-3.6-1.2c-0.3,0.2-0.3,0.2-0.8,0.4 c-0.3,0.1-0.2,0.9,0.2,2.8c0.3,1.8,0.9,4.6,0.9,7.7c0.1,0.8-0.1,1.6-0.1,2.4c-0.2,0.8-0.2,1.6-0.4,2.4c-0.1,0.8-0.4,1.6-0.6,2.5 c-0.4,0.8-0.6,1.7-1,2.5c-1.5,3.4-4.6,7.2-9.7,11.2c-5.3,3.9-12.7,7.8-21.5,10.9c-2.2,0.8-4.6,1.6-7,2.3c-7,2.1-14.7,3.9-22.8,5.4 c-2.7,0.4-5.5,0.9-8.3,1.4c-1.3,0.2-2.6,0.4-3.8,0.5c-1.6,0.2-3.2,0.4-4.7,0.6c-3.2,0.4-6.5,0.9-9.8,1.3c-3.6,0.4-7.2,1.2-10.9,1.9 c-1.8,0.3-3.6,0.8-5.5,1.3c-1.8,0.5-3.7,0.9-5.5,1.5c-3.6,1.2-7.3,2.3-10.9,3.8c-3.6,1.3-7.2,3-10.7,4.7c-3.5,1.8-7,3.5-10.1,5.9 c-2.7,2-4.5,3.6-6.8,5.9c-3.6,3.5-7.9,7.4-11.6,11.5c-5.6,6.3-11.9,12.7-17.8,19.2c-1.5,1.6-2.8,3.2-4.1,4.8 c-1.3,1.6-1.7,2.1-2.6,3.5l38.9-48c3.9-5.8,6.8-8.8,8.4-12.8c0.8-2,1.4-3.6,1.8-4.8c0.4-1.1,0.6-1.7,0.6-1.7s0.2-0.6,0.5-1.8 c0.2-0.6,0.3-1.3,0.6-2.2c0.2-0.9,0.4-2,0.6-3.2c0.2-1.2,0.4-2.6,0.6-4.2c0.1-1.6,0.3-3.3,0.2-5.2c0-3.8-0.4-8.3-1.7-13.1 c-1.2-4.8-4-11.9-6.1-14.3"></path> <path class="st4" d="M1240-2254.7c-0.3,0.6-0.2,5.1-0.4,9.8c-0.6,10-3.2,19.7-6.9,28.8c-3.7,9.1-8.5,17.4-13.5,24.8 c-5,7.4-10.2,14-15,19.6c-4.8,5.7-9.3,10.4-13.2,14.3c-3.8,3.9-6.9,6.8-9,8.8c-2.1,2-3.3,3.1-3.3,3.1s-3.4,3.4-5.4,8.4 c-2,5.1-2.6,11.8,3.7,18.9c6.2,6.9,12.8,7.2,17.8,5.4c2.5-0.8,4.6-2.1,6.1-3.2c1.5-1.1,2.3-2,2.3-2s1.3-1.1,3.6-3.4 c2.3-2.2,5.7-5.5,9.9-9.8c4.2-4.3,9.2-9.7,14.7-16.2c5.5-6.5,11.5-14.2,17.4-23.1c5.9-8.9,11.8-19.2,16.6-31.1 c4.8-11.8,8.6-25.3,9.5-39.9c0.6-8.9-2.2-19.5-2.3-20.7c-0.4-2.5-10.4,2.1-18.7,4C1247.2-2256.8,1240.5-2255.6,1240-2254.7z"></path> </g> <path class="st0" d="M1498.4-2299l-71.9,102.6h-34.4l40-57.1h-53.5l-40,57.1h-34.3l71.9-102.6c3.3-4.7,8.3-9.2,15.2-13.5 c6.9-4.3,14.7-7.7,23.6-10.3c8.9-2.6,17.4-3.8,25.5-3.8h32.1c8.2,0,14.9,1.3,20.2,3.8c5.3,2.6,8.4,6.1,9.3,10.5 C1502.9-2308.1,1501.6-2303.7,1498.4-2299z M1463.9-2299c2.1-3,3-5.7,2.5-8s-2.2-3.4-5.2-3.4h-32.1c-2.9,0-6.2,1.1-9.9,3.3 s-6.6,4.9-8.8,8.1l-20.7,29.5h53.5L1463.9-2299z"></path> <path class="st0" d="M1576.1-2278.3l-10,14.3h-20.3c-2.7,0-5.7,1-8.9,3s-5.8,4.4-7.7,7.1l-40.3,57.6h-30.3l40.3-57.6 c4.7-6.7,12.6-12.5,23.8-17.2c11.1-4.8,22.2-7.1,33.1-7.1L1576.1-2278.3L1576.1-2278.3z"></path> <path class="st0" d="M1667.1-2278.3c11,0,18.7,2.4,23.1,7.1c4.4,4.8,4.3,10.5-0.4,17.2l-23.2,33.2c-4.7,6.7-12.6,12.5-23.8,17.2 c-11.1,4.8-22.2,7.1-33.1,7.1h-28.4c-11,0-18.7-2.4-23.1-7.1s-4.3-10.5,0.4-17.2l23.2-33.2c4.7-6.7,12.6-12.5,23.8-17.2 c11.1-4.8,22.2-7.1,33.1-7.1H1667.1z M1619.7-2210.6c2.7,0,5.6-1,8.8-3s5.8-4.4,7.7-7.1l23.2-33.2c1.9-2.7,2.6-5.1,2.2-7.1 c-0.4-2-1.9-3-4.6-3h-28.3c-2.7,0-5.7,1-8.9,3c-3.2,2-5.8,4.4-7.7,7.1l-23.2,33.2c-1.9,2.8-2.7,5.2-2.3,7.1s2,3,4.7,3H1619.7z"></path> <path class="st0" d="M1831.6-2264l-107.8,53.4h70l-10,14.3h-113.1l10-14.3l107.6-53.4h-65.8l10-14.3h109.1L1831.6-2264z"></path> <path class="st0" d="M1970.4-2264l-107.8,53.4h70l-10,14.3h-113.1l10-14.3l107.6-53.4h-65.8l10-14.3h109.1L1970.4-2264z"></path> <path class="st0" d="M2011-2278.3h30.3l-57.4,81.9h-30.3L2011-2278.3z"></path> <path class="st4" d="M1739.2-2155.4c12-1.7,48.5-4.9,48.5-4.9c0.9-0.1,1.2,0.6,0.4,0.9c0,0-19.2,2.9-23.3,7.4 c-2.8,3.1-21-0.6-42.1,2.1c-8.7,1.1-7.6,1.8-17.8,3.8c-0.9,0.2-13.7,0.5-8.5-0.9C1721.4-2153.6,1728.2-2153.8,1739.2-2155.4z"></path> <path class="st4" d="M-1292.9,1269.4c14.7,1.1,32.7-3.2,32.7-3.2c1.4-0.4,1.9,1,0.8,1.3c0,0-14.8,2.6-20.1,6.8 c-3,2.4-15-0.7-24.6-0.2c-7.5,0.4-13.7,2.6-18,3.9c-1.8,0.5-3.1-0.7-0.5-1.6C-1301.8,1269.2-1303.6,1268.6-1292.9,1269.4z"></path> <g> <path class="st4" d="M3448.2,7.9c-2.5-0.9-9.1-2.3-21.6,1.8c-12.3,4.5-28,7.7-31.2-7.6c1.4,1.7,2.9,2.7,4.5,3.2 c0.5,0.1,1.2,0.9,1.2,1c0.8,0.3,1.6,3.8,9.9,4.4c7.6,1.2,25.7-9,37-3.2C3448.2,7.4,3448.3,7.9,3448.2,7.9z"></path> <path class="st4" d="M3452.4,431.5c-2.5-0.9-9.1-2.3-21.6,1.8c-12.3,4.5-28,7.7-31.2-7.6c1.4,1.7,2.9,2.7,4.5,3.2 c0.5,0.1,1.2,0.9,1.2,1c0.8,0.3,1.6,3.8,9.9,4.4c7.6,1.2,25.7-9,37-3.2C3452.4,431,3452.6,431.5,3452.4,431.5z"></path> </g> <g> <path d="M47.5,37.2h0.3l-0.7,0.9h0.3l2.2-0.9h0.6l-2.5,1.1l0.8,1.1H48l-0.7-1h-0.4l-0.7,1h-0.3L47.5,37.2z"></path> <path d="M50.3,37.2h2.1l-0.2,0.3h-1.8L50,38.2h1.7l-0.2,0.3h-1.7l-0.5,0.7H51l-0.2,0.3h-2.1L50.3,37.2z"></path> <path d="M52.8,37.2H55l-0.2,0.3h-1.8l-0.5,0.7h1.7L54,38.5h-1.7l-0.5,0.7h1.8l-0.2,0.3h-2.1L52.8,37.2z"></path> <path d="M53.6,39.5l1.7-2.2h1.8c0.2,0,0.3,0.1,0.3,0.2c0,0.1-0.1,0.3-0.2,0.5c-0.2,0.2-0.4,0.4-0.6,0.5s-0.4,0.2-0.6,0.2h-1.5 L54,39.5L53.6,39.5L53.6,39.5z M54.8,38.4h1.5c0.1,0,0.2,0,0.3-0.1c0.1-0.1,0.2-0.2,0.3-0.3c0.1-0.1,0.2-0.2,0.2-0.3 s-0.1-0.1-0.2-0.1h-1.5L54.8,38.4z"></path> <path d="M61.7,37.2h0.4l-2.3,1.3l-0.7,0.9h-0.3l0.7-0.9l-0.3-1.3h0.4l0.2,1.1L61.7,37.2z"></path> <path d="M62,39.5c-0.5,0-0.8,0-0.9-0.1c-0.1-0.1-0.2-0.2-0.1-0.3c0.1-0.1,0.2-0.4,0.5-0.7c0.3-0.4,0.5-0.6,0.6-0.7 c0.2-0.2,0.4-0.3,0.6-0.3s0.6-0.1,1-0.1c0.5,0,0.8,0,0.9,0.1c0.1,0.1,0.2,0.2,0.1,0.3c-0.1,0.1-0.2,0.4-0.5,0.7 c-0.3,0.4-0.5,0.6-0.6,0.7c-0.2,0.2-0.4,0.3-0.6,0.3C62.8,39.5,62.4,39.5,62,39.5z M62.2,39.2c0.5,0,0.8,0,1-0.1 c0.1-0.1,0.4-0.3,0.7-0.7c0.3-0.4,0.5-0.7,0.4-0.7c0-0.1-0.3-0.1-0.8-0.1s-0.8,0-1,0.1c-0.1,0.1-0.4,0.3-0.7,0.7 c-0.3,0.4-0.4,0.7-0.4,0.7C61.4,39.2,61.7,39.2,62.2,39.2z"></path> <path d="M64.4,38.8c-0.1,0.2-0.2,0.3-0.1,0.3c0.1,0,0.3,0.1,0.7,0.1c0.4,0,0.7,0,0.8-0.1c0.1,0,0.3-0.1,0.4-0.3l1.2-1.6h0.3 l-1.2,1.6c-0.2,0.3-0.4,0.5-0.6,0.6c-0.2,0.1-0.6,0.1-1.2,0.1c-0.6,0-0.9,0-1-0.1c-0.1-0.1,0-0.3,0.2-0.6l1.2-1.6h0.3L64.4,38.8z"></path> <path d="M68,37.2h2c0.2,0,0.3,0.1,0.3,0.2c0,0.1-0.1,0.3-0.2,0.5c-0.1,0.2-0.3,0.3-0.4,0.4c-0.1,0.1-0.2,0.1-0.3,0.2 c0.1,0,0.1,0.1,0.1,0.1c0,0.1,0,0.2-0.1,0.3l-0.4,0.6h-0.3l0.4-0.6c0.1-0.1,0.1-0.1,0-0.2c0,0-0.1-0.1-0.2-0.1h-1.6l-0.6,0.8h-0.3 L68,37.2z M67.5,38.4H69c0.1,0,0.2,0,0.3-0.1c0.1-0.1,0.3-0.2,0.4-0.4c0.1-0.2,0.2-0.3,0.1-0.3c0,0-0.1-0.1-0.2-0.1h-1.5L67.5,38.4 z"></path> <path d="M71.4,38.2c0.5,0,0.8,0,0.9,0.1c0.1,0.1,0.1,0.3-0.2,0.5c-0.2,0.3-0.4,0.5-0.7,0.5c-0.2,0.1-0.6,0.1-1.1,0.1 c-0.5,0-0.9-0.1-0.9-0.2c-0.1-0.1,0-0.3,0.3-0.6h0.3c-0.2,0.2-0.2,0.3-0.2,0.4s0.3,0.1,0.7,0.1c0.4,0,0.7,0,0.8-0.1 c0.2,0,0.3-0.1,0.4-0.3c0.1-0.2,0.1-0.2,0.1-0.3c-0.1,0-0.3-0.1-0.7-0.1c-0.5,0-0.8-0.1-0.9-0.2c-0.1-0.1,0-0.3,0.2-0.5 c0.2-0.3,0.4-0.4,0.6-0.5c0.2-0.1,0.6-0.1,1.1-0.1c0.5,0,0.8,0.1,0.9,0.2c0.1,0.1,0,0.3-0.2,0.6h-0.3c0.1-0.2,0.2-0.3,0.1-0.4 s-0.3-0.1-0.6-0.1c-0.3,0-0.5,0-0.6,0c-0.2,0-0.4,0.1-0.6,0.3c-0.1,0.2-0.1,0.3-0.1,0.3C70.9,38.2,71.1,38.2,71.4,38.2z"></path> <path d="M73.6,37.2h2.1l-0.2,0.3h-1.8l-0.5,0.7H75l-0.2,0.3H73l-0.5,0.7h1.8l-0.2,0.3h-2.1L73.6,37.2z"></path> <path d="M76.1,37.2h0.3L75,39.2h1.7l-0.2,0.3h-2L76.1,37.2z"></path> <path d="M77.6,38.5l-0.7,0.9h-0.3l1.7-2.2h2.1l-0.2,0.3h-1.7l-0.5,0.7h1.7l-0.2,0.3H77.6L77.6,38.5z"></path> <path d="M87.2,37.2h2.3l-0.2,0.3h-1l-1.5,1.9h-0.3l1.5-1.9h-1L87.2,37.2z"></path> <path d="M89.7,37.2h0.3l-0.7,1h1.9l0.7-1h0.3l-1.7,2.2h-0.3l0.7-1h-1.9l-0.7,1H88L89.7,37.2z"></path> <path d="M92.6,37.2h2.1l-0.2,0.3h-1.8l-0.5,0.7H94l-0.2,0.3H92l-0.5,0.7h1.8l-0.2,0.3H91L92.6,37.2z"></path> <path d="M95.9,38.4c-0.3,0.4-0.4,0.7-0.4,0.7c0,0.1,0.3,0.1,0.8,0.1c0.5,0,0.8,0,0.9-0.1c0.1-0.1,0.3-0.2,0.5-0.5h-1.1l0.2-0.3h1.4 L98,38.6c-0.3,0.4-0.5,0.6-0.8,0.7c-0.2,0.1-0.6,0.2-1.2,0.2c-0.6,0-0.9-0.1-0.9-0.2c-0.1-0.1,0.1-0.5,0.5-1c0.4-0.5,0.7-0.8,0.9-1 c0.2-0.1,0.7-0.2,1.2-0.2c0.6,0,0.9,0,1,0.1c0.1,0.1,0,0.3-0.2,0.6h-0.3c0.2-0.2,0.2-0.3,0.1-0.4c-0.1,0-0.3-0.1-0.8-0.1 c-0.5,0-0.8,0-0.9,0.1C96.5,37.7,96.2,37.9,95.9,38.4z"></path> <path d="M101,37.2l-0.5,2.2h-0.4l0.1-0.5h-1.6L98,39.5h-0.4l2.9-2.2H101z M100.3,38.7l0.3-1.2h-0.1L99,38.7H100.3z"></path> <path d="M102.9,37.2l-0.2,1.8l2.5-1.8h0.6l-1.7,2.2h-0.3l1.5-1.9h-0.1l-2.7,1.9h-0.2l0.2-1.9h-0.1l-1.5,1.9h-0.3l1.7-2.2H102.9z"></path> <path d="M106.2,37.2h2.1l-0.2,0.3h-1.8l-0.5,0.7h1.7l-0.2,0.3h-1.7l-0.5,0.7h1.8l-0.2,0.3h-2.1L106.2,37.2z"></path> <path d="M107.2,39.1h0.4l-0.3,0.4h-0.4L107.2,39.1z M107.4,38.9l1.2-1.7h0.3l-1.2,1.7H107.4z"></path> <path d="M80.7,39.5h-0.3l1.7-2.2h0.3L80.7,39.5z"></path> <path d="M82.7,37.2h0.5l0.5,2l1.5-2h0.3l-1.7,2.2h-0.5l-0.4-1.9l-1.5,1.9h-0.3L82.7,37.2z"></path> <path class="st1" d="M17.7,28.7c0.3-0.1,0.6-0.2,0.9-0.3c0.4-0.1,0.7-0.2,1.1-0.3c0.4-0.1,0.7-0.1,1.1-0.2c0.4-0.1,0.7-0.1,1.1-0.1 c0.2,0,0.4,0,0.5,0c0.2,0,0.4,0,0.5,0c0.4,0,0.7,0,1.1,0.1c0.3,0,0.6,0.1,0.9,0.1c0.2,0,0.3,0,0.5,0.1c-0.2-0.8-0.5-1.7-0.9-2.5 c-0.5-0.9-1.2-1.8-1.9-2.6c-0.4-0.4-0.8-0.8-1.2-1.1c-0.2-0.2-0.4-0.3-0.6-0.5l-0.1-0.1c0,0,0,0,0,0l0,0l0,0l-0.1,0 c-0.2-0.1-0.4-0.2-0.5-0.2c-0.1,0-0.2,0-0.2,0.1c0,0.1,0,0.2,0,0.2c0.1,0.1,0.2,0.2,0.2,0.3c0,0,0,0,0,0.1c0,0,0,0,0,0l0,0 c0,0,0,0.1,0,0.1l0,0c0,0,0,0.1,0,0.1c0,0.1,0,0.1,0.1,0.2c0.1,0.5,0.2,1,0.2,1.5c0,0.5-0.1,0.9-0.2,1.3c0,0.2-0.1,0.3-0.1,0.5"></path> <linearGradient id="SVGID_00000031168046455630232610000014517338484947949479_" gradientUnits="userSpaceOnUse" x1="13.0461" y1="28.0232" x2="13.0461" y2="28.0232" gradientTransform="matrix(1 0 0 -1 0 60.0298)"> <stop offset="0" style="stop-color:#808285"></stop> <stop offset="1" style="stop-color:#000000"></stop> </linearGradient> <path style="fill:url(#SVGID_00000031168046455630232610000014517338484947949479_);" d="M13,32"></path> <linearGradient id="SVGID_00000117639073844571164420000010421125183716871083_" gradientUnits="userSpaceOnUse" x1="14.8008" y1="29.6638" x2="14.8008" y2="29.6638" gradientTransform="matrix(1 0 0 -1 0 60.0298)"> <stop offset="0" style="stop-color:#808285"></stop> <stop offset="1" style="stop-color:#000000"></stop> </linearGradient> <path style="fill:url(#SVGID_00000117639073844571164420000010421125183716871083_);" d="M14.8,30.4"></path> <g> <path class="st4" d="M12.8,20.1"></path> <path class="st7" d="M12.2,19.6c-0.1-0.1-0.1-0.2-0.1-0.3c0-0.1,0.1-0.1,0.2-0.2c0.2,0,0.4,0,0.7,0l0.1,0l0,0l0,0c0,0,0,0,0,0 l0.2,0.1c0.3,0.1,0.6,0.3,0.9,0.4c0.6,0.3,1.2,0.6,1.7,1c1.1,0.7,2.2,1.6,3,2.5c0.7,0.8,1.2,2.2,1.4,2.3c0.4,0,4.1-0.7,4.4-1 c0.2-0.3-1.5-2.6-2.7-3.9c-1.2-1.3-2.5-2.3-3.9-3.2c-0.7-0.4-1.4-0.8-2.1-1.2c-0.4-0.2-0.7-0.3-1.1-0.5c-0.3-0.1-0.9-0.4-1.4-0.5 c-1.1-0.4-2.1-0.6-3-0.7c-0.9-0.1-1.8,0-2.5,0.2c-0.4,0.1-0.7,0.2-1,0.4c-0.3,0.2-0.6,0.4-0.8,0.8c-0.1,0.2-0.2,0.3-0.2,0.5 c0,0.2-0.1,0.3-0.1,0.5c0,0.3,0.1,0.6,0.1,0.9c0.3,1.2,1.2,2.3,2.2,3.2c0.2,0.2,0.5,0.5,0.7,0.7c0.1,0.1,0.1,0.1,0.2,0.2l0,0l0,0 l0.1,0.1c0,0,0.1,0.1,0.1,0.1c0,0,0,0,0,0.1l0,0c0.2,0.2,0.3,0.5,0.3,0.7c0.1,0.4,0.1,0.7,0.1,1c0,0.2-0.1,0.4-0.1,0.4 c0,0,0,0.1-0.1,0.4c-0.1,0.3-0.3,0.7-0.6,1.2S8.5,27.1,8,27.8c-0.6,0.7-1.3,1.5-2,2.4c-0.4,0.5-0.8,0.9-1.1,1.5 c-0.2,0.3-0.4,0.6-0.5,1C4.1,33,4,33.4,4,33.9c0,0.2,0,0.5,0.1,0.7c0.1,0.2,0.2,0.5,0.3,0.6c0.1,0.2,0.3,0.4,0.4,0.5 C4.9,35.8,5,35.8,5,35.9C5.1,36,5.2,36,5.3,36.1l0.2,0.2c0.1,0.1,0.2,0.1,0.3,0.2c0.1,0,0.2,0.1,0.3,0.1l0.3,0.1 c0.4,0.2,0.9,0.3,1.3,0.2c0.5-0.1,0.9-0.3,1.2-0.5c0.3-0.3,0.6-0.5,0.9-0.8c0.5-0.6,0.9-1.2,1.4-1.7c0.9-1.2,2-2.2,3.3-3.1 c0.6-0.4,1.3-0.8,2-1.1c0.2-0.1,0.3-0.2,0.5-0.2c0.2-0.1,0.4-0.1,0.5-0.2c0.4-0.1,0.7-0.2,1.1-0.3c0.2,0,0.4-0.1,0.6-0.1 c0.2,0,0.4-0.1,0.6-0.1c0.4-0.1,0.7-0.1,1.1-0.2c0.3,0,0.5-0.1,0.8-0.2l0,0c0.4-0.1,0.9-0.2,1.3-0.3c0.9-0.2,1.9-0.5,2.7-0.9 c0.4-0.1,0.7-0.3,1.1-0.5c1.1-0.5,2.1-1.2,2.8-1.9c0.1-0.1,0.2-0.2,0.3-0.3c0.1-0.1,0.1-0.2,0.2-0.3c0.2-0.2,0.3-0.4,0.4-0.5 c0.2-0.4,0.3-0.7,0.4-1.1c0.1-0.3,0.1-0.7,0.1-0.9c0-0.3-0.1-0.6-0.2-0.8c-0.2-0.5-0.4-0.8-0.6-1c-0.2-0.2-0.3-0.2-0.4-0.1 c0,0,0,0-0.1,0.1c0,0,0,0.1,0,0.3c0,0.2,0.1,0.5,0.1,0.9c0,0.1,0,0.2,0,0.3c0,0.1,0,0.2,0,0.3c0,0.1,0,0.2-0.1,0.3 c0,0.1-0.1,0.2-0.1,0.3c-0.2,0.4-0.5,0.8-1.1,1.3c-0.6,0.5-1.5,0.9-2.5,1.3c-0.3,0.1-0.5,0.2-0.8,0.3c-0.8,0.3-1.7,0.5-2.7,0.6 c-0.3,0.1-0.6,0.1-1,0.2c-0.1,0-0.3,0-0.5,0.1c-0.2,0-0.4,0-0.6,0.1c-0.4,0.1-0.8,0.1-1.2,0.2c-0.4,0-0.9,0.1-1.3,0.2 c-0.2,0-0.4,0.1-0.6,0.2c-0.2,0.1-0.4,0.1-0.6,0.2c-0.4,0.1-0.9,0.3-1.3,0.4c-0.4,0.2-0.8,0.4-1.3,0.5c-0.4,0.2-0.8,0.4-1.2,0.7 c-0.3,0.2-0.5,0.4-0.8,0.7c-0.4,0.4-0.9,0.9-1.4,1.4c-0.7,0.7-1.4,1.5-2.1,2.3c-0.2,0.2-0.3,0.4-0.5,0.6c-0.2,0.2-0.2,0.2-0.3,0.4 l4.6-5.7c0.5-0.7,0.8-1,1-1.5c0.1-0.2,0.2-0.4,0.2-0.6c0-0.1,0.1-0.2,0.1-0.2s0-0.1,0.1-0.2c0-0.1,0-0.2,0.1-0.3 c0-0.1,0-0.2,0.1-0.4c0-0.1,0-0.3,0.1-0.5c0-0.2,0-0.4,0-0.6c0-0.4-0.1-1-0.2-1.5c-0.1-0.6-0.5-1.4-0.7-1.7L12.2,19.6z"></path> <path class="st7" d="M21.6,28.7c0,0.1,0,0.6-0.1,1.1c-0.1,1.2-0.4,2.3-0.8,3.4c-0.4,1.1-1,2-1.6,2.9c-0.6,0.9-1.2,1.6-1.8,2.3 c-0.6,0.7-1.1,1.2-1.6,1.7c-0.4,0.5-0.8,0.8-1.1,1c-0.2,0.2-0.4,0.4-0.4,0.4s-0.4,0.4-0.6,1c-0.2,0.6-0.3,1.4,0.4,2.2 c0.7,0.8,1.5,0.8,2.1,0.6c0.3-0.1,0.5-0.3,0.7-0.4c0.2-0.1,0.3-0.2,0.3-0.2s0.1-0.1,0.4-0.4c0.3-0.3,0.7-0.6,1.2-1.2 c0.5-0.5,1.1-1.1,1.7-1.9c0.6-0.8,1.3-1.7,2-2.7c0.7-1.1,1.4-2.3,2-3.7c0.6-1.4,1-3,1.1-4.7c0.1-1-0.3-2.3-0.3-2.4 c0-0.3-1.2,0.2-2.2,0.5C22.5,28.5,21.7,28.6,21.6,28.7z"></path> </g> <path d="M52.1,23.5l-8.5,12.1h-4.1l4.7-6.7H38l-4.7,6.7h-4l8.5-12.1c0.4-0.6,1-1.1,1.8-1.6c0.8-0.5,1.7-0.9,2.8-1.2 c1-0.3,2-0.5,3-0.5H49c1,0,1.8,0.2,2.4,0.5c0.6,0.3,1,0.7,1.1,1.2C52.6,22.4,52.5,22.9,52.1,23.5z M48,23.5 c0.3-0.4,0.3-0.7,0.3-0.9c-0.1-0.3-0.3-0.4-0.6-0.4h-3.8c-0.3,0-0.7,0.1-1.2,0.4c-0.4,0.3-0.8,0.6-1,1L39.3,27h6.3L48,23.5z"></path> <path d="M61.2,25.9L60,27.6h-2.4c-0.3,0-0.7,0.1-1,0.4c-0.4,0.2-0.7,0.5-0.9,0.8l-4.7,6.8h-3.6l4.7-6.8c0.6-0.8,1.5-1.5,2.8-2 c1.3-0.6,2.6-0.8,3.9-0.8H61.2z"></path> <path d="M71.9,25.9c1.3,0,2.2,0.3,2.7,0.8s0.5,1.2,0,2l-2.7,3.9c-0.6,0.8-1.5,1.5-2.8,2c-1.3,0.6-2.6,0.8-3.9,0.8h-3.3 c-1.3,0-2.2-0.3-2.7-0.8c-0.5-0.6-0.5-1.2,0-2l2.7-3.9c0.6-0.8,1.5-1.5,2.8-2c1.3-0.6,2.6-0.8,3.9-0.8 C68.6,25.9,71.9,25.9,71.9,25.9z M66.4,33.9c0.3,0,0.7-0.1,1-0.3c0.4-0.2,0.7-0.5,0.9-0.8l2.7-3.9c0.2-0.3,0.3-0.6,0.3-0.8 s-0.2-0.4-0.5-0.4h-3.3c-0.3,0-0.7,0.1-1,0.4c-0.4,0.2-0.7,0.5-0.9,0.8l-2.7,3.9c-0.2,0.3-0.3,0.6-0.3,0.8c0.1,0.2,0.2,0.3,0.6,0.3 H66.4z"></path> <path d="M91.3,27.6l-12.7,6.3h8.2l-1.2,1.7H72.4l1.2-1.7l12.7-6.3h-7.7l1.2-1.7h12.8L91.3,27.6z"></path> <path d="M107.7,27.6L95,33.9h8.2l-1.2,1.7H88.7l1.2-1.7l12.7-6.3h-7.7l1.2-1.7h12.8L107.7,27.6z"></path> <path d="M112.4,25.9h3.6l-6.8,9.7h-3.6L112.4,25.9z"></path> <g> <path class="st8" d="M77.5,41.4c2.9-0.6,5.5-1.1,8.4-1.3c0.4,0,0.3-0.4,0-0.4c-3,0.2-5.6,0.5-8.5,1.1C77,40.9,77.1,41.5,77.5,41.4 L77.5,41.4z"></path> </g> </g> </svg> 