<?xml version="1.0" encoding="UTF-8"?> <svg xmlns="http://www.w3.org/2000/svg" xmlns:xlink="http://www.w3.org/1999/xlink" version="1.1" id="圖層_1" x="0px" y="0px" viewBox="0 0 120 60" style="enable-background:new 0 0 120 60;" xml:space="preserve"> <style type="text/css"> .st0{fill:#005DAA;} .st1{fill:#A1D078;} </style> <g> <path class="st0" d="M20.7,28.3l-2,11.7h-8.6c-1.3,0-2.5-0.5-3.4-1.4c-0.9-0.9-1.4-2-1.4-3.4c0-0.2,0-0.4,0.1-0.7l0.4-2.2 c0.7-2.5,2.3-3.8,4.7-3.8H16c0.1-0.7-0.1-1.4-0.6-2c-0.5-0.6-1.1-0.9-1.8-0.9H8.4l0.5-2.8H16c1.3,0,2.4,0.5,3.3,1.4 c0.9,0.9,1.4,2,1.4,3.3C20.8,27.9,20.8,28.2,20.7,28.3 M15.5,31.4h-2.8c-0.5,0-1,0.2-1.5,0.5c-0.5,0.3-0.7,0.8-0.8,1.2l-0.2,1.4 c-0.1,0.6,0.1,1.2,0.6,1.7c0.5,0.5,1.1,0.8,1.7,0.8h1.9L15.5,31.4z"></path> <path class="st0" d="M38.8,22.9l-0.5,2.8h-7.5c-1.3,0-2.1,0.6-2.3,1.9l5.9,3.6c1.5,0.9,2.3,2.3,2.3,4c0,1.5-0.6,2.8-1.7,3.7 C34,39.6,33,40,31.9,40H21.6l0.5-2.9h7.5c1.3,0,2.1-0.7,2.4-2.1L26,31.7c-1.5-0.9-2.3-2.2-2.3-3.9c0-1.4,0.4-2.6,1.3-3.5 c0.9-0.9,2-1.4,3.4-1.4L38.8,22.9L38.8,22.9z"></path> <path class="st0" d="M55.8,22.9l-2.2,13.2c-0.2,1.1-0.8,2-1.7,2.7C51,39.6,50,40,48.9,40h-4.6c-1.3,0-2.5-0.5-3.4-1.3 c-0.9-0.9-1.4-2-1.4-3.3c0-0.3,0-0.5,0.1-0.8l1.9-11.6h4.8l-1.9,11.4c0,0.1-0.1,0.3-0.1,0.4c0,0.7,0.2,1.3,0.7,1.7 c0.5,0.4,1.1,0.7,1.7,0.7c1.3,0,2-0.7,2.2-2l2-12.2C51,22.9,55.8,22.9,55.8,22.9z"></path> <path class="st0" d="M72.2,22.9l-0.5,2.8h-6.8c-1.3,0-2.1,0.6-2.3,1.9l5.9,3.6c1.5,0.9,2.3,2.3,2.3,4c0,1.5-0.6,2.8-1.7,3.7 C68.2,39.6,67.1,40,66,40H55.8l0.5-2.9h7.5c1.3,0,2.1-0.7,2.4-2.1l-5.9-3.3c-1.5-0.9-2.3-2.2-2.3-3.9c0-1.4,0.4-2.6,1.3-3.5 c0.9-0.9,2-1.4,3.4-1.4L72.2,22.9L72.2,22.9z"></path> <path class="st0" d="M85.2,22.9l-0.5,2.8h-4.8l-1.4,8.6c0,0.1,0,0.3,0,0.4c0,0.6,0.2,1.2,0.7,1.7c0.5,0.5,1,0.7,1.7,0.7h1.9 L82.3,40h-3.9c-1.3,0-2.5-0.5-3.4-1.4c-0.9-0.9-1.4-2-1.4-3.4c0-0.3,0-0.6,0.1-0.9L76.2,20h4.7l-0.5,2.9 C80.4,22.9,85.2,22.9,85.2,22.9z"></path> <path class="st0" d="M101.4,28.4l-1.3,7.6c-0.2,1.1-0.7,2.1-1.7,2.8c-0.9,0.8-1.9,1.2-3.1,1.2h-4.6c-1.3,0-2.4-0.5-3.4-1.4 c-0.9-0.9-1.4-2-1.4-3.4c0-0.3,0-0.6,0.1-0.9l1.3-7.8c0.2-1.1,0.7-2,1.6-2.7c0.9-0.7,1.9-1,3-1h4.6c1.3,0,2.4,0.5,3.4,1.4 c0.9,0.9,1.4,2,1.4,3.3C101.5,27.9,101.4,28.2,101.4,28.4"></path> <path class="st1" d="M92.3,34.3c0,0-0.1,0.3-0.1,0.5c0,0.7,0.2,1.2,0.6,1.6s1,0.6,1.7,0.6c1.3,0,2.1-0.7,2.4-2.1l1.1-6.6 c0.1-0.7,0.3-1.5-0.2-2c-0.5-0.5-1.5-0.6-2.2-0.6c-1.3,0-2,0.7-2.2,2"></path> <path class="st0" d="M114.6,22.9l-0.5,2.8h-2.8c-1.4,0-2.2,0.7-2.4,2L107,40h-4.7l2.2-13.3c0.2-1.1,0.7-2,1.6-2.7 c0.9-0.7,1.9-1.1,3-1.1C109.1,22.9,114.6,22.9,114.6,22.9z"></path> </g> </svg> 