<?xml version="1.0" encoding="UTF-8"?> <svg xmlns="http://www.w3.org/2000/svg" xmlns:xlink="http://www.w3.org/1999/xlink" version="1.1" id="Layer_1" x="0px" y="0px" viewBox="0 0 120 60" style="enable-background:new 0 0 120 60;" xml:space="preserve"> <style type="text/css"> .st0{fill:url(#XMLID_00000116211042911854331590000011334972607881780636_);} .st1{fill:url(#XMLID_00000157267093556553969590000011751731555174262663_);} .st2{clip-path:url(#SVGID_00000174601722998330597250000007651317855236931259_);} .st3{clip-path:url(#SVGID_00000132784373552588500520000006016361550514106028_);fill:url(#XMLID_00000057848952181144259440000002350696060893025721_);} .st4{opacity:0.4;fill:url(#XMLID_00000101822926632717148430000011952451907286864042_);enable-background:new ;} .st5{clip-path:url(#SVGID_00000070831501165942371230000016403449958586527115_);} .st6{clip-path:url(#SVGID_00000021814815462568236220000017140098892778241174_);fill:url(#XMLID_00000096054495244956463950000004969998285739206066_);} .st7{opacity:0.5;fill:url(#XMLID_00000010995535533973043910000003026363443399344256_);enable-background:new ;} .st8{fill:url(#XMLID_00000035495256291406143940000011681754265377232798_);} .st9{fill:url(#XMLID_00000128480727610472952490000005133620101645419911_);} .st10{fill:url(#XMLID_00000158003914204394048930000003867218640498409911_);} .st11{clip-path:url(#SVGID_00000147910784919426316540000007445177200150555281_);} .st12{clip-path:url(#SVGID_00000098925542681553766610000011502106486439763897_);fill:url(#XMLID_00000116949994751975536740000017030483521089491336_);} .st13{opacity:0.8;fill:url(#XMLID_00000018930984594194667100000006261061088273004965_);enable-background:new ;} .st14{clip-path:url(#SVGID_00000120554944247738615240000004019181051239219608_);} .st15{clip-path:url(#SVGID_00000106829183323331272730000000410136352195761579_);fill:url(#XMLID_00000037669620928177052540000007187689981685602961_);} .st16{opacity:0.4;fill:url(#XMLID_00000065771171669003440670000000740120201858502019_);enable-background:new ;} .st17{clip-path:url(#SVGID_00000050631698544326576110000014854696941859618450_);} .st18{clip-path:url(#SVGID_00000031928135251757862820000002086310232410966147_);fill:url(#XMLID_00000068661084362670888420000016304524434458406789_);} .st19{opacity:0.6;fill:url(#XMLID_00000075863753188102338940000009882302042404166055_);enable-background:new ;} .st20{fill:url(#XMLID_00000165201077230874853430000003237057111114620305_);} .st21{fill:url(#XMLID_00000023965183215454259370000017657222644575257733_);} .st22{fill:url(#XMLID_00000008119363018769124320000005276956330351516348_);} .st23{fill:url(#XMLID_00000072254803443063617720000010653406769603054519_);} .st24{fill:url(#XMLID_00000034776364987006222350000012833644571592791962_);} .st25{clip-path:url(#SVGID_00000109740784618317706230000014353327609476895144_);} .st26{clip-path:url(#SVGID_00000067928053756191805400000012482915158290142908_);fill:url(#XMLID_00000098180404899532915920000002606590051383887290_);} .st27{fill:url(#XMLID_00000161633410072479961800000001966816721631260316_);} .st28{clip-path:url(#SVGID_00000062906367640084947540000010414524490252652439_);} .st29{clip-path:url(#SVGID_00000131332703012783211480000005015941254975173284_);fill:url(#XMLID_00000174574844654694810440000013237322871365017790_);} .st30{fill:url(#XMLID_00000061446756952580124100000005769988101005653176_);} </style> <g id="XMLID_294_"> <g id="XMLID_364_"> <g id="XMLID_394_"> <linearGradient id="XMLID_00000130610652594355742020000014358691227882259135_" gradientUnits="userSpaceOnUse" x1="-151.1358" y1="369.2625" x2="-151.1358" y2="376.9218" gradientTransform="matrix(2.83 0.1611 0.1611 -2.83 442.4661 1098.906)"> <stop offset="0" style="stop-color:#D63737"></stop> <stop offset="0.3211" style="stop-color:#F08480"></stop> <stop offset="0.5895" style="stop-color:#B92D28"></stop> <stop offset="0.9263" style="stop-color:#231F1B"></stop> </linearGradient> <path id="XMLID_437_" style="fill:url(#XMLID_00000130610652594355742020000014358691227882259135_);" d="M60.7,28.6 c0,0,8.4-6.6,29.6-15.2c-10.5,3-21.3,9.1-31.1,15.3L60.7,28.6z"></path> <linearGradient id="XMLID_00000072243428674448625100000010935575978899359157_" gradientUnits="userSpaceOnUse" x1="52.0131" y1="617.7607" x2="86.8782" y2="600.0557" gradientTransform="matrix(1 0 0 1 0 -587.3544)"> <stop offset="0" style="stop-color:#16140F"></stop> <stop offset="7.840000e-02" style="stop-color:#391A13"></stop> <stop offset="0.3208" style="stop-color:#C3241D"></stop> <stop offset="1" style="stop-color:#C2211E"></stop> </linearGradient> <path id="XMLID_436_" style="fill:url(#XMLID_00000072243428674448625100000010935575978899359157_);" d="M92,10.6 c0,0-7.2,0.6-13.5,3.9C70,18.6,55.6,28.8,55.6,28.8l3.6-0.2C70,22.4,80.3,16.2,90.4,13.4C91,13.1,91.9,11.5,92,10.6z"></path> <g id="XMLID_433_"> <g> <g> <defs> <polygon id="SVGID_1_" points="28.7,-4.9 28.9,-4.9 28.7,-4.7 "></polygon> </defs> <clipPath id="SVGID_00000080202670943154538250000012933571949777863058_"> <use xlink:href="#SVGID_1_" style="overflow:visible;"></use> </clipPath> </g> <g> <defs> <polygon id="SVGID_00000023989243095977255860000017495818151080469680_" points="28.7,-4.9 28.9,-4.9 28.7,-4.7 "></polygon> </defs> <defs> <polygon id="SVGID_00000060734394138455783970000008669055264016534974_" points="28.2,-5.3 28,-5.3 28.2,-5.5 "></polygon> </defs> <clipPath id="SVGID_00000130636237287532994910000003023063305698173871_"> <use xlink:href="#SVGID_00000023989243095977255860000017495818151080469680_" style="overflow:visible;"></use> </clipPath> <clipPath id="SVGID_00000075128805927400404000000007322715935550891440_" style="clip-path:url(#SVGID_00000130636237287532994910000003023063305698173871_);"> <use xlink:href="#SVGID_00000060734394138455783970000008669055264016534974_" style="overflow:visible;"></use> </clipPath> <radialGradient id="XMLID_00000049926462060807167600000014403728516374871691_" cx="-300.4145" cy="650.6213" r="14.8202" gradientTransform="matrix(0.9844 0 0 0.9844 369.3275 -627.7054)" gradientUnits="userSpaceOnUse"> <stop offset="0" style="stop-color:#FFFFFF"></stop> <stop offset="1" style="stop-color:#000000"></stop> </radialGradient> <path id="XMLID_434_" style="clip-path:url(#SVGID_00000075128805927400404000000007322715935550891440_);fill:url(#XMLID_00000049926462060807167600000014403728516374871691_);" d=" M92,10.6c0,0-7.2,0.6-13.5,3.9C70,18.6,55.6,28.8,55.6,28.8l3.6-0.2C70,22.4,80.3,16.2,90.4,13.4C91,13.1,91.9,11.5,92,10.6z"></path> </g> </g> </g> <radialGradient id="XMLID_00000141417773086093380690000014522171455495128238_" cx="-300.4145" cy="650.6213" r="14.8202" gradientTransform="matrix(0.9844 0 0 0.9844 369.3275 -627.7054)" gradientUnits="userSpaceOnUse"> <stop offset="0" style="stop-color:#FFFFFF"></stop> <stop offset="1" style="stop-color:#FFFFFF"></stop> </radialGradient> <path id="XMLID_432_" style="opacity:0.4;fill:url(#XMLID_00000141417773086093380690000014522171455495128238_);enable-background:new ;" d=" M92,10.6c0,0-7.2,0.6-13.5,3.9C70,18.6,55.6,28.8,55.6,28.8l3.6-0.2C70,22.4,80.3,16.2,90.4,13.4C91,13.1,91.9,11.5,92,10.6z"></path> <g id="XMLID_429_"> <g> <g> <defs> <polygon id="SVGID_00000035496386056821917130000000178517095485485245_" points="28.7,-4.9 28.9,-4.9 28.7,-4.7 "></polygon> </defs> <clipPath id="SVGID_00000070078358031477254510000006725461683283536818_"> <use xlink:href="#SVGID_00000035496386056821917130000000178517095485485245_" style="overflow:visible;"></use> </clipPath> </g> <g> <defs> <polygon id="SVGID_00000124162911363689668410000011522571634355535000_" points="28.7,-4.9 28.9,-4.9 28.7,-4.7 "></polygon> </defs> <defs> <polygon id="SVGID_00000173123542799409791700000001696131549753827248_" points="28.2,-5.3 28,-5.3 28.2,-5.5 "></polygon> </defs> <clipPath id="SVGID_00000091007555066036834770000005468861975910167988_"> <use xlink:href="#SVGID_00000124162911363689668410000011522571634355535000_" style="overflow:visible;"></use> </clipPath> <clipPath id="SVGID_00000023277617767265289370000017256608124768820401_" style="clip-path:url(#SVGID_00000091007555066036834770000005468861975910167988_);"> <use xlink:href="#SVGID_00000173123542799409791700000001696131549753827248_" style="overflow:visible;"></use> </clipPath> <radialGradient id="XMLID_00000060012800831053651820000016254300577985012138_" cx="-297.8179" cy="653.2175" r="7.4419" gradientTransform="matrix(0.9844 0 0 0.9844 369.3275 -627.7054)" gradientUnits="userSpaceOnUse"> <stop offset="0" style="stop-color:#FFFFFF"></stop> <stop offset="1" style="stop-color:#000000"></stop> </radialGradient> <path id="XMLID_430_" style="clip-path:url(#SVGID_00000023277617767265289370000017256608124768820401_);fill:url(#XMLID_00000060012800831053651820000016254300577985012138_);" d=" M92,10.6c0,0-7.2,0.6-13.5,3.9C70,18.6,55.6,28.8,55.6,28.8l3.6-0.2C70,22.4,80.3,16.2,90.4,13.4C91,13.1,91.9,11.5,92,10.6z"></path> </g> </g> </g> <radialGradient id="XMLID_00000075125358523779384070000004250879751504520872_" cx="-297.8179" cy="653.2175" r="7.4419" gradientTransform="matrix(0.9844 0 0 0.9844 369.3275 -627.7054)" gradientUnits="userSpaceOnUse"> <stop offset="0" style="stop-color:#FFFFFF"></stop> <stop offset="1" style="stop-color:#FFFFFF"></stop> </radialGradient> <path id="XMLID_428_" style="opacity:0.5;fill:url(#XMLID_00000075125358523779384070000004250879751504520872_);enable-background:new ;" d=" M92,10.6c0,0-7.2,0.6-13.5,3.9C70,18.6,55.6,28.8,55.6,28.8l3.6-0.2C70,22.4,80.3,16.2,90.4,13.4C91,13.1,91.9,11.5,92,10.6z"></path> <linearGradient id="XMLID_00000136380807754367095810000006133214532025597831_" gradientUnits="userSpaceOnUse" x1="87.3472" y1="613.0917" x2="30.402" y2="618.515" gradientTransform="matrix(1 0 0 1 0 -587.3544)"> <stop offset="0" style="stop-color:#16140F"></stop> <stop offset="7.840000e-02" style="stop-color:#391A13"></stop> <stop offset="0.749" style="stop-color:#C3241D"></stop> <stop offset="1" style="stop-color:#C2211E"></stop> </linearGradient> <path id="XMLID_427_" style="fill:url(#XMLID_00000136380807754367095810000006133214532025597831_);" d="M84.8,20.7l-3,0.9 c0,0-3.6,8.4-8.2,9.3c-4.6,0.9-12.9-2.3-12.9-2.3l-1.6,0.1c3.6,1.7,11.5,4.5,15.9,3.4C79.7,30.8,84.8,20.7,84.8,20.7z"></path> <linearGradient id="XMLID_00000160168841065941737420000013158894710224414359_" gradientUnits="userSpaceOnUse" x1="79.2259" y1="627.0685" x2="72.0247" y2="607.9216" gradientTransform="matrix(1 0 0 1 0 -587.3544)"> <stop offset="0" style="stop-color:#16140F"></stop> <stop offset="7.840000e-02" style="stop-color:#391A13"></stop> <stop offset="0.749" style="stop-color:#C3241D"></stop> <stop offset="1" style="stop-color:#C2211E"></stop> </linearGradient> <path id="XMLID_426_" style="fill:url(#XMLID_00000160168841065941737420000013158894710224414359_);" d="M55.6,28.8 c0,0,1.1,0.7,2,1.1c6.9,3,17.1,4.9,19.1,4.3C82,32.5,88,21.1,89.8,15.9l-5,4.8c0,0-5.1,10.1-9.7,11.3c-4.3,1.2-12.3-1.6-15.9-3.4 L55.6,28.8L55.6,28.8z"></path> <linearGradient id="XMLID_00000156582379588582102780000015787380631860636063_" gradientUnits="userSpaceOnUse" x1="69.3933" y1="612.9396" x2="89.5501" y2="604.7679" gradientTransform="matrix(1 0 0 1 0 -587.3544)"> <stop offset="0" style="stop-color:#601C16"></stop> <stop offset="0.2" style="stop-color:#A82520"></stop> <stop offset="0.702" style="stop-color:#C3241D"></stop> <stop offset="1" style="stop-color:#C2211E"></stop> </linearGradient> <path id="XMLID_425_" style="fill:url(#XMLID_00000156582379588582102780000015787380631860636063_);" d="M89.8,15.9 c0,0-5.6,2.2-11.3,4.9c-7,3.3-9.9,4.8-9.9,4.8l16.2-4.9L89.8,15.9z"></path> <g id="XMLID_422_"> <g> <g> <defs> <polygon id="SVGID_00000022550765043586447440000006690205085328745151_" points="28.7,-4.9 28.9,-4.9 28.7,-4.7 "></polygon> </defs> <clipPath id="SVGID_00000129897230393098782270000001383389413122213810_"> <use xlink:href="#SVGID_00000022550765043586447440000006690205085328745151_" style="overflow:visible;"></use> </clipPath> </g> <g> <defs> <polygon id="SVGID_00000105394423533111172560000001229835956413140630_" points="28.7,-4.9 28.9,-4.9 28.7,-4.7 "></polygon> </defs> <defs> <polygon id="SVGID_00000108304381614223073240000008279741760905365655_" points="28.2,-5.3 28,-5.3 28.2,-5.5 "></polygon> </defs> <clipPath id="SVGID_00000100363801531933420640000018057700829961642389_"> <use xlink:href="#SVGID_00000105394423533111172560000001229835956413140630_" style="overflow:visible;"></use> </clipPath> <clipPath id="SVGID_00000058572050627698847000000002191567508701124482_" style="clip-path:url(#SVGID_00000100363801531933420640000018057700829961642389_);"> <use xlink:href="#SVGID_00000108304381614223073240000008279741760905365655_" style="overflow:visible;"></use> </clipPath> <linearGradient id="XMLID_00000084528914869823091070000012506627213614975160_" gradientUnits="userSpaceOnUse" x1="88.4846" y1="603.5399" x2="75.1459" y2="610.8132" gradientTransform="matrix(1 0 0 1 0 -587.3544)"> <stop offset="0" style="stop-color:#FFFFFF"></stop> <stop offset="1" style="stop-color:#000000"></stop> </linearGradient> <path id="XMLID_423_" style="clip-path:url(#SVGID_00000058572050627698847000000002191567508701124482_);fill:url(#XMLID_00000084528914869823091070000012506627213614975160_);" d=" M89.4,16.2c0,0-5.2,2.1-10.9,4.8c-7,3.4-9.3,4.3-9.3,4.3l17.7-6.8L89.4,16.2z"></path> </g> </g> </g> <linearGradient id="XMLID_00000114771645809833303720000015199933518833234850_" gradientUnits="userSpaceOnUse" x1="88.4846" y1="603.5399" x2="75.1459" y2="610.8132" gradientTransform="matrix(1 0 0 1 0 -587.3544)"> <stop offset="0" style="stop-color:#FFFFFF"></stop> <stop offset="1" style="stop-color:#FFFFFF"></stop> </linearGradient> <path id="XMLID_421_" style="opacity:0.8;fill:url(#XMLID_00000114771645809833303720000015199933518833234850_);enable-background:new ;" d=" M89.4,16.2c0,0-5.2,2.1-10.9,4.8c-7,3.4-9.3,4.3-9.3,4.3l17.7-6.8L89.4,16.2z"></path> <g id="XMLID_418_"> <g> <g> <defs> <polygon id="SVGID_00000124858479600194188090000010186771114911750319_" points="28.7,-4.9 28.9,-4.9 28.7,-4.7 "></polygon> </defs> <clipPath id="SVGID_00000013884726609436817640000002955974955397509559_"> <use xlink:href="#SVGID_00000124858479600194188090000010186771114911750319_" style="overflow:visible;"></use> </clipPath> </g> <g> <defs> <polygon id="SVGID_00000140693755316478052310000007088828657014540938_" points="28.7,-4.9 28.9,-4.9 28.7,-4.7 "></polygon> </defs> <defs> <polygon id="SVGID_00000052075319265214813030000011247164391707420833_" points="28.2,-5.3 28,-5.3 28.2,-5.5 "></polygon> </defs> <clipPath id="SVGID_00000094582803367060869490000002407929793746542751_"> <use xlink:href="#SVGID_00000140693755316478052310000007088828657014540938_" style="overflow:visible;"></use> </clipPath> <clipPath id="SVGID_00000072965926553985998050000012773640962493387704_" style="clip-path:url(#SVGID_00000094582803367060869490000002407929793746542751_);"> <use xlink:href="#SVGID_00000052075319265214813030000011247164391707420833_" style="overflow:visible;"></use> </clipPath> <linearGradient id="XMLID_00000123410422504455734740000004032605228219719583_" gradientUnits="userSpaceOnUse" x1="71.5064" y1="614.5368" x2="82.7571" y2="605.2619" gradientTransform="matrix(1 0 0 1 0 -587.3544)"> <stop offset="0" style="stop-color:#CCCCCC"></stop> <stop offset="0.4737" style="stop-color:#FFFFFF"></stop> <stop offset="1" style="stop-color:#000000"></stop> </linearGradient> <path id="XMLID_419_" style="clip-path:url(#SVGID_00000072965926553985998050000012773640962493387704_);fill:url(#XMLID_00000123410422504455734740000004032605228219719583_);" d=" M75.1,32.2c4.6-1.2,9.7-11.4,9.7-11.4C84.1,22.2,79.4,30.9,75.1,32.2c-4.2,1-12-1.7-15.7-3.4l-0.1-0.1 C62.8,30.4,70.8,33.3,75.1,32.2z"></path> </g> </g> </g> <linearGradient id="XMLID_00000109723447612468730270000016438944559338897028_" gradientUnits="userSpaceOnUse" x1="71.5064" y1="614.5368" x2="82.7571" y2="605.2619" gradientTransform="matrix(1 0 0 1 0 -587.3544)"> <stop offset="0" style="stop-color:#FFFFFF"></stop> <stop offset="0.4737" style="stop-color:#FFFFFF"></stop> <stop offset="1" style="stop-color:#FFFFFF"></stop> </linearGradient> <path id="XMLID_417_" style="opacity:0.4;fill:url(#XMLID_00000109723447612468730270000016438944559338897028_);enable-background:new ;" d=" M75.1,32.2c4.6-1.2,9.7-11.4,9.7-11.4C84.1,22.2,79.4,30.9,75.1,32.2c-4.2,1-12-1.7-15.7-3.4l-0.1-0.1 C62.8,30.4,70.8,33.3,75.1,32.2z"></path> <g id="XMLID_414_"> <g> <g> <defs> <polygon id="SVGID_00000067234505723756423450000006884775579277670310_" points="28.7,-4.9 28.9,-4.9 28.7,-4.7 "></polygon> </defs> <clipPath id="SVGID_00000129927551195629702870000011705288285821749122_"> <use xlink:href="#SVGID_00000067234505723756423450000006884775579277670310_" style="overflow:visible;"></use> </clipPath> </g> <g> <defs> <polygon id="SVGID_00000057843737900292056120000007573805710692300714_" points="28.7,-4.9 28.9,-4.9 28.7,-4.7 "></polygon> </defs> <defs> <polygon id="SVGID_00000127020336021360434170000003745307062465474466_" points="28.2,-5.3 28,-5.3 28.2,-5.5 "></polygon> </defs> <clipPath id="SVGID_00000042001048466718880060000007554372806649518730_"> <use xlink:href="#SVGID_00000057843737900292056120000007573805710692300714_" style="overflow:visible;"></use> </clipPath> <clipPath id="SVGID_00000103267335487070839750000011409446133372266924_" style="clip-path:url(#SVGID_00000042001048466718880060000007554372806649518730_);"> <use xlink:href="#SVGID_00000127020336021360434170000003745307062465474466_" style="overflow:visible;"></use> </clipPath> <linearGradient id="XMLID_00000114069263882873211180000007935563163399290026_" gradientUnits="userSpaceOnUse" x1="86.0003" y1="593.8727" x2="73.36" y2="610.8442" gradientTransform="matrix(1 0 0 1 0 -587.3544)"> <stop offset="5.263160e-03" style="stop-color:#FFFFFF"></stop> <stop offset="0.314" style="stop-color:#B1B1B1"></stop> <stop offset="0.6227" style="stop-color:#696969"></stop> <stop offset="0.7655" style="stop-color:#4D4D4D"></stop> <stop offset="0.8633" style="stop-color:#262626"></stop> <stop offset="0.9498" style="stop-color:#0A0A0A"></stop> <stop offset="1" style="stop-color:#000000"></stop> </linearGradient> <path id="XMLID_415_" style="clip-path:url(#SVGID_00000103267335487070839750000011409446133372266924_);fill:url(#XMLID_00000114069263882873211180000007935563163399290026_);" d=" M58.3,29.8c7,3.2,16.1,4.6,18.2,4.1c5.4-1.8,10.8-12.6,13.2-17.8l-4.5,4.3c0,0-5.3,10.6-10,11.8c-4.4,1.2-12.3-1.8-15.9-3.6 l-2.9,0.1C56.3,28.8,57.4,29.4,58.3,29.8z"></path> </g> </g> </g> <linearGradient id="XMLID_00000178925974216488866710000000595072688240596887_" gradientUnits="userSpaceOnUse" x1="86.0003" y1="593.8727" x2="73.36" y2="610.8442" gradientTransform="matrix(1 0 0 1 0 -587.3544)"> <stop offset="5.263160e-03" style="stop-color:#FFFFFF"></stop> <stop offset="0.7655" style="stop-color:#FFFFFF"></stop> <stop offset="1" style="stop-color:#FFFFFF"></stop> </linearGradient> <path id="XMLID_413_" style="opacity:0.6;fill:url(#XMLID_00000178925974216488866710000000595072688240596887_);enable-background:new ;" d=" M58.3,29.8c7,3.2,16.1,4.6,18.2,4.1c5.4-1.8,10.8-12.6,13.2-17.8l-4.5,4.3c0,0-5.3,10.6-10,11.8c-4.4,1.2-12.3-1.8-15.9-3.6 l-2.9,0.1C56.3,28.8,57.4,29.4,58.3,29.8z"></path> <linearGradient id="XMLID_00000029728668970553489020000004108262000855957664_" gradientUnits="userSpaceOnUse" x1="72.6247" y1="579.2793" x2="66.4358" y2="604.8887" gradientTransform="matrix(1 0 0 1 0 -587.3544)"> <stop offset="0" style="stop-color:#25221D"></stop> <stop offset="0.5573" style="stop-color:#89888A"></stop> <stop offset="0.9842" style="stop-color:#FFFFFF"></stop> </linearGradient> <path id="XMLID_412_" style="fill:url(#XMLID_00000029728668970553489020000004108262000855957664_);" d="M45.3,20.4 c0,0,4.5,7.1,6.1,9.3c2.5,3.3,6.9,5.3,6.9,5.3s-3.4-3.5-4.4-5.5c-0.5-1,0.1-2.3,4.4-5.5C62.2,21,76.3,9.2,89.7,6 c0,0-7.1-1.2-17.1,2C69,9.1,63.7,14.2,54,23.6C52.9,24.6,47.4,21.4,45.3,20.4z"></path> <linearGradient id="XMLID_00000041975669682004485320000015080849521740390060_" gradientUnits="userSpaceOnUse" x1="-179.4615" y1="346.0627" x2="-182.5524" y2="346.0627" gradientTransform="matrix(2.8346 0 0 -2.8346 562.7193 1003.6833)"> <stop offset="0" style="stop-color:#25221D"></stop> <stop offset="0.5573" style="stop-color:#89888A"></stop> <stop offset="0.9842" style="stop-color:#FFFFFF"></stop> </linearGradient> <path id="XMLID_411_" style="fill:url(#XMLID_00000041975669682004485320000015080849521740390060_);" d="M50.2,24.6 c1.7,1.2,2.5,0.2,3.8-0.9c-1.3,0.7-6-2-8.8-3.3L50.2,24.6z"></path> <linearGradient id="XMLID_00000157993914189604930220000016990099218784242315_" gradientUnits="userSpaceOnUse" x1="36.8924" y1="598.6215" x2="41.7545" y2="608.0105" gradientTransform="matrix(1 0 0 1 0 -587.3544)"> <stop offset="0" style="stop-color:#25221D"></stop> <stop offset="0.5573" style="stop-color:#89888A"></stop> <stop offset="0.9842" style="stop-color:#FFFFFF"></stop> </linearGradient> <path id="XMLID_410_" style="fill:url(#XMLID_00000157993914189604930220000016990099218784242315_);" d="M37.7,18.6 c0,0,7.6,7.1,11.3,9.7c0,0-6.7-1.5-8.2-3.5C39.2,22.8,37.7,18.6,37.7,18.6z"></path> <linearGradient id="XMLID_00000175300011931449966110000012666320940033289109_" gradientUnits="userSpaceOnUse" x1="80.2805" y1="577.9547" x2="58.8177" y2="639.9958" gradientTransform="matrix(1 0 0 1 0 -587.3544)"> <stop offset="0" style="stop-color:#25221D"></stop> <stop offset="0.5573" style="stop-color:#89888A"></stop> <stop offset="0.9842" style="stop-color:#FFFFFF"></stop> </linearGradient> <path id="XMLID_409_" style="fill:url(#XMLID_00000175300011931449966110000012666320940033289109_);" d="M53,29.9 c2.3,3.2,5.2,5,5.2,5s-3.4-3.5-4.4-5.5c-0.5-1,0.1-2.3,4.4-5.5C62.2,21,76.3,9.2,89.7,6c0,0-8.1,1.6-15.8,4 c-2.5,0.8-6.6,4.1-12.8,9.5c-2.3,2-5.9,4.7-8,7.4C52.4,28,52.2,28.8,53,29.9z"></path> <linearGradient id="XMLID_00000103264967218669300270000014595652821498822536_" gradientUnits="userSpaceOnUse" x1="43.9476" y1="599.6658" x2="43.1112" y2="615.6782" gradientTransform="matrix(1 0 0 1 0 -587.3544)"> <stop offset="0" style="stop-color:#25221D"></stop> <stop offset="0.5573" style="stop-color:#89888A"></stop> <stop offset="0.9842" style="stop-color:#FFFFFF"></stop> </linearGradient> <path id="XMLID_408_" style="fill:url(#XMLID_00000103264967218669300270000014595652821498822536_);" d="M37.7,18.6 c0,0,7.6,7.1,11.3,9.7c0,0-6-2.6-7.6-4.6C39.9,21.7,37.7,18.6,37.7,18.6L37.7,18.6z"></path> <g id="XMLID_395_"> <g id="XMLID_405_"> <g> <g> <defs> <polygon id="SVGID_00000064326391669441634770000017009924585725673635_" points="28.7,-4.9 28.9,-4.9 28.7,-4.7 "></polygon> </defs> <clipPath id="SVGID_00000122695650369915010700000009978460930556604588_"> <use xlink:href="#SVGID_00000064326391669441634770000017009924585725673635_" style="overflow:visible;"></use> </clipPath> </g> <g> <defs> <polygon id="SVGID_00000137113474279358035350000017820359071349103537_" points="28.7,-4.9 28.9,-4.9 28.7,-4.7 "></polygon> </defs> <defs> <polygon id="SVGID_00000052080072801042786460000000282460625208492202_" points="28.2,-5.3 28,-5.3 28.2,-5.5 "></polygon> </defs> <clipPath id="SVGID_00000122687756250209065270000010337484134449304193_"> <use xlink:href="#SVGID_00000137113474279358035350000017820359071349103537_" style="overflow:visible;"></use> </clipPath> <clipPath id="SVGID_00000031191982405539816370000007595224747945278605_" style="clip-path:url(#SVGID_00000122687756250209065270000010337484134449304193_);"> <use xlink:href="#SVGID_00000052080072801042786460000000282460625208492202_" style="overflow:visible;"></use> </clipPath> <linearGradient id="XMLID_00000088846207111567478110000017344035942888751550_" gradientUnits="userSpaceOnUse" x1="41.2634" y1="610.0428" x2="46.7004" y2="614.6433" gradientTransform="matrix(1 0 0 1 0 -587.3544)"> <stop offset="0" style="stop-color:#000000"></stop> <stop offset="1" style="stop-color:#FFFFFF"></stop> </linearGradient> <path id="XMLID_406_" style="clip-path:url(#SVGID_00000031191982405539816370000007595224747945278605_);fill:url(#XMLID_00000088846207111567478110000017344035942888751550_);" d=" M37.7,18.6c0,0,7.6,7.1,11.3,9.7c0,0-6-2.6-7.6-4.6C39.9,21.7,37.7,18.6,37.7,18.6L37.7,18.6z"></path> </g> </g> </g> <linearGradient id="XMLID_00000003076250607889568750000006088665624845171870_" gradientUnits="userSpaceOnUse" x1="41.2634" y1="610.0428" x2="46.7004" y2="614.6433" gradientTransform="matrix(1 0 0 1 0 -587.3544)"> <stop offset="0" style="stop-color:#171510"></stop> <stop offset="1" style="stop-color:#AC2820"></stop> </linearGradient> <path id="XMLID_404_" style="fill:url(#XMLID_00000003076250607889568750000006088665624845171870_);" d="M37.7,18.6 c0,0,7.6,7.1,11.3,9.7c0,0-6-2.6-7.6-4.6C39.9,21.7,37.7,18.6,37.7,18.6L37.7,18.6z"></path> <g id="XMLID_397_"> <g> <g> <defs> <polygon id="SVGID_00000165933874717193211780000013228822497478579889_" points="28.7,-4.9 28.9,-4.9 28.7,-4.7 "></polygon> </defs> <clipPath id="SVGID_00000055672864395224278600000014493817266558765440_"> <use xlink:href="#SVGID_00000165933874717193211780000013228822497478579889_" style="overflow:visible;"></use> </clipPath> </g> <g> <defs> <polygon id="SVGID_00000127030564479299636110000012180811199645233568_" points="28.7,-4.9 28.9,-4.9 28.7,-4.7 "></polygon> </defs> <defs> <polygon id="SVGID_00000175285470539353957510000000146895064966499240_" points="28.2,-5.3 28,-5.3 28.2,-5.5 "></polygon> </defs> <clipPath id="SVGID_00000006677136198412010480000001381086362338939306_"> <use xlink:href="#SVGID_00000127030564479299636110000012180811199645233568_" style="overflow:visible;"></use> </clipPath> <clipPath id="SVGID_00000009586532467406421310000000904078293563075725_" style="clip-path:url(#SVGID_00000006677136198412010480000001381086362338939306_);"> <use xlink:href="#SVGID_00000175285470539353957510000000146895064966499240_" style="overflow:visible;"></use> </clipPath> <linearGradient id="XMLID_00000132802462169186711810000015267068257695177640_" gradientUnits="userSpaceOnUse" x1="37.7069" y1="610.8452" x2="49.0204" y2="610.8452" gradientTransform="matrix(1 0 0 1 0 -587.3544)"> <stop offset="0" style="stop-color:#000000"></stop> <stop offset="1" style="stop-color:#FFFFFF"></stop> </linearGradient> <path id="XMLID_398_" style="clip-path:url(#SVGID_00000009586532467406421310000000904078293563075725_);fill:url(#XMLID_00000132802462169186711810000015267068257695177640_);" d=" M38.6,19.6c1.9,1.8,6.3,5.8,9.3,8.1c-1.8-0.9-5.2-2.6-6.3-4C40.6,22.4,39.3,20.7,38.6,19.6 M37.7,18.6c0,0,2.2,3.1,3.7,5.1 c1.6,2,7.6,4.6,7.6,4.6C45.3,25.7,37.7,18.6,37.7,18.6L37.7,18.6z"></path> </g> </g> </g> <linearGradient id="XMLID_00000085248397778195111370000004330480518941067148_" gradientUnits="userSpaceOnUse" x1="37.7069" y1="610.8452" x2="49.0204" y2="610.8452" gradientTransform="matrix(1 0 0 1 0 -587.3544)"> <stop offset="0" style="stop-color:#FFFFFF"></stop> <stop offset="1" style="stop-color:#FFFFFF"></stop> </linearGradient> <path id="XMLID_396_" style="fill:url(#XMLID_00000085248397778195111370000004330480518941067148_);" d="M38.6,19.6 c1.9,1.8,6.3,5.8,9.3,8.1c-1.8-0.9-5.2-2.6-6.3-4C40.6,22.4,39.3,20.7,38.6,19.6 M37.7,18.6c0,0,2.2,3.1,3.7,5.1 c1.6,2,7.6,4.6,7.6,4.6C45.3,25.7,37.7,18.6,37.7,18.6L37.7,18.6z"></path> </g> </g> <g id="XMLID_365_"> <polygon id="XMLID_393_" points="77.1,52.2 76.4,51.5 79.9,51.5 79.9,50.3 76.5,50.3 76.5,48 81.3,48 80.7,48.6 77.8,48.6 77.8,49.7 81.2,49.7 81.2,52.2 "></polygon> <g id="XMLID_389_"> <path id="XMLID_390_" d="M58.3,52.2v-1.8h-2.2v1.8h-1.3V48l4.4,0c0.2,0,0.3,0.2,0.3,0.4l0,3.8L58.3,52.2L58.3,52.2z M58.3,49.8 v-1c0,0,0-0.2-0.1-0.2h-2.1v1.1L58.3,49.8L58.3,49.8z"></path> </g> <polygon id="XMLID_388_" points="57.2,45.7 57.2,41.5 58.4,41.5 58.4,45.1 60.6,45.1 60.6,41.5 61.9,41.5 61.9,45.7 "></polygon> <polygon id="XMLID_387_" points="67.7,45.7 67.7,41.5 68.9,41.5 68.9,45.1 71.9,45.1 71.4,45.7 "></polygon> <rect id="XMLID_386_" x="72.4" y="41.5" width="1.2" height="4.2"></rect> <polygon id="XMLID_385_" points="86.3,45.7 86.3,41.5 90.8,41.5 90.3,42.2 87.5,42.2 87.5,43 90.7,43 90.2,43.7 87.5,43.7 87.5,45.7 "></polygon> <path id="XMLID_382_" d="M52.1,45.7v-4.2l4.3,0c0.2,0,0.3,0.2,0.3,0.3v2.5h-3.3v1.3L52.1,45.7L52.1,45.7z M55.4,43.7v-1.4 c0-0.2-0.1-0.2-0.1-0.2h-2v1.6H55.4z"></path> <g id="XMLID_377_"> <path id="XMLID_378_" d="M62.4,41.5h3.9c0.2,0,0.3,0.2,0.3,0.4v1.2H67l0,2.6l-4.6,0C62.4,45.7,62.4,41.5,62.4,41.5z M65.7,45.1 v-1.3h-2.1v1.3H65.7z M65.7,43.1v-0.8c0,0,0-0.2-0.1-0.2h-2v1L65.7,43.1L65.7,43.1z"></path> </g> <polygon id="XMLID_376_" points="65.9,52.2 65.9,48 70.6,48 70,48.6 67.2,48.6 67.2,49.8 70.3,49.8 70.3,50.4 67.2,50.4 67.2,51.6 70,51.6 70.6,52.2 "></polygon> <polygon id="XMLID_375_" points="46.8,45.7 46.8,41.5 51.5,41.5 50.9,42.2 48.1,42.2 48.1,43.3 51.2,43.3 51.2,43.9 48.1,43.9 48.1,45.1 50.9,45.1 51.5,45.7 "></polygon> <g id="XMLID_373_"> <polygon id="XMLID_374_" points="74.3,45.7 74.3,41.5 79,41.5 78.4,42.2 75.6,42.2 75.6,45.1 79,45.1 78.4,45.7 "></polygon> </g> <polygon id="XMLID_372_" points="49.3,52.2 49.3,48 54.2,48 53.6,48.7 50.6,48.7 50.6,51.6 52.8,51.6 52.8,49.9 54.1,49.9 54.1,52.2 "></polygon> <polygon id="XMLID_371_" points="61.5,52.2 61.5,49.8 62.7,50.7 62.7,50.7 64,49.8 64,52.2 65.2,52.2 65.2,48 62.7,49.7 62.7,49.7 60.3,48 60.3,52.2 "></polygon> <path id="XMLID_368_" d="M85.5,41.9c0-0.2-0.1-0.3-0.3-0.3l-4.2,0v2.7l1.3,1.5l3.2,0L85.5,41.9L85.5,41.9z M84.3,45.1h-1l-1-1.2 v-1.8h2L84.3,45.1L84.3,45.1z"></path> <path id="XMLID_367_" d="M74.7,50.4l1.1,0v-2c0-0.2-0.1-0.4-0.3-0.4H71v4.2h1.3v-3.5h2.2c0.1,0,0.1,0.1,0.1,0.2v0.8l-2.1,0 l2.2,2.5h1.5L74.7,50.4z"></path> <path id="XMLID_366_" d="M44.8,43.7h-2.1l3.4,3.6v-1.4l-1.3-1.4h1.3v-2.5c0-0.2,0-0.4-0.3-0.4h-4.9v2.9l1.3,1.4v-3.7h2.4 c0.2,0,0.2,0.1,0.2,0.2C44.8,42.4,44.8,43.7,44.8,43.7z"></path> </g> </g> </g> </svg> 