<?xml version="1.0" encoding="UTF-8"?> <svg xmlns="http://www.w3.org/2000/svg" xmlns:xlink="http://www.w3.org/1999/xlink" version="1.1" id="Layer_1" x="0px" y="0px" viewBox="0 0 120 60" style="enable-background:new 0 0 120 60;" xml:space="preserve"> <style type="text/css"> .st0{fill-rule:evenodd;clip-rule:evenodd;fill:#004C94;} </style> <g> <polygon class="st0" points="19.6,25.5 10,40.3 16.6,40.3 25.8,26.1 19.6,25.5 "></polygon> <path class="st0" d="M19.8,25.1c0,0,2.3-3.7,2.8-4.4c0.5-0.7,1.2-1,2-1h9.9v5c0,0,0.5-1.9,1.4-2.8c0.8-0.9,1.9-2.1,4.5-2.2h18.7 v5.5H19.8z"></path> <path class="st0" d="M110,25.1v-5.5H90c-2.5,0.2-3.6,1.4-4.5,2.2c-0.9,0.9-1.4,2.8-1.4,2.8v0.4L110,25.1L110,25.1z"></path> <polygon class="st0" points="65.7,25.1 60.2,25.1 60.2,19.6 65.7,19.6 65.7,25.1 "></polygon> <polygon class="st0" points="84.1,25.1 78.5,25.1 78.5,19.6 84.1,19.6 84.1,25.1 "></polygon> <path class="st0" d="M84.1,27.1l-5.5-0.3v6.4c0,0,0,1.8-1.8,1.8h-9.4c0,0-1.6-0.1-1.6-1.8v-7.3l-5.5-0.4v9.8c0.9,4.7,5.2,5,5.2,5 s0.4,0,0.5,0h12.7c0,0,5.5-0.4,5.5-5.6V27.1L84.1,27.1z"></path> <path class="st0" d="M28.9,40.4h26.1c4.5-0.9,5-5,5-5c0.2-1.2,0.1-2.2,0.1-2.2c-0.1-0.8-1.7-4.4-5.1-4.8c-2-0.2-20.2-1.6-20.2-1.6 c0.3,1.8,1.2,2.7,1.7,3.2c1.3,1.2,3.3,1.5,3.3,1.5c0.5,0,14,1.1,14,1.1c0.4,0,1.2,0.1,1.2,1.2c0,0.1-0.1,1.1-1.2,1.1H34.4v-8.2 l-5.4-0.4V40.4L28.9,40.4z"></path> <path class="st0" d="M84.1,34.9h19.4c0.5,0,0.9-0.3,0.9-0.3c0.2-0.2,0.4-0.5,0.4-0.8c0-1-0.9-1.1-1.3-1.1c0,0-13.6-1.1-14.1-1.2 c0,0-1.9-0.3-3.2-1.5c-0.6-0.5-1.3-1.1-1.8-2.9c0,0,18.2,1.1,20.3,1.2c3.4,0.3,5,3.7,5.2,4.8c0,0,0.2,1,0,2.2c0,0-0.7,4.7-5.7,5 h-20L84.1,34.9L84.1,34.9L84.1,34.9z"></path> <polygon class="st0" points="19.6,25.5 10,40.3 16.6,40.3 25.8,26.1 19.6,25.5 "></polygon> <path class="st0" d="M19.8,25.1c0,0,2.3-3.7,2.8-4.4c0.5-0.7,1.2-1,2-1h9.9v5c0,0,0.5-1.9,1.4-2.8c0.8-0.9,1.9-2.1,4.5-2.2h18.7 v5.5H19.8z"></path> <path class="st0" d="M110,25.1v-5.5H90c-2.5,0.2-3.6,1.4-4.5,2.2c-0.9,0.9-1.4,2.8-1.4,2.8v0.4L110,25.1L110,25.1z"></path> <polygon class="st0" points="65.7,25.1 60.2,25.1 60.2,19.6 65.7,19.6 65.7,25.1 "></polygon> <polygon class="st0" points="84.1,25.1 78.5,25.1 78.5,19.6 84.1,19.6 84.1,25.1 "></polygon> <path class="st0" d="M84.1,27.1l-5.5-0.3v6.4c0,0,0,1.8-1.8,1.8h-9.4c0,0-1.6-0.1-1.6-1.8v-7.3l-5.5-0.4v9.8c0.9,4.7,5.2,5,5.2,5 s0.4,0,0.5,0h12.7c0,0,5.5-0.4,5.5-5.6V27.1L84.1,27.1z"></path> <path class="st0" d="M28.9,40.4h26.1c4.5-0.9,5-5,5-5c0.2-1.2,0.1-2.2,0.1-2.2c-0.1-0.8-1.7-4.4-5.1-4.8c-2-0.2-20.2-1.6-20.2-1.6 c0.3,1.8,1.2,2.7,1.7,3.2c1.3,1.2,3.3,1.5,3.3,1.5c0.5,0,14,1.1,14,1.1c0.4,0,1.2,0.1,1.2,1.2c0,0.1-0.1,1.1-1.2,1.1H34.4v-8.2 l-5.4-0.4V40.4L28.9,40.4z"></path> <path class="st0" d="M84.1,34.9h19.4c0.5,0,0.9-0.3,0.9-0.3c0.2-0.2,0.4-0.5,0.4-0.8c0-1-0.9-1.1-1.3-1.1c0,0-13.6-1.1-14.1-1.2 c0,0-1.9-0.3-3.2-1.5c-0.6-0.5-1.3-1.1-1.8-2.9c0,0,18.2,1.1,20.3,1.2c3.4,0.3,5,3.7,5.2,4.8c0,0,0.2,1,0,2.2c0,0-0.7,4.7-5.7,5 h-20L84.1,34.9L84.1,34.9L84.1,34.9z"></path> </g> </svg> 