<?xml version="1.0" encoding="UTF-8"?> <svg xmlns="http://www.w3.org/2000/svg" xmlns:xlink="http://www.w3.org/1999/xlink" version="1.1" id="圖層_1" x="0px" y="0px" viewBox="0 0 120 60" style="enable-background:new 0 0 120 60;" xml:space="preserve"> <style type="text/css"> .st0{fill:#005DAA;} .st1{fill:#A1D078;} </style> <g> <path class="st0" d="M24,28.4l-1.8,10.7h-7.9c-1.2,0-2.2-0.4-3.1-1.3C10.4,37,10,36,10,34.8c0-0.2,0-0.4,0.1-0.7l0.3-2 c0.7-2.3,2.1-3.5,4.3-3.5h5.1c0.1-0.7-0.1-1.3-0.5-1.8c-0.4-0.5-1-0.8-1.7-0.8h-4.8l0.4-2.5h6.6c1.2,0,2.2,0.4,3,1.3 c0.9,0.8,1.3,1.9,1.3,3C24.1,28.1,24.1,28.3,24,28.4 M19.2,31.3h-2.5c-0.5,0-0.9,0.2-1.3,0.5c-0.4,0.3-0.7,0.7-0.7,1.1l-0.2,1.3 c-0.1,0.6,0.1,1.1,0.6,1.6c0.5,0.5,1,0.7,1.6,0.7h1.8L19.2,31.3z"></path> <path class="st0" d="M40.5,23.5L40.1,26h-6.9c-1.2,0-1.9,0.6-2.1,1.8l5.4,3.3c1.4,0.8,2.1,2.1,2.1,3.7c0,1.4-0.5,2.5-1.6,3.4 c-0.8,0.7-1.8,1-2.8,1h-9.4l0.4-2.7h6.9c1.2,0,2-0.6,2.2-1.9l-5.4-3c-1.4-0.8-2.1-2-2.1-3.6c0-1.3,0.4-2.4,1.2-3.2 c0.8-0.8,1.9-1.3,3.1-1.3L40.5,23.5L40.5,23.5z"></path> <path class="st0" d="M56.2,23.5l-2.1,12.1c-0.2,1-0.7,1.8-1.5,2.5c-0.8,0.7-1.8,1-2.8,1h-4.2c-1.2,0-2.2-0.4-3.1-1.2 c-0.8-0.8-1.3-1.8-1.3-3.1c0-0.2,0-0.5,0.1-0.8l1.8-10.6h4.4l-1.7,10.5c0,0.1-0.1,0.3-0.1,0.4c0,0.6,0.2,1.1,0.7,1.5 c0.4,0.4,1,0.6,1.6,0.6c1.2,0,1.9-0.6,2.1-1.8l1.8-11.2C51.8,23.5,56.2,23.5,56.2,23.5z"></path> <path class="st0" d="M71.2,23.5L70.7,26h-6.2c-1.2,0-1.9,0.6-2.1,1.8l5.4,3.3c1.4,0.8,2.1,2.1,2.1,3.7c0,1.4-0.5,2.5-1.6,3.4 c-0.8,0.7-1.8,1-2.8,1h-9.4l0.4-2.7h6.9c1.2,0,2-0.6,2.2-1.9l-5.4-3c-1.4-0.8-2.1-2-2.1-3.6c0-1.3,0.4-2.4,1.2-3.2 c0.8-0.8,1.9-1.3,3.1-1.3L71.2,23.5L71.2,23.5z"></path> <path class="st0" d="M83.1,23.5L82.7,26h-4.4L77,33.9c0,0.1,0,0.3,0,0.4c0,0.6,0.2,1.1,0.7,1.5c0.4,0.4,0.9,0.6,1.5,0.6h1.8 l-0.4,2.7h-3.6c-1.2,0-2.2-0.4-3.1-1.3C73,37,72.6,36,72.6,34.8c0-0.3,0-0.5,0.1-0.8l2.2-13.2h4.3l-0.4,2.6 C78.7,23.5,83.1,23.5,83.1,23.5z"></path> <path class="st0" d="M97.9,28.5l-1.2,6.9c-0.2,1-0.7,1.9-1.5,2.6c-0.8,0.7-1.8,1.1-2.8,1.1h-4.2c-1.2,0-2.2-0.4-3.1-1.3 c-0.8-0.8-1.3-1.9-1.3-3.1c0-0.3,0-0.5,0.1-0.8l1.2-7.1c0.2-1,0.7-1.8,1.5-2.5c0.8-0.6,1.7-0.9,2.8-0.9h4.2c1.2,0,2.2,0.4,3.1,1.2 c0.9,0.8,1.3,1.8,1.3,3C98,28,98,28.3,97.9,28.5"></path> <path class="st1" d="M89.6,34c0,0-0.1,0.3-0.1,0.4c0,0.6,0.2,1.1,0.6,1.5s0.9,0.6,1.5,0.6c1.2,0,1.9-0.6,2.2-1.9l1-6.1 c0.1-0.7,0.2-1.4-0.2-1.8c-0.5-0.5-1.4-0.6-2-0.6c-1.1,0-1.8,0.6-2,1.8"></path> <path class="st0" d="M110,23.5l-0.4,2.5H107c-1.2,0-2,0.6-2.2,1.9l-1.8,11.3h-4.3l2-12.2c0.2-1,0.7-1.8,1.5-2.5 c0.8-0.6,1.8-1,2.8-1C105,23.5,110,23.5,110,23.5z"></path> </g> </svg> 