<?xml version="1.0" encoding="UTF-8"?> <svg xmlns="http://www.w3.org/2000/svg" xmlns:xlink="http://www.w3.org/1999/xlink" version="1.1" id="Layer_1" x="0px" y="0px" viewBox="0 0 120 60" style="enable-background:new 0 0 120 60;" xml:space="preserve"> <style type="text/css"> .st0{clip-path:url(#SVGID_00000119115966391592235240000016651996274522811582_);} .st1{clip-path:url(#SVGID_00000036230732239598050050000002227920698396460475_);} </style> <g> <path d="M52.9,37.4c0.6,0,0.7-0.5,0.9-1c-0.3,0-0.6,0-0.8,0.1c-0.2,0.1-0.4,0.2-0.5,0.5C52.5,37.2,52.7,37.4,52.9,37.4 M53.5,38.1 c0-0.1,0-0.2,0.1-0.5h0c-0.2,0.3-0.6,0.6-1.3,0.6c-0.8,0-1.2-0.5-1-1.2c0.2-0.9,1.1-1.2,2.2-1.2h0.4c0.1-0.3,0.2-0.8-0.3-0.7 c-0.3,0-0.5,0.3-0.5,0.5h-1.3c0.1-0.5,0.4-0.8,0.8-1c0.4-0.2,0.9-0.2,1.3-0.2c0.7,0,1.5,0.3,1.4,1.1l-0.4,1.8c0,0.1,0,0.3-0.1,0.7 L53.5,38.1L53.5,38.1z"></path> <polygon points="55.6,38.1 56.7,33 58.1,33 57,38.1 "></polygon> <polygon points="58.7,38.1 58.4,34.5 59.7,34.5 59.8,37.1 59.8,37.1 60.9,34.5 62.4,34.5 62.5,37.1 62.5,37.1 63.7,34.5 64.9,34.5 63,38.1 61.5,38.1 61.4,35.6 61.4,35.6 60.1,38.1 "></polygon> <path d="M66,37c0.1-0.2,0.2-0.4,0.5-0.5c0.2-0.1,0.5-0.1,0.8-0.1c-0.1,0.5-0.3,1-0.9,1C66.1,37.4,65.9,37.2,66,37 M68.2,38.1 c0-0.4,0-0.6,0.1-0.7l0.4-1.8c0.2-0.8-0.6-1.1-1.4-1.1c-0.4,0-0.9,0-1.3,0.2c-0.4,0.2-0.7,0.5-0.8,1h1.3c0-0.2,0.2-0.5,0.5-0.5 c0.5,0,0.4,0.4,0.3,0.7h-0.4c-1.2,0-2,0.4-2.2,1.2c-0.2,0.7,0.2,1.2,1,1.2c0.7,0,1-0.3,1.3-0.6h0c-0.1,0.3-0.1,0.4-0.1,0.5 L68.2,38.1L68.2,38.1z"></path> <polygon points="73.6,34.5 70.6,39.5 69.3,39.5 70.1,38.2 69.4,34.5 70.8,34.5 71,37 71,37 72.3,34.5 "></polygon> <path d="M75.8,35.6c0-0.1,0-0.2,0-0.3c-0.1-0.1-0.2-0.1-0.3-0.1c-0.2,0-0.3,0.1-0.4,0.3c-0.1,0.3,0.5,0.2,1.3,0.5 c0.4,0.1,0.6,0.4,0.5,1c-0.2,0.9-1.1,1.2-2,1.2c-0.9,0-1.7-0.2-1.5-1.3h1.3c0,0.1,0,0.2,0,0.3c0.1,0.1,0.2,0.2,0.3,0.2 c0.3,0,0.5-0.1,0.5-0.3c0.1-0.6-2.1-0.3-1.8-1.6c0.2-0.9,1.2-1.1,1.9-1.1c0.8,0,1.6,0.2,1.4,1.2H75.8z"></path> <polygon points="79.7,38.1 80.8,33 82.2,33 81.1,38.1 "></polygon> <path d="M82.1,38.1l0.8-3.6h1.4l-0.8,3.6H82.1z M83,33.9l0.2-1h1.4l-0.2,1H83z"></path> <path d="M86.9,35.6c0-0.1,0-0.2,0-0.3c-0.1-0.1-0.2-0.1-0.3-0.1c-0.2,0-0.3,0.1-0.4,0.3c-0.1,0.3,0.5,0.2,1.3,0.5 c0.4,0.1,0.6,0.4,0.5,1c-0.2,0.9-1.1,1.2-2,1.2c-0.9,0-1.7-0.2-1.5-1.3h1.3c0,0.1,0,0.2,0,0.3c0.1,0.1,0.2,0.2,0.3,0.2 c0.3,0,0.5-0.1,0.5-0.3c0.1-0.6-2.1-0.3-1.8-1.6c0.2-0.9,1.2-1.1,1.9-1.1c0.8,0,1.6,0.2,1.4,1.2H86.9z"></path> <path d="M89.5,34.5l0.1-0.5l1.5-0.5l-0.2,1.1h0.8l-0.2,0.9h-0.8l-0.3,1.4c0,0.1-0.2,0.6,0.1,0.6c0.2,0,0.4,0,0.5,0l-0.2,0.8 c-0.3,0.1-0.5,0.1-0.7,0.1c-0.9,0-1.4-0.1-1.1-1.2l0.3-1.6h-0.7l0.2-0.9H89.5z"></path> <path d="M92.9,36.6c-0.1,0.5-0.1,0.9,0.4,0.9c0.4,0,0.7-0.2,0.8-0.5h1.3c-0.1,0.5-0.5,0.8-0.9,1c-0.4,0.2-0.8,0.3-1.2,0.3 c-1.4,0-1.9-0.6-1.6-2c0.2-1.1,1.2-1.8,2.3-1.8c1.5,0,1.7,0.8,1.5,2.2H92.9z M94.4,35.9c0-0.2,0-0.4-0.1-0.5 c-0.1-0.1-0.2-0.2-0.4-0.2c-0.5,0-0.7,0.4-0.8,0.8H94.4z"></path> <path d="M97.9,34.9c0.4-0.4,0.8-0.5,1.2-0.5c0.8,0,1.2,0.5,1.1,1.3l-0.5,2.4h-1.4l0.4-2.1c0.1-0.3,0.1-0.7-0.4-0.7 c-0.7,0-0.7,0.7-0.7,0.8l-0.4,2h-1.4l0.6-2.7c0.1-0.3,0.1-0.5,0.2-0.9H98L97.9,34.9z"></path> <path d="M100.7,38.1l0.8-3.6h1.4l-0.8,3.6H100.7z M101.6,33.9l0.2-1h1.4l-0.2,1H101.6z"></path> <path d="M105,34.9c0.4-0.4,0.8-0.5,1.2-0.5c0.8,0,1.2,0.5,1.1,1.3l-0.5,2.4h-1.4l0.4-2.1c0.1-0.3,0.1-0.7-0.4-0.7 c-0.7,0-0.7,0.7-0.7,0.8l-0.4,2H103l0.6-2.7c0.1-0.3,0.1-0.5,0.2-0.9h1.4L105,34.9z"></path> <g> <g> <defs> <rect id="SVGID_1_" x="5" y="20.5" width="110" height="19.1"></rect> </defs> <clipPath id="SVGID_00000066509949682555490710000007710195041872369808_"> <use xlink:href="#SVGID_1_" style="overflow:visible;"></use> </clipPath> <path style="clip-path:url(#SVGID_00000066509949682555490710000007710195041872369808_);" d="M110.7,36.2c-0.1,0.4-0.3,1-0.9,1 c-0.6,0-0.6-0.6-0.5-1c0.1-0.4,0.3-1,0.9-1C110.8,35.2,110.8,35.8,110.7,36.2 M112.4,34.5h-1.3l-0.1,0.5h0 c-0.1-0.4-0.5-0.6-1-0.6c-1,0-1.8,0.7-2,1.8c-0.2,1,0.2,1.8,1.2,1.8c0.5,0,1-0.2,1.3-0.6h0l-0.1,0.4c-0.1,0.5-0.3,0.9-0.9,0.9 c-0.1,0-0.3,0-0.4-0.1c-0.1-0.1-0.1-0.2-0.1-0.3h-1.3c-0.2,1,0.8,1.2,1.6,1.2c0.4,0,1.2-0.1,1.7-0.5c0.5-0.4,0.6-0.8,0.8-1.4 L112.4,34.5z"></path> </g> <g> <defs> <rect id="SVGID_00000061442862108647990150000016790298179622055339_" x="5" y="20.5" width="110" height="19.1"></rect> </defs> <clipPath id="SVGID_00000178179485908367544980000003300139683541735849_"> <use xlink:href="#SVGID_00000061442862108647990150000016790298179622055339_" style="overflow:visible;"></use> </clipPath> <path style="clip-path:url(#SVGID_00000178179485908367544980000003300139683541735849_);" d="M115,38.2h-0.2v-1h0l-0.4,1h-0.1 l-0.4-1h0v1h-0.2V37h0.3l0.3,0.8l0.3-0.8h0.3L115,38.2L115,38.2z M113.5,37.2h-0.4v1h-0.2v-1h-0.4V37h0.9V37.2z"></path> </g> </g> <path d="M5,26.3c0-3.2,2.6-5.8,5.8-5.8c3.2,0,5.8,2.6,5.8,5.8c0,3.2-2.6,5.8-5.8,5.8C7.6,32.1,5,29.5,5,26.3 M10.8,31.7 c3,0,5.4-2.4,5.4-5.4s-2.4-5.4-5.4-5.4c-3,0-5.4,2.4-5.4,5.4C5.5,29.3,7.9,31.7,10.8,31.7"></path> <path d="M10.8,21.3l3.1,9.1H7.7L10.8,21.3z M8.4,29.9h2l1.4-4.2l-1-3C10.8,22.7,8.4,29.9,8.4,29.9 M10.9,29.9h2.4l-1.2-3.5 L10.9,29.9"></path> <path d="M99.9,30.5c0.6,0,1-0.5,1-1c0-0.6-0.5-1-1-1c-0.6,0-1,0.5-1,1C98.8,30,99.3,30.5,99.9,30.5 M99.9,30.3 c-0.5,0-0.9-0.4-0.9-0.9c0-0.5,0.4-0.9,0.9-0.9c0.5,0,0.9,0.4,0.9,0.9C100.7,29.9,100.4,30.3,99.9,30.3 M99.8,29.5 c0.1,0,0.1,0,0.2,0.1c0.1,0.1,0.1,0.2,0.1,0.3c0,0.1,0,0.1,0,0.2h0.2c0-0.1-0.1-0.2-0.1-0.4c0-0.1,0-0.2-0.2-0.2v0 c0.2,0,0.2-0.1,0.2-0.3c0-0.3-0.2-0.3-0.5-0.3h-0.4V30h0.2v-0.5C99.7,29.5,99.8,29.5,99.8,29.5z M99.7,29.3V29h0.2 c0.2,0,0.2,0,0.2,0.1c0,0.1,0,0.2-0.2,0.2H99.7z"></path> <path d="M21.4,27.2c0,0.8,0,2.1-1.2,2.1c-0.6,0-1-0.4-1-1C19.3,27.1,20.7,27.1,21.4,27.2 M19.6,25.5c0-0.3,0.2-1,0.9-1 c0.7,0,0.9,0.6,0.9,0.8V26c-0.8,0-1.8,0-2.7,0.4c-1.2,0.5-1.5,1.7-1.5,2.2c0,1.3,1,2.1,2.2,2.1c0.9,0,1.6-0.3,2.1-1.1h0 c0,0.3,0,0.6,0.1,0.9h1.8c0-0.2-0.1-0.4-0.1-0.7v-3.7c0-2.1-1.5-2.6-2.9-2.6c-0.7,0-1.5,0.1-2,0.4c-0.5,0.3-0.9,0.8-0.9,1.7 L19.6,25.5L19.6,25.5z"></path> <path d="M28.6,29.5c-0.4,0.6-1.1,1-2.1,1c-0.7,0-2-0.5-2.2-1.5c-0.1-0.4-0.1-0.9-0.1-1.1v-4.4h2v4.1c0,0.7,0.2,1.6,1.2,1.6 c0.6,0,1.2-0.6,1.2-1.6v-4.1h2v5.6c0,0.4,0,0.8,0.1,1.2h-2L28.6,29.5z"></path> <path d="M33.2,27c0-1,0.2-2.3,1.5-2.3c1.1,0,1.5,1.3,1.5,2.3c0,0.9-0.4,2.3-1.5,2.3C33.4,29.2,33.2,28,33.2,27 M36.1,24.3 L36.1,24.3c-0.4-0.6-1.1-1-1.8-1c-2.1,0-3.2,1.8-3.2,3.6c0,1.8,0.9,3.6,2.9,3.6c0.9,0,1.6-0.4,2.1-1.2h0c0,0.3,0,0.6,0.1,1h2 c0-0.4-0.1-0.9-0.1-1.4v-8.5h-2V24.3z"></path> <path d="M40.8,30.4h-2v-6.8h2V30.4z M40.9,22.3h-2.2v-1.8h2.2V22.3z"></path> <path d="M43.4,27c0-1.1,0.2-2.3,1.5-2.3c1.2,0,1.5,1.2,1.5,2.3c0,1.1-0.2,2.3-1.5,2.3C43.6,29.2,43.4,28,43.4,27 M48.4,27 c0-2.1-1.3-3.6-3.6-3.6c-2.2,0-3.6,1.5-3.6,3.6c0,2.1,1.3,3.6,3.6,3.6C47.1,30.6,48.4,29.1,48.4,27"></path> <rect x="49.1" y="26" width="1.7" height="1.5"></rect> <path d="M51.5,23.5v-1.3l2-0.7v2.1h1.5v1.4h-1.5v3.2c0,0.9,0.1,1.1,0.8,1.1c0.2,0,0.4,0,0.7,0v1.2c-0.2,0.1-1.3,0.2-1.6,0.2 c-1.6,0-1.9-0.8-1.9-2.3v-3.4h-1.4v-1.4H51.5z"></path> <path d="M57.2,26.1c0-0.7,0.2-1.4,1.2-1.4c1,0,1.2,0.7,1.2,1.4H57.2z M61.6,27.5c0-0.4,0-0.9-0.1-1.3c-0.1-0.4-0.1-0.8-0.3-1.2 c-0.6-1.2-1.6-1.6-2.9-1.6c-2.1,0-3.3,1.6-3.3,3.6c0,2.3,0.9,3.6,3.3,3.6c1.6,0,2.9-0.6,3.1-2.2h-1.8c-0.2,0.6-0.5,0.9-1.3,0.9 c-1,0-1.2-0.8-1.2-1.7H61.6z"></path> <path d="M66.2,25.9c0-0.6-0.2-1.2-1-1.2c-0.9,0-0.9,1.6-0.9,2.2c0.1,0.6,0.1,2.3,0.9,2.3c0.8,0,1-0.8,1-1.3h2 c-0.1,1.7-1.1,2.7-3,2.7c-2,0-3-1.8-3-3.6c0-1.8,1-3.6,3-3.6c1.7,0,3,1,3,2.6L66.2,25.9L66.2,25.9z"></path> <path d="M68.7,30.4v-9.8h2v3.8l0,0c0.4-0.6,1.1-1,2.1-1c0.7,0,2,0.5,2.2,1.5c0.1,0.4,0.1,0.9,0.1,1.1v4.4h-2v-4.1 c0-0.7-0.2-1.6-1.2-1.6c-0.6,0-1.2,0.6-1.2,1.6v4.1H68.7z"></path> <path d="M77.8,24.3L77.8,24.3c0.4-0.6,1.1-1,2.1-1c0.7,0,2,0.5,2.2,1.5c0.1,0.4,0.1,0.9,0.1,1.1v4.4h-2v-4.1c0-0.7-0.2-1.6-1.2-1.6 c-0.6,0-1.2,0.6-1.2,1.6v4.1h-2v-6.8h2L77.8,24.3L77.8,24.3z"></path> <path d="M84.9,30.4h-2v-6.8h2V30.4z M85,22.3h-2.2v-1.8H85V22.3z"></path> <path d="M89.5,25.9c0-0.6-0.2-1.2-1-1.2c-0.9,0-0.9,1.6-0.9,2.2c0.1,0.6,0.1,2.3,0.9,2.3c0.8,0,1-0.8,1-1.3h2 c-0.1,1.7-1.1,2.7-3,2.7c-2,0-3-1.8-3-3.6c0-1.8,1-3.6,3-3.6c1.7,0,3,1,3,2.6L89.5,25.9L89.5,25.9z"></path> <path d="M96,27.2c0,0.8,0,2.1-1.2,2.1c-0.6,0-1-0.4-1-1C93.8,27.1,95.3,27.1,96,27.2 M94.1,25.5c0-0.3,0.2-1,0.9-1 c0.7,0,0.9,0.6,0.9,0.8V26c-0.8,0-1.8,0-2.7,0.4c-1.2,0.5-1.5,1.7-1.5,2.2c0,1.3,1,2.1,2.2,2.1c0.9,0,1.6-0.3,2.1-1.1h0 c0,0.3,0,0.6,0.1,0.9h1.8c0-0.2-0.1-0.4-0.1-0.7v-3.7c0-2.1-1.5-2.6-2.9-2.6c-0.7,0-1.5,0.1-2,0.4c-0.5,0.3-0.9,0.8-0.9,1.7 L94.1,25.5L94.1,25.5z"></path> </g> </svg> 