<?xml version="1.0" encoding="UTF-8"?> <svg xmlns="http://www.w3.org/2000/svg" xmlns:xlink="http://www.w3.org/1999/xlink" version="1.1" id="Layer_1" x="0px" y="0px" viewBox="0 0 120 60" style="enable-background:new 0 0 120 60;" xml:space="preserve"> <g> <polygon points="106,20.8 103.5,20.8 94.2,26.6 97.3,31.6 98.9,31.6 96,27 "></polygon> <polygon points="86.1,31.6 88.5,31.6 91.2,29.9 92.3,31.6 93.8,31.6 91.6,28.1 "></polygon> <g> <path d="M25.7,24.5h-1.8l-1.7,0l-0.5,1.2l0,0v0h1.5l1.5,0c1.3,0,1.7-0.1,1.8-0.1c0.1,0,0.2-0.2,0.4-0.5c0,0,0-0.1,0-0.1 C26.9,24.7,26.7,24.5,25.7,24.5"></path> </g> <polygon points="33.7,27.7 36.9,26.8 36.6,24.7 "></polygon> <polygon points="90.5,26.4 88.3,22.8 85.6,29.4 "></polygon> <g> <path d="M24,27.8h-1.6l-1.6,0l-0.6,1.4l0,0l0,0h1.8h1.8c1.1,0,1.4-0.1,1.5-0.2c0.1-0.1,0.3-0.3,0.4-0.5c0.1-0.3,0.1-0.5,0.1-0.5 C25.8,28,25.5,27.8,24,27.8"></path> <path d="M59.6,30.2h-3.2l0.6-1.5L55,30.2h-6.8l0.6-1.6l-2.1,1.6h-9.3l-0.3-2.3l-4.5,2.3l-4.3,0c-0.3,0.3-0.6,0.4-1,0.6 c-0.8,0.4-2.1,0.8-3.7,0.8H16l3.9-9.5l7.2,0c1.7,0,2.7,0.3,3.3,0.6c0.6,0.4,0.7,1.1,0.2,2.1c-0.2,0.6-0.7,1.3-1.6,1.8 c0.8,0.5,0.7,1.3,0.4,2c0,0,0,0,0,0.1l6.3-6.6h3.9l1,6.5l2.6-6.5h3.2l-2.5,6.1H49l2.5-6.1l3.1,0l-2.4,6.1h5.1l2.5-6.1h3.1 L59.6,30.2z M72.7,31.6h6.1l2.3-5.7h1.3L80,31.6h1.8l2.3-1.4h-2.1L85,23l-1.7,1.6h-3.2l-2.2,5.6h-3.1l2.2-5.6h-7.1 c0.1-0.3,0-0.4,0-0.4c-0.1,0-0.3-0.1-1.5-0.1c-1.3,0-1.8,0.1-2,0.1c-0.1,0-0.2,0.1-0.4,0.4c-0.1,0.3-0.1,0.4-0.1,0.4 c0.1,0,0.4,0.1,2.4,0.2c1.9,0.1,2.9,0.2,3.4,0.5c0.5,0.3,0.6,1,0.2,1.9c-0.5,1.1-1.1,1.9-2.1,2.2c-0.8,0.3-2.3,0.5-4.4,0.4 c-2,0-3.2-0.2-3.7-0.5c-0.6-0.4-0.7-1-0.3-2l0-0.1h3.1h0c-0.1,0.3-0.2,0.5-0.1,0.6s0.5,0.1,2.1,0.1c1.3,0,1.7-0.1,1.8-0.1 c0.1-0.1,0.3-0.3,0.4-0.5c0.1-0.2,0.1-0.3,0-0.3c0,0-0.2-0.1-1.1-0.2l-1.2-0.1c-2-0.1-3.1-0.3-3.6-0.5c-0.5-0.3-0.6-1-0.2-2 c0.5-1.3,1.4-1.8,2-2.1c0.8-0.3,2.2-0.5,4.2-0.4c1.9,0,3.1,0.2,3.6,0.4c0.3,0.2,0.6,0.4,0.6,0.9l0.6-1.4l17.6,0l1.7,2.7l6.4-4H97 l-3.4,2.1l-1.4-2.1l-19.3,0l-0.1,0.3c-0.7-0.2-2-0.4-3.8-0.4h-0.1c-1.8,0-3.1,0.1-4,0.4l0.1-0.3h-6.1l-2.4,6h-2.2l2.4-6h-6.1 l-2.4,6h-2.2l2.4-6h-6.1l-1.1,2.6l-0.4-2.6h-5.9l-2.7,2.8c0-1.2-0.7-1.9-1.1-2.1c-0.8-0.5-2-0.7-4-0.7l-8.2,0L14,33h9.8 c1.8,0,3.1-0.5,4.1-1c0.3-0.2,0.4-0.2,0.7-0.4h4.9l2.5-1.5l0.3,1.5h24.2l0.4-0.8c0.1,0.1,0.2,0.1,0.3,0.2c0.8,0.4,2.1,0.6,4.4,0.6 h0.2c2.3,0,3.8-0.2,4.7-0.5c1.3-0.5,2.2-1.5,2.8-3c0.4-0.9,0.4-1.6,0.2-2.2H75L72.7,31.6z"></path> </g> <polygon points="99.5,30.7 99.9,30.7 99.9,31.6 100.1,31.6 100.1,30.7 100.4,30.7 100.4,30.5 99.5,30.5 "></polygon> <polygon points="101.2,31.3 100.9,30.5 100.6,30.5 100.6,31.6 100.8,31.6 100.8,30.7 100.8,30.7 101.2,31.6 101.3,31.6 101.7,30.7 101.7,30.7 101.7,31.6 101.9,31.6 101.9,30.5 101.6,30.5 "></polygon> <rect x="26.7" y="36.8" width="18.7" height="0.3"></rect> <rect x="73.5" y="36.8" width="19.8" height="0.3"></rect> <g> <path d="M48.5,37.8c-0.3,0-0.4-0.3-0.4-0.5c0-0.2,0.1-0.5,0.4-0.5c0.3,0,0.3,0.3,0.3,0.5C48.8,37.6,48.7,37.8,48.5,37.8 M48.6,36.5c-0.2,0-0.4,0.1-0.5,0.2h0v-0.9h-0.4v2.3h0.4v-0.2h0c0.1,0.2,0.3,0.2,0.5,0.2c0.5,0,0.7-0.4,0.7-0.8 C49.2,36.9,49.1,36.5,48.6,36.5"></path> <path d="M50.2,37.7L50.2,37.7l-0.4-1.1h-0.4l0.6,1.6c0,0.2-0.1,0.3-0.3,0.3c-0.1,0-0.2,0-0.2,0l0,0.3c0.1,0,0.2,0,0.3,0 c0.4,0,0.5-0.3,0.6-0.7l0.6-1.5h-0.4L50.2,37.7z"></path> <path d="M61.3,37.7c-0.4,0-0.8-0.2-0.8-0.7s0.4-0.7,0.8-0.7c0.3,0,0.6,0.1,0.9,0.2l0.3-0.4c-0.4-0.2-0.8-0.3-1.2-0.3 c-0.9,0-1.7,0.5-1.7,1.2c0,0.7,0.8,1.2,1.7,1.2c0.4,0,0.8-0.1,1.2-0.3l-0.3-0.4C61.9,37.6,61.6,37.7,61.3,37.7"></path> <path d="M66.4,37.7c-0.4,0-0.8-0.2-0.8-0.7c0-0.5,0.4-0.7,0.8-0.7c0.4,0,0.8,0.2,0.8,0.7C67.3,37.5,66.8,37.7,66.4,37.7 M66.4,35.7c-0.9,0-1.7,0.5-1.7,1.2c0,0.7,0.8,1.2,1.7,1.2s1.7-0.5,1.7-1.2C68.2,36.2,67.4,35.7,66.4,35.7"></path> <path d="M70,35.7C70,35.7,70,35.7,70,35.7C70,35.7,70,35.7,70,35.7c-0.3,0-0.5,0.1-0.6,0.2c0,0-0.1-0.2-0.8-0.2v2.4h0.8v-1.5 c0-0.2,0.2-0.4,0.4-0.4c0.2,0,0.4,0.1,0.4,0.3v1.6H71v-1.6C71,36,70.6,35.7,70,35.7"></path> </g> <rect x="58.3" y="35.8" width="0.8" height="2.3"></rect> <g> <path d="M63.7,35.9c0,0-0.1-0.2-0.8-0.2v2.4h0.8v-1.4c0-0.2,0.3-0.4,0.5-0.4c0.1,0,0.3,0,0.4,0.1v-0.6c-0.1,0-0.2,0-0.3,0 C64.1,35.7,63.9,35.8,63.7,35.9"></path> <path d="M58.6,34.1c-0.3-0.5-1.3-0.3-2.6,0.4c-0.1,0-0.1,0.1-0.1,0.1c-0.1,0,0,0.1,0,0.1s0.1,0,0.2-0.1c1-0.5,1.7-0.5,2-0.2 c0.4,0.5-0.5,2.1-2,3.2c-0.2,0.2-0.5,0.4-0.7,0.5c0,0,0,0,0,0c-0.1,0-0.1,0.1-0.1,0.1c0,0,0,0.1,0,0.1c0,0,0.1,0,0.1-0.1 c0,0,0,0,0,0c0.2-0.1,0.6-0.4,0.8-0.6c0.2-0.1,0.4-0.3,0.6-0.4v0.9h0.8v-1.7C58.5,35.4,58.9,34.5,58.6,34.1"></path> <path d="M55.1,37.8c0,0-0.1,0.1-0.2,0.1c-1.3,0.8-2.2,1.1-2.5,0.6c-0.3-0.4,0.2-1.1,1-2v2c0.2-0.1,0.5-0.2,0.8-0.4v-1.8l0.2,0.4 c0.2,0.4,0.6,0.7,1.1,0.7s0.8-0.3,1.1-0.7l0.2-0.4v0.5c0.3-0.3,0.6-0.6,0.8-0.9c0,0,0-0.1,0-0.1c-0.1-0.3-0.4-0.5-0.7-0.5 s-0.6,0.2-0.7,0.5l-0.4,0.8c0,0.1-0.1,0.1-0.2,0.1c-0.1,0-0.1,0-0.2-0.1L55,35.8c-0.1-0.1-0.2-0.3-0.3-0.3 c0.3-0.2,0.5-0.4,0.8-0.5c0.1,0,0.1-0.1,0.1-0.1c0,0,0-0.1,0-0.1c0,0-0.1,0-0.2,0.1c-0.3,0.2-0.5,0.3-0.8,0.5c0,0-0.1,0-0.1,0.1 c-0.1,0-0.2-0.1-0.3-0.1c-0.5,0-0.8,0.4-0.8,0.8v0.1c-1.2,1.1-1.8,2.1-1.5,2.6c0.2,0.3,0.8,0.3,1.5,0v0.4h0.8v-0.9 c0.2-0.1,0.5-0.3,0.7-0.4C55,37.9,55.1,37.9,55.1,37.8C55.2,37.8,55.1,37.8,55.1,37.8"></path> <path d="M71.8,36.1v-0.2h0.1c0.1,0,0.1,0,0.1,0.1C72,36.1,71.9,36.1,71.8,36.1C71.9,36.1,71.8,36.1,71.8,36.1z M72.1,36 c0-0.1-0.1-0.2-0.2-0.2h-0.2v0.5h0.1v-0.2h0.1l0.1,0.2h0.1l-0.1-0.2C72,36.1,72.1,36.1,72.1,36"></path> <path d="M71.9,36.5c-0.2,0-0.3-0.2-0.3-0.4c0-0.2,0.2-0.4,0.3-0.4s0.3,0.2,0.3,0.4C72.2,36.3,72,36.5,71.9,36.5 M71.9,35.7 c-0.3,0-0.5,0.2-0.5,0.5c0,0.3,0.2,0.5,0.5,0.5c0.3,0,0.5-0.2,0.5-0.5S72.1,35.7,71.9,35.7"></path> </g> </g> </svg> 