<?xml version="1.0" encoding="UTF-8"?> <svg xmlns="http://www.w3.org/2000/svg" xmlns:xlink="http://www.w3.org/1999/xlink" version="1.1" id="Layer_1" x="0px" y="0px" viewBox="0 0 120 60" style="enable-background:new 0 0 120 60;" xml:space="preserve"> <g> <path d="M104.9,34.5V41h-3.1v-6.5c0-1.7-0.7-2.8-2.4-2.8c-1.7,0-2.4,1.1-2.4,2.8V41H94v-6.5c0-3.6,1.9-5.7,5.5-5.7 C103.1,28.8,104.9,30.8,104.9,34.5 M56.7,35.1c0,3.7-2.5,6.2-6.2,6.2c-3.7,0-6.2-2.6-6.2-6.2V24.8h3.1v5.7c0.8-0.8,2-1.6,3.7-1.6 C54.4,28.8,56.7,31.4,56.7,35.1 M53.5,35.1c0-1.9-1.3-3.3-3.1-3.3s-3.1,1.5-3.1,3.3c0,1.9,1.3,3.3,3.1,3.3 C52.2,38.4,53.5,36.9,53.5,35.1 M69.9,35.3c0,0.3,0,0.7-0.1,1H61c0.2,1.5,1.5,2.4,3.2,2.4c1.2,0,2.3-0.3,3.1-1.1l1.6,2.1 c-0.9,0.7-2.5,1.6-4.7,1.6c-3.8,0-6.3-2.5-6.3-6.1c0-3.6,2.6-6.3,6.1-6.3C67.7,28.8,69.9,31.2,69.9,35.3 M66.7,34 c-0.2-1.5-1.1-2.6-2.9-2.6c-1.7,0-2.6,1.1-2.9,2.6H66.7z M71.5,40.9h3.1V24.8h-3.1V40.9z M87.7,29.2h-3.6l-4.2,5.2v-9.6h-3.1V41 h3.1v-5.6l4.2,5.6h3.8L83,34.6L87.7,29.2z M89,40.9h3.1V29.2H89V40.9z M24.5,22.2c-1.5,0-2.8-1.2-2.8-2.8c0-1.5,1.2-2.7,2.8-2.7 c1.5,0,2.8,1.2,2.8,2.8C27.3,21.1,26,22.2,24.5,22.2 M22.1,25c-1,0-1.8,0.8-1.8,1.8c0,1,0.8,1.8,1.8,1.8c1,0,1.8-0.8,1.8-1.8 C23.9,25.8,23.1,25,22.1,25 M13.9,24.2c-1,0-1.8,0.8-1.8,1.8c0,1,0.8,1.8,1.8,1.8c1,0,1.8-0.8,1.8-1.8C15.8,25,15,24.2,13.9,24.2 M25.1,26.8c0,1,0.8,1.8,1.8,1.8c1,0,1.8-0.8,1.8-1.8c0-1-0.8-1.8-1.8-1.8C25.9,25,25.1,25.8,25.1,26.8 M35,24.2 c-1,0-1.8,0.8-1.8,1.8c0,1,0.8,1.8,1.8,1.8c1,0,1.8-0.8,1.8-1.8C36.9,25,36.1,24.2,35,24.2 M22.1,29.9c-1,0-1.8,0.8-1.8,1.8 c0,1,0.8,1.8,1.8,1.8c1,0,1.8-0.8,1.8-1.8C23.9,30.7,23.1,29.9,22.1,29.9 M28.8,31.7c0-1-0.8-1.8-1.8-1.8c-1,0-1.8,0.8-1.8,1.8 c0,1,0.8,1.8,1.8,1.8C28,33.5,28.8,32.7,28.8,31.7 M19.6,39.6c-1,0-1.8,0.8-1.8,1.8c0,1,0.8,1.8,1.8,1.8c1,0,1.8-0.8,1.8-1.8 C21.5,40.4,20.6,39.6,19.6,39.6 M29.4,39.6c-1,0-1.8,0.8-1.8,1.8c0,1,0.8,1.8,1.8,1.8c1,0,1.8-0.8,1.8-1.8 C31.2,40.4,30.4,39.6,29.4,39.6 M90.6,24.1c-1,0-1.8,0.8-1.8,1.8s0.8,1.8,1.8,1.8s1.8-0.8,1.8-1.8C92.4,25,91.6,24.1,90.6,24.1"></path> <path d="M90.6,24.1c-1,0-1.8,0.8-1.8,1.8s0.8,1.8,1.8,1.8s1.8-0.8,1.8-1.8C92.4,25,91.6,24.1,90.6,24.1 M106.7,40.1h-0.3v0.8h-0.2 v-0.8h-0.3V40h0.7V40.1z M107.8,40h-0.2l-0.3,0.7L107,40h-0.2v1h0.2v-0.7l0.3,0.7h0.1l0.3-0.7v0.7h0.2L107.8,40L107.8,40z"></path> </g> </svg> 