<?xml version="1.0" encoding="UTF-8"?> <svg xmlns:inkscape="http://www.inkscape.org/namespaces/inkscape" xmlns:cc="http://web.resource.org/cc/" xmlns:dc="http://purl.org/dc/elements/1.1/" xmlns:sodipodi="http://sodipodi.sourceforge.net/DTD/sodipodi-0.dtd" xmlns:rdf="http://www.w3.org/1999/02/22-rdf-syntax-ns#" xmlns:svg="http://www.w3.org/2000/svg" xmlns="http://www.w3.org/2000/svg" xmlns:xlink="http://www.w3.org/1999/xlink" version="1.1" id="svg1956" sodipodi:docbase="R:\Logos" sodipodi:version="0.32" x="0px" y="0px" viewBox="0 0 120 60" style="enable-background:new 0 0 120 60;" xml:space="preserve"> <style type="text/css"> .st0{fill:#482A91;} </style> <g id="layer1" transform="translate(48.00996,-536.7671)" inkscape:groupmode="layer" inkscape:label="Ebene 1"> <g id="g2093" transform="translate(3.546199,3.545002)"> <path id="path8" class="st0" d="M-7.2,554.7c2.1,0,3.6,1.6,4,3.6h-8C-10.7,556.2-9.3,554.7-7.2,554.7 M-7.1,549 c-6.6,0-11.3,4.9-11.3,11.8v0.7c0,7,4.9,11.7,12.4,11.7c1.7,0,5.7,0,9.6-3v-5.2c-3.2,2.4-5.2,2.7-8,2.7c-4,0-6.5-1.6-7-5.1H4 c0-0.4,0-0.7,0-1.1C4.2,553.5-0.9,549-7.1,549"></path> <path id="path10" class="st0" d="M12.5,552.9c2.2-2.7,4.3-3.8,7.1-3.8c3.4,0,8,2,8,8.9v14.6h-6.9v-13.6c0-3.3-1.5-4.6-3.4-4.6 c-1.7,0-3,0.9-4.8,3.8v14.3H5.6v-22.9h6.9V552.9"></path> <path id="path12" class="st0" d="M-34.9,567.6h5.7c1.4,0,2.8-0.5,2.8-2.4c0-1.8-1.3-2.4-2.8-2.4h-5.7V567.6 M-34.9,558.4h5.3 c1.1,0,2.8,0,2.8-1.8c0-1.6-1.6-1.8-2.8-1.8h-5.3V558.4 M-19.2,565.8c0,1.6-0.6,3.8-2.6,5.3c-1.9,1.5-3.9,1.6-5.8,1.6h-14v-23.6 h13.5c1.4,0,2.4,0,3.7,0.4c2.2,0.7,4.5,2.1,4.5,5.5c0,2.3-1.2,4.1-3,5.1c0.6,0.3,1.2,0.6,1.8,1.2 C-20.2,562.2-19.2,563.7-19.2,565.8"></path> <path id="path14" class="st0" d="M45.1,566.4c-0.9,1.1-2.3,1.7-3.7,1.7c-1.8,0-3.2-0.8-4.2-2.3c-0.8-1.1-1.2-2.7-1.2-4.3 c0-2.1,0.7-3.8,1.8-5.1c1-1.2,2-1.6,3.6-1.6c1,0,2,0.2,2.8,0.9c1.5,1.2,2.5,3.4,2.5,5.8C46.7,563.4,46.1,565.2,45.1,566.4 M47.2,572.1L47.2,572.1c4.1-1.5,6.9-5.5,6.9-11c0-9-7.1-12.2-12.5-12.2C35,548.9,29,553,29,561.1c0,7.3,5.3,12.2,12.6,12.2 c1.1,1.3,6.9,6.3,15.8,3.4l1.1-7.6C54.2,572.7,48.2,572.4,47.2,572.1"></path> </g> </g> </svg> 