<?xml version="1.0" encoding="UTF-8"?> <svg xmlns:svg="http://www.w3.org/2000/svg" xmlns="http://www.w3.org/2000/svg" xmlns:xlink="http://www.w3.org/1999/xlink" version="1.1" id="svg4720" x="0px" y="0px" viewBox="0 0 120 60" style="enable-background:new 0 0 120 60;" xml:space="preserve"> <style type="text/css"> .st0{fill-rule:evenodd;clip-rule:evenodd;fill:#244AA5;} </style> <g id="layer1" transform="translate(-122.475,-923.4875)"> <path id="path4474" class="st0" d="M220.8,945.3c1.7,2.7,5.2,8.7,0,17.6h3.7c0,0,5.2-8.7,0-17.6H220.8z M225.7,945.3 c2.8,5,2.8,12.6,0,17.6h3.4c2.3-5.2,2.5-12.5,0-17.6H225.7z M230.4,945.3c2.3,5.2,2.3,12.5,0,17.6h3.3c2-5.3,2.1-12.4,0-17.6H230.4 z M234.9,945.3c2,5.2,1.9,12.4,0,17.6h3.2c1.8-5.3,1.8-12.3,0-17.6H234.9z M211.9,948.2c-1,0-1.6,0.2-1.6,0.9 c0,0.8,0.7,0.9,1.6,0.9c0.9,0,1.6-0.2,1.6-0.9C213.5,948.4,212.8,948.2,211.9,948.2z M125.6,948.5v10h2.5v-1.3h0 c0.3,0.9,1,1.5,2.2,1.5c1.4,0,3.2-0.8,3.2-4.5c0-1.5-0.2-4-2.8-4c-1.3,0-2,0.6-2.4,1.6h0v-3.4H125.6z M169.2,948.5v3.4h0 c-0.4-1.1-0.8-1.6-2.3-1.6c-2.4,0-2.9,2.5-2.9,4.2c0,3.4,1.8,4.3,2.9,4.3c1.4,0,2-0.7,2.4-1.5h0v1.3h2.5v-10H169.2z M138.2,950.2 c-3,0-4.1,1.7-4.1,4.3c0,2.6,1.2,4.2,4.1,4.2c1.1,0,2.3-0.4,2.9-1.1v-1.9c-0.5,0.7-1.4,1.1-2.5,1.1c-1.1,0-1.9-0.5-2.1-1.5h4.9 c0.1-0.5,0.1-0.9,0.1-1.4C141.6,951.7,140.5,950.2,138.2,950.2z M153.4,950.2c-3,0-4.1,1.7-4.1,4.3c0,2.6,1.2,4.2,4.1,4.2 c1.1,0,2.3-0.4,2.9-1.1v-1.9c-0.5,0.7-1.4,1.1-2.4,1.1c-1.1,0-1.9-0.5-2.1-1.5h5c0.1-0.5,0.1-0.9,0.1-1.4 C156.8,951.7,155.7,950.2,153.4,950.2z M162.2,950.2c-1.4,0-1.9,1.2-2.1,2.3h0v-2.1h-2.6v8h2.7v-3.5c0-1.2,0.6-2.1,1.7-2.1 c0.6,0,1.1,0.2,1.4,0.6v-3C163.1,950.3,162.7,950.2,162.2,950.2z M186.1,950.2c-1.2,0-2.1,0.6-2.6,2h0v-1.7h-2.5v8h2.7v-4.2 c0-0.9,0.3-1.7,1.1-1.7c0.8,0,1,0.5,1,1.2v4.7h2.7v-5.8C188.5,950.9,187.5,950.2,186.1,950.2z M193.1,950.2c-1.2,0-2.6,0.5-3.5,1.2 v2.3c0.7-0.7,2-1.3,3.1-1.3c0.5,0,1.1,0.2,1.1,0.7c0,1.2-4.6,0.2-4.6,3.5c0,1.4,1.1,2.1,2.4,2.1c1.1,0,2.1-0.6,2.4-1.6h0v1.4h2.3 v-5.8C196.3,950.7,194.4,950.2,193.1,950.2z M202.1,950.2c-1.3,0-2,0.8-2.3,1.9h0v-1.7h-2.5v8h2.7v-4.8c0-0.6,0.4-1.1,1.1-1.1 c0.5,0,0.9,0.4,0.9,1.1v4.7h2.7v-4.8c0-0.6,0.4-1.1,1.1-1.1c0.5,0,0.9,0.4,0.9,1.1v4.7h2.7v-5.7c0-1.9-0.9-2.6-2.4-2.6 c-1.3,0-2.1,0.9-2.5,2h0C204.2,950.9,203.6,950.2,202.1,950.2z M218,950.2c-2.8,0-4.1,1.7-4.1,4.3c0,2.3,1.1,4.3,3.8,4.3 c1.1,0,2.1-0.3,2.7-1.1v-2.3c-0.6,0.7-1.2,1.1-2.1,1.1c-1.3,0-1.8-0.9-1.8-1.8c0-1.3,0.6-1.9,1.9-1.9c0.7,0,1.3,0.2,2,0.9v-2.5 C219.8,950.4,218.8,950.2,218,950.2z M141.4,950.4l2.7,7.6l-0.9,2.4h2.7l3.5-10h-2.7l-1.3,5.4h0l-1.2-5.4H141.4z M172.3,950.4 l2.7,7.6l-0.9,2.4h2.7l3.6-10h-2.7l-1.3,5.4h0l-1.2-5.4H172.3z M210.5,950.4v8h2.7v-8c-0.4,0.1-0.9,0.2-1.4,0.2 C211.4,950.7,210.9,950.6,210.5,950.4z M138.1,952.3c0.9,0,1.6,0.4,1.6,1.2h-3.2C136.7,952.8,137.4,952.3,138.1,952.3z M153.3,952.3c0.9,0,1.6,0.4,1.6,1.2h-3.2C151.8,952.8,152.5,952.3,153.3,952.3z M129.5,952.6c1.2,0,1.3,1,1.3,1.9 c0,1-0.4,1.9-1.3,1.9c-1.1,0-1.4-1-1.4-1.9C128,953.7,128.3,952.6,129.5,952.6z M167.9,952.6c1.2,0,1.4,0.8,1.4,1.9 c0,1.1-0.3,1.9-1.4,1.9c-1.1,0-1.3-1-1.3-2C166.6,953.6,166.8,952.6,167.9,952.6z M193.8,954.8c-0.1,0.8-0.3,2.3-1.4,2.3 c-0.5,0-0.8-0.3-0.8-0.8c0-0.4,0.4-0.7,0.9-0.9C193,955.2,193.6,955,193.8,954.8z"></path> </g> </svg> 