<?xml version="1.0" encoding="UTF-8"?> <svg xmlns="http://www.w3.org/2000/svg" xmlns:xlink="http://www.w3.org/1999/xlink" version="1.1" id="Layer_1" x="0px" y="0px" viewBox="0 0 120 60" style="enable-background:new 0 0 120 60;" xml:space="preserve"> <style type="text/css"> .st0{fill:#1D2B50;} </style> <g> <g> <path class="st0" d="M107.6,22.6c-1.7,0-2.4,1.3-2.4,2.4c0,1.1,0.7,2.4,2.4,2.4c1.4,0,2.4-1.1,2.4-2.4 C110,23.7,109.2,22.6,107.6,22.6 M107.6,23.2c1.1,0,1.8,0.7,1.8,1.8c0,1.1-0.7,1.8-1.8,1.8c-1.1,0-1.8-0.7-1.8-1.8 C105.8,23.9,106.5,23.2,107.6,23.2 M107.1,25.3l0.4,0l0.6,1l0.7,0l-0.6-1.1c0.4,0,0.7-0.2,0.7-0.7c0-0.6-0.3-0.8-0.9-0.8l-1.4,0 l0,2.6l0.6,0L107.1,25.3L107.1,25.3z M107.7,24.2c0.3,0,0.5,0,0.5,0.3c0,0.2-0.1,0.3-0.4,0.3l-0.7,0l0-0.6L107.7,24.2L107.7,24.2z "></path> </g> <g> <polygon class="st0" points="31.3,28 34.1,28 34.1,41.1 31.3,41.1 31.3,28 "></polygon> <polygon class="st0" points="31.3,22.7 34.1,22.7 34.1,26.8 31.3,26.8 31.3,22.7 "></polygon> </g> <polygon class="st0" points="95.3,22.7 98.1,22.7 98.1,41.1 95.3,41.1 95.3,22.7 "></polygon> <polygon class="st0" points="100,22.7 102.8,22.7 102.8,41.1 100,41.1 100,22.7 "></polygon> <path class="st0" d="M10,28l15.4,0c2.6,0,3.3,2,3.3,3.3c0,1.2-0.5,2.3-1.2,2.7c1.3,0.6,2.1,2.1,2.1,3.4c-0.1,3.5-3.5,3.7-4.9,3.7 l-14.6,0L10,28L10,28z M24.4,39.1c1.1,0,2.1-0.8,2.1-1.9c0-1.1-0.9-2-2.1-2l-11.6,0l0,4L24.4,39.1L24.4,39.1z M24,33.2 c1,0,1.8-0.7,1.7-1.6c0-1-0.8-1.6-1.7-1.6l-11.2,0l0,3.2L24,33.2L24,33.2z"></path> <path class="st0" d="M80.3,28c-1,0-3.4,0.5-3.5,2.8c0,2,1,2.9,1.7,3.1c-0.9,0.4-1.7,1.9-1.6,3.2c0,1.3,0.5,4,4.8,4l11.9,0l0-2 l-11.5,0c-1.1,0-2.1-0.8-2.1-1.9c0-1.1,0.9-2,2.1-2l10.9,0l0-2l-11.2,0c-1,0-1.8-0.7-1.8-1.6c0-1,0.8-1.6,1.8-1.6l11.8,0l0-2 L80.3,28L80.3,28z"></path> <path class="st0" d="M71.9,32.1l2.8,0c0-3.2-1.5-4.2-5.4-4.1l-7.7,0c-1.7,0-4.8,0.8-4.8,3.4c0,2.7,1,3.7,4.1,3.7l9.2,0 c1,0,2.1,0.7,2.1,1.9c0,1.2-0.6,2.1-2.5,2.1l-7.2,0c-0.9,0-2.9-0.1-2.9-2.1l-2.8,0c0,1.6,0.3,4.1,4.6,4.1l9.1,0 c1.8,0,4.7-0.9,4.7-4.1c0-3.3-2.7-3.7-4.3-3.7l-9.2,0c-1.5,0-2-0.9-2-1.6c0-0.7,0.5-1.6,2-1.6l8,0C71,30,71.9,30.5,71.9,32.1"></path> <path class="st0" d="M52,32.1l2.8,0c0-3.2-1.5-4.2-5.4-4.1l-7.7,0C40,28,37,28.8,37,31.4c0,2.7,1,3.7,4.1,3.7l9.2,0 c1,0,2.1,0.7,2.1,1.9c0,1.2-0.6,2.1-2.6,2.1l-7.2,0c-0.9,0-2.9-0.1-2.9-2.1L37,37c0,1.6,0.3,4.1,4.6,4.1l9.1,0 c1.8,0,4.7-0.9,4.7-4.1c0-3.3-2.7-3.7-4.3-3.7l-9.2,0c-1.5,0-2-0.9-2-1.6c0-0.7,0.5-1.6,2-1.6l8,0C51.2,30,52,30.5,52,32.1"></path> </g> </svg> 