<?xml version="1.0" encoding="UTF-8"?> <svg xmlns="http://www.w3.org/2000/svg" xmlns:xlink="http://www.w3.org/1999/xlink" version="1.1" id="圖層_1" x="0px" y="0px" viewBox="0 0 120 60" style="enable-background:new 0 0 120 60;" xml:space="preserve"> <style type="text/css"> .st0{fill:#231F20;} .st1{fill:#FF8200;} </style> <g> <g> <path class="st0" d="M35.8,30.7c0,1.3-0.4,2.5-1.3,3.5c-0.9,1-2,1.5-3.3,1.5h-4.5c-1.3,0-2.4-0.5-3.3-1.5c-0.9-1-1.3-2.2-1.3-3.5 V17.2h3.6v5.2v8.3c0,0.7,0.4,1.2,1.1,1.2h4.4c0.7,0,1.1-0.4,1.1-1.2v-3.2c0-0.7-0.4-1.1-1.1-1.2H30c-0.8,0-1.8-0.5-2.5-1.1 c-0.8-0.7-1.4-1.7-1.4-2.7h4.9c1.3,0,2.4,0.5,3.3,1.5c0.9,1,1.3,2.2,1.3,3.5L35.8,30.7L35.8,30.7z"></path> <path class="st0" d="M37.5,35.7v-8.2c0-1.3,0.5-2.5,1.5-3.5s2.2-1.5,3.5-1.5h5.1c0,1.1-0.7,2-1.5,2.7c-0.7,0.6-1.8,1.1-2.6,1.1 h-1.2c-0.7,0-1.2,0.4-1.2,1.2v8.2C41.3,35.7,37.5,35.7,37.5,35.7z"></path> <path class="st0" d="M67.1,35.7h-3.8v-5.3v-3c0-0.7-0.4-1.2-1.2-1.2h-3.4c-0.7,0-1.2,0.4-1.2,1.2v3v5.2h-3.8v-8.1 c0-1.3,0.5-2.5,1.5-3.5c1-1,2.2-1.5,3.5-1.5h3.4c1.3,0,2.5,0.5,3.5,1.5c1,1,1.5,2.2,1.5,3.5C67.1,27.5,67.1,35.7,67.1,35.7z"></path> <path class="st0" d="M82.7,35.7h-3.8v-5.3v-3c0-0.7-0.4-1.2-1.2-1.2h-3.4c-0.7,0-1.2,0.4-1.2,1.2v3v5.2h-3.8v-8.1 c0-1.3,0.5-2.5,1.5-3.5c1-1,2.2-1.5,3.5-1.5h3.4c1.3,0,2.5,0.5,3.5,1.5c1,1,1.5,2.2,1.5,3.5V35.7z"></path> <path class="st0" d="M98.1,30.7c0,1.3-0.5,2.5-1.5,3.5s-2.2,1.5-3.5,1.5h-3.4c-1.3,0-2.5-0.5-3.5-1.5s-1.5-2.2-1.5-3.5v-3.3 c0-1.3,0.5-2.5,1.5-3.5s2.2-1.5,3.5-1.5h3.4c1.3,0,2.5,0.5,3.5,1.5s1.5,2.2,1.5,3.5V30.7z M94.7,30.9v-3.6c0-0.8-0.4-1.2-1.2-1.2 h-3.8c-0.8,0-1.2,0.4-1.2,1.2v3.6c0,0.8,0.4,1.2,1.2,1.2h3.8C94.3,32.1,94.7,31.7,94.7,30.9"></path> </g> <g> <path class="st1" d="M52.7,15.3c0,1.8-0.4,3.3-1.3,4.6c-0.9,1.3-2.2,1.7-3.5,1.7v-0.4c0-1.8,0.3-3.1,1.2-4.4 c0.6-0.8,1.6-1.5,2.4-2.2c0.6-0.5,0.8-0.9,1.1-1.4C52.6,13.2,52.7,15.3,52.7,15.3z"></path> <path class="st1" d="M51.5,22.3c-1.1,0-2.1,0.6-2.9,1.7c-0.8,1.1-1.2,2.3-1.2,3.8v7.9h4.2v-5.3v-8.1 C51.7,22.3,51.5,22.3,51.5,22.3z M48,27.8c0-1.4,0.4-2.6,1.1-3.6c0.7-0.9,1.4-1.3,2.2-1.4v7.7v4.8H48V27.8z"></path> <path class="st1" d="M25.7,42.7c0,0.5-0.4,1.2-1.1,2.1c-0.7,0.9-1.3,1.3-1.8,1.3c-0.2,0-0.5-0.1-0.7-0.3c-0.2-0.1-0.3-0.4-0.3-0.7 c0-0.1,0.1-0.3,0.2-0.4c0.1-0.1,0.2-0.2,0.4-0.2c0.2,0,0.4,0.1,0.5,0.3L23,45c0.2-0.1,0.5-0.4,0.8-0.8c0.4-0.4,0.6-0.7,0.8-1.1 c-0.3,0.2-0.8,0.6-1.5,1.2c-0.1,0.1-0.2,0.1-0.4,0.1c-0.1,0-0.2-0.1-0.4-0.2c-0.1-0.1-0.2-0.2-0.2-0.4c0-0.1,0.1-0.2,0.1-0.3 c0.2-0.3,0.4-0.9,0.7-1.8c0.2-0.6,0.4-1.3,0.7-1.9c0.1-0.2,0.2-0.4,0.5-0.4c0.1,0,0.2,0.1,0.4,0.2c0.1,0.1,0.1,0.2,0.1,0.4 c0,0.1-0.2,0.8-0.8,2.2c0.4-0.2,0.7-0.3,1-0.3c0.2,0,0.4,0.1,0.6,0.2C25.7,42.3,25.7,42.5,25.7,42.7"></path> <path class="st1" d="M30.7,43.3c0,0.4-0.2,0.6-0.5,0.6s-0.5-0.1-0.6-0.4c-0.1-0.2-0.1-0.5-0.1-0.7c-0.4,0.1-0.8,0.6-1.3,1.3 c-0.3,0.6-0.7,1.1-1,1.7c-0.1,0.1-0.3,0.1-0.5,0.1c-0.1,0-0.3-0.1-0.4-0.2c-0.1-0.1-0.2-0.2-0.2-0.3c0-0.1,0.3-0.9,1-2.4 c0.1-0.2,0.2-0.3,0.5-0.3h0.2c0.7-0.7,1.3-1.1,1.8-1.1c0.4,0,0.7,0.2,0.9,0.6C30.7,42.5,30.7,42.9,30.7,43.3"></path> <path class="st1" d="M32.8,42.5c0,0.2-0.1,0.7-0.3,1.2c-0.2,0.6-0.3,1-0.3,1.2c0,0.1-0.1,0.3-0.2,0.4c-0.1,0.1-0.2,0.2-0.4,0.2 c-0.4,0-0.6-0.2-0.6-0.7c0-0.3,0.1-0.7,0.3-1.2c0.2-0.6,0.3-0.9,0.3-1.2c0.1-0.4,0.2-0.6,0.6-0.6c0.2,0,0.3,0.1,0.4,0.2 C32.8,42.3,32.8,42.4,32.8,42.5 M34.1,41.1c0,0.2-0.1,0.4-0.2,0.5c-0.2,0.1-0.3,0.2-0.5,0.2c-0.2,0-0.4-0.1-0.7-0.3 c-0.2-0.2-0.3-0.4-0.3-0.6c0-0.1,0.1-0.3,0.2-0.4c0.1-0.1,0.2-0.2,0.4-0.2c0.2,0,0.3,0.1,0.4,0.2h0.2c0.1,0,0.3,0.1,0.4,0.2 C34.1,40.8,34.1,40.9,34.1,41.1"></path> <path class="st1" d="M36.3,40.4v0.1c-0.1,0.4-0.3,1.1-0.7,2.2c-0.4,1.2-0.7,1.9-0.7,2.2v-0.1V45c0,0.4-0.2,0.5-0.6,0.5 c-0.1,0-0.2-0.1-0.4-0.2c-0.1-0.1-0.1-0.2-0.1-0.4c0-0.4,0.2-1.2,0.7-2.2c0.5-1.2,0.7-2,0.8-2.3c0.1-0.3,0.2-0.5,0.5-0.5 C36.1,39.9,36.3,40.1,36.3,40.4"></path> <path class="st1" d="M38.2,40.4v0.1c-0.1,0.4-0.3,1.1-0.7,2.2c-0.4,1.2-0.7,1.9-0.7,2.2v-0.1V45c0,0.4-0.2,0.5-0.6,0.5 c-0.1,0-0.2-0.1-0.4-0.2c-0.1-0.1-0.1-0.2-0.1-0.4c0-0.4,0.2-1.2,0.7-2.2c0.5-1.2,0.7-2,0.8-2.3c0.1-0.3,0.2-0.5,0.5-0.5 C38,39.9,38.2,40.1,38.2,40.4"></path> <path class="st1" d="M39.4,42.5c0,0.2-0.1,0.7-0.3,1.2c-0.2,0.6-0.3,1-0.3,1.2c0,0.1-0.1,0.3-0.2,0.4c-0.1,0.1-0.2,0.2-0.4,0.2 c-0.4,0-0.6-0.2-0.6-0.7c0-0.3,0.1-0.7,0.3-1.2c0.2-0.6,0.3-0.9,0.3-1.2c0.1-0.4,0.2-0.6,0.6-0.6c0.2,0,0.3,0.1,0.4,0.2 C39.4,42.3,39.4,42.4,39.4,42.5 M40.8,41.1c0,0.2-0.1,0.4-0.2,0.5c-0.2,0.1-0.3,0.2-0.5,0.2c-0.2,0-0.4-0.1-0.7-0.3 c-0.2-0.2-0.3-0.4-0.3-0.6c0-0.1,0.1-0.3,0.2-0.4c0.1-0.1,0.2-0.2,0.4-0.2c0.2,0,0.3,0.1,0.4,0.2h0.2c0.1,0,0.3,0.1,0.4,0.2 C40.8,40.8,40.8,40.9,40.8,41.1"></path> <path class="st1" d="M43.2,43c0,0.4-0.1,0.6-0.4,0.6v0.1c0,0.1,0,0.2-0.1,0.3c0,0.1-0.1,0.2-0.1,0.3c0,0.3,0.1,0.6,0.2,0.7 c0.1,0.2,0.2,0.3,0.2,0.4s-0.1,0.3-0.2,0.4c-0.1,0.1-0.1,0.1-0.3,0.1c-0.4,0-0.6-0.3-0.8-0.8c-0.4,0.3-0.7,0.5-1.1,0.5 c-0.7,0-1-0.3-1-1c0-0.5,0.2-1.2,0.8-2c0.6-0.8,1.1-1.3,1.6-1.3c0.4,0,0.6,0.2,0.8,0.5C43.1,42.3,43.2,42.6,43.2,43 M42.2,43.2V43 c0-0.1-0.1-0.2-0.1-0.3c-0.2,0.1-0.4,0.4-0.7,0.8c-0.3,0.5-0.5,0.8-0.6,1.1c0.2-0.1,0.5-0.3,0.7-0.7C41.8,43.4,42,43.2,42.2,43.2"></path> <path class="st1" d="M48.3,43.2c0,0.4-0.3,1.3-0.8,2.6c-0.1,0.2-0.2,0.4-0.6,0.4c-0.1,0-0.3-0.1-0.4-0.2c-0.1-0.1-0.2-0.2-0.2-0.4 c0-0.1,0.1-0.4,0.4-1.1c0.2-0.6,0.4-1,0.4-1.2c-0.6,0.2-1.4,0.8-2.6,1.8c-0.1,0.1-0.2,0.1-0.4,0.1c-0.1,0-0.3-0.1-0.4-0.2 c-0.1-0.1-0.1-0.2-0.1-0.4c0-0.1,0.2-0.6,0.6-1.3c0.4-0.8,0.7-1.3,0.8-1.4c0.1-0.1,0.2-0.2,0.4-0.2c0.1,0,0.3,0.1,0.4,0.2 c0.1,0.1,0.2,0.2,0.2,0.4c0,0.1-0.1,0.2-0.1,0.3c0.7-0.4,1.2-0.7,1.5-0.7C48.1,42.3,48.3,42.5,48.3,43.2"></path> <path class="st1" d="M49,42c0-0.4,0.4-0.7,1.3-0.9c0.3-0.1,0.9-0.1,1.8-0.2c0.2-0.6,0.5-1.3,0.7-2.2v-0.1c0-0.1,0.1-0.2,0.2-0.4 c0.2-0.1,0.3-0.1,0.5-0.1c0.4,0,0.6,0.2,0.6,0.6c0,0.3-0.2,1-0.6,2c0.8-0.1,1.3-0.1,1.5-0.1c0.4,0,0.6,0.2,0.6,0.6 c0,0.4-0.2,0.6-0.6,0.6c-0.4,0-1.1,0.1-2,0.1c-0.3,0.7-0.6,1.4-0.8,2.1c-0.4,1.2-0.7,1.8-0.7,2c-0.1,0.4-0.2,0.6-0.6,0.6 c-0.1,0-0.3-0.1-0.4-0.2c-0.1-0.1-0.2-0.2-0.2-0.4c0-0.3,0.5-1.7,1.5-4c-0.4,0.1-1.1,0.2-1.7,0.3c-0.1,0.1-0.2,0.2-0.4,0.2 c-0.1,0-0.3-0.1-0.4-0.2C49,42.3,49,42.2,49,42"></path> <path class="st1" d="M58.8,42.5c0,0.2-0.1,0.7-0.3,1.2c-0.2,0.6-0.3,1-0.3,1.2c0,0.1-0.1,0.3-0.2,0.4c-0.1,0.1-0.2,0.2-0.4,0.2 c-0.4,0-0.6-0.2-0.6-0.7c0-0.3,0.1-0.7,0.3-1.2c0.1-0.5,0.3-0.9,0.3-1.2c0.1-0.4,0.2-0.6,0.6-0.6c0.2,0,0.3,0.1,0.4,0.2 C58.7,42.3,58.8,42.4,58.8,42.5 M60.1,41.1c0,0.2-0.1,0.4-0.2,0.5c-0.2,0.1-0.3,0.2-0.5,0.2c-0.2,0-0.4-0.1-0.7-0.3 c-0.2-0.2-0.3-0.4-0.3-0.6c0-0.1,0.1-0.3,0.2-0.4c0.1-0.1,0.2-0.2,0.4-0.2c0.2,0,0.3,0.1,0.4,0.2h0.2c0.1,0,0.3,0.1,0.4,0.2 C60.1,40.8,60.1,40.9,60.1,41.1"></path> <path class="st1" d="M63.5,43.2c0,0.4-0.3,1.3-0.8,2.6c-0.1,0.2-0.2,0.4-0.6,0.4c-0.1,0-0.3-0.1-0.4-0.2c-0.1-0.1-0.2-0.2-0.2-0.4 c0-0.1,0.1-0.4,0.4-1.1c0.2-0.6,0.4-1,0.4-1.2c-0.6,0.2-1.4,0.8-2.6,1.8c-0.1,0.1-0.2,0.1-0.4,0.1c-0.1,0-0.3-0.1-0.4-0.2 c-0.1-0.1-0.2-0.2-0.2-0.4c0-0.1,0.2-0.6,0.6-1.3s0.7-1.3,0.8-1.4c0.1-0.1,0.2-0.2,0.4-0.2c0.1,0,0.3,0.1,0.4,0.2 c0.1,0.1,0.2,0.2,0.2,0.4c0,0.1-0.1,0.2-0.1,0.3c0.7-0.4,1.2-0.7,1.5-0.7C63.2,42.3,63.5,42.5,63.5,43.2"></path> <path class="st1" d="M68.4,43.2c0,0.4-0.3,1.3-0.8,2.6c-0.1,0.2-0.2,0.4-0.6,0.4c-0.1,0-0.3-0.1-0.4-0.2c-0.1-0.1-0.2-0.2-0.2-0.4 c0-0.1,0.1-0.4,0.4-1.1c0.2-0.6,0.4-1,0.4-1.2c-0.6,0.2-1.4,0.8-2.6,1.8c-0.1,0.1-0.2,0.1-0.4,0.1s-0.3-0.1-0.4-0.2 c-0.1-0.1-0.2-0.2-0.2-0.4c0-0.1,0.2-0.6,0.6-1.3c0.4-0.8,0.7-1.3,0.8-1.4c0.1-0.1,0.2-0.2,0.4-0.2c0.1,0,0.3,0.1,0.4,0.2 c0.1,0.1,0.2,0.2,0.2,0.4c0,0.1-0.1,0.2-0.1,0.3c0.7-0.4,1.2-0.7,1.5-0.7C68.2,42.3,68.4,42.5,68.4,43.2"></path> <path class="st1" d="M72.6,44.2c0,0.6-0.2,0.9-0.6,1.2c-0.4,0.3-0.8,0.4-1.3,0.4c-0.4,0-0.8-0.1-1.2-0.2c-0.5-0.2-0.7-0.5-0.7-0.8 c0-0.4,0.4-0.9,1.1-1.7c0.7-0.7,1.2-1.1,1.4-1.1c0.4,0,0.7,0.3,0.9,0.9C72.4,43.4,72.6,43.9,72.6,44.2 M71.4,44.2 c0-0.2-0.1-0.5-0.2-0.8L70.5,44c-0.2,0.2-0.4,0.5-0.6,0.7c0.2,0.1,0.4,0.1,0.7,0.1C71.2,44.8,71.4,44.6,71.4,44.2"></path> <path class="st1" d="M77,42c0,0.5-0.4,1.3-1.3,2.6c-0.9,1.2-1.5,1.8-2,1.8c-0.4,0-0.6-0.2-0.6-0.6c0-0.2,0-0.5,0.1-0.9 c0-0.4,0.1-0.7,0.1-0.9c0-0.7-0.1-1.2-0.2-1.5c0-0.1-0.1-0.1-0.1-0.2c0-0.1,0.1-0.3,0.2-0.4c0.1-0.1,0.2-0.2,0.4-0.2 c0.6,0,0.8,0.9,0.7,2.7c1.1-1.2,1.6-2.1,1.6-2.5c0.1-0.4,0.2-0.6,0.6-0.6c0.1,0,0.3,0.1,0.4,0.2C76.9,41.7,77,41.8,77,42"></path> <path class="st1" d="M80.9,43c0,0.4-0.1,0.6-0.4,0.6v0.1c0,0.1,0,0.2-0.1,0.3c0,0.1-0.1,0.2-0.1,0.3c0,0.3,0.1,0.6,0.2,0.7 c0.1,0.2,0.2,0.3,0.2,0.4s-0.1,0.3-0.2,0.4c-0.1,0.1-0.2,0.1-0.3,0.1c-0.4,0-0.6-0.3-0.8-0.8c-0.4,0.3-0.7,0.5-1.1,0.5 c-0.7,0-1-0.3-1-1c0-0.5,0.2-1.2,0.8-2c0.6-0.8,1.1-1.3,1.6-1.3c0.4,0,0.6,0.2,0.8,0.5C80.8,42.3,80.9,42.6,80.9,43 M79.9,43.2V43 c0-0.1-0.1-0.2-0.1-0.3c-0.2,0.1-0.4,0.4-0.7,0.8c-0.3,0.5-0.5,0.8-0.6,1.1c0.2-0.1,0.5-0.3,0.7-0.7 C79.4,43.4,79.7,43.2,79.9,43.2"></path> <path class="st1" d="M81.3,41.9c0-0.4,0.4-0.7,1.3-0.9c0.3-0.1,0.9-0.1,1.8-0.2c0.2-0.6,0.5-1.3,0.7-2.2v-0.1 c0-0.1,0.1-0.2,0.2-0.4c0.1-0.1,0.2-0.2,0.4-0.2c0.4,0,0.6,0.2,0.6,0.6c0,0.3-0.2,1-0.6,2c0.8-0.1,1.3-0.1,1.5-0.1 c0.4,0,0.6,0.2,0.6,0.6c0,0.4-0.2,0.6-0.6,0.6c-0.4,0-1.1,0.1-2,0.1c-0.3,0.7-0.6,1.4-0.8,2.1c-0.4,1.2-0.7,1.8-0.7,2 c-0.1,0.4-0.2,0.6-0.6,0.6c-0.1,0-0.3-0.1-0.4-0.2c-0.1-0.1-0.2-0.2-0.2-0.4c0-0.3,0.5-1.7,1.5-4c-0.5,0.1-1.1,0.1-1.7,0.3 c-0.1,0.1-0.2,0.2-0.4,0.2c-0.1,0-0.3-0.1-0.4-0.2C81.4,42.2,81.3,42,81.3,41.9"></path> <path class="st1" d="M89.1,42.5c0,0.2-0.1,0.7-0.3,1.2c-0.2,0.6-0.3,1-0.3,1.2c0,0.1-0.1,0.3-0.2,0.4c-0.1,0.1-0.2,0.2-0.4,0.2 c-0.4,0-0.6-0.2-0.6-0.7c0-0.3,0.1-0.7,0.3-1.2c0.1-0.5,0.3-0.9,0.3-1.2c0.1-0.4,0.2-0.6,0.6-0.6c0.2,0,0.3,0.1,0.4,0.2 C89,42.3,89.1,42.4,89.1,42.5 M90.4,41.1c0,0.2-0.1,0.4-0.2,0.5c-0.2,0.1-0.3,0.2-0.5,0.2c-0.2,0-0.4-0.1-0.7-0.3 c-0.2-0.2-0.3-0.4-0.3-0.6c0-0.1,0.1-0.3,0.2-0.4c0.1-0.1,0.2-0.2,0.4-0.2c0.2,0,0.3,0.1,0.4,0.2h0.2c0.1,0,0.3,0.1,0.4,0.2 C90.3,40.8,90.4,40.9,90.4,41.1"></path> <path class="st1" d="M93,44.2c0,0.6-0.2,0.9-0.6,1.2s-0.8,0.4-1.3,0.4c-0.4,0-0.8-0.1-1.2-0.2c-0.4-0.2-0.7-0.5-0.7-0.8 c0-0.4,0.4-0.9,1.1-1.7c0.7-0.7,1.2-1.1,1.4-1.1c0.4,0,0.7,0.3,0.9,0.9C92.9,43.4,93,43.9,93,44.2 M91.9,44.2 c0-0.2-0.1-0.5-0.2-0.8L91,44c-0.2,0.2-0.4,0.5-0.6,0.7c0.2,0.1,0.4,0.1,0.7,0.1C91.6,44.8,91.9,44.6,91.9,44.2"></path> <path class="st1" d="M98.1,43.2c0,0.4-0.3,1.3-0.8,2.6c-0.1,0.2-0.2,0.4-0.6,0.4c-0.1,0-0.3-0.1-0.4-0.2c-0.1-0.1-0.2-0.2-0.2-0.4 c0-0.1,0.1-0.4,0.4-1.1c0.2-0.6,0.4-1,0.4-1.2c-0.6,0.2-1.4,0.8-2.6,1.8c-0.1,0.1-0.2,0.1-0.4,0.1s-0.3-0.1-0.4-0.2 c-0.1-0.1-0.2-0.2-0.2-0.4c0-0.1,0.2-0.6,0.6-1.3c0.4-0.8,0.7-1.3,0.8-1.4c0.1-0.1,0.2-0.2,0.4-0.2c0.1,0,0.3,0.1,0.4,0.2 c0.1,0.1,0.2,0.2,0.2,0.4c0,0.1-0.1,0.2-0.1,0.3c0.7-0.4,1.2-0.7,1.5-0.7C97.8,42.3,98.1,42.5,98.1,43.2"></path> </g> </g> </svg> 