<?xml version="1.0" encoding="UTF-8"?> <svg xmlns="http://www.w3.org/2000/svg" xmlns:xlink="http://www.w3.org/1999/xlink" version="1.1" id="Layer_1" x="0px" y="0px" viewBox="0 0 120 60" style="enable-background:new 0 0 120 60;" xml:space="preserve"> <style type="text/css"> .st0{fill:#00529C;} </style> <g id="Blue_Bar"> </g> <g id="Brother_logo"> <g> <g> <g> <path class="st0" d="M21.1,33.4c4.5,0,7.8-2.9,8.6-6.9v6.4h4.1v-8c0-0.4,0-0.8,0-1.1c0.1-2.4,1.7-3.9,4.2-3.9 c-0.9,1.4-1.4,3-1.4,4.8c0,4.9,3.9,8.8,8.8,8.8c4.3,0,7.8-3.1,8.6-7.1v0c0,4.2,3.4,7.1,7.5,7.1c1.7,0,3.2-0.7,4.4-1.9v1.5h4.1 v-8.8c0-0.2,0-0.3,0-0.4c0.1-2.8,1.7-4,3.5-4c1.8,0,3.3,1.2,3.4,4c0,0.2,0,0.4,0,0.7v8.6h4.2v-6.5c0.8,4.2,4.3,7,8.6,7 c4.8,0,7.6-3.1,8.3-6.3h-4c-0.4,1.2-1.8,2.9-4.3,2.9c-2.2,0-4.1-1.5-4.6-4h13.4v7h4.1v-8c0-0.4,0-0.8,0-1.1 c0.1-2.5,1.7-3.9,4.3-3.9h0.5v-3.9h-0.5c-5.5,0-8.4,3.1-8.5,7c-0.8-4.3-4.5-7.1-8.8-7.1c-4.2,0-7.8,2.8-8.6,7.1 c0-3.8-3-7.1-6.8-7.1c-1.7,0-3.1,0.6-4.3,1.8V12H66v12.3c0,0.4,0,0.7-0.1,1.3c-0.2,2.6-2,3.8-3.9,3.8c-1.9,0-3.7-0.9-3.8-3.8 c0-0.5,0-0.7,0-1.1V20h6.4v-3.9h-6.4V12h-4.2v10.9c-0.8-4.1-4.4-7.1-8.7-7.1c-2.8,0-5.2,1.3-6.8,3.2v-3.1h-0.5 c-5.4,0-8.3,3-8.5,6.8c-0.8-3.9-4-6.8-8.1-6.8c-2.2,0-3.8,0.8-5.1,2.1v-6h-4v10.4c0,0.8,0,1.5,0,2.2 C12.5,29.4,15.9,33.4,21.1,33.4z M89.9,19.3c2.6,0,4.2,2.1,4.5,3.4h-8.9C86.1,20.6,87.8,19.3,89.9,19.3z M45.5,19.8 c2.7,0,4.8,2.1,4.8,4.8s-2.1,4.8-4.8,4.8c-2.7,0-4.8-2.1-4.8-4.8C40.7,21.9,42.7,19.8,45.5,19.8z M21.1,19.8 c2.7,0,4.8,2.1,4.8,4.8s-2.1,4.8-4.8,4.8s-4.8-2.1-4.8-4.8C16.3,21.9,18.4,19.8,21.1,19.8z"></path> </g> </g> <g> <path class="st0" d="M33,42.8c0,0.1,0,0.3-0.1,0.4c-0.2,0.6-0.7,1.1-1.6,1.1c-0.6,0-1.1-0.4-1.1-1.1c0-1.3,1.5-1.5,2.7-1.5 C33,41.7,33,42.8,33,42.8z M34.1,41.1c0-1.3-0.5-2.6-2.5-2.6c-0.8,0-1.6,0.2-2.1,0.6l0.3,0.8c0.5-0.3,1.1-0.5,1.7-0.5 c1.3,0,1.5,1,1.5,1.5v0.1c-2.5,0-3.9,0.8-3.9,2.4c0,0.9,0.7,1.9,2,1.9c0.9,0,1.6-0.5,2-1h0l0.1,0.8h1.1c-0.1-0.4-0.1-1-0.1-1.6 C34.1,43.5,34.1,41.1,34.1,41.1z"></path> <path class="st0" d="M37.3,36.9v1.7H39v0.9h-1.7v3.5c0,1,0.4,1.3,0.9,1.3c0.3,0,0.4,0,0.7-0.1l0.1,0.9c-0.2,0.1-0.6,0.2-1,0.2 c-1,0-1.7-0.7-1.7-2v-3.7h-1v-0.9h1v-1.3L37.3,36.9z"></path> <path class="st0" d="M43.7,38.5l1.4,3.8c0.2,0.4,0.3,0.9,0.4,1.3h0c0.1-0.4,0.3-0.8,0.4-1.3l1.3-3.8h1.2l-1.8,4.6 c-0.8,2.2-1.4,3.4-2.2,4.1c-0.6,0.5-1.2,0.7-1.4,0.8l-0.3-1c0.3-0.1,0.7-0.3,1-0.6c0.3-0.3,0.7-0.7,1-1.3 c0.1-0.1,0.1-0.2,0.1-0.3c0-0.1,0-0.2-0.1-0.3l-2.4-6H43.7z"></path> <path class="st0" d="M51.9,44.3c-1.1,0-1.9-1.1-1.9-2.5c0-1.2,0.6-2.5,2-2.5c1.4,0,1.9,1.4,1.9,2.5C53.9,43.3,53,44.3,51.9,44.3 L51.9,44.3L51.9,44.3z M51.9,45.2c1.5,0,3.2-1,3.2-3.5c0-2-1.3-3.3-3.1-3.3c-1.8,0-3.2,1.3-3.2,3.4 C48.7,43.9,50.1,45.2,51.9,45.2L51.9,45.2L51.9,45.2z"></path> <path class="st0" d="M61.6,43.3c0,0.7,0,1.3,0.1,1.8h-1L60.6,44h0c-0.3,0.5-1,1.2-2.1,1.2c-1,0-2.2-0.6-2.2-2.8v-3.8h1.2v3.6 c0,1.3,0.4,2.1,1.5,2.1c0.8,0,1.3-0.6,1.6-1.1c0.1-0.2,0.1-0.4,0.1-0.6v-4h1.2L61.6,43.3L61.6,43.3z"></path> <path class="st0" d="M63.5,40.6c0-0.8,0-1.4-0.1-2h1.1l0.1,1.3h0c0.3-0.9,1.1-1.4,2-1.4c0.1,0,0.2,0,0.4,0v1.1 c-0.1,0-0.3,0-0.5,0c-0.9,0-1.6,0.6-1.7,1.5c0,0.2,0,0.4,0,0.6V45h-1.2L63.5,40.6L63.5,40.6z"></path> <path class="st0" d="M69.5,43.9c0.5,0.2,1.2,0.4,1.8,0.4c0.9,0,1.5-0.4,1.5-1c0-0.5-0.3-0.8-1.5-1.2c-1.3-0.5-1.8-1-1.8-1.8 c0-1,0.7-1.9,2.4-1.9c0.7,0,1.4,0.2,1.8,0.4l-0.3,0.8c-0.4-0.2-0.9-0.3-1.5-0.3c-0.8,0-1.3,0.5-1.3,0.9c0,0.5,0.2,0.6,1.5,1.1 c1.3,0.5,1.9,1.1,1.9,2c0,1.2-0.9,2-2.6,2c-0.8,0-1.6-0.2-2.1-0.4L69.5,43.9z"></path> <path class="st0" d="M75.2,45v-6.5h1.2V45H75.2z M75.8,37.4c-0.4,0-0.7-0.4-0.7-0.8s0.3-0.7,0.8-0.7c0.5,0,0.7,0.3,0.7,0.7 S76.3,37.4,75.8,37.4L75.8,37.4z"></path> <path class="st0" d="M82.6,42.3c0,0.2,0,0.4-0.1,0.5c-0.2,0.9-0.9,1.4-1.7,1.4c-1.3,0-1.9-1.1-1.9-2.4c0-1.4,0.7-2.5,1.9-2.5 c0.9,0,1.5,0.6,1.7,1.4c0,0.2,0.1,0.4,0.1,0.5L82.6,42.3L82.6,42.3z M82.6,35.9v3.5h0c-0.3-0.5-1-1-2-1c-1.6,0-2.9,1.3-2.9,3.5 c0,2,1.2,3.3,2.8,3.3c1.1,0,1.8-0.5,2.2-1.3h0l0.1,1.1h1c0-0.4-0.1-1.1-0.1-1.7v-7.5H82.6z"></path> <path class="st0" d="M85.9,41.2c0.1-0.8,0.6-1.9,1.8-1.9c1.3,0,1.6,1.2,1.6,1.9H85.9z M90.5,42c0-0.1,0-0.3,0-0.6 c0-1.2-0.5-3.1-2.7-3.1c-1.9,0-3.1,1.5-3.1,3.5c0,1.9,1.2,3.3,3.2,3.3c0.9,0,1.6-0.1,2.2-0.4l-0.2-0.8c-0.4,0.2-1,0.3-1.8,0.3 c-1.2,0-2.2-0.6-2.2-2.2L90.5,42L90.5,42z"></path> </g> </g> </g> </svg> 