<?xml version="1.0" encoding="UTF-8"?> <svg xmlns="http://www.w3.org/2000/svg" xmlns:xlink="http://www.w3.org/1999/xlink" version="1.1" id="Warstwa_1" x="0px" y="0px" viewBox="0 0 120 60" style="enable-background:new 0 0 120 60;" xml:space="preserve"> <g> <path d="M41.5,23.4c-1.3,0.3-2.1,0.6-2.6,0.8l0,0l0,0c-0.7,0.5-1.1,1.2-1.1,2c0,0.8,0.3,1.5,0.9,2c0.6,0.6,1.3,0.8,2.2,0.8 c0.9,0,1.8-0.3,2.6-0.9c0.6-0.5,1.1-1.1,1.3-1.8c0.1-0.4,0.2-1.2,0.2-2.3v-1.7l-0.8,0.3C43.5,23,42.7,23.2,41.5,23.4 M43.7,24.2 c0,1.3-0.1,1.8-0.1,2c-0.1,0.5-0.4,0.8-0.8,1.2c-0.6,0.4-1.3,0.7-1.9,0.7c-0.6,0-1-0.2-1.3-0.5c-0.4-0.3-0.5-0.7-0.5-1.2 c0-0.4,0.2-0.8,0.6-1.1c0.2-0.1,0.7-0.4,2.2-0.7C42.5,24.4,43.2,24.3,43.7,24.2L43.7,24.2L43.7,24.2z M96.7,14.1l-0.1,0.4 l-3.3,10.2l-3.4-10.2l-0.1-0.4h-5.7c-0.7-0.3-1.4-0.4-2.1-0.4c-0.8,0-1.6,0.2-2.2,0.6c-0.3,0.2-0.6,0.5-1,0.9v-1.1h-5.3v1.8 c-0.4-0.6-0.9-1-1.5-1.4c-0.9-0.5-2.1-0.8-3.4-0.8c-1.1,0-2.1,0.2-3,0.7c-0.7,0.4-1.4,0.9-2,1.6c-0.5-0.7-1.1-1.2-1.7-1.5 c-0.9-0.5-1.9-0.7-3.1-0.7c-1.7,0-3.3,0.6-4.6,1.8v-1.4h-5.2v3.1c-0.1-0.3-0.2-0.5-0.3-0.7c-0.4-0.8-1.2-1.5-2.3-2 c-1.1-0.5-2.6-0.8-4.7-0.8c-2.3,0-4,0.4-5.2,1.3c-1.1,0.7-1.8,1.8-2.3,3.3c-0.4-1.2-1.1-2.2-1.8-2.9c-1.5-1.4-3.4-2-5.7-2h0 c-0.1,0-0.2,0-0.3,0c-2.6,0.1-4.8,1-6.3,2.8c-1.6,1.8-2.4,4.2-2.3,7.3c0.1,2.9,0.9,5.3,2.5,7c1.6,1.7,3.7,2.5,6.2,2.5c0,0,0,0,0,0 c0.1,0,0.2,0,0.3,0c2,0,3.7-0.6,5-1.6c0.8-0.7,1.5-1.5,2-2.6c0.3,0.8,0.7,1.5,1.4,2.1c1.1,1,2.6,1.6,4.5,1.6c1.1,0,2.1-0.2,3-0.6 c0.7-0.3,1.3-0.7,1.9-1.1c0.1,0.4,0.2,0.7,0.3,1l0.1,0.4h9.6v-8.7c0-1.5,0.1-2.6,0.3-3.2c0.2-0.6,0.5-1,0.9-1.3 c0.4-0.3,0.9-0.5,1.5-0.5c0.4,0,0.8,0.1,1,0.2c0.2,0.2,0.4,0.4,0.5,0.8c0.1,0.2,0.2,0.9,0.2,3v9.7h5.6v-8.6c0-1.5,0.1-2.6,0.3-3.3 c0.2-0.6,0.5-1.1,0.9-1.4c0.4-0.3,0.9-0.5,1.4-0.5c0.6,0,1.1,0.2,1.4,0.7c0.1,0.2,0.4,0.9,0.4,2.9v10.1h10v-5.7 c0-2.8,0.1-4.6,0.3-5.4c0.2-0.8,0.5-1.3,0.8-1.5c0.3-0.3,0.7-0.4,1.2-0.4c0.5,0,1.1,0.2,1.7,0.6l0.6,0.4l0.2-0.7l0.8-2.3l5.5,14.6 c-0.2,0.8-0.6,1.4-1,1.9c-0.4,0.5-1,0.7-1.8,0.7c-0.5,0-1.1-0.1-1.8-0.2l-0.8-0.2l0.1,0.8l0.4,3.5l0.1,0.4l0.4,0.1 c0.9,0.2,1.7,0.3,2.6,0.3s1.7-0.1,2.4-0.3s1.3-0.5,1.9-0.8c0.5-0.4,1-0.8,1.4-1.4c0.4-0.6,0.8-1.3,1.2-2.3v0v0l1.1-2.9l5.9-16 l0.3-0.8L96.7,14.1L96.7,14.1z M30.6,30.3c-1.1,0.9-2.5,1.3-4.3,1.4c-2.1,0-3.7-0.7-5.1-2.1C19.8,28.1,19,26,19,23.4 c-0.1-2.8,0.6-5,2-6.5c1.4-1.6,3.2-2.3,5.5-2.4c1.9,0,3.4,0.6,4.6,1.7c0.6,0.6,1.1,1.4,1.5,2.4l-2.1,0.5c-0.3-0.7-0.7-1.4-1.4-1.8 c-0.8-0.6-1.7-0.9-2.8-0.9c0,0-0.1,0-0.1,0c-0.1,0-0.1,0-0.2,0c-1.5,0-2.7,0.6-3.6,1.7c-0.9,1.1-1.3,2.7-1.3,5 c0,2.4,0.5,4.1,1.4,5.2c0.9,1.1,2.1,1.6,3.6,1.6c0,0,0,0,0,0c0.1,0,0.2,0,0.3,0c1.1,0,2-0.4,2.8-1.1c0.6-0.6,1.1-1.4,1.4-2.5 l2.1,0.6C32.3,28.4,31.6,29.6,30.6,30.3 M33.4,25.7l-2.9-0.9l0,0.1l-0.3-0.1l-0.6-0.2l-0.1,0.6c-0.3,1.2-0.7,2.1-1.2,2.6 c-0.6,0.5-1.2,0.8-2,0.8c-1,0-1.8-0.4-2.5-1.2c-0.7-0.8-1.1-2.3-1.1-4.4c0-2,0.3-3.4,1-4.2c0.7-0.8,1.5-1.2,2.6-1.3 c0.7,0,1.3,0.2,1.8,0.6c0.6,0.4,0.9,1,1.1,1.8l0.1,0.6l0.3-0.1l0,0.1l0.6-0.2l3.5-0.9l0.1,0l0.4,0.1l4,0.7l0.5,0.1l0.2-0.5 c0.2-0.7,0.5-1.1,0.8-1.3c0.3-0.2,0.8-0.4,1.5-0.4c1.3,0,1.8,0.3,2,0.4c0.3,0.2,0.4,0.7,0.4,1.4v0c-0.8,0.3-2.1,0.6-3.8,0.9 c-1.6,0.3-2.8,0.7-3.7,1.1c-0.9,0.4-1.6,1.1-2.1,1.9C33.8,24.5,33.5,25.1,33.4,25.7 M45.6,30.8c-0.1-0.2-0.2-0.5-0.3-0.9 c-0.1-0.2-0.1-0.4-0.2-0.6l-0.3-0.8l-0.6,0.6c-0.7,0.7-1.4,1.2-2.2,1.5c-0.8,0.3-1.6,0.5-2.5,0.5c-1.6,0-2.8-0.4-3.7-1.2 s-1.3-1.8-1.3-3.1c0-0.8,0.2-1.6,0.6-2.2c0.4-0.6,0.9-1.1,1.6-1.5c0.8-0.4,1.9-0.7,3.4-1c2.1-0.4,3.6-0.8,4.4-1.1l0.4-0.2V20 c0-1-0.3-1.8-0.8-2.3c-0.5-0.5-1.4-0.7-2.7-0.7c-0.9,0-1.6,0.2-2.2,0.6c-0.4,0.3-0.8,0.8-1.1,1.4l-2.9-0.5c0.4-1.2,1-2,1.9-2.6 c1-0.7,2.5-1.1,4.6-1.1c1.9,0,3.3,0.2,4.1,0.6c0.8,0.4,1.4,0.9,1.8,1.5c0.2,0.4,0.5,1.4,0.5,3.7c0,0-0.1,5.1-0.1,5.1 c0,1.5,0.1,2.6,0.2,3.4c0.1,0.5,0.3,1,0.5,1.5L45.6,30.8L45.6,30.8z M73.3,30.8h-3.2v-8.9c0-1.8-0.2-2.9-0.5-3.5 c-0.5-0.8-1.3-1.2-2.4-1.2c-0.7,0-1.4,0.2-2.1,0.7c-0.6,0.4-1.1,1.1-1.4,2c-0.3,0.8-0.4,2-0.4,3.6v7.4h-3.2v-8.5 c0-2.3-0.2-3-0.3-3.3c-0.2-0.6-0.5-1-0.9-1.3c-0.4-0.3-1-0.5-1.7-0.5c-0.8,0-1.5,0.2-2.2,0.7c-0.6,0.4-1.1,1.1-1.4,1.9 c-0.3,0.8-0.4,1.9-0.4,3.6v7.5H50V15.3h2.9v3.3l1-1.3c1.3-1.6,2.9-2.4,4.7-2.4c1,0,1.8,0.2,2.5,0.6c0.7,0.4,1.3,1,1.7,1.8l0.4,0.7 l0.5-0.7c0.7-0.8,1.4-1.4,2.2-1.8c0.8-0.4,1.6-0.6,2.4-0.6c1.1,0,2.1,0.2,2.8,0.7c0.7,0.4,1.3,1.1,1.7,1.9c0.3,0.6,0.4,1.7,0.4,3.2 L73.3,30.8L73.3,30.8z M83,18.1c-0.6-0.3-1.2-0.5-1.7-0.5c-0.8,0-1.4,0.2-1.9,0.6c-0.5,0.4-0.9,1.1-1.2,2.1 c-0.3,0.9-0.4,2.8-0.4,5.7v4.6h-3.2V15.3h2.9v3.8l1.1-1.7c0.8-1.3,1.4-1.8,1.7-2c0.5-0.3,1-0.4,1.6-0.4c0.8,0,1.5,0.2,2.2,0.5 L83,18.1z M95.3,30.5c0,0-1,2.7-1.1,2.9c-0.4,0.9-0.7,1.6-1,2.1c-0.3,0.5-0.7,0.8-1.1,1.1c-0.4,0.3-0.9,0.5-1.5,0.7 c-0.6,0.2-1.3,0.3-2.1,0.3c-0.7,0-1.3-0.1-2-0.2l-0.3-2.3c0.4,0.1,0.8,0.1,1.2,0.1c1.2,0,2.1-0.4,2.7-1.1c0.5-0.7,1-1.5,1.2-2.5 l0.1-0.2l-0.1-0.2l-6.1-15.9h3.4l3.9,11.4l0.6,1.7l0.5-1.7l3.8-11.4h3.3L95.3,30.5z"></path> <g> <path d="M37.2,46.5l0.6-0.6h0.1l0.2,0c0.3,0,0.6-0.1,0.7-0.3c0.2-0.2,0.3-0.7,0.4-1.3l0.7-3.5c-0.6,0-1,0.2-1.4,0.5 c-0.4,0.3-0.5,0.7-0.5,1.2v0.1l-0.8,0.4c0.1-0.9,0.4-1.5,1-1.9c0.6-0.4,1.5-0.6,2.7-0.6c0.9,0,1.5,0.1,1.9,0.3 c0.4,0.2,0.6,0.5,0.6,0.9c0,0.4-0.1,0.7-0.4,1.1c-0.3,0.4-0.6,0.6-1,0.8c-0.4,0.2-1,0.3-1.5,0.3h-0.1l0.2-0.3h0.1 c0.5,0,1-0.2,1.3-0.5c0.4-0.3,0.5-0.8,0.5-1.3c0-0.8-0.6-1.2-1.7-1.2L40.1,44c-0.2,0.8-0.6,1.5-1.4,2l1.6,0l-0.6,0.6L37.2,46.5z"></path> <path d="M44,46.6l0.3-1.3l0.4-2c0-0.2,0.1-0.4,0.1-0.5c0-0.2-0.1-0.4-0.3-0.4c-0.3,0-0.7,0.3-1.3,0.9l0.1-0.4c0.6-0.7,1.2-1,1.7-1 c0.4,0,0.6,0.2,0.6,0.7c0,0.2,0,0.4-0.1,0.7l-0.2,1h0.1c0.3-0.7,0.7-1.3,1.2-1.7c0.4-0.4,0.9-0.7,1.2-0.7c0.2,0,0.4,0,0.5,0.1 l-0.5,0.7c-0.2-0.1-0.3-0.2-0.4-0.2c-0.5,0-1.3,0.8-2.1,2.4l-0.3,1.5L44,46.6z"></path> <path d="M52,45.4L52,45.7c-0.9,0.6-1.6,0.9-2.2,0.9c-0.4,0-0.7-0.1-0.9-0.4c-0.2-0.3-0.4-0.6-0.4-1.1c0-0.8,0.3-1.5,0.9-2.2 c0.6-0.7,1.2-1,1.9-1c0.2,0,0.4,0.1,0.6,0.2c0.2,0.2,0.2,0.4,0.2,0.6c0,0.5-0.3,1-0.8,1.4c-0.5,0.4-1.2,0.6-1.9,0.6V45 c0,0.8,0.3,1.2,0.9,1.2C50.7,46.2,51.3,45.9,52,45.4z M49.3,44.5c0.6-0.1,1.1-0.2,1.4-0.5c0.3-0.3,0.5-0.6,0.5-1 c0-0.4-0.2-0.6-0.5-0.6c-0.3,0-0.6,0.2-1,0.7C49.5,43.5,49.3,44,49.3,44.5z"></path> <path d="M53.3,46.6l0.3-1.3l0.4-2c0.1-0.3,0.1-0.5,0.1-0.6c0-0.2-0.1-0.3-0.2-0.3c-0.3,0-0.7,0.3-1.2,0.9l0.1-0.4 c0.6-0.6,1.1-1,1.6-1c0.4,0,0.6,0.2,0.6,0.6c0,0.1,0,0.4-0.1,0.7l-0.2,1h0.1c0.4-0.7,0.7-1.3,1.2-1.7c0.4-0.4,0.8-0.6,1.2-0.6 c0.2,0,0.3,0.1,0.5,0.2c0.1,0.1,0.2,0.3,0.2,0.5c0,0.2,0,0.4-0.1,0.6l-0.2,1h0.1c0.3-0.7,0.7-1.3,1.1-1.7s0.8-0.7,1.1-0.7 c0.5,0,0.7,0.3,0.7,0.8c0,0.2,0,0.3-0.1,0.6l-0.4,2c-0.1,0.3-0.1,0.5-0.1,0.6c0,0.2,0.1,0.3,0.2,0.3c0.3,0,0.7-0.3,1.2-0.9 l-0.1,0.4c-0.6,0.6-1.1,1-1.6,1c-0.4,0-0.6-0.2-0.6-0.6c0-0.1,0-0.4,0.1-0.7l0.4-2c0-0.2,0.1-0.3,0.1-0.4c0-0.2-0.1-0.3-0.3-0.3 c-0.5,0-1.2,0.8-2.1,2.5l-0.3,1.5l-0.8,0.1l0.6-3.3c0-0.2,0.1-0.3,0.1-0.4c0-0.2-0.1-0.4-0.3-0.4c-0.2,0-0.5,0.2-0.9,0.7 c-0.4,0.5-0.8,1.1-1.2,1.8l-0.3,1.5L53.3,46.6z"></path> <path d="M64.5,45.3l-0.1,0.4c-0.6,0.6-1.1,1-1.6,1c-0.4,0-0.6-0.2-0.6-0.6c0-0.1,0-0.4,0.1-0.7l0.3-1.4c0.1-0.4,0.1-0.7,0.1-0.8 c0-0.2-0.1-0.3-0.3-0.3c-0.1,0-0.3,0.1-0.7,0.1l0.1-0.3l2-0.7l-0.3,1.3l-0.4,2c-0.1,0.3-0.1,0.5-0.1,0.6c0,0.2,0.1,0.3,0.2,0.3 C63.5,46.2,64,45.9,64.5,45.3z M63,41.2l0.3-0.6l1.2-0.8l-0.4,0.8L63,41.2z"></path> <path d="M68.4,44.3L68.4,44.3c-0.8,1.6-1.6,2.4-2.4,2.4c-0.4,0-0.7-0.3-0.7-0.8c0-0.2,0-0.3,0.1-0.6l0.4-2 c0.1-0.3,0.1-0.5,0.1-0.6c0-0.2-0.1-0.3-0.2-0.3c-0.3,0-0.7,0.3-1.2,0.9l0.1-0.4c0.6-0.6,1.1-1,1.6-1c0.4,0,0.6,0.2,0.6,0.6 c0,0.1,0,0.4-0.1,0.7l-0.4,2c0,0.2-0.1,0.3-0.1,0.4c0,0.2,0.1,0.3,0.2,0.3c0.2,0,0.5-0.3,0.9-0.7c0.4-0.5,0.8-1.1,1.2-1.7l0.3-1.5 l0.9-0.1l-0.3,1.3l-0.4,2c-0.1,0.3-0.1,0.5-0.1,0.6c0,0.2,0.1,0.3,0.2,0.3c0.3,0,0.7-0.3,1.2-0.9l-0.1,0.4c-0.6,0.6-1.2,1-1.6,1 c-0.4,0-0.6-0.2-0.6-0.6c0-0.1,0-0.4,0.1-0.7L68.4,44.3z"></path> <path d="M71,46.6l0.3-1.3l0.4-2c0.1-0.3,0.1-0.5,0.1-0.6c0-0.2-0.1-0.3-0.2-0.3c-0.3,0-0.7,0.3-1.2,0.9l0.1-0.4 c0.6-0.6,1.1-1,1.6-1c0.4,0,0.6,0.2,0.6,0.6c0,0.1,0,0.4-0.1,0.7l-0.2,1h0.1c0.4-0.7,0.7-1.3,1.2-1.7c0.4-0.4,0.8-0.6,1.2-0.6 c0.2,0,0.3,0.1,0.5,0.2c0.1,0.1,0.2,0.3,0.2,0.5c0,0.2,0,0.4-0.1,0.6l-0.2,1h0.1c0.3-0.7,0.7-1.3,1.1-1.7s0.8-0.7,1.1-0.7 c0.5,0,0.7,0.3,0.7,0.8c0,0.2,0,0.3-0.1,0.6l-0.4,2c-0.1,0.3-0.1,0.5-0.1,0.6c0,0.2,0.1,0.3,0.2,0.3c0.3,0,0.7-0.3,1.2-0.9 L79,45.7c-0.6,0.6-1.1,1-1.6,1c-0.4,0-0.6-0.2-0.6-0.6c0-0.1,0-0.4,0.1-0.7l0.4-2c0-0.2,0.1-0.3,0.1-0.4c0-0.2-0.1-0.3-0.3-0.3 c-0.5,0-1.2,0.8-2.1,2.5l-0.3,1.5l-0.8,0.1l0.6-3.3c0-0.2,0.1-0.3,0.1-0.4c0-0.2-0.1-0.4-0.3-0.4c-0.2,0-0.5,0.2-0.9,0.7 c-0.4,0.5-0.8,1.1-1.2,1.8l-0.3,1.5L71,46.6z"></path> </g> <g> <rect x="80.9" y="43.8" width="21.6" height="0.2"></rect> </g> <g> <rect x="17.5" y="43.8" width="18.4" height="0.2"></rect> </g> </g> </svg> 