<?xml version="1.0" encoding="UTF-8"?> <svg xmlns="http://www.w3.org/2000/svg" xmlns:xlink="http://www.w3.org/1999/xlink" version="1.1" id="Livello_1" x="0px" y="0px" viewBox="0 0 120 60" style="enable-background:new 0 0 120 60;" xml:space="preserve"> <style type="text/css"> .st0{fill:#00AEEF;} </style> <path class="st0" d="M85.1,27.9h-8.9l-4.8,10.5h8.8c7.1,0.1,9.9-2.7,10.9-4.8C92.2,31.3,91.2,27.9,85.1,27.9z M85.9,32.9 c-0.7,2.6-4.6,2.8-5.9,2.8h-1.6l2.3-5.2h1.6C83.8,30.6,86.5,30.8,85.9,32.9z M69.3,27.9l-2.5,5.7l-3.5-5.7h-6l-3.4,7.4l-1.7-7.5 h-5.4c0,0-0.8,0-1.4,0.3c-0.6,0.2-1,0.6-1,0.6l-5.1,4.4c-3.1,2.5-8.6,3.9-10.1,4c-7.3,0.3-8.8-4.7-8.3-7c1.3-6.1,10.7-7.5,15.7-7.5 c2.4,0,4.3,0.5,5.8,0.9l1.4-2.5l-1-0.2c-1.3-0.2-3.3-0.6-6.8-0.6c-14.1,0-21.3,3.9-23.5,9c-2.5,5.7,1.7,10.9,13.5,10.9 c2.1,0,6.3-0.2,10.3-1.6H40l2-1.7h5.9l0.2,1.8h6.4v-0.1H58l2.8-6l3.6,6H70l4.8-10.5H69.3z M44.2,34.4l3.2-3l0.3,2.9L44.2,34.4z M102.3,27.9l-4.4,4.4l-1.5-4.3H91l3.5,8L91,39.4h4.6c0,0,0.9-0.1,1.3-0.2c0.4-0.2,0.9-0.6,0.9-0.6l10.5-10.6L102.3,27.9z"></path> </svg> 