<?xml version="1.0" encoding="UTF-8"?> <svg xmlns="http://www.w3.org/2000/svg" xmlns:xlink="http://www.w3.org/1999/xlink" version="1.1" id="Layer_1" x="0px" y="0px" viewBox="0 0 120 60" style="enable-background:new 0 0 120 60;" xml:space="preserve"> <style type="text/css"> .st0{fill:#BF1920;} </style> <g> <path id="C" class="st0" d="M26.3,38.4c-4.6,0-8.4-3.8-8.4-8.4c0-4.7,3.8-8.4,8.4-8.4c1.6,0,3.2,0.5,4.5,1.3L26.3,30l8.4-4.8 c-0.9-1.5-2.2-2.7-3.8-3.7c-2-1.2-4.8-2-7.9-2c-4.4,0-8.3,1.6-10.5,4C11,25.3,10,27.6,10,30c0,2.4,1,4.7,2.6,6.5 c2.2,2.4,6,4,10.3,4c4.3,0,8.2-1.6,10.3-4c0.1-0.1,0.2-0.3,0.3-0.4l-0.3-1.2C31.7,37,29.2,38.4,26.3,38.4"></path> <path id="a" class="st0" d="M54.2,40l-3.5-13.2c-0.6-2.1-2.5-3.7-4.8-3.7c-0.6,0-1.2,0.1-1.7,0.3l-7.6,2.8h7.8l1.3,5 c-1.3-1.1-3-1.8-4.8-1.8c-3.7,0-6.6,2.5-6.6,5.5c0,3,3,5.5,6.6,5.5c2.6,0,5-1.3,6.4-3.3l0.8,2.9H54.2 M43.4,37.9 c-1.7,0-3.1-1.4-3.1-3.1c0-1.7,1.4-3.1,3.1-3.1s3.1,1.4,3.1,3.1C46.5,36.5,45.1,37.9,43.4,37.9z"></path> <path id="n1" class="st0" d="M68.5,23.1c-0.5,0-0.9,0.1-1.3,0.3l-4.9,2.3c-0.2-1.5-1.5-2.6-3-2.6c-0.5,0-0.9,0.1-1.3,0.3l-5.9,2.8 h4.2V40h6.1V27.7c0-0.8,0.7-1.5,1.5-1.5c0.8,0,1.5,0.7,1.5,1.5V40h6.1V26.2C71.6,24.5,70.2,23.1,68.5,23.1"></path> <path id="o" class="st0" d="M91.5,31.8c0,4.8-3.9,8.7-8.7,8.7c-4.8,0-8.7-3.9-8.7-8.7c0-4.8,3.9-8.7,8.7-8.7 C87.6,23.1,91.5,27,91.5,31.8 M83.2,25.7c-0.3-1-1.3-1.6-2.3-1.4c-1,0.3-1.6,1.3-1.4,2.3l3,11.1c0.3,1,1.3,1.6,2.3,1.4 c1-0.3,1.6-1.3,1.4-2.3L83.2,25.7L83.2,25.7z"></path> <path id="n2" class="st0" d="M106.9,23.1c-0.5,0-0.9,0.1-1.3,0.3l-4.9,2.3c-0.2-1.5-1.5-2.6-3-2.6c-0.5,0-0.9,0.1-1.3,0.3l-5.9,2.8 h4.2V40h6.1V27.7c0-0.8,0.7-1.5,1.5-1.5c0.8,0,1.5,0.7,1.5,1.5V40h6.1V26.2C110,24.5,108.6,23.1,106.9,23.1"></path> </g> </svg> 