<?xml version="1.0" encoding="UTF-8"?> <svg xmlns="http://www.w3.org/2000/svg" xmlns:xlink="http://www.w3.org/1999/xlink" version="1.1" id="Ebene_1" x="0px" y="0px" viewBox="0 0 120 60" style="enable-background:new 0 0 120 60;" xml:space="preserve"> <style type="text/css"> .st0{fill:#FFF870;} </style> <g> <rect x="11.2" y="11.8" class="st0" width="97.6" height="36.3"></rect> <g> <g> <path d="M84.6,33c0-0.6,0.1-1.1,0.1-1.9c0-1-0.2-1.5-1.1-1.7l0,0c1.7-0.2,2.6-1.3,2.6-2.8c0.1-2.1-1.4-2.6-3.4-2.6h-5.4L74.9,34 h2.9l2.1-8.1h2.1c0.8,0,1.5,0.2,1.5,1c0,1.1-1,1.5-2,1.5l-1.5,0l-0.5,1.9h1.2c1,0,1.4,0.5,1.4,1.4c0,0.7-0.1,1.2-0.1,1.7 c0,0.2,0,0.4,0.1,0.6h2.9C84.6,33.8,84.6,33.3,84.6,33z M94.9,23.9H92L85.2,34h3l4.7-7.7l0.4,3.7l-2.1,0L90,32l3.3,0l0.2,2.1h2.7 L94.9,23.9z M64.3,33c0-0.6,0.1-1.1,0.1-1.9c0-1-0.2-1.5-1.1-1.7l0,0c1.7-0.2,2.6-1.3,2.6-2.8c0.1-2.1-1.4-2.6-3.4-2.6h-5.4 L54.5,34h2.9l2.1-8.1h2.1c0.8,0,1.5,0.2,1.5,1c0,1.1-1,1.5-2,1.5l-1.5,0l-0.5,1.9h1.2c1,0,1.4,0.5,1.4,1.4c0,0.7-0.1,1.2-0.1,1.7 c0,0.2,0,0.4,0.1,0.6h2.9C64.2,33.8,64.2,33.3,64.3,33z M33.5,30.2l-3,0c-0.2,1-1.2,1.8-2.4,1.8c-1.7,0-2.1-1-2.1-2.2 c0-1.5,0.9-3.8,3.2-3.8c1.4,0,1.9,0.7,1.7,1.6l3,0c0.1-2.6-1.8-3.7-4.7-3.7c-3.8,0-6.1,2.6-6.2,5.8C23,33.3,25.8,34,27.6,34 C30.9,34,32.8,32.7,33.5,30.2z M74,30l0.5-2h-5l0.5-2l5.9,0l0.5-2.1l-8.8,0L65.1,34h8.8l0.5-2h-6l0.5-2H74z M53.6,33 c0-0.6,0.1-1.1,0.1-1.9c0-1-0.3-1.5-1.1-1.7l0,0c1.7-0.2,2.6-1.3,2.6-2.8c0.1-2.1-1.4-2.6-3.4-2.6h-5.4L43.8,34h2.9l2.1-8.1h2.1 c0.8,0,1.5,0.2,1.5,1c0,1.1-1,1.5-2,1.5l-1.5,0l-0.5,1.9h1.2c1,0,1.4,0.5,1.4,1.4c0,0.7-0.1,1.2-0.1,1.7c0,0.2,0,0.4,0.1,0.6h2.9 C53.5,33.8,53.5,33.3,53.6,33z M38.9,23.9L32.1,34h3l4.7-7.7l0.4,3.7l-2.1,0L37,32h3.3l0.2,2h2.7l-1.4-10.1H38.9z"></path> </g> </g> </g> </svg> 