<?xml version="1.0" encoding="UTF-8"?> <svg xmlns="http://www.w3.org/2000/svg" xmlns:xlink="http://www.w3.org/1999/xlink" version="1.1" id="Ebene_1" x="0px" y="0px" viewBox="0 0 120 60" style="enable-background:new 0 0 120 60;" xml:space="preserve"> <style type="text/css"> .st0{fill:#231F20;} .st1{fill:#FFFFFF;} </style> <g> <rect x="16.9" y="5" class="st0" width="86.2" height="50"></rect> <g> <path class="st1" d="M96.5,16.1h0.3l0.4,0.6h0.2L97,16.1l0.2-0.1l0.1-0.1l0.1-0.2c0-0.1,0-0.1,0-0.2c0-0.2,0-0.2-0.1-0.3 c-0.1-0.1-0.2-0.1-0.4-0.1h-0.5v1.4h0.2V16.1L96.5,16.1z M96.5,15.5h0.3h0.2H97l0.1,0.1v0.2c0,0.1,0,0.1,0,0.2L97,15.9h-0.2h-0.2 h-0.2V15.5L96.5,15.5z"></path> <path class="st1" d="M95.8,16.8c0.1,0.1,0.2,0.2,0.4,0.2c0.2,0.1,0.3,0.1,0.5,0.1c0.2,0,0.3,0,0.5-0.1c0.2-0.1,0.3-0.2,0.4-0.2 c0.1-0.1,0.2-0.2,0.2-0.4c0.1-0.2,0.1-0.3,0.1-0.5c0-0.2,0-0.3-0.1-0.5c-0.1-0.2-0.2-0.3-0.2-0.4s-0.2-0.2-0.4-0.2 c-0.2-0.1-0.3-0.1-0.5-0.1c-0.2,0-0.3,0-0.5,0.1c-0.2,0.1-0.3,0.2-0.4,0.2s-0.2,0.2-0.2,0.4c-0.1,0.2-0.1,0.3-0.1,0.5 c0,0.2,0,0.3,0.1,0.5C95.6,16.6,95.7,16.8,95.8,16.8z M95.8,15.6c0.1-0.2,0.2-0.2,0.2-0.3c0.1-0.1,0.2-0.2,0.3-0.2 c0.2-0.1,0.2-0.1,0.4-0.1c0.2,0,0.3,0,0.4,0.1c0.2,0.1,0.2,0.2,0.3,0.2s0.2,0.2,0.2,0.3c0.1,0.2,0.1,0.2,0.1,0.4 c0,0.2,0,0.3-0.1,0.4c-0.1,0.2-0.2,0.2-0.2,0.3c-0.1,0.1-0.2,0.2-0.3,0.2C96.9,17,96.8,17,96.7,17c-0.2,0-0.3,0-0.4-0.1 c-0.2-0.1-0.2-0.2-0.3-0.2c-0.1-0.1-0.2-0.2-0.2-0.3c-0.1-0.2-0.1-0.2-0.1-0.4C95.7,15.8,95.7,15.7,95.8,15.6z"></path> <path class="st1" d="M79.7,23.9c0,0.1,0,0.1,0,0.2c0.1,2.5,2.4,2.8,2.9,2.8c0.1,0,0.1,0,0.1,0l0,0h6.1h3c3.1,0,3-3,3-3v-6.1l0,0 v-0.1c-0.1-3-3-2.9-3-2.9l0,0h-6.1h-3c-3.1,0-3.1,2.5-3.1,3.1c0,0.3,0,4.4,0,5.8C79.7,23.7,79.7,23.8,79.7,23.9z M81.2,17.8 c0-1.5,1.5-1.5,1.5-1.5h3h6.1l0,0c0.2,0,0.9,0.1,1.3,0.8c0.1,0.2,0.2,0.5,0.2,0.5s0,0.1,0,0.2v6.1c0,1.5-1.5,1.5-1.5,1.5h-3h-6.1 c-1.5,0-1.5-1.5-1.5-1.5L81.2,17.8L81.2,17.8z"></path> <path class="st1" d="M28.2,26.9h12.2v-1.5H28.2c0,0-1.5,0-1.5-1.5v-6c0-1.5,1.5-1.5,1.5-1.5h12.2v-1.5H28.2c-3.1,0-3.1,2.5-3.1,3 l0,0v6.1C25.2,24.5,25.2,26.9,28.2,26.9z"></path> <path class="st1" d="M64.4,21.6c2.8,0,6.2,0,6.2,0h3.3c0,0,1.5,0,1.5,1.5v0.1v0.3v0.4c0,1.5-1.5,1.5-1.5,1.5H61.5v1.5h12.3 c3.1,0,3.1-2.4,3.1-3l0,0v-0.5v-0.4c0-0.5,0-3-3-3h-9.5c0,0-1.5,0-1.5-1.5v-0.8c0-1.5,1.5-1.5,1.5-1.5h11.9v-1.5H64.4 c-3.1,0-3,2.5-3,3.1v0.9v0.2C61.4,19.8,61.7,21.6,64.4,21.6z"></path> <path class="st1" d="M60,33.3c-21.3,0-38.6,0.2-38.6,0.3s17.3,0.3,38.6,0.3s38.6-0.2,38.6-0.3S81.3,33.3,60,33.3z"></path> <path class="st1" d="M43.3,23.8c0,3.2,3,3.1,3,3.1h6.5c0,0,2.8,0.2,4.1-2.9c0.1-0.2,0.1-0.2,0.1-0.2v3.1h1.5v-9.1 c0-3-3.1-3.1-3.1-3.1h-9c-3.1,0-3,2.5-3,3.1C43.3,18.2,43.3,22.8,43.3,23.8z M44.8,17.8c0-1.5,1.5-1.5,1.5-1.5h9.1 c1.5,0,1.5,1.5,1.5,1.5v1.1V21c0,1.8-2.2,4.5-4.8,4.5h-5.8c-1.5,0-1.5-1.5-1.5-1.5V17.8z"></path> <path class="st1" d="M27.1,39.3h-1.9v5.8h1.9c0.8,0,1.5-0.2,1.9-0.8c0.5-0.5,0.6-1.2,0.6-2.2c0-0.9-0.2-1.7-0.6-2.2 S27.9,39.4,27.1,39.3z M29,43.3c-0.1,0.3-0.2,0.5-0.4,0.8c-0.2,0.2-0.5,0.3-0.7,0.5c-0.3,0.1-0.6,0.2-1.1,0.2h-1.2v-4.8h1.2 c0.4,0,0.8,0.1,1.1,0.2s0.5,0.2,0.7,0.5c0.2,0.2,0.3,0.5,0.4,0.8s0.2,0.7,0.2,1.1C29.2,42.6,29.1,43,29,43.3z"></path> <polygon class="st1" points="94.3,44.2 94.3,44.2 91,39.3 90.4,39.3 90.4,45.1 91,45.1 91,40.2 91,40.2 94.3,45.1 94.8,45.1 94.8,39.3 94.3,39.3 "></polygon> <rect x="65.8" y="39.3" class="st1" width="0.5" height="5.8"></rect> <polygon class="st1" points="39.6,42.4 42.8,42.4 42.8,41.8 39.6,41.8 39.6,39.8 42.9,39.8 42.9,39.3 39.1,39.3 39.1,45.1 43,45.1 43,44.6 39.6,44.6 "></polygon> <path class="st1" d="M56,42.5c-0.2-0.2-0.3-0.2-0.5-0.3c-0.2-0.1-0.4-0.2-0.5-0.2l-1.4-0.4c-0.2,0-0.2-0.1-0.3-0.1 c-0.1-0.1-0.2-0.1-0.3-0.2c-0.1-0.1-0.2-0.2-0.2-0.2c-0.1-0.1-0.1-0.2-0.1-0.4c0-0.2,0.1-0.4,0.2-0.5s0.2-0.2,0.3-0.4 c0.2-0.1,0.3-0.2,0.5-0.2c0.2-0.1,0.4-0.1,0.5-0.1c0.2,0,0.4,0,0.5,0.1c0.2,0.1,0.3,0.2,0.5,0.2s0.2,0.2,0.3,0.4 c0.1,0.2,0.2,0.4,0.2,0.6h0.5c0-0.3-0.1-0.5-0.2-0.8c-0.1-0.2-0.2-0.4-0.5-0.5c-0.2-0.2-0.4-0.2-0.7-0.3c-0.2-0.1-0.5-0.1-0.8-0.1 c-0.4,0-0.7,0.1-1,0.2c-0.2,0.2-0.5,0.2-0.6,0.5c-0.2,0.2-0.2,0.3-0.3,0.5c-0.1,0.2-0.1,0.4-0.1,0.5c0,0.2,0,0.4,0.1,0.5 s0.2,0.3,0.3,0.4c0.2,0.1,0.2,0.2,0.4,0.2c0.2,0.1,0.3,0.2,0.5,0.2l1.2,0.3c0.2,0,0.2,0.1,0.4,0.2s0.2,0.2,0.4,0.2 c0.1,0.1,0.2,0.2,0.3,0.3c0.1,0.2,0.1,0.2,0.1,0.4c0,0.2-0.1,0.4-0.2,0.5c-0.1,0.2-0.2,0.3-0.4,0.4c-0.2,0.1-0.3,0.2-0.5,0.2 c-0.2,0.1-0.3,0.1-0.5,0.1c-0.2,0-0.5,0-0.7-0.1c-0.2-0.1-0.5-0.2-0.6-0.2c-0.2-0.2-0.3-0.3-0.4-0.5c-0.1-0.2-0.2-0.5-0.2-0.8 h-0.5c0,0.4,0,0.7,0.2,0.9c0.1,0.2,0.2,0.5,0.5,0.6c0.2,0.2,0.5,0.3,0.7,0.4c0.3,0.1,0.6,0.2,0.9,0.2s0.6,0,0.8-0.1 c0.2-0.1,0.5-0.2,0.6-0.2c0.2-0.1,0.3-0.2,0.4-0.3c0.1-0.2,0.2-0.2,0.2-0.4c0.1-0.2,0.1-0.2,0.1-0.3s0-0.2,0-0.2 c0-0.2,0-0.5-0.1-0.6C56.2,42.8,56.1,42.7,56,42.5z"></path> <path class="st1" d="M78.5,42.6h1.9c0,0.3,0,0.6-0.2,0.8c-0.1,0.2-0.2,0.5-0.4,0.7c-0.2,0.2-0.4,0.3-0.6,0.5 c-0.2,0.1-0.5,0.2-0.8,0.2c-0.4,0-0.7-0.1-1-0.2c-0.2-0.2-0.5-0.3-0.7-0.6c-0.2-0.2-0.3-0.5-0.4-0.8c-0.1-0.3-0.2-0.6-0.2-0.9 s0.1-0.6,0.2-0.9c0.1-0.3,0.2-0.5,0.4-0.8c0.2-0.2,0.4-0.5,0.7-0.6s0.6-0.2,1-0.2c0.3,0,0.5,0.1,0.7,0.2c0.2,0.1,0.4,0.2,0.5,0.3 c0.2,0.2,0.3,0.3,0.4,0.5c0.1,0.2,0.2,0.3,0.2,0.5h0.5c-0.1-0.3-0.2-0.6-0.3-0.8c-0.2-0.2-0.3-0.5-0.5-0.6 c-0.2-0.2-0.5-0.3-0.7-0.4c-0.2-0.1-0.5-0.2-0.8-0.2c-0.5,0-0.8,0.1-1.2,0.2s-0.6,0.4-0.8,0.7c-0.2,0.3-0.4,0.6-0.5,0.9 c-0.1,0.4-0.2,0.8-0.2,1.2s0.1,0.8,0.2,1.2c0.1,0.4,0.3,0.7,0.5,0.9c0.2,0.3,0.5,0.5,0.8,0.7c0.3,0.2,0.7,0.2,1.2,0.2 c0.2,0,0.4,0,0.6-0.1c0.2-0.1,0.4-0.1,0.5-0.2c0.2-0.1,0.3-0.2,0.5-0.4s0.2-0.3,0.4-0.5l0,0l0.1,1.1h0.4v-2.9h-2.3V42.6L78.5,42.6 z"></path> </g> </g> </svg> 