<?xml version="1.0" encoding="UTF-8"?> <svg xmlns="http://www.w3.org/2000/svg" xmlns:xlink="http://www.w3.org/1999/xlink" version="1.1" id="Layer_1" x="0px" y="0px" viewBox="0 0 120 60" style="enable-background:new 0 0 120 60;" xml:space="preserve"> <style type="text/css"> .st0{fill:#FDBA12;} </style> <rect x="28.9" y="7.3" class="st0" width="62.3" height="46.9"></rect> <rect x="28.9" y="7.3" class="st0" width="61.9" height="46.5"></rect> <g> <path d="M83.8,21.7c0,1.3-1,2.3-2.3,2.3c-1.3,0-2.3-1-2.3-2.3c0-1.3,1-2.3,2.3-2.3C82.8,19.3,83.8,20.4,83.8,21.7 M79.6,21.7 c0,1.1,0.9,2,2,2s2-0.9,2-2s-0.9-2-2-2C80.4,19.7,79.6,20.6,79.6,21.7 M81.2,23h-0.4v-2.7h1.1c0.5,0,0.7,0.3,0.7,0.7 c0,0.3-0.2,0.6-0.6,0.6l0,0c0.3,0,0.5,0.1,0.5,0.7c0,0.1,0,0.5,0.1,0.7h-0.4C82,22.8,82,22.5,82,22.1c0-0.3-0.3-0.3-0.4-0.3h-0.4 L81.2,23L81.2,23z M81.2,21.5h0.6c0.3,0,0.4-0.2,0.4-0.4c0-0.2-0.1-0.4-0.4-0.4h-0.6V21.5z"></path> <path d="M52,37.8c0.8-0.7,1-1.6,1-2.4v-3.3h-4.6v4.5c0,0.6-0.5,1.2-1.2,1.2c-0.6,0-1.1-0.5-1.1-1.2V24c0-0.6,0.5-1.2,1.1-1.2 c0.6,0,1.2,0.5,1.2,1.2v4.5H53v-4.7c0-2.6-1.7-4.7-5.8-4.7c-4.2,0-5.8,2.1-5.8,4.7V37c0,2.6,2,4.5,4.6,4.5h1.4L52,37.8"></path> <polygon points="70.2,38.3 70.2,23.8 66.9,23.8 66.9,19.5 78.4,19.5 78.4,23.8 75.2,23.8 75.2,41.5 73.8,41.5 "></polygon> <polygon points="72.2,41.5 60.9,32.1 49.3,41.5 "></polygon> <path d="M64.2,19.5h-6.4l-3.7,16.8l7-5.6l7.3,6.1L64.2,19.5z M59.8,29.6l1.2-6.3l1.2,6.3H59.8z"></path> </g> </svg> 