<?xml version="1.0" encoding="UTF-8"?> <svg xmlns="http://www.w3.org/2000/svg" xmlns:xlink="http://www.w3.org/1999/xlink" version="1.1" id="Capa_1" x="0px" y="0px" viewBox="0 0 120 60" style="enable-background:new 0 0 120 60;" xml:space="preserve"> <style type="text/css"> .st0{fill:#183E7C;} </style> <g> <g> <path class="st0" d="M92.8,19.6c-2.7,1.9-4.2,4.8-4.3,8.4c-0.1,4,3.8,6.6,7.1,7.7l0.2-0.4c-2.6-2.3-3.2-4.4-3.3-7.3 c-0.2-3.1,1.5-5.7,4.4-6.9c2.9-1.2,6.3-0.7,8.1,1.3c1.4,1.5,1.4,4.3,1,6.2l-0.1,0.6l0.5-0.4c3.9-3.1,3.8-7.9,3.3-10.5 c0,0,0-0.1,0-0.1l0-0.2l-0.2,0C103.3,16.1,96.8,16.7,92.8,19.6z"></path> <path class="st0" d="M95.7,38.2c-2.9-0.7-6.7-3-7.9-5.9l-0.4,0.1c0.7,3.5,3.1,8,6.7,9.7c2.6,1.2,5.1,1.3,7.5,0.2 c3.8-1.8,6.8-6.5,8.4-13l-0.4-0.1C106.7,35.4,100.6,39.3,95.7,38.2z"></path> </g> <g> <path class="st0" d="M24.5,36.7v-1h3.6v1.1c0,4.6-4.1,5.2-8.9,5.2c-8.6,0-9.3-2.6-9.3-8.4c0-5.1,1.3-7.8,8.8-7.8 c4.8,0,9.1,0.4,9.1,5.1v0.7h-3.6v-0.8c0-2.4-1.6-2.5-5.2-2.5c-5.2,0-5.2,1.2-5.2,6c0,4.2,0.1,5.3,5.9,5.3 C23.5,39.5,24.5,39.2,24.5,36.7z"></path> <path class="st0" d="M55.3,25.9h7.8v2.5h-7.8v9.4c0,1.4,0.4,1.8,2.6,1.8c2.1,0,2.6-0.4,2.6-2.3v-1.4h3.5v1.4 c0,3.3-1.9,4.8-6.1,4.8c-4.8,0-6.1-1.1-6.1-4.9v-8.7H49v-2.5h2.7v-3.7h3.6L55.3,25.9L55.3,25.9z"></path> <path class="st0" d="M42.7,39.2c1.1-0.3,1.7-1,1.7-2.2c0-2.5-1.9-2.6-5.8-2.6c-3.7,0-4.8,0.2-4.8,2.4c0,2.6,1.2,2.8,4.8,2.8 C40.1,39.5,41.6,39.5,42.7,39.2z M38,42c-4.5,0-8-0.6-8-4.9c0-4.5,3.2-5.1,8.2-5.1c1.7,0,5.2,0,6.3,0v-1c0-2.5-1.6-2.8-5.1-2.8 c-1.2,0-5-0.2-5,1.8v0.8h-3.7v-0.6c0-4.3,4-4.5,8.4-4.5c5,0,9.1,0.3,9.1,5.3c0,0.1,0,3.4,0,5.6c0,5-4.1,5.4-9.1,5.3L38,42z"></path> <path class="st0" d="M77.9,39.2c1.1-0.3,1.7-1,1.7-2.2c0-2.5-1.9-2.6-5.8-2.6c-3.7,0-4.8,0.2-4.8,2.4c0,2.6,1.2,2.8,4.8,2.8 C75.3,39.5,76.8,39.5,77.9,39.2z M73.2,42c-4.5,0-8-0.6-8-4.9c0-4.5,3.2-5.1,8.2-5.1c1.7,0,5.2,0,6.3,0v-1c0-2.5-1.6-2.8-5.1-2.8 c-1.2,0-5-0.2-5,1.8v0.8h-3.7v-0.6c0-4.3,4-4.5,8.4-4.5c5,0,9.1,0.3,9.1,5.3c0,0.1,0,3.4,0,5.6c0,5-4.1,5.4-9.1,5.3L73.2,42z"></path> </g> </g> </svg> 