<?xml version="1.0" encoding="UTF-8"?> <svg xmlns="http://www.w3.org/2000/svg" xmlns:xlink="http://www.w3.org/1999/xlink" version="1.1" id="Layer_1" x="0px" y="0px" viewBox="0 0 120 60" style="enable-background:new 0 0 120 60;" xml:space="preserve"> <style type="text/css"> .st0{fill:#0095DA;} .st1{fill:#ED1C24;} .st2{fill:#FFCB05;} .st3{fill:#151011;} </style> <g> <path d="M15.1,28.8C15.1,28.8,15.1,28.8,15.1,28.8c-1.9,1.8-4.9,1.8-6.7,0c0,0,0,0,0,0c-1.9,1.9-1.9,8.6-1.9,8.6s6.8,0,8.6-1.9 c0,0,0,0,0,0C13.3,33.7,13.3,30.7,15.1,28.8"></path> <path class="st0" d="M15.1,28.8C15.1,28.8,15.2,28.8,15.1,28.8c1.9,1.8,4.9,1.8,6.7,0c0,0,0,0,0,0c1.9,1.9,1.9,8.6,1.9,8.6 s-6.8,0-8.6-1.9c0,0,0,0,0,0C17,33.7,17,30.7,15.1,28.8"></path> <path class="st1" d="M15.1,28.8C15.1,28.8,15.2,28.8,15.1,28.8c1.9-1.8,4.9-1.8,6.7,0c0,0,0,0,0,0c1.9-1.9,1.9-8.6,1.9-8.6 s-6.8,0-8.6,1.9c0,0,0,0,0,0C17,23.9,17,26.9,15.1,28.8"></path> <path class="st2" d="M15.1,28.8C15.1,28.8,15.1,28.8,15.1,28.8c-1.9-1.8-4.9-1.8-6.7,0c0,0,0,0,0,0c-1.9-1.9-1.9-8.6-1.9-8.6 s6.8,0,8.6,1.9c0,0,0,0,0,0C13.3,23.9,13.3,26.9,15.1,28.8"></path> <path d="M33.5,31.1c-0.5-0.7-0.6-1.6-0.6-2.3c0-1,0.3-1.9,0.8-2.5c0.5-0.6,1.3-1,2.2-1c0.8,0,1.5,0.2,2.1,0.5v-3.3l-0.2,0 c-0.5-0.1-1.1-0.4-2.4-0.4c-4.9,0-6.6,3.5-6.6,6.9c0,4,2.3,6.9,6.5,6.9c0.8,0,1.4-0.1,2.7-0.5v-3.4c-1.1,0.4-1.7,0.5-2.1,0.5 C34.7,32.4,33.9,31.8,33.5,31.1"></path> <path d="M44.7,32.3c-0.2,0.5-0.6,0.9-1.1,0.9h0c-0.5,0-0.9-0.4-1-0.9c-0.1-0.4-0.2-1-0.2-1.6c0-0.5,0.1-1.1,0.2-1.7 c0.1-0.5,0.6-0.9,1-0.9c0.5,0,0.9,0.4,1.1,0.9c0.1,0.5,0.2,1.1,0.2,1.6C44.9,31.2,44.8,31.9,44.7,32.3 M48.7,30.6 c0-3.2-1.9-5.2-5.1-5.2c-3.1,0-5.1,1.9-5.1,5.2c0,3.2,1.9,5.2,5.1,5.2C46.8,35.8,48.7,33.9,48.7,30.6"></path> <path d="M60.4,32.3c-0.2,0.5-0.6,0.9-1.1,0.9h0c-0.5,0-0.9-0.4-1-0.9c-0.1-0.4-0.2-1.1-0.2-1.6c0-0.5,0.1-1.2,0.2-1.6 c0.2-0.5,0.6-0.9,1-0.9c0.5,0,0.9,0.4,1.1,0.9c0.2,0.5,0.2,1.1,0.2,1.6C60.7,31.2,60.6,31.9,60.4,32.3 M64.4,30.6 c0-3.2-1.9-5.2-5.1-5.2c-3.1,0-5.1,1.9-5.1,5.2c0,3.2,1.9,5.2,5.1,5.2C62.5,35.8,64.4,33.9,64.4,30.6"></path> <rect x="49.6" y="22.1" width="3.8" height="13.5"></rect> <g> <path d="M69,27.9L69,27.9L69,27.9L68.9,28v-2.3h-3.6v9.9h3.8V32c0-0.9,0.2-1.6,0.6-2.1c0.4-0.5,1-0.7,1.6-0.7 c0.3,0,0.5,0.1,0.7,0.1v-3.9c-0.2,0-0.4-0.1-0.6-0.1C70.3,25.4,69.3,26.7,69,27.9"></path> <path d="M108.1,25.8l-1.4,6.2h-0.1l-1.7-6.2h-4l3.3,10l0,0l-0.1,0.3c-0.1,0.3-0.4,0.9-1.4,0.9c-0.4,0-0.8-0.1-1.2-0.2v2.5 c0.9,0.2,1.9,0.4,2.7,0.4c2.8,0,3.9-1.7,4.6-3.9l3-10.2C111.8,25.8,108.1,25.8,108.1,25.8z"></path> <path d="M96.9,31.9c0,1.2-0.7,1.7-1.3,1.7c-0.7,0-1.1-0.5-1.1-1.1c0-1.3,1.2-1.3,1.9-1.3c0.1,0,0.2,0,0.2,0h0.3V31.9z M95.8,25.6 c-1.2,0-2.8,0.2-4.2,0.6v2.4c1.6-0.7,3-0.7,3.1-0.7c0.9,0,2.2,0.2,2.2,1.3v0.4h-0.7h-0.1c-1.1,0-2.5,0-3.6,0.5c-1.1,0.4-2,1.3-2,3 c0,1.6,0.9,2.9,3.1,2.9c1,0,2.2-0.2,3.2-1.5h0.1v1.2h3.8v-6.3C100.7,26.4,98.2,25.6,95.8,25.6"></path> </g> <polygon points="87.1,22.1 85.5,31.3 85.3,31.3 84,22.1 79.6,22.1 78.5,31.1 78.4,31.1 76.6,22.1 72.3,22.1 75.3,35.6 80.6,35.6 81.7,27.4 81.8,27.4 82.9,35.6 88.1,35.6 91.1,22.1 "></polygon> <g> <g> <path class="st3" d="M111.3,33.6c0.1,0,0.3,0,0.5,0c0.3,0,0.4,0,0.5,0.1c0.1,0.1,0.2,0.2,0.2,0.4c0,0.2-0.2,0.4-0.3,0.4v0 c0.1,0,0.2,0.2,0.2,0.3c0.1,0.2,0.1,0.4,0.1,0.5h-0.3c0-0.1-0.1-0.2-0.1-0.4c-0.1-0.2-0.1-0.3-0.3-0.3h-0.2v0.7h-0.3L111.3,33.6 L111.3,33.6z M111.6,34.3h0.2c0.2,0,0.4-0.1,0.4-0.3c0-0.2-0.1-0.3-0.3-0.3c-0.1,0-0.2,0-0.2,0V34.3z"></path> </g> <g> <path class="st3" d="M111.9,36.1c-0.9,0-1.6-0.7-1.6-1.6c0-0.9,0.7-1.6,1.6-1.6c0.9,0,1.6,0.7,1.6,1.6 C113.5,35.3,112.8,36.1,111.9,36.1z M111.9,33.1c-0.8,0-1.4,0.6-1.4,1.4c0,0.8,0.6,1.4,1.4,1.4c0.8,0,1.4-0.6,1.4-1.4 C113.3,33.7,112.6,33.1,111.9,33.1z"></path> </g> </g> </g> </svg> 