<?xml version="1.0" encoding="UTF-8"?> <svg xmlns="http://www.w3.org/2000/svg" xmlns:xlink="http://www.w3.org/1999/xlink" version="1.1" id="Layer_1" x="0px" y="0px" viewBox="0 0 120 60" style="enable-background:new 0 0 120 60;" xml:space="preserve"> <style type="text/css"> .st0{clip-path:url(#SVGID_00000054263882873541888270000014200689366573830315_);} .st1{clip-path:url(#SVGID_00000087384588530221615900000011851335536230014863_);} .st2{clip-path:url(#SVGID_00000111176095710641965210000000334008886608970680_);} .st3{clip-path:url(#SVGID_00000140005800082244449440000004735642366729073065_);} </style> <g> <g> <defs> <rect id="SVGID_1_" x="31.3" y="7.1" width="57.5" height="45.8"></rect> </defs> <clipPath id="SVGID_00000125581027494435669530000011414829767008687542_"> <use xlink:href="#SVGID_1_" style="overflow:visible;"></use> </clipPath> <path style="clip-path:url(#SVGID_00000125581027494435669530000011414829767008687542_);" d="M81.8,17.2c0.6,0,1.2-0.2,1.7-0.7 c0.5-0.5,0.7-1,0.7-1.7s-0.2-1.2-0.7-1.7c-0.4-0.4-1-0.7-1.7-0.7v0.2c0.6,0,1.1,0.2,1.5,0.6s0.6,0.9,0.6,1.5c0,1.2-1,2.1-2.2,2.1 L81.8,17.2L81.8,17.2z M81.8,15.1v-0.3H82c0.2,0,0.3,0,0.4-0.1c0.1-0.1,0.1-0.2,0.1-0.4c0-0.2-0.1-0.3-0.2-0.4 c-0.1,0-0.2-0.1-0.3-0.1h-0.3v-0.3h0.3c0.2,0,0.4,0,0.5,0.1c0.2,0.1,0.4,0.3,0.4,0.6c0,0.2,0,0.3-0.1,0.4 c-0.1,0.1-0.2,0.2-0.3,0.2c0.1,0,0.2,0.1,0.2,0.2c0.1,0.1,0.1,0.2,0.1,0.3l0,0.4c0,0.1,0,0.2,0,0.2c0,0.1,0.1,0.1,0.1,0.2v0.1 h-0.4c0,0,0-0.1,0-0.1c0,0,0-0.1,0-0.2l0-0.4c0-0.2-0.1-0.3-0.2-0.3c-0.1,0-0.2-0.1-0.3-0.1L81.8,15.1L81.8,15.1z M81.8,12.5 c-1.3,0-2.4,1.1-2.4,2.4c0,0.6,0.2,1.2,0.7,1.7c0.4,0.4,1,0.7,1.7,0.7V17c-0.6,0-1.1-0.2-1.5-0.6c-0.4-0.4-0.6-0.9-0.6-1.5 c0-0.6,0.2-1.1,0.6-1.5c0.4-0.4,0.9-0.6,1.5-0.6V12.5z M81.8,13.6v0.3h-0.6v0.9h0.6v0.3h-0.6v1.1h-0.4v-2.6H81.8z"></path> </g> <g> <defs> <rect id="SVGID_00000020377587841459539730000013117685150601943453_" x="31.3" y="7.1" width="57.5" height="45.8"></rect> </defs> <clipPath id="SVGID_00000013915109279231023120000001658672508097961885_"> <use xlink:href="#SVGID_00000020377587841459539730000013117685150601943453_" style="overflow:visible;"></use> </clipPath> <path style="clip-path:url(#SVGID_00000013915109279231023120000001658672508097961885_);" d="M78.5,16.8c-0.9-0.4-1.9-0.9-7.6-3 c-6.5-2.4-9.8-3-11.8-3c-2,0-5.3,0.6-11.8,3c-5.7,2.1-6.7,2.6-7.6,3c-4.4,2-5.7,4.1-5.7,9.3v9.6c0,4.9,0.7,6.3,5.2,8.2 c1.5,0.7,3.9,1.8,9.9,4.1c2.6,1,6.6,2.3,10,2.3c3.5,0,7.4-1.3,10.1-2.3c6-2.3,8.3-3.4,9.9-4.1c4.5-1.9,5.2-3.4,5.2-8.2v-9.6 C84.2,20.9,82.9,18.8,78.5,16.8 M82.8,36.1c0,3.7-0.9,5.1-3.9,6.5c-2.6,1.1-2.8,1.3-8.1,3.3c-3.3,1.3-7.8,3-11.7,3 c-3.9,0-8.4-1.7-11.7-3c-5.3-2.1-5.5-2.2-8.1-3.3c-3.1-1.4-3.9-2.8-3.9-6.5V25.5c0-4.8,2.2-6.4,5.2-7.7c1.1-0.5,1.5-0.7,7-2.8 c4.5-1.7,8.6-2.9,11.5-2.9c2.9,0,7,1.2,11.5,2.9c5.5,2,5.9,2.3,7,2.8c3.1,1.3,5.2,2.9,5.2,7.7L82.8,36.1L82.8,36.1z"></path> </g> <g> <defs> <rect id="SVGID_00000109732608368574658220000008075769979001755031_" x="31.3" y="7.1" width="57.5" height="45.8"></rect> </defs> <clipPath id="SVGID_00000149350338154764607860000012346963190055027880_"> <use xlink:href="#SVGID_00000109732608368574658220000008075769979001755031_" style="overflow:visible;"></use> </clipPath> <path style="clip-path:url(#SVGID_00000149350338154764607860000012346963190055027880_);" d="M47.7,17c-0.1,0-0.1,0-0.1,0 c-2.8,0.6-3.6,3.7-3.5,7.2c0,3.7,1.6,5.9,3.7,6c0.1,0,0.1,0,0.2,0c2.9,0,3.9-3.5,3.7-7.2C51.5,19.3,50,16.6,47.7,17 M47.8,27.4 C47.8,27.4,47.7,27.4,47.8,27.4c-1.1-0.1-1.5-2.1-1.5-3.6c0-1.3,0.3-3.8,1.2-4.2c0.1,0,0.2-0.1,0.2-0.1c0.9-0.1,1.3,2.2,1.4,3.8 C49.2,25.4,48.8,27.4,47.8,27.4 M68.2,30h5.9v-2.5l-3.4-0.2v-2.6l2.7,0.4v-2.5L70.7,22v-2.2l3.4,0.9v-2.2l-5.9-2.1V30z M81,28.7 c0-1.8-0.1-2.8-1.2-3.6c0.5-0.1,1.1-0.7,1.2-1.6c0.1-1.5-0.3-2.7-2.6-3.5L78,19.9l-3.2-1.1V30H77v-4.3c0,0,0.2,0,0.6,0.1 c0.2,0,0.4,0.1,0.5,0.2c0.7,0.4,1.1,1.1,1.1,2.5c0,1,0,1.6,0.4,1.6h1.7v-0.2C81,29.8,81,29.4,81,28.7 M78.1,23.7 C78.1,23.7,78.1,23.6,78.1,23.7c-0.5-0.1-1.2-0.2-1.2-0.2v-1.8c0,0,0.4,0.1,1.1,0.3c0,0,0,0,0.1,0c0.7,0.2,1,0.7,1,1.3 C79.2,23.8,78.6,23.8,78.1,23.7 M64.1,15l-2.8-1V30h6v-3l-3.1-0.2V15L64.1,15z M56.3,14.2c-0.1,0-0.2,0-0.2,0.1 c-2.5,0.6-4,4.1-3.9,8.5c0.1,4.6,1.8,7.3,4.1,7.4c0.1,0,0.1,0,0.2,0c2.3,0,4.3-3,4.2-8.5C60.5,17.4,59.1,13.8,56.3,14.2 M56.4,26.8c0,0-0.1,0-0.1,0c-1.1-0.1-1.5-3-1.5-4.8c-0.1-1.9,0.4-4.4,1.4-4.8c0.1,0,0.1,0,0.1,0c1.1-0.2,1.5,2.7,1.5,4.8 C57.9,24.5,57.5,26.7,56.4,26.8 M40.4,28c-1.1,0.1-1.5-1.4-1.5-2.7c0-1.8,0.6-3.3,1.4-3.6c0.7-0.2,1.1,0.7,1.2,1.7l2.1-0.5 c-0.2-2.8-1.6-3.5-3.4-3.2c-2.3,0.4-3.5,2.9-3.5,5.7c0,2.9,1.7,4.8,3.7,4.7c1.8-0.1,3.3-1.8,3.3-4.9l-2.2,0.3 C41.5,26.8,41.1,27.9,40.4,28"></path> </g> <g> <defs> <rect id="SVGID_00000059301732714319219470000006923659340258361001_" x="31.3" y="7.1" width="57.5" height="45.8"></rect> </defs> <clipPath id="SVGID_00000047743040998158558480000008362924957673516680_"> <use xlink:href="#SVGID_00000059301732714319219470000006923659340258361001_" style="overflow:visible;"></use> </clipPath> <path style="clip-path:url(#SVGID_00000047743040998158558480000008362924957673516680_);" d="M55.8,35.3c0-0.8,0.5-1.3,1.1-1.3 c0.4,0.1,0.6,0.3,0.8,0.7c0.1,0.3,0.1,0.6,0.1,0.9l2.7,0.3c0.2-2.9-1-4.9-3.5-4.9c-2,0-3.7,1.8-3.6,4.4c0.1,4.2,5,3.7,5,7.6 c0,0.6-0.3,1.2-0.9,1.1c-0.4,0-0.8-0.2-1-0.6c-0.2-0.3-0.3-0.9-0.4-1.7l-2.6-0.6c0,2.5,0.9,5.1,3.4,5.6c2.5,0.6,4.8-1.5,4.2-5 C60.4,37.7,55.9,37.4,55.8,35.3 M47.6,31l-3,11.7l2.3,0.8l0.5-2.3l2.4,0.6l0.4,2.8l2.7,0.9L50.3,31L47.6,31L47.6,31z M47.8,38.9 l0.8-3.8l0.2-0.7l0.7,4.8L47.8,38.9z M81,38.7c0-1.9-0.6-2.4-1.3-2.8c0.6-0.3,1.4-0.8,1.4-2.3c0-1.8-1.1-2.6-2.9-2.6h-3.2v11.2 l2.1-0.7v-4.2c0,0,0.3-0.1,0.6-0.1c0.2,0,0.3,0,0.5,0c0.6,0.1,1.1,0.8,1.1,2c0,0.4,0,0.4,0,0.9c0,0.3,0.1,0.6,0.6,0.4l1.4-0.5 v-0.3C80.9,39.8,81,39.1,81,38.7 M78,35c-0.1,0-0.1,0-0.2,0c-0.5,0.1-0.9,0.1-0.9,0.1v-1.9c0,0,0.4,0,1.1-0.1h0 c0.6,0,1.1,0.3,1.1,0.8C79.1,34.6,78.6,34.9,78,35 M61.3,34.5l1.8-0.1v12l2.8-0.9V34.1l1.4-0.1v-3h-6V34.5z M68.2,44.6l5.9-2.1 v-2.2l-3.4,1v-2.5l2.7-0.6v-2.5l-2.7,0.4v-2.3l3.4-0.2V31h-5.9V44.6z M40.5,37l-0.9-6h-2.4v9.1l1.6,0.6v-6l0.9,6.3l1.2,0.4 l1.3-6.3v6.7l1.9,0.7V31h-2.5L40.5,37z"></path> </g> </g> </svg> 