<?xml version="1.0" encoding="UTF-8"?> <svg xmlns="http://www.w3.org/2000/svg" xmlns:xlink="http://www.w3.org/1999/xlink" version="1.1" id="Layer_1" x="0px" y="0px" viewBox="0 0 120 60" style="enable-background:new 0 0 120 60;" xml:space="preserve"> <style type="text/css"> .st0{fill:#231F20;} </style> <g> <path class="st0" d="M36.8,30L36.8,30c0-2.8,2.1-5.2,5.1-5.2c1.8,0,2.9,0.6,3.9,1.5l-1.1,1.3c-0.8-0.7-1.6-1.2-2.8-1.2 c-1.9,0-3.3,1.6-3.3,3.5v0c0,1.9,1.4,3.5,3.3,3.5c1.2,0,2-0.5,2.8-1.3l1.1,1.1c-1,1.1-2.2,1.8-4,1.8C38.9,35.1,36.8,32.9,36.8,30"></path> <path class="st0" d="M48.9,30L48.9,30c0-2.8,2.2-5.2,5.2-5.2c3,0,5.2,2.3,5.2,5.1v0c0,2.8-2.2,5.1-5.2,5.1 C51,35.1,48.9,32.8,48.9,30 M57.4,30L57.4,30c0-2-1.4-3.6-3.4-3.6c-2,0-3.3,1.6-3.3,3.5v0c0,1.9,1.4,3.5,3.4,3.5 C56,33.5,57.4,32,57.4,30"></path> <path class="st0" d="M63.3,25h4.4c1.2,0,2.2,0.4,2.9,1c0.5,0.5,0.8,1.3,0.8,2.1v0c0,1.6-1,2.6-2.4,3l2.7,3.8h-2.1l-2.4-3.5H65V35 h-1.7L63.3,25L63.3,25z M67.6,30c1.2,0,2-0.6,2-1.7v0c0-1.1-0.8-1.6-2.1-1.6H65V30H67.6z"></path> <path class="st0" d="M74.8,33.5l1-1.2c0.9,0.8,1.9,1.3,3.1,1.3c1.1,0,1.8-0.5,1.8-1.2v0c0-0.7-0.4-1.1-2.2-1.5 c-2.1-0.5-3.3-1.1-3.3-3v0c0-1.7,1.4-2.9,3.4-2.9c1.4,0,2.6,0.4,3.6,1.2l-0.9,1.3c-0.9-0.7-1.8-1-2.7-1c-1,0-1.6,0.5-1.6,1.2v0 c0,0.8,0.5,1.1,2.4,1.6c2.1,0.5,3.2,1.3,3.2,2.9v0c0,1.9-1.5,3-3.5,3C77.4,35.1,75.9,34.6,74.8,33.5"></path> <path class="st0" d="M89.7,25h1.6l4.4,10h-1.8l-1-2.4h-4.7l-1,2.4h-1.8L89.7,25z M92.2,31l-1.7-4l-1.7,4H92.2z"></path> <rect x="99.4" y="25" class="st0" width="1.7" height="9.9"></rect> <path class="st0" d="M105.7,25h4.4c1.2,0,2.2,0.4,2.9,1c0.5,0.5,0.8,1.3,0.8,2.1v0c0,1.6-1,2.6-2.4,3l2.7,3.8H112l-2.4-3.5h-2.2V35 h-1.7L105.7,25L105.7,25z M110,30c1.2,0,2-0.6,2-1.7v0c0-1.1-0.8-1.6-2.1-1.6h-2.5V30H110z"></path> <path class="st0" d="M20.3,17.2c0,0,2.1,4.3,1.7,6.1c0,0,5.5,1.8,6.1,4.7C28.2,28,31.2,24,20.3,17.2"></path> <path class="st0" d="M18.2,23.6c0.5,1.1,0.8,2.3,1.1,3.6l-3.1-1.2c0.3-1.9-1.6-4.8-1.6-4.8L18.2,23.6z"></path> <path class="st0" d="M12.6,26.6c0.3,0.9,0.7,2.1,1,3.1l-2.8-0.7c0.3-1.9-1.5-4.2-1.5-4.2L12.6,26.6z"></path> <path class="st0" d="M18.8,22c0,0,12.6,8.9,13.5,12.3c0.6,2.6-1.2,5-1.2,5s-1-6.8-25.2,3.5c2.5-2.7,3.8-6.2,3.4-10 c-0.1-1.5-0.5-3-1.2-4.3l5.7,3c0,0.1,0,0.2,0,0.3c0.2,2.3,0,4.5-0.5,6.6c1.2-2.5,1.7-5.2,1.4-8.1c-0.2-1.7-0.6-3.4-1.3-4.9l6.1,4 c0,0.2,0,0.4,0.1,0.6c0.2,2.5,0,5-0.7,7.3c1.4-2.6,2.1-5.7,1.8-8.9C20.6,26.1,19.9,23.9,18.8,22"></path> </g> </svg> 