<?xml version="1.0" encoding="UTF-8"?> <svg xmlns="http://www.w3.org/2000/svg" xmlns:xlink="http://www.w3.org/1999/xlink" version="1.1" id="Layer_1" x="0px" y="0px" viewBox="0 0 120 60" style="enable-background:new 0 0 120 60;" xml:space="preserve"> <style type="text/css"> .st0{clip-path:url(#SVGID_00000089575586841149691910000004719229407499112342_);fill:#0493C8;} .st1{clip-path:url(#SVGID_00000159433357182165144160000013244476783313749132_);fill:#231F20;} .st2{clip-path:url(#SVGID_00000173842092218154179570000008985459369817579940_);fill:#231F20;} .st3{clip-path:url(#SVGID_00000029031515534396121460000005356544560232265144_);fill:#231F20;} .st4{clip-path:url(#SVGID_00000178162882487347486680000012990019742043186824_);fill:#231F20;} .st5{clip-path:url(#SVGID_00000127740052577507043210000016675694238553591707_);fill:#231F20;} .st6{clip-path:url(#SVGID_00000062166277502396853570000011496684877186068654_);fill:#231F20;} .st7{clip-path:url(#SVGID_00000021825161815612029790000004834411766567145618_);fill:#231F20;} .st8{clip-path:url(#SVGID_00000164516455453402294040000009364594076475439013_);fill:#231F20;} .st9{clip-path:url(#SVGID_00000080915346873445892820000012242680640483858826_);fill:#231F20;} .st10{clip-path:url(#SVGID_00000121272590868617610990000003861229125587980981_);fill:#231F20;} .st11{clip-path:url(#SVGID_00000064323691698563082150000007838994300874898571_);fill:#231F20;} .st12{clip-path:url(#SVGID_00000002344020185363056150000000289383220119604380_);fill:#231F20;} .st13{clip-path:url(#SVGID_00000181071274112021748380000003420272839105396667_);fill:#231F20;} .st14{clip-path:url(#SVGID_00000101083858941182748210000009648445011753687974_);fill:#231F20;} .st15{clip-path:url(#SVGID_00000046329462524143141350000004404986743318939043_);fill:#231F20;} .st16{clip-path:url(#SVGID_00000051380760188789087230000018299233988867357350_);fill:#231F20;} .st17{clip-path:url(#SVGID_00000110441267082436653600000003820685588404504501_);fill:#231F20;} .st18{clip-path:url(#SVGID_00000054973056564210523410000006025832471153594788_);fill:#231F20;} .st19{clip-path:url(#SVGID_00000043457144410283321790000017455316593799464091_);fill:#231F20;} .st20{clip-path:url(#SVGID_00000023995581488585529720000008873459044219843244_);fill:#231F20;} .st21{clip-path:url(#SVGID_00000010280825268714430210000006199233933097625225_);fill:#231F20;} </style> <g> <g> <defs> <rect id="SVGID_1_" x="10" y="13.2" width="100" height="33.6"></rect> </defs> <clipPath id="SVGID_00000091728312454519867550000008860447373657770149_"> <use xlink:href="#SVGID_1_" style="overflow:visible;"></use> </clipPath> <path style="clip-path:url(#SVGID_00000091728312454519867550000008860447373657770149_);fill:#0493C8;" d="M77.5,14.5 c-0.3,0-65.4,5.2-65.4,5.2h65.2v0c0.1,0,0.2,0,0.2,0c1.4,0,2.6-1.2,2.6-2.6C80.1,15.7,79,14.5,77.5,14.5"></path> </g> <g> <defs> <rect id="SVGID_00000134935410820077773180000001730158666853386378_" x="10" y="13.2" width="100" height="33.6"></rect> </defs> <clipPath id="SVGID_00000088831433260766991310000001987121554500252816_"> <use xlink:href="#SVGID_00000134935410820077773180000001730158666853386378_" style="overflow:visible;"></use> </clipPath> <path style="clip-path:url(#SVGID_00000088831433260766991310000001987121554500252816_);fill:#231F20;" d="M65.8,32.9 c-2.1,0-4.5-1.2-4.5-4c0-2.9,2.4-4,4.5-4c1.7,0,3.4,0.4,4.8,1.1l1.5-2c-2.2-1.2-4.2-1.8-6.3-1.8c-4.9,0-9.3,2.8-9.3,6.7 c0,3.9,4.4,6.7,9.3,6.7c2.4,0,4.6-0.6,6.4-1.5l-1.5-2.1C69.3,32.6,67.6,32.9,65.8,32.9"></path> </g> <g> <defs> <rect id="SVGID_00000090982827611012792850000008715875906002380435_" x="10" y="13.2" width="100" height="33.6"></rect> </defs> <clipPath id="SVGID_00000019664855608624169240000016780390684236529280_"> <use xlink:href="#SVGID_00000090982827611012792850000008715875906002380435_" style="overflow:visible;"></use> </clipPath> <path style="clip-path:url(#SVGID_00000019664855608624169240000016780390684236529280_);fill:#231F20;" d="M19.3,32.9 c-2.1,0-4.5-1.2-4.5-4c0-2.9,2.4-4,4.5-4c1.7,0,3.4,0.4,4.8,1.1l1.5-2c-2.2-1.2-4.2-1.8-6.3-1.8c-4.9,0-9.3,2.8-9.3,6.7 s4.4,6.7,9.3,6.7c2.4,0,4.6-0.6,6.4-1.5l-1.5-2.1C22.7,32.6,21,32.9,19.3,32.9"></path> </g> <g> <defs> <rect id="SVGID_00000166661947370258302460000006549868107965512328_" x="10" y="13.2" width="100" height="33.6"></rect> </defs> <clipPath id="SVGID_00000043418865471891536510000015052637748438974392_"> <use xlink:href="#SVGID_00000166661947370258302460000006549868107965512328_" style="overflow:visible;"></use> </clipPath> <path style="clip-path:url(#SVGID_00000043418865471891536510000015052637748438974392_);fill:#231F20;" d="M49.7,30.5 c0,1.1-0.8,2.3-2.3,2.4c-1,0-2-0.7-2-1.6l0-8.7h-4.6v9c0,2.4,2.5,4.3,5.5,4.3c0,0,0.1,0,0.1,0c0,0,0.1,0,0.1,0 c1.2,0,2.4-0.4,3.4-1c0,0,0.3,0.9,4.5,0.9V22.5h-4.6V30.5"></path> </g> <g> <defs> <rect id="SVGID_00000168098152779730868200000017012182254255897510_" x="10" y="13.2" width="100" height="33.6"></rect> </defs> <clipPath id="SVGID_00000070087089211906049690000000079756294034176142_"> <use xlink:href="#SVGID_00000168098152779730868200000017012182254255897510_" style="overflow:visible;"></use> </clipPath> <rect x="74.7" y="22.8" style="clip-path:url(#SVGID_00000070087089211906049690000000079756294034176142_);fill:#231F20;" width="4.5" height="12.8"></rect> </g> <g> <defs> <rect id="SVGID_00000068647252397809114850000009868329727878156697_" x="10" y="13.2" width="100" height="33.6"></rect> </defs> <clipPath id="SVGID_00000149341109406196027840000013358579983348664226_"> <use xlink:href="#SVGID_00000068647252397809114850000009868329727878156697_" style="overflow:visible;"></use> </clipPath> <rect x="100.3" y="13.2" style="clip-path:url(#SVGID_00000149341109406196027840000013358579983348664226_);fill:#231F20;" width="4.5" height="22.5"></rect> </g> <g> <defs> <rect id="SVGID_00000101088572190249200970000004082163674298328223_" x="10" y="13.2" width="100" height="33.6"></rect> </defs> <clipPath id="SVGID_00000117671046844881295450000016696999052848511110_"> <use xlink:href="#SVGID_00000101088572190249200970000004082163674298328223_" style="overflow:visible;"></use> </clipPath> <path style="clip-path:url(#SVGID_00000117671046844881295450000016696999052848511110_);fill:#231F20;" d="M33.5,23.5 c-0.1-0.2-0.6-0.9-4.5-0.9v12.9h4.5v-7.7c0-1.2,1.4-2.2,3-2.2c0.8,0,1.5,0.2,2,0.4v-3.4c-0.5-0.1-1.1-0.1-1.6-0.1 C35.7,22.6,34.5,23,33.5,23.5"></path> </g> <g> <defs> <rect id="SVGID_00000073690326843610886700000016539870274959912106_" x="10" y="13.2" width="100" height="33.6"></rect> </defs> <clipPath id="SVGID_00000091703105715043277600000005071704823454348991_"> <use xlink:href="#SVGID_00000073690326843610886700000016539870274959912106_" style="overflow:visible;"></use> </clipPath> <path style="clip-path:url(#SVGID_00000091703105715043277600000005071704823454348991_);fill:#231F20;" d="M90.2,22.3 c-2.9,0-4.2,0.2-6.4,0.7v3.6c1.5-0.6,3.3-1.1,5.1-1.1c1.8,0,3.9,0.2,3.9,1.9c-0.7,0-1.8-0.2-2.9-0.2c-3.7,0-7.9,0.8-7.9,4.8 c0,2.7,2.8,3.8,5.6,3.8c2.1,0,4.2,0.2,5.4-1.1c0,0-0.6,1.1,4.3,0.9v-7.9C97.4,23,94.4,22.3,90.2,22.3 M92.7,30.3 c0,2.1-2.1,3.2-3.6,3.4c-3,0.3-3.2-1.5-3-2.3c0.3-1.3,2.4-1.8,4.1-1.7h2.6V30.3z"></path> </g> <g> <defs> <rect id="SVGID_00000169522242310871402760000008146538973114979755_" x="10" y="13.2" width="100" height="33.6"></rect> </defs> <clipPath id="SVGID_00000068644234114262170590000011225510752080094879_"> <use xlink:href="#SVGID_00000169522242310871402760000008146538973114979755_" style="overflow:visible;"></use> </clipPath> <rect x="11.3" y="43.2" style="clip-path:url(#SVGID_00000068644234114262170590000011225510752080094879_);fill:#231F20;" width="26.3" height="0.4"></rect> </g> <g> <defs> <rect id="SVGID_00000054974448612520733450000007523528872393069958_" x="10" y="13.2" width="100" height="33.6"></rect> </defs> <clipPath id="SVGID_00000127728883526724398160000011540546137452415157_"> <use xlink:href="#SVGID_00000054974448612520733450000007523528872393069958_" style="overflow:visible;"></use> </clipPath> <rect x="77" y="43.2" style="clip-path:url(#SVGID_00000127728883526724398160000011540546137452415157_);fill:#231F20;" width="27.8" height="0.4"></rect> </g> <g> <defs> <rect id="SVGID_00000103229687009577940840000000800252797423145858_" x="10" y="13.2" width="100" height="33.6"></rect> </defs> <clipPath id="SVGID_00000067930796518441734150000017360633701988213949_"> <use xlink:href="#SVGID_00000103229687009577940840000000800252797423145858_" style="overflow:visible;"></use> </clipPath> <path style="clip-path:url(#SVGID_00000067930796518441734150000017360633701988213949_);fill:#231F20;" d="M40.6,41.9h0.6v1.3h0 c0.2-0.2,0.4-0.3,0.7-0.3c0.7,0,0.9,0.5,0.9,1.1s-0.2,1.2-0.9,1.2c-0.2,0-0.5-0.1-0.7-0.3h0v0.3h-0.6L40.6,41.9 M41.7,44.7 c0.4,0,0.5-0.4,0.5-0.7c0-0.3-0.1-0.7-0.5-0.7c-0.4,0-0.5,0.4-0.5,0.7C41.2,44.3,41.3,44.7,41.7,44.7"></path> </g> <g> <defs> <rect id="SVGID_00000104687930151356798080000011296464698992913062_" x="10" y="13.2" width="100" height="33.6"></rect> </defs> <clipPath id="SVGID_00000075141506513527199160000002041490414674479271_"> <use xlink:href="#SVGID_00000104687930151356798080000011296464698992913062_" style="overflow:visible;"></use> </clipPath> <path style="clip-path:url(#SVGID_00000075141506513527199160000002041490414674479271_);fill:#231F20;" d="M44.1,44.5L44.1,44.5 l0.5-1.6h0.6l-0.8,2.2c-0.2,0.5-0.3,1-0.9,1c-0.1,0-0.3,0-0.4-0.1l0-0.4c0.1,0,0.2,0,0.3,0c0.2,0,0.4-0.2,0.4-0.4l-0.8-2.3h0.6 L44.1,44.5"></path> </g> <g> <defs> <rect id="SVGID_00000174568226317579289970000016539065680571752840_" x="10" y="13.2" width="100" height="33.6"></rect> </defs> <clipPath id="SVGID_00000041277429082306362220000017084529219140993209_"> <use xlink:href="#SVGID_00000174568226317579289970000016539065680571752840_" style="overflow:visible;"></use> </clipPath> <path style="clip-path:url(#SVGID_00000041277429082306362220000017084529219140993209_);fill:#231F20;" d="M59.7,45.2 c-1.3,0-2.4-0.7-2.4-1.7s1.1-1.7,2.4-1.7c0.6,0,1.1,0.1,1.6,0.5l-0.4,0.5c-0.4-0.2-0.8-0.3-1.2-0.3c-0.5,0-1.2,0.3-1.2,1 c0,0.7,0.6,1,1.2,1c0.5,0,0.9-0.1,1.3-0.3l0.4,0.5C60.9,45,60.3,45.2,59.7,45.2"></path> </g> <g> <defs> <rect id="SVGID_00000021104781313460916520000003574108395561392781_" x="10" y="13.2" width="100" height="33.6"></rect> </defs> <clipPath id="SVGID_00000060731082622543699940000008509470543054558649_"> <use xlink:href="#SVGID_00000021104781313460916520000003574108395561392781_" style="overflow:visible;"></use> </clipPath> <path style="clip-path:url(#SVGID_00000060731082622543699940000008509470543054558649_);fill:#231F20;" d="M66.9,45.2 c1.3,0,2.4-0.7,2.4-1.7s-1.1-1.7-2.4-1.7s-2.4,0.7-2.4,1.7S65.6,45.2,66.9,45.2 M68.1,43.4c0,0.7-0.6,1-1.2,1 c-0.5,0-1.2-0.3-1.2-1c0-0.7,0.6-1,1.2-1C67.4,42.4,68.1,42.7,68.1,43.4"></path> </g> <g> <defs> <rect id="SVGID_00000177480209389465978350000015496193747077782970_" x="10" y="13.2" width="100" height="33.6"></rect> </defs> <clipPath id="SVGID_00000083806414732061850010000002617547948217986719_"> <use xlink:href="#SVGID_00000177480209389465978350000015496193747077782970_" style="overflow:visible;"></use> </clipPath> <path style="clip-path:url(#SVGID_00000083806414732061850010000002617547948217986719_);fill:#231F20;" d="M69.8,45.1H71V43 c0-0.3,0.2-0.6,0.6-0.6c0.3,0,0.5,0.2,0.5,0.4v2.2h1.2v-2.3c0-0.6-0.7-1.1-1.4-1.1c0,0,0,0,0,0c0,0,0,0,0,0 c-0.3,0-0.6,0.1-0.9,0.2c0,0-0.1-0.2-1.2-0.2L69.8,45.1"></path> </g> <g> <defs> <rect id="SVGID_00000123436670276120660680000000884399327760208262_" x="10" y="13.2" width="100" height="33.6"></rect> </defs> <clipPath id="SVGID_00000121281309519782900880000007925972002557268391_"> <use xlink:href="#SVGID_00000123436670276120660680000000884399327760208262_" style="overflow:visible;"></use> </clipPath> <rect x="55.5" y="41.8" style="clip-path:url(#SVGID_00000121281309519782900880000007925972002557268391_);fill:#231F20;" width="1.2" height="3.3"></rect> </g> <g> <defs> <rect id="SVGID_00000127759485670791950400000016845015352560241545_" x="10" y="13.2" width="100" height="33.6"></rect> </defs> <clipPath id="SVGID_00000013184496562445148480000002440431217364175017_"> <use xlink:href="#SVGID_00000127759485670791950400000016845015352560241545_" style="overflow:visible;"></use> </clipPath> <path style="clip-path:url(#SVGID_00000013184496562445148480000002440431217364175017_);fill:#231F20;" d="M61.9,45.1h1.2v-2 c0-0.3,0.4-0.6,0.8-0.6c0.2,0,0.4,0,0.5,0.1v-0.9c-0.1,0-0.3,0-0.4,0c-0.3,0-0.6,0.1-0.9,0.2c0,0-0.2-0.2-1.2-0.2L61.9,45.1"></path> </g> <g> <defs> <rect id="SVGID_00000095332402264937908350000001113370209985539246_" x="10" y="13.2" width="100" height="33.6"></rect> </defs> <clipPath id="SVGID_00000003093054432997193060000007459983617201057941_"> <use xlink:href="#SVGID_00000095332402264937908350000001113370209985539246_" style="overflow:visible;"></use> </clipPath> <path style="clip-path:url(#SVGID_00000003093054432997193060000007459983617201057941_);fill:#231F20;" d="M55.9,39.4 c-0.4-0.6-1.8-0.4-3.6,0.6c-0.1,0-0.2,0.1-0.2,0.1c-0.1,0.1,0,0.1,0,0.1c0.1,0,0.1-0.1,0.2-0.1c1.3-0.6,2.4-0.8,2.8-0.3 c0.6,0.7-0.7,2.9-2.9,4.5c-0.3,0.2-0.8,0.5-1,0.7c0,0,0,0-0.1,0c-0.1,0-0.1,0.1-0.2,0.1s0,0.1,0.1,0.1c0.1,0,0.1-0.1,0.2-0.1 c0,0,0,0,0,0c0.3-0.2,0.8-0.5,1.2-0.8c0.3-0.2,0.6-0.4,0.8-0.6v1.3h1.2v-2.4C55.8,41.3,56.4,40,55.9,39.4"></path> </g> <g> <defs> <rect id="SVGID_00000117646217403319721770000002507844621804592807_" x="10" y="13.2" width="100" height="33.6"></rect> </defs> <clipPath id="SVGID_00000003804938812257841370000001638547526309097879_"> <use xlink:href="#SVGID_00000117646217403319721770000002507844621804592807_" style="overflow:visible;"></use> </clipPath> <path style="clip-path:url(#SVGID_00000003804938812257841370000001638547526309097879_);fill:#231F20;" d="M48.6,46.8h1.2v-1.2 c0.3-0.2,0.7-0.4,1-0.6c0.1,0,0.1-0.1,0.2-0.1c0.1-0.1,0-0.1,0-0.1c-0.1,0-0.1,0.1-0.2,0.1c-1.8,1.2-3.1,1.5-3.5,0.9 c-0.4-0.5,0.3-1.6,1.4-2.8v2.8c0.3-0.1,0.7-0.3,1.2-0.6v-2.6l0.3,0.6c0.3,0.6,0.8,1,1.5,1c0.7,0,1.2-0.4,1.5-1l0.3-0.6v0.7 c0.4-0.4,0.8-0.8,1.1-1.2c0,0,0-0.1,0-0.1c-0.2-0.4-0.6-0.7-1-0.7c-0.5,0-0.8,0.3-1,0.6l-0.5,1.1c0,0.1-0.1,0.2-0.3,0.2 c-0.1,0-0.2-0.1-0.3-0.2l-0.5-1.1c-0.1-0.2-0.2-0.4-0.4-0.5c0.4-0.3,0.7-0.5,1.1-0.8c0.1,0,0.1-0.1,0.2-0.1c0.1,0,0-0.1-0.1-0.1 c-0.1,0-0.1,0.1-0.2,0.1c-0.4,0.2-0.7,0.4-1.1,0.7c0,0-0.1,0.1-0.1,0.1c-0.1,0-0.3-0.1-0.4-0.1c-0.6,0-1.1,0.5-1.1,1.2v0.2 c-1.7,1.5-2.6,3-2.1,3.7c0.3,0.5,1.1,0.4,2.1,0V46.8"></path> </g> <g> <defs> <rect id="SVGID_00000183947064963988629310000002135465514164139944_" x="10" y="13.2" width="100" height="33.6"></rect> </defs> <clipPath id="SVGID_00000183931924475320698750000001686990988068317105_"> <use xlink:href="#SVGID_00000183947064963988629310000002135465514164139944_" style="overflow:visible;"></use> </clipPath> <path style="clip-path:url(#SVGID_00000183931924475320698750000001686990988068317105_);fill:#231F20;" d="M74.4,42.2h0.1 c0.1,0,0.1,0,0.1-0.1c0-0.1-0.1-0.1-0.1-0.1h-0.1V42.2 M74.2,41.9h0.3c0.2,0,0.3,0.1,0.3,0.2c0,0.1-0.1,0.2-0.2,0.2l0.2,0.3h-0.1 l-0.2-0.3h-0.1v0.3h-0.1V41.9z M75,42.3c0-0.3-0.2-0.5-0.5-0.5S74,42,74,42.3c0,0.3,0.2,0.5,0.5,0.5C74.8,42.8,75,42.6,75,42.3 M73.8,42.3c0-0.4,0.3-0.6,0.6-0.6s0.6,0.3,0.6,0.6s-0.3,0.6-0.6,0.6C74.1,42.9,73.8,42.6,73.8,42.3"></path> </g> <g> <defs> <rect id="SVGID_00000090999520031356143380000008122534145165937343_" x="10" y="13.2" width="100" height="33.6"></rect> </defs> <clipPath id="SVGID_00000074410006789276511240000003951637518186839945_"> <use xlink:href="#SVGID_00000090999520031356143380000008122534145165937343_" style="overflow:visible;"></use> </clipPath> <polygon style="clip-path:url(#SVGID_00000074410006789276511240000003951637518186839945_);fill:#231F20;" points="107.3,13.5 106.8,13.5 106.8,13.2 108,13.2 108,13.5 107.6,13.5 107.6,14.8 107.3,14.8 "></polygon> </g> <g> <defs> <rect id="SVGID_00000075148671657214760750000015002327829234871951_" x="10" y="13.2" width="100" height="33.6"></rect> </defs> <clipPath id="SVGID_00000146478977057971630420000003602953989479627173_"> <use xlink:href="#SVGID_00000075148671657214760750000015002327829234871951_" style="overflow:visible;"></use> </clipPath> <polygon style="clip-path:url(#SVGID_00000146478977057971630420000003602953989479627173_);fill:#231F20;" points="108.2,13.2 108.8,13.2 109.1,14.4 109.1,14.4 109.5,13.2 110,13.2 110,14.8 109.7,14.8 109.7,13.5 109.7,13.5 109.3,14.8 109,14.8 108.5,13.5 108.5,13.5 108.5,14.8 108.2,14.8 "></polygon> </g> </g> </svg> 