<?xml version="1.0" encoding="UTF-8"?> <svg xmlns:svg="http://www.w3.org/2000/svg" xmlns="http://www.w3.org/2000/svg" xmlns:xlink="http://www.w3.org/1999/xlink" version="1.1" id="Layer_1" x="0px" y="0px" viewBox="0 0 120 60" style="enable-background:new 0 0 120 60;" xml:space="preserve"> <style type="text/css"> .st0{fill:#2B8CA1;} </style> <g> <g id="g3"> <path id="path5" class="st0" d="M38.4,28.8h5c0.4,0,0.4,0.4,0.1,0.8l-1,1.6c-0.3,0.4-0.7,0.8-1.1,0.8h-5c-0.4,0-0.4-0.4-0.1-0.8 l1-1.6C37.6,29.1,38.1,28.8,38.4,28.8"></path> <path id="path7" class="st0" d="M62.3,21.1c1.9-0.1,4,1.3,2.9,3.1c-1,1.7-4.8,2.2-5.9,2c-0.4,0-1-0.2-0.9-0.8c0-0.4,0.2-1.8,1-2.9 C60.2,21.4,61.4,21.1,62.3,21.1"></path> </g> <path id="path9" class="st0" d="M73.6,24.7c0.6-0.2,0.6,0.4,0.6,0.6v1.5c0,0.3,0.2,0.1,0.4,0.1c1.7-0.7,3.5-1.8,5.6-1.8 c1.9,0.1,2.5,1.6,2.5,3.3V36c0,0.7,0.1,0.8,0.4,1.1c0.1,0.1,0.6,0.1,0.8,0.1s0.2,0.1,0.1,0.3l-0.4,1.2c-0.1,0.2-0.3,0.2-0.4,0.2 h-4.5c-1.6-0.1-2-1.2-2-1.8v-7.2c0-1.5-2.5-1.6-2.5,0.4v6.1c0,0.3-0.1,0.7,0.7,0.7c0.5,0,0.9-0.1,0.6,0.6l-0.4,1 C75.2,38.8,75,39,74.7,39h-7.3c-0.1,0-0.3-0.1-0.2-0.3l0.5-1.3c0-0.1,0.1-0.1,0.1-0.1c0.2,0,0.4-0.1,0.4-0.8v-7.9 c0-0.7-0.6-0.6-1-0.6c-0.2,0-0.3-0.1-0.2-0.3l0.4-0.9c0.1-0.2,0.1-0.3,0.3-0.3C70.2,26,71.6,25.8,73.6,24.7"></path> <path id="path11" class="st0" d="M91.7,21.3c0.4-0.1,0.7,0.2,0.7,0.7v7.6c0.1,0.4,0.4,0.1,0.4,0l2.6-3.3c0.3-0.4,1-0.4,1.3-0.4h5.7 c0.1,0,0.1,0.1,0.1,0.2l-0.7,1c-0.1,0.1-0.1,0.2-0.4,0.2H101c-0.2,0-0.3,0.1-0.4,0.1l-2.9,3.3c-0.6,0.7-0.4,1,0.1,1.6l4,4.2 c0.9,0.6,1.7,0.7,2.6,0.7c0.2,0,0.2,0.2,0.1,0.3l-1,1.2c-0.1,0.1-0.6,0.2-0.8,0.2h-3.9c-0.5,0-1.4-0.1-2.2-0.6 c-1.5-1.2-2.4-2.7-3.8-4c-0.2-0.2-0.4-0.1-0.4,0.1V36c0,0.8,0.3,1,1.5,1c0.4,0,0.3,0.2,0.2,0.5l-0.4,1c-0.1,0.2-0.2,0.3-0.4,0.3 h-8.2c-0.2,0-0.4-0.1-0.4-0.2l0.4-1.2c0.1-0.2,0.1-0.3,0.5-0.3c0.6,0,0.8-0.2,0.8-1V24.9c0-0.4-0.1-0.5-0.4-0.5l-1,0.1 c-0.3,0.1-0.4-0.2-0.2-0.4l0.7-1.1c0.1-0.2,0.4-0.2,0.6-0.3c2.1-0.4,4.2-1,5.6-1.5C91.5,21.4,91.5,21.3,91.7,21.3"></path> <g id="g13"> <path id="path15" class="st0" d="M65,25.8c0.2-0.1,0.6,0.1,0.5,0.7v9.8c0.1,0.7,0.4,0.9,1,0.9c0,0,0.4,0,0.3,0.3l-0.4,1 c-0.1,0.3-0.2,0.4-0.6,0.4h-7.7c-0.2,0-0.3-0.1-0.2-0.4l0.4-1c0.1-0.1,0.1-0.3,0.4-0.3c0.8-0.2,0.8-0.3,0.8-1.3V30 c0-1-0.1-1-1.3-0.8C58,29.1,58,29,58,28.9l0.6-1.1c0.1-0.3,0.4-0.3,0.4-0.3C61.1,27.4,63.3,26.8,65,25.8"></path> <path id="path17" class="st0" d="M26.2,39c1.7,0,3.7,0.1,5.6-1.3c1.3-0.9,3-4.5,3.5-5.9c0.3-0.7,0.4-1.8,0-2.5 c-1-2.3-2.5-4.8-3.5-5.9c-1.4-1.3-2.7-1.4-4.9-1.4h-9.1c-0.4-0.1-0.8,0.1-1,0.3l-0.7,1.3c-0.1,0.5,0.5,0.6,0.5,0.6h1 c0.2,0,0.3,0.2,0.3,0.4V36c0,0.5-0.6,0.8-1,0.9c-0.2,0.1-0.5,0.1-0.7,0.4l-0.7,1.3c-0.1,0.2,0.1,0.4,0.3,0.4 C19.5,39,22.6,39,26.2,39 M23.9,36.8V24.5c0-0.3,0.1-0.4,0.4-0.5h0.9c0.3,0,0.8-0.1,1.1,0.4l3.1,5.4c0.2,0.6,0.1,0.8,0,1.2 l-3.1,5.3c-0.4,0.5-0.6,0.4-1,0.4l0,0H23.9L23.9,36.8z"></path> </g> <path id="path19" class="st0" d="M52.8,21.9c0.4,0,0.5,0.2,0.4,0.4l-0.8,1.5c0,0-0.1,0.3-0.8,0.3h-0.1c-0.4,0-0.8,0-0.9,1V36 c0,0.4,0.2,0.9,0.7,0.9h1.1c1.9,0,1.8-1.9,2.2-3.6c0.1-0.2,0.1-0.4,0.4-0.6l1.6-0.6c0.2,0,0.4,0,0.4,0.4V38c0.1,0.5-0.4,1-1,0.9 h-14c-0.5,0-0.6-0.1-0.5-0.4l0.5-1.1c0,0,0.1-0.3,0.6-0.3c1-0.1,1.7-0.1,1.7-1.6V25.2c0-0.7-0.1-1.1-0.8-1.1c-0.3,0-0.5,0-0.8,0 c-0.5,0-0.8-0.1-0.7-0.4l0.7-1.3c0.1-0.3,0.3-0.4,0.6-0.4H52.8"></path> </g> </svg> 