<?xml version="1.0" encoding="UTF-8"?> <svg xmlns="http://www.w3.org/2000/svg" xmlns:xlink="http://www.w3.org/1999/xlink" version="1.1" id="Layer_1" x="0px" y="0px" viewBox="0 0 120 60" style="enable-background:new 0 0 120 60;" xml:space="preserve"> <style type="text/css"> .st0{fill:#0087CC;} </style> <path class="st0" d="M60,5C46.2,5,35,16.2,35,30s11.2,25,25,25s25-11.2,25-25S73.8,5,60,5z M60,52.5c-12.4,0-22.5-10.1-22.5-22.5 S47.6,7.5,60,7.5S82.5,17.6,82.5,30S72.4,52.5,60,52.5z M79.5,33.3v2.2h-7.1v-11h2.5v8.8L79.5,33.3L79.5,33.3z M46.7,35.5 c2.6,0,4.7-1.7,5.3-4.1l6.2,4.9l6.2-4.9v4.1h7.1v-2.2h-4.6v-8.8h-2.5v4.1l-6,4.7l-1.3-1L60,30l3.1-2.4l-1.8-1.4l-6,4.7l-1.3-1l6-4.7 l-1.8-1.4L52,28.6c-0.6-2.4-2.8-4.1-5.3-4.1h-4.5v11H46.7L46.7,35.5z M44.7,33.3v-6.6h2c1.7,0,3,1.5,3,3.3s-1.3,3.3-3,3.3H44.7z"></path> </svg> 