<?xml version="1.0" encoding="UTF-8"?> <svg xmlns="http://www.w3.org/2000/svg" xmlns:xlink="http://www.w3.org/1999/xlink" version="1.1" id="Layer_1" x="0px" y="0px" viewBox="0 0 120 60" style="enable-background:new 0 0 120 60;" xml:space="preserve"> <style type="text/css"> .st0{fill:#0076CE;} </style> <g> <path class="st0" d="M120,32.2c0-1.4-0.8-2.1-2.4-2.4c-1.6-0.3-2.6-0.5-2.6-1.6c0-0.8,0.6-1.3,1.8-1.3c1.4,0,1.9,0.6,1.9,1.4 l0.2,0.2h0.6l0.2-0.2c0-1.6-1.3-2.2-2.9-2.2c-1.8,0-2.7,1-2.7,2.1c0,1.3,1,1.9,2.6,2.2c1.6,0.3,2.4,0.5,2.4,1.8 c0,0.8-0.5,1.4-2.1,1.4c-1.4,0-2.1-0.8-2.1-1.8l-0.2-0.2h-0.6l-0.2,0.2c0,1.4,1.1,2.6,3.1,2.6C119,34.5,120,33.5,120,32.2 M113.1,30.6l0.2-0.2V30c0-2.2-1.3-3.9-3.5-3.9c-2.2,0-3.5,1.6-3.5,3.9v0.3c0,2.2,1.1,4.2,3.7,4.2c2.2,0,3.1-1.4,3.2-2.4l-0.2-0.2 h-0.6l-0.2,0.2c-0.3,1-1,1.6-2.2,1.6c-2.1,0-2.7-1.9-2.7-2.9l0.2-0.2H113.1z M112.1,29.8h-4.8l-0.2-0.2c0-1.1,0.6-2.7,2.6-2.7 c1.9,0,2.6,1.6,2.6,2.7L112.1,29.8z M105.1,34.2v-7.7l-0.2-0.2h-0.6l-0.2,0.2v7.7l0.2,0.2h0.6L105.1,34.2z M105.1,24.8v-1l-0.2-0.2 h-0.6l-0.2,0.2v1l0.2,0.2h0.6L105.1,24.8z M99,33.7c-1.6,0-2.6-1.1-2.6-3.4c0-2.2,1-3.4,2.6-3.4c1.6,0,2.6,1.1,2.6,3.4 C101.5,32.5,100.6,33.7,99,33.7 M101.5,33.2c0,2.1-0.5,3.7-2.4,3.7c-1.4,0-1.9-0.6-2.1-1.4l-0.2-0.2h-0.6l-0.2,0.2 c0.2,1.3,1.1,2.2,3.1,2.2c2.1,0,3.4-1.3,3.4-4.5v-6.7l-0.2-0.2h-0.5l-0.2,0.2l-0.2,1h-0.2c-0.3-0.6-1.1-1.3-2.6-1.3 c-2.2,0-3.4,1.8-3.4,4.2c0,2.4,1.1,4.2,3.4,4.2c1.4,0,2.2-0.6,2.6-1.3H101.5z M91.1,26.9c1.6,0,2.7,1.3,2.7,3.4 c0,2.1-1.1,3.4-2.7,3.4c-1.6,0-2.7-1.3-2.7-3.4C88.4,28.2,89.5,26.9,91.1,26.9 M91.1,34.5c2.1,0,3.7-1.4,3.7-4.2 c0-2.7-1.6-4.2-3.7-4.2c-2.1,0-3.7,1.4-3.7,4.2C87.4,33,89,34.5,91.1,34.5 M86.3,34.2V23.2l-0.2-0.2h-0.6l-0.2,0.2v10.9l0.2,0.2 h0.6L86.3,34.2z M80.5,26.9c1.6,0,2.7,1.3,2.7,3.4c0,2.1-1.1,3.4-2.7,3.4c-1.6,0-2.7-1.3-2.7-3.4C77.8,28.2,78.9,26.9,80.5,26.9 M80.5,34.5c2.1,0,3.7-1.4,3.7-4.2c0-2.7-1.6-4.2-3.7-4.2c-2.1,0-3.7,1.4-3.7,4.2C76.8,33,78.4,34.5,80.5,34.5 M75.8,34.2v-4.8 c0-2.1-1.1-3.2-2.9-3.2c-1.1,0-2.1,0.5-2.6,1.3h-0.2l-0.2-1l-0.2-0.2h-0.5l-0.2,0.2v7.7l0.2,0.2H70l0.2-0.2v-4.3 c0-1.8,0.8-2.9,2.6-2.9c1.3,0,2.1,0.8,2.1,2.4v4.8l0.2,0.2h0.6L75.8,34.2z M67.6,34.2v-4.8c0-2.1-1.1-3.2-2.9-3.2 c-1.1,0-2.1,0.5-2.6,1.3H62v-4.2l-0.2-0.2h-0.6l-0.2,0.2v10.9l0.2,0.2h0.6l0.2-0.2v-4.3c0-1.8,0.8-2.9,2.6-2.9 c1.3,0,2.1,0.8,2.1,2.4v4.8l0.2,0.2h0.6L67.6,34.2z M53.8,30.3c0-2.2,1.1-3.4,2.7-3.4c1.6,0,2.2,1,2.4,1.9l0.2,0.2h0.6l0.2-0.2 c-0.2-1.6-1.4-2.7-3.4-2.7c-2.1,0-3.7,1.3-3.7,4.2c0,2.9,1.6,4.2,3.7,4.2c1.9,0,3.2-1.1,3.4-2.7l-0.2-0.2h-0.6L59,31.7 c-0.2,1-0.8,1.9-2.4,1.9C54.9,33.7,53.8,32.5,53.8,30.3 M52.1,30.6l0.2-0.2V30c0-2.2-1.3-3.9-3.5-3.9c-2.2,0-3.5,1.6-3.5,3.9v0.3 c0,2.2,1.1,4.2,3.7,4.2c2.2,0,3.1-1.4,3.2-2.4l-0.2-0.2h-0.6l-0.2,0.2c-0.3,1-1,1.6-2.2,1.6c-2.1,0-2.7-1.9-2.7-2.9l0.2-0.2H52.1z M51.1,29.8h-4.8l-0.2-0.2c0-1.1,0.6-2.7,2.6-2.7c1.9,0,2.6,1.6,2.6,2.7L51.1,29.8z M46.8,23.7v-0.5l-0.2-0.2h-8.4l-0.2,0.2v0.5 l0.2,0.2h3.5l0.2,0.2v10.1l0.2,0.2h0.6l0.2-0.2V24l0.2-0.2h3.5L46.8,23.7z"></path> <path class="st0" d="M38.1,32.1v2.2h-7.3V23.1h2.6v9H38.1z M4.6,34.3c2.6,0,4.8-1.8,5.4-4.2l6.4,5l6.4-5v4.2H30v-2.2h-4.7v-9h-2.6 v4.2L16.6,32L15.3,31l2.9-2.3l3.2-2.5l-1.8-1.4l-6.1,4.8l-1.4-1.1l6.1-4.8l-1.8-1.4l-6.4,5c-0.6-2.4-2.8-4.2-5.4-4.2H0v11.2H4.6z M2.6,32.1v-6.8h2c1.7,0,3.1,1.5,3.1,3.4c0,1.9-1.4,3.4-3.1,3.4H2.6z"></path> </g> </svg> 