<?xml version="1.0" encoding="UTF-8"?> <svg xmlns="http://www.w3.org/2000/svg" xmlns:xlink="http://www.w3.org/1999/xlink" version="1.1" id="Layer_1" x="0px" y="0px" viewBox="0 0 120 60" style="enable-background:new 0 0 120 60;" xml:space="preserve"> <style type="text/css"> .st0{fill-rule:evenodd;clip-rule:evenodd;fill:#255398;} .st1{fill-rule:evenodd;clip-rule:evenodd;fill:#FFFFFF;} </style> <g> <path class="st0" d="M93.8,46.4c9,0,16.4-7.3,16.4-16.4c0-9-7.3-16.4-16.4-16.4H26.2c-9.1,0-16.4,7.3-16.4,16.4s7.3,16.4,16.4,16.4 H93.8z"></path> <path class="st1" d="M93.6,44.4c8,0,14.4-6.5,14.4-14.4c0-8-6.4-14.4-14.4-14.4H26.4c-8,0-14.4,6.5-14.4,14.4s6.5,14.4,14.4,14.4 H93.6L93.6,44.4z"></path> <path class="st0" d="M93.6,41.4c6.3,0,11.4-5.1,11.4-11.4s-5.1-11.4-11.4-11.4H26.5c-6.3,0-11.4,5.1-11.4,11.4 c0,6.3,5.1,11.4,11.4,11.4L93.6,41.4L93.6,41.4z"></path> <path class="st1" d="M26.2,25.1h0.3c0.9,0,1.2,0.3,1.2,1.3v5c0,1-0.3,1.3-1.2,1.3h-0.3V25.1z M21.5,22.2v2.4 c0.5,0.2,0.5,0.6,0.5,1.1v6.5c0,0.4-0.1,0.9-0.5,1.1v2.4h5.9c1.3,0,2.4-0.1,3.4-1c1-1,1.1-2,1.1-3.3v-5c0-1.3-0.1-2.5-1.2-3.3 c-1-0.7-2.3-0.7-3.4-0.7H21.5L21.5,22.2L21.5,22.2z M38,29.2h-1.4v-0.4c0-0.4,0.1-1,0.7-1c0.7,0,0.7,0.6,0.7,1L38,29.2L38,29.2z M32.9,32c0,1.2,0,2.3,1.1,3c0.8,0.6,2.3,0.9,3.8,0.7c1.5-0.1,3-0.6,3.8-1.3V32H38v0.4c0,0.5,0,1.1-0.7,1.1c-0.6,0-0.7-0.6-0.7-1.1 v-0.9h5.1v-2.3c0.1-2.4-0.8-3.6-4.4-3.6c-3.4,0-4.3,1.1-4.3,3.8L32.9,32L32.9,32z M42.5,35.6v-2.4c0.5-0.3,0.5-0.8,0.5-1.3v-6 c0-0.5,0-1-0.5-1.3v-2.4h5.1v2.4c-0.5,0.3-0.5,0.8-0.5,1.3v6.8h0.4c1.1,0,1-0.6,1-1.5v-2.2h3.7v6.5H42.5L42.5,35.6L42.5,35.6z M56.8,29.3c0-0.5-0.1-1.5,0.7-1.5s0.7,0.9,0.7,1.5v2.8c0,0.5,0,1.3-0.7,1.3c-0.7,0-0.7-0.8-0.7-1.3V29.3z M61.9,29.3 c0-1.2-0.1-2.4-1.3-3.1c-0.9-0.5-2.4-0.6-3.3-0.6c-1.1,0-2.3,0.1-3.2,0.8c-0.9,0.7-0.9,1.9-0.9,2.9v2.6c0,1.3,0,2.5,1.2,3.3 c0.9,0.6,2.3,0.7,3.3,0.7c1.1,0,2.4-0.1,3.3-0.9c0.9-0.8,0.9-2,0.9-3.1L61.9,29.3L61.9,29.3z M66.8,26.4c1-0.7,1.9-0.8,2.6-0.8 c0.8,0,1.4,0.3,1.8,0.7c0.7,0.6,0.7,1.4,0.7,2.2v3.7c0,0.5,0,1,0.4,1.3v2.2h-3.9c-0.2-1-0.2-2-0.2-3.1v-2.9c0-0.1,0-0.5-0.1-0.9 c-0.3-0.4-0.7-0.7-1.3-0.4v3.7c0,0.5,0,1,0.4,1.3v2.2h-4.6v-2.2c0.5-0.3,0.5-0.7,0.5-1.2v-3c0-0.5,0-0.9-0.5-1.2v-2.2h4L66.8,26.4 L66.8,26.4z M78.5,32.8c-0.2,0.1-0.4,0.2-0.7,0.2c-0.7,0-0.7-0.9-0.7-1.4v-2.2c0-0.6,0-1.2,0.7-1.2c0.2,0,0.5,0.1,0.7,0.2 L78.5,32.8L78.5,32.8z M82.7,25.7h-4v0.6c-0.7-0.5-1.6-0.8-2.4-0.8c-2.2,0-2.7,1.3-2.7,3.5v3.7c0,2.1,1.1,3.1,2.9,3.1 c0.7,0,1.5-0.2,2.2-0.7v0.6c0,0.6,0.1,1.5-0.7,1.5c-0.3,0-0.5-0.2-0.6-0.4c-0.1-0.2-0.1-0.5-0.1-0.7h-3.4v2.4c1.4,0.8,2.7,1,4.3,1 c1.1,0,2.5-0.1,3.4-1c0.9-0.8,0.8-2.3,0.8-3.4v-5.9c0-0.5,0-0.9,0.4-1.2L82.7,25.7L82.7,25.7z M87.8,26.2c0.7-0.4,1.6-0.7,2.5-0.6 c0.8,0,1.4,0.3,1.8,0.7c0.7,0.6,0.7,1.4,0.7,2.2v3.7c0,0.5,0,1,0.4,1.3v2.2h-3.9c-0.2-1-0.2-2-0.2-3.1v-2.9c0-0.1,0-0.5-0.1-0.9 c-0.3-0.4-0.7-0.7-1.3-0.4v3.7c0,0.5,0,1,0.5,1.3v2.2h-4.6v-2.2c0.5-0.3,0.5-0.7,0.5-1.2v-6.4c0-0.5,0-1-0.5-1.3v-2.2h4.1 L87.8,26.2L87.8,26.2L87.8,26.2z M98.3,32.1c0,0.5,0,1,0.5,1.3v2.2h-4.6v-2.2c0.5-0.3,0.5-0.7,0.5-1.2v-2.9c0-0.5,0-1-0.5-1.3v-2.2 h4.1L98.3,32.1L98.3,32.1z M94.3,23.6c0-1.1,1.1-1.5,2-1.5c0.9,0,2,0.5,2,1.6c0,1-1,1.5-1.9,1.5C95.4,25.2,94.3,24.7,94.3,23.6z M33.4,23.7h7.9v0.7h-7.9V23.7z"></path> </g> </svg> 