<?xml version="1.0" encoding="UTF-8"?> <svg xmlns="http://www.w3.org/2000/svg" xmlns:xlink="http://www.w3.org/1999/xlink" version="1.1" id="Layer_1" x="0px" y="0px" viewBox="0 0 120 60" style="enable-background:new 0 0 120 60;" xml:space="preserve"> <style type="text/css"> .st0{fill:#231F20;} </style> <g id="Symbols"> <g id="Header-Desktop" transform="translate(-30.000000, -15.000000)"> <g id="logo-devolo-white"> <g transform="translate(30.000000, 15.000000)"> <polygon id="Shape" class="st0" points="58.5,27.2 61.2,27.2 54.4,37.2 51.5,37.2 49.1,27.2 52.2,27.2 53.7,34.5 "></polygon> <path class="st0" d="M98.3,35.5c0.4,0,0.6-0.1,0.7-0.5l1.4-5.4c0.1-0.5,0-0.5-0.4-0.5h-6.5c-0.4,0-0.6,0.1-0.7,0.6L91.4,35 c-0.1,0.4,0,0.5,0.4,0.5L98.3,35.5z M102,35.3c-0.5,1.9-1.1,1.9-3.5,1.9h-8.4c-1.5,0-2.2-0.6-1.8-2.2L90,29 c0.3-1.1,0.9-1.7,2.6-1.7h9.4c1.4,0,2,0.7,1.5,2.3L102,35.3z"></path> <path class="st0" d="M70.4,35.5c0.4,0,0.6-0.1,0.7-0.5l1.4-5.4c0.1-0.5,0-0.5-0.4-0.5h-6.5c-0.4,0-0.6,0.1-0.7,0.6l-1.4,5.4 c-0.1,0.4,0,0.5,0.4,0.5L70.4,35.5z M75.4,30.4l-1.3,4.9c-0.5,1.9-1.1,1.9-3.5,1.9h-8.4c-1.5,0-2.2-0.6-1.8-2.2l1.6-6.1 c0.3-1,1-1.7,2.6-1.7h9.4c1.5,0,1.9,0.9,1.6,2.1L75.4,30.4z"></path> <path class="st0" d="M80.1,35.2l2.1-8H79l-2.3,8.6c-0.2,0.7-0.1,1.4,1.2,1.4h8.9l0.5-1.8h-7.1C80,35.5,80,35.4,80.1,35.2"></path> <path class="st0" d="M28.5,29.4l-1.4,5.4c-0.1,0.5-0.2,0.6-0.6,0.6h-6.5c-0.4,0-0.4-0.1-0.3-0.5l1.4-5.4 c0.1-0.5,0.2-0.6,0.7-0.6h6.5C28.5,29,28.6,29.1,28.5,29.4z M30.3,22.8l-1.2,4.5h-8.3c-1.7,0-2.4,0.5-2.7,1.7L16.5,35 c-0.4,1.4,0,2.2,1.7,2.2h11.4l3.8-14.5H30.3z"></path> <path class="st0" d="M44.6,29.5L44,32.1h-7.5l0.6-2.4c0.1-0.5,0.3-0.6,0.7-0.6h6.4C44.7,29,44.7,29.2,44.6,29.5L44.6,29.5z M47.8,29.3c0.3-1.2-0.1-2.1-1.6-2.1H37c-1.6,0-2.5,0.5-2.8,1.7L32.7,35c-0.3,1.3-0.2,2.2,1.8,2.2h11.3l0.5-1.7H36.1 c-0.4,0-0.5-0.1-0.3-0.6l0.4-1.4h10.6L47.8,29.3z"></path> </g> </g> </g> </g> </svg> 