<?xml version="1.0" encoding="UTF-8"?> <svg xmlns="http://www.w3.org/2000/svg" xmlns:xlink="http://www.w3.org/1999/xlink" version="1.1" id="Ebene_2" x="0px" y="0px" viewBox="0 0 120 60" style="enable-background:new 0 0 120 60;" xml:space="preserve"> <g> <g> <path d="M34.4,22.1h3.9c-0.3,0.5-0.4,1-0.5,1.5s-0.1,1.2-0.1,1.9v9c0,0.9,0,1.5,0.1,2c0.1,0.5,0.3,1,0.5,1.5h-3.9 c0.3-0.5,0.4-1.1,0.6-1.5c0.1-0.5,0.1-1.2,0.1-2v-8.9c0-0.8-0.1-1.4-0.1-1.9C34.7,23.1,34.6,22.6,34.4,22.1"></path> <path d="M50.8,22.4v3.2l-2.3-2.2c-0.2-0.2-0.4-0.3-0.6-0.4C47.7,23,47.5,23,47.3,23c-1.2,0-2.2,0.5-2.8,1.8 c-0.8,1.3-1.1,3.1-1.1,5.2c0,2.3,0.4,4,1.1,5.3c0.6,1.2,1.7,1.8,3.1,1.8h0.4c0.1,0,0.2-0.1,0.4-0.1v-2.8v-0.8 c0-0.2-0.1-0.4-0.1-0.5l-0.6-1.5h3.9L51,32.8c-0.1,0.1-0.1,0.4-0.1,0.5c-0.1,0.3-0.1,0.5-0.1,0.8v3.7c-0.6,0.2-1.3,0.4-1.9,0.4 c-0.6,0.1-1.4,0.1-2.1,0.1c-1.9,0-3.3-0.6-4.5-2.1c-1-1.4-1.5-3.3-1.5-5.9c0-2.6,0.5-4.7,1.8-6.3c1.2-1.5,2.8-2.3,4.7-2.3 c0.6,0,1.2,0.1,1.8,0.1C49.6,22.1,50.2,22.2,50.8,22.4"></path> <path d="M26.3,37.9c-0.5,0.1-0.9,0.1-1.5,0.1h-4.5c0.3-0.5,0.5-1.1,0.5-1.5c0.1-0.5,0.2-1.2,0.2-2v-9c0-0.8-0.1-1.4-0.2-1.9 c-0.1-0.5-0.3-1-0.5-1.5h5h0.9c1.6,0.2,2.9,0.9,3.9,1.9c1.1,1.3,1.6,3.3,1.6,5.8c0,1.3-0.1,2.4-0.5,3.5c-0.3,1-0.8,1.9-1.4,2.8 c-0.6,0.8-1.2,1.2-2,1.5C27.5,37.7,27,37.9,26.3,37.9 M23.6,23.2v13.7h1.9c0.4,0,0.6,0,0.9-0.1c0.8-0.3,1.3-0.8,1.8-1.7 c0.6-1.2,0.9-2.9,0.9-5c0-2.4-0.3-4.2-0.9-5.3c-0.4-0.8-1-1.2-1.8-1.5c-0.4-0.1-0.8-0.1-1.2-0.1C25.1,23.2,23.6,23.2,23.6,23.2z"></path> <path d="M53.6,22.1h3.9c-0.3,0.5-0.5,1-0.5,1.5c-0.1,0.5-0.2,1.2-0.2,1.9v9c0,0.9,0.1,1.5,0.2,2c0.1,0.5,0.3,1,0.5,1.5h-3.9 c0.3-0.5,0.5-1.1,0.5-1.5c0.1-0.5,0.2-1.2,0.2-2v-8.9c0-0.8-0.1-1.4-0.2-1.9C54.1,23.1,53.9,22.6,53.6,22.1"></path> <path d="M59.6,22.1H70v3.5l-1.9-2c-0.1-0.1-0.3-0.1-0.4-0.2c-0.2-0.1-0.4-0.1-0.5-0.1H66v11.1c0,0.9,0.1,1.5,0.2,2 c0.1,0.5,0.4,1,0.5,1.5h-3.8c0.2-0.5,0.4-1.1,0.5-1.5c0.1-0.5,0.1-1.2,0.1-2V23.3h-1.1c-0.1,0-0.3,0-0.4,0.1 c-0.2,0.1-0.4,0.1-0.4,0.2l-2,2L59.6,22.1L59.6,22.1z"></path> <path d="M71.6,22.1h3.9c-0.3,0.5-0.4,0.9-0.5,1.4c-0.1,0.5-0.1,1.2-0.1,1.9v7.3c0,1.6,0.3,2.8,0.6,3.5c0.5,0.6,1.2,1,2.2,1 c0.6,0,1.2-0.2,1.7-0.5c0.5-0.3,0.8-0.6,1-1.3c0.1-0.3,0.2-0.5,0.2-0.9c0.1-0.4,0.1-0.9,0.1-1.5v-1v-6.5c0-0.8-0.1-1.3-0.1-1.9 c-0.1-0.5-0.4-1-0.5-1.5h3.1c-0.3,0.5-0.5,1-0.6,1.5c-0.1,0.5-0.1,1.2-0.1,1.9v7.2c0,0.9-0.1,1.7-0.1,2.1 c-0.1,0.5-0.2,0.9-0.4,1.2c-0.4,0.8-0.9,1.3-1.6,1.8c-0.8,0.4-1.8,0.6-2.9,0.6c-1.7,0-2.9-0.4-3.6-1.2c-0.8-0.8-1.2-2.1-1.2-3.8 v-7.9c0-0.8-0.1-1.4-0.2-1.9S71.9,22.6,71.6,22.1"></path> <path d="M92.7,22.2v3.3l-2-2c-0.2-0.3-0.4-0.4-0.6-0.4C90,23,89.7,23,89.6,23c-0.6,0-1.2,0.1-1.5,0.5c-0.4,0.4-0.6,1-0.6,1.7 c0,0.5,0.1,0.9,0.4,1.2c0.2,0.4,0.6,0.8,1.5,1.4l1.7,1.3c0.9,0.6,1.5,1.3,1.8,1.9c0.4,0.6,0.5,1.5,0.5,2.3c0,1.5-0.4,2.7-1.1,3.5 c-0.8,0.8-1.9,1.2-3.3,1.2c-0.5,0-1.1-0.1-1.7-0.2c-0.5-0.1-1.1-0.3-1.8-0.5v-3.7l2.2,2.6c0.2,0.3,0.4,0.4,0.5,0.5 c0.2,0.1,0.5,0.1,0.9,0.1c0.6,0,1.2-0.2,1.5-0.6c0.5-0.5,0.6-1,0.6-1.8c0-0.5-0.1-0.9-0.4-1.3c-0.3-0.5-0.6-0.9-1.3-1.3l-1.9-1.5 c-0.8-0.6-1.3-1.3-1.7-1.9c-0.4-0.6-0.5-1.4-0.5-2.3c0-1.5,0.4-2.6,1.2-3.2c0.8-0.8,1.9-1.1,3.3-1.1c0.5,0,0.9,0,1.4,0.1 C91.8,22,92.3,22.1,92.7,22.2"></path> <path d="M98.3,18.3c1.6,0,2.9,1.3,2.9,2.9c0,1.6-1.3,2.9-2.9,2.9c-1.6,0-2.9-1.3-2.9-2.9C95.4,19.6,96.7,18.3,98.3,18.3L98.3,18.3 z M98.3,18.8c-1.3,0-2.3,1.1-2.3,2.5c0,1.4,1.1,2.5,2.3,2.5c1.3,0,2.3-1.1,2.3-2.5S99.6,18.8,98.3,18.8L98.3,18.8z M97.8,22.9 h-0.5v-3.2c0.3-0.1,0.5-0.1,0.9-0.1c0.5,0,0.8,0.1,1,0.2c0.2,0.1,0.3,0.4,0.3,0.6c0,0.4-0.3,0.7-0.6,0.8l0,0 c0.3,0.1,0.5,0.3,0.5,0.8c0.1,0.5,0.2,0.7,0.2,0.8h-0.5c-0.1-0.1-0.2-0.4-0.2-0.8c-0.1-0.4-0.3-0.6-0.7-0.6h-0.4V22.9z M97.8,21.1 h0.4c0.4,0,0.8-0.2,0.8-0.5c0-0.3-0.2-0.6-0.8-0.6c-0.2,0-0.3,0-0.4,0V21.1z"></path> </g> <g> <path d="M103.4,46.8H12.3l-1.9-33.6h99.2L103.4,46.8z M13.8,45.2h88.2l5.6-30.4H12.1L13.8,45.2z"></path> </g> </g> </svg> 