<?xml version="1.0" encoding="UTF-8"?> <svg xmlns="http://www.w3.org/2000/svg" xmlns:xlink="http://www.w3.org/1999/xlink" version="1.1" id="Laag_1" x="0px" y="0px" viewBox="0 0 120 60" style="enable-background:new 0 0 120 60;" xml:space="preserve"> <style type="text/css"> .st0{fill:#54565A;} </style> <g> <g> <g> <g> <path class="st0" d="M106.5,26.7c-0.4-0.4-0.6-0.9-0.6-1.4c0-0.6,0.2-1,0.6-1.4c0.4-0.4,0.9-0.6,1.4-0.6c0.6,0,1,0.2,1.4,0.6 c0.4,0.4,0.6,0.9,0.6,1.4c0,0.6-0.2,1-0.6,1.4c-0.4,0.4-0.9,0.6-1.4,0.6C107.4,27.3,106.9,27.1,106.5,26.7z M106.8,24.1 c-0.3,0.3-0.5,0.7-0.5,1.2c0,0.5,0.2,0.9,0.5,1.2c0.3,0.3,0.7,0.5,1.2,0.5c0.5,0,0.9-0.2,1.2-0.5c0.3-0.3,0.5-0.7,0.5-1.2 c0-0.5-0.2-0.9-0.5-1.2c-0.3-0.3-0.7-0.5-1.2-0.5C107.5,23.6,107.1,23.7,106.8,24.1z M107.2,26.2v-2c0-0.1,0-0.1,0.1-0.1h0.6 c0.5,0,0.8,0.2,0.8,0.6c0,0.2-0.1,0.4-0.4,0.5v0c0.1,0,0.2,0.1,0.2,0.3l0.3,0.7c0,0,0,0,0,0.1c0,0-0.1,0.1-0.2,0.1h-0.1 c-0.1,0-0.2,0-0.2-0.1l-0.2-0.6c0-0.1-0.1-0.1-0.1-0.1c0,0-0.1,0-0.2,0h-0.1v0.8c0,0.1-0.1,0.1-0.2,0.1h-0.1 C107.3,26.3,107.2,26.3,107.2,26.2z M107.7,25h0.3c0.1,0,0.1,0,0.2-0.1c0-0.1,0.1-0.1,0.1-0.2c0-0.1,0-0.1-0.1-0.2 c0,0-0.1-0.1-0.2-0.1h-0.3V25z"></path> </g> </g> </g> <g> <g> <g> <path class="st0" d="M26.5,33.4c0,2.2-0.1,4.4-0.1,5c0,0,0,0-0.3,0.4c-0.3,0.4-0.8,0.7-1.3,0.9c-0.6,0.2-1.2,0.4-2,0.5 c-0.8,0.1-1.6,0.2-2.4,0.2c-0.8,0-1.6-0.1-2.3-0.2c-0.8-0.1-1.4-0.3-2-0.5c-0.6-0.2-1.1-0.5-1.4-0.9c-0.3-0.4-0.3-0.4-0.3-0.4 C14.1,37.9,14,35.9,14,34s0.2-3.8,0.3-4.4c0,0,0,0,0.3-0.4c0.3-0.4,0.7-0.7,1.3-0.9c0.6-0.2,1.2-0.4,1.9-0.5 c0.8-0.1,0.8-0.1,0.8-0.1c0.9,0,1.6-1,1.6-2.1c0-1.1-0.7-2-1.6-1.9c0,0,0,0-0.8,0.1c-0.8,0.1-1.6,0.3-2.4,0.5 c-0.8,0.2-1.4,0.5-2.1,0.8c-0.6,0.3-1.2,0.7-1.7,1.1c-0.5,0.4-0.9,0.9-1.2,1.5s-0.3,0.5-0.3,0.5c-0.1,0.7-0.2,3.1-0.2,5.3v1.1 c0,2.2,0.1,4.6,0.2,5.3c0,0,0,0,0.3,0.5c0.3,0.5,0.7,1,1.1,1.5c0.5,0.4,1.1,0.8,1.7,1.1c0.6,0.3,1.4,0.6,2.1,0.8 c0.8,0.2,1.6,0.4,2.4,0.5c0.8,0.1,1.7,0.2,2.5,0.2c0.8,0,1.7-0.1,2.5-0.2c0.8-0.1,1.6-0.3,2.4-0.5c0.8-0.2,1.5-0.5,2.1-0.8 c0.6-0.3,1.2-0.7,1.7-1.1c0.5-0.4,0.8-0.9,1.1-1.5c0.3-0.5,0.3-0.5,0.3-0.5c0.1-0.7,0.1-3.1,0.1-5.3V20c0-2.2-0.9-4.1-2-4.2 c-1.1-0.1-2,1.6-2,3.8V33.4z"></path> </g> <g> <path class="st0" d="M51.2,33.4c0,2.2-0.1,4.4-0.2,5c0,0,0,0-0.3,0.4c-0.3,0.4-0.8,0.7-1.3,0.9c-0.6,0.2-1.2,0.4-2,0.5 c-0.8,0.1-1.6,0.2-2.4,0.2c-0.8,0-1.6-0.1-2.3-0.2c-0.8-0.1-1.4-0.3-2-0.5c-0.6-0.2-1.1-0.5-1.4-0.9c-0.3-0.4-0.3-0.4-0.3-0.4 c-0.1-0.6-0.2-2.8-0.2-5v-6.2c0-2.2-0.9-3.9-2-3.8c-1.1,0.1-2,2-2,4.2v7c0,2.2,0.1,4.6,0.2,5.3c0,0,0,0,0.3,0.5 c0.3,0.5,0.7,1,1.1,1.5c0.5,0.4,1,0.8,1.7,1.1c0.6,0.3,1.4,0.6,2.1,0.8c0.8,0.2,1.6,0.4,2.4,0.5c0.8,0.1,1.7,0.2,2.5,0.2 c0.8,0,1.7-0.1,2.5-0.2c0.8-0.1,1.6-0.3,2.4-0.5c0.8-0.2,1.5-0.5,2.1-0.8c0.6-0.3,1.2-0.7,1.7-1.1c0.5-0.4,0.8-0.9,1.1-1.5 c0.3-0.5,0.3-0.5,0.3-0.5c0.1-0.7,0.1-3.1,0.1-5.3v-7c0-2.2-0.9-4.1-2-4.2c-1.1-0.1-2,1.6-2,3.8V33.4z"></path> </g> <g> <path class="st0" d="M75.9,33.4c0,2.2-0.1,4.4-0.2,5c0,0,0,0-0.3,0.4c-0.3,0.4-0.8,0.7-1.3,0.9c-0.6,0.2-1.2,0.4-2,0.5 c-0.8,0.1-1.6,0.2-2.4,0.2c-0.8,0-1.6-0.1-2.3-0.2c-0.8-0.1-1.4-0.3-2-0.5c-0.6-0.2-1.1-0.5-1.4-0.9c-0.3-0.4-0.3-0.4-0.3-0.4 c-0.1-0.6-0.2-2.8-0.2-5v-6.2c0-2.2-0.9-3.9-2-3.8c-1.1,0.1-2,2-2,4.2v7c0,2.2,0.1,4.6,0.2,5.3c0,0,0,0,0.3,0.5 c0.3,0.5,0.7,1,1.1,1.5c0.5,0.4,1,0.8,1.7,1.1c0.6,0.3,1.4,0.6,2.1,0.8c0.8,0.2,1.6,0.4,2.4,0.5c0.8,0.1,1.7,0.2,2.5,0.2 c0.8,0,1.7-0.1,2.5-0.2c0.8-0.1,1.6-0.3,2.4-0.5c0.8-0.2,1.5-0.5,2.1-0.8c0.6-0.3,1.2-0.7,1.7-1.1c0.5-0.4,0.8-0.9,1.1-1.5 c0.3-0.5,0.3-0.5,0.3-0.5c0.1-0.7,0.1-3.1,0.1-5.3v-7c0-2.2-0.9-4.1-2-4.2c-1.1-0.1-2,1.6-2,3.8V33.4z"></path> </g> <g> <path class="st0" d="M101.7,28c1.5-1.6,2-3.4,1-3.9s-3,0.2-4.5,1.8l-1.7,1.8c-1.5,1.6-4,1.6-5.5,0l-1.7-1.8 c-1.5-1.6-3.6-2.4-4.5-1.8s-0.5,2.4,1,3.9l2.5,2.6c1.5,1.6,1.5,4.2,0,5.8l-2.5,2.6c-1.5,1.6-2,3.4-1.1,4 c0.9,0.6,2.9-0.1,4.5-1.7l1.9-2c1.5-1.6,4-1.6,5.5,0l1.9,2c1.5,1.6,3.5,2.4,4.5,1.7c0.9-0.6,0.5-2.5-1.1-4l-2.5-2.6 c-1.5-1.6-1.5-4.2,0-5.8L101.7,28z"></path> </g> </g> </g> </g> </svg> 