<?xml version="1.0" encoding="UTF-8"?> <svg xmlns="http://www.w3.org/2000/svg" xmlns:xlink="http://www.w3.org/1999/xlink" version="1.1" id="Layer_1" x="0px" y="0px" viewBox="0 0 120 60" style="enable-background:new 0 0 120 60;" xml:space="preserve"> <style type="text/css"> .st0{fill:url(#SVGID_1_);} .st1{fill:#1A384F;} </style> <g> <g> <linearGradient id="SVGID_1_" gradientUnits="userSpaceOnUse" x1="10.3192" y1="20.3235" x2="30.6444" y2="40.6487" gradientTransform="matrix(1 0 0 -1 0 60.4898)"> <stop offset="2.054068e-07" style="stop-color:#1B7FC3"></stop> <stop offset="0.9961" style="stop-color:#1B2B58"></stop> </linearGradient> <path class="st0" d="M31,20.7c0,0.4-0.2,0.7-0.4,0.9c-0.2,0.2-0.5,0.3-0.8,0.3c-0.3,0-0.6-0.1-0.8-0.4l0,0 c-2.2-2.2-5.1-3.5-8.4-3.5s-6.3,1.3-8.5,3.5l0,0l0,0c-0.2,0.2-0.5,0.4-0.8,0.4c-0.3,0-0.6-0.1-0.8-0.3C10.2,21.3,10,21,10,20.6 c0-0.3,0.1-0.6,0.4-0.8l0,0c2.6-2.6,6.2-4.2,10.1-4.2c4,0,7.5,1.6,10.1,4.2l0,0l0,0C30.9,20,31,20.3,31,20.7z M30.6,38.5 c-0.2-0.2-0.5-0.3-0.8-0.3c-0.3,0-0.6,0.1-0.8,0.4l0,0c-2.2,2.2-5.1,3.5-8.4,3.5s-6.3-1.3-8.4-3.5l0,0c-0.2-0.2-0.5-0.4-0.8-0.4 c-0.3,0-0.6,0.1-0.8,0.3C10.2,38.7,10,39,10,39.3c0,0.3,0.1,0.6,0.3,0.8c0,0,0,0,0,0l0,0c2.6,2.6,6.2,4.2,10.1,4.2 s7.5-1.6,10.1-4.2l0,0l0,0c0.2-0.2,0.3-0.5,0.3-0.8C31,39,30.8,38.7,30.6,38.5z"></path> <g> <path class="st1" d="M103.4,27.6h6.6v-2.4h-6.6c-1.6,0-3,1.3-3,3s1.3,3,3,3h1.4l0,0h2.1c0.3,0,0.6,0.3,0.6,0.6s-0.3,0.6-0.6,0.6 h-6.6v2.4h6.6c1.6,0,3-1.3,3-3s-1.3-3-3-3h-1.4l0,0h-2.1c-0.3,0-0.6-0.3-0.6-0.6C102.8,27.9,103.1,27.6,103.4,27.6z"></path> <path class="st1" d="M54.4,30c0-2.7-2.1-4.8-4.8-4.8l0,0h-0.5l0,0l0,0l0,0l0,0c-2.6,0-4.8,2.2-4.8,4.8s2.1,4.8,4.8,4.8l0,0h0.5 l0,0C52.3,34.8,54.4,32.6,54.4,30z M49.6,32.4L49.6,32.4h-0.5c-1.3,0-2.4-1.1-2.4-2.4s1.1-2.4,2.4-2.4h0.5l0,0 c1.3,0,2.4,1.1,2.4,2.4S51,32.4,49.6,32.4z"></path> <path class="st1" d="M40.1,32.4h-0.6h-4.1c-1.3,0-2.4-1.1-2.4-2.4s1.1-2.4,2.4-2.4h4.1h0.6v-2.4h-4.8l0,0c-2.6,0-4.8,2.2-4.8,4.8 s2.1,4.8,4.8,4.8h4.8V32.4z"></path> <path class="st1" d="M24.5,32.4h-0.6h-4.2c-1.3,0-2.4-1.1-2.4-2.4s1.1-2.4,2.4-2.4h4.1h0.6l1.7-2.4h-6.4l0,0 c-2.6,0-4.8,2.2-4.8,4.8s2.1,4.8,4.8,4.8h6.5L24.5,32.4z"></path> <path class="st1" d="M24.1,28.8C24,28.8,24,28.8,24.1,28.8L24.1,28.8h-3.6c-0.7,0-1.2,0.5-1.2,1.2s0.5,1.2,1.2,1.2H24l0,0 c0,0,0,0,0,0c0.7,0,1.2-0.5,1.2-1.2S24.7,28.8,24.1,28.8z"></path> <path class="st1" d="M96.1,32.4h-0.6h-4.1c-1.3,0-2.4-1.1-2.4-2.4s1.1-2.4,2.4-2.4h4.1h0.6v-2.4h-4.8l0,0c-2.6,0-4.8,2.2-4.8,4.8 s2.1,4.8,4.8,4.8h4.8V32.4z"></path> <path class="st1" d="M64.4,29.9l-1,2.7l-1-2.7l-1.7-4.8h-2.5l2.9,7.9l0,0.1c0.3,0.7,0.9,1.3,1.6,1.5c0.2,0.1,0.5,0.1,0.7,0.1 s0.5,0,0.7-0.1c0.7-0.2,1.3-0.8,1.6-1.4l0.1-0.2l2.8-7.8h-2.5L64.4,29.9z"></path> <path class="st1" d="M76.5,30l1-2.7l1,2.7l1.7,4.8h2.5l-2.9-7.9l0-0.1c-0.3-0.7-0.9-1.3-1.6-1.5c-0.2-0.1-0.5-0.1-0.7-0.1 c-0.3,0-0.5,0-0.7,0.1c-0.7,0.2-1.3,0.8-1.6,1.4l-0.1,0.2l-2.8,7.8h2.5L76.5,30z"></path> </g> </g> </g> </svg> 