<?xml version="1.0" encoding="UTF-8"?> <svg xmlns="http://www.w3.org/2000/svg" xmlns:xlink="http://www.w3.org/1999/xlink" version="1.1" id="Layer_1" x="0px" y="0px" viewBox="0 0 120 120" style="enable-background:new 0 0 120 120;" xml:space="preserve"> <style type="text/css"> .st0{fill:url(#SVGID_1_);} .st1{fill:#1A384F;} </style> <g> <g> <linearGradient id="SVGID_1_" gradientUnits="userSpaceOnUse" x1="0.3826" y1="48.2902" x2="24.7728" y2="72.6805" gradientTransform="matrix(1 0 0 -1 0 120.4898)"> <stop offset="2.054068e-07" style="stop-color:#1B7FC3"></stop> <stop offset="0.9961" style="stop-color:#1B2B58"></stop> </linearGradient> <path class="st0" d="M25.2,48.8c0,0.4-0.2,0.8-0.5,1.1c-0.3,0.2-0.6,0.4-1,0.4c-0.4,0-0.7-0.2-1-0.4l0,0 c-2.6-2.6-6.2-4.2-10.1-4.2s-7.5,1.6-10.2,4.2l0,0l0,0c-0.3,0.3-0.6,0.4-1,0.4c-0.4,0-0.7-0.1-1-0.4C0.2,49.6,0,49.2,0,48.7 c0-0.4,0.2-0.8,0.4-1l0,0c3.1-3.1,7.4-5,12.2-5c4.7,0,9,2,12.1,5.1l0,0l0,0C25,48,25.2,48.4,25.2,48.8z M24.7,70.1 c-0.3-0.2-0.6-0.4-1-0.4c-0.4,0-0.7,0.2-1,0.4l0,0c-2.6,2.6-6.2,4.2-10.1,4.2S5,72.8,2.4,70.2l0,0c-0.3-0.3-0.6-0.4-1-0.4 c-0.4,0-0.7,0.1-1,0.4C0.2,70.4,0,70.8,0,71.2c0,0.4,0.2,0.7,0.4,1c0,0,0,0,0,0l0,0c3.1,3.1,7.4,5,12.1,5s9-1.9,12.1-5l0,0l0,0 c0.2-0.3,0.4-0.6,0.4-1C25.2,70.8,25,70.4,24.7,70.1z"></path> <g> <path class="st1" d="M112.1,57.1h7.9v-2.9h-7.9c-2,0-3.6,1.6-3.6,3.6s1.6,3.6,3.6,3.6h1.7l0,0h2.6c0.4,0,0.7,0.3,0.7,0.7 s-0.3,0.7-0.7,0.7h-7.9v2.9h7.9c2,0,3.6-1.6,3.6-3.6c0-2-1.6-3.6-3.6-3.6h-1.7l0,0h-2.6c-0.4,0-0.7-0.3-0.7-0.7 C111.4,57.4,111.7,57.1,112.1,57.1z"></path> <path class="st1" d="M53.3,60c0-3.2-2.6-5.8-5.7-5.8l0,0H47l0,0l0,0l0,0l0,0c-3.2,0-5.7,2.6-5.7,5.8s2.6,5.8,5.7,5.8l0,0h0.6l0,0 C50.7,65.7,53.3,63.2,53.3,60z M47.6,62.9L47.6,62.9H47c-1.6,0-2.9-1.3-2.9-2.9s1.3-2.9,2.9-2.9h0.6l0,0c1.6,0,2.9,1.3,2.9,2.9 S49.1,62.9,47.6,62.9z"></path> <path class="st1" d="M36.1,62.9h-0.8h-5c-1.6,0-2.9-1.3-2.9-2.9s1.3-2.9,2.9-2.9h5h0.8v-2.9h-5.7l0,0c-3.2,0-5.7,2.6-5.7,5.8 s2.6,5.8,5.7,5.8h5.7V62.9z"></path> <path class="st1" d="M17.5,62.9h-0.8h-5c-1.6,0-2.9-1.3-2.9-2.9s1.3-2.9,2.9-2.9h5h0.8l2-2.9h-7.7l0,0C8.6,54.2,6,56.8,6,60 s2.6,5.8,5.7,5.8h7.7L17.5,62.9z"></path> <path class="st1" d="M16.9,58.5C16.9,58.5,16.9,58.5,16.9,58.5L16.9,58.5h-4.3c-0.8,0-1.4,0.6-1.4,1.4c0,0.8,0.6,1.4,1.4,1.4h4.3 l0,0c0,0,0,0,0,0c0.8,0,1.4-0.6,1.4-1.4C18.3,59.2,17.7,58.5,16.9,58.5z"></path> <path class="st1" d="M103.4,62.9h-0.8h-5c-1.6,0-2.9-1.3-2.9-2.9s1.3-2.9,2.9-2.9h5h0.8v-2.9h-5.7l0,0c-3.2,0-5.7,2.6-5.7,5.8 s2.6,5.8,5.7,5.8h5.7V62.9z"></path> <path class="st1" d="M65.3,59.9l-1.2,3.2L63,59.9l-2.1-5.7h-3l3.4,9.5l0,0.1c0.3,0.8,1,1.5,1.9,1.8c0.3,0.1,0.6,0.1,0.9,0.1 c0.3,0,0.6,0,0.9-0.1c0.8-0.3,1.6-0.9,1.9-1.7l0.1-0.2l3.4-9.4h-3L65.3,59.9z"></path> <path class="st1" d="M79.9,60.1l1.2-3.2l1.2,3.2l2.1,5.7h3l-3.4-9.5l0-0.1c-0.3-0.8-1-1.5-1.9-1.8c-0.3-0.1-0.6-0.1-0.9-0.1 c-0.3,0-0.6,0-0.9,0.1c-0.8,0.3-1.6,0.9-1.9,1.7l-0.1,0.2l-3.4,9.4h3L79.9,60.1z"></path> </g> </g> </g> </svg> 