<?xml version="1.0" encoding="UTF-8"?> <svg xmlns="http://www.w3.org/2000/svg" xmlns:xlink="http://www.w3.org/1999/xlink" version="1.1" id="Layer_1" x="0px" y="0px" viewBox="0 0 120 60" style="enable-background:new 0 0 120 60;" xml:space="preserve"> <style type="text/css"> .st0{fill-rule:evenodd;clip-rule:evenodd;} </style> <g> <polygon class="st0" points="21.6,41.1 10.8,41.1 10.8,21.8 21.6,21.8 21.6,23.9 14,23.9 14,30.3 21,30.3 21,32.4 14,32.4 14,38.9 21.6,38.9 "></polygon> <polygon class="st0" points="83.6,41.1 72.7,41.1 72.7,21.8 83.6,21.8 83.6,23.9 75.9,23.9 75.9,30.3 82.9,30.3 82.9,32.4 75.9,32.4 75.9,38.9 83.6,38.9 "></polygon> <rect x="43.1" y="21.8" class="st0" width="3.2" height="19.3"></rect> <rect x="65" y="21.8" class="st0" width="3.2" height="19.3"></rect> <polygon class="st0" points="61.6,23.9 54,23.9 54,30.3 61,30.3 61,32.4 54,32.4 54,41.1 50.8,41.1 50.8,21.8 61.6,21.8 "></polygon> <path class="st0" d="M38.9,25.7c0,0,0.1-3.9-4.9-3.8h-8v19.3l8,0c5,0.1,4.9-3.9,4.9-3.9V25.7z M35.7,36.5c0,0-0.1,2.4-2.5,2.5l-4,0 v-15h4c2.4,0.1,2.5,2.4,2.5,2.4V36.5z"></path> <path class="st0" d="M87.8,21.8h7.3c0,0,6.2-0.2,6.3,5.3c0,4.4-5.1,4.8-5.1,4.8l4.9,9.2H98L92.6,31c0,0-0.4-0.6,0.3-0.6h2.4 c0,0,3,0,3.1-3.4c0.1-3.2-3.1-3.2-3.1-3.2h-4.2v17.2h-3.3L87.8,21.8L87.8,21.8z"></path> <path class="st0" d="M103.3,20.8c0.2-0.4,0.4-0.7,0.7-1c0.3-0.3,0.6-0.5,1-0.7c0.4-0.2,0.8-0.2,1.2-0.2s0.8,0.1,1.2,0.2 c0.4,0.2,0.7,0.4,1,0.7s0.5,0.6,0.7,1c0.2,0.4,0.2,0.8,0.2,1.2c0,0.5-0.1,0.9-0.2,1.3c-0.2,0.4-0.4,0.7-0.7,1s-0.6,0.5-1,0.7 c-0.4,0.2-0.8,0.2-1.2,0.2s-0.8-0.1-1.2-0.2s-0.7-0.4-1-0.7c-0.3-0.3-0.5-0.6-0.7-1c-0.2-0.4-0.2-0.8-0.2-1.3 C103.1,21.6,103.2,21.2,103.3,20.8 M103.8,23.1c0.1,0.3,0.3,0.6,0.5,0.9c0.2,0.2,0.5,0.4,0.8,0.6c0.3,0.1,0.6,0.2,1,0.2 c0.4,0,0.7-0.1,1-0.2c0.3-0.1,0.6-0.3,0.8-0.6c0.2-0.2,0.4-0.5,0.5-0.9c0.1-0.3,0.2-0.7,0.2-1.1c0-0.4-0.1-0.7-0.2-1.1 c-0.1-0.3-0.3-0.6-0.5-0.9c-0.2-0.2-0.5-0.4-0.8-0.6c-0.3-0.1-0.6-0.2-1-0.2c-0.4,0-0.7,0.1-1,0.2c-0.3,0.1-0.6,0.3-0.8,0.6 c-0.2,0.2-0.4,0.5-0.5,0.9c-0.1,0.3-0.2,0.7-0.2,1.1C103.6,22.4,103.7,22.8,103.8,23.1z M106.4,20.2c0.4,0,0.7,0.1,0.9,0.3 c0.2,0.2,0.3,0.4,0.3,0.8c0,0.3-0.1,0.6-0.3,0.7c-0.2,0.2-0.4,0.2-0.7,0.3l1,1.6h-0.6l-1-1.6h-0.6v1.6H105v-3.7H106.4z M106.1,21.9 c0.1,0,0.2,0,0.4,0c0.1,0,0.2,0,0.3-0.1c0.1,0,0.2-0.1,0.2-0.2c0.1-0.1,0.1-0.2,0.1-0.3c0-0.1,0-0.2-0.1-0.3c0-0.1-0.1-0.1-0.2-0.2 c-0.1,0-0.2-0.1-0.3-0.1c-0.1,0-0.2,0-0.3,0h-0.7v1.2L106.1,21.9L106.1,21.9z"></path> </g> </svg> 