<?xml version="1.0" encoding="UTF-8"?> <svg xmlns="http://www.w3.org/2000/svg" xmlns:xlink="http://www.w3.org/1999/xlink" version="1.1" id="Capa_1" x="0px" y="0px" viewBox="0 0 120 60" style="enable-background:new 0 0 120 60;" xml:space="preserve"> <style type="text/css"> .st0{fill:#1D1E1C;} </style> <g> <polygon class="st0" points="88.3,27.2 90.8,27.2 90.8,33.8 91.8,33.8 91.8,27.2 94.2,27.2 94.2,26.3 88.3,26.3 "></polygon> <path class="st0" d="M109.3,26.3l-2.8,3.6l-2.8-3.6H103v7.5h1V28l2.6,3.4c0,0,2.3-3.1,2.6-3.4v5.8h1v-7.5H109.3z"></path> <polygon class="st0" points="95.9,33.8 100.5,33.8 100.5,32.8 96.9,32.8 96.9,30.4 100.2,30.4 100.2,29.5 96.9,29.5 96.9,27.2 100.5,27.2 100.5,26.3 95.9,26.3 "></polygon> <rect x="78.7" y="26.3" class="st0" width="1" height="7.5"></rect> <path class="st0" d="M75.2,30c-0.4-0.2-0.7-0.3-1.1-0.4c-0.1,0-0.2,0-0.3-0.1c-0.3-0.1-0.7-0.2-1-0.4c-0.4-0.2-0.6-0.6-0.5-1.2 c0.1-0.4,0.4-0.6,0.8-0.7c0.8-0.2,1.6-0.2,2.3,0.3c0.1,0,0.2,0.1,0.2,0.2l0,0l0.6-0.7c-0.2-0.2-0.5-0.4-0.8-0.5 c-0.9-0.4-1.9-0.5-2.9-0.1c-0.4,0.2-0.8,0.5-1,0.9c-0.2,0.4-0.3,0.8-0.2,1.3c0,0.5,0.2,0.8,0.6,1.2c0.3,0.3,0.7,0.4,1.1,0.6 c0.2,0.1,0.4,0.1,0.6,0.2h0c0.2,0.1,0.5,0.1,0.7,0.2c0.2,0.1,0.5,0.2,0.6,0.4c0.2,0.2,0.2,0.5,0.2,0.8c0,0.3-0.2,0.6-0.4,0.8 c-0.2,0.2-0.5,0.3-0.9,0.3c-0.8,0-1.5-0.2-2.2-0.8l0,0l0,0l-0.6,0.8c0,0,0.1,0,0.1,0.1h0c0.1,0.1,0.2,0.2,0.3,0.2 c0.9,0.7,1.9,0.9,3.1,0.6c0.5-0.1,0.9-0.4,1.3-0.8c0.3-0.4,0.5-0.9,0.4-1.5C76.1,30.8,75.8,30.3,75.2,30z"></path> <path class="st0" d="M86.3,30c-0.4-0.2-0.8-0.3-1.1-0.4c-0.1,0-0.2,0-0.3-0.1c-0.3-0.1-0.7-0.2-1-0.4c-0.4-0.2-0.6-0.6-0.5-1.2 c0.1-0.4,0.4-0.6,0.8-0.7c0.8-0.2,1.6-0.2,2.3,0.3c0.1,0,0.2,0.1,0.2,0.2l0,0l0.6-0.7c-0.2-0.2-0.5-0.4-0.8-0.5 c-0.9-0.4-1.9-0.5-2.9-0.1c-0.4,0.2-0.8,0.5-1,0.9c-0.2,0.4-0.3,0.8-0.2,1.3c0,0.5,0.2,0.8,0.6,1.2c0.3,0.3,0.7,0.4,1.1,0.6 c0.2,0.1,0.4,0.1,0.6,0.2h0c0.2,0.1,0.5,0.1,0.7,0.2c0.2,0.1,0.5,0.2,0.6,0.4c0.2,0.2,0.2,0.5,0.2,0.8c0,0.3-0.2,0.6-0.4,0.8 c-0.2,0.2-0.5,0.3-0.9,0.3c-0.8,0-1.5-0.2-2.2-0.8l0,0l0,0l-0.6,0.8c0,0,0.1,0,0.1,0.1l0,0c0.1,0.1,0.2,0.2,0.3,0.2 c0.9,0.7,1.9,0.9,3.1,0.6c0.5-0.1,0.9-0.4,1.3-0.8c0.3-0.4,0.5-0.9,0.4-1.5C87.2,30.8,86.9,30.3,86.3,30z"></path> <path class="st0" d="M38.5,30.4c0.5-0.4,0.8-1,0.7-1.8c0-1-0.6-1.7-1.5-2.1c-0.5-0.2-1-0.2-1.4-0.2c-0.2,0-0.6,0-0.9,0h-1.7v7.5 h1.4v-2.7h0.1c0.2,0,0.5,0,0.7,0l2,2.7h1.6L37.4,31C37.8,30.9,38.2,30.7,38.5,30.4z M36.4,29.7c-0.3,0-0.8,0-1.2,0h-0.2v-2.1h0.6 c0.3,0,0.7,0,1,0c0.4,0,0.6,0.1,0.9,0.2c0.2,0.2,0.3,0.4,0.4,0.6c0,0.2,0,0.4-0.1,0.6c-0.1,0.2-0.3,0.4-0.6,0.4 C37,29.7,36.7,29.7,36.4,29.7z"></path> <polygon class="st0" points="26.2,33.8 31.1,33.8 31.1,32.4 27.6,32.4 27.6,30.6 30.9,30.6 30.9,29.3 27.6,29.3 27.6,27.7 31.1,27.7 31.1,26.3 26.2,26.3 "></polygon> <path class="st0" d="M48.1,29.6h-3.4v1.3h1.9c0,0.2-0.1,0.5-0.2,0.7c-0.2,0.3-0.4,0.6-0.8,0.8c-0.5,0.2-1,0.3-1.6,0.2 c-0.7-0.1-1.3-0.6-1.6-1.2c-0.3-0.6-0.4-1.4-0.2-2.2c0.2-0.6,0.6-1.1,1.1-1.4c0.5-0.2,1-0.3,1.6-0.2c0.5,0.1,1,0.3,1.3,0.6 c0,0,0.1,0.1,0.1,0.2c0,0,0,0.1,0.1,0.1l0.3,0.3l0.9-1l-0.2-0.2c-0.3-0.4-0.8-0.8-1.3-1c-0.8-0.3-1.6-0.4-2.4-0.3 c-1.4,0.3-2.4,1.1-2.9,2.4c-0.3,0.8-0.3,1.8-0.1,2.7c0.3,1,0.9,1.7,1.8,2.2c0.6,0.3,1.2,0.4,1.8,0.4c0.2,0,0.4,0,0.6,0 c1.1-0.2,1.9-0.7,2.5-1.7c0.3-0.5,0.4-1,0.5-1.7c0-0.1,0-0.3,0-0.4L48.1,29.6z"></path> <path class="st0" d="M53.8,26.7c-0.4,0.7-0.8,1.4-1.2,2.1l-0.4,0.6l-0.9-1.6c-0.2-0.3-0.4-0.6-0.5-0.9l0,0l-0.4-0.6h-1.6l1,1.6 c0.6,1,1.2,2,1.8,3c0,0.7,0,1.4,0,2.1v0.7H53v-2.9c0.6-1.1,1.3-2.2,1.9-3.3l0.8-1.4h-1.6L53.8,26.7z"></path> <polygon class="st0" points="22.2,31.3 18.5,26.3 17.3,26.3 17.3,33.8 18.7,33.8 18.7,28.8 22.4,33.7 23.6,33.8 23.6,26.3 22.2,26.3 "></polygon> <path class="st0" d="M67.1,25c-0.7,0-1.3,0.3-1.8,0.8l-2.7,2.7l-1.3-1.3c-0.5-0.5-1.2-0.8-1.8-0.8c-0.6,0-1.2,0.2-1.6,0.6 C57,28,57,29.5,58,30.5l3.8,3.8l0.8,0.8l0.8-0.8l5.2-5.2c1-1,1-2.5,0.1-3.4C68.2,25.2,67.7,25,67.1,25z M67.1,26.3 c0.2,0,0.4,0,0.6,0.2c0.4,0.4,0.3,1-0.1,1.5l-5,5l-3.6-3.6c-0.4-0.4-0.5-1.1-0.1-1.5c0.2-0.2,0.4-0.2,0.6-0.2 c0.3,0,0.6,0.1,0.8,0.4l2,2l0.2,0.2l0.2-0.2l3.5-3.5C66.4,26.5,66.8,26.3,67.1,26.3z"></path> <polygon class="st0" points="9.8,33.8 14.8,33.8 14.8,32.4 11.2,32.4 11.2,30.6 14.5,30.6 14.5,29.3 11.2,29.3 11.2,27.7 14.8,27.7 14.8,26.3 9.8,26.3 "></polygon> </g> </svg> 