<?xml version="1.0" encoding="UTF-8"?> <svg xmlns="http://www.w3.org/2000/svg" xmlns:xlink="http://www.w3.org/1999/xlink" version="1.1" id="Layer_1" x="0px" y="0px" viewBox="0 0 120 60" style="enable-background:new 0 0 120 60;" xml:space="preserve"> <style type="text/css"> .st0{opacity:0.5;} .st1{fill:#231F20;} .st2{fill-rule:evenodd;clip-rule:evenodd;fill:#231F20;} </style> <g class="st0"> <path class="st1" d="M106.2,30.4L106.2,30.4L106.2,30.4c0.4,0,0.7,0.1,1,0.4s0.4,0.6,0.4,1l0,0l0,0l0,0l0,0c0,0.4-0.1,0.7-0.4,1 s-0.6,0.4-1,0.4l0,0l0,0l0,0l0,0c-0.4,0-0.7-0.1-1-0.4c-0.2-0.2-0.4-0.6-0.4-1l0,0l0,0l0,0l0,0c0-0.4,0.1-0.7,0.4-1 C105.5,30.6,105.8,30.4,106.2,30.4L106.2,30.4L106.2,30.4L106.2,30.4z M106.2,30.7L106.2,30.7L106.2,30.7L106.2,30.7L106.2,30.7 c-0.3,0-0.6,0.1-0.8,0.3s-0.3,0.5-0.3,0.8l0,0l0,0l0,0l0,0c0,0.3,0.1,0.6,0.3,0.8s0.5,0.3,0.8,0.3l0,0l0,0l0,0l0,0 c0.3,0,0.6-0.1,0.8-0.3c0.2-0.2,0.3-0.5,0.3-0.8l0,0l0,0l0,0l0,0c0-0.3-0.1-0.6-0.3-0.8C106.8,30.8,106.5,30.7,106.2,30.7z"></path> <polygon class="st2" points="12.5,24.8 13.4,24.8 15,24.8 22.7,24.8 22.7,26.9 15,26.9 15,31.5 22.5,31.5 22.5,33.6 15,33.6 15,39.8 22.8,39.8 22.8,41.9 15,41.9 13.7,41.9 12.5,41.9 "></polygon> <path class="st2" d="M30.8,30.9c2.5,0,4.4,1.1,4.4,4.3c0,0,0,0.1,0,0.1l0,0v6.6h-2.4v-6.6h0c0.1-1.8-1-2.5-2.6-2.5 c-2.6,0-2.7,2.2-2.9,2.5v6.6H25V31.4h2.4v1.1C28.1,31.6,29.4,30.9,30.8,30.9L30.8,30.9z"></path> <path class="st2" d="M72.8,30.9c2.5,0,4.4,1.1,4.4,4.3c0,0,0,0.1,0,0.1l0,0v6.6h-2.4v-6.6h0c0.1-1.8-1-2.5-2.6-2.5 c-2.6,0-2.7,2.2-2.9,2.5v6.6H67V31.3h2.4v1.1C70.2,31.5,71.4,30.9,72.8,30.9L72.8,30.9z"></path> <path class="st2" d="M46.4,32.9h4.9c0,0,0,0,0,0h2.3c0,0,0,0,0,0c-0.2,6-3.9,9.1-8.6,9.1c-4.7,0-8.6-4-8.6-8.9 c0-4.9,3.6-8.8,8.5-8.9c3.2-0.1,5.9,1,7.4,3.4L50.8,29c-1-1.9-3.2-2.9-5.8-2.7c-3.9,0.3-6.3,3-6.3,6.7c0,3.7,2.8,6.7,6.3,6.7 c2.9,0,5.2-1.4,6-4.8h-4.6L46.4,32.9L46.4,32.9z"></path> <path class="st2" d="M57,35h6.5c-0.4-1.7-1.5-2.5-3.1-2.5C58.8,32.5,57.4,33.6,57,35L57,35z M65.6,36.7L65.6,36.7l-8.8,0 c0.2,1.8,1.7,3.2,3.5,3.2c1.4,0,3-0.8,3.5-2.1l2.1,1.1c-0.7,1.9-3.4,3.1-5.7,3.1c-3.2,0-5.7-2.6-5.7-5.7c0-3.1,2.3-5.7,5.8-5.6 c3.5,0.1,5.8,2.1,5.6,6v0L65.6,36.7L65.6,36.7z"></path> <polygon class="st2" points="79.9,31.3 82.5,31.3 82.5,41.9 79.9,41.9 "></polygon> <path class="st2" d="M81.2,26.9c0.7,0,1.3,0.6,1.3,1.3c0,0.7-0.6,1.3-1.3,1.3c-0.7,0-1.3-0.6-1.3-1.3C80,27.4,80.5,26.9,81.2,26.9 L81.2,26.9z"></path> <path class="st2" d="M95.2,37c0.2,3.5-1.8,4.9-5,4.9c-3.4,0-4.8-1.7-5-4l0-0.8l0,0l0,0v-5.9h2.4v1.5l0,4.3v0.9 c0,0.9,1.1,2.1,2.8,2.1c1.9,0,2.5-1.6,2.5-2.3v-1.2v-3.8V31h2.4L95.2,37L95.2,37z"></path> <path class="st2" d="M100.9,30.6c1.5,0,2.8,0.8,3.4,1.9l-2,1c-0.2-0.5-0.7-0.9-1.3-1c-0.7,0-1.3,0.5-1.3,1.1c0,0.5,0.8,1,1.4,1.2 c0.3,0.1,1.6,0.6,2.4,1.1c0,0,0,0,0,0c1.1,0.5,1.8,1.4,1.7,2.7c-0.3,2-1.9,3.3-4.2,3.3c-1.9,0-3.6-1-4-2.4l2.2-0.9l0,0 c0.2,0.6,0.8,1.2,1.5,1.3c0.9,0.2,1.8,0,2-1.2c0.3-1.2-1.3-1.2-2.2-1.9c-0.8-0.2-1.9-0.9-1.9-0.9c-1-0.5-1.2-1.3-1.2-2.2 C97.3,32,98.9,30.6,100.9,30.6z"></path> <path class="st2" d="M81.2,18c3.2,0,6.2,1.4,8.1,3.7l-0.6,0.5c-1.8-2.1-4.7-3.5-7.6-3.5c-3,0-5.9,1.4-7.7,3.6l-0.6-0.5 C74.8,19.5,78,18,81.2,18L81.2,18z M81.2,23.4c1.6,0,2.9,0.8,3.7,2.1L84.3,26l0,0c-0.6-1.1-1.8-1.8-3.1-1.8c-1.4,0-2.5,0.8-3.1,1.9 l-0.6-0.5C78.2,24.3,79.6,23.4,81.2,23.4L81.2,23.4z M81.2,20.7c-2.4,0-4.6,1.2-6,3l0.6,0.5c1.2-1.6,3.2-2.7,5.4-2.7 c2.1,0,4.1,1.1,5.2,2.7l0.6-0.5C85.7,21.9,83.5,20.7,81.2,20.7z"></path> <path class="st1" d="M105.6,32.6V31h0.7c0.1,0,0.2,0,0.3,0c0.1,0,0.1,0.1,0.2,0.1c0,0.1,0.1,0.1,0.1,0.2c0,0.1,0,0.2-0.1,0.3 c-0.1,0.1-0.2,0.1-0.3,0.1c0,0,0.1,0,0.1,0.1c0,0,0.1,0.1,0.2,0.2l0.2,0.4h-0.2l-0.2-0.3c0-0.1-0.1-0.2-0.1-0.2 c0,0-0.1-0.1-0.1-0.1c0,0,0,0-0.1,0c0,0-0.1,0-0.1,0h-0.2v0.7L105.6,32.6L105.6,32.6z M105.8,31.7h0.4c0.1,0,0.2,0,0.2,0 c0,0,0.1,0,0.1-0.1s0-0.1,0-0.1c0-0.1,0-0.1-0.1-0.2c0,0-0.1-0.1-0.2-0.1h-0.5L105.8,31.7L105.8,31.7z"></path> </g> </svg> 