<?xml version="1.0" encoding="UTF-8"?> <svg xmlns="http://www.w3.org/2000/svg" xmlns:xlink="http://www.w3.org/1999/xlink" version="1.1" id="Layer_1" x="0px" y="0px" viewBox="0 0 120 120" style="enable-background:new 0 0 120 120;" xml:space="preserve"> <style type="text/css"> .st0{fill:none;} .st1{fill:#1C1C1A;} .st2{fill:#10218B;} </style> <path class="st0" d="z"></path> <g> <path class="st1" d="M0,72.1h5.1v1.1H1.2V75h3.6v1H1.2V78h3.9v1.1H0V72.1z M6.1,72.1h1.5l1.6,2.5l1.7-2.5h1.4l-2.3,3.4l2.5,3.6 h-1.5l-1.8-2.7l-1.8,2.7H6l2.5-3.6L6.1,72.1L6.1,72.1z M18,74.3c-0.2-0.8-0.7-1.4-1.8-1.4c-1.5,0-2.1,1.3-2.1,2.7 c0,1.3,0.6,2.7,2.1,2.7c1.1,0,1.7-0.8,1.8-1.8h1.2c-0.1,1.7-1.3,2.8-3,2.8c-2.1,0-3.4-1.7-3.4-3.7c0-2,1.3-3.7,3.4-3.7 c1.6,0,2.8,0.9,3,2.4L18,74.3L18,74.3L18,74.3z M21,72.1h5.1v1.1h-3.8V75h3.6v1h-3.6V78h3.9v1.1H21V72.1z M28.1,72.1h5.1v1.1h-3.8 V75h3.6v1h-3.6V78h3.9v1.1h-5.1V72.1z M35.1,72.1H38c2.2,0,3.1,1.6,3.1,3.5c0,1.9-0.9,3.5-3.1,3.5h-2.9L35.1,72.1L35.1,72.1z M36.3,78.1h1.2c1.9,0,2.3-1.1,2.3-2.5c0-1.4-0.4-2.5-2.3-2.5h-1.2V78.1L36.3,78.1z M47.4,76.3l-2.6-4.3h1.4l1.9,3.1l1.8-3.1h1.4 l-2.6,4.3v2.8h-1.2L47.4,76.3L47.4,76.3L47.4,76.3z M58.2,75.6c0,2-1.3,3.7-3.4,3.7c-2.1,0-3.4-1.7-3.4-3.7c0-2,1.3-3.7,3.4-3.7 C57,71.9,58.2,73.6,58.2,75.6L58.2,75.6z M52.7,75.6c0,1.3,0.6,2.7,2.1,2.7c1.5,0,2.1-1.3,2.1-2.7c0-1.3-0.6-2.7-2.1-2.7 C53.4,72.9,52.7,74.2,52.7,75.6L52.7,75.6z M59.7,72.1H61v4.1c0,0.9,0.1,2,1.7,2c1.6,0,1.7-1.1,1.7-2v-4.1h1.2v4.5 c0,1.8-1.2,2.7-2.9,2.7c-1.7,0-2.9-0.9-2.9-2.7L59.7,72.1L59.7,72.1z M67.4,72.1h3.4c1.5,0,2.3,0.7,2.3,1.9c0,1.3-0.9,1.7-1.2,1.8 v0c0.4,0.1,1,0.4,1,1.5c0,0.8,0.1,1.6,0.4,1.8h-1.3c-0.2-0.3-0.2-0.7-0.2-1c0-1.3-0.3-1.9-1.4-1.9h-1.8v2.9h-1.2V72.1z M68.7,75.3 h2c0.8,0,1.2-0.4,1.2-1.1c0-0.9-0.6-1.1-1.2-1.1h-2V75.3z M77.6,72.1h1.3l1.8,5.5h0l1.8-5.5h1.3l-2.4,7h-1.4L77.6,72.1L77.6,72.1z M85,72.1h1.2v7H85V72.1z M89,76.8c0,1.1,0.8,1.5,1.8,1.5c1.1,0,1.5-0.5,1.5-1.1c0-0.5-0.3-0.8-0.6-0.9c-0.5-0.2-1.1-0.3-2.1-0.6 c-1.2-0.3-1.6-1-1.6-1.8c0-1.4,1.3-2.1,2.6-2.1c1.5,0,2.7,0.8,2.7,2.2h-1.2c-0.1-0.9-0.7-1.2-1.5-1.2c-0.6,0-1.3,0.2-1.3,0.9 c0,0.5,0.3,0.8,0.8,0.9c0.1,0,1.7,0.4,2,0.5c0.9,0.3,1.4,1.1,1.4,1.8c0,1.6-1.4,2.2-2.8,2.2c-1.6,0-2.9-0.8-2.9-2.5L89,76.8 L89,76.8z M95.2,72.1h1.2v7h-1.2V72.1z M104.8,75.6c0,2-1.3,3.7-3.4,3.7c-2.1,0-3.4-1.7-3.4-3.7c0-2,1.3-3.7,3.4-3.7 C103.5,71.9,104.8,73.6,104.8,75.6L104.8,75.6z M99.3,75.6c0,1.3,0.6,2.7,2.1,2.7c1.5,0,2.1-1.3,2.1-2.7c0-1.3-0.6-2.7-2.1-2.7 C99.9,72.9,99.3,74.2,99.3,75.6L99.3,75.6z M106.4,72.1h1.3l3.2,5.2h0v-5.2h1.2v7h-1.3l-3.2-5.2h0v5.2h-1.2L106.4,72.1L106.4,72.1z "></path> <path class="st2" d="M77.6,40.7c-7.6,0-12,5.7-12,13.4c0,7.8,4.4,13.4,12,13.4c7.6,0,12-5.7,12-13.4C89.6,46.4,85.2,40.7,77.6,40.7 z M77.6,63.1c-4.8,0-6.7-4.4-6.7-8.9c0-4.5,1.9-8.9,6.7-8.9c4.8,0,6.7,4.4,6.7,8.9C84.3,58.6,82.4,63.1,77.6,63.1L77.6,63.1z M0,41.5h19V46H5.3v5.6h12.8V56H5.3v6.3H19v4.5H0V41.5z M21.3,66.8h5.3v-7.6h4.8c6.5,0,10.8-3.2,10.8-8.9c0-5.7-4.4-8.9-10.8-8.9 H21.3L21.3,66.8L21.3,66.8z M31.4,54.7h-4.8V46h4.8c3.3,0,5.5,1.4,5.5,4.4C36.9,53.3,34.7,54.7,31.4,54.7L31.4,54.7z M97,41.5h-5.4 v25.3h5.2V56.6c0-2.8-0.1-5.3-0.2-7.5c0.6,1.3,2.5,5.1,3.3,6.5l6.8,11.3h5.4V41.5h-5.2v10c0,2.8,0.1,5.6,0.2,7.8 c-0.6-1.3-2.5-5.1-3.3-6.5L97,41.5z M48.3,58.4c0,3.4,2.8,4.7,5.9,4.7c2,0,5.2-0.6,5.2-3.2c0-2.8-3.9-3.3-7.7-4.3 c-4-1-7.8-2.5-7.8-7.2c0-5.2,5-7.7,9.6-7.7c5.4,0,10.3,2.3,10.3,8.2h-5.3c-0.2-3.1-2.6-3.9-5.3-3.9c-1.8,0-4.1,0.8-4.1,2.9 c0,2,1.3,2.3,7.7,3.9c1.9,0.5,7.8,1.6,7.8,7.4c0,4.7-3.7,8.2-10.7,8.2c-5.7,0-11-2.8-11-9.1L48.3,58.4L48.3,58.4z M114.6,44 c0-1.4,1.1-2.5,2.6-2.5c1.4,0,2.5,1.1,2.5,2.5c0,1.4-1.1,2.5-2.5,2.5C115.8,46.6,114.6,45.4,114.6,44z M117.2,46.8 c1.5,0,2.8-1.2,2.8-2.8c0-1.5-1.3-2.8-2.8-2.8c-1.5,0-2.8,1.2-2.8,2.8C114.4,45.6,115.7,46.8,117.2,46.8L117.2,46.8z"></path> <path class="st2" d="M117.5,43.9c0.3,0,0.5-0.2,0.5-0.6c0-0.4-0.3-0.6-0.5-0.6h-0.9v2.8H116v-3.3h1.4c0.7,0,1.1,0.4,1.1,1 c0,0.5-0.4,0.9-0.7,0.9l0.9,1.3h-0.7l-1.1-1.7H117.5L117.5,43.9z"></path> </g> <path class="st0" d="z"></path> </svg> 