<?xml version="1.0" encoding="UTF-8"?> <svg xmlns="http://www.w3.org/2000/svg" xmlns:xlink="http://www.w3.org/1999/xlink" version="1.1" id="Layer_1" x="0px" y="0px" viewBox="0 0 120 60" style="enable-background:new 0 0 120 60;" xml:space="preserve"> <style type="text/css"> .st0{fill:none;} .st1{fill:#1C1C1A;} .st2{fill:#10218B;} </style> <g> <path class="st1" d="M10,40.1h4.2V41H11v1.5h3v0.8h-3V45h3.3v0.9H10V40.1z M15.1,40.1h1.2l1.3,2.1l1.4-2.1h1.2l-1.9,2.8l2.1,3h-1.3 l-1.5-2.2l-1.5,2.2H15l2.1-3L15.1,40.1L15.1,40.1z M25,41.9c-0.2-0.7-0.6-1.2-1.5-1.2c-1.3,0-1.8,1.1-1.8,2.2 c0,1.1,0.5,2.2,1.8,2.2c0.9,0,1.4-0.7,1.5-1.5h1c-0.1,1.4-1.1,2.4-2.5,2.4c-1.8,0-2.8-1.4-2.8-3.1c0-1.7,1.1-3.1,2.8-3.1 c1.3,0,2.4,0.7,2.5,2L25,41.9L25,41.9L25,41.9z M27.5,40.1h4.2V41h-3.2v1.5h3v0.8h-3V45h3.3v0.9h-4.3V40.1z M33.4,40.1h4.2V41h-3.2 v1.5h3v0.8h-3V45h3.3v0.9h-4.3V40.1z M39.2,40.1h2.4c1.8,0,2.6,1.3,2.6,2.9c0,1.6-0.8,2.9-2.6,2.9h-2.4L39.2,40.1L39.2,40.1z M40.2,45.1h1c1.6,0,2-0.9,2-2.1c0-1.2-0.3-2.1-2-2.1h-1V45.1L40.2,45.1z M49.5,43.6l-2.2-3.5h1.2l1.6,2.6l1.5-2.6h1.2l-2.2,3.5 v2.3h-1L49.5,43.6L49.5,43.6L49.5,43.6z M58.5,43c0,1.7-1.1,3.1-2.8,3.1c-1.8,0-2.8-1.4-2.8-3.1c0-1.7,1.1-3.1,2.8-3.1 C57.5,39.9,58.5,41.3,58.5,43L58.5,43z M53.9,43c0,1.1,0.5,2.2,1.8,2.2c1.3,0,1.8-1.1,1.8-2.2c0-1.1-0.5-2.2-1.8-2.2 C54.5,40.8,53.9,41.9,53.9,43L53.9,43z M59.8,40.1h1v3.4c0,0.8,0.1,1.7,1.4,1.7c1.3,0,1.4-0.9,1.4-1.7v-3.4h1v3.7 c0,1.5-1,2.2-2.4,2.2c-1.4,0-2.4-0.7-2.4-2.2L59.8,40.1L59.8,40.1z M66.2,40.1H69c1.3,0,1.9,0.6,1.9,1.6c0,1.1-0.8,1.4-1,1.5v0 c0.4,0,0.9,0.3,0.9,1.2c0,0.7,0.1,1.3,0.3,1.5h-1.1c-0.2-0.3-0.2-0.6-0.2-0.9c0-1.1-0.2-1.5-1.2-1.5h-1.5v2.4h-1V40.1z M67.2,42.7 h1.7c0.6,0,1-0.3,1-0.9c0-0.7-0.5-0.9-1-0.9h-1.7V42.7z M74.6,40.1h1.1l1.5,4.6h0l1.5-4.6h1l-2,5.8h-1.1L74.6,40.1L74.6,40.1z M80.8,40.1h1v5.8h-1V40.1z M84.2,44c0,0.9,0.7,1.3,1.5,1.3c0.9,0,1.2-0.4,1.2-0.9c0-0.4-0.2-0.6-0.5-0.7c-0.4-0.2-0.9-0.3-1.8-0.5 c-1-0.3-1.3-0.9-1.3-1.5c0-1.2,1.1-1.7,2.1-1.7c1.2,0,2.3,0.6,2.3,1.9h-1c0-0.8-0.6-1-1.3-1c-0.5,0-1.1,0.2-1.1,0.8 c0,0.4,0.3,0.6,0.7,0.8c0.1,0,1.4,0.4,1.7,0.4c0.8,0.2,1.1,0.9,1.1,1.5c0,1.3-1.2,1.8-2.3,1.8c-1.3,0-2.4-0.6-2.5-2.1L84.2,44 L84.2,44z M89.3,40.1h1v5.8h-1V40.1z M97.3,43c0,1.7-1.1,3.1-2.8,3.1c-1.8,0-2.8-1.4-2.8-3.1c0-1.7,1-3.1,2.8-3.1 C96.3,39.9,97.3,41.3,97.3,43L97.3,43z M92.7,43c0,1.1,0.5,2.2,1.8,2.2c1.3,0,1.8-1.1,1.8-2.2c0-1.1-0.5-2.2-1.8-2.2 C93.2,40.8,92.7,41.9,92.7,43L92.7,43z M98.7,40.1h1.1l2.7,4.3h0v-4.3h1v5.8h-1.1l-2.7-4.3h0v4.3h-1L98.7,40.1L98.7,40.1z"></path> <path class="st2" d="M74.7,13.9c-6.3,0-10,4.7-10,11.2c0,6.5,3.7,11.2,10,11.2c6.3,0,10-4.7,10-11.2C84.6,18.7,81,13.9,74.7,13.9z M74.7,32.6c-4,0-5.6-3.7-5.6-7.4c0-3.7,1.6-7.4,5.6-7.4c4,0,5.6,3.7,5.6,7.4C80.2,28.9,78.7,32.6,74.7,32.6L74.7,32.6z M10,14.6 h15.9v3.8H14.4V23h10.7v3.7H14.4v5.2h11.5v3.8H10V14.6z M27.8,35.7h4.4v-6.3h4c5.4,0,9-2.6,9-7.4c0-4.7-3.6-7.4-9-7.4h-8.4 L27.8,35.7L27.8,35.7z M36.2,25.6h-4v-7.3h4c2.8,0,4.6,1.2,4.6,3.6C40.8,24.4,38.9,25.6,36.2,25.6L36.2,25.6z M90.9,14.6h-4.5v21.1 h4.3v-8.5c0-2.3-0.1-4.4-0.2-6.3c0.5,1.1,2.1,4.2,2.8,5.4l5.6,9.4h4.5V14.6h-4.3v8.3c0,2.3,0.1,4.6,0.2,6.5 c-0.5-1.1-2.1-4.2-2.8-5.4L90.9,14.6z M50.2,28.7c0,2.8,2.4,3.9,4.9,3.9c1.7,0,4.3-0.5,4.3-2.7c0-2.3-3.3-2.7-6.4-3.6 c-3.3-0.9-6.5-2.1-6.5-6c0-4.4,4.1-6.5,8-6.5c4.5,0,8.6,1.9,8.6,6.9h-4.4c-0.2-2.6-2.1-3.2-4.4-3.2c-1.5,0-3.4,0.6-3.4,2.4 c0,1.6,1.1,1.9,6.5,3.3c1.6,0.4,6.5,1.3,6.5,6.2c0,3.9-3.1,6.8-8.9,6.8c-4.7,0-9.2-2.3-9.1-7.6L50.2,28.7L50.2,28.7z M105.5,16.7 c0-1.2,1-2.1,2.1-2.1c1.2,0,2.1,0.9,2.1,2.1c0,1.2-0.9,2.1-2.1,2.1C106.5,18.8,105.5,17.9,105.5,16.7z M107.7,19 c1.3,0,2.3-1,2.3-2.3c0-1.3-1-2.3-2.3-2.3c-1.3,0-2.3,1-2.3,2.3C105.3,18,106.4,19,107.7,19L107.7,19z"></path> <path class="st2" d="M107.9,16.6c0.2,0,0.5-0.2,0.5-0.5c0-0.3-0.2-0.5-0.5-0.5h-0.7V18h-0.5v-2.7h1.2c0.6,0,0.9,0.4,0.9,0.8 c0,0.4-0.3,0.7-0.6,0.8L109,18h-0.6l-0.9-1.4H107.9L107.9,16.6z"></path> </g> </svg> 