<?xml version="1.0" encoding="UTF-8"?> <svg xmlns="http://www.w3.org/2000/svg" xmlns:xlink="http://www.w3.org/1999/xlink" version="1.1" id="Layer_1" x="0px" y="0px" viewBox="0 0 120 60" style="enable-background:new 0 0 120 60;" xml:space="preserve"> <style type="text/css"> .st0{fill:#008DA0;} .st1{fill:#FFFFFF;} </style> <g> <g id="ESET_sign"> <g> <g> <path class="st0" d="M40.7,23.3c2,0,3.8,1,4.9,2.7c0.8,1.4,1,3.8,1,5.4c0,1.6-0.2,3.9-1,5.4c-1.1,1.7-2.9,2.7-4.9,2.7h-31 c-2,0-3.8-1-4.9-2.7c-0.8-1.4-1-3.8-1-5.4s0.2-3.9,1-5.4c1.1-1.7,2.9-2.7,4.9-2.7H40.7z"></path> <path class="st1" d="M30.3,30.4c0-1,0.2-1.4,1.3-1.4c0.9,0,1.3,0.1,1.3,1.3v0.1L30.3,30.4 M12,29.1c-1,0-1.2,0.3-1.2,1.3h2.6 v-0.1C13.3,29.2,12.8,29.1,12,29.1 M8.4,31.4c0-2.9,0.6-3.8,3.7-3.8c2.8,0,3.6,0.8,3.6,3.8v0.4h-4.9v0.1c0,1.3,0.2,1.8,1.3,1.8 c0.7,0,1.3-0.1,1.3-0.9h2.3c0,1.1-0.4,1.7-1,2.1c-0.6,0.4-1.5,0.4-2.6,0.4C9.1,35.2,8.4,34.2,8.4,31.4 M17.2,29.9 c0-2.4,1.5-2.4,3.7-2.4c1.4,0,3.3,0,3.3,1.8v0.3H22C21.8,29,21.4,29,20.9,29c-1.3,0-1.4,0.2-1.4,0.7c0,0.4,0.1,0.7,1.4,0.7 c2.6,0.1,3.7,0.2,3.7,2.3c0,2.2-1.7,2.5-3.7,2.5c-0.5,0-1,0-1.4,0c-1.5-0.1-2.2-0.7-2.3-2.3h2.4c0,0.8,0.7,0.9,1.3,0.9 c1.1,0,1.4-0.1,1.4-0.7c0-0.4-0.1-0.6-0.4-0.7c-0.3-0.1-0.7-0.1-1-0.1C17.7,32.1,17.2,31.4,17.2,29.9 M36.7,29.2h1.7v5.9h2.4 v-5.9h1.7v-1.7h-5.8L36.7,29.2z M28,31.3c0,2.8,0.7,3.8,3.6,3.8c1.1,0,2-0.1,2.6-0.4c0.6-0.4,1-0.9,1-2h-2.3 c0,0.8-0.6,0.9-1.3,0.9c-1.1,0-1.3-0.5-1.3-1.8v-0.1h4.9v-0.3c0-3.1-0.8-3.8-3.6-3.8C28.6,27.5,28,28.4,28,31.3 M6.6,36.5 c0.8,0.8,2.2,1.4,3.4,1.4h16V24.7h-16c-1.2,0-2.7,0.6-3.4,1.4c-1.2,1.3-1.4,3.3-1.4,5.2C5.2,33.2,5.4,35.2,6.6,36.5"></path> </g> <g> <path class="st0" d="M43.9,22.4c0,0.5,0.2,0.9,0.5,1.2c0.7,0.7,1.8,0.7,2.4,0c0.3-0.3,0.5-0.8,0.5-1.2v0c0-0.5-0.2-0.9-0.5-1.2 c-0.3-0.3-0.8-0.5-1.2-0.5l0,0c-0.5,0-0.9,0.2-1.2,0.5C44.1,21.5,43.9,21.9,43.9,22.4z M45.7,21c0.4,0,0.7,0.1,0.9,0.4 c0.3,0.3,0.4,0.6,0.4,1c0,0.4-0.1,0.7-0.4,1c-0.2,0.3-0.6,0.4-0.9,0.4c-0.4,0-0.7-0.1-1-0.4c-0.3-0.3-0.4-0.6-0.4-1 c0-0.4,0.1-0.7,0.4-1C45,21.2,45.3,21,45.7,21z"></path> <path class="st0" d="M45.4,22.6h0.2l0.5,0.6h0.5L46,22.5c0.1,0,0.2-0.1,0.3-0.2c0.1-0.1,0.1-0.2,0.1-0.3c0-0.1,0-0.2-0.1-0.2 c0-0.1-0.1-0.1-0.2-0.2c-0.1,0-0.1-0.1-0.2-0.1c-0.1,0-0.2,0-0.3,0H45v1.7h0.4L45.4,22.6z M45.4,21.8h0.1c0.1,0,0.1,0,0.2,0 c0,0,0.1,0,0.1,0c0,0,0.1,0,0.1,0.1c0,0,0,0.1,0,0.1c0,0,0,0.1,0,0.1c0,0,0,0.1-0.1,0.1c0,0-0.1,0-0.1,0.1c-0.1,0-0.1,0-0.2,0 h-0.1L45.4,21.8z"></path> </g> </g> </g> <g id="typo_DSPP"> <path class="st0" d="M53,25.6h1.1c1.3,0,2.3,0.7,2.3,2c0,1.4-0.9,2-2.2,2H53V25.6z M54.2,29.3c1.1,0,1.7-0.5,1.7-1.6 c0-1.2-0.7-1.7-1.8-1.7h-0.6v3.3H54.2z M57.2,26.6h0.5v3.1h-0.5V26.6z M57.2,25.3h0.5v0.5h-0.5V25.3z M58.8,30.9l0.1-0.4 c0.3,0.1,0.6,0.1,0.8,0.1c0.5,0,0.9-0.1,0.9-0.8v-0.3c-0.2,0.2-0.5,0.3-0.7,0.3c-0.7,0-1.4-0.2-1.4-1.6c0-1.1,0.7-1.7,1.5-1.7 c0.4,0,0.7,0,1.1,0.1v3.3c0,0.8-0.5,1.1-1.3,1.1C59.5,31,59.1,31,58.8,30.9L58.8,30.9z M60.6,29.1v-2.2c-0.2,0-0.4-0.1-0.6-0.1 c-0.8,0-1,0.6-1,1.3c0,0.9,0.3,1.2,1,1.2C60.2,29.4,60.4,29.3,60.6,29.1L60.6,29.1z M62.1,26.6h0.5v3.1h-0.5V26.6z M62.2,25.3h0.5 v0.5h-0.5V25.3z M63.8,28.8v-1.9h-0.5v-0.4h0.5v-0.6h0.4v0.6h1v0.4h-1v1.9c0,0.5,0.1,0.5,0.6,0.5c0.2,0,0.3,0,0.5-0.1l0.1,0.4 c-0.2,0.1-0.4,0.1-0.6,0.1C64.3,29.8,63.8,29.7,63.8,28.8z M65.8,28.9c0-0.8,0.7-0.9,1.2-0.9l0.7,0v-0.4c0-0.5-0.2-0.6-0.8-0.6 c-0.3,0-0.5,0.1-0.8,0.1l-0.1-0.4c0.3-0.1,0.7-0.2,1-0.2c0.7,0,1.1,0.2,1.1,0.8v1.7c0,0.2,0.2,0.3,0.3,0.3l0,0.4h-0.1 c-0.3,0-0.6-0.1-0.6-0.4c-0.3,0.3-0.7,0.4-1.1,0.4C66.1,29.7,65.8,29.4,65.8,28.9L65.8,28.9z M67.7,29v-0.8l-0.8,0 c-0.5,0-0.8,0.3-0.8,0.6c0,0.4,0.2,0.6,0.6,0.6C67.1,29.3,67.5,29.2,67.7,29L67.7,29z M69.4,25.4h0.5v4.3h-0.5V25.4z M71.9,29.5 l0.2-0.4c0.3,0.1,0.6,0.2,1,0.2c0.5,0,1-0.2,1-0.7c0-1-2-0.8-2-2.1c0-0.7,0.6-1,1.2-1c0.3,0,0.7,0.1,1,0.2l-0.1,0.4 C73.8,26,73.5,26,73.2,26c-0.4,0-0.8,0.2-0.8,0.6c0,0.9,2,0.8,2,2.1c0,0.8-0.6,1.1-1.4,1.1C72.6,29.8,72.2,29.7,71.9,29.5 L71.9,29.5z M75.1,28.2c0-1.3,0.6-1.7,1.4-1.7c0.8,0,1.1,0.5,1.1,1.6v0.2h-2.1c0,1,0.5,1.2,1.2,1.2c0.3,0,0.5-0.1,0.8-0.1l0.1,0.4 c-0.3,0.1-0.7,0.2-1,0.1C75.7,29.8,75.1,29.4,75.1,28.2L75.1,28.2z M77.1,27.9c0-0.6-0.2-1.1-0.7-1.1c-0.5,0-0.8,0.4-0.9,1.1H77.1 z M78.2,28.1c0-1,0.6-1.7,1.5-1.7c0.3,0,0.6,0,0.9,0.2L80.4,27c-0.2-0.1-0.5-0.2-0.7-0.2c-0.6,0-1,0.5-1,1.3 c0,0.9,0.3,1.2,1.2,1.2c0.2,0,0.4,0,0.6-0.1l0.1,0.4c-0.2,0.1-0.5,0.1-0.7,0.1C78.7,29.7,78.2,29.3,78.2,28.1L78.2,28.1z M81.3,28.6v-2h0.5v1.9c0,0.5,0,0.9,0.6,0.9c0.4,0,0.9-0.3,1-0.4v-2.4h0.4v3.1h-0.4v-0.4c-0.2,0.2-0.6,0.4-1.1,0.4 C81.3,29.8,81.3,29.1,81.3,28.6L81.3,28.6z M84.8,26.6h0.5V27c0.2-0.3,0.5-0.5,0.9-0.5c0.1,0,0.2,0,0.4,0.1l-0.1,0.4 c-0.1,0-0.2,0-0.4,0c-0.3,0-0.6,0.2-0.8,0.5v2.3h-0.5L84.8,26.6z M87.1,26.6h0.5v3.1h-0.5L87.1,26.6z M87.1,25.3h0.5v0.5h-0.5 V25.3z M88.7,28.8v-1.9h-0.5v-0.4h0.5v-0.6h0.4v0.6h1v0.4h-1v1.9c0,0.5,0.1,0.5,0.6,0.5c0.2,0,0.3,0,0.5-0.1l0.1,0.4 c-0.2,0.1-0.4,0.1-0.6,0.1C89.2,29.8,88.7,29.7,88.7,28.8z M91.8,29.7h-0.2l-1-3.1h0.5l0.7,2.2l0.2,0.6l0.2-0.6l0.8-2.3h0.5 L91.8,31h-0.4L91.8,29.7z M53,32.5h1.7c1,0,1.7,0.6,1.7,1.5c0,0.9-0.7,1.6-2,1.6h-0.4v1.4H53V32.5z M54.4,35c0.7,0,1-0.3,1-0.9 c0-0.5-0.2-0.9-0.9-0.9h-0.6V35L54.4,35z M56.9,33.6h0.9V34c0.2-0.3,0.6-0.5,0.9-0.5c0.2,0,0.3,0,0.5,0.1l-0.1,0.7 c-0.1,0-0.3,0-0.5,0c-0.3,0-0.6,0.2-0.8,0.4v2.5h-0.9V33.6z M59.3,35.4c0-1.2,0.7-1.9,1.8-1.9c1.2,0,1.7,0.7,1.7,1.9 c0,1.2-0.7,1.8-1.8,1.8C59.9,37.2,59.3,36.5,59.3,35.4L59.3,35.4z M61.9,35.3c0-0.6-0.2-1.2-0.9-1.2c-0.7,0-0.9,0.6-0.9,1.2 c0,0.7,0.2,1.1,0.9,1.1C61.8,36.5,61.9,36,61.9,35.3L61.9,35.3z M63.6,38.4l0.1-0.7c0.4,0.1,0.7,0.1,1.1,0.1 c0.5,0,0.9-0.1,0.9-0.7v-0.2c-0.2,0.1-0.4,0.2-0.7,0.2c-0.8,0-1.7-0.2-1.7-1.8c0-1.2,0.8-1.9,1.9-1.9c0.5,0,0.9,0.1,1.4,0.2v3.6 c0,1-0.8,1.3-1.6,1.3C64.5,38.5,64.1,38.5,63.6,38.4L63.6,38.4z M65.8,36.3v-2.1c-0.2,0-0.4-0.1-0.5-0.1c-0.7,0-1,0.5-1,1.2 c0,0.8,0.3,1.1,0.9,1.1C65.4,36.5,65.6,36.4,65.8,36.3L65.8,36.3z M67.6,33.6h0.9V34c0.2-0.3,0.6-0.5,0.9-0.5c0.2,0,0.3,0,0.5,0.1 l-0.1,0.7c-0.1,0-0.3,0-0.5,0c-0.3,0-0.6,0.2-0.8,0.4v2.5h-0.9V33.6z M70,35.4c0-1.4,0.7-1.9,1.7-1.9c1,0,1.4,0.7,1.4,1.8v0.3 h-2.3c0,0.8,0.5,0.9,1.1,0.9c0.3,0,0.6-0.1,1-0.1l0.1,0.7c-0.4,0.1-0.8,0.2-1.2,0.2C70.7,37.2,70,36.8,70,35.4z M72.3,35 c0-0.5-0.2-0.9-0.6-0.9c-0.4,0-0.7,0.3-0.8,0.9H72.3z M73.7,37l0.1-0.7c0.3,0.1,0.7,0.1,1,0.1c0.5,0,0.7-0.2,0.7-0.4 c0-0.5-1.8-0.3-1.8-1.6c0-0.7,0.6-1.1,1.4-1.1c0.4,0,0.7,0.1,1.1,0.2l-0.1,0.6c-0.3-0.1-0.6-0.1-0.9-0.1c-0.4,0-0.5,0.2-0.5,0.3 c0,0.6,1.8,0.4,1.8,1.6c0,0.9-0.9,1.1-1.5,1.1C74.5,37.2,74.1,37.1,73.7,37L73.7,37z M76.9,37l0.1-0.7c0.3,0.1,0.7,0.1,1,0.1 c0.5,0,0.7-0.2,0.7-0.4c0-0.5-1.8-0.3-1.8-1.6c0-0.7,0.6-1.1,1.4-1.1c0.4,0,0.7,0.1,1.1,0.2l-0.1,0.6c-0.3-0.1-0.6-0.1-0.9-0.1 c-0.4,0-0.5,0.2-0.5,0.3c0,0.6,1.8,0.4,1.8,1.6c0,0.9-0.9,1.1-1.5,1.1C77.7,37.2,77.3,37.1,76.9,37L76.9,37z M80.5,36.2h1v0.9h-1 V36.2z M83.9,32.5h1.7c1,0,1.7,0.6,1.7,1.5c0,0.9-0.7,1.6-2,1.6h-0.4v1.4h-0.9L83.9,32.5z M85.3,35c0.7,0,1-0.3,1-0.9 c0-0.5-0.2-0.9-0.9-0.9h-0.6V35L85.3,35z M87.9,33.6h0.9V34c0.2-0.3,0.6-0.5,0.9-0.5c0.2,0,0.3,0,0.5,0.1L90,34.3 c-0.1,0-0.3,0-0.5,0c-0.3,0-0.6,0.2-0.8,0.4v2.5h-0.9V33.6z M90.3,35.4c0-1.2,0.7-1.9,1.8-1.9c1.2,0,1.7,0.7,1.7,1.9 c0,1.2-0.7,1.8-1.8,1.8C90.9,37.2,90.3,36.5,90.3,35.4L90.3,35.4z M92.9,35.3c0-0.6-0.2-1.2-0.9-1.2c-0.7,0-0.9,0.6-0.9,1.2 c0,0.7,0.2,1.1,0.9,1.1C92.7,36.5,92.9,36,92.9,35.3L92.9,35.3z M94.7,36v-1.8h-0.5v-0.7h0.5v-0.7h0.9v0.7h1.1v0.7h-1.1V36 c0,0.4,0.1,0.4,0.5,0.4c0.2,0,0.5,0,0.7-0.1l0.1,0.7c-0.2,0.1-0.5,0.1-0.8,0.1C95.3,37.2,94.7,37.2,94.7,36L94.7,36z M97.2,35.4 c0-1.4,0.7-1.9,1.7-1.9c1,0,1.4,0.7,1.4,1.8v0.3h-2.3c0,0.8,0.5,0.9,1.1,0.9c0.3,0,0.6-0.1,1-0.1l0.1,0.7 c-0.4,0.1-0.8,0.2-1.2,0.2C97.9,37.2,97.2,36.8,97.2,35.4L97.2,35.4z M99.5,35c0-0.5-0.2-0.9-0.6-0.9c-0.4,0-0.7,0.3-0.8,0.9H99.5 z M100.9,35.3c0-1.1,0.7-1.8,1.8-1.8c0.4,0,0.7,0.1,1.1,0.2l-0.2,0.6c-0.3-0.1-0.5-0.2-0.8-0.2c-0.5,0-1,0.3-1,1.1 c0,0.8,0.2,1.1,1.1,1.1c0.2,0,0.5,0,0.7-0.1l0.1,0.7c-0.3,0.1-0.6,0.1-0.9,0.1C101.5,37.2,100.9,36.6,100.9,35.3L100.9,35.3z M104.6,36v-1.8h-0.5v-0.7h0.5v-0.7h0.9v0.7h1.1v0.7h-1.1V36c0,0.4,0.1,0.4,0.5,0.4c0.2,0,0.5,0,0.7-0.1l0.1,0.7 c-0.2,0.1-0.5,0.1-0.8,0.1C105.3,37.2,104.6,37.2,104.6,36L104.6,36z M107.2,35.4c0-1.4,0.7-1.9,1.7-1.9c1,0,1.4,0.7,1.4,1.8v0.3 H108c0,0.8,0.5,0.9,1.1,0.9c0.3,0,0.6-0.1,1-0.1l0.1,0.7c-0.4,0.1-0.8,0.2-1.2,0.2C107.9,37.2,107.2,36.8,107.2,35.4L107.2,35.4z M109.5,35c0-0.5-0.2-0.9-0.6-0.9c-0.4,0-0.7,0.3-0.8,0.9H109.5z M110.9,35.3c0-1.2,0.8-1.8,1.8-1.8c0.2,0,0.4,0,0.6,0.1v-1.3h0.9 v4.9h-0.9v-0.3c-0.2,0.2-0.5,0.3-0.8,0.3C111.8,37.2,110.9,36.8,110.9,35.3L110.9,35.3z M113.3,36.2v-2c-0.2,0-0.4-0.1-0.5-0.1 c-0.7,0-1,0.5-1,1.2c0,0.8,0.4,1.1,0.8,1.1C112.8,36.4,113.1,36.3,113.3,36.2z M115.3,36.2h1v0.9h-1V36.2z"></path> </g> </g> </svg> 