<?xml version="1.0" encoding="UTF-8"?> <svg xmlns="http://www.w3.org/2000/svg" xmlns:xlink="http://www.w3.org/1999/xlink" version="1.1" id="Vrstva_1" x="0px" y="0px" viewBox="0 0 120 60" style="enable-background:new 0 0 120 60;" xml:space="preserve"> <style type="text/css"> .st0{fill:#F99D2A;} </style> <g> <path class="st0" d="M74.3,38.3c-1,0-1.5-0.5-1.5-1.4c0-1.8,3.4-4.9,6.1-4.9c0.5,0,0.9,0.3,0.9,0.8C79.8,34.4,77.5,38.3,74.3,38.3 M47,30.6c0.4,0,0.6,0.3,0.6,0.6c0,1.1-1.8,2.5-6,4.5C41.7,32.7,45.7,30.6,47,30.6 M94.6,36.9c-2.3,0.9-6.3,1.6-9.7,1.6 c-2,0-2.9-0.5-2.9-1.8c0-0.9,1.3-3.1,2.7-4c0-0.1,0.1-0.3,0.1-0.5c0-0.6-0.5-1-1.4-1c-0.6,0-1.3,0.2-1.8,0.6 c-0.4-1.3-1.5-1.8-3.2-1.8c-1.9,0-4.1,0.7-6.4,2.5c-1.7,1.3-2.1,2.1-3.2,3.1c-2,1.6-3.8,2.5-5.1,2.5c-1.8,0-2.7-1.3-2.7-3.3 c0-0.6,0.2-1.7,0.4-2.3c2.3-1.9,4.3-3.7,6.1-5.5c4.7-0.1,8.9-0.3,10.5-0.4c0.8,0,1.2-0.4,1.2-1c0-0.6-0.6-0.8-1.1-0.8 c-3.1-0.1-5.8-0.2-8.4-0.3c0.8-0.9,1.5-1.7,2.1-2.5c0.6-0.7,1-1.3,1-2c0-0.7-0.7-1.1-1.4-1.1c-1.9,0-4.7,2-7.9,5.5 c-3.9-0.1-8.9-0.2-9.9-0.5c-0.9,0.2-1.4,1.1-1.4,1.8c0,1.2,1.2,1.5,2.4,1.5c2,0,4.2,0,6.6-0.1c-1.4,1.7-2.7,3.7-3.5,5.3 c-3.9,3.8-8.7,5.8-12.6,5.8c-1.4,0-2.3-0.3-2.6-0.6c5.8-2.2,8.6-4.3,8.6-6.2c0-1.9-1.5-2.7-4-2.7c-4.2,0-9.4,3.5-9.4,7.6 c0,0.2,0,0.6,0,0.7c-1.4,0.5-4,0.7-6.1,0.7c-2.2,0-4.8-0.4-6-1.1c-0.7,0.2-1.2,0.8-1.2,1.3c0,1.6,4.6,2.1,6.5,2.1 c2,0,5.5-0.2,7.7-1c0.9,1.1,2.6,1.7,5.3,1.7c4.3,0,9.3-1.9,13.6-5.3c0.1,2.8,1.9,5.3,5,5.3c2.2,0,4.4-1.2,6.6-3.2 c0.1,1.8,1.4,3.2,4,3.2c1.8,0,3.7-0.9,5.1-2.1c0.7,1.4,2.4,2.1,5.3,2.1c3.9,0,7.1-0.5,9.7-1.3c1.4-0.4,2-1.1,2-1.9 C95.5,37.4,95.1,36.9,94.6,36.9"></path> </g> </svg> 