<?xml version="1.0" encoding="UTF-8"?> <svg xmlns:cc="http://creativecommons.org/ns#" xmlns:dc="http://purl.org/dc/elements/1.1/" xmlns:rdf="http://www.w3.org/1999/02/22-rdf-syntax-ns#" xmlns:svg="http://www.w3.org/2000/svg" xmlns="http://www.w3.org/2000/svg" xmlns:xlink="http://www.w3.org/1999/xlink" version="1.1" id="svg25166" x="0px" y="0px" viewBox="0 0 120 60" style="enable-background:new 0 0 120 60;" xml:space="preserve"> <style type="text/css"> .st0{fill:#231F20;} .st1{fill:#ED1A3A;} </style> <g id="layer1" transform="translate(-290.98452,-700.28067)"> <g id="g24728" transform="matrix(4.3916816,0,0,-4.3916816,671.33312,701.29078)"> <path id="path24730" class="st0" d="M-66.7-4.6v-3.1c0-0.2,0.1-0.3,0.3-0.3c0,0,1,0,1,0v-0.3c0,0,0-0.1-0.1-0.1h-1.7 c-0.5,0-0.6,0.3-0.6,0.5v3.1c0,0.1,0.1,0.2,0.2,0.2L-66.7-4.6"></path> </g> <g id="g24732" transform="matrix(4.3916816,0,0,-4.3916816,631.4562,701.29078)"> <path id="path24734" class="st0" d="M-59.5-4.6l0-3.6c0-0.2-0.1-0.2-0.2-0.2h-0.8v3.6c0,0.1,0,0.2,0.2,0.2L-59.5-4.6"></path> </g> <g id="g24736" transform="matrix(4.3916816,0,0,-4.3916816,291.98452,712.33453)"> <path id="path24738" class="st0" d="M1.5-2.6c0,0.3,0,0.5,0.5,0.5h2.1v-0.4c0,0,0-0.1,0-0.1l-1.3,0c-0.2,0-0.3-0.1-0.3-0.3v-1H4 l0-0.4c0,0,0-0.1-0.1-0.1H2.5v-1.6c0-0.1-0.1-0.2-0.2-0.2H1.5V-2.6"></path> </g> <g id="g24740" transform="matrix(4.3916816,0,0,-4.3916816,377.99912,701.28288)"> <path id="path24742" class="st0" d="M-14-4.6v-2.9c0-0.3,0-0.4,0.2-0.5c0.2-0.1,0.6-0.1,0.9,0c0.2,0.1,0.2,0.2,0.2,0.5v2.7 c0,0.1,0,0.2,0.2,0.2h0.8l0-2.8c0-0.7-0.4-0.9-0.8-1c-0.5-0.1-1.2-0.1-1.7,0C-14.7-8.3-15-8-15-7.5l0,2.6c0,0.1,0,0.2,0.2,0.2H-14 "></path> </g> <g id="g24744" transform="matrix(4.3916816,0,0,-4.3916816,766.24748,701.29518)"> <path id="path24746" class="st0" d="M-83.7-4.6c-0.2,0-0.3-0.1-0.3-0.3l-0.6-2.7l0,0l-0.6,2.9h-0.9c-0.2,0-0.2-0.1-0.2-0.2v-3.6 h0.4c0.1,0,0.1,0,0.1,0.1v3h0.1l0.8-3.1h0.5c0.2,0,0.3,0.1,0.3,0.3l0.7,2.9h0.1l0-3.1l0.7,0c0.2,0,0.3,0.1,0.3,0.2v3.6L-83.7-4.6"></path> </g> <g id="g24748" transform="matrix(4.3916816,0,0,-4.3916816,523.56404,744.83473)"> <path id="path24750" class="st0" d="M-40.1,3.2h-1V1.5h0.8c0.1,0,0.2,0,0.2,0.2C-40.1,1.7-40.1,2.4-40.1,3.2"></path> </g> <g id="g24752" transform="matrix(4.3916816,0,0,-4.3916816,522.36774,729.2021)"> <path id="path24754" class="st1" d="M-39.9,0.4c0,0,0.1,0,0.1,0.1v1.2h-0.8c-0.2,0-0.2-0.1-0.2-0.2v-1.9L-39.9,0.4"></path> </g> <g id="g24756" transform="matrix(4.3916816,0,0,-4.3916816,451.99716,775.07894)"> <path id="path24758" class="st0" d="M-27.3,8.6c0.4,0.1,0.6,0.3,0.6,0.7V12c0,0.2,0.1,0.2,0.2,0.2h0.8V9.7c0-0.6-0.1-0.9-0.5-1.2 c-0.2-0.1-0.5-0.3-1.2-0.3c-0.4,0-0.6,0-0.6,0c0,0,0,0,0,0.1v0.3C-28,8.6-27.6,8.6-27.3,8.6"></path> </g> <g id="g24760" transform="matrix(4.3916816,0,0,-4.3916816,554.66196,701.28288)"> <path id="path24762" class="st0" d="M-45.7-4.6c-0.5,0-0.5-0.2-0.5-0.5v-1c0,0,0,0,0,0l-0.7-0.5h0.7v-1.8h0.8 c0.2,0,0.2,0.1,0.2,0.2v1.6h1.4c0,0,0.1,0,0.1,0.1v0.4h-1.5v1c0,0.2,0.1,0.3,0.3,0.3l1.3,0c0,0,0,0,0,0v0.4H-45.7"></path> </g> </g> </svg> 