<?xml version="1.0" encoding="UTF-8"?> <svg xmlns="http://www.w3.org/2000/svg" xmlns:xlink="http://www.w3.org/1999/xlink" version="1.1" id="Warstwa_1" x="0px" y="0px" viewBox="0 0 120 60" style="enable-background:new 0 0 120 60;" xml:space="preserve"> <style type="text/css"> .st0{fill:#FF0000;} </style> <g> <path class="st0" d="M34.2,25.6c-3.1,0-5.3,2.3-5.3,5c0,3,2.3,5.2,5.3,5.2h6.1v-6.1h-5.6l-1.5,1.8h4.5v2.1h-3.5 c-1.3,0-2.7-1.2-2.7-2.9c0-1.6,1.3-2.9,2.7-2.9h4.6l1.7-2.2H34.2z"></path> <polygon class="st0" points="45.9,33.6 45.9,31.6 51.5,31.6 52.9,29.7 45.9,29.7 45.9,27.8 51.8,27.8 53.4,25.6 43.3,25.6 43.3,35.8 51.8,35.8 53.5,33.6 "></polygon> <path class="st0" d="M93.7,32.6c0-1.6-1.1-2.9-3.3-2.9h-4.9c-0.5,0-1-0.3-1-1c0-0.6,0.6-1,1-1h6.2l1.7-2.2h-7.6 c-2.5,0-3.8,1.2-3.8,3c0,1.6,1.2,3.1,3.3,3.1h4.9c0.5,0,1,0.3,1,1c0,0.6-0.5,1-1,1c0,0,0,0,0,0h-6.8l-1.7,2.1h8.2 C92.4,35.8,93.7,34.6,93.7,32.6z"></path> <rect x="96.4" y="25.6" class="st0" width="2.6" height="10.1"></rect> <path class="st0" d="M64,25.6v6l-5.6-5.7c-0.1-0.1-0.1-0.1-0.2-0.2L58,25.6h-2.1v10.1h2.4v-6l5.6,5.7c0.1,0.1,0.2,0.1,0.2,0.2 l0.1,0.1h2.1V25.6H64z"></path> <polygon class="st0" points="72.1,33.6 72.1,31.6 77.7,31.6 79.1,29.7 72.1,29.7 72.1,27.8 78,27.8 79.6,25.6 69.5,25.6 69.5,35.8 78,35.8 79.6,33.6 "></polygon> <path class="st0" d="M113.7,32.6c0-1.6-1.1-2.9-3.3-2.9h-4.9c-0.5,0-1-0.3-1-1c0-0.6,0.6-1,1-1h6.2l1.7-2.2h-7.6 c-2.5,0-3.8,1.2-3.8,3c0,1.6,1.2,3.1,3.3,3.1h4.9c0.5,0,1,0.3,1,1c0,0.6-0.5,1-1,1c0,0,0,0,0,0h-6.7l-1.7,2.1h8.2 C112.5,35.8,113.7,34.6,113.7,32.6z"></path> <path class="st0" d="M15.5,20.8c-2.4,0-9.2,0.3-9.2,5.4c0,2.3,0.3,3,5.1,7.8c1.7,1.7,2.9,4,3.5,4.9c0.2,0.3,0.7,0.4,1,0.2 c0.1,0,0.1-0.1,0.2-0.2c0.6-0.9,1.8-3.2,3.5-4.9c4.9-4.9,5.1-5.5,5.1-7.8C24.7,21.1,17.9,20.8,15.5,20.8z M21.8,29 c-1,1.7-4.5,5.7-6.1,7c-0.1,0-0.1,0-0.1-0.1c0-0.1,0-0.2,0.1-0.3l0.1-0.1l0.1-0.2l0.1-0.1c3.6-3.9,5.1-6.1,5.1-7.8 c0-1.5-1-3.2-5.6-3.2h-0.2c-0.8,0-2,0-3.1,0.4c-1.4,0.5-2.1,1.6-2.1,3c0,0.9,0.5,2,1.4,3c0.9,1,1.6,1.6,2.2,1.9 c0.4,0.3,0.8,0.4,1.2,0.4l0.1,0h0h0c0.5-0.1,1-0.3,1.7-1.3c0.1-0.2,0.2-0.3,0.3-0.5c0.6-0.9,1.3-2.1,0.9-3 c-0.2-0.4-0.6-0.8-1.3-0.9l0,0c-0.4-0.1-0.8-0.1-1.1-0.1c-1,0-2.5,0.3-2.5,1.6c0,0.5,0.4,1.5,0.9,1.8c0.4,0.2,0.8,0.3,1.2,0.2 c0.1,0,0.5-0.2,0.5-0.7c0-0.3-0.1-0.5-0.5-0.4c-0.6,0.1-0.6-0.6-0.6-0.6c0-0.6,1-0.5,1-0.5c0.3,0,0.9,0.2,1.1,0.6 c0.1,0.1,0.1,0.3,0.1,0.5l0,0v0c0,1.2-1.1,2.1-1.9,2.2h0h0c0,0-0.1,0-0.1,0h0c-0.2,0-0.3,0-0.5-0.1c-1.1-0.4-2.5-2.1-2.5-3.6 c0-1.8,1.8-2.3,3.7-2.3h0.2c0,0,3.8,0,3.8,2.3c0,1-1.4,3.5-2.8,4.9c-1.3,1.2-2,0.8-2.8,0.4l-0.2-0.1c-1.9-1.1-5-3.9-5-6.4 c0-3.5,4.3-4,6.9-4c2.5,0,6.8,0.5,6.9,3.9C22.4,27.5,22.2,28.3,21.8,29L21.8,29z"></path> </g> </svg> 