<?xml version="1.0" encoding="UTF-8"?> <svg xmlns="http://www.w3.org/2000/svg" xmlns:xlink="http://www.w3.org/1999/xlink" version="1.1" id="Layer_1" x="0px" y="0px" viewBox="0 0 120 60" style="enable-background:new 0 0 120 60;" xml:space="preserve"> <style type="text/css"> .st0{fill-rule:evenodd;clip-rule:evenodd;fill:#0038A8;} </style> <g> <polygon class="st0" points="106,19.6 105.2,19.6 105.2,19.3 107.1,19.3 107.1,19.6 106.3,19.6 106.3,21.6 106,21.6 "></polygon> <polygon class="st0" points="107.4,19.3 108,19.3 108.7,21.2 109.4,19.3 110,19.3 110,21.6 109.7,21.6 109.7,19.6 109.7,19.6 108.9,21.6 108.5,21.6 107.7,19.6 107.7,19.6 107.7,21.6 107.4,21.6 "></polygon> <rect x="24.9" y="19.2" class="st0" width="3.4" height="12.7"></rect> <path class="st0" d="M50.3,21.8L50.3,21.8l-1.7,5h3.2L50.3,21.8z M48.3,19.2h4.2l4.9,12.7h-3.7l-0.9-2.7h-4.8l-1,2.7h-3.4 L48.3,19.2z"></path> <path class="st0" d="M62.4,24.3h0.9c1.1,0,2.3-0.3,2.3-1.4c0-1.2-1.1-1.3-2.2-1.3h-1V24.3z M62.4,29.5h1c1.2,0,2.5-0.2,2.5-1.5 c0-1.4-1.3-1.5-2.5-1.5h-1V29.5z M59,19.2h5.8c2.4,0,4.1,1,4.1,3.2c0,1.6-0.8,2.5-2.2,3v0c1.7,0.3,2.6,1.3,2.6,2.8 c0,3-2.7,3.7-5,3.7H59L59,19.2L59,19.2z"></path> <polygon class="st0" points="73.9,27.1 69.2,19.2 73.1,19.2 75.6,24.3 78,19.2 81.9,19.2 77.3,27.1 77.3,31.9 73.9,31.9 "></polygon> <polygon class="st0" points="86.5,21.7 83.3,21.7 83.3,19.2 93,19.2 93,21.7 89.9,21.7 89.9,31.9 86.5,31.9 "></polygon> <polygon class="st0" points="94.6,19.2 103.6,19.2 103.6,21.6 98,21.6 98,24.3 103.3,24.3 103.3,26.7 98,26.7 98,29.5 103.8,29.5 103.8,31.9 94.6,31.9 "></polygon> <path class="st0" d="M17.2,22c-2.3,0.2-3.5,1.7-3.5,3.6c0,1.9,1.7,3.4,3.4,3.4l0.4,0h0.6c0,0,0.4,0,0.4-0.4v-4H22 c0,2.3,0,7.3,0,7.3s-3.4,0-5.4,0c-3.7,0-6.4-3.1-6.4-6.3c0-3.5,2.9-6.5,6.5-6.3l5.2,0l0,2.7C21.8,22,17.2,22,17.2,22z"></path> <path class="st0" d="M37.3,22c-2.3,0.2-3.5,1.7-3.5,3.6c0,1.9,1.7,3.4,3.4,3.4l0.4,0h0.6c0,0,0.4,0,0.4-0.4v-4h3.5 c0,2.3,0,7.3,0,7.3s-3.4,0-5.4,0c-3.7,0-6.4-3.1-6.4-6.3c0-3.5,2.9-6.5,6.5-6.3l5.2,0l0,2.7C42,22,37.3,22,37.3,22z"></path> <polygon class="st0" points="11.3,37 10,37 10,36.3 13.4,36.3 13.4,37 12.1,37 12.1,40.7 11.3,40.7 "></polygon> <polygon class="st0" points="19.8,36.3 22.4,36.3 22.4,37 20.7,37 20.7,38.1 22.2,38.1 22.2,38.8 20.7,38.8 20.7,40 22.4,40 22.4,40.7 19.8,40.7 "></polygon> <path class="st0" d="M32.3,40.7c-0.3,0.1-0.7,0.1-1,0.1c-1.4,0-2.4-0.7-2.4-2.2c0-1.5,0.9-2.4,2.4-2.4c0.3,0,0.7,0.1,1,0.2 l-0.1,0.7c-0.3-0.2-0.6-0.2-1-0.2c-0.9,0-1.5,0.7-1.5,1.6c0,0.9,0.6,1.6,1.5,1.6c0.3,0,0.8-0.1,1-0.2L32.3,40.7z"></path> <polygon class="st0" points="38.8,36.3 39.7,36.3 39.7,38.1 41.4,38.1 41.4,36.3 42.3,36.3 42.3,40.7 41.4,40.7 41.4,38.8 39.7,38.8 39.7,40.7 38.8,40.7 "></polygon> <polygon class="st0" points="49.1,36.3 50.2,36.3 51.9,39.6 51.9,39.6 51.9,36.3 52.7,36.3 52.7,40.7 51.6,40.7 50,37.4 49.9,37.4 49.9,40.7 49.1,40.7 "></polygon> <path class="st0" d="M61.5,40.1c0.9,0,1.2-0.8,1.2-1.6c0-0.8-0.4-1.6-1.2-1.6c-0.9,0-1.2,0.8-1.2,1.6 C60.2,39.3,60.6,40.1,61.5,40.1 M61.5,36.2c1.4,0,2.2,0.9,2.2,2.3s-0.8,2.3-2.2,2.3c-1.4,0-2.2-0.9-2.2-2.3 C59.3,37.1,60.1,36.2,61.5,36.2"></path> <polygon class="st0" points="70.2,36.3 71.1,36.3 71.1,40 72.8,40 72.8,40.7 70.2,40.7 "></polygon> <path class="st0" d="M81.1,40.1c0.9,0,1.2-0.8,1.2-1.6c0-0.8-0.4-1.6-1.2-1.6c-0.9,0-1.2,0.8-1.2,1.6 C79.9,39.3,80.2,40.1,81.1,40.1 M81.1,36.2c1.4,0,2.2,0.9,2.2,2.3s-0.8,2.3-2.2,2.3c-1.4,0-2.2-0.9-2.2-2.3 C79,37.1,79.7,36.2,81.1,36.2"></path> <path class="st0" d="M93.4,37.2c-0.3-0.2-0.8-0.2-1.1-0.2c-1,0-1.6,0.7-1.6,1.6c0,0.9,0.6,1.6,1.5,1.6c0.2,0,0.4,0,0.6-0.1v-1.2 h-0.9v-0.7h1.8v2.4c-0.5,0.1-1,0.2-1.4,0.2c-1.4,0-2.4-0.7-2.4-2.2c0-1.5,0.9-2.4,2.4-2.4c0.5,0,0.9,0.1,1.3,0.2L93.4,37.2z"></path> <polygon class="st0" points="101.5,39 99.8,36.3 100.9,36.3 101.9,38.2 103,36.3 103.9,36.3 102.3,39 102.3,40.7 101.5,40.7 "></polygon> </g> </svg> 