<?xml version="1.0" encoding="UTF-8"?> <svg xmlns="http://www.w3.org/2000/svg" xmlns:xlink="http://www.w3.org/1999/xlink" version="1.1" id="Layer_1" x="0px" y="0px" viewBox="0 0 120 120" style="enable-background:new 0 0 120 120;" xml:space="preserve"> <style type="text/css"> .st0{fill-rule:evenodd;clip-rule:evenodd;fill:#0038A8;} </style> <g> <polygon class="st0" points="115.2,47.5 114.3,47.5 114.3,47.1 116.5,47.1 116.5,47.5 115.6,47.5 115.6,49.9 115.2,49.9 "></polygon> <polygon class="st0" points="116.9,47.1 117.6,47.1 118.4,49.5 119.3,47.1 120,47.1 120,49.9 119.6,49.9 119.6,47.5 119.6,47.5 118.6,49.9 118.2,49.9 117.3,47.5 117.3,47.5 117.3,49.9 116.9,49.9 "></polygon> <rect x="17.8" y="47.1" class="st0" width="4.1" height="15.2"></rect> <path class="st0" d="M48.4,50.2L48.4,50.2l-2,6h3.8L48.4,50.2z M45.9,47.1h5l5.9,15.3h-4.5l-1.1-3.3h-5.7l-1.2,3.3h-4.1L45.9,47.1z "></path> <path class="st0" d="M62.8,53.1H64c1.3,0,2.7-0.3,2.7-1.6c0-1.4-1.3-1.5-2.7-1.5h-1.2V53.1z M62.8,59.4H64c1.5,0,3-0.2,3-1.8 c0-1.7-1.6-1.8-3-1.8h-1.2V59.4z M58.8,47.1h7c2.8,0,5,1.2,5,3.9c0,1.9-1,3-2.7,3.6v0c2,0.4,3.1,1.5,3.1,3.4c0,3.7-3.2,4.4-5.9,4.4 h-6.4L58.8,47.1L58.8,47.1z"></path> <polygon class="st0" points="76.7,56.6 71,47.1 75.7,47.1 78.7,53.2 81.6,47.1 86.3,47.1 80.7,56.6 80.7,62.3 76.7,62.3 "></polygon> <polygon class="st0" points="91.8,50.1 88,50.1 88,47.1 99.6,47.1 99.6,50.1 95.8,50.1 95.8,62.3 91.8,62.3 "></polygon> <polygon class="st0" points="101.5,47.1 112.3,47.1 112.3,50 105.6,50 105.6,53.1 111.9,53.1 111.9,56 105.6,56 105.6,59.4 112.5,59.4 112.5,62.3 101.5,62.3 "></polygon> <path class="st0" d="M8.6,50.4c-2.7,0.2-4.2,2-4.2,4.3c0,2.2,2.1,4.1,4.1,4.1l0.4,0h0.7c0,0,0.5,0,0.5-0.5v-4.8h4.2 c0,2.7,0,8.8,0,8.8s-4.1,0-6.5,0c-4.5,0-7.7-3.7-7.7-7.6c0-4.2,3.5-7.7,7.8-7.6l6.2,0l0,3.3C14.2,50.4,8.6,50.4,8.6,50.4z"></path> <path class="st0" d="M32.8,50.4c-2.7,0.2-4.2,2-4.2,4.3c0,2.2,2.1,4.1,4.1,4.1l0.4,0h0.7c0,0,0.5,0,0.5-0.5v-4.8h4.2 c0,2.7,0,8.8,0,8.8s-4.1,0-6.5,0c-4.5,0-7.7-3.7-7.7-7.6c0-4.2,3.5-7.7,7.8-7.6l6.2,0l0,3.3C38.4,50.4,32.8,50.4,32.8,50.4z"></path> <polygon class="st0" points="1.5,68.4 0,68.4 0,67.6 4.1,67.6 4.1,68.4 2.6,68.4 2.6,72.9 1.5,72.9 "></polygon> <polygon class="st0" points="11.7,67.6 14.9,67.6 14.9,68.4 12.8,68.4 12.8,69.7 14.7,69.7 14.7,70.5 12.8,70.5 12.8,72 14.9,72 14.9,72.9 11.7,72.9 "></polygon> <path class="st0" d="M26.8,72.8c-0.4,0.1-0.8,0.2-1.2,0.2c-1.7,0-2.9-0.9-2.9-2.6c0-1.8,1.1-2.8,2.9-2.8c0.3,0,0.8,0.1,1.2,0.2 l-0.1,0.9c-0.4-0.2-0.8-0.3-1.1-0.3c-1.1,0-1.8,0.8-1.8,1.9c0,1.1,0.7,1.9,1.8,1.9c0.4,0,0.9-0.1,1.2-0.2L26.8,72.8z"></path> <polygon class="st0" points="34.5,67.6 35.6,67.6 35.6,69.7 37.7,69.7 37.7,67.6 38.8,67.6 38.8,72.9 37.7,72.9 37.7,70.5 35.6,70.5 35.6,72.9 34.5,72.9 "></polygon> <polygon class="st0" points="46.9,67.6 48.2,67.6 50.2,71.5 50.3,71.5 50.3,67.6 51.3,67.6 51.3,72.9 50,72.9 47.9,68.9 47.9,68.9 47.9,72.9 46.9,72.9 "></polygon> <path class="st0" d="M61.7,72.1c1.1,0,1.5-1,1.5-1.9c0-0.9-0.4-1.9-1.5-1.9c-1.1,0-1.5,1-1.5,1.9C60.3,71.2,60.7,72.1,61.7,72.1 M61.7,67.5c1.7,0,2.6,1.1,2.6,2.7s-0.9,2.8-2.6,2.8c-1.7,0-2.6-1.1-2.6-2.8C59.2,68.6,60.1,67.5,61.7,67.5"></path> <polygon class="st0" points="72.3,67.6 73.3,67.6 73.3,72 75.4,72 75.4,72.9 72.3,72.9 "></polygon> <path class="st0" d="M85.4,72.1c1.1,0,1.5-1,1.5-1.9c0-0.9-0.4-1.9-1.5-1.9c-1.1,0-1.5,1-1.5,1.9C83.9,71.2,84.3,72.1,85.4,72.1 M85.4,67.5c1.7,0,2.6,1.1,2.6,2.7s-0.9,2.8-2.6,2.8c-1.7,0-2.6-1.1-2.6-2.8C82.8,68.6,83.7,67.5,85.4,67.5"></path> <path class="st0" d="M100,68.6c-0.4-0.2-0.9-0.3-1.4-0.3c-1.2,0-1.9,0.8-1.9,1.9c0,1.1,0.7,1.9,1.8,1.9c0.3,0,0.5,0,0.7-0.1v-1.4 h-1.1v-0.8h2.1v2.9c-0.6,0.2-1.1,0.3-1.7,0.3c-1.7,0-2.9-0.9-2.9-2.6c0-1.8,1.1-2.8,2.9-2.8c0.6,0,1.1,0.1,1.6,0.2L100,68.6z"></path> <polygon class="st0" points="109.8,70.8 107.8,67.6 109.1,67.6 110.3,69.8 111.6,67.6 112.7,67.6 110.8,70.8 110.8,72.9 109.8,72.9 "></polygon> </g> </svg> 