<?xml version="1.0" encoding="UTF-8"?> <svg xmlns="http://www.w3.org/2000/svg" xmlns:xlink="http://www.w3.org/1999/xlink" version="1.1" id="Layer_1" x="0px" y="0px" viewBox="0 0 120 60" style="enable-background:new 0 0 120 60;" xml:space="preserve"> <style type="text/css"> .st0{fill-rule:evenodd;clip-rule:evenodd;fill:#0038A8;} </style> <g> <polygon class="st0" points="109.3,18.8 108.5,18.8 108.5,18.5 110.5,18.5 110.5,18.8 109.7,18.8 109.7,21 109.3,21 "></polygon> <polygon class="st0" points="110.8,18.5 111.4,18.5 112.2,20.6 113,18.5 113.6,18.5 113.6,21 113.3,21 113.3,18.8 113.3,18.8 112.4,21 112.1,21 111.2,18.8 111.2,18.8 111.2,21 110.8,21 "></polygon> <rect x="22.3" y="18.4" class="st0" width="3.6" height="13.6"></rect> <path class="st0" d="M49.6,21.3L49.6,21.3l-1.8,5.3h3.4L49.6,21.3z M47.4,18.4h4.5l5.3,13.6h-4l-1-2.9H47l-1.1,2.9h-3.7L47.4,18.4z "></path> <path class="st0" d="M62.5,23.8h1c1.2,0,2.4-0.3,2.4-1.4c0-1.3-1.2-1.4-2.4-1.4h-1.1V23.8z M62.5,29.5h1.1c1.3,0,2.7-0.2,2.7-1.6 c0-1.5-1.4-1.6-2.7-1.6h-1.1V29.5z M58.9,18.4h6.3c2.5,0,4.4,1.1,4.4,3.5c0,1.7-0.9,2.7-2.4,3.2v0c1.8,0.4,2.8,1.3,2.8,3 c0,3.3-2.9,3.9-5.3,3.9h-5.7L58.9,18.4L58.9,18.4z"></path> <polygon class="st0" points="74.9,26.9 69.8,18.4 74,18.4 76.7,23.9 79.3,18.4 83.5,18.4 78.5,26.9 78.5,32.1 74.9,32.1 "></polygon> <polygon class="st0" points="88.4,21.1 85,21.1 85,18.4 95.4,18.4 95.4,21.1 92,21.1 92,32.1 88.4,32.1 "></polygon> <polygon class="st0" points="97.1,18.4 106.7,18.4 106.7,21 100.7,21 100.7,23.8 106.4,23.8 106.4,26.4 100.7,26.4 100.7,29.5 106.9,29.5 106.9,32.1 97.1,32.1 "></polygon> <path class="st0" d="M14.1,21.4c-2.4,0.2-3.7,1.8-3.7,3.8c0,2,1.9,3.7,3.6,3.7l0.4,0H15c0,0,0.4,0,0.4-0.4v-4.3h3.7 c0,2.4,0,7.9,0,7.9s-3.7,0-5.8,0c-4,0-6.9-3.3-6.9-6.8c0-3.8,3.1-6.9,7-6.8l5.6,0l0,2.9C19.1,21.4,14.1,21.4,14.1,21.4z"></path> <path class="st0" d="M35.7,21.4c-2.4,0.2-3.7,1.8-3.7,3.8c0,2,1.8,3.7,3.6,3.7l0.4,0h0.7c0,0,0.4,0,0.4-0.4v-4.3h3.7 c0,2.4,0,7.9,0,7.9s-3.7,0-5.8,0c-4,0-6.9-3.3-6.9-6.8c0-3.8,3.1-6.9,7-6.8l5.6,0l0,2.9C40.7,21.4,35.7,21.4,35.7,21.4z"></path> <polygon class="st0" points="7.7,37.5 6.4,37.5 6.4,36.8 10,36.8 10,37.5 8.7,37.5 8.7,41.5 7.7,41.5 "></polygon> <polygon class="st0" points="16.9,36.8 19.7,36.8 19.7,37.5 17.8,37.5 17.8,38.7 19.5,38.7 19.5,39.4 17.8,39.4 17.8,40.7 19.7,40.7 19.7,41.5 16.9,41.5 "></polygon> <path class="st0" d="M30.3,41.4c-0.3,0.1-0.7,0.1-1.1,0.1c-1.5,0-2.6-0.8-2.6-2.4c0-1.6,1-2.5,2.6-2.5c0.3,0,0.7,0.1,1.1,0.2 l-0.1,0.8c-0.4-0.2-0.7-0.3-1-0.3c-1,0-1.6,0.7-1.6,1.7c0,1,0.6,1.7,1.6,1.7c0.4,0,0.8-0.1,1-0.2L30.3,41.4z"></path> <polygon class="st0" points="37.2,36.8 38.2,36.8 38.2,38.7 40.1,38.7 40.1,36.8 41,36.8 41,41.5 40.1,41.5 40.1,39.4 38.2,39.4 38.2,41.5 37.2,41.5 "></polygon> <polygon class="st0" points="48.3,36.8 49.5,36.8 51.3,40.3 51.3,40.3 51.3,36.8 52.2,36.8 52.2,41.5 51,41.5 49.2,38 49.2,38 49.2,41.5 48.3,41.5 "></polygon> <path class="st0" d="M61.6,40.8c1,0,1.3-0.9,1.3-1.7c0-0.8-0.4-1.7-1.3-1.7c-0.9,0-1.3,0.9-1.3,1.7C60.2,40,60.6,40.8,61.6,40.8 M61.6,36.7c1.5,0,2.3,1,2.3,2.4s-0.8,2.5-2.3,2.5c-1.5,0-2.3-1-2.3-2.5C59.2,37.7,60.1,36.7,61.6,36.7"></path> <polygon class="st0" points="71,36.8 71.9,36.8 71.9,40.7 73.8,40.7 73.8,41.5 71,41.5 "></polygon> <path class="st0" d="M82.7,40.8c1,0,1.3-0.9,1.3-1.7c0-0.8-0.4-1.7-1.3-1.7c-0.9,0-1.3,0.9-1.3,1.7C81.3,40,81.7,40.8,82.7,40.8 M82.7,36.7c1.5,0,2.3,1,2.3,2.4s-0.8,2.5-2.3,2.5c-1.5,0-2.3-1-2.3-2.5C80.4,37.7,81.2,36.7,82.7,36.7"></path> <path class="st0" d="M95.8,37.7c-0.4-0.2-0.8-0.3-1.2-0.3c-1.1,0-1.7,0.7-1.7,1.7c0,1,0.6,1.7,1.6,1.7c0.3,0,0.5,0,0.6-0.1v-1.2h-1 v-0.7H96v2.6c-0.5,0.1-1,0.2-1.5,0.2c-1.5,0-2.6-0.8-2.6-2.4c0-1.6,1-2.5,2.6-2.5c0.5,0,1,0.1,1.4,0.2L95.8,37.7z"></path> <polygon class="st0" points="104.5,39.6 102.7,36.8 103.9,36.8 105,38.7 106.1,36.8 107.1,36.8 105.4,39.6 105.4,41.5 104.5,41.5 "></polygon> </g> </svg> 