<?xml version="1.0" encoding="UTF-8"?> <svg xmlns="http://www.w3.org/2000/svg" xmlns:xlink="http://www.w3.org/1999/xlink" version="1.1" id="Layer_1" x="0px" y="0px" viewBox="0 0 120 60" style="enable-background:new 0 0 120 60;" xml:space="preserve"> <style type="text/css"> .st0{fill:#4C5C65;} </style> <g> <path class="st0" d="M54.6,30.4c0-4.5,3-7.9,7.4-7.9c4.8,0,7.4,3.7,7.4,9.1H58.5c0.3,2.3,1.6,3.7,3.8,3.7c1.6,0,2.5-0.7,2.9-1.8 h3.9c-0.5,2.7-2.9,4.9-6.8,4.9C57.4,38.4,54.6,34.9,54.6,30.4z M58.5,28.8h6.7c-0.1-1.9-1.4-3.2-3.2-3.2 C59.9,25.5,58.9,26.8,58.5,28.8z"></path> <path class="st0" d="M92.4,30.4c0-4.5,3-7.9,7.4-7.9c4.8,0,7.4,3.7,7.4,9.1H96.3c0.3,2.3,1.6,3.7,3.8,3.7c1.6,0,2.5-0.7,2.9-1.8 h3.9c-0.5,2.7-2.9,4.9-6.8,4.9C95.2,38.4,92.4,34.9,92.4,30.4z M96.4,28.8h6.7c-0.1-1.9-1.4-3.2-3.2-3.2 C97.8,25.5,96.7,26.8,96.4,28.8z"></path> <path class="st0" d="M13.1,38.4h4c0.3,0.9,1.2,1.7,3.1,1.7c2.3,0,3.4-1.1,3.4-3.1v-1.6h-0.1c-0.9,1-2.1,1.8-4,1.8 c-3.4,0-6.8-2.6-6.8-7.2c0-4.5,2.7-7.4,6.7-7.4c1.9,0,3.3,0.7,4.2,2h0.1v-1.6h3.9v13.9c0,2.1-0.7,3.6-1.8,4.6 c-1.3,1.2-3.3,1.7-5.5,1.7C16.1,43.1,13.5,41.3,13.1,38.4z M23.8,29.7c0-2.2-1.2-4.1-3.7-4.1c-2.1,0-3.4,1.6-3.4,4.1 c0,2.6,1.4,4.1,3.5,4.1C22.8,33.8,23.8,32,23.8,29.7z"></path> <path class="st0" d="M84.2,42.7v-2.8c1.6,0,2.6-0.2,2.6-1.6V22.9h4.1v15.6c0,1.8-0.4,2.6-1,3.3c-0.8,0.8-2,1.1-3.3,1.1 C85.8,42.9,84.8,42.8,84.2,42.7z M86.8,16.9h4.1v3.6h-4.1V16.9z"></path> <path class="st0" d="M74.7,24.9L74.7,24.9c1.1-1.6,2.6-2.5,4.7-2.5c3.2,0,5.3,2.4,5.3,5.6v9.8h-4.1v-9.2c0-1.6-1-2.8-2.7-2.8 c-1.8,0-3.1,1.4-3.1,3.5v8.5h-4.1V22.9h4V24.9L74.7,24.9z"></path> <path class="st0" d="M28.7,30.4c0-4.5,3.3-7.9,8-7.9s8,3.5,8,7.9c0,4.5-3.3,7.9-8,7.9C31.9,38.4,28.7,34.9,28.7,30.4z M40.6,30.4 c0-2.9-1.4-4.9-3.9-4.9c-2.5,0-3.9,2-3.9,4.9c0,2.9,1.4,4.9,3.9,4.9C39.2,35.3,40.6,33.3,40.6,30.4z"></path> <path class="st0" d="M49.9,25.3L49.9,25.3c1-1.7,2.1-2.6,3.9-2.6c0.5,0,0.7,0,1,0.1v3.5h-0.1C52,26,50,27.4,50,30.6v7.3H46V22.9 h3.9V25.3L49.9,25.3z"></path> </g> </svg> 