<?xml version="1.0" encoding="UTF-8"?> <svg xmlns:cc="http://creativecommons.org/ns#" xmlns:dc="http://purl.org/dc/elements/1.1/" xmlns:rdf="http://www.w3.org/1999/02/22-rdf-syntax-ns#" xmlns:svg="http://www.w3.org/2000/svg" xmlns="http://www.w3.org/2000/svg" xmlns:xlink="http://www.w3.org/1999/xlink" version="1.1" id="svg11067" x="0px" y="0px" viewBox="0 0 120 60" style="enable-background:new 0 0 120 60;" xml:space="preserve"> <g> <path id="path10805" d="M105.9,37.7h4.1V22.3h-4.1V37.7z"></path> <path id="path10819" d="M29.6,37.7h4.1V22.3h-4.1V37.7z"></path> <g id="g10829" transform="matrix(2.1024427,0,0,-2.1024427,468.16034,507.13208)"> <path id="path10831" d="M-190.6,225.3c-0.2,0.5-0.3,1-0.3,1.6c0,0.8,0.1,1.5,0.5,2.1c0.4,0.6,1,1.1,1.7,1.4 c0.7,0.3,1.4,0.4,2.1,0.4c0.9,0,1.7-0.2,2.4-0.5c0.7-0.3,1.2-0.9,1.4-1.7c0-0.2,0.1-0.3,0.1-0.5h-2c0,0.2,0,0.4-0.1,0.6 c-0.2,0.4-0.5,0.7-0.9,0.8c-0.3,0.1-0.6,0.1-0.8,0.1c-0.3,0-0.7-0.1-1-0.2c-0.5-0.2-0.9-0.6-1.1-1.1c-0.2-0.5-0.3-1-0.3-1.5 c0-0.4,0.1-0.9,0.2-1.3c0.1-0.5,0.6-1,1.1-1.2c0.3-0.1,0.7-0.2,1-0.2c0.3,0,0.6,0,0.9,0.1c0.4,0.1,0.7,0.4,0.8,0.8 c0.1,0.2,0.2,0.5,0.2,0.8h2c0-0.2,0-0.5-0.1-0.7c-0.2-0.7-0.7-1.3-1.4-1.6c-0.8-0.3-1.6-0.5-2.5-0.5c-0.7,0-1.3,0.1-2,0.3 C-189.5,223.7-190.3,224.4-190.6,225.3"></path> </g> <g id="g10787"> <g id="g10793" transform="translate(542.745,757.7267)"> <path id="path10795" d="M-452.4-735.4v6.2h8.2c0,0,0-6.2,0-6.2c0,0,4,0,4.1,0c0,0,0,15.4,0,15.4h-4.1v-6.8c0,0-8.2,0-8.2,0 c0,0,0,6.8,0,6.8h-4.1c0,0,0-15.4,0-15.4H-452.4z"></path> </g> <g id="g10797" transform="translate(487.915,757.7267)"> <path id="path10799" d="M-436.2-735.4v2.6h-6.2v12.8h-4.1v-12.8h-6.2c0,0,0-2.6,0-2.6C-452.8-735.4-436.2-735.4-436.2-735.4"></path> </g> <g id="g10801" transform="translate(496.635,754.0187)"> <path id="path10803" d="M-438.8-729.1l-2.8,7h5.7L-438.8-729.1z M-429.1-716.3h-4.5c0,0-1.3-3.3-1.3-3.3h-7.6 c0,0-1.3,3.3-1.3,3.3c0,0-4.5,0-4.5,0l7.2-15.4c0,0,5,0,5,0L-429.1-716.3z"></path> </g> </g> <g id="g10809"> <g id="g10815" transform="translate(434.5951,757.7267)"> <path id="path10817" d="M-420.5-735.4c0,0,0,6.2,0,6.2h8.2c0,0,0-6.2,0-6.2c0,0,4,0,4.1,0c0,0,0,15.4,0,15.4h-4.1v-6.8 c0,0-8.2,0-8.2,0c0,0,0,6.8,0,6.8h-4.1c0,0,0-15.4,0-15.4H-420.5z"></path> </g> </g> </g> </svg> 