<?xml version="1.0" encoding="UTF-8"?> <svg xmlns="http://www.w3.org/2000/svg" xmlns:xlink="http://www.w3.org/1999/xlink" version="1.1" id="Livello_1" x="0px" y="0px" viewBox="0 0 120 60" style="enable-background:new 0 0 120 60;" xml:space="preserve"> <style type="text/css"> .st0{fill:#231F20;} .st1{fill:#FFFFFF;} </style> <g> <g> <rect x="13.5" y="7.1" class="st0" width="92.9" height="45.8"></rect> </g> <g> <polyline class="st1" points="61.5,40.4 61.5,41.5 63.6,41.5 63.6,45.4 64.8,45.4 64.8,41.5 66.8,41.5 66.8,40.4 61.5,40.4 "></polyline> <path class="st1" d="M79.1,40.4V44L76,40.7c-0.3-0.3-0.6-0.4-1-0.4c-0.3,0-0.5,0.3-0.5,0.7v4.4h1.1v-3.6l3.1,3.2 c0.3,0.3,0.6,0.5,0.9,0.4c0.5-0.1,0.6-0.5,0.6-0.8v-4.3L79.1,40.4"></path> <path class="st1" d="M72.3,42.9c0,1.4-0.6,1.5-1.8,1.5c-1.2,0-1.8-0.1-1.8-1.5c0-1.4,0.6-1.5,1.8-1.5S72.3,41.5,72.3,42.9 M67.4,42.9c0,2.2,1.1,2.6,3.1,2.6c2,0,3.1-0.4,3.1-2.6s-1.1-2.6-3.1-2.6C68.5,40.3,67.4,40.8,67.4,42.9"></path> <rect x="52.7" y="40.4" class="st1" width="1.1" height="5"></rect> <path class="st1" d="M47.1,41.5h2.3c0.7,0,0.8,0.3,0.8,0.6c0,0.3-0.1,0.6-0.8,0.6h-2.3L47.1,41.5 M50.2,43.5 c0.7-0.2,1.1-0.7,1.1-1.5c0-1-0.7-1.6-1.7-1.6H46v5h1.1v-1.8h1.8l1.3,1.8h1.3L50.2,43.5z"></path> <path class="st1" d="M58.5,42.3h-1c-0.9,0-1-0.2-1-0.5c0-0.4,0.6-0.5,1.4-0.5c0.7,0,1.4,0.1,2.2,0.5l0.6-0.8 c-0.9-0.5-1.7-0.7-2.8-0.7c-1.6,0-2.6,0.6-2.6,1.6c0,1.1,0.9,1.5,2.1,1.5h1.1c1.1,0,1.2,0.1,1.2,0.5c0,0.4-0.6,0.7-1.6,0.7 c-0.9,0-1.7-0.2-2.5-0.7L55,44.7c0.8,0.7,1.8,0.9,3.1,0.9c1.8,0,2.8-0.6,2.8-1.8C60.9,42.8,60.1,42.3,58.5,42.3"></path> <path class="st1" d="M41.8,41.7c0,0.1,0.6,1,1.1,1.9h-2.2C40.7,43.6,41.7,41.8,41.8,41.7 M41.8,40.3c-0.2,0-0.5,0.1-0.6,0.3 l-3,4.9h1.3l0.5-0.9h3.3l0.5,0.9h1.3l-3-4.9C42.2,40.4,42,40.3,41.8,40.3"></path> </g> <g> <path class="st1" d="M35.9,23.3c0-2.3,0.7-3.2,2.6-3.2c1.9,0,2.6,0.9,2.6,3.2c0,2.3-0.7,3.2-2.6,3.2 C36.6,26.5,35.9,25.7,35.9,23.3 M33.4,23.3c0,3.5,1.7,5.2,5.1,5.2c3.4,0,5.1-1.8,5.1-5.2c0-3.5-1.7-5.2-5.1-5.2 C35.1,18.1,33.4,19.8,33.4,23.3"></path> <path class="st1" d="M66.8,23.3c0-2.3,0.7-3.2,2.6-3.2c1.9,0,2.6,0.9,2.6,3.2c0,2.3-0.7,3.2-2.6,3.2 C67.5,26.5,66.8,25.7,66.8,23.3 M64.3,23.3c0,3.5,1.7,5.2,5.1,5.2c3.4,0,5.1-1.8,5.1-5.2c0-3.5-1.7-5.2-5.1-5.2 C66,18.1,64.3,19.8,64.3,23.3"></path> <path class="st1" d="M92.9,15.9v9.5c0,1.9,1.2,3,3.4,3h2.2c0.6,0,0.8-0.5,0.8-1c0-0.5-0.2-1-0.8-1h-1.3c-1.1,0-1.7-0.1-1.7-1.4 v-4.6h2.8c0.6,0,0.8-0.5,0.8-1c0-0.5-0.2-1-0.8-1l-2.8,0v-2.6c0-0.7-0.5-1.1-1.2-1.1C93.6,14.9,92.9,15.1,92.9,15.9"></path> <path class="st1" d="M45.5,15.9v9.5c0,1.9,1.2,3,3.4,3h2.2c0.5,0,0.8-0.5,0.8-1c0-0.5-0.2-1-0.8-1h-1.3c-1.1,0-1.7-0.1-1.7-1.4 v-4.6h2.8c0.6,0,0.8-0.5,0.8-1c0-0.5-0.2-1-0.8-1h-2.8v-2.6c0-0.7-0.5-1.1-1.2-1.1C46.2,14.9,45.5,15.1,45.5,15.9"></path> <path class="st1" d="M85.4,18.3c-2.9,0-4.2,1.2-4.2,3.9v5.2c0,0.6,0.5,1,1.3,1c0.8,0,1.3-0.4,1.3-1v-5c0-1.5,0.3-1.9,1.8-1.9h0.7 c1.6,0,1.8,0.5,1.8,1.9v5c0,0.6,0.5,1,1.3,1c0.8,0,1.3-0.4,1.3-1v-5.2c0-2.7-1.2-3.9-4.2-3.9L85.4,18.3"></path> <path class="st1" d="M76.4,19.4v7.9c0,0.8,0.7,1.1,1.3,1.1s1.3-0.3,1.3-1.1v-7.9c0-0.8-0.7-1.1-1.3-1.1 C77.1,18.3,76.4,18.6,76.4,19.4"></path> <path class="st1" d="M76.3,15.5c0,0.8,0.7,1.5,1.4,1.5c0.8,0,1.4-0.6,1.4-1.5c0-0.8-0.6-1.5-1.4-1.5 C76.9,14.1,76.3,14.7,76.3,15.5"></path> <path class="st1" d="M55.8,26.3v-5.7c0.5-0.1,1.2-0.2,1.8-0.2c2,0,2.8,0.8,2.8,2.9c0,2.4-0.7,3.2-2.9,3.2 C56.9,26.5,56.2,26.4,55.8,26.3 M54.8,18.6c-1,0.2-1.5,0.8-1.5,1.9v10.9c0,0.8,0.7,1.1,1.3,1.1c0.6,0,1.3-0.3,1.3-1.1v-3.2 c0.6,0.1,1.1,0.2,1.8,0.2c1.6,0,2.4-0.3,3.2-0.8c1.3-0.8,2.1-2.2,2.1-4.2c0-3.4-1.7-5.1-5.2-5.1C56.8,18.3,55.7,18.4,54.8,18.6"></path> <path class="st1" d="M29,15.6v4.6h-5.4v-4.6c0-0.7-0.5-1-1.2-1c-0.6,0-1.3,0.3-1.3,1v11.7c0,0.7,0.5,1,1.2,1c0.6,0,1.3-0.3,1.3-1 v-4.8H29v4.8c0,0.7,0.5,1,1.2,1c0.6,0,1.3-0.3,1.3-1V15.6c0-0.7-0.5-1-1.2-1C29.7,14.6,29,14.8,29,15.6"></path> </g> <path class="st1" d="M98.6,34.7H21.4c-0.3,0-0.4,0.2-0.4,0.5s0.1,0.5,0.4,0.5h77.2c0.3,0,0.4-0.2,0.4-0.5 C99,34.9,98.9,34.7,98.6,34.7"></path> </g> </svg> 