<?xml version="1.0" encoding="UTF-8"?> <svg xmlns="http://www.w3.org/2000/svg" xmlns:xlink="http://www.w3.org/1999/xlink" version="1.1" id="Layer_1" x="0px" y="0px" viewBox="0 0 120 60" style="enable-background:new 0 0 120 60;" xml:space="preserve"> <style type="text/css"> .st0{fill:#A5CF4C;} </style> <path class="st0" d="M93.4,39.2c-4.2,0-8.2,0.1-9.4,0c-2.3-0.2-3.8-1.7-3.9-3.9c-0.1-1.4-0.1-2.6,0-3.7c0.2-2.1,2-4.1,4-4.2 c0.7,0,2.6,0,6,0l10,0v-4.1c0,0-8,0-10.3,0c-3.2,0-4.8,0-5.9,0c-2.3,0.1-4.1,0.9-5.6,2.4c-1.4,1.4-2.2,3.6-2.3,5.9 c-0.1,1.2-0.1,2.8,0,3.8c0.2,2.4,1,4.3,2.3,5.7c1.4,1.4,3.6,2.3,5.6,2.4c1.7,0,16.2,0,16.2,0v-4.1C100,39.1,95.6,39.2,93.4,39.2z M48.3,23.4v4.1h9.9v15.7h4.2V27.5h9.9v-4.1H48.3z M44,31.2c0-2.2-0.8-4.1-2.3-5.7c-1.6-1.6-4-2.3-5.6-2.4c-1.4-0.1-6.8-0.1-8.1,0 c-1.8,0.1-3.1,0.6-3.8,1.1c0,0,0,0,0,0v-7.5H20v26.6h4.2c0,0-0.1-10.9,0-12.1c0.2-2.1,1.8-3.8,3.8-3.9c1.6-0.1,6.5-0.1,8.1,0 c2.1,0.1,3.7,1.8,3.8,4c0,0.8,0,12,0,12H44C44,43.3,44,32.2,44,31.2z"></path> </svg> 