<?xml version="1.0" encoding="UTF-8"?> <svg xmlns="http://www.w3.org/2000/svg" xmlns:xlink="http://www.w3.org/1999/xlink" version="1.1" id="Livello_1" x="0px" y="0px" viewBox="0 0 120 60" style="enable-background:new 0 0 120 60;" xml:space="preserve"> <style type="text/css"> .st0{fill:#1D1D1B;} </style> <g> <path class="st0" d="M21.2,19.5v12.7c0,0.9,0.6,1.5,1.4,1.5c0.8,0,1.4-0.6,1.4-1.5V19.5c0-0.9-0.6-1.5-1.4-1.5 C21.8,18,21.2,18.6,21.2,19.5"></path> <path class="st0" d="M27.6,15c0,0.6,0.4,1,0.9,1.4c3.1,2.1,4.9,5.4,4.9,9.1c0,3.1-1.1,5.9-3.2,7.9c-2,2-4.7,3.1-7.6,3.1 c-2.9,0-5.6-1.2-7.6-3.1c-2.1-2.1-3.2-4.8-3.2-7.9c0-3.7,1.8-7,4.9-9.1c0.5-0.4,0.9-0.8,0.9-1.4c0-0.8-0.7-1.3-1.3-1.3 c-0.3,0-0.5,0-1,0.3c-4,2.6-6.3,6.8-6.3,11.3c0,3.8,1.4,7.3,4,9.7c2.5,2.4,6,3.8,9.7,3.8c3.7,0,7.2-1.3,9.7-3.8 c2.5-2.6,3.9-6,3.9-9.7c0-4.6-2.4-8.7-6.3-11.3c-0.5-0.3-0.7-0.3-1-0.3C28.2,13.8,27.6,14.3,27.6,15"></path> <path class="st0" d="M20.8,13.6c0,1,0.8,1.9,1.8,1.9c1,0,1.8-0.8,1.8-1.9c0-1-0.8-1.8-1.8-1.8C21.6,11.8,20.8,12.6,20.8,13.6"></path> <path class="st0" d="M42.2,19.7c-0.2,0-0.3,0.1-0.3,0.3v12c0,0.2,0.1,0.3,0.3,0.3h2.1c0.2,0,0.2-0.1,0.2-0.3V20 c0-0.2-0.1-0.3-0.2-0.3L42.2,19.7"></path> <path class="st0" d="M47.5,19.7c-0.2,0-0.3,0.1-0.3,0.3v12.1c0,0.1,0.1,0.3,0.3,0.3h2c0.2,0,0.3-0.1,0.3-0.3v-9.9 c0-0.1,0-0.1,0.1-0.1h2.7c2.2,0,3,0.8,3,3v7c0,0.2,0.1,0.3,0.3,0.3h2c0.2,0,0.3-0.1,0.3-0.3v-7.6c0-3.1-1.9-4.8-5.4-4.8H47.5"></path> <path class="st0" d="M63.3,29.8c0,0.1,0,0.1,0.1,0.1h1.7c2.4,0,3.7-1.4,3.7-3.9c0-2.4-1.3-3.9-3.7-3.9h-1.7c0,0-0.1,0.1-0.1,0.1 V29.8 M61,19.7h3.6c4.4,0,7,2.3,7,6.3c0,2.3-0.9,6.3-7.2,6.3H61c-0.2,0-0.3-0.1-0.3-0.3V20C60.7,19.9,60.8,19.7,61,19.7"></path> <path class="st0" d="M78.7,21.7c0.8,0,1.5,0.3,2.1,0.8c0.5,0.6,0.8,1.4,0.8,2.3v0.1h-5.8C75.9,23,77.1,21.7,78.7,21.7 M84,27L84,27 M73.2,26.1c0,2.2,0.6,3.9,1.9,5c1.2,1,2.8,1.6,4.9,1.6c1.1,0,2.6-0.3,3.4-0.6c0.2-0.1,0.3-0.1,0.3-0.3l0-1.8c0-0.1,0-0.3-0.1-0.3 c0-0.1-0.1-0.1-0.2,0c-1.1,0.5-2.1,0.6-3.1,0.6c-2.5,0-4.1-1.2-4.2-3.2h7.6c0.2,0,0.4-0.1,0.4-0.1c0.1-0.2,0.2-0.5,0.2-1.4 c0-3.7-2.1-6.2-5.4-6.2C75.4,19.4,73.2,22.1,73.2,26.1"></path> <path class="st0" d="M85.9,23.4c0,2,1,3.2,3.5,3.7l1.5,0.4c1.3,0.3,1.7,0.6,1.7,1.3c0,0.9-0.9,1.5-2.6,1.5c-1.8,0-3.1-0.5-3.7-0.7 c-0.1-0.1-0.2-0.1-0.2,0c-0.1,0.1-0.1,0.1-0.1,0.2l0,1.9c0,0.3,0,0.3,0.4,0.5c0.7,0.2,2.3,0.5,3.4,0.5c4.8,0,5.5-2.5,5.5-4 c0-1.9-1.1-3-3.5-3.5l-1.2-0.3c-1.6-0.4-2-0.9-2-1.7c0-0.7,0.6-1.5,2.2-1.5c1.1,0,2.5,0.3,3.5,0.5c0.1,0.1,0.2,0.1,0.3,0 c0-0.1,0-0.1,0-0.2l0-1.7c0-0.3-0.2-0.3-0.4-0.4c-0.8-0.2-2.3-0.4-3.5-0.4C87.8,19.4,85.9,21,85.9,23.4"></path> <path class="st0" d="M97.7,19.7c-0.2,0-0.3,0.1-0.3,0.3v12c0,0.2,0.1,0.3,0.3,0.3h2.1c0.2,0,0.3-0.1,0.3-0.3V20 c0-0.2-0.1-0.3-0.3-0.3L97.7,19.7"></path> <path class="st0" d="M102.2,19.7c-0.1,0-0.2,0.1-0.2,0.3v1.9c0,0.1,0.1,0.3,0.2,0.3h2.9c0,0,0.1,0.1,0.1,0.1v9.9 c0,0.2,0.1,0.3,0.2,0.3h2.1c0.1,0,0.2-0.1,0.2-0.3v-9.9c0-0.1,0-0.1,0.1-0.1h2.9c0.1,0,0.2-0.1,0.2-0.3V20c0-0.2-0.1-0.3-0.2-0.3 L102.2,19.7"></path> <polyline class="st0" points="62.1,45 65.6,45 65.6,46.1 60.8,46.1 60.8,38.5 62.1,38.5 62.1,45 "></polyline> <path class="st0" d="M66.9,37.9h1.3V39h-1.3V37.9z M66.9,40.4h1.3v5.6h-1.3V40.4z"></path> <path class="st0" d="M70.2,46.1v-4.7h-0.9v-0.9h0.9v-0.7c0-0.6,0.2-1.1,0.5-1.4c0.3-0.3,0.8-0.5,1.4-0.5c0.1,0,0.2,0,0.4,0 c0.1,0,0.3,0,0.4,0.1l-0.1,1c-0.1,0-0.1,0-0.2,0c-0.1,0-0.2,0-0.3,0c-0.3,0-0.5,0.1-0.6,0.2c-0.1,0.2-0.2,0.4-0.2,0.7v0.7h1v0.9h-1 v4.7H70.2"></path> <g> <path class="st0" d="M76,46.2c-0.8,0-1.5-0.3-1.9-0.8s-0.7-1.2-0.7-2v-0.2c0-0.8,0.2-1.5,0.7-2c0.5-0.5,1.1-0.8,1.8-0.8 c0.8,0,1.3,0.2,1.7,0.7c0.4,0.5,0.6,1.1,0.6,1.9v0.7h-3.5l0,0c0,0.5,0.1,0.8,0.4,1.1c0.2,0.3,0.6,0.4,1,0.4c0.3,0,0.6,0,0.9-0.1 c0.3-0.1,0.5-0.2,0.7-0.4l0.4,0.8c-0.2,0.2-0.5,0.3-0.9,0.5C76.8,46.1,76.4,46.2,76,46.2 M75.8,41.3c-0.3,0-0.6,0.1-0.8,0.4 c-0.2,0.2-0.3,0.5-0.4,0.9l0,0h2.2v-0.1c0-0.4-0.1-0.7-0.3-0.9C76.5,41.4,76.2,41.3,75.8,41.3z"></path> <path class="st0" d="M87.2,43.4c0,0.8-0.2,1.5-0.6,2c-0.4,0.5-0.9,0.8-1.6,0.8c-0.3,0-0.6-0.1-0.9-0.2c-0.2-0.1-0.5-0.3-0.6-0.5 v2.7h-1.3v-7.8h1.1l0.1,0.7c0.2-0.3,0.4-0.5,0.7-0.6c0.3-0.1,0.6-0.2,0.9-0.2c0.7,0,1.2,0.3,1.6,0.8c0.4,0.5,0.6,1.3,0.6,2.2 L87.2,43.4 M85.9,43.3c0-0.6-0.1-1.1-0.3-1.4c-0.2-0.4-0.5-0.5-1-0.5c-0.3,0-0.5,0.1-0.7,0.2c-0.2,0.1-0.3,0.3-0.4,0.5v2.6 c0.1,0.2,0.3,0.3,0.4,0.5s0.4,0.2,0.7,0.2c0.4,0,0.8-0.2,1-0.5c0.2-0.3,0.3-0.7,0.3-1.3L85.9,43.3L85.9,43.3z"></path> </g> <path class="st0" d="M91.3,41.6l-0.5,0c-0.2,0-0.5,0.1-0.6,0.2c-0.2,0.1-0.3,0.3-0.4,0.4v3.9h-1.3v-5.6h1.2l0.1,0.8 c0.1-0.3,0.3-0.5,0.5-0.7c0.2-0.2,0.5-0.2,0.8-0.2c0.1,0,0.1,0,0.2,0c0.1,0,0.1,0,0.2,0L91.3,41.6"></path> <path class="st0" d="M92.2,43.2c0-0.8,0.2-1.5,0.7-2.1c0.5-0.5,1.1-0.8,1.9-0.8c0.8,0,1.4,0.3,1.9,0.8c0.5,0.5,0.7,1.2,0.7,2.1v0.1 c0,0.8-0.2,1.5-0.7,2.1c-0.5,0.5-1.1,0.8-1.9,0.8c-0.8,0-1.4-0.3-1.9-0.8c-0.5-0.5-0.7-1.2-0.7-2.1L92.2,43.2 M93.5,43.3 c0,0.6,0.1,1,0.3,1.3c0.2,0.3,0.5,0.5,1,0.5c0.4,0,0.8-0.2,1-0.5c0.2-0.3,0.3-0.8,0.3-1.3v-0.1c0-0.5-0.1-1-0.3-1.3s-0.6-0.5-1-0.5 c-0.4,0-0.8,0.2-1,0.5s-0.3,0.8-0.3,1.3L93.5,43.3L93.5,43.3z"></path> <path class="st0" d="M98.5,43.2c0-0.8,0.2-1.5,0.7-2.1c0.5-0.5,1.1-0.8,1.9-0.8c0.8,0,1.4,0.3,1.9,0.8c0.5,0.5,0.7,1.2,0.7,2.1v0.1 c0,0.8-0.2,1.5-0.7,2.1c-0.5,0.5-1.1,0.8-1.9,0.8c-0.8,0-1.4-0.3-1.9-0.8c-0.5-0.5-0.7-1.2-0.7-2.1L98.5,43.2 M99.7,43.3 c0,0.6,0.1,1,0.3,1.3c0.2,0.3,0.5,0.5,1,0.5c0.4,0,0.8-0.2,1-0.5c0.2-0.3,0.3-0.8,0.3-1.3v-0.1c0-0.5-0.1-1-0.3-1.3s-0.6-0.5-1-0.5 c-0.4,0-0.8,0.2-1,0.5s-0.3,0.8-0.3,1.3L99.7,43.3L99.7,43.3z"></path> <path class="st0" d="M105.4,46.1v-4.7h-0.9v-0.9h0.9v-0.7c0-0.6,0.2-1.1,0.5-1.4c0.3-0.3,0.8-0.5,1.4-0.5c0.1,0,0.2,0,0.4,0 c0.1,0,0.3,0,0.4,0.1l-0.1,1c-0.1,0-0.1,0-0.2,0c-0.1,0-0.2,0-0.3,0c-0.3,0-0.5,0.1-0.6,0.2c-0.1,0.2-0.2,0.4-0.2,0.7v0.7h1v0.9h-1 v4.7H105.4"></path> <rect x="108.9" y="44.8" class="st0" width="1.3" height="1.2"></rect> </g> </svg> 