<?xml version="1.0" encoding="UTF-8"?> <svg xmlns="http://www.w3.org/2000/svg" xmlns:xlink="http://www.w3.org/1999/xlink" version="1.1" id="图层_1" x="0px" y="0px" viewBox="0 0 120 60" style="enable-background:new 0 0 120 60;" xml:space="preserve"> <style type="text/css"> .st0{fill:#045DA1;} </style> <g> <g> <g> <g> <path class="st0" d="M37.4,34h-4.9l1.7-10.4c0.1-0.4,0-0.7-0.3-1c-0.2-0.3-0.6-0.4-0.9-0.4h-3.7L27.5,34h-4.9L25,19.2h10.5 c1.1,0,2.1,0.5,2.8,1.3c0.7,0.9,1,1.9,0.8,3L37.4,34z"></path> <path class="st0" d="M55.4,29.7c-0.3,1.2-0.8,2.2-1.8,3c-1,0.9-2,1.2-3.3,1.3H39.4l0.5-3h9c0.4,0,0.8-0.2,1.1-0.4 c0.3-0.3,0.5-0.7,0.6-1c0.1-0.4,0-0.8-0.2-1.1c-0.2-0.3-0.5-0.4-1-0.4h-5c-1.2,0-2.1-0.4-2.8-1.3c-0.7-0.9-1-2-0.8-3.3 c0.2-1.1,0.7-2.1,1.8-3c1-0.9,2-1.2,3.2-1.3h10.9l-0.5,3h-8.9c-0.4,0-0.8,0.1-1.1,0.4c-0.3,0.3-0.5,0.7-0.6,1.1 c-0.1,0.4,0,0.7,0.3,1c0.2,0.3,0.6,0.4,0.9,0.4h5c1.2,0,2.1,0.4,2.8,1.3C55.3,27.3,55.6,28.4,55.4,29.7z"></path> <path class="st0" d="M88.7,34H78.2c-1.1,0-2.1-0.5-2.8-1.3c-0.7-0.9-1-1.9-0.8-3l1.7-10.5h4.9l-1.7,10.4c-0.1,0.4,0,0.7,0.3,1 c0.2,0.3,0.6,0.4,0.9,0.4h3.7l1.9-11.9h4.9L88.7,34z"></path> <path class="st0" d="M102.5,22.1c0,0-3.5,0-3.5,0c-0.4,0-0.8,0.1-1.1,0.4c-0.3,0.3-0.5,0.6-0.6,1L95.6,34h-4.9l1.7-10.5 c0.3-1.2,0.8-2.1,1.8-3c1.1-0.8,1.9-1.2,3.2-1.3h6.8C104.2,19.2,102.5,22.1,102.5,22.1z"></path> <polygon class="st0" points="18.1,19.2 17.7,22.1 20.3,23.9 17.1,25.7 15.8,34 20.6,34 23,19.2 "></polygon> <g> <path class="st0" d="M73.3,21.3c-1.1-2.2-3.2-2.1-3.2-2.1H58.6l-0.5,2.9l2.7,1.8l-3.2,1.7l-2.4,15.2l5.2-1.6l0.8-5.5 c0.6,0.3,1.5,0.3,1.5,0.3l4.9,0c1.3-0.1,2.2-0.6,2.2-0.6c2.4-1.3,2.8-3.6,2.8-3.6l1-6.5C73.8,22.3,73.3,21.3,73.3,21.3z M68.7,23.6l-1,6c-0.1,0.4-0.3,0.7-0.6,1c-0.3,0.3-0.7,0.4-1.1,0.4h-4.5l1.4-8.9h4.5c0.4,0,0.7,0.1,0.9,0.4 C68.7,22.8,68.8,23.2,68.7,23.6z"></path> </g> </g> </g> </g> </g> </svg> 