<?xml version="1.0" encoding="UTF-8"?> <svg xmlns="http://www.w3.org/2000/svg" xmlns:xlink="http://www.w3.org/1999/xlink" version="1.1" id="Layer_1" x="0px" y="0px" viewBox="0 0 120 60" style="enable-background:new 0 0 120 60;" xml:space="preserve"> <style type="text/css"> .st0{fill:#FFD100;} .st1{fill:#212721;} </style> <g> <path class="st0" d="M37.8,28.8c-2.6,0-2.6,0.6-2.6,0.9v0.5c0,0.3,0,0.9,2.6,0.9c2.6,0,2.6-0.6,2.6-0.9v-0.5 C40.4,29.5,40.4,28.8,37.8,28.8z"></path> <path class="st0" d="M53.9,30.2v-4c0-0.3,0-0.9-2.6-0.9c-2.6,0-2.6,0.6-2.6,0.9v4c0,0.3,0,0.9,2.6,0.9 C53.9,31.1,53.9,30.5,53.9,30.2z"></path> <path class="st0" d="M71.4,31.2c2.6,0,2.6-0.6,2.6-0.9v-0.5c0-0.3,0-0.9-2.6-0.9s-2.6,0.6-2.6,0.9v0.5 C68.8,30.5,68.8,31.2,71.4,31.2z"></path> <path class="st0" d="M114.3,10.7H5.7c-1.3,0-2.4,1.1-2.4,2.4v33.8c0,1.3,1.1,2.4,2.4,2.4h108.5c1.3,0,2.4-1.1,2.4-2.4V13.1 C116.7,11.8,115.6,10.7,114.3,10.7z M65.9,29.3c0-0.6,0-1.8,5.5-1.8c1.1,0,1.9,0,2.6,0.1v-1.3c0-0.3,0-0.9-2.6-0.9 c-2.4,0-2.4,0.6-2.4,0.9c0,0.2-0.1,0.3-0.3,0.3h-2.2c-0.2,0-0.3-0.1-0.3-0.3v-0.5c0-0.6,0-1.8,5.3-1.8c5.5,0,5.5,1.2,5.5,1.8v5 c0,0.6,0,1.8-5.5,1.8s-5.5-1.2-5.5-1.8V29.3z M20.2,39.4c0,0.1-0.1,0.2-0.2,0.2h-0.8c-0.1,0-0.2-0.1-0.2-0.2v-2 c0-0.1,0.1-0.2,0.2-0.2H20c0.1,0,0.2,0.1,0.2,0.2V39.4z M24.3,39.4c0,0.1-0.1,0.2-0.2,0.2h-0.9c-0.1,0-0.2-0.1-0.2-0.2v-2 c0-0.1,0.1-0.2,0.2-0.2H24c0.1,0,0.2,0.1,0.2,0.2V39.4z M28.3,39.4c0,0.1-0.1,0.2-0.2,0.2H27c-0.1,0-0.2-0.1-0.2-0.2v-2 c0-0.1,0.1-0.2,0.2-0.2h1.1c0.1,0,0.2,0.1,0.2,0.2V39.4z M29.9,30.7c0,0.6,0,1.8-5.5,1.8S19,31.3,19,30.7v-0.8 c0-0.2,0.1-0.3,0.3-0.3h2.2c0.2,0,0.3,0.1,0.3,0.3v0.4c0,0.3,0.1,0.9,2.6,0.9c2.6,0,2.6-0.6,2.6-0.9v-9.6c0-0.2,0.1-0.3,0.3-0.3 h2.2c0.2,0,0.3,0.1,0.3,0.3L29.9,30.7z M32.4,39.4c0,0.1-0.1,0.2-0.2,0.2H31c-0.1,0-0.2-0.1-0.2-0.2v-2c0-0.1,0.1-0.2,0.2-0.2h1.2 c0.1,0,0.2,0.1,0.2,0.2V39.4z M36.5,39.4c0,0.1-0.1,0.2-0.2,0.2h-1.3c-0.1,0-0.2-0.1-0.2-0.2v-1.9c0-0.1,0.1-0.2,0.2-0.2h1.3 c0.1,0,0.2,0.1,0.2,0.2V39.4z M32.3,30.7v-1.4c0-0.6,0-1.8,5.5-1.8c1.1,0,1.9,0,2.6,0.1v-1.3c0-0.3,0-0.9-2.6-0.9 c-2.4,0-2.4,0.6-2.4,0.9c0,0.2-0.1,0.3-0.3,0.3h-2.2c-0.2,0-0.3-0.1-0.3-0.3v-0.5c0-0.6,0-1.8,5.3-1.8c5.5,0,5.5,1.2,5.5,1.8v5 c0,0.6,0,1.8-5.5,1.8C32.3,32.6,32.3,31.3,32.3,30.7z M40.5,39.4c0,0.1-0.1,0.2-0.2,0.2h-1.5c-0.1,0-0.2-0.1-0.2-0.2v-1.9 c0-0.1,0.1-0.2,0.2-0.2h1.5c0.1,0,0.2,0.1,0.2,0.2V39.4z M44.6,39.4c0,0.1-0.1,0.3-0.3,0.3h-1.6c-0.1,0-0.3-0.1-0.3-0.3v-1.9 c0-0.1,0.1-0.3,0.3-0.3h1.6c0.1,0,0.3,0.1,0.3,0.3V39.4z M45.8,30.7v-10c0-0.2,0.1-0.3,0.3-0.3h2.2c0.2,0,0.3,0.1,0.3,0.3V24 c0.7-0.1,1.6-0.1,2.6-0.1c5.5,0,5.5,1.2,5.5,1.8v5c0,0.6,0,1.8-5.5,1.8C45.8,32.6,45.8,31.3,45.8,30.7z M48.7,39.4 c0,0.1-0.1,0.3-0.3,0.3h-1.7c-0.1,0-0.3-0.1-0.3-0.3v-1.9c0-0.1,0.1-0.3,0.3-0.3h1.7c0.1,0,0.3,0.1,0.3,0.3V39.4z M52.7,39.4 c0,0.1-0.1,0.3-0.3,0.3h-1.9c-0.1,0-0.3-0.1-0.3-0.3v-1.9c0-0.1,0.1-0.3,0.3-0.3h1.9c0.1,0,0.3,0.1,0.3,0.3V39.4z M56.8,39.4 c0,0.2-0.1,0.3-0.3,0.3h-2c-0.2,0-0.3-0.1-0.3-0.3v-1.8c0-0.2,0.1-0.3,0.3-0.3h2c0.2,0,0.3,0.1,0.3,0.3V39.4z M60.9,39.4 c0,0.2-0.1,0.3-0.3,0.3h-2.1c-0.2,0-0.3-0.1-0.3-0.3v-1.8c0-0.2,0.1-0.3,0.3-0.3h2.1c0.2,0,0.3,0.1,0.3,0.3L60.9,39.4L60.9,39.4z M62.1,32c0,0.2-0.1,0.3-0.3,0.3h-2.2c-0.2,0-0.3-0.1-0.3-0.3v-6.3c0-0.6,0-1.8,5.5-1.8c0.2,0,0.3,0.1,0.3,0.3V25 c0,0.2-0.1,0.3-0.3,0.3c-2.6,0-2.6,0.6-2.6,0.9L62.1,32L62.1,32z M91.2,39.1c0,0.3-0.2,0.5-0.5,0.5h-28c-0.3,0-0.5-0.2-0.5-0.5 v-1.3c0-0.3,0.2-0.5,0.5-0.5h28c0.3,0,0.5,0.2,0.5,0.5L91.2,39.1L91.2,39.1z M91.2,28c0,0.4-0.3,0.7-0.7,0.7H87 c-2.4,0-4.3-2-4.2-4.4c0.1-2.2,2-4,4.2-4h3.4c0.4,0,0.7,0.3,0.7,0.7c0,0.4-0.3,0.7-0.7,0.7H87c-1.5,0-2.7,1.2-2.8,2.6 c-0.1,1.6,1.2,3,2.8,3h2.6l0,0c0.1,0,0.2-0.1,0.2-0.2l0,0v-1.8c0-0.1-0.1-0.2-0.2-0.2l0,0h-1.2c-0.4,0-0.7-0.3-0.7-0.7 c0-0.4,0.3-0.7,0.7-0.7h2.1c0.4,0,0.7,0.3,0.7,0.7L91.2,28L91.2,28z M101,28c0,0.2-0.1,0.5-0.3,0.6c-0.1,0.1-0.2,0.1-0.4,0.1 c-0.2,0-0.4-0.1-0.5-0.2l-5.5-5.5c-0.1-0.1-0.2,0-0.2,0.1V28c0,0.4-0.3,0.7-0.7,0.7c-0.4,0-0.7-0.3-0.7-0.7v-7 c0-0.2,0.1-0.5,0.3-0.6c0.3-0.2,0.6-0.1,0.9,0.1l5.6,5.6c0.1,0.1,0.2,0,0.2-0.1v-5c0-0.4,0.3-0.7,0.7-0.7c0.4,0,0.7,0.3,0.7,0.7V28 z"></path> <path class="st1" d="M64.7,25.3c0.2,0,0.3-0.1,0.3-0.3v-0.7c0-0.2-0.1-0.3-0.3-0.3c-5.5,0-5.5,1.2-5.5,1.8V32 c0,0.2,0.1,0.3,0.3,0.3h2.2c0.2,0,0.3-0.1,0.3-0.3v-5.8C62.1,25.9,62.1,25.3,64.7,25.3z"></path> <path class="st1" d="M43.3,30.7v-5c0-0.6,0-1.8-5.5-1.8c-5.3,0-5.3,1.2-5.3,1.8v0.5c0,0.2,0.1,0.3,0.3,0.3H35 c0.2,0,0.3-0.1,0.3-0.3c0-0.3,0-0.9,2.4-0.9c2.6,0,2.6,0.6,2.6,0.9v1.3c-0.7-0.1-1.6-0.1-2.6-0.1c-5.5,0-5.5,1.2-5.5,1.8v1.4 c0,0.6,0,1.8,5.5,1.8C43.3,32.6,43.3,31.3,43.3,30.7z M40.4,30.2c0,0.3,0,0.9-2.6,0.9c-2.6,0-2.6-0.6-2.6-0.9v-0.5 c0-0.3,0-0.9,2.6-0.9c2.6,0,2.6,0.6,2.6,0.9V30.2z"></path> <path class="st1" d="M56.7,30.7v-4.9c0-0.6,0-1.8-5.5-1.8c-1.1,0-1.9,0-2.6,0.1v-3.3c0-0.2-0.1-0.3-0.3-0.3h-2.2 c-0.2,0-0.3,0.1-0.3,0.3v10c0,0.6,0,1.8,5.5,1.8C56.7,32.6,56.7,31.3,56.7,30.7z M48.6,30.2v-4c0-0.3,0-0.9,2.6-0.9 c2.6,0,2.6,0.6,2.6,0.9v4c0,0.3,0,0.9-2.6,0.9C48.6,31.1,48.6,30.5,48.6,30.2z"></path> <path class="st1" d="M71.4,32.6c5.5,0,5.5-1.2,5.5-1.8v-5c0-0.6,0-1.8-5.5-1.8c-5.3,0-5.3,1.2-5.3,1.8v0.5c0,0.2,0.1,0.3,0.3,0.3 h2.2c0.2,0,0.3-0.1,0.3-0.3c0-0.3,0-0.9,2.4-0.9c2.6,0,2.6,0.6,2.6,0.9v1.3c-0.7-0.1-1.6-0.1-2.6-0.1c-5.5,0-5.5,1.2-5.5,1.8v1.4 C65.9,31.3,65.9,32.6,71.4,32.6z M68.8,29.7c0-0.3,0-0.9,2.6-0.9s2.6,0.6,2.6,0.9v0.5c0,0.3,0,0.9-2.6,0.9s-2.6-0.6-2.6-0.9V29.7z"></path> <path class="st1" d="M29.6,20.4h-2.2c-0.2,0-0.3,0.1-0.3,0.3v9.5c0,0.3,0,0.9-2.6,0.9c-2.5,0-2.6-0.6-2.6-0.9v-0.4 c0-0.2-0.1-0.3-0.3-0.3h-2.2c-0.2,0-0.3,0.1-0.3,0.3v0.8c0,0.6,0,1.8,5.5,1.8s5.5-1.2,5.5-1.8v-10C29.9,20.5,29.8,20.4,29.6,20.4z"></path> <path class="st1" d="M20,37.2h-0.8c-0.1,0-0.2,0.1-0.2,0.2v2c0,0.1,0.1,0.2,0.2,0.2H20c0.1,0,0.2-0.1,0.2-0.2v-2 C20.2,37.3,20.1,37.2,20,37.2z"></path> <path class="st1" d="M24.1,37.2h-0.9c-0.1,0-0.2,0.1-0.2,0.2v2c0,0.1,0.1,0.2,0.2,0.2h0.9c0.1,0,0.2-0.1,0.2-0.2v-2 C24.3,37.3,24.2,37.2,24.1,37.2z"></path> <path class="st1" d="M28.1,37.2H27c-0.1,0-0.2,0.1-0.2,0.2v2c0,0.1,0.1,0.2,0.2,0.2h1.1c0.1,0,0.2-0.1,0.2-0.2v-2 C28.3,37.3,28.2,37.2,28.1,37.2z"></path> <path class="st1" d="M32.2,37.2H31c-0.1,0-0.2,0.1-0.2,0.2v2c0,0.1,0.1,0.2,0.2,0.2h1.2c0.1,0,0.2-0.1,0.2-0.2v-2 C32.4,37.3,32.3,37.2,32.2,37.2z"></path> <path class="st1" d="M36.2,37.2h-1.3c-0.1,0-0.2,0.1-0.2,0.2v1.9c0,0.1,0.1,0.2,0.2,0.2h1.3c0.1,0,0.2-0.1,0.2-0.2v-1.9 C36.5,37.3,36.4,37.2,36.2,37.2z"></path> <path class="st1" d="M40.3,37.2h-1.5c-0.1,0-0.2,0.1-0.2,0.2v1.9c0,0.1,0.1,0.2,0.2,0.2h1.5c0.1,0,0.2-0.1,0.2-0.2v-1.9 C40.5,37.3,40.4,37.2,40.3,37.2z"></path> <path class="st1" d="M44.3,37.2h-1.6c-0.1,0-0.3,0.1-0.3,0.3v1.9c0,0.1,0.1,0.3,0.3,0.3h1.6c0.1,0,0.3-0.1,0.3-0.3v-1.9 C44.6,37.3,44.5,37.2,44.3,37.2z"></path> <path class="st1" d="M48.4,37.2h-1.7c-0.1,0-0.3,0.1-0.3,0.3v1.9c0,0.1,0.1,0.3,0.3,0.3h1.7c0.1,0,0.3-0.1,0.3-0.3v-1.9 C48.7,37.3,48.6,37.2,48.4,37.2z"></path> <path class="st1" d="M52.5,37.2h-1.9c-0.1,0-0.3,0.1-0.3,0.3v1.9c0,0.1,0.1,0.3,0.3,0.3h1.9c0.1,0,0.3-0.1,0.3-0.3v-1.9 C52.7,37.3,52.6,37.2,52.5,37.2z"></path> <path class="st1" d="M56.5,37.2h-2c-0.2,0-0.3,0.1-0.3,0.3v1.8c0,0.2,0.1,0.3,0.3,0.3h2c0.2,0,0.3-0.1,0.3-0.3v-1.8 C56.8,37.4,56.7,37.2,56.5,37.2z"></path> <path class="st1" d="M60.6,37.2h-2.1c-0.2,0-0.3,0.1-0.3,0.3v1.8c0,0.2,0.1,0.3,0.3,0.3h2.1c0.2,0,0.3-0.1,0.3-0.3v-1.8 C60.9,37.4,60.8,37.2,60.6,37.2z"></path> <path class="st1" d="M90.7,37.2h-28c-0.3,0-0.5,0.2-0.5,0.5v1.3c0,0.3,0.2,0.5,0.5,0.5h28c0.3,0,0.5-0.2,0.5-0.5v-1.3 C91.2,37.5,91,37.2,90.7,37.2z"></path> <path class="st1" d="M100.3,20.3c-0.4,0-0.7,0.3-0.7,0.7V26c0,0.1-0.1,0.2-0.2,0.1l-5.6-5.5c-0.2-0.2-0.6-0.3-0.9-0.1 c-0.2,0.1-0.3,0.4-0.3,0.6v7c0,0.4,0.3,0.7,0.7,0.7c0.4,0,0.7-0.3,0.7-0.7V23c0-0.1,0.1-0.2,0.2-0.1l5.6,5.6 c0.1,0.1,0.3,0.2,0.5,0.2c0.1,0,0.2,0,0.4-0.1c0.2-0.1,0.3-0.4,0.3-0.6v-7C101,20.6,100.6,20.3,100.3,20.3z"></path> <path class="st1" d="M90.5,23.8h-2.1c-0.4,0-0.7,0.3-0.7,0.7c0,0.4,0.3,0.7,0.7,0.7h1.2l0,0c0.1,0,0.2,0.1,0.2,0.2v1.8l0,0 c0,0.1-0.1,0.2-0.2,0.2l0,0h-2.6c-1.6,0-2.9-1.3-2.8-3c0.1-1.5,1.3-2.6,2.8-2.6h3.5c0.4,0,0.7-0.3,0.7-0.7c0-0.4-0.3-0.7-0.7-0.7 h-3.4c-2.2,0-4.1,1.8-4.2,4c-0.1,2.4,1.8,4.4,4.2,4.4h3.5c0.4,0,0.7-0.3,0.7-0.7v-3.5C91.2,24.1,90.9,23.8,90.5,23.8z"></path> </g> </svg> 