<?xml version="1.0" encoding="UTF-8"?> <svg xmlns="http://www.w3.org/2000/svg" xmlns:xlink="http://www.w3.org/1999/xlink" version="1.1" id="Layer_1" x="0px" y="0px" viewBox="0 0 120 60" style="enable-background:new 0 0 120 60;" xml:space="preserve"> <style type="text/css"> .st0{fill:#010101;} .st1{fill:#EC2130;} .st2{fill:#FFFFFF;} </style> <g> <path class="st0" d="M6,23.4c-0.2-0.2-0.3-1-0.3-1c0-0.5,0.2-0.6,0.2-0.6s2.8-1.5,7.7-1.5c1.6-0.2,4.1-0.2,6.7,0.6 c0.2,0.2,0.3,0.3,0.3,0.5c0.2,0.3,0.2,0.6,0.2,0.8c0.2,0.6,0.2,1.2,0.2,1.5c0,0.2-0.3,0.6-0.3,0.8c-0.2,0.5,0.2,2.2,0,2.9 c0,0.8-0.3,3.8-1.2,5.6c-0.6,2-2,1.6-2.7,1.6l3.1,6.6H5l2.3-11.6c0,0,0-0.3-0.3-0.5c-0.6-0.4-1-1-1-1S5.7,28,5.4,26 c0,0-0.3-1.8,0-2.2C5.6,23.7,5.8,23.4,6,23.4L6,23.4z"></path> <path class="st1" d="M17.8,26.5l-1-0.3c0,0-0.2,0-0.3,0.2c0,0.2-0.2,0.8-0.2,0.8v0.1l2.3,1.6c0,0-1.8-0.2-2.5-0.2 c-0.6,0.2-1.8,0.8-2.7,1c-0.6,0.2-3.7,0.3-3.8,0.3l-1.1-4.6c0,0-0.2-1.2-1.3-1.2c-1,0-1.2,0.2-1.2,0.3c-0.2,0.2,0,0.3,0,0.3 l3.1,5.2c0,0-2.2-1-2.9-2c-0.5-0.6-0.8-3.4-0.5-3.9c0.2-0.3,2-0.8,2.7-0.6c0.3,0,0.6,0.3,0.8,0.6h0.2c0,0-0.3-0.9-0.9-0.9 c-1.2-0.2-2.2,0.2-2.2,0.2H6.3c0-0.2-0.2-1.2-0.2-1.2s0-0.2,0.2-0.3c0,0,2.9-1.3,7.4-1.3c0.5,0,4.7,0,6.6,0.8c0.2,0.2,0,0.6,0,1.2 c-0.2,0.2-0.5,0.3-0.5,0.3c-0.2,0-0.3,0.3-0.3,0.3s0.3,3.8,0.5,3.9c0,0.2-0.2,0.2-0.6,0.2h-2.2c0,0-0.5,0-0.5-0.3 c0-0.2,0.2-0.5,0.2-0.5h0.5C17.3,26.6,18.2,26.5,17.8,26.5L17.8,26.5z M14.7,29.8c0,0,2-0.3,4.1,0.2c0,0,0.5,0.3,0.5,0.6 C19.4,30.7,16.1,30.8,14.7,29.8L14.7,29.8z M14.9,33.2c0,0,0.5-2.3,4.3-2c0,0,0.3,0.2-0.5,1C17.9,33,16.2,33.5,14.9,33.2z"></path> <path class="st0" d="M14.1,21.8c0,0,0.5,0,2.2,0.3c0.8,0.2,1.3,0.3,1.5,0.5c0.2,0,0.2,0.2,0,0.2c0,0.2-2.2-0.6-3.5-0.5 c0,0-1.3,0.5-2.9,2h-0.7C10.6,24.3,12.2,22.6,14.1,21.8z"></path> <path class="st0" d="M12.6,24c0,0,1.3-0.6,2.2-0.8c0.6-0.2,1.2-0.2,1.5,0c0.3,0,0.6,0.8,0.6,1c0,0-1,0.5-2,0.3 C14.1,24.4,13.1,24.4,12.6,24L12.6,24z"></path> <path class="st1" d="M20.3,23.1c0.2,0,0.2,0,0.3,0.2c0.2,0,0,0.3,0,0.3c0,0.2-0.2,0-0.8,0C19.9,23.6,20.1,23.1,20.3,23.1z M7.8,29.8l1.3,1l2.3,10.1H5.6L7.8,29.8z M11.1,34.8c0,0,2.8,1.8,3.3,2.5l0.3,3.8h-2.1L11.1,34.8L11.1,34.8z M16.1,38.2 c0,0,1.6,1.6,2.2,2.8h-2.7L16.1,38.2L16.1,38.2z"></path> <path class="st2" d="M18.4,23.4c0,0,0.2-0.2,0.2,0.2c0.2,0.8,0.5,2.8,0.5,2.9c0,0.3-0.3,0.2-0.3,0.2L18.4,23.4z M12.4,20.6h0.2 l0.8,1.5l-0.3,0.2L12.4,20.6L12.4,20.6z M8.7,25.6c0,0-0.3-1,0.3-1.2c0.6-0.2,1.5-0.2,2.7-0.2c0,0-1.6,0.3-2.2,0.5 C8.8,24.9,8.7,25.6,8.7,25.6L8.7,25.6z"></path> <g> <g> <path class="st0" d="M32.2,32.8v5.5c0,2,0.2,3,2.3,3v0.2h-8v-0.2c2.4,0,2.1-2.6,2.1-4.6v-5.9c0-2,0.5-6.1-1.9-6.1v-0.2h7.6v0.2 c-2,0-2.1,1.2-2.1,3.3v4.3h0.4c3.2-3.2,3.6-3.8,3.8-4.1c1.6-2.7,0.1-3.4-0.8-3.4v-0.3H42v0.3c-1.1,0-3.2,1.7-4.5,2.8l-4.9,4.9 c6.6,0.3,6.4,3.8,7.1,6.3c0.5,1.5,0.6,2.3,2.3,2.7v0.2h-5.9C35.4,36.5,35.1,32.5,32.2,32.8L32.2,32.8z M47.7,33.6 c0,2.4,0.4,3,1.7,3v0.2h-6.9v-0.3c1.4,0,1.6-1.6,1.6-3v-6.1c0-1.6-0.4-2.6-1.7-2.6v-0.3h5.3V33.6L47.7,33.6L47.7,33.6z M45.9,20 c1,0,1.9,0.8,1.9,1.8l0,0c0,1-0.8,1.9-1.9,1.9c-1,0-1.9-0.8-1.9-1.9C44,20.8,44.9,20,45.9,20L45.9,20z M54.9,26 c1.2-1.7,2-1.7,3.4-1.7c3.3,0,3.5,2.5,3.5,4.7v4.7c0,2.3,0.3,3,1.6,3v0.2h-6.5v-0.2c1.2,0,1.2-1,1.2-3v-4.8 c0-1.6,0.2-3.9-1.1-3.9c-1.5,0-1.6,1.2-1.9,1.9v6.7c0,2,0.1,3,1.3,3v0.2h-6.4v-0.2c1.3,0,1.5-1,1.5-3v-6.3c0-1.6-0.3-2.6-1.7-2.6 v-0.3H55L54.9,26L54.9,26z M88.6,24.5h2.6l-0.5,0.8h-2v7.3c0,3.7,2.2,3.4,3,2.6l0.1,0.2c-1.9,1.6-3.2,1.2-3.7,1.2 c-1.8,0-3-1.3-3-3v-8.2h-2v-0.1c1.7-0.6,4.3-2.7,5.5-4.5h0.2L88.6,24.5L88.6,24.5z"></path> <path class="st0" d="M90.3,30.7c0-2.9,2.7-6.5,5.9-6.5c2.9,0,5.8,3.1,5.8,6.2c0,3.7-3.1,6.3-5.8,6.3C93.1,37,90.3,34.1,90.3,30.7 z M98.3,30.4c0-3.7-0.1-5.9-2-5.9c-2.1,0-1.9,2.8-1.9,5.9c0,3.7,0,6.3,1.9,6.3C98.4,36.7,98.3,34.1,98.3,30.4z"></path> <path class="st0" d="M106.6,26c1.2-1.7,2-1.7,3.4-1.7c3.3,0,3.5,2.5,3.5,4.7v4.7c0,2.3,0.2,3,1.6,3v0.2h-6.5v-0.2 c1.2,0,1.2-1,1.2-3v-4.8c0-1.6,0.2-3.9-1.1-3.9c-1.5,0-1.6,1.2-1.9,1.9v6.7c0,2,0.1,3,1.3,3v0.2h-6.3v-0.2c1.3,0,1.5-1,1.5-3 v-6.3c0-1.6-0.3-2.6-1.7-2.6v-0.3h5.3L106.6,26z M69.5,34.8c-0.4,0.5-0.9,2-2.8,2c-2.3,0-4-2-4-6.2c0-3.4,2.2-6.3,4.7-6.3 c1.8,0,2.4,1.6,2.4,1.6v-1.3h5.4v0.3c0,0-1.8-0.4-1.8,2.2v9.4c-0.2,2.6-1.3,4.3-5.7,5.5l0.1-0.3C70.4,39.9,69.7,37.2,69.5,34.8 L69.5,34.8z M69.8,30.1c0-2.8-0.2-5.4-2-5.4c-1.3,0-1.6,2.2-1.6,6.1c0,3.3,0.3,5.5,1.6,5.5c1.1,0,2-2.5,2-5.1 C69.8,31.1,69.8,30.1,69.8,30.1z"></path> <path class="st0" d="M74,32.8h1.7c-0.2,3.8,2.4,3.8,3,3.8c1.2,0,2.2-0.9,2.2-1.9c0-3.1-6.5-1.8-6.5-6.5c0-2.2,1.7-3.9,4-3.9 c3.9,0,4.4,2.4,4.4,3.2h-1.5c0.2-0.6-0.1-3-2.7-3c-2,0-1.9,1.6-1.9,1.8c0,3,7,1.9,7,6.3c0,2.3-1.9,4.1-4.4,4.3 C75.2,37.1,74,33.9,74,32.8L74,32.8z M43,37.7h3.1v0.5h-1.3v3.4h-0.5v-3.4H43V37.7z M50,41.4v-3.8h2.8v0.5h-2.3v1.2h2.2v0.5h-2.1 v1.3h2.3v0.5L50,41.4L50,41.4z M58.5,37.6c0.5,0,0.8,0.1,1.1,0.4c0.3,0.3,0.5,0.5,0.5,0.8h-0.5c-0.1-0.3-0.2-0.5-0.4-0.5 c-0.2-0.2-0.5-0.2-0.7-0.2c-0.4,0-0.6,0.1-0.9,0.4c-0.2,0.3-0.4,0.6-0.4,1.2c0,0.5,0.1,0.8,0.3,1.1c0.2,0.3,0.5,0.5,0.9,0.5 c0.4,0,0.6-0.2,0.8-0.5c0.1-0.2,0.2-0.4,0.2-0.6H60c-0.1,0.5-0.2,0.7-0.5,1c-0.3,0.3-0.6,0.5-1.2,0.5c-0.5,0-0.8-0.2-1.1-0.5 c-0.4-0.4-0.5-0.9-0.5-1.6c0-0.6,0.2-1,0.5-1.4C57.5,37.8,58,37.6,58.5,37.6L58.5,37.6z M64.1,41.4v-3.8h0.5v1.6h2v-1.6h0.5v3.8 h-0.5v-1.8h-2v1.8H64.1z M73.6,41.4v-3.8h0.6l1.9,3v-3h0.6v3.8h-0.6l-1.9-3v3H73.6z M81.9,40.7c-0.2-0.3-0.3-0.6-0.3-1 c0-0.6,0.1-0.9,0.4-1.2c0.3-0.3,0.5-0.5,0.9-0.5c0.5,0,0.7,0.2,0.9,0.5c0.2,0.3,0.4,0.6,0.4,1.1s-0.1,0.8-0.3,1.1 c-0.3,0.3-0.5,0.4-1,0.4C82.5,41.1,82.1,41,81.9,40.7L81.9,40.7z M81.5,38.2c-0.3,0.4-0.4,0.8-0.4,1.3c0,0.5,0.2,1,0.5,1.5 c0.3,0.4,0.8,0.5,1.4,0.5c0.6,0,1.1-0.2,1.5-0.6c0.3-0.4,0.5-0.8,0.5-1.5c0-0.6-0.1-0.9-0.4-1.3c-0.3-0.5-0.8-0.6-1.5-0.6 C82.2,37.6,81.7,37.8,81.5,38.2L81.5,38.2z M89.2,41.4v-3.8h0.6V41h1.9v0.5H89.2z M96.5,40.7c-0.2-0.3-0.3-0.6-0.3-1 c0-0.6,0.1-0.9,0.4-1.2c0.3-0.3,0.5-0.5,0.9-0.5c0.5,0,0.7,0.2,0.9,0.5c0.2,0.3,0.4,0.6,0.4,1.1s-0.1,0.8-0.3,1.1 c-0.2,0.3-0.5,0.5-1,0.5C97,41.1,96.7,41,96.5,40.7L96.5,40.7z M96,38.2c-0.3,0.4-0.4,0.8-0.4,1.3c0,0.5,0.2,1,0.5,1.5 c0.3,0.4,0.8,0.5,1.4,0.5c0.6,0,1.1-0.2,1.5-0.6c0.3-0.4,0.5-0.8,0.5-1.5c0-0.6-0.1-0.9-0.4-1.3c-0.3-0.5-0.8-0.6-1.5-0.6 C96.8,37.6,96.3,37.8,96,38.2L96,38.2z M105.5,37.6c0.4,0,0.6,0.1,0.9,0.2c0.4,0.2,0.6,0.5,0.6,1h-0.5c-0.1-0.3-0.2-0.5-0.4-0.5 s-0.5-0.2-0.7-0.2c-0.4,0-0.6,0.1-0.9,0.5c-0.3,0.3-0.4,0.6-0.4,1.2c0,0.5,0.1,0.8,0.3,1.1c0.2,0.3,0.5,0.5,0.9,0.5 s0.6-0.1,0.8-0.3c0.2-0.2,0.3-0.5,0.4-0.9h-1.2v-0.5h1.7v2h-0.2l-0.1-0.5c-0.2,0.2-0.3,0.3-0.5,0.5c-0.2,0.1-0.6,0.2-0.8,0.2 c-0.5,0-0.8-0.2-1.2-0.5c-0.4-0.4-0.6-0.8-0.6-1.6c0-0.6,0.2-1.2,0.6-1.6C104.5,37.7,104.9,37.6,105.5,37.6z M112.7,40l-1.5-2.3 h0.5l1.1,1.8l1-1.8h0.6l-1.5,2.3v1.6h-0.6V40H112.7z M113.2,23.6c0-0.5,0.5-0.9,0.9-0.9c0.5,0,0.9,0.5,0.9,0.9 c0,0.5-0.5,0.9-0.9,0.9C113.5,24.5,113.2,24.1,113.2,23.6z M114.8,23.6c0-0.5-0.3-0.8-0.7-0.8c-0.5,0-0.8,0.4-0.8,0.8 s0.3,0.8,0.8,0.8C114.5,24.4,114.8,24,114.8,23.6z M114.5,24.1h-0.2l-0.3-0.5h-0.2v0.5h-0.1v-1h0.5c0.3,0,0.4,0.1,0.4,0.3 c0,0.2-0.2,0.3-0.3,0.3L114.5,24.1z M114.1,23.5c0.2,0,0.4,0,0.4-0.2s-0.1-0.2-0.3-0.2h-0.3v0.4H114.1L114.1,23.5z"></path> </g> </g> </g> </svg> 