<?xml version="1.0" encoding="UTF-8"?> <svg xmlns="http://www.w3.org/2000/svg" xmlns:xlink="http://www.w3.org/1999/xlink" version="1.1" id="Layer_1" x="0px" y="0px" viewBox="0 0 120 60" style="enable-background:new 0 0 120 60;" xml:space="preserve"> <style type="text/css"> .st0{fill-rule:evenodd;clip-rule:evenodd;} </style> <g> <path class="st0" d="M85,23.9v2.9H71.4c-0.9,0-1.2,2.8,0.1,2.8h9.8c2.7,0,4.3,0,4.3,2.7l0,3.3c0,2.7-1.7,2.7-4.6,2.7H67.9v-2.7 h13.8c1.5,0,1.4-3.3,0.1-3.3H70c-0.8,0-2.1-1.1-2.1-2l0-3.4c0-2.3,2.1-2.9,4.3-2.9L85,23.9L85,23.9L85,23.9z M105.1,23.9v2.9H91.6 c-0.9,0-1.2,2.8,0.1,2.8h9.8c2.7,0,4.3,0,4.3,2.7l0,3.3c0,2.7-1.7,2.7-4.6,2.7H88v-2.7h13.8c1.5,0,1.4-3.3,0.1-3.3H90.1 c-0.8,0-2.1-1.1-2.1-2l0-3.4c0-2.3,2.1-2.9,4.3-2.9L105.1,23.9L105.1,23.9L105.1,23.9z M30.8,29.3l9.7-5.5h4.3L36.2,29 c-0.7,0.5-0.5,0.7,0.3,0.7h4c2.5,0.1,3.6,0.8,3.8,3.2v5.2l-2.8,0V34c0-0.8-0.4-1.9-1.2-1.9H29.7v5.9h-2.8V23.9h2.8v5.2 C29.8,29.6,30.4,29.7,30.8,29.3z M62.3,23.9c1.5,0,3.1,1.6,3.1,2.9v8.7c0,1.6-1.7,2.7-3.1,2.7H50.2c-1.8,0-3.1-1.4-3.1-2.7v-8.7 c0-2.1,1.4-2.9,3.1-2.9L62.3,23.9L62.3,23.9z M61.1,26.7c0.9,0,1.3,0.5,1.3,1.2v6.5c0,0.5-0.5,1-1,1h-9.7c-0.9,0-1.4-0.7-1.4-1.9 V28c0-0.7,0.5-1.2,1.3-1.2H61.1L61.1,26.7z M109.1,23.2v0.8h0.4c0.2,0,0.4,0,0.5-0.1c0.1-0.1,0.1-0.2,0.1-0.3 c0-0.1-0.1-0.3-0.2-0.3c-0.1-0.1-0.3-0.1-0.5-0.1H109.1L109.1,23.2z M108.6,22.9h1c0.4,0,0.6,0.1,0.8,0.2c0.2,0.1,0.3,0.3,0.3,0.5 c0,0.2-0.1,0.3-0.2,0.5c-0.1,0.1-0.2,0.2-0.4,0.3l0.6,1.2h-0.6l-0.5-1.1h-0.4v1.1h-0.6L108.6,22.9L108.6,22.9z M109.5,22.2 c-0.3,0-0.5,0-0.8,0.1c-0.2,0.1-0.4,0.2-0.6,0.4c-0.2,0.2-0.3,0.4-0.4,0.7c-0.1,0.2-0.2,0.5-0.2,0.8c0,0.1,0,0.3,0,0.4 c0,0.1,0.1,0.2,0.1,0.4c0.1,0.2,0.2,0.4,0.4,0.6c0.2,0.2,0.4,0.3,0.6,0.4c0.2,0.1,0.5,0.2,0.7,0.2c0.5,0,1.1-0.2,1.4-0.6 c0.2-0.2,0.3-0.4,0.4-0.6c0.1-0.2,0.2-0.5,0.2-0.8c0-0.3,0-0.5-0.1-0.8c-0.1-0.2-0.2-0.5-0.4-0.6c-0.2-0.2-0.4-0.3-0.6-0.4 C110.1,22.3,109.8,22.2,109.5,22.2L109.5,22.2z M109.5,21.9c0.3,0,0.6,0.1,0.9,0.2c0.3,0.1,0.5,0.3,0.8,0.5 c0.2,0.2,0.4,0.5,0.5,0.7c0.1,0.3,0.2,0.6,0.2,0.9c0,0.3-0.1,0.6-0.2,0.9c-0.1,0.3-0.3,0.5-0.5,0.7c-0.2,0.2-0.5,0.4-0.8,0.5 c-0.6,0.2-1.2,0.2-1.8,0c-0.3-0.1-0.5-0.3-0.8-0.5c-0.7-0.7-0.9-1.7-0.5-2.5c0.1-0.3,0.3-0.6,0.5-0.8c0.2-0.2,0.5-0.4,0.7-0.5 C108.9,21.9,109.2,21.9,109.5,21.9L109.5,21.9z M8.1,23.9h14.2v14.2H8.1V23.9z M15.2,24.2c3.7,0,6.8,3,6.8,6.8s-3,6.8-6.8,6.8 s-6.8-3-6.8-6.8C8.5,27.3,11.5,24.2,15.2,24.2L15.2,24.2z"></path> <path class="st0" d="M12,31.3l1.4-0.3c0.1,0,0.4,0.2,0.4,0.3v4.5c0,0.1-0.2,0.3-0.4,0.2L12,35.8c-0.2-0.1-0.4-0.2-0.4-0.4v-2.6 c-0.7-0.3-2.1-0.7-2.1-1.3c-0.1-1,0.7-1.5,1.3-2.1c0.1-0.1,0.3-0.3,0.5-0.4l0.1-0.4l-0.2-0.2c1.8-3.3,5.8-3.5,8.1-0.3 c-0.1,0-0.1,0.1-0.2,0.1l0.1,0.4c0.2,0.1,0.3,0.3,0.5,0.4c0.6,0.6,1.4,1.1,1.3,2.1c0,0.6-1,0.8-1.7,1.2v1.9l0.6,0.4l0.3,0.3v0.3 l-0.9,0v0.1c0,0.2-0.2,0.4-0.4,0.4l-1.4,0.3c-0.2,0.1-0.4-0.1-0.4-0.2v-4.5c0-0.1,0.3-0.4,0.4-0.3l1,0c0.1,0,0.1,0.1,0.2,0.1 c0.1-0.1,0.2-0.2,0.4-0.2c0.1-0.1,0.1-0.2,0.1-0.3c0-0.1,0-0.2-0.1-0.4c0-0.1,0-0.2,0.1-0.4l0-0.4L18.9,29l-0.2-0.4l0,0 c-0.1,0.1-0.2,0.1-0.3,0.2c-2-2.7-4.3-2.4-6.5,0.2l-0.1-0.1l-0.2,0.4l-0.2,0.4l0,0.4c0,0.1,0.1,0.2,0.1,0.4c0,0.1-0.1,0.2-0.1,0.4 c0,0.1,0,0.2,0.1,0.3c0.1,0.1,0.2,0.2,0.4,0.2C11.9,31.3,11.9,31.3,12,31.3z M18.4,33.9h-0.4c0,0-0.1,0-0.1,0.1v1.4 c0,0.1,0,0.1,0.1,0.1h0.4c0,0,0.1,0,0.1-0.1V34C18.5,33.9,18.5,33.9,18.4,33.9z M18.4,31.5h-0.4c0,0-0.1,0-0.1,0.1V33 c0,0.1,0,0.1,0.1,0.1h0.4c0,0,0.1,0,0.1-0.1v-1.4C18.5,31.5,18.5,31.5,18.4,31.5L18.4,31.5z M19.3,29.2c0.1,0.1,0.3,0.2,0.4,0.3 c0.4,0.4,1,1.1,1,1.6c-0.1,0.6-0.8,0.8-1.4,1v-0.4c0.3-0.1,0.1-0.2,0.2-0.3c0.1-0.1,0.2-0.3,0.3-0.5c0.1-0.1,0-0.2,0-0.4l-0.3-0.3 l-0.1-0.2c0-0.2,0-0.3,0-0.5C19.3,29.4,19.3,29.3,19.3,29.2L19.3,29.2z M12.5,33.9h0.4c0,0,0.1,0,0.1,0.1v1.4c0,0.1,0,0.1-0.1,0.1 h-0.4c0,0-0.1,0-0.1-0.1V34C12.4,33.9,12.4,33.9,12.5,33.9z M12.5,31.5h0.4c0,0,0.1,0,0.1,0.1V33c0,0.1,0,0.1-0.1,0.1h-0.4 c0,0-0.1,0-0.1-0.1v-1.4C12.4,31.5,12.4,31.5,12.5,31.5L12.5,31.5z M11.2,29.5c-0.1,0.1-0.3,0.2-0.4,0.3c-0.4,0.4-1,1.1-1,1.6 c0.1,0.6,1.2,1,1.8,1.1V32c-0.3-0.1-0.5-0.3-0.6-0.5c-0.1-0.1-0.2-0.3-0.3-0.5c-0.1-0.1,0-0.2,0-0.4l0.3-0.3l0.1-0.2 c0-0.2,0-0.3,0-0.5C11.2,29.7,11.2,29.6,11.2,29.5L11.2,29.5z"></path> </g> </svg> 