<?xml version="1.0" encoding="UTF-8"?> <svg xmlns="http://www.w3.org/2000/svg" xmlns:xlink="http://www.w3.org/1999/xlink" version="1.1" id="Layer_1" x="0px" y="0px" viewBox="0 0 120 60" style="enable-background:new 0 0 120 60;" xml:space="preserve"> <style type="text/css"> .st0{fill:#E2231B;} .st1{clip-path:url(#SVGID_00000096060876690662395480000004186990067283145635_);fill:#FFFFFF;} .st2{clip-path:url(#SVGID_00000160910801974212002070000007153285528724642485_);fill:#FFFFFF;} .st3{clip-path:url(#SVGID_00000132062228965433560650000016326485159829435027_);fill:#FFFFFF;} .st4{clip-path:url(#SVGID_00000078022184475103489530000001274719631350341273_);fill:#FFFFFF;} .st5{clip-path:url(#SVGID_00000067946290114988953240000007496896691188000700_);fill:#FFFFFF;} .st6{clip-path:url(#SVGID_00000173138350082240048420000015244697358438029964_);fill:#FFFFFF;} .st7{clip-path:url(#SVGID_00000155144181928710572700000014451873717351089575_);fill:#FFFFFF;} </style> <g> <rect x="10" y="13.3" class="st0" width="100" height="33.3"></rect> <g> <g> <defs> <rect id="SVGID_1_" x="10" y="13.3" width="100" height="33.3"></rect> </defs> <clipPath id="SVGID_00000065791972112727503960000004639740676495828120_"> <use xlink:href="#SVGID_1_" style="overflow:visible;"></use> </clipPath> <path style="clip-path:url(#SVGID_00000065791972112727503960000004639740676495828120_);fill:#FFFFFF;" d="M53.6,24.6 c-1.5,0-3.2,0.7-4.2,2.1l0,0l0,0v-1.8h-3.5v12.8h3.5v-7.3c0-1.3,1-2.7,2.9-2.7c1.5,0,3,1,3,2.7v7.3h3.5v-8 C58.8,26.7,56.7,24.6,53.6,24.6"></path> </g> <g> <defs> <rect id="SVGID_00000017499650466359787440000013244150825060655028_" x="10" y="13.3" width="100" height="33.3"></rect> </defs> <clipPath id="SVGID_00000139262028669497264790000004102642443607816325_"> <use xlink:href="#SVGID_00000017499650466359787440000013244150825060655028_" style="overflow:visible;"></use> </clipPath> <polygon style="clip-path:url(#SVGID_00000139262028669497264790000004102642443607816325_);fill:#FFFFFF;" points="83.8,24.8 80.6,33.5 77.4,24.8 73.4,24.8 78.7,37.6 82.6,37.6 87.8,24.8 "></polygon> </g> <g> <defs> <rect id="SVGID_00000089572019939279904820000001379728383399356605_" x="10" y="13.3" width="100" height="33.3"></rect> </defs> <clipPath id="SVGID_00000000924560570388555580000004126738987722501305_"> <use xlink:href="#SVGID_00000089572019939279904820000001379728383399356605_" style="overflow:visible;"></use> </clipPath> <path style="clip-path:url(#SVGID_00000000924560570388555580000004126738987722501305_);fill:#FFFFFF;" d="M42.1,33.7 c-1.5,1.1-2.3,1.4-3.7,1.4c-1.2,0-2.2-0.4-2.8-1l9-3.7c-0.2-1.4-0.7-2.6-1.5-3.6c-1.2-1.4-2.9-2.1-5.1-2.1 c-3.9,0-6.8,2.9-6.8,6.6c0,3.9,2.9,6.6,7.2,6.6c2.4,0,4.8-1.1,6-2.4L42.1,33.7z M35.3,28.7c0.6-0.8,1.6-1.3,2.7-1.3 c1.3,0,2.2,0.7,2.7,1.8l-6.2,2.6C34.5,30.4,34.8,29.4,35.3,28.7"></path> </g> <g> <defs> <rect id="SVGID_00000011736553982817417670000004820248568158236309_" x="10" y="13.3" width="100" height="33.3"></rect> </defs> <clipPath id="SVGID_00000008859668819594421710000003860135504230783399_"> <use xlink:href="#SVGID_00000011736553982817417670000004820248568158236309_" style="overflow:visible;"></use> </clipPath> <polygon style="clip-path:url(#SVGID_00000008859668819594421710000003860135504230783399_);fill:#FFFFFF;" points="30.9,34.4 22.9,34.4 22.9,20.9 19.3,20.9 19.3,37.6 30.9,37.6 "></polygon> </g> <g> <defs> <rect id="SVGID_00000150823200170144639650000016656687756090095540_" x="10" y="13.3" width="100" height="33.3"></rect> </defs> <clipPath id="SVGID_00000052102062176105753370000001074674093100729519_"> <use xlink:href="#SVGID_00000150823200170144639650000016656687756090095540_" style="overflow:visible;"></use> </clipPath> <path style="clip-path:url(#SVGID_00000052102062176105753370000001074674093100729519_);fill:#FFFFFF;" d="M94.2,37.8 c-3.9,0-6.9-2.9-6.9-6.6c0-3.7,3-6.6,6.9-6.6c3.8,0,6.9,2.9,6.9,6.6C101.1,34.9,98,37.8,94.2,37.8 M94.2,27.6 c-2,0-3.4,1.5-3.4,3.6c0,2,1.5,3.6,3.4,3.6c2,0,3.4-1.5,3.4-3.6C97.6,29.2,96.1,27.6,94.2,27.6"></path> </g> <g> <defs> <rect id="SVGID_00000104705979506417309130000014201001954397026732_" x="10" y="13.3" width="100" height="33.3"></rect> </defs> <clipPath id="SVGID_00000105397094689686966650000017370285698435697326_"> <use xlink:href="#SVGID_00000104705979506417309130000014201001954397026732_" style="overflow:visible;"></use> </clipPath> <path style="clip-path:url(#SVGID_00000105397094689686966650000017370285698435697326_);fill:#FFFFFF;" d="M67,37.8 c-3.9,0-6.9-2.9-6.9-6.6c0-3.7,3-6.6,6.9-6.6c3.8,0,6.9,2.9,6.9,6.6C74,34.9,70.9,37.8,67,37.8 M67,27.6c-2,0-3.4,1.5-3.4,3.6 c0,2,1.5,3.6,3.4,3.6c2,0,3.4-1.5,3.4-3.6C70.5,29.2,69,27.6,67,27.6"></path> </g> <g> <defs> <rect id="SVGID_00000086685095361055864490000002298242220146675859_" x="10" y="13.3" width="100" height="33.3"></rect> </defs> <clipPath id="SVGID_00000118364786756929547520000015813541696955573657_"> <use xlink:href="#SVGID_00000086685095361055864490000002298242220146675859_" style="overflow:visible;"></use> </clipPath> <path style="clip-path:url(#SVGID_00000118364786756929547520000015813541696955573657_);fill:#FFFFFF;" d="M101.6,36.1H101v-0.3 h1.5v0.3h-0.6v1.5h-0.4L101.6,36.1L101.6,36.1z M102.9,35.8h0.4l0.6,0.9l0.6-0.9h0.4v1.8h-0.3v-1.3l-0.6,0.9h0l-0.6-0.9v1.3h-0.3 L102.9,35.8L102.9,35.8z"></path> </g> </g> </g> </svg> 