<?xml version="1.0" encoding="UTF-8"?> <svg xmlns="http://www.w3.org/2000/svg" xmlns:xlink="http://www.w3.org/1999/xlink" version="1.1" id="Layer_1" x="0px" y="0px" viewBox="0 0 120 120" style="enable-background:new 0 0 120 120;" xml:space="preserve"> <style type="text/css"> .st0{fill:#E1251B;} .st1{fill:#FFFFFF;} </style> <g> <rect y="40" class="st0" width="120" height="40"></rect> <g> <path class="st1" d="M52.3,53.5c-1.8,0-3.8,0.8-5,2.5l0,0l0,0l0-2.2H43v15.4h4.2v-8.8c0-1.6,1.2-3.3,3.5-3.3 c1.7,0,3.6,1.2,3.6,3.3v8.8h4.2v-9.5C58.5,56.1,56,53.5,52.3,53.5"></path> <polygon class="st1" points="88.6,53.7 84.8,64.2 80.9,53.7 76.1,53.7 82.4,69.1 87.1,69.1 93.4,53.7 "></polygon> <path class="st1" d="M38.5,64.4c-1.8,1.3-2.8,1.6-4.4,1.6c-1.5,0-2.6-0.5-3.4-1.2l10.8-4.5c-0.2-1.7-0.9-3.2-1.8-4.3 c-1.4-1.7-3.5-2.5-6.1-2.5c-4.6,0-8.2,3.4-8.2,8c0,4.6,3.5,8,8.6,8c2.9,0,5.8-1.4,7.2-2.9L38.5,64.4z M30.4,58.4 c0.7-1,1.9-1.5,3.3-1.5c1.5,0,2.7,0.9,3.3,2.2l-7.4,3.1C29.4,60.5,29.8,59.3,30.4,58.4z"></path> <polygon class="st1" points="25,65.3 15.4,65.3 15.4,49.1 11.1,49.1 11.1,69.1 25,69.1 "></polygon> <path class="st1" d="M101,69.4c-4.6,0-8.2-3.4-8.2-8c0-4.5,3.6-8,8.3-8c4.6,0,8.2,3.4,8.2,8C109.3,65.9,105.7,69.4,101,69.4 M101,57.1c-2.4,0-4.1,1.8-4.1,4.3c0,2.4,1.8,4.3,4.1,4.3c2.4,0,4.1-1.8,4.1-4.3C105.1,59,103.3,57.1,101,57.1"></path> <path class="st1" d="M68.4,69.4c-4.6,0-8.2-3.4-8.2-8c0-4.5,3.6-8,8.3-8c4.6,0,8.2,3.4,8.2,8C76.8,65.9,73.1,69.4,68.4,69.4 M68.4,57.1c-2.4,0-4.1,1.8-4.1,4.3c0,2.4,1.8,4.3,4.1,4.3c2.4,0,4.1-1.8,4.1-4.3C72.6,59,70.8,57.1,68.4,57.1"></path> <g> <path class="st1" d="M109.9,67.3h-0.7v-0.4h1.8v0.4h-0.7v1.8h-0.4V67.3z M111.5,66.9h0.5l0.7,1.1l0.7-1.1h0.4v2.2h-0.4v-1.6 l-0.7,1.1h0l-0.7-1.1v1.6h-0.4L111.5,66.9L111.5,66.9z"></path> </g> </g> </g> </svg> 