<?xml version="1.0" encoding="UTF-8"?> <svg xmlns="http://www.w3.org/2000/svg" xmlns:xlink="http://www.w3.org/1999/xlink" version="1.1" id="Artwork" x="0px" y="0px" viewBox="0 0 120 60" style="enable-background:new 0 0 120 60;" xml:space="preserve"> <style type="text/css"> .st0{fill:#32323C;} .st1{fill:#008A44;} .st2{fill:#3AF23A;} .st3{fill:#006446;} .st4{fill:#00C425;} </style> <g> <path class="st0" d="M106.5,27.9l-3.6,3.3l3.6,3.3v1.9h-0.1l-5.3-4.8v4.6h-1.5V22.2h1.5v8.7l5.3-4.8h0.1L106.5,27.9L106.5,27.9z M37.2,36.1H45v-1.6h-6.2V22.7h-1.6V36.1z M50.5,26.1c-2.4,0-4.6,2-4.6,5.1c0,3,2,5.1,4.9,5.1c1.3,0,2.5-0.3,3.6-1.1v-1.7 c-1.1,0.9-2.4,1.3-3.5,1.3c-1.7,0-3.3-1.1-3.4-3.1h7.3c0-0.2,0.1-0.6,0.1-0.8C54.8,27.8,52.8,26.1,50.5,26.1z M50.5,27.5 c1.3,0,2.8,0.9,2.8,3h-5.9C47.5,28.8,48.7,27.5,50.5,27.5z M76.3,26.1c-1.3,0-2.2,0.7-2.8,1.7c-0.5-1.1-1.3-1.7-2.7-1.7 c-1.2,0-2.1,0.7-2.6,1.6h-0.1l-0.2-1.5h-1.2v9.8h1.6v-6.2c0-1.2,0.7-2.3,2.1-2.3c1.3,0,1.9,0.8,1.9,2.2v6.3h1.6v-6.3 c0-1.1,0.8-2.2,2.1-2.2c1.3,0,1.9,0.8,1.9,2.2v6.3h1.6v-6.5C79.4,27.5,78.4,26.1,76.3,26.1z M85.7,26.1c-2.3,0-4.5,2-4.5,5.1 c0,3.1,2.2,5.1,4.5,5.1c1.5,0,2.8-0.7,3.6-2h0l0.2,1.8h1.3v-9.8h-1.3l-0.2,1.8h0C88.5,26.8,87.2,26.1,85.7,26.1z M86,27.6 c1.9,0,3.2,1.5,3.2,3.6s-1.4,3.6-3.2,3.6c-1.8,0-3.2-1.5-3.2-3.6C82.7,29,84.1,27.6,86,27.6z M97.4,26.2c-0.8,0-2.1,0.4-2.8,1.7 l0,0l-0.1-1.6h-1.2v9.8h1.6v-5.6c0-2.2,1.8-3,3.3-2.6v-1.6C97.8,26.2,97.6,26.2,97.4,26.2z M64.7,26.1h-0.1l-4.1,4.1l-4.1-4.1h-0.1 v2l3.2,3.2l-3.2,3.1v2h0.1l4-4.1l4.1,4.1h0.1v-2l-3.2-3.2l3.2-3.2V26.1z M107.3,22.3v-0.2h1.6v0.2h-0.7V24H108v-1.6H107.3z M109.7,22.1l0.7,1.6l0.7-1.6h0.3V24h-0.2v-1.6l0,0l-0.7,1.5h-0.2l-0.7-1.5l0,0v1.5h-0.2v-1.8H109.7z"></path> <polygon class="st1" points="28.8,36.2 28.8,19.9 24.8,19.9 18.7,26 "></polygon> <polygon class="st2" points="8.6,23.8 8.6,40.1 12.5,40.1 18.7,33.9 "></polygon> <polygon class="st3" points="12.5,40.1 28.8,40.1 28.8,36.2 22.6,30 "></polygon> <polygon class="st4" points="24.8,19.9 8.6,19.9 8.6,23.8 14.7,30 "></polygon> </g> </svg> 