<?xml version="1.0" encoding="UTF-8"?> <svg xmlns="http://www.w3.org/2000/svg" xmlns:xlink="http://www.w3.org/1999/xlink" version="1.1" id="Layer_1" x="0px" y="0px" viewBox="0 0 120 60" style="enable-background:new 0 0 120 60;" xml:space="preserve"> <style type="text/css"> .st0{fill:#727272;} .st1{clip-path:url(#SVGID_00000023244937740788572650000000060685749657811851_);fill:#727272;} .st2{clip-path:url(#SVGID_00000065061516883754813610000013000704566482741909_);fill:#727272;} .st3{clip-path:url(#SVGID_00000129179496285572897650000002799527733029086123_);fill:#727272;} .st4{clip-path:url(#SVGID_00000164514480143484376140000005014606164635095428_);fill:#727272;} .st5{clip-path:url(#SVGID_00000131353062409977647870000008717454304049966487_);fill:#727272;} .st6{clip-path:url(#SVGID_00000017491473851992711620000007998426494726631313_);fill:#727272;} .st7{clip-path:url(#SVGID_00000086668932791270652510000016296193200949767870_);fill:#727272;} .st8{clip-path:url(#SVGID_00000023272068606464140290000006710933297662399934_);fill:#727272;} .st9{clip-path:url(#SVGID_00000048474601751766816670000013756225106719708032_);fill:#727272;} .st10{clip-path:url(#SVGID_00000120549130929882744710000003088757472068974500_);fill:url(#SVGID_00000100340383461999133510000010791753883171943044_);} .st11{clip-path:url(#SVGID_00000045604955913260560720000010364446023799865233_);fill:url(#SVGID_00000015336503607824972340000015416945266904546225_);} .st12{clip-path:url(#SVGID_00000081640216914163808220000001052052426012366269_);fill:url(#SVGID_00000092436268472773769490000008121683825756725405_);} .st13{clip-path:url(#SVGID_00000132065267055621453230000009048970647727769735_);fill:url(#SVGID_00000116226624486193603420000008539096211532951699_);} .st14{clip-path:url(#SVGID_00000050632489333047132460000003703662883173753023_);fill:url(#SVGID_00000040556451494766218910000011636091854363292049_);} .st15{clip-path:url(#SVGID_00000004523229376004887420000011595458201894900890_);fill:url(#SVGID_00000066485052332141870800000013713570018676028036_);} .st16{fill:#6B747A;} .st17{fill:#97A6AE;} .st18{fill:#A0AAAF;} .st19{clip-path:url(#SVGID_00000079456507702486124820000005154019303059608744_);fill:url(#SVGID_00000090259348889738181380000006321420638005417653_);} .st20{clip-path:url(#SVGID_00000039836260158914157310000010554404123213581470_);fill:url(#SVGID_00000163066588497133088630000002947973421565555898_);} .st21{fill:#C5CACD;} .st22{clip-path:url(#SVGID_00000073711589577041034230000015738956584470452130_);fill:url(#SVGID_00000043454490806315821480000010214447186606806670_);} .st23{fill:#575D62;} .st24{clip-path:url(#SVGID_00000102502972215053993850000009408809693561134777_);fill:url(#SVGID_00000161599430986058428680000005839344322504829865_);} .st25{clip-path:url(#SVGID_00000180328945874951907040000016790206451224293795_);fill:url(#SVGID_00000148646674639124455440000005150586909628372873_);} .st26{clip-path:url(#SVGID_00000039844397546879836050000004792328360723191443_);fill:url(#SVGID_00000074416494892228714590000015614787758881794463_);} .st27{clip-path:url(#SVGID_00000093134558811101145390000014058450331281989255_);fill:url(#SVGID_00000005265568656699282140000003779342246762457530_);} .st28{clip-path:url(#SVGID_00000127043619084470001480000015800235075173711491_);fill:url(#SVGID_00000137843685973299151510000006673118392970247067_);} .st29{clip-path:url(#SVGID_00000079471206053003704140000015456737672916459688_);fill:#FFFFFF;} .st30{clip-path:url(#SVGID_00000005986579941392070310000006287898869743998105_);fill:#FFFFFF;} .st31{clip-path:url(#SVGID_00000070838969953027980670000003614508462725258933_);fill:#FFFFFF;} .st32{clip-path:url(#SVGID_00000163778427228699400810000015739572252348505479_);fill:#FFFFFF;} .st33{clip-path:url(#SVGID_00000055685149266122160100000017711907660851035808_);fill:#FFFFFF;} .st34{clip-path:url(#SVGID_00000075156903685574049230000017033865581375479209_);fill:#FFFFFF;} .st35{clip-path:url(#SVGID_00000107580011899712578750000010168615029738207657_);fill:#727272;} .st36{clip-path:url(#SVGID_00000077310548138275136490000012839363414736759694_);fill:#727272;} </style> <g> <polygon class="st0" points="64.6,53 64.6,54 60,54 60,46.4 61.3,46.4 61.3,53 "></polygon> <path class="st0" d="M65.3,46.5h1.2v1.1h-1.2V46.5z M65.4,48.7h1.2V54h-1.2V48.7z"></path> <g> <g> <defs> <rect id="SVGID_1_" x="10" y="5.9" width="100" height="48.3"></rect> </defs> <clipPath id="SVGID_00000012433758422629935400000007687932025524582277_"> <use xlink:href="#SVGID_1_" style="overflow:visible;"></use> </clipPath> <path style="clip-path:url(#SVGID_00000012433758422629935400000007687932025524582277_);fill:#727272;" d="M71.2,48.7v0.9h-1.8 V54h-1.2v-4.4h-0.8v-0.9h0.8v-0.6c0-1.6,0.9-2.1,2.1-2.1c0.4,0,0.9,0.1,1.2,0.2l-0.3,0.9c-0.3-0.1-0.5-0.2-0.8-0.2 c-0.8,0-1,0.3-1,1.2v0.6L71.2,48.7L71.2,48.7z"></path> </g> <g> <defs> <rect id="SVGID_00000022536208479853824560000015168436985029044134_" x="10" y="5.9" width="100" height="48.3"></rect> </defs> <clipPath id="SVGID_00000175321161370213942070000010313515767220503483_"> <use xlink:href="#SVGID_00000022536208479853824560000015168436985029044134_" style="overflow:visible;"></use> </clipPath> <path style="clip-path:url(#SVGID_00000175321161370213942070000010313515767220503483_);fill:#727272;" d="M71.6,51.3 c0-1.8,0.8-2.7,2.5-2.7c1.8,0,2.2,1.1,2.2,2.6v0.5h-3.5c0,1.1,0.5,1.6,1.5,1.6c0.8,0,1.3-0.3,1.7-0.4l0.3,0.8 c-0.4,0.2-1.3,0.5-2.1,0.5C72.2,54.1,71.6,53.2,71.6,51.3 M72.8,50.8h2.3c0-1-0.3-1.4-1-1.4C73.2,49.4,72.8,49.9,72.8,50.8"></path> </g> <g> <defs> <rect id="SVGID_00000070833949518254247480000009644962777979410566_" x="10" y="5.9" width="100" height="48.3"></rect> </defs> <clipPath id="SVGID_00000088811065813905555980000010121101983501392050_"> <use xlink:href="#SVGID_00000070833949518254247480000009644962777979410566_" style="overflow:visible;"></use> </clipPath> <path style="clip-path:url(#SVGID_00000088811065813905555980000010121101983501392050_);fill:#727272;" d="M76.5,48.6 c0.5-0.9,0.6-1.6,0.6-2.5h1.1c0,1.4-0.3,2.1-0.9,3L76.5,48.6z"></path> </g> <g> <defs> <rect id="SVGID_00000125599041113948693150000016041563256844965815_" x="10" y="5.9" width="100" height="48.3"></rect> </defs> <clipPath id="SVGID_00000081649981380923682760000007100434802451063983_"> <use xlink:href="#SVGID_00000125599041113948693150000016041563256844965815_" style="overflow:visible;"></use> </clipPath> <path style="clip-path:url(#SVGID_00000081649981380923682760000007100434802451063983_);fill:#727272;" d="M81.4,51.1 c0.6,0.2,1.2,0.6,1.2,1.4c0,1.1-0.9,1.6-2.3,1.6c-0.8,0-1.5-0.2-2-0.4l0.4-0.9c0.4,0.2,1,0.4,1.7,0.4c0.6,0,1.1-0.1,1.1-0.6 c0-0.3-0.2-0.5-0.7-0.7c-0.4-0.1-0.9-0.3-1.2-0.4c-0.6-0.2-1.1-0.6-1.1-1.4c0-1.1,1-1.6,2.2-1.6c0.9,0,1.4,0.2,1.9,0.3l-0.4,0.9 c-0.4-0.2-1-0.3-1.6-0.3c-0.8,0-1.1,0.2-1.1,0.6c0,0.3,0.2,0.5,0.6,0.6C80.4,50.8,81,51,81.4,51.1"></path> </g> <g> <defs> <rect id="SVGID_00000058591375949335887590000018128524489784255422_" x="10" y="5.9" width="100" height="48.3"></rect> </defs> <clipPath id="SVGID_00000085936448954013321790000005346449285384996286_"> <use xlink:href="#SVGID_00000058591375949335887590000018128524489784255422_" style="overflow:visible;"></use> </clipPath> <path style="clip-path:url(#SVGID_00000085936448954013321790000005346449285384996286_);fill:#727272;" d="M92.5,53.6 c-0.7,0.3-1.7,0.5-2.7,0.5c-2.5,0-3.5-1.4-3.5-3.9c0-2.7,1.4-3.9,3.6-3.9c1.1,0,2,0.3,2.6,1.1L91.8,48c-0.4-0.5-1-0.8-1.8-0.8 c-1.6,0-2.4,1.1-2.4,3.1c0,1.8,0.8,2.8,2.4,2.8c0.6,0,1.1-0.1,1.5-0.2v-2h-1.7V50h2.9V53.6z"></path> </g> <g> <defs> <rect id="SVGID_00000183245002611530967740000010135570405024796552_" x="10" y="5.9" width="100" height="48.3"></rect> </defs> <clipPath id="SVGID_00000176023807624638318700000000877785398302772144_"> <use xlink:href="#SVGID_00000183245002611530967740000010135570405024796552_" style="overflow:visible;"></use> </clipPath> <polygon style="clip-path:url(#SVGID_00000176023807624638318700000000877785398302772144_);fill:#727272;" points="64.6,53 64.6,54 60,54 60,46.4 61.3,46.4 61.3,53 "></polygon> </g> <g> <defs> <rect id="SVGID_00000093878205665271072180000013121706965238812293_" x="10" y="5.9" width="100" height="48.3"></rect> </defs> <clipPath id="SVGID_00000114036053412642277280000003788640361138127265_"> <use xlink:href="#SVGID_00000093878205665271072180000013121706965238812293_" style="overflow:visible;"></use> </clipPath> <path style="clip-path:url(#SVGID_00000114036053412642277280000003788640361138127265_);fill:#727272;" d="M93.4,51.3 c0-1.8,0.8-2.8,2.7-2.8c1.9,0,2.5,1.1,2.5,2.8c0,1.8-0.8,2.7-2.7,2.7C93.9,54.1,93.4,53.1,93.4,51.3 M97.3,51.3 c0-1-0.2-1.8-1.2-1.8c-1.1,0-1.5,0.7-1.5,2c0,1,0.2,1.8,1.2,1.8C96.9,53.3,97.3,52.6,97.3,51.3"></path> </g> <g> <defs> <rect id="SVGID_00000057115551216139115410000013142313330393958049_" x="10" y="5.9" width="100" height="48.3"></rect> </defs> <clipPath id="SVGID_00000009587447616503502070000010479856812392262029_"> <use xlink:href="#SVGID_00000057115551216139115410000013142313330393958049_" style="overflow:visible;"></use> </clipPath> <path style="clip-path:url(#SVGID_00000009587447616503502070000010479856812392262029_);fill:#727272;" d="M99.2,51.3 c0-1.8,0.8-2.8,2.7-2.8c1.9,0,2.5,1.1,2.5,2.8c0,1.8-0.8,2.7-2.7,2.7C99.8,54.1,99.2,53.1,99.2,51.3 M103.2,51.3 c0-1-0.2-1.8-1.2-1.8c-1.1,0-1.5,0.7-1.5,2c0,1,0.2,1.8,1.2,1.8C102.8,53.3,103.2,52.6,103.2,51.3"></path> </g> <g> <defs> <rect id="SVGID_00000006709132463178469620000014728325032526257338_" x="10" y="5.9" width="100" height="48.3"></rect> </defs> <clipPath id="SVGID_00000183965019640805925380000016081477399416736642_"> <use xlink:href="#SVGID_00000006709132463178469620000014728325032526257338_" style="overflow:visible;"></use> </clipPath> <path style="clip-path:url(#SVGID_00000183965019640805925380000016081477399416736642_);fill:#727272;" d="M105.1,51.5 c0-1.7,0.7-2.9,2.5-2.9c0.4,0,0.7,0.1,1.1,0.2v-2.7l1.2-0.2v6.6L110,54h-1l-0.1-0.3c-0.5,0.3-1,0.5-1.6,0.5 C105.8,54.1,105.1,53.1,105.1,51.5 M108.7,52.9v-3.2c-0.3-0.2-0.6-0.2-0.9-0.2c-0.9,0-1.5,0.5-1.5,2c0,1.1,0.4,1.8,1.4,1.8 C108.1,53.3,108.4,53.2,108.7,52.9"></path> </g> </g> <g> <g> <defs> <path id="SVGID_00000136387141890932464010000012623997365017300352_" d="M10.9,25.9C10.9,37,19.9,46,31,46 c11.1,0,20-8.9,20.1-19.9v-0.3C51,14.8,42,5.9,31,5.9C19.9,5.9,10.9,14.8,10.9,25.9"></path> </defs> <clipPath id="SVGID_00000036236630127335660990000006041153469742548103_"> <use xlink:href="#SVGID_00000136387141890932464010000012623997365017300352_" style="overflow:visible;"></use> </clipPath> <radialGradient id="SVGID_00000151532213168306913700000017904021676358447031_" cx="-296.0374" cy="172.85" r="0.2151" gradientTransform="matrix(97.3104 0 0 97.3103 28837.7383 -16794.7148)" gradientUnits="userSpaceOnUse"> <stop offset="0" style="stop-color:#C71F37"></stop> <stop offset="0.5" style="stop-color:#C71F37"></stop> <stop offset="0.755" style="stop-color:#C51F36"></stop> <stop offset="0.8635" style="stop-color:#BE1F33"></stop> <stop offset="0.9439" style="stop-color:#B21E2D"></stop> <stop offset="1" style="stop-color:#A41D26"></stop> </radialGradient> <rect x="10.9" y="5.9" style="clip-path:url(#SVGID_00000036236630127335660990000006041153469742548103_);fill:url(#SVGID_00000151532213168306913700000017904021676358447031_);" width="40.2" height="40.2"></rect> </g> </g> <g> <g> <defs> <path id="SVGID_00000007424573641782784290000012766726594964845970_" d="M17.4,12.4c-6.7,6.7-7.4,16.9-1.5,22.8 s16.1,5.2,22.8-1.5c6.7-6.7,7.4-16.9,1.5-22.8c-2.7-2.7-6.3-4-10-4C25.7,6.8,21,8.7,17.4,12.4"></path> </defs> <clipPath id="SVGID_00000034779563942868165990000014692198744420827315_"> <use xlink:href="#SVGID_00000007424573641782784290000012766726594964845970_" style="overflow:visible;"></use> </clipPath> <linearGradient id="SVGID_00000139266212586137646410000001060196148601911231_" gradientUnits="userSpaceOnUse" x1="-296.2227" y1="171.7319" x2="-296.0077" y2="171.7319" gradientTransform="matrix(150.5181 0 0 150.5181 44598.7656 -25824.8066)"> <stop offset="0" style="stop-color:#EF7B22"></stop> <stop offset="5.683763e-02" style="stop-color:#E97125"></stop> <stop offset="0.2718" style="stop-color:#D9532C"></stop> <stop offset="0.4738" style="stop-color:#CF3A30"></stop> <stop offset="0.6559" style="stop-color:#C92731"></stop> <stop offset="0.8011" style="stop-color:#C72032"></stop> <stop offset="1" style="stop-color:#C72032"></stop> </linearGradient> <rect x="10" y="6.8" style="clip-path:url(#SVGID_00000034779563942868165990000014692198744420827315_);fill:url(#SVGID_00000139266212586137646410000001060196148601911231_);" width="36.1" height="34.3"></rect> </g> </g> <g> <g> <defs> <path id="SVGID_00000060745396020693475320000012720641774652011940_" d="M17.4,12.4c-6.7,6.7-7.4,16.9-1.5,22.8 s16.1,5.2,22.8-1.5c6.7-6.7,7.4-16.9,1.5-22.8c-2.7-2.7-6.3-4-10-4C25.7,6.8,21,8.7,17.4,12.4"></path> </defs> <clipPath id="SVGID_00000085219718974232777730000018038891783795196606_"> <use xlink:href="#SVGID_00000060745396020693475320000012720641774652011940_" style="overflow:visible;"></use> </clipPath> <linearGradient id="SVGID_00000086692263458799491670000014406222917210792886_" gradientUnits="userSpaceOnUse" x1="-294.87" y1="170.0064" x2="-294.6549" y2="170.0064" gradientTransform="matrix(49.2708 135.3704 135.3704 -49.2708 -8462.9033 48301.5625)"> <stop offset="0" style="stop-color:#F48996"></stop> <stop offset="0.1579" style="stop-color:#E47076"></stop> <stop offset="0.3702" style="stop-color:#D75156"></stop> <stop offset="0.5559" style="stop-color:#CE3941"></stop> <stop offset="0.7058" style="stop-color:#C92735"></stop> <stop offset="0.8011" style="stop-color:#C72032"></stop> <stop offset="1" style="stop-color:#C72032"></stop> </linearGradient> <polygon style="clip-path:url(#SVGID_00000085219718974232777730000018038891783795196606_);fill:url(#SVGID_00000086692263458799491670000014406222917210792886_);" points=" -1,10.8 14.2,52.7 57.1,37.1 41.9,-4.8 "></polygon> </g> </g> <g> <g> <defs> <path id="SVGID_00000071532189290893012710000006773458912865791386_" d="M30.5,17.4L30.5,17.4L30.5,17.4l-0.2,0.1l0.1,0.2v17 l-0.5,0.3l0.4,0.3c0,0,0.2,0.1,0.3,0.1h5.6c0.1,0,0.1,0,0.1-0.1v-1.5c0-0.1,0-0.2,0-0.2L36,33h-3.7l0-15.4c0-0.1,0-0.1,0-0.1 L32,16.9L30.5,17.4z"></path> </defs> <clipPath id="SVGID_00000082344744684644276370000000889667723564084664_"> <use xlink:href="#SVGID_00000071532189290893012710000006773458912865791386_" style="overflow:visible;"></use> </clipPath> <linearGradient id="SVGID_00000057847895641029912670000015248058768613663905_" gradientUnits="userSpaceOnUse" x1="-293.1142" y1="168.2132" x2="-292.8991" y2="168.2132" gradientTransform="matrix(55.1526 55.1526 55.1526 -55.1526 6916.0317 25463.8027)"> <stop offset="0" style="stop-color:#D33956"></stop> <stop offset="0.1011" style="stop-color:#C2304A"></stop> <stop offset="0.2521" style="stop-color:#B1263D"></stop> <stop offset="0.425" style="stop-color:#A62034"></stop> <stop offset="0.6367" style="stop-color:#9F1C2F"></stop> <stop offset="1" style="stop-color:#9D1B2E"></stop> </linearGradient> <polygon style="clip-path:url(#SVGID_00000082344744684644276370000000889667723564084664_);fill:url(#SVGID_00000057847895641029912670000015248058768613663905_);" points=" 20.8,26.1 33.1,38.5 45.5,26.1 33.1,13.7 "></polygon> </g> </g> <g> <g> <defs> <path id="SVGID_00000173150554303867467420000018263506569673898421_" d="M31.2,9l-0.4,0.1c-9.4,0-16.5,7.9-16.5,17.3 c0,4.5,1.8,8.8,5,12c3.2,3.2,7.5,4.8,12.1,4.8s8.9-1.7,12.1-4.9c3.2-3.2,5-7.5,5-12v-1L48.1,25H35.6v2l0.3,0.4c0,0,0,0,0.1,0 h9.5h0.9l0,0l0,0c-0.5,7.9-7.2,14-15.1,14c-4,0-7.8-1.6-10.7-4.4c-2.9-2.8-4.4-6.6-4.4-10.6s1.5-7.9,4.3-10.7s6.5-4.3,10.8-4.4 l0.8,0h0.1c0.1,0,0.1,0,0.1-0.1V9.6c0-0.1,0-0.2,0-0.2L32,8.9L31.2,9z"></path> </defs> <clipPath id="SVGID_00000129200234124034312300000007754894527196574618_"> <use xlink:href="#SVGID_00000173150554303867467420000018263506569673898421_" style="overflow:visible;"></use> </clipPath> <linearGradient id="SVGID_00000003105408158562660890000007142142585247664798_" gradientUnits="userSpaceOnUse" x1="-295.2886" y1="168.9473" x2="-295.0735" y2="168.9473" gradientTransform="matrix(113.0244 113.0244 113.0244 -113.0244 14298.9092 52484.0039)"> <stop offset="0" style="stop-color:#D33956"></stop> <stop offset="0.1011" style="stop-color:#C2304A"></stop> <stop offset="0.2521" style="stop-color:#B1263D"></stop> <stop offset="0.425" style="stop-color:#A62034"></stop> <stop offset="0.6367" style="stop-color:#9F1C2F"></stop> <stop offset="1" style="stop-color:#9D1B2E"></stop> </linearGradient> <polygon style="clip-path:url(#SVGID_00000129200234124034312300000007754894527196574618_);fill:url(#SVGID_00000003105408158562660890000007142142585247664798_);" points=" -3,26.1 31.4,60.4 65.7,26.1 31.4,-8.2 "></polygon> </g> </g> <g> <g> <defs> <path id="SVGID_00000079473055306066939420000016447475894805297077_" d="M22.1,19.8c0,1.5,1.2,2.7,2.7,2.7 c1.5,0,2.7-1.2,2.7-2.7c0-1.5-1.2-2.7-2.7-2.7C23.3,17.2,22.1,18.4,22.1,19.8"></path> </defs> <clipPath id="SVGID_00000116230087189284043870000014858916210755485598_"> <use xlink:href="#SVGID_00000079473055306066939420000016447475894805297077_" style="overflow:visible;"></use> </clipPath> <linearGradient id="SVGID_00000155133571067168278360000013715744668975472262_" gradientUnits="userSpaceOnUse" x1="-282.4331" y1="165.5086" x2="-282.2181" y2="165.5086" gradientTransform="matrix(17.6921 17.6921 17.6921 -17.6921 2091.5579 7942.9575)"> <stop offset="0" style="stop-color:#D33956"></stop> <stop offset="0.1011" style="stop-color:#C2304A"></stop> <stop offset="0.2521" style="stop-color:#B1263D"></stop> <stop offset="0.425" style="stop-color:#A62034"></stop> <stop offset="0.6367" style="stop-color:#9F1C2F"></stop> <stop offset="1" style="stop-color:#9D1B2E"></stop> </linearGradient> <polygon style="clip-path:url(#SVGID_00000116230087189284043870000014858916210755485598_);fill:url(#SVGID_00000155133571067168278360000013715744668975472262_);" points=" 19.4,19.8 24.8,25.2 30.2,19.8 24.8,14.5 "></polygon> </g> </g> <polygon class="st16" points="30.3,34.5 29.9,34.9 36,34.9 35.6,34.5 "></polygon> <polygon class="st17" points="32,33 31.5,33.3 35.6,33.3 36,33 "></polygon> <polygon class="st18" points="29.9,16.9 30.3,17.3 31.6,17.3 32,16.9 "></polygon> <g> <g> <defs> <polygon id="SVGID_00000177474492107568048430000000750755464802061465_" points="31.6,17.3 31.6,18.1 31.6,33.3 31.6,33.3 32,33 32,16.9 "></polygon> </defs> <clipPath id="SVGID_00000126304904631787368170000000877564997305029019_"> <use xlink:href="#SVGID_00000177474492107568048430000000750755464802061465_" style="overflow:visible;"></use> </clipPath> <linearGradient id="SVGID_00000044879815879002089070000012051429528823126945_" gradientUnits="userSpaceOnUse" x1="-216.0492" y1="15.0793" x2="-215.8342" y2="15.0793" gradientTransform="matrix(2.0592 0 0 -2.0592 476.4693 56.1588)"> <stop offset="0" style="stop-color:#C5CACD"></stop> <stop offset="0.6676" style="stop-color:#59595B"></stop> <stop offset="1" style="stop-color:#36373A"></stop> </linearGradient> <rect x="31.6" y="16.9" style="clip-path:url(#SVGID_00000126304904631787368170000000877564997305029019_);fill:url(#SVGID_00000044879815879002089070000012051429528823126945_);" width="0.5" height="16.4"></rect> </g> </g> <g> <g> <defs> <polygon id="SVGID_00000050643978415393181100000007809611602114302130_" points="36,33 35.6,33.3 35.6,34.5 36,34.9 "></polygon> </defs> <clipPath id="SVGID_00000083050323306866171440000015336916353950849664_"> <use xlink:href="#SVGID_00000050643978415393181100000007809611602114302130_" style="overflow:visible;"></use> </clipPath> <linearGradient id="SVGID_00000115484789316850402100000002344495911503392695_" gradientUnits="userSpaceOnUse" x1="-213.2916" y1="12.4534" x2="-213.0766" y2="12.4534" gradientTransform="matrix(1.8195 0 0 -1.8195 423.66 56.6051)"> <stop offset="0" style="stop-color:#C5CACD"></stop> <stop offset="0.6676" style="stop-color:#59595B"></stop> <stop offset="1" style="stop-color:#36373A"></stop> </linearGradient> <rect x="35.6" y="33" style="clip-path:url(#SVGID_00000083050323306866171440000015336916353950849664_);fill:url(#SVGID_00000115484789316850402100000002344495911503392695_);" width="0.4" height="2"></rect> </g> </g> <polygon class="st21" points="29.9,34.9 30.3,34.5 30.3,17.3 29.9,16.9 "></polygon> <g> <g> <defs> <path id="SVGID_00000081605437603722183640000006865560178525795224_" d="M22.3,19.5c0-1.2,1-2.2,2.2-2.2c1.2,0,2.2,1,2.2,2.2 c0,1.2-1,2.2-2.2,2.2C23.3,21.8,22.3,20.8,22.3,19.5 M22,19.5c0,1.4,1.2,2.6,2.6,2.6c1.4,0,2.6-1.2,2.6-2.6 c0-1.4-1.2-2.6-2.6-2.6C23.1,16.9,22,18.1,22,19.5"></path> </defs> <clipPath id="SVGID_00000016796721057411575880000008898495233404227254_"> <use xlink:href="#SVGID_00000081605437603722183640000006865560178525795224_" style="overflow:visible;"></use> </clipPath> <linearGradient id="SVGID_00000129906042977934966470000011408355625468920763_" gradientUnits="userSpaceOnUse" x1="-281.9655" y1="173.7883" x2="-281.7504" y2="173.7883" gradientTransform="matrix(17.2241 17.2241 -17.2241 17.2241 7872.6582 1880.9204)"> <stop offset="0" style="stop-color:#BCC6CC"></stop> <stop offset="0.1036" style="stop-color:#B1BABF"></stop> <stop offset="0.2689" style="stop-color:#99A0A4"></stop> <stop offset="0.4753" style="stop-color:#767A7D"></stop> <stop offset="0.7147" style="stop-color:#4D4E4F"></stop> <stop offset="0.9791" style="stop-color:#1F2021"></stop> <stop offset="1" style="stop-color:#1B1C1D"></stop> </linearGradient> <polygon style="clip-path:url(#SVGID_00000016796721057411575880000008898495233404227254_);fill:url(#SVGID_00000129906042977934966470000011408355625468920763_);" points=" 24.6,14.3 29.8,19.5 24.6,24.8 19.3,19.5 "></polygon> </g> </g> <polygon class="st23" points="35.6,27 46,27 46.2,26.7 46.4,26.5 36,26.5 "></polygon> <polygon class="st18" points="35.6,25 36,25.4 47.6,25.3 48,25 "></polygon> <g> <g> <defs> <path id="SVGID_00000008851519693571898410000012598070976105439926_" d="M14,25.9c0,4.5,1.8,8.8,5,12c3.2,3.2,7.5,5,12,5 c4.6,0,8.8-1.8,12-5c3.2-3.2,5-7.5,5-12v-1l-0.4,0.4v0.6c0,4.5-1.7,8.6-4.9,11.8s-7.3,4.9-11.8,4.9c-4.4,0-8.6-1.7-11.7-4.9 c-3.1-3.1-4.9-7.3-4.9-11.8c0-9.2,7.5-16.6,16.6-16.6h0.6L32,8.9h-1C21.6,8.9,14,16.5,14,25.9"></path> </defs> <clipPath id="SVGID_00000158007255493783580380000007221200668845877383_"> <use xlink:href="#SVGID_00000008851519693571898410000012598070976105439926_" style="overflow:visible;"></use> </clipPath> <linearGradient id="SVGID_00000039855945758045355600000001363236339041267362_" gradientUnits="userSpaceOnUse" x1="-295.2761" y1="170.2304" x2="-295.0611" y2="170.2304" gradientTransform="matrix(112.8348 112.8348 -112.8348 112.8348 52544.2422 14123.3877)"> <stop offset="0" style="stop-color:#C5CACD"></stop> <stop offset="0.2971" style="stop-color:#999B9F"></stop> <stop offset="0.9477" style="stop-color:#484A4E"></stop> <stop offset="1" style="stop-color:#424449"></stop> </linearGradient> <polygon style="clip-path:url(#SVGID_00000158007255493783580380000007221200668845877383_);fill:url(#SVGID_00000039855945758045355600000001363236339041267362_);" points=" 31,-8.1 65,25.9 31,60 -3.1,25.9 "></polygon> </g> </g> <g> <g> <defs> <path id="SVGID_00000120547675819228560110000015942946922458686101_" d="M30.8,10.5c-4,0.1-7.8,1.7-10.7,4.5 c-2.9,2.9-4.5,6.7-4.5,10.8v0.3c0,4.1,1.6,7.9,4.5,10.8c2.9,2.9,6.7,4.5,10.7,4.5h0.4c8-0.1,14.6-6.4,15.2-14.4l0-0.4l0,0 l-0.2,0.2L46,27c-0.5,7.8-7.1,14-15,14c-4,0-7.8-1.6-10.6-4.4C17.5,33.8,16,30,16,26s1.5-7.8,4.4-10.6C23.2,12.5,27,11,31,11h1 l-0.4-0.4h-0.4L30.8,10.5L30.8,10.5z"></path> </defs> <clipPath id="SVGID_00000103971151984266919780000004347010213813163692_"> <use xlink:href="#SVGID_00000120547675819228560110000015942946922458686101_" style="overflow:visible;"></use> </clipPath> <linearGradient id="SVGID_00000106869523926994468000000013605094141243542683_" gradientUnits="userSpaceOnUse" x1="-298.6174" y1="167.3897" x2="-298.4024" y2="167.3897" gradientTransform="matrix(-143.2477 0 0 -143.2477 -42729.8906 24004.1367)"> <stop offset="0" style="stop-color:#C5CACD"></stop> <stop offset="0.3666" style="stop-color:#94979B"></stop> <stop offset="1" style="stop-color:#4E5257"></stop> </linearGradient> <rect x="15.6" y="10.5" style="clip-path:url(#SVGID_00000103971151984266919780000004347010213813163692_);fill:url(#SVGID_00000106869523926994468000000013605094141243542683_);" width="30.8" height="30.8"></rect> </g> </g> <polygon class="st21" points="35.6,27 36,26.5 36,25.4 35.6,25 "></polygon> <g> <g> <defs> <polygon id="SVGID_00000127007963855213201190000016875795531992825535_" points="31.6,9.3 31.6,10.5 32,10.9 32,8.9 "></polygon> </defs> <clipPath id="SVGID_00000039128441054325701740000002534077904427681725_"> <use xlink:href="#SVGID_00000127007963855213201190000016875795531992825535_" style="overflow:visible;"></use> </clipPath> <linearGradient id="SVGID_00000160878385547534496320000003063503670705064332_" gradientUnits="userSpaceOnUse" x1="-204.7115" y1="-37.0898" x2="-204.4966" y2="-37.0898" gradientTransform="matrix(1.8077 0 0 -1.8077 401.657 -57.1333)"> <stop offset="0" style="stop-color:#C5CACD"></stop> <stop offset="0.6676" style="stop-color:#59595B"></stop> <stop offset="1" style="stop-color:#36373A"></stop> </linearGradient> <rect x="31.6" y="8.9" style="clip-path:url(#SVGID_00000039128441054325701740000002534077904427681725_);fill:url(#SVGID_00000160878385547534496320000003063503670705064332_);" width="0.4" height="2"></rect> </g> </g> <g> <g> <defs> <path id="SVGID_00000005236099470797714780000001293218488659214015_" d="M30.2,17.1v17.6h5.6v-1.6h-4v-16H30.2z M30.8,9.1 c-9.2,0.1-16.6,7.6-16.6,16.8c0,4.5,1.7,8.7,4.9,11.9c3.1,3.1,7.3,4.9,11.7,4.9h0.3c4.5,0,8.6-1.8,11.8-4.9s4.9-7.3,4.9-11.7 v-0.9h-0.7H35.8v1.6h10.4c0,0,0,0.2,0,0.2c-0.5,7.9-7.1,14.2-15.2,14.2c-4.1,0-7.9-1.6-10.8-4.5c-2.9-2.9-4.5-6.7-4.5-10.8 s1.6-7.9,4.5-10.8c2.9-2.9,6.7-4.5,10.8-4.5c0.2,0,0.6,0,0.8,0V9.2c-0.2,0-0.4,0-0.6,0L30.8,9.1L30.8,9.1z"></path> </defs> <clipPath id="SVGID_00000168090812870602162700000009848079707191010457_"> <use xlink:href="#SVGID_00000005236099470797714780000001293218488659214015_" style="overflow:visible;"></use> </clipPath> <radialGradient id="SVGID_00000181774999010149629160000001042986399215489193_" cx="-296.1844" cy="166.7332" r="0.2151" gradientTransform="matrix(119.4433 0 0 -119.4433 35401.4609 19933.9746)" gradientUnits="userSpaceOnUse"> <stop offset="0" style="stop-color:#FFFFFF"></stop> <stop offset="0.35" style="stop-color:#FFFFFF"></stop> <stop offset="0.5541" style="stop-color:#F9FAFA"></stop> <stop offset="0.7418" style="stop-color:#EDEFF0"></stop> <stop offset="0.9224" style="stop-color:#DAE0E3"></stop> <stop offset="1" style="stop-color:#D1D8DC"></stop> </radialGradient> <rect x="14.2" y="9.1" style="clip-path:url(#SVGID_00000168090812870602162700000009848079707191010457_);fill:url(#SVGID_00000181774999010149629160000001042986399215489193_);" width="33.6" height="33.6"></rect> </g> </g> <g> <g> <defs> <path id="SVGID_00000005961812592984874080000009024500498209716666_" d="M24.5,17.1c-1.3,0-2.3,1.1-2.4,2.4v0.1 c0,1.3,1.1,2.3,2.4,2.3c1.3,0,2.4-1.1,2.4-2.4C27,18.2,25.9,17.2,24.5,17.1C24.6,17.1,24.5,17.1,24.5,17.1z"></path> </defs> <clipPath id="SVGID_00000089570458355197135520000015029198232666005389_"> <use xlink:href="#SVGID_00000005961812592984874080000009024500498209716666_" style="overflow:visible;"></use> </clipPath> <radialGradient id="SVGID_00000152944796352584143370000008416104123458992556_" cx="-286.4941" cy="150.0059" r="0.2151" gradientTransform="matrix(17.4538 0 0 -17.4538 5023.9702 2636.8125)" gradientUnits="userSpaceOnUse"> <stop offset="0" style="stop-color:#FFFFFF"></stop> <stop offset="0.35" style="stop-color:#FFFFFF"></stop> <stop offset="0.5998" style="stop-color:#F9FAFA"></stop> <stop offset="0.8238" style="stop-color:#EDEFF1"></stop> <stop offset="1" style="stop-color:#DFE4E7"></stop> </radialGradient> <rect x="22.2" y="17.1" style="clip-path:url(#SVGID_00000089570458355197135520000015029198232666005389_);fill:url(#SVGID_00000152944796352584143370000008416104123458992556_);" width="4.8" height="4.8"></rect> </g> </g> <g> <g> <defs> <rect id="SVGID_00000145762168433373451860000010768234646344318890_" x="10" y="5.9" width="100" height="48.3"></rect> </defs> <clipPath id="SVGID_00000124884089728461594010000009192324557899786115_"> <use xlink:href="#SVGID_00000145762168433373451860000010768234646344318890_" style="overflow:visible;"></use> </clipPath> <path style="clip-path:url(#SVGID_00000124884089728461594010000009192324557899786115_);fill:#FFFFFF;" d="M25,17.6 c0.6,0,1.1,0.2,1.5,0.5c-0.4-0.6-1.1-0.9-1.9-0.9c-1.3,0-2.4,1.1-2.4,2.4c0,0.8,0.4,1.4,0.9,1.9c-0.3-0.4-0.5-0.9-0.5-1.4 C22.6,18.6,23.7,17.6,25,17.6"></path> </g> <g> <defs> <rect id="SVGID_00000145776410630882113510000005272982445777970830_" x="10" y="5.9" width="100" height="48.3"></rect> </defs> <clipPath id="SVGID_00000147918293956349765090000001163062355399493305_"> <use xlink:href="#SVGID_00000145776410630882113510000005272982445777970830_" style="overflow:visible;"></use> </clipPath> <path style="clip-path:url(#SVGID_00000147918293956349765090000001163062355399493305_);fill:#FFFFFF;" d="M31.8,9.1 c-0.2,0-0.6,0-0.8,0c-9.2,0-16.8,7.5-16.8,16.8c0,4.5,1.7,8.7,4.9,11.9c0.1,0.1,0.2,0.2,0.3,0.3c-3-3.1-4.6-7.2-4.6-11.6 C14.8,17.3,21.3,9.6,31.8,9.1"></path> </g> <g> <defs> <rect id="SVGID_00000140012787383104935500000002556349811657279398_" x="10" y="5.9" width="100" height="48.3"></rect> </defs> <clipPath id="SVGID_00000083774768256624028500000001226877229834358170_"> <use xlink:href="#SVGID_00000140012787383104935500000002556349811657279398_" style="overflow:visible;"></use> </clipPath> <path style="clip-path:url(#SVGID_00000083774768256624028500000001226877229834358170_);fill:#FFFFFF;" d="M31.8,33.2 c0,0,1.2,0.3,4,0.3v-0.3H31.8z"></path> </g> <g> <defs> <rect id="SVGID_00000147915097978371897090000017560372783494232479_" x="10" y="5.9" width="100" height="48.3"></rect> </defs> <clipPath id="SVGID_00000177467228067357561120000003322559637426143135_"> <use xlink:href="#SVGID_00000147915097978371897090000017560372783494232479_" style="overflow:visible;"></use> </clipPath> <path style="clip-path:url(#SVGID_00000177467228067357561120000003322559637426143135_);fill:#FFFFFF;" d="M31.8,17.6v-0.5h-1.6 v17.6c0,0,0.5-2.7,0.5-17.1C30.7,17.6,31.8,17.6,31.8,17.6z"></path> </g> <g> <defs> <rect id="SVGID_00000120536299471136736910000005298854283321610429_" x="10" y="5.9" width="100" height="48.3"></rect> </defs> <clipPath id="SVGID_00000083075285161879984330000018362114903333813941_"> <use xlink:href="#SVGID_00000120536299471136736910000005298854283321610429_" style="overflow:visible;"></use> </clipPath> <path style="clip-path:url(#SVGID_00000083075285161879984330000018362114903333813941_);fill:#FFFFFF;" d="M47.8,25.2h-12v1.6 h0.4v-1.1C46.7,25.6,47.8,25.2,47.8,25.2"></path> </g> <g> <defs> <rect id="SVGID_00000147924432480617282790000002716291856013163962_" x="10" y="5.9" width="100" height="48.3"></rect> </defs> <clipPath id="SVGID_00000053522577817222925540000017059889220993948309_"> <use xlink:href="#SVGID_00000147924432480617282790000002716291856013163962_" style="overflow:visible;"></use> </clipPath> <path style="clip-path:url(#SVGID_00000053522577817222925540000017059889220993948309_);fill:#FFFFFF;" d="M46.2,26.7 c0,0,0,0.2,0,0.2C45.6,34.9,39,41.2,31,41.2c-4.1,0-7.9-1.6-10.8-4.5c-1.9-1.9-3.2-4.2-3.9-6.7c1.8,6.6,7.8,11.3,14.9,11.3 c7.7,0,14.7-6,15.1-14.6L46.2,26.7L46.2,26.7z"></path> </g> <g> <defs> <rect id="SVGID_00000014603430298277034470000014362775084443231656_" x="10" y="5.9" width="100" height="48.3"></rect> </defs> <clipPath id="SVGID_00000084531122793972770450000001861579706391353266_"> <use xlink:href="#SVGID_00000014603430298277034470000014362775084443231656_" style="overflow:visible;"></use> </clipPath> <polygon style="clip-path:url(#SVGID_00000084531122793972770450000001861579706391353266_);fill:#727272;" points="66,12.8 60,12.8 60,38.8 78.5,38.8 78.5,33.8 66,33.8 "></polygon> </g> <g> <defs> <rect id="SVGID_00000026880804752845776820000018132626656726305414_" x="10" y="5.9" width="100" height="48.3"></rect> </defs> <clipPath id="SVGID_00000159437866473693410980000002582074748811845286_"> <use xlink:href="#SVGID_00000026880804752845776820000018132626656726305414_" style="overflow:visible;"></use> </clipPath> <path style="clip-path:url(#SVGID_00000159437866473693410980000002582074748811845286_);fill:#727272;" d="M91.7,28.9h4.9v4.5 c-0.9,0.3-2.7,0.7-4.3,0.7c-5.4,0-7.2-2.8-7.2-8.3c0-5.3,1.7-8.4,7.1-8.4c3,0,4.7,0.9,6.1,2.7l3.7-3.4c-2.3-3.2-6.3-4.2-10-4.2 c-8.4,0-12.8,4.6-12.8,13.3c0,8.7,4,13.4,12.8,13.4c4,0,8-1,10.1-2.5V24.1H91.7V28.9z"></path> </g> </g> </g> </svg> 