<?xml version="1.0" encoding="UTF-8"?> <svg xmlns="http://www.w3.org/2000/svg" xmlns:xlink="http://www.w3.org/1999/xlink" version="1.1" id="Layer_1" x="0px" y="0px" viewBox="0 0 120 60" style="enable-background:new 0 0 120 60;" xml:space="preserve"> <style type="text/css"> .st0{fill:#00C7FD;} .st1{fill:#0068B5;} </style> <g> <rect x="25.8" y="17.1" class="st0" width="5" height="5"></rect> <path class="st1" d="M30.6,42.9V25.1h-4.7v17.8H30.6z M61.8,43.1v-4.4c-0.7,0-1.3,0-1.7-0.1c-0.5-0.1-0.9-0.2-1.1-0.5 c-0.2-0.2-0.4-0.6-0.5-1.1c-0.1-0.4-0.1-1-0.1-1.7v-6.2h3.4v-4h-3.4v-6.9h-4.7v17.2c0,1.5,0.1,2.7,0.4,3.7c0.2,1,0.7,1.8,1.3,2.4 c0.6,0.6,1.4,1,2.3,1.3c0.9,0.3,2.2,0.4,3.6,0.4H61.8z M88.7,42.9V16.7H84v26.2H88.7z M49.1,26.8c-1.3-1.4-3.1-2.1-5.5-2.1 c-1.1,0-2.2,0.2-3.1,0.7c-0.9,0.5-1.7,1.1-2.3,1.9L38,27.6l0-0.3v-2.3h-4.6v17.8H38v-9.5l0,0.7c0-0.1,0-0.2,0-0.3 c0-1.7,0.5-2.9,1.2-3.7c0.8-0.8,1.8-1.3,3-1.3c1.4,0,2.4,0.4,3.1,1.2c0.7,0.8,1,2,1,3.4l0,0v0c0,0,0,0,0,0h0l0,9.4h4.7V32.8 C51.1,30.2,50.4,28.2,49.1,26.8z M81.6,33.9c0-1.3-0.2-2.5-0.7-3.6c-0.5-1.1-1.1-2.1-1.9-2.9c-0.8-0.8-1.8-1.5-2.9-2 c-1.1-0.5-2.4-0.7-3.7-0.7c-1.3,0-2.5,0.2-3.6,0.7c-1.1,0.5-2.1,1.2-2.9,2c-0.8,0.8-1.5,1.8-2,2.9c-0.5,1.1-0.7,2.3-0.7,3.6 c0,1.3,0.2,2.5,0.7,3.6c0.5,1.1,1.1,2.1,1.9,2.9c0.8,0.8,1.8,1.5,3,2c1.2,0.5,2.4,0.7,3.8,0.7c4,0,6.5-1.8,7.9-3.5l-3.4-2.6 c-0.7,0.8-2.4,2-4.5,2c-1.3,0-2.4-0.3-3.2-0.9c-0.8-0.6-1.4-1.4-1.7-2.5l0-0.2h14V33.9z M67.6,32.3c0-1.3,1.5-3.6,4.7-3.6 c3.2,0,4.7,2.3,4.7,3.6L67.6,32.3z"></path> <path class="st1" d="M94.1,40.7c-0.1-0.2-0.2-0.4-0.4-0.6c-0.2-0.2-0.3-0.3-0.6-0.4c-0.2-0.1-0.4-0.1-0.7-0.1c-0.2,0-0.5,0-0.7,0.1 c-0.2,0.1-0.4,0.2-0.6,0.4c-0.2,0.2-0.3,0.3-0.4,0.6c-0.1,0.2-0.1,0.4-0.1,0.7c0,0.2,0,0.5,0.1,0.7c0.1,0.2,0.2,0.4,0.4,0.6 c0.2,0.2,0.3,0.3,0.6,0.4c0.2,0.1,0.4,0.1,0.7,0.1c0.2,0,0.5,0,0.7-0.1c0.2-0.1,0.4-0.2,0.6-0.4c0.2-0.2,0.3-0.3,0.4-0.6 c0.1-0.2,0.1-0.4,0.1-0.7C94.2,41.1,94.2,40.9,94.1,40.7z M93.8,41.9c-0.1,0.2-0.2,0.3-0.3,0.5c-0.1,0.1-0.3,0.2-0.5,0.3 c-0.2,0.1-0.4,0.1-0.6,0.1c-0.2,0-0.4,0-0.6-0.1c-0.2-0.1-0.3-0.2-0.5-0.3c-0.1-0.1-0.2-0.3-0.3-0.5c-0.1-0.2-0.1-0.4-0.1-0.6 c0-0.2,0-0.4,0.1-0.6c0.1-0.2,0.2-0.3,0.3-0.5c0.1-0.1,0.3-0.2,0.5-0.3c0.2-0.1,0.4-0.1,0.6-0.1c0.2,0,0.4,0,0.6,0.1 c0.2,0.1,0.3,0.2,0.5,0.3c0.1,0.1,0.2,0.3,0.3,0.5c0.1,0.2,0.1,0.4,0.1,0.6C93.9,41.5,93.9,41.7,93.8,41.9z M92.8,41.5 c0.1,0,0.2-0.1,0.3-0.2c0.1-0.1,0.1-0.2,0.1-0.4c0-0.2-0.1-0.3-0.2-0.4c-0.1-0.1-0.3-0.2-0.5-0.2h-0.8v2h0.4v-0.8h0.3l0.5,0.8h0.4 L92.8,41.5z M92.6,41.2c-0.1,0-0.1,0-0.2,0h-0.3v-0.6h0.3c0.1,0,0.1,0,0.2,0c0.1,0,0.1,0,0.2,0c0,0,0.1,0,0.1,0.1c0,0,0,0.1,0,0.2 c0,0.1,0,0.1,0,0.2c0,0-0.1,0.1-0.1,0.1C92.7,41.2,92.6,41.2,92.6,41.2z"></path> </g> </svg> 