<?xml version="1.0" encoding="UTF-8"?> <svg xmlns="http://www.w3.org/2000/svg" xmlns:xlink="http://www.w3.org/1999/xlink" version="1.1" id="圖層_1" x="0px" y="0px" viewBox="0 0 120 60" style="enable-background:new 0 0 120 60;" xml:space="preserve"> <style type="text/css"> .st0{fill:#0C2E82;} .st1{fill:#EE2D28;} </style> <g> <g> <g> <path class="st0" d="M101.1,25.7v-1.9h0.9c0.2,0,0.3,0,0.4,0.1c0.1,0,0.2,0.1,0.2,0.2c0.1,0.1,0.1,0.2,0.1,0.3 c0,0.1,0,0.3-0.1,0.3c-0.1,0.1-0.2,0.2-0.4,0.2c0.1,0,0.1,0.1,0.2,0.1c0.1,0.1,0.1,0.2,0.2,0.3l0.3,0.5h-0.3l-0.3-0.4 c-0.1-0.1-0.1-0.2-0.2-0.3c0-0.1-0.1-0.1-0.1-0.1c0,0-0.1,0-0.1-0.1c0,0-0.1,0-0.1,0h-0.3v0.9H101.1z M101.4,24.6h0.6 c0.1,0,0.2,0,0.3,0c0.1,0,0.1-0.1,0.2-0.1c0-0.1,0.1-0.1,0.1-0.2c0-0.1,0-0.2-0.1-0.2c-0.1-0.1-0.2-0.1-0.3-0.1h-0.6V24.6z"></path> </g> <g> <path class="st0" d="M100.2,24.7c0-0.9,0.8-1.7,1.7-1.7l0,0c0.9,0,1.7,0.8,1.7,1.7l0,0c0,0.9-0.8,1.7-1.7,1.7l0,0 C100.9,26.4,100.2,25.7,100.2,24.7L100.2,24.7z M100.4,24.7c0,0.8,0.7,1.5,1.5,1.5l0,0c0.8,0,1.5-0.7,1.5-1.5l0,0 c0-0.8-0.7-1.5-1.5-1.5l0,0C101.1,23.3,100.4,23.9,100.4,24.7L100.4,24.7z"></path> </g> </g> <g> <path class="st0" d="M77.9,37.3h-5.6v-3.9h-7.8v3.9H59V25.9c0-1,0.4-1.7,1.1-2.3c0.7-0.6,1.7-0.8,3.1-0.8h10.6 c1.3,0,2.4,0.3,3.1,0.8c0.7,0.6,1.1,1.3,1.1,2.3V37.3z M72.3,30.8v-4.2h-7.8v4.2H72.3z"></path> <path class="st0" d="M97.8,23.5c-0.6-0.4-1.4-0.7-2.6-0.7l0,0H95c0,0-0.1,0-0.1,0H85l0,0h-0.3c-1.3,0-2.4,0.3-3.1,0.8 c-0.7,0.6-1.1,1.3-1.1,2.2h0v0c0,0,0,0,0,0h0v11.4H86v-3.8h9c2.4,0,3.7-1,3.7-2.9v-4.7C98.7,24.8,98.4,24,97.8,23.5z M93,30.3 h-7.1v-3.8H93V30.3z"></path> <path class="st0" d="M52,22.8L52,22.8h-0.8v8.5c0,0.1-0.1,0.2-0.3,0.1c0,0-0.1,0-0.2-0.1c-0.9-1.4-4.5-6.4-5.7-8c0,0,0,0,0,0h0 c0,0,0,0-0.1,0c0,0,0,0,0,0c-0.3-0.3-0.7-0.4-1.2-0.4h-4.5c-0.6,0-1,0.2-1.3,0.5c-0.3,0.3-0.5,0.7-0.5,1.3l0,0v12.8h5.2 c0,0,0-6.8,0-8.7c0-0.1,0.1-0.3,0.5-0.3c0,0,0.2,0,0.2,0.1l0,0c1,1.6,7.6,8.9,7.6,8.9h5.4V22.8H52z"></path> </g> <path class="st0" d="M28.3,33.9c-0.1-0.1-0.2-0.1-0.2-0.2h-5.8v-7.7H30v6.5c2.3,0.7,3.9,1.7,5,2.5c0.2-0.5,0.3-1,0.3-1.6v-7.1 c0-2.4-1.4-3.7-4.3-3.8v0h-0.5c0,0,0,0-0.1,0v0h-9.3c-3.2,0-4.8,1.3-4.8,3.9v7.1c0,2.6,1.6,3.8,4.8,3.8h9.3v0c0.5,0,1,0,1.4-0.1 C31.1,36.1,29.7,34.9,28.3,33.9z"></path> <path class="st1" d="M26.5,32.1c1.7,1.1,4.9,3.3,6,5.3h3.9C35.8,36.2,33.5,33.3,26.5,32.1z"></path> </g> </svg> 