<?xml version="1.0" encoding="UTF-8"?> <svg xmlns="http://www.w3.org/2000/svg" xmlns:xlink="http://www.w3.org/1999/xlink" version="1.1" id="logo" x="0px" y="0px" viewBox="0 0 120 60" style="enable-background:new 0 0 120 60;" xml:space="preserve"> <style type="text/css"> .st0{fill:#E6000D;} </style> <g> <g> <path d="M51.4,35.3c-2.8,0-4.9,2.1-4.9,4.8c0,2.5,1.8,4.6,4.9,4.6c2.6,0,4.7-2,4.7-4.8C56.1,37.6,54.5,35.3,51.4,35.3z M51.6,44.4 c-2.7,0-3.7-2.6-3.7-4.6c0-3,1.8-4,3.3-4c2.6,0,3.6,2.4,3.6,4.7C54.8,43.1,53.2,44.4,51.6,44.4z"></path> <path d="M86.7,44c0,0-0.1,0.1-0.2,0.1c-0.1,0-0.2,0.1-0.3,0.1c-0.5,0-0.5-0.6-0.5-1.2v-2.4c0-1.1-0.4-1.6-1.4-1.6 c-1.6,0-2.5,1-2.5,1.7c0,0.1,0.1,0.2,0.2,0.2c0.2,0,0.6-0.1,0.8-0.3c0.1-0.1,0.1-0.2,0.1-0.5c0-0.4,0.5-0.6,0.9-0.6 c0.8,0,1,0.7,0.9,1.2v0.6c0,0.2,0,0.4-0.2,0.4l-1.6,0.6c-0.9,0.3-1.1,0.6-1.1,1.2c0,0.4,0.2,0.7,0.4,1c0.2,0.2,0.6,0.3,1,0.3 c0.4,0,1.1-0.1,1.6-0.7c0.1,0.5,0.7,0.7,1,0.7c0.7,0,1.1-0.5,1.2-0.6C86.8,44.1,86.8,44,86.7,44z M84.7,42.4v0.8 c0,0.3-0.1,0.5-0.3,0.7c-0.1,0.1-0.6,0.3-0.8,0.3c-0.7,0-0.9-0.6-0.9-0.8c0-0.5,0.4-0.7,1.2-1l0.8-0.2L84.7,42.4L84.7,42.4z"></path> <path d="M90.8,44c0-0.5,0.3-0.8,0.8-0.8c0.5,0,0.8,0.4,0.8,0.8c0,0.4-0.3,0.8-0.8,0.8C91.2,44.8,90.8,44.5,90.8,44z"></path> <circle cx="86.7" cy="44.1" r="0.1"></circle> <path d="M70.9,39.8c0-0.2-0.1-0.3-0.3-0.3h-0.9c-0.3,0-0.4,0-0.8-0.2C68.5,39.1,68,39,67.5,39c-1.2,0-2.2,0.9-2.2,2.1 c0,0.9,0.6,1.5,1.2,1.7c0,0-1.2,0.4-1.2,1.1c0,0.6,0.4,1,1.2,1.2c-1.5,0.7-1.4,1.7-1.4,1.7c0,0.7,0.6,1.6,2.3,1.6 c1.8,0,3.4-1.1,3.4-2.6c0-1.4-1.1-1.5-1.9-1.5c-0.6,0-1.2,0-1.6,0c-0.6,0-1-0.3-1-0.6c0-0.4,0.4-0.7,0.6-0.8c0.2,0,0.4,0,0.6,0 c1.7,0,2.3-1.2,2.3-2.2c0-0.2,0-0.5,0-0.7h0.9C70.7,40.1,70.9,39.9,70.9,39.8z M66.7,45.2c0.2-0.1,0.7-0.2,1.2-0.2h0.5 c1,0,1.6,0.4,1.6,1.2c0,0.8-0.8,1.5-2,1.5c-1.2,0-1.8-0.6-1.8-1.4C66.1,45.8,66.4,45.4,66.7,45.2z M67.6,42.5 c-0.7,0-1.2-0.6-1.2-1.6c0-0.9,0.5-1.5,1.1-1.5c0.8,0,1.2,0.8,1.2,1.7C68.8,41.9,68.4,42.5,67.6,42.5z"></path> <path d="M42.1,43.5L42.1,43.5C42.1,43.5,42.1,43.5,42.1,43.5c0-0.1-0.1-0.2-0.1-0.2c0,0-0.1,0-0.1,0h0C41.4,43.9,41,44,40.6,44 c-1.5,0-2.3-1.2-2.3-2.6c0-0.3,0-0.4,0.4-0.4h2.5h0.7c0.1,0,0.1,0,0.1-0.1h0l0,0c0,0,0,0,0,0c0-0.1,0.1-0.2,0.1-0.3 c0-0.8-0.8-1.6-1.9-1.6c-1.6,0-2.7,1.4-2.7,3.1c0,0.6,0.2,1.2,0.6,1.8c0.4,0.5,1.1,0.9,2,0.9C40.7,44.8,41.6,44.4,42.1,43.5 C42.1,43.5,42.1,43.5,42.1,43.5L42.1,43.5z M40,39.4c0.8,0,1.1,0.5,1.1,0.9c0,0,0,0.2,0,0.2c0,0.1-0.1,0.2-0.1,0.2 c-0.1,0-1.4,0-1.4,0h-1c-0.1,0-0.1,0-0.1-0.1C38.5,40.1,39.2,39.4,40,39.4z"></path> <path d="M34.2,39.5c0.8-0.4,1.4-1,1.4-1.9c0-0.9-0.5-1.4-1-1.7c-0.6-0.3-1.4-0.4-2.3-0.4c-1.2,0-2.1,0-2.8,0.1v0 c-0.1,0-0.2,0.1-0.2,0.2c0,0.1,0.1,0.2,0.2,0.2l0.3,0c0.6,0.1,0.7,0.3,0.7,1.3v5.2c0,1.4,0,1.6-0.8,1.7l-0.2,0l0,0 c-0.1,0-0.2,0.1-0.2,0.2c0,0.1,0.1,0.2,0.2,0.2c0,0,0,0,0,0c0,0,0,0,0,0h3.2c2.5,0,3.6-1.1,3.6-2.7C36.3,40.5,34.9,39.7,34.2,39.5 z M31.5,39.2v-2.8c0-0.2,0.1-0.3,0.2-0.4c0.1-0.1,0.3-0.1,0.6-0.1c1,0,2,0.5,2,1.8c0,1.3-0.8,1.7-2.1,1.7c-0.1,0-0.2,0-0.3,0h-0.5 V39.2z M32.9,44.2c-0.4,0-0.8-0.1-1.1-0.4c-0.3-0.3-0.3-1-0.3-1.5v-2v-0.4h0.8c2.2,0,2.7,1.3,2.7,2.3C35,43.6,34.1,44.2,32.9,44.2 z"></path> <path d="M60.4,39c-0.5,0-1.1,0.5-1.5,0.9v-1v0c0,0,0,0,0,0c0,0,0-0.1-0.1-0.1c0,0,0,0,0,0h0l-1.3,0.7v0c0,0-0.1,0.1-0.1,0.1 c0,0.1,0,0.1,0.1,0.1l0,0c0.4,0.3,0.4,0.4,0.4,0.9V43c0,1,0,1.1-0.5,1.2l-0.2,0l0,0c-0.1,0-0.2,0.1-0.2,0.2c0,0.1,0.1,0.2,0.2,0.2 h1h0.6h1c0.1,0,0.2-0.1,0.2-0.2c0-0.1-0.1-0.2-0.2-0.2l0,0l-0.2,0c-0.1,0-0.4,0-0.5-0.1c-0.2-0.1-0.2-0.4-0.2-1.1v-1.9 c0-0.5,0-0.9,0.2-1.1c0.1-0.2,0.3-0.3,0.5-0.3c0.2,0,0.4,0.1,0.6,0.2c0.1,0.1,0.2,0.1,0.3,0.1c0.2,0,0.6-0.2,0.6-0.6 C61,39.2,60.7,39,60.4,39z"></path> <g> <path d="M62.8,37.5c0.4,0,0.7-0.2,0.7-0.7c0-0.4-0.3-0.7-0.7-0.7c-0.4,0-0.7,0.3-0.7,0.7C62.1,37.2,62.3,37.5,62.8,37.5z"></path> <path d="M64.1,44.3L64.1,44.3l-0.2,0c-0.5-0.1-0.5-0.2-0.5-1.2v-1.3V39c0-0.1-0.1-0.1-0.1-0.1c0,0,0,0-0.1,0l0,0l-1.2,0.6h0l0,0 v0c0,0-0.1,0.1-0.1,0.1c0,0.1,0,0.1,0.1,0.1l0,0c0.4,0.2,0.5,0.4,0.5,0.9v1.1V43c0,1,0,1.1-0.5,1.2l-0.2,0l0,0 c-0.1,0-0.2,0.1-0.2,0.2c0,0.1,0.1,0.2,0.2,0.2h1h0.6h0.8c0.1,0,0.2-0.1,0.2-0.2C64.2,44.3,64.2,44.3,64.1,44.3z"></path> </g> <g> <path d="M72.7,37.5c0.4,0,0.7-0.2,0.7-0.7c0-0.4-0.3-0.7-0.7-0.7c-0.4,0-0.7,0.3-0.7,0.7C72,37.2,72.2,37.5,72.7,37.5z"></path> <path d="M74,44.3L74,44.3l-0.2,0c-0.5-0.1-0.5-0.2-0.5-1.2v-1.3V39c0-0.1-0.1-0.1-0.2-0.1c0,0,0,0-0.1,0l0,0l-1.2,0.6 c0,0,0,0,0,0l0,0v0c0,0-0.1,0.1-0.1,0.1c0,0.1,0,0.1,0.1,0.1l0,0c0.4,0.2,0.5,0.4,0.5,0.9v1.1V43c0,1,0,1.1-0.5,1.2l-0.2,0l0,0 c-0.1,0-0.2,0.1-0.2,0.2c0,0.1,0.1,0.2,0.2,0.2h1h0.6h0.8c0.1,0,0.2-0.1,0.2-0.2C74.1,44.3,74.1,44.3,74,44.3z"></path> </g> <path d="M89.9,44.3L89.9,44.3l-0.2,0c-0.5-0.1-0.5-0.2-0.5-1.2v-1.3V35c0-0.1-0.1-0.2-0.2-0.2c0,0,0,0-0.1,0l0,0l-1.2,0.6 c0,0,0,0,0,0l0,0l0,0c0,0-0.1,0.1-0.1,0.1c0,0.1,0,0.1,0.1,0.1l0,0c0.4,0.2,0.5,0.4,0.5,0.9v5.2V43c0,1,0,1.1-0.5,1.2l-0.2,0l0,0 c-0.1,0-0.2,0.1-0.2,0.2c0,0.1,0.1,0.2,0.2,0.2h1h0.6h0.8c0.1,0,0.2-0.1,0.2-0.2C90.1,44.3,90,44.3,89.9,44.3z"></path> <path d="M81,44.3L81,44.3l-0.2,0c-0.5-0.1-0.5-0.2-0.5-1.2l0,0v-2.4c0-0.9-0.5-1.7-1.6-1.7c-0.7,0-1.6,0.4-2.1,0.8V39 c0-0.1-0.1-0.1-0.1-0.1c0,0,0,0-0.1,0l0,0l-1.2,0.6c0,0,0,0,0,0l0,0v0c0,0-0.1,0.1-0.1,0.1c0,0.1,0,0.1,0.1,0.1l0,0 c0.4,0.2,0.5,0.4,0.5,0.9V43l0,0c0,1,0,1.1-0.5,1.2l-0.2,0l0,0c-0.1,0-0.2,0.1-0.2,0.2c0,0.1,0.1,0.2,0.2,0.2h1h0.6h0.8 c0.1,0,0.2-0.1,0.2-0.2c0-0.1-0.1-0.2-0.2-0.2l0,0l-0.2,0c-0.5-0.1-0.5-0.2-0.5-1.2v-1.3l0,0V41c0-0.4,0-0.6,0.2-0.8 c0.2-0.3,0.6-0.5,1.2-0.5c0.9,0,1.3,0.6,1.3,1.4v0.8l0,0V43c0,1,0,1.1-0.5,1.2l-0.2,0l0,0c-0.1,0-0.2,0.1-0.2,0.2 c0,0.1,0.1,0.2,0.2,0.2h1h0.6H81c0.1,0,0.2-0.1,0.2-0.2C81.2,44.3,81.1,44.3,81,44.3z"></path> </g> <g> <polyline class="st0" points="43.3,17.6 34,17.6 34,12.2 29.2,12.2 29.2,26.3 34,26.3 34,20.6 43.3,20.6 43.3,26.3 48.1,26.3 48.1,12.2 43.3,12.2 43.3,17.6 "></polyline> <path class="st0" d="M57.6,12.2L49,26.3h3.7l1.8-2.9h9.9l1.7,2.9h5.9l-8.6-14.1H57.6z M56.1,20.6l3.3-5.5l3.2,5.5H56.1"></path> <path class="st0" d="M91,18.3c1.1-1.5,1-3.7-1.2-4.9c-2-1.2-6-1.6-8.4-1.6c-3.9,0-6.4,0.3-8.6,0.6v13.9h4.8V14.5 c1.7-0.3,3.5-0.3,4.1-0.3c1.9,0.1,3,0.4,3.8,1c0.9,0.6,1.1,2,0,3c-0.9,0.7-2.6,1.3-6.5,0.7l-0.5,0.9l7.4,6.6h6.5l-6.6-5.7 C87.4,20.4,89.8,19.8,91,18.3"></path> <path class="st0" d="M18.7,17.1c-2.8-0.5-5.1-0.9-5.1-1.8c0-1,1.9-1.3,4.6-1c2.6,0.3,5,0.9,7.2,1.9l1.7-2.8 c-1.8-0.7-5.6-1.6-8.9-1.7c-3.7-0.1-10,0.2-10.3,4c-0.2,3.4,4.7,4.3,7.9,5c3.1,0.7,6.1,1,6.1,2.1c0,0.8-1,1.4-3.8,1.2 c-3.3-0.2-6.1-1.2-8.9-2.5l-1.9,3.1c3.1,1.2,7.2,2.2,10.9,2.3c4.4,0.1,9.3-0.6,9.4-4.4C27.6,19.3,24.4,18.2,18.7,17.1"></path> <path class="st0" d="M110.7,13.4c-2-1.2-5.6-1.6-8.4-1.6c-3.9,0-6.4,0.3-8.6,0.6v13.9h4.8v-5.1c1.5,0.2,3.3,0.4,4.9,0.4 c3.9,0,6.8-1,8.2-2.4C113.5,17.1,112.8,14.7,110.7,13.4z M106.5,18.2c-0.8,0.7-2,0.9-4,0.9c-1.4,0-2.9-0.3-4.1-0.5v-4.1 c1.7-0.3,3.5-0.3,4.2-0.3c1.9,0.1,3,0.4,3.9,1C107.4,15.8,107.6,17.2,106.5,18.2"></path> </g> </g> </svg> 