<?xml version="1.0" encoding="UTF-8"?> <svg xmlns="http://www.w3.org/2000/svg" xmlns:xlink="http://www.w3.org/1999/xlink" version="1.1" id="图层_1" x="0px" y="0px" viewBox="0 0 120 60" style="enable-background:new 0 0 120 60;" xml:space="preserve"> <style type="text/css"> .st0{fill:#ED1C24;} .st1{fill:#FFFFFF;} </style> <g> <rect x="3" y="11.7" class="st0" width="114" height="36.7"></rect> <g> <g> <path class="st1" d="M107.2,27.1H107l-0.1-0.4c0-0.1-0.1-0.1-0.1-0.2c-0.1,0-0.1-0.1-0.2-0.1h-0.3v0.6h-0.2v-1.3h0.6 c0.1,0,0.2,0,0.3,0c0.1,0,0.1,0.1,0.2,0.1c0,0.1,0.1,0.1,0.1,0.2c0,0.1,0,0.2-0.1,0.2c-0.1,0.1-0.1,0.1-0.2,0.1l0,0 c0.1,0,0.2,0.1,0.2,0.3L107.2,27.1z M106.3,26.5h0.4c0.1,0,0.2,0,0.3-0.1c0.1,0,0.1-0.1,0.1-0.2c0-0.2-0.1-0.2-0.3-0.2h-0.4 L106.3,26.5L106.3,26.5z"></path> <g> <path class="st1" d="M106.6,25.3c-0.7,0-1.1,0.6-1.1,1.1c0,0.7,0.6,1.1,1.1,1.1c0.7,0,1.1-0.6,1.1-1.1 C107.7,25.9,107.2,25.3,106.6,25.3z M106.6,27.5c-0.6,0-1-0.5-1-0.9c0-0.6,0.5-1,1-1c0.6,0,0.9,0.5,0.9,1 C107.5,27.1,107.1,27.5,106.6,27.5z"></path> </g> </g> <g> <path class="st1" d="M36.6,34.3h-8.4c0,0-2,0-2-2v-6.6h10.4V27h-6.9v2.6h6.6v1.2h-6.6v1.9c0,0.5,0.5,0.5,0.5,0.5h6.5V34.3z"></path> <path class="st1" d="M71.2,31.4c0,2.5-1.8,3.1-5.6,3.1c-3.4,0-4.8-1.2-4.8-3.1v-5.7h1.5v5.4c0,1.3,0.9,2,2.7,2 c1.7,0,2.7-0.2,2.7-1.6v-5.8h3.4L71.2,31.4L71.2,31.4z"></path> <path class="st1" d="M48.7,29.8v-1.6c0-1-0.6-2.4-2.5-2.4H38v8.5h3.5v-2.6h2.9l1,2.2c0,0,0.2,0.4,0.8,0.4h2.8l-1.5-2.7 C48.2,31.3,48.7,30.6,48.7,29.8z M45.2,29.7c0,0.8-0.9,0.9-0.9,0.9h-2.9v-3.5h2.9c0.9,0,0.9,0.9,0.9,0.9V29.7z"></path> <path class="st1" d="M59.7,25.7v1.1c-0.2,0-1.4-0.3-2.8-0.2c-2.8,0.1-3.4,0.9-3.4,3.4c0,3.3,2.4,3.1,4,3.1c0.8,0,1.6-0.1,2.5-0.3 v1.3c-1,0.2-1.9,0.2-2.9,0.2c-5.7,0-7.2-0.9-7.2-4.6c0-4.3,2.9-4.5,6.7-4.5C56.9,25.5,58.3,25.5,59.7,25.7z"></path> <path class="st1" d="M24.8,34.3h-3.2V29l-2.8,5.3h-1.4c0,0-0.4,0-0.7-0.5l-2.9-5.3v5.7h-1.4v-8.5h2.5c1,0,1.4,0.8,1.4,0.8 l2.6,4.8l2.9-5.5h3.1V34.3z"></path> <polygon class="st1" points="94.3,25.8 89.7,31.5 89.7,34.3 86.4,34.3 86.4,31.5 82.4,25.8 84.4,25.8 87.5,30.1 90.6,25.8 "></polygon> <path class="st1" d="M82.3,32.5c0,1-0.3,2.2-4.8,2.2c-3.1,0-4.8-0.3-4.8-0.3l-0.2-1.5c0,0,2.8,0.2,3.5,0.2 c2.2,0.1,2.8,0.1,2.8-0.2c0.1-0.3,0.1-0.4-2.7-1.5c-3.1-1.4-4-2-4-3.1v-0.5c0-1.9,2.7-2.3,5.1-2.3c3,0,4.8,0.4,4.8,0.4v1.4 c0,0-2.1-0.2-3.9-0.2c-1.4,0-2.5,0-2.7,0.4c-0.1,0.3,0.1,0.5,0.7,0.7c5.1,2.3,6.1,2.8,6.1,3.8C82.3,32,82.3,32.3,82.3,32.5z"></path> <path class="st1" d="M104.1,32.5c0,1-0.3,2.2-4.8,2.2c-3.1,0-4.8-0.3-4.8-0.3l-0.2-1.5c0,0,2.9,0.2,3.5,0.2 c2.2,0.1,2.8,0.1,2.8-0.2c0.1-0.3,0.1-0.4-2.7-1.5c-3.1-1.4-4-2-4-3.1v-0.5c0-1.9,2.7-2.3,5.1-2.3c3,0,4.8,0.4,4.8,0.4v1.4 c0,0-2.1-0.2-3.9-0.2c-1.4,0-2.5,0-2.7,0.4c-0.1,0.3,0.1,0.5,0.7,0.7c5.1,2.3,6.1,2.8,6.1,3.8C104.1,32,104.1,32.3,104.1,32.5z"></path> </g> </g> </g> </svg> 