<?xml version="1.0" encoding="UTF-8"?> <svg xmlns="http://www.w3.org/2000/svg" xmlns:xlink="http://www.w3.org/1999/xlink" version="1.1" id="Layer_1" x="0px" y="0px" viewBox="0 0 120 60" style="enable-background:new 0 0 120 60;" xml:space="preserve"> <style type="text/css"> .st0{fill:#F05125;} .st1{fill:#80BB42;} .st2{fill:#787878;} .st3{fill:#FFFFFF;} .st4{fill:#33A0DA;} .st5{fill:#FDB813;} </style> <g> <path class="st0" d="M10,21.5h10.2c0,3.4,0,6.8,0,10.2c-3.4,0-6.8,0-10.2,0V21.5L10,21.5z"></path> <path class="st1" d="M21.2,21.5h10.2c0,3.4,0,6.8,0,10.2c-3.4,0-6.8,0-10.2,0C21.2,28.2,21.2,24.8,21.2,21.5L21.2,21.5z"></path> <path class="st2" d="M101.6,25.3c0.9-0.6,2.1-0.7,3.2-0.4c0,0.6,0,1.3,0,1.9c-0.5-0.2-1.1-0.4-1.6-0.1c-0.4,0.2-0.7,0.6-0.7,1 c-0.1,0.5,0,1.1,0,1.6c1.1,0,2.1,0,3.2,0c0-0.7,0-1.4,0-2.1c0.7-0.2,1.4-0.4,2.2-0.7c0,0.9,0,1.8,0,2.8c0.7,0,1.4,0,2.2,0v1.8 c-0.7,0-1.5,0-2.2,0c0,1,0,2.1,0,3.1c0,0.6,0,1.1,0,1.7c0,0.3,0.2,0.7,0.5,0.9c0.5,0.3,1.2,0.2,1.7-0.2v1.8c-0.6,0.3-1.3,0.4-2,0.3 c-0.6,0-1.3-0.3-1.7-0.8c-0.5-0.6-0.6-1.4-0.6-2.1c0-1.6,0-3.1,0-4.7c-1.1,0-2.1,0-3.2,0c0,2.5,0,4.9,0,7.4c-0.7,0-1.5,0-2.2,0 c0-2.5,0-4.9,0-7.4c-0.5,0-1,0-1.5,0c0-0.6,0-1.2,0-1.8c0.5,0,1,0,1.5,0c0-0.8-0.1-1.6,0.2-2.3C100.6,26.3,101,25.7,101.6,25.3 L101.6,25.3z"></path> <path class="st2" d="M54.6,25.5c0.4-0.1,0.9,0.1,1.2,0.4c0.3,0.4,0.4,1,0.2,1.4c-0.3,0.5-0.9,0.7-1.5,0.6c-0.6-0.1-1-0.6-1-1.2 C53.4,26.1,54,25.5,54.6,25.5L54.6,25.5z"></path> <path class="st2" d="M37.7,25.7c1.1,0,2.1,0,3.2,0c1,2.5,2,5,3,7.6c0.3,0.6,0.5,1.3,0.8,1.9c1.3-3.2,2.6-6.3,3.8-9.5c1,0,2,0,3.1,0 c0,4.3,0,8.5,0,12.8c-0.7,0-1.5,0-2.2,0c0-3.2,0-6.3,0-9.5c0-0.1,0-0.3,0-0.4c0,0.1-0.1,0.1-0.1,0.2c-1.3,3.2-2.6,6.4-3.8,9.7 c-0.5,0-1.1,0-1.6,0c-1.3-3.2-2.6-6.5-3.9-9.7c0-0.1-0.1-0.1-0.1-0.2c0,1.4,0,2.8,0,4.1c0,1.9,0,3.8,0,5.7c-0.7,0-1.4,0-2.1,0 C37.7,34.3,37.7,30,37.7,25.7L37.7,25.7z"></path> <path class="st2" d="M60.6,29.4c1.1-0.3,2.2-0.3,3.3,0c0.2,0.1,0.4,0.1,0.6,0.3c0,0.7,0,1.4,0,2.1c-0.7-0.5-1.6-0.9-2.5-0.8 c-0.7,0.1-1.4,0.4-1.8,1c-0.5,0.7-0.7,1.7-0.6,2.5c0.1,0.7,0.4,1.4,0.9,1.8c0.6,0.5,1.3,0.7,2.1,0.6c0.7-0.1,1.4-0.4,2-0.8 c0,0.7,0,1.3,0,2c-0.9,0.5-2,0.7-3,0.6c-1.1-0.1-2.1-0.5-2.9-1.2c-0.8-0.8-1.3-1.9-1.3-3.1c-0.1-1.2,0.2-2.4,0.9-3.4 C58.7,30.2,59.6,29.6,60.6,29.4L60.6,29.4z"></path> <path class="st2" d="M75.5,29.2c1.1-0.1,2.2-0.1,3.1,0.4c0.8,0.4,1.5,1.1,1.9,1.9c0.4,0.9,0.5,1.9,0.4,2.9c-0.1,1-0.4,1.9-1,2.7 c-0.6,0.8-1.5,1.4-2.5,1.6c-0.8,0.2-1.7,0.2-2.6,0c-1-0.2-1.9-0.8-2.5-1.7c-0.7-1-0.9-2.2-0.8-3.4c0.1-1,0.4-2,1-2.8 C73.3,29.9,74.4,29.3,75.5,29.2L75.5,29.2z"></path> <path class="st2" d="M84.6,29.2c1-0.2,2.1,0,3,0.3c0,0.7,0,1.3,0,2c-0.7-0.5-1.5-0.7-2.3-0.7c-0.4,0-0.9,0.2-1,0.6 c-0.1,0.4,0,0.9,0.3,1.1c0.6,0.4,1.4,0.6,2,1c0.5,0.3,1,0.7,1.3,1.2c0.5,1,0.3,2.3-0.6,3.1c-0.8,0.8-2,1-3.1,0.9 c-0.8,0-1.5-0.2-2.2-0.5c0-0.7,0-1.4,0-2.1c0.6,0.4,1.3,0.7,2,0.9c0.5,0.1,1,0.1,1.5-0.1c0.4-0.2,0.5-0.9,0.3-1.2 c-0.2-0.3-0.6-0.5-1-0.6c-0.6-0.3-1.3-0.5-1.9-1c-0.4-0.3-0.7-0.8-0.8-1.2c-0.2-0.7-0.1-1.6,0.3-2.2C82.9,29.8,83.8,29.4,84.6,29.2 L84.6,29.2z"></path> <path class="st2" d="M93,29.2c1.1-0.1,2.3-0.1,3.3,0.4c0.9,0.4,1.5,1.2,1.9,2.1c0.3,0.7,0.4,1.5,0.3,2.2c0,1.1-0.3,2.2-1,3.1 c-0.7,0.9-1.6,1.4-2.7,1.6c-1,0.2-2.1,0.1-3.1-0.3c-1-0.4-1.8-1.2-2.2-2.2c-0.4-1-0.5-2.1-0.3-3.2c0.1-1.1,0.6-2.1,1.4-2.8 C91.3,29.6,92.1,29.3,93,29.2L93,29.2z"></path> <path class="st2" d="M69.4,29.5c0.6-0.4,1.4-0.4,2-0.2c0,0.7,0,1.5,0,2.2c-0.4-0.3-1-0.4-1.5-0.3c-0.6,0.1-1.1,0.5-1.4,1.1 c-0.3,0.6-0.3,1.2-0.3,1.9c0,1.5,0,2.9,0,4.4c-0.7,0-1.4,0-2.2,0c0-3.1,0-6.1,0-9.2c0.7,0,1.4,0,2.2,0c0,0.5,0,1.1,0,1.6 C68.5,30.4,68.9,29.8,69.4,29.5L69.4,29.5z"></path> <path class="st2" d="M53.7,29.4c0.7,0,1.5,0,2.2,0c0,3.1,0,6.1,0,9.2c-0.7,0-1.5,0-2.2,0C53.7,35.5,53.7,32.4,53.7,29.4L53.7,29.4z "></path> <path class="st3" d="M76.2,30.9c0.7,0,1.4,0.1,1.8,0.6c0.5,0.5,0.7,1.2,0.8,1.9c0,0.8,0,1.5-0.3,2.2c-0.2,0.5-0.6,0.9-1.1,1.1 c-0.6,0.2-1.2,0.2-1.8,0.1c-0.6-0.2-1.1-0.6-1.4-1.1c-0.4-0.7-0.4-1.5-0.3-2.3c0.1-0.7,0.3-1.4,0.8-1.9 C75.1,31.1,75.6,31,76.2,30.9L76.2,30.9z"></path> <path class="st3" d="M93.6,30.9c0.6,0,1.3,0.1,1.8,0.5c0.4,0.4,0.7,0.9,0.8,1.5c0.1,0.6,0.1,1.3,0,2c-0.1,0.5-0.3,1-0.6,1.3 c-0.3,0.4-0.8,0.6-1.3,0.7c-0.5,0.1-1.1,0-1.6-0.2c-0.5-0.2-0.9-0.7-1.2-1.2c-0.3-0.6-0.3-1.3-0.3-2c0.1-0.7,0.2-1.3,0.7-1.8 C92.4,31.2,93,31,93.6,30.9L93.6,30.9z"></path> <path class="st3" d="M107.8,31.1c0.7,0,1.5,0,2.2,0v5.5c-0.5,0.3-1.1,0.5-1.7,0.2c-0.3-0.2-0.4-0.5-0.5-0.9c-0.1-0.6,0-1.1,0-1.7 C107.8,33.2,107.8,32.2,107.8,31.1L107.8,31.1z"></path> <path class="st4" d="M10,32.7c3.4,0,6.8,0,10.2,0c0,3.4,0,6.8,0,10.2H10V32.7L10,32.7z"></path> <path class="st5" d="M21.2,32.7c3.4,0,6.8,0,10.2,0c0,3.4,0,6.8,0,10.2H21.2C21.2,39.4,21.2,36,21.2,32.7L21.2,32.7z"></path> </g> </svg> 