<?xml version="1.0" encoding="UTF-8"?> <svg xmlns="http://www.w3.org/2000/svg" xmlns:xlink="http://www.w3.org/1999/xlink" version="1.1" id="Layer_1" x="0px" y="0px" viewBox="0 0 120 60" style="enable-background:new 0 0 120 60;" xml:space="preserve"> <style type="text/css"> .st0{fill-rule:evenodd;clip-rule:evenodd;fill:#ED1C24;} </style> <g> <path class="st0" d="M34.1,10.9c-0.9,0-1.6,0.7-1.6,1.6c0,0.9,0.7,1.6,1.6,1.6c0.9,0,1.6-0.7,1.6-1.6 C35.7,11.6,34.9,10.9,34.1,10.9"></path> <path class="st0" d="M54.8,14.9h-2.2V28h2.2c0,0,0-6.7,0-7.3c0-1.8,1-3.5,3.3-4.2v-2c-1.1,0.1-2.9,1-3.3,1.9V14.9L54.8,14.9z"></path> <path class="st0" d="M44,26.2c-2.6,0-4.8-2.2-4.8-4.8s2.2-4.8,4.8-4.8c1.8,0,3.5,1,4.3,2.6h2.3c-0.9-2.8-3.5-4.7-6.6-4.7 c-3.8,0-6.9,3.1-6.9,6.9s3.1,7,6.9,7c3.1,0,5.7-2.1,6.6-4.9h-2.3C47.5,25.1,45.8,26.2,44,26.2"></path> <path class="st0" d="M25.9,14.7c-1,0-1.9,0.2-2.6,0.5c-0.7,0.4-1.4,0.9-1.9,1.6c-0.5-0.7-1-1.1-1.7-1.5c-0.7-0.4-1.6-0.7-2.5-0.7 s-2.2,0.3-3.1,1v-0.8h-2.1V28H14v-8.1c0-0.7,0.2-1.4,0.8-2.1c0.5-0.6,1.4-1.1,2.4-1c0.7,0,1.6,0.3,2.3,1c0.5,0.6,0.8,1.3,0.8,2.2v8 h2.2v-8.1c0-0.3,0.1-1.1,0.7-1.9c0.5-0.6,1.3-1.2,2.5-1.2c1,0,1.7,0.4,2.2,0.9c0.4,0.4,0.9,1.1,0.9,2.2v8h2.2v-8 c0-1.5-0.5-2.7-1.4-3.7C28.5,15.4,27.2,14.7,25.9,14.7"></path> <rect x="33" y="14.9" class="st0" width="2.2" height="13.1"></rect> <path class="st0" d="M101.2,26.2c-2.6,0-4.8-2.2-4.8-4.8s2.2-4.8,4.8-4.8c2.6,0,4.8,2.1,4.8,4.8S103.9,26.2,101.2,26.2 M101.2,14.5 c-1.9,0-3.6,0.7-4.8,1.9v-5.8h-2.2v10.8v0c0,0,0,0,0,0V28h2.2v-1.6c1.2,1.2,2.9,1.9,4.8,1.9c3.8,0,6.9-3.1,6.9-7 S105,14.5,101.2,14.5z"></path> <path class="st0" d="M85.1,26.2c-2.6,0-4.8-2.2-4.8-4.8s2.2-4.8,4.8-4.8c2.6,0,4.8,2.1,4.8,4.8S87.7,26.2,85.1,26.2 M89.8,16.4 c-1.2-1.2-2.9-1.9-4.8-1.9c-3.8,0-7,3.1-7,6.9s3.1,7,7,7c1.8,0,3.5-0.7,4.8-1.9V28H92v-6.3c0-0.1,0-0.2,0-0.3c0-0.1,0-0.2,0-0.3 v-6.3h-2.2V16.4L89.8,16.4z"></path> <path class="st0" d="M65.1,26.2c-2.6,0-4.7-2.2-4.7-4.8s2.1-4.8,4.7-4.8c2.6,0,4.8,2.1,4.8,4.8C69.9,24.1,67.8,26.2,65.1,26.2 M65.1,14.5c-3.8,0-6.9,3.1-6.9,6.9s3.1,7,6.9,7c3.8,0,7-3.1,7-7C72.1,17.6,68.9,14.5,65.1,14.5z"></path> <rect x="74" y="10.6" class="st0" width="2.2" height="17.4"></rect> <path class="st0" d="M78.1,31.5l0.5-0.5c1.6,1.6,1.6,4.2,0,5.9l-0.5-0.5C79.5,35.1,79.6,32.9,78.1,31.5"></path> <path class="st0" d="M77.1,32.7l0.6-0.6c1.1,1.1,1.1,2.8,0,3.9L77,35.4C77.8,34.7,77.8,33.5,77.1,32.7"></path> <path d="M99.9,44.9v-7.8c0-0.2,0.1-0.4,0.2-0.6c0.1-0.2,0.3-0.2,0.5-0.2c0.5,0,0.8,0.3,0.8,0.8v0.3l0,0c0.6-0.8,1.5-1.2,2.5-1.2 c1,0,1.8,0.3,2.4,1c0.6,0.7,0.9,1.5,0.9,2.5v5.1c0,0.5-0.3,0.7-0.8,0.7c-0.2,0-0.4-0.1-0.5-0.2c-0.1-0.1-0.2-0.3-0.2-0.5v-5.1 c0-0.6-0.2-1.2-0.6-1.6c-0.4-0.4-0.9-0.6-1.5-0.6c-0.6,0-1.2,0.2-1.5,0.6c-0.4,0.4-0.6,1-0.6,1.6v5.1c0,0.5-0.2,0.8-0.7,0.8 c-0.2,0-0.4-0.1-0.6-0.2C100,45.4,99.9,45.2,99.9,44.9 M91.8,40.4h5.1c0-0.8-0.2-1.4-0.6-2c-0.4-0.6-1-0.9-1.8-0.9 s-1.4,0.3-1.9,0.8C92.1,39,91.8,39.7,91.8,40.4z M94.5,44.4c0.9,0,1.8-0.3,2.6-0.9c0.2-0.2,0.4-0.3,0.6-0.3c0.4,0,0.6,0.2,0.6,0.6 c0,0.1-0.1,0.3-0.3,0.5c-0.4,0.4-0.9,0.8-1.6,1c-0.6,0.2-1.2,0.3-1.9,0.3c-1.3,0-2.4-0.5-3.1-1.4c-0.7-0.9-1.1-2-1.1-3.4 c0-1.3,0.4-2.4,1.1-3.2c0.8-0.9,1.8-1.4,3.1-1.4c1.1,0,2.1,0.4,2.8,1.3c0.7,0.8,1.1,1.8,1.1,3c0,0.7-0.3,1-1,1h-5.6 c0,0.8,0.3,1.4,0.8,2C93.1,44.1,93.7,44.4,94.5,44.4z M86.8,37.7h-0.5c-0.2,0-0.4-0.1-0.5-0.2c-0.2-0.1-0.2-0.3-0.2-0.5 c0-0.3,0.1-0.5,0.4-0.6c0.1,0,0.4-0.1,0.8-0.1v-2.1c0-0.5,0.2-0.7,0.7-0.7c0.5,0,0.8,0.2,0.8,0.7v2h0.8c0.5,0,0.7,0.2,0.7,0.7 s-0.2,0.7-0.6,0.7h-0.9V45c0,0.2-0.1,0.4-0.2,0.5c-0.2,0.1-0.3,0.2-0.6,0.2c-0.5,0-0.7-0.3-0.7-0.8V37.7z M81.9,36.3 c0.5,0,1.1,0.1,1.8,0.4c0.8,0.3,1.2,0.7,1.2,1.2c0,0.2-0.1,0.3-0.2,0.5c-0.1,0.1-0.3,0.2-0.4,0.2c-0.2,0-0.5-0.2-1-0.5 c-0.5-0.3-0.9-0.5-1.3-0.5c-0.4,0-0.8,0.1-1.1,0.3c-0.4,0.2-0.6,0.5-0.6,0.9c0,0.3,0.2,0.5,0.5,0.8c0.3,0.2,1,0.5,1.9,0.9 c0.9,0.3,1.5,0.7,1.8,1c0.5,0.4,0.7,0.9,0.7,1.6c0,0.9-0.4,1.6-1.1,2c-0.6,0.4-1.4,0.7-2.3,0.7c-1.2,0-2.2-0.3-3-1 c-0.3-0.2-0.4-0.5-0.4-0.7c0-0.2,0.1-0.3,0.2-0.5c0.1-0.1,0.3-0.2,0.5-0.2c0.2,0,0.5,0.2,1.1,0.6c0.6,0.4,1.1,0.6,1.6,0.6 c0.5,0,0.9-0.1,1.3-0.3c0.4-0.2,0.6-0.6,0.6-1c0-0.4-0.1-0.7-0.4-0.9c-0.3-0.2-0.9-0.5-1.8-0.9c-0.9-0.3-1.5-0.7-1.9-0.9 c-0.5-0.4-0.8-0.9-0.8-1.6c0-0.8,0.3-1.5,1-1.9C80.3,36.5,81,36.3,81.9,36.3z M76.1,35.1c-0.2,0-0.5-0.1-0.7-0.3 c-0.2-0.2-0.3-0.4-0.3-0.7c0-0.3,0.1-0.5,0.3-0.7c0.2-0.2,0.4-0.3,0.7-0.3c0.3,0,0.5,0.1,0.7,0.3c0.2,0.2,0.3,0.4,0.3,0.7 c0,0.3-0.1,0.5-0.3,0.7C76.5,35,76.3,35.1,76.1,35.1z M75.3,44.9v-7.9c0-0.2,0.1-0.4,0.2-0.6c0.1-0.2,0.3-0.2,0.5-0.2 c0.5,0,0.8,0.3,0.8,0.8v7.9c0,0.5-0.3,0.8-0.8,0.8c-0.2,0-0.4-0.1-0.5-0.2C75.4,45.3,75.3,45.2,75.3,44.9z M71.7,44.9V33.1 c0-0.2,0.1-0.4,0.2-0.6c0.1-0.2,0.3-0.2,0.5-0.2c0.5,0,0.8,0.3,0.8,0.8v11.9c0,0.5-0.3,0.8-0.8,0.8c-0.2,0-0.4-0.1-0.5-0.2 C71.8,45.3,71.7,45.1,71.7,44.9z M62.9,37.7h-0.5c-0.2,0-0.4-0.1-0.5-0.2c-0.2-0.1-0.2-0.3-0.2-0.5c0-0.3,0.1-0.5,0.4-0.6 c0.1,0,0.4-0.1,0.8-0.1v-2.1c0-0.5,0.2-0.7,0.7-0.7c0.5,0,0.8,0.2,0.8,0.7v2h0.8c0.5,0,0.7,0.2,0.7,0.7s-0.2,0.7-0.6,0.7h-0.9V45 c0,0.2-0.1,0.4-0.2,0.5c-0.2,0.1-0.3,0.2-0.6,0.2c-0.5,0-0.7-0.3-0.7-0.8L62.9,37.7L62.9,37.7z M57.9,36.3c0.5,0,1.1,0.1,1.8,0.4 c0.8,0.3,1.2,0.7,1.2,1.2c0,0.2-0.1,0.3-0.2,0.5c-0.1,0.1-0.3,0.2-0.4,0.2c-0.2,0-0.5-0.2-1-0.5c-0.5-0.3-0.9-0.5-1.3-0.5 c-0.4,0-0.8,0.1-1.1,0.3c-0.4,0.2-0.6,0.5-0.6,0.9c0,0.3,0.2,0.5,0.5,0.8c0.3,0.2,1,0.5,1.9,0.9c0.9,0.3,1.5,0.7,1.8,1 c0.5,0.4,0.7,0.9,0.7,1.6c0,0.9-0.4,1.6-1.1,2c-0.6,0.4-1.4,0.7-2.3,0.7c-1.2,0-2.2-0.3-3-1c-0.3-0.2-0.4-0.5-0.4-0.7 c0-0.2,0.1-0.3,0.2-0.5c0.1-0.1,0.3-0.2,0.5-0.2c0.2,0,0.5,0.2,1.1,0.6c0.6,0.4,1.1,0.6,1.6,0.6c0.5,0,0.9-0.1,1.3-0.3 c0.4-0.2,0.6-0.6,0.6-1c0-0.4-0.1-0.7-0.4-0.9c-0.3-0.2-0.9-0.5-1.8-0.9c-0.9-0.3-1.5-0.7-1.9-0.9c-0.5-0.4-0.8-0.9-0.8-1.6 c0-0.8,0.3-1.5,1-1.9C56.3,36.5,57,36.3,57.9,36.3z M49.3,44.4c1.4,0,2.1-0.8,2.1-2.3v-5c0-0.5,0.3-0.8,0.8-0.8 c0.5,0,0.7,0.3,0.7,0.8v5.1c0,1.1-0.3,2-1,2.6c-0.7,0.6-1.5,1-2.7,1c-1.1,0-2-0.3-2.7-1c-0.7-0.6-1-1.5-1-2.6v-5.1 c0-0.5,0.2-0.8,0.7-0.8c0.5,0,0.8,0.3,0.8,0.8v5C47.2,43.6,47.9,44.4,49.3,44.4z M42.8,35.1c-0.2,0-0.5-0.1-0.7-0.3 c-0.2-0.2-0.3-0.4-0.3-0.7c0-0.3,0.1-0.5,0.3-0.7c0.2-0.2,0.4-0.3,0.7-0.3c0.3,0,0.5,0.1,0.7,0.3c0.2,0.2,0.3,0.4,0.3,0.7 c0,0.3-0.1,0.5-0.3,0.7C43.3,35,43.1,35.1,42.8,35.1z M42.1,48.6V37.1c0-0.2,0.1-0.4,0.2-0.6c0.1-0.2,0.3-0.2,0.5-0.2 c0.5,0,0.8,0.3,0.8,0.8v11.5c0,0.5-0.3,0.8-0.8,0.8c-0.2,0-0.4-0.1-0.5-0.2C42.2,49,42.1,48.8,42.1,48.6z"></path> </g> </svg> 