<?xml version="1.0" encoding="UTF-8"?> <svg xmlns="http://www.w3.org/2000/svg" xmlns:xlink="http://www.w3.org/1999/xlink" version="1.1" id="Layer_1" x="0px" y="0px" viewBox="0 0 120 60" style="enable-background:new 0 0 120 60;" xml:space="preserve"> <style type="text/css"> .st0{fill:#676867;} .st1{fill-rule:evenodd;clip-rule:evenodd;fill:#676867;} </style> <g> <polygon class="st0" points="15.4,25.8 11.3,41.5 13.1,41.5 16.6,27.1 16.7,27.1 19.7,41.5 21.5,41.5 31.9,27.3 32,27.3 28.1,41.5 29.9,41.5 33.9,25.8 31.3,25.8 21,39.9 18,25.8 "></polygon> <polygon class="st0" points="35.6,30.2 32.7,41.5 34.3,41.5 37.3,30.2 "></polygon> <polygon class="st0" points="39.6,30.2 36.7,41.5 38.4,41.5 39.5,37.4 42.4,35.4 46,41.5 47.8,41.5 43.7,34.5 50.1,30.2 47.9,30.2 39.9,35.7 39.9,35.6 41.3,30.2 "></polygon> <path class="st1" d="M51.1,30.2l-2.9,11.3h1.7l1.5-5.9c0.6-2.1,2.1-4.1,5.1-4.2c0.3,0,0.6,0,0.9,0l0.4-1.4c-0.3,0-0.6,0-0.9,0 c-2.4,0-3.9,1.1-4.9,2.8h-0.1l0.7-2.6L51.1,30.2z"></path> <path class="st1" d="M69.3,34.3c0-2.8-2.2-4.4-5.4-4.4c-4.9,0-7.6,3.6-7.6,7.3c0,2.8,1.9,4.7,5.4,4.7 C66.8,41.8,69.3,38.1,69.3,34.3 M67.6,34.6c0,2.6-1.9,6.1-5.6,6.1c-2.8,0-4.1-1.5-4.1-3.7c0-2.7,2-6,5.6-6 C66.3,31,67.6,32.4,67.6,34.6"></path> <polygon class="st1" points="85.2,30.1 86.3,25.8 70.1,25.8 69,30.2 74.2,30.2 74.2,30.2 80,30.2 80,30.2 "></polygon> <polygon class="st1" points="73.7,32.2 71.4,41.5 77.2,41.5 79.5,32.2 79.5,32.2 73.7,32.2 "></polygon> <path class="st1" d="M86.2,32.2l-2.3,9.3h5.2l2.3-9.3H86.2z M91.9,30.1l1.1-4.3h-5.2l-1.1,4.3L91.9,30.1z"></path> <polygon class="st1" points="95.2,25.8 91.3,41.5 96.5,41.5 97.3,38.2 98.5,37.4 100.3,41.5 106,41.5 102.5,34.7 108.7,30.1 102.4,30.1 98.6,33.4 98.5,33.4 100.4,25.8 "></polygon> <path class="st1" d="M37.8,18.2c0.6,4.4,3,7.1,7.9,7.3C41.1,27.3,36.4,23.2,37.8,18.2"></path> <path class="st1" d="M35.3,19C35.4,18.9,35.4,19,35.3,19c0.2,2.9,1.4,5,3,6.5S42,28.1,45,28C39.4,30.3,33.5,24.9,35.3,19"></path> </g> </svg> 