<?xml version="1.0" encoding="UTF-8"?> <svg xmlns="http://www.w3.org/2000/svg" xmlns:xlink="http://www.w3.org/1999/xlink" version="1.1" id="Layer_1" x="0px" y="0px" viewBox="0 0 120 60" style="enable-background:new 0 0 120 60;" xml:space="preserve"> <g> <g> <path d="M45.7,23.6c-2.6,0-4.7,1.2-6,3.3c-1.3-2.1-3.5-3.3-6-3.3c-4.3,0-7.4,3.3-7.4,8v11.9h2.7V32c0-2.8,1.2-5.8,4.7-5.8 c3.2,0,4.7,2.7,4.7,5.3v12H41v-12c0-2.6,1.4-5.3,4.7-5.3c3.4,0,4.6,3,4.6,5.8v11.5H53V31.6C53,27,49.9,23.6,45.7,23.6z"></path> <path d="M63.8,41c-0.9,0-1.2-0.3-1.2-1.2V23.9h-2.7V40c0,2.6,2,3.5,3.9,3.5h0.4l0-2.5H63.8z"></path> <path d="M85.9,41c-0.9,0-1.2-0.3-1.2-1.2V20c0-2.6-2-3.5-3.9-3.5h-0.4l0,2.5h0.4c0.9,0,1.2,0.3,1.2,1.2V40c0,2.6,2,3.5,3.9,3.5 h0.4V41H85.9z"></path> <path d="M75.2,41c-0.9,0-1.2-0.3-1.2-1.2V20c0-2.6-2-3.5-3.9-3.5h-0.4l0,2.5h0.4c0.9,0,1.2,0.3,1.2,1.2V40c0,2.6,2,3.5,3.9,3.5 h0.4V41H75.2z"></path> <path d="M61.3,21c1.1,0,2-0.9,2-2c0-1.1-0.9-2-2-2c-1.1,0-2,0.9-2,2S60.2,21,61.3,21z"></path> </g> <g> <g> <path d="M91.9,20.8c-1.1,0-1.9-0.9-1.9-2c0-1.1,0.8-2,1.9-2s1.9,0.9,1.9,2C93.8,20,93,20.8,91.9,20.8z M91.9,17.3 c-0.9,0-1.5,0.7-1.5,1.6c0,0.9,0.6,1.6,1.5,1.6c0.9,0,1.5-0.7,1.5-1.6C93.4,18,92.8,17.3,91.9,17.3z M92.4,20.1l-0.6-1h-0.3v1 h-0.4v-2.4h0.7c0.6,0,0.8,0.3,0.8,0.7c0,0.3-0.1,0.6-0.5,0.7l0.6,1L92.4,20.1L92.4,20.1z M91.8,18h-0.3v0.7h0.3 c0.4,0,0.5-0.2,0.5-0.4C92.3,18.2,92.3,18,91.8,18z"></path> </g> </g> </g> </svg> 