<?xml version="1.0" encoding="UTF-8"?> <svg xmlns="http://www.w3.org/2000/svg" xmlns:xlink="http://www.w3.org/1999/xlink" version="1.1" id="Layer_1" x="0px" y="0px" viewBox="0 0 120 60" style="enable-background:new 0 0 120 60;" xml:space="preserve"> <style type="text/css"> .st0{fill:#7F8080;} .st1{fill:#F7902A;} .st2{fill:#FFFFFF;} </style> <g> <path class="st0" d="M85.2,47.1h-2.3V48h2.2c1.1,0,1.4,0.4,1.4,1.4h-2.5c-1.5,0.1-2.4,1-2.4,2.3c0,1.4,1.1,2.4,2.5,2.4 c1.5,0,2.1-0.8,2.4-1.1V54h1.1v-4.4C87.6,48,86.7,47.1,85.2,47.1 M84.4,53.2c-1.1,0-1.6-0.7-1.6-1.5c0-0.9,0.6-1.3,1.7-1.3h2.2v0.4 C86.6,52.1,85.6,53.2,84.4,53.2"></path> <path class="st0" d="M47.2,46.9c-2,0-3.5,1.6-3.5,3.6c0,2.1,1.5,3.6,3.5,3.6c2,0,3.5-1.5,3.5-3.6C50.7,48.5,49.2,46.9,47.2,46.9 M47.2,53.2c-1.4,0-2.5-1.1-2.5-2.7s1-2.7,2.5-2.7c1.4,0,2.5,1.1,2.5,2.7C49.7,52.1,48.6,53.2,47.2,53.2"></path> <path class="st0" d="M60,46.9c-2,0-3.5,1.6-3.5,3.6c0,2.1,1.5,3.6,3.5,3.6c2,0,3.5-1.5,3.5-3.6C63.6,48.5,62,46.9,60,46.9 M60,53.2 c-1.4,0-2.5-1.1-2.5-2.7s1-2.7,2.5-2.7c1.4,0,2.5,1.1,2.5,2.7C62.5,52.1,61.5,53.2,60,53.2"></path> <path class="st0" d="M73.9,46.9c-2,0-3.5,1.6-3.5,3.6c0,2.1,1.5,3.6,3.5,3.6c2,0,3.6-1.5,3.6-3.6C77.5,48.5,76,46.9,73.9,46.9 M73.9,53.2c-1.4,0-2.5-1.1-2.5-2.7s1.1-2.7,2.5-2.7c1.4,0,2.5,1.1,2.5,2.7C76.4,52.1,75.4,53.2,73.9,53.2"></path> <rect x="79.1" y="44.3" class="st0" width="1.1" height="9.7"></rect> <path class="st0" d="M69.6,47.2c-0.1-0.1-0.6-0.3-1-0.3h0c-1.1,0-1.8,0.4-2.2,1v-0.9h-1.1V54h1.1v-4.4c0.2-1,1.3-1.6,2-1.6 c0,0,0,0,0.1,0c0.4,0,0.7,0.1,0.9,0.2l0.1,0L69.6,47.2L69.6,47.2z"></path> <path class="st0" d="M55.2,48v-0.9h-1.3v-2.8h-1.1v2.8h-1.1V48h1.1v4.5c0,1,0.5,1.5,1.6,1.5c0.2,0,0.5,0,0.7,0h0.1v-0.9h-0.1 c-0.1,0-0.2,0-0.3,0c-0.5,0-0.9,0-0.9-0.6V48H55.2z"></path> <path class="st0" d="M39.6,46.9c-0.9,0-1.6,0.4-2.2,1.1c-0.4-0.7-1.1-1.1-2-1.1c-0.7,0-1.3,0.2-1.9,0.7v-0.5h-1.1V54h1.1v-5.2 c0.6-0.6,1.1-0.9,1.8-0.9c0.9,0,1.4,0.6,1.4,1.5V54h1v-4.5c0-0.2,0-0.4,0-0.5c0.6-0.7,1.2-1,1.9-1c0.9,0,1.4,0.6,1.4,1.5V54h1v-4.5 C41.9,47.8,41.1,46.9,39.6,46.9"></path> <path class="st1" d="M76.8,22.2c0,9-7.3,16.4-16.4,16.4s-16.4-7.3-16.4-16.4c0-9,7.3-16.4,16.4-16.4C69.5,5.8,76.8,13.2,76.8,22.2"></path> <path class="st2" d="M71,29.9L65,10.4l-4.6,15.2l0,0l0,0l-4.6-15.2l-5.9,19.5H51c0,0,0.8-3.4,2-5.4c0.7-1.1,1.7-2,3-2 c1,0,1.8,0.6,2.8,2c0.6,0.9,1.6,3.1,1.6,3.1s1-2.2,1.6-3.1c1-1.4,1.9-2,2.8-2c1.3,0,2.4,0.9,3,2c1.2,2,2,5.4,2,5.4H71L71,29.9z"></path> </g> </svg> 