<?xml version="1.0" encoding="UTF-8"?> <svg xmlns="http://www.w3.org/2000/svg" xmlns:xlink="http://www.w3.org/1999/xlink" version="1.1" id="Layer_1" x="0px" y="0px" viewBox="0 0 120 60" style="enable-background:new 0 0 120 60;" xml:space="preserve"> <style type="text/css"> .st0{fill:#202322;} .st1{filter:url(#Adobe_OpacityMaskFilter);} .st2{fill-rule:evenodd;clip-rule:evenodd;fill:#FFFFFF;} .st3{mask:url(#b_00000008148622926591220470000007300649587924341888_);fill-rule:evenodd;clip-rule:evenodd;fill:#202322;} .st4{filter:url(#Adobe_OpacityMaskFilter_00000109010499940447830850000014427524669967730057_);} .st5{mask:url(#d_00000165941164532086574860000014685399378830264720_);fill-rule:evenodd;clip-rule:evenodd;fill:#202322;} .st6{fill-rule:evenodd;clip-rule:evenodd;fill:#202322;} </style> <g> <path class="st0" d="M113.7,24.3h-0.2v-0.5h0.2c0.2,0,0.4,0,0.4,0.3C114,24.3,113.9,24.3,113.7,24.3z M114.6,24 c0-0.5-0.5-0.6-0.8-0.6H113v1.9h0.5v-0.8h0.2l0.3,0.8h0.6l-0.4-0.8C114.4,24.5,114.6,24.3,114.6,24L114.6,24z"></path> <path class="st0" d="M113.7,25.9c-0.8,0-1.5-0.6-1.5-1.4c0-0.8,0.7-1.4,1.5-1.4c0.8,0,1.5,0.6,1.5,1.4 C115.2,25.3,114.5,25.9,113.7,25.9L113.7,25.9z M113.7,22.7c-0.9,0-1.8,0.7-1.8,1.7c0,1,0.9,1.8,1.8,1.8c0.9,0,1.8-0.7,1.8-1.8 C115.5,23.4,114.7,22.7,113.7,22.7L113.7,22.7z M103.8,29.3h-1v-3.6h1.1c1.3,0,2.4,0.2,2.4,1.8C106.4,29,105.2,29.3,103.8,29.3z M110.4,27.2c0-3.1-2.3-4.5-5.3-4.5h-6.2v14.5h4v-5.6h0.3l3.6,5.6h4.8l-4.6-6C109.2,30.9,110.4,29.2,110.4,27.2z M87,31.7l1.7-5.1 h0.1l1.7,5.1H87z M86.4,22.7l-5.4,14.5h4.1l0.9-2.7h5.3l0.9,2.7h4.1L91,22.7L86.4,22.7L86.4,22.7z"></path> <g transform="translate(60.531)"> <defs> <filter id="Adobe_OpacityMaskFilter" filterUnits="userSpaceOnUse" x="8.4" y="22.7" width="9.7" height="14.5"> <feColorMatrix type="matrix" values="1 0 0 0 0 0 1 0 0 0 0 0 1 0 0 0 0 0 1 0"></feColorMatrix> </filter> </defs> <mask maskUnits="userSpaceOnUse" x="8.4" y="22.7" width="9.7" height="14.5" id="b_00000008148622926591220470000007300649587924341888_"> <g class="st1"> <path id="a_00000059996676882047345190000002481743481240341159_" class="st2" d="M-10.9,22.3h29v15.5h-29V22.3z"></path> </g> </mask> <path class="st3" d="M8.4,37.3h9.7v-3.2h-5.7v-2.5h5.5v-3.2h-5.5v-2.4h5.7v-3.2H8.4L8.4,37.3"></path> </g> <g transform="translate(60.531)"> <defs> <filter id="Adobe_OpacityMaskFilter_00000010293364742962070880000004153540001924380554_" filterUnits="userSpaceOnUse" x="-10.9" y="22.3" width="15.8" height="15.5"> <feColorMatrix type="matrix" values="1 0 0 0 0 0 1 0 0 0 0 0 1 0 0 0 0 0 1 0"></feColorMatrix> </filter> </defs> <mask maskUnits="userSpaceOnUse" x="-10.9" y="22.3" width="15.8" height="15.5" id="d_00000165941164532086574860000014685399378830264720_"> <g style="filter:url(#Adobe_OpacityMaskFilter_00000010293364742962070880000004153540001924380554_);"> <path id="c_00000158734031722565130300000003025733576187603123_" class="st2" d="M-10.9,22.3h29v15.5h-29V22.3z"></path> </g> </mask> <path class="st5" d="M-2.9,32.1h3.1c-0.2,1.7-1.4,2.5-3.1,2.5c-2.6,0-3.9-2.3-3.9-4.5c0-2.2,1.1-4.6,3.8-4.6 c1.6,0,2.8,0.9,3.3,2.3l3.8-1.5c-1.3-2.7-3.8-4.1-6.9-4.1c-4.9,0-8.1,3.1-8.1,7.8c0,4.6,3.2,7.7,8,7.7c2.6,0,4.7-0.9,6.2-2.9 c1.4-1.8,1.5-3.6,1.6-5.7h-7.8L-2.9,32.1"></path> </g> <path class="st6" d="M36.2,25.9h3.9v11.3h4V25.9H48v-3.2H36.2V25.9 M23.8,37.3h9.7v-3.2h-5.7v-2.5h5.5v-3.2h-5.5v-2.4h5.7v-3.2 h-9.7V37.3 M15.1,31.6L15.1,31.6l-6.6-8.9h-4v14.5h4v-8.9h0l6.6,8.9h4V22.7h-4V31.6"></path> </g> </svg> 