<?xml version="1.0" encoding="UTF-8"?> <svg xmlns="http://www.w3.org/2000/svg" xmlns:xlink="http://www.w3.org/1999/xlink" version="1.1" id="Laag_1" x="0px" y="0px" viewBox="0 0 120 60" style="enable-background:new 0 0 120 60;" xml:space="preserve"> <style type="text/css"> .st0{fill:#808285;} </style> <g> <g> <g> <g> <path class="st0" d="M22.4,23.4l-6.7-10.5h-5.6v20.5h5.6V23l7,10.4h5.5V12.9h-5.9V23.4z M72.6,23.9l-3.5-11h-5.7l6.4,20.4h5.5 l6.6-20.4h-5.7L72.6,23.9z M96.2,19.8l-3.5-6.9H87l6.3,12.7v7.8h5.9v-7.6l6.3-12.9h-5.5L96.2,19.8z M53.4,13H41 c-1.9,0-4.1,20.5-1,20.5h14.6C57.6,33.5,55.7,13,53.4,13 M50.3,27.8h-6.1c-0.9,0,0-8.9,0.5-8.9h5C50.3,18.8,51.3,27.8,50.3,27.8 M109.9,14.2c-0.1-0.2-0.2-0.4-0.4-0.6c-0.2-0.2-0.3-0.3-0.6-0.4c-0.2-0.1-0.4-0.1-0.7-0.1c-0.3,0-0.6,0.1-0.9,0.2 c-0.3,0.2-0.5,0.4-0.6,0.6c-0.2,0.3-0.2,0.6-0.2,0.9c0,0.3,0.1,0.6,0.2,0.9c0.2,0.3,0.4,0.5,0.6,0.6c0.3,0.2,0.6,0.2,0.9,0.2 s0.6-0.1,0.9-0.2c0.3-0.1,0.5-0.4,0.6-0.6c0.2-0.3,0.2-0.6,0.2-0.9C110,14.6,110,14.4,109.9,14.2 M109.5,15.5 c-0.1,0.2-0.3,0.4-0.5,0.5c-0.2,0.1-0.4,0.2-0.7,0.2c-0.3,0-0.5-0.1-0.7-0.2c-0.2-0.1-0.4-0.3-0.5-0.5c-0.1-0.2-0.2-0.4-0.2-0.7 c0-0.2,0.1-0.5,0.2-0.7c0.1-0.2,0.3-0.4,0.5-0.5c0.2-0.1,0.4-0.2,0.7-0.2c0.3,0,0.5,0.1,0.7,0.2c0.2,0.1,0.4,0.3,0.5,0.5 c0.1,0.2,0.2,0.4,0.2,0.7C109.7,15.1,109.6,15.3,109.5,15.5 M108.7,15.1c0-0.1-0.1-0.1-0.2-0.1c0.2,0,0.3-0.1,0.4-0.2 c0.1-0.1,0.1-0.2,0.1-0.3c0-0.1,0-0.2-0.1-0.3c-0.1-0.1-0.1-0.1-0.2-0.2c-0.1,0-0.2-0.1-0.3-0.1h-0.9v1.8h0.4V15h0.1 c0.1,0,0.1,0,0.2,0c0.1,0,0.1,0.1,0.1,0.1c0.1,0.1,0.1,0.2,0.2,0.3l0.2,0.3h0.5l-0.2-0.4C108.8,15.2,108.7,15.1,108.7,15.1 M108.2,14.7h-0.3v-0.5h0.3c0.1,0,0.2,0,0.3,0.1c0.1,0,0.1,0.1,0.1,0.2c0,0.1,0,0.2-0.1,0.2C108.4,14.7,108.3,14.7,108.2,14.7"></path> </g> </g> </g> <g> <path class="st0" d="M10,46.9v-7h0.7v7H10z"></path> <path class="st0" d="M17,46.9l-4.1-6.1v6.1h-0.7v-7h0.7l4.2,6c0,0-0.1-5.9-0.1-6h0.7v7H17z"></path> <path class="st0" d="M23.4,41.6c-0.1-0.2-0.1-0.4-0.3-0.6c-0.2-0.3-0.7-0.7-1.5-0.7c-1.2,0-1.7,0.7-1.7,1.3c0,0.9,0.8,1.1,1.5,1.3 l0.7,0.2c1.3,0.3,2.1,0.9,2.1,2c0,0.4-0.1,1.1-0.9,1.6c-0.3,0.2-0.8,0.5-1.8,0.5c-1.3,0-2.3-0.6-2.6-2l0.7-0.3 c0,0.4,0.1,0.6,0.2,0.8c0.2,0.4,0.7,0.9,1.8,0.9c1.3,0,1.9-0.7,1.9-1.5c0-0.8-0.5-1.1-1.5-1.4l-0.8-0.2c-0.8-0.2-1.9-0.6-1.9-1.9 c0-1,0.7-1.8,2.3-1.8c1,0,2,0.3,2.4,1.5L23.4,41.6z"></path> <path class="st0" d="M28.1,39.9c1.2,0,1.6,0.1,2,0.6c0.2,0.2,0.5,0.7,0.5,1.4c0,0.4-0.1,0.9-0.4,1.3c-0.5,0.6-1.2,0.7-2.4,0.7 h-1.9v3.2h-0.6v-7H28.1z M25.9,43.2h2.5c0.9,0,1.6-0.3,1.6-1.4c0-0.1,0-0.5-0.2-0.8c-0.3-0.5-0.9-0.6-1.4-0.6h-2.4 C25.9,40.4,25.9,43.2,25.9,43.2z"></path> <path class="st0" d="M31.5,46.9v-7h0.7v7H31.5z"></path> <path class="st0" d="M36.5,39.9c0.8,0,1.5,0.1,2,0.7c0.2,0.3,0.5,0.8,0.5,1.3c0,1.2-1,1.9-2.1,1.9l2.3,3.1h-0.8l-2.2-3.1h-1.6v3.1 h-0.7v-7H36.5z M34.5,43.2h2.1c0.8,0,1.7-0.2,1.7-1.4c0-0.1,0-0.5-0.2-0.8c-0.3-0.5-0.9-0.6-1.5-0.6h-2.2L34.5,43.2L34.5,43.2z"></path> <path class="st0" d="M40.2,46.9v-7h4.6v0.6h-3.9V43h3.6v0.6h-3.6v2.7h4.2v0.6C45.1,46.9,40.2,46.9,40.2,46.9z"></path> <path class="st0" d="M48.3,39.9c0.9,0,1.7,0,2.4,0.8c0.4,0.4,0.9,1.3,0.9,2.7c0,0.4,0,1.7-0.9,2.7c-0.1,0.1-0.4,0.5-0.9,0.6 c-0.5,0.2-0.9,0.2-1.9,0.2h-1.8v-7H48.3z M46.8,46.3h1.1c0.9,0,1.5,0,1.9-0.2c0.9-0.4,1.3-1.7,1.3-2.7c0-0.7-0.2-2.3-1.4-2.8 c-0.4-0.1-0.7-0.1-1.5-0.1h-1.2L46.8,46.3L46.8,46.3z"></path> <path class="st0" d="M58.7,39.9c0.5,0,1.2,0.1,1.7,0.7c0.3,0.4,0.3,0.9,0.3,1c0,0.6-0.3,1.4-1.3,1.5c1,0.2,1.5,0.8,1.5,1.8 c0,0.3-0.1,1.2-1,1.7c-0.5,0.3-1,0.3-1.6,0.3h-2.9v-7H58.7z M56.2,42.9h2.3c1.2,0,1.6-0.6,1.6-1.2c0-0.1,0-0.4-0.2-0.7 c-0.3-0.5-0.9-0.5-1.4-0.5h-2.2L56.2,42.9L56.2,42.9z M58.7,46.3c1,0,1.6-0.4,1.6-1.4c0-0.3-0.1-0.9-0.7-1.3 c-0.4-0.3-0.9-0.3-1.4-0.3h-2v2.9H58.7z"></path> <path class="st0" d="M64.6,44v2.9h-0.7V44l-2.6-4.1h0.8l2.2,3.5l2.3-3.5h0.8L64.6,44z"></path> <path class="st0" d="M76.5,47.1l-0.9-0.8c-0.3,0.3-0.9,0.8-2.1,0.8c-2.3,0-3.1-2.1-3.1-3.6c0-2.1,1.1-3.8,3.1-3.8 c2.2,0,3,2.1,3,3.6c0,0.4,0,1.4-0.6,2.4l0.9,0.9L76.5,47.1z M73.6,40.3c-1.9,0-2.4,1.9-2.4,3.2c0,0.9,0.3,3.1,2.4,3.1 c1.5,0,2.4-1.2,2.4-3.1C75.9,42.4,75.6,40.3,73.6,40.3z"></path> <path class="st0" d="M83.2,44.3c0,1.6-0.6,2.8-2.6,2.8c-0.7,0-2.6-0.2-2.6-2.7v-4.6h0.7v4.7c0,1.6,1.2,1.9,2,1.9c1.3,0,2-0.6,2-2 v-4.6h0.7V44.3z"></path> <path class="st0" d="M89.3,46.9l-0.8-2.1h-3.2l-0.8,2.1h-0.7l2.9-7h0.6l2.8,7H89.3z M86.9,40.7l-1.4,3.6h2.7L86.9,40.7z"></path> <path class="st0" d="M91,46.9v-7h0.7v6.4h3.9v0.6H91z"></path> <path class="st0" d="M96.5,46.9v-7h0.7v7H96.5z"></path> <path class="st0" d="M101,40.5v6.5h-0.7v-6.5h-2.2v-0.6h5.1v0.6H101z"></path> <path class="st0" d="M107.1,44v2.9h-0.7V44l-2.6-4.1h0.8l2.2,3.5l2.3-3.5h0.8L107.1,44z"></path> </g> </g> </svg> 