<?xml version="1.0" encoding="UTF-8"?> <svg xmlns="http://www.w3.org/2000/svg" xmlns:xlink="http://www.w3.org/1999/xlink" version="1.1" id="Layer_1" x="0px" y="0px" viewBox="0 0 120 60" style="enable-background:new 0 0 120 60;" xml:space="preserve"> <style type="text/css"> .st0{fill:#FDCA40;} </style> <g> <path d="M23.1,27.5c0-0.3,0.2-0.5,0.5-0.5h0.7L35,37.4l0,0v-9.6c0-0.3,0.2-0.5,0.5-0.5c0,0,0,0,0,0h3.2c0.3,0,0.5,0.2,0.5,0.5V46 c0,0.3-0.2,0.5-0.5,0.5h-0.5c-0.1,0-0.2-0.1-0.3-0.1L27.3,35.6l0,0v10.1c0,0.3-0.2,0.5-0.5,0.5h-3.2c-0.3,0-0.5-0.2-0.5-0.5V27.5z"></path> <path d="M47.1,27.8c0-0.3,0.2-0.5,0.5-0.5h3.3c0.3,0,0.5,0.2,0.5,0.5v10.9c0,1.8,1.5,3.3,3.3,3.3c1.8,0,3.3-1.5,3.3-3.3V27.8 c0-0.3,0.2-0.5,0.5-0.5h3.3c0.3,0,0.5,0.2,0.5,0.5V39c-0.1,4.2-3.7,7.6-7.9,7.5c-4.1-0.1-7.3-3.4-7.5-7.5L47.1,27.8L47.1,27.8z"></path> <path d="M70.4,28c0-0.4,0.3-0.7,0.7-0.7h3.2c0.4,0,0.7,0.3,0.7,0.7V35l6-7.5c0.1-0.2,0.3-0.2,0.5-0.3h3.4c0.4,0,0.6,0.4,0.6,0.7 c0,0.1,0,0.2-0.1,0.3l-6.3,7.9l6.9,8.9c0.2,0.3,0.1,0.7-0.2,0.9c-0.1,0.1-0.2,0.1-0.3,0.1h-3.7c-0.2,0-0.4-0.1-0.5-0.2l-6.2-8.4v8 c0,0.4-0.3,0.7-0.7,0.7H71c-0.4,0-0.7-0.3-0.7-0.7L70.4,28L70.4,28z"></path> <path d="M92,27.8c0-0.3,0.2-0.5,0.5-0.5h3.2c0.3,0,0.5,0.2,0.5,0.5v17.9c0,0.3-0.2,0.5-0.5,0.5h-3.2c-0.3,0-0.5-0.2-0.5-0.5V27.8z"></path> <path class="st0" d="M91.4,16.4c0-1.5,1.2-2.8,2.7-2.8c0,0,0.1,0,0.1,0c1.5,0,2.8,1.2,2.8,2.8s-1.2,2.8-2.8,2.8c0,0,0,0,0,0 C92.6,19.1,91.4,17.9,91.4,16.4C91.4,16.4,91.4,16.4,91.4,16.4z"></path> </g> </svg> 