<?xml version="1.0" encoding="UTF-8"?> <svg xmlns="http://www.w3.org/2000/svg" xmlns:xlink="http://www.w3.org/1999/xlink" version="1.1" id="Layer_1" x="0px" y="0px" viewBox="0 0 120 60" style="enable-background:new 0 0 120 60;" xml:space="preserve"> <g> <path d="M35.5,31.8c0-3.4,2.1-5.9,5.5-5.9c3.3,0,5.5,2.5,5.5,5.9c0,3.4-2.1,5.9-5.5,5.9C37.6,37.7,35.5,35.2,35.5,31.8z M44,31.8 c0-2.3-1-4-3.1-4c-2.1,0-3.1,1.8-3.1,4c0,2.3,1.1,4,3.1,4C43,35.8,44,34.1,44,31.8z M48.3,37.5h2.3v-5.9c0-0.8-0.1-2-0.1-2h0 c0,0,0.4,1,0.8,1.6l3.9,6.3h2.2V26.1h-2.3v5.9c0,0.8,0.1,2,0.1,2h0c0,0-0.4-1-0.8-1.6l-3.8-6.3h-2.3V37.5z M60.1,37.5h8.4v-1.9 h-6.1v-3.1h5.3v-1.9h-5.3v-2.5h6v-1.9h-8.3V37.5z M70.7,26.1h5c1.3,0,2.3,0.4,3,1.1c0.6,0.6,1,1.5,1,2.6c0,2.1-1.4,3.6-3.8,3.6 h-2.8v4.1h-2.4V26.1z M73.1,31.5h2.4c1.2,0,1.8-0.7,1.8-1.7c0-1.1-0.7-1.7-1.8-1.7h-2.4V31.5z M81.4,37.5H89v-1.9h-5.3v-9.4h-2.3 V37.5z M90.2,33.8c0,2.5,1.5,3.8,4.5,3.8c2.9,0,4.4-1.4,4.4-3.8v-7.7h-2.3v7.7c0,1.2-0.7,2-2.1,2c-1.5,0-2.1-0.8-2.1-2v-7.7h-2.3 V33.8z M100.7,34c0.1,2.4,1.8,3.8,4.9,3.8c2.6,0,4.4-1.3,4.4-3.6c0-2.4-1.9-3-4.2-3.5c-1.7-0.4-2.5-0.6-2.5-1.6 c0-0.8,0.8-1.3,2-1.3c1.2,0,2.1,0.6,2.2,1.7h2.2c-0.2-2.3-1.8-3.5-4.4-3.5c-2.5,0-4.3,1.2-4.3,3.4c0,2.4,1.9,2.9,3.9,3.4 c1.7,0.4,2.8,0.6,2.8,1.7c0,1-1,1.5-2.2,1.5c-1.6,0-2.4-0.5-2.6-1.9H100.7z M10,22.1v19.3h19.3v-11h-2.1v8.9h-15v-15H21v-2.1H10z M27.2,18.5v3.6h-3.6v2.1h3.6v3.6h2.1v-3.6h3.6v-2.1h-3.6v-3.6H27.2z M21,36.4V27h-1.9c0,0.6-0.2,1.1-0.6,1.4 c-0.3,0.3-0.9,0.4-1.5,0.4h-0.2v1.6h2v6H21z"></path> </g> </svg> 