<?xml version="1.0" encoding="UTF-8"?> <svg xmlns:inkscape="http://www.inkscape.org/namespaces/inkscape" xmlns:cc="http://web.resource.org/cc/" xmlns:dc="http://purl.org/dc/elements/1.1/" xmlns:sodipodi="http://sodipodi.sourceforge.net/DTD/sodipodi-0.dtd" xmlns:rdf="http://www.w3.org/1999/02/22-rdf-syntax-ns#" xmlns:svg="http://www.w3.org/2000/svg" xmlns="http://www.w3.org/2000/svg" xmlns:xlink="http://www.w3.org/1999/xlink" version="1.1" id="svg24499" x="0px" y="0px" viewBox="0 0 120 60" style="enable-background:new 0 0 120 60;" xml:space="preserve"> <style type="text/css"> .st0{fill:#231F20;} </style> <g id="layer1" transform="translate(374.9204,-408.833)" inkscape:groupmode="layer" inkscape:label="Ebene 1"> <g id="g24516" transform="translate(-1.494141e-6,7.088289)"> <path id="path23367" class="st0" d="M-368.3,439.8v-16.4h6.9c2.3,0,4.6,0.1,6.1,2.2c0.4,0.6,1,1.7,1,3.5c0,2.3-1,3.6-1.7,4.3 c-1.2,1.2-2.9,1.3-4.5,1.4h-3v5H-368.3z M-361.6,431.1c0.8,0,1.7-0.1,2.3-0.7c0.2-0.2,0.4-0.5,0.4-1.1c0-0.6-0.3-0.9-0.4-1.1 c-0.7-0.8-1.8-0.7-2.8-0.7h-1.3v3.5L-361.6,431.1"></path> <path id="path23369" class="st0" d="M-346.4,439.8l-0.2-1.1c-0.6,0.5-1.8,1.4-3.8,1.4c-0.4,0-1.9,0-2.9-0.9 c-0.5-0.4-1.2-1.3-1.2-2.9c0-0.4,0.1-1,0.7-1.8c0.9-1.1,1.9-1.4,3.2-1.7l2.2-0.3c0.2-0.1,0.5-0.1,0.8-0.2c0.1,0,0.4-0.1,0.6-0.2 c0.2-0.1,0.3-0.7,0.3-0.9c0-0.5-0.6-0.8-1.5-0.8c-0.8,0-1.2,0.3-1.4,0.6c-0.1,0.2-0.1,0.3-0.2,0.7l-4.2,0c0.2-1,0.4-1.7,1-2.5 c0.9-1,2.2-1.5,4.8-1.5c0.5,0,2.5-0.2,4,0.8c0.6,0.4,1,0.9,1.3,1.5c0.5,1,0.3,2.2,0.3,3.2v3.3c0,2,0.1,2.4,0.5,3.6L-346.4,439.8 L-346.4,439.8z M-346.9,434.6c-0.6,0.2-1.2,0.4-1.8,0.6l-0.5,0.1c-0.2,0-0.9,0.2-0.9,1.1c0,0.4,0.2,1.1,1.1,1.1 c0.1,0,0.7-0.1,1-0.1c0.8-0.2,0.9-0.8,1.1-1L-346.9,434.6"></path> <path id="path23371" class="st0" d="M-333.9,439.8V434c0,0.7,0.2-2.3-0.4-2.6c-0.2-0.1-0.6-0.3-1.1-0.3c-0.5,0-1.1,0.3-1.3,0.8 c-0.2,0.6-0.3,1.1-0.3,2.3v5.6h-4.5v-12h4.2l0.1,1.4c0.6-0.7,1.3-1.6,3.7-1.6c1.8,0,3.2,0.6,3.8,2.5c0.1,0.5,0.2,0.9,0.2,1.9v7.9 L-333.9,439.8"></path> <path id="path23373" class="st0" d="M-309.1,431.3c-0.1-0.5-0.4-1.2-1.5-1.2c-0.5,0-0.9,0.1-1,0.3c-0.1,0-0.3,0.3-0.3,0.7 c0,0.1,0.1,0.4,0.4,0.5c0.2,0.1,0.6,0.2,1,0.3l1.8,0.5c1.2,0.3,2.3,0.5,3.2,1.4c0.4,0.4,0.7,1,0.7,1.2c0.2,0.6,0.1,1.1,0.1,1.3 c0,1.4-0.7,2.3-1.1,2.6c-0.9,0.8-2.2,1.4-4.7,1.4c-2,0-3.3-0.5-4.1-1c-1.6-1-1.7-2.7-1.8-3.2l4.3,0c0,0.4,0.1,0.7,0.4,1 c0.3,0.3,0.6,0.4,1.3,0.4c0.9,0,1.4-0.4,1.4-0.8c0,0,0-0.4-0.1-0.5c-0.2-0.3-0.8-0.5-1.6-0.7c0,0-2.5-0.5-2.7-0.6 c-0.6-0.3-2.8-0.8-2.8-3.3c0-1.4,0.7-2.2,1.1-2.6c0.8-0.7,2-1.3,4.3-1.3c0.5,0,2.6,0,4.2,1c0.4,0.3,0.8,0.7,1,1.1 c0.4,0.6,0.4,1.3,0.5,1.6L-309.1,431.3"></path> <path id="path23381" class="st0" d="M-293.8,438.5c-0.7,0.7-2.2,1.7-4.7,1.7c-0.8,0-2.9,0-4.6-1.9c-0.7-0.8-1.5-2.1-1.5-4.5 c0-0.4,0-1.3,0.4-2.4c0.9-2.6,3.3-3.8,5.8-3.8c0.7,0,2.8,0.1,4.3,1.6c0.8,0.8,1.7,2.2,1.7,4.7 C-292.2,434.5-292.2,436.9-293.8,438.5z M-297.1,431.2c-0.4-0.4-1-0.4-1.2-0.4c-0.5,0-0.9,0.3-1,0.4c-0.5,0.4-0.9,1.1-0.9,2.6 c0,1.2,0.3,3.1,1.9,3.1c0.5,0,0.9-0.1,1.2-0.5c0.4-0.4,0.8-1.2,0.8-2.6C-296.3,433.8-296.3,432-297.1,431.2"></path> <path id="path23383" class="st0" d="M-278.6,427.8h4.4v12.1h-4.4V427.8z M-278.6,423.3h4.4v3.1h-4.4V423.3z"></path> <path id="path23385" class="st0" d="M-265.8,432.4c-0.3-1.4-1-1.5-1.8-1.5c-0.6,0-0.9,0.2-1,0.4c-0.6,0.5-0.7,1.1-0.7,2.5 c0,0.1-0.1,2.1,1,2.8c0.3,0.2,0.5,0.2,0.8,0.2c0.1,0,0.5,0,0.8-0.1c0.4-0.2,0.9-0.6,1-1.6l4.2,0c0,0.3-0.2,1.2-0.6,2 c-1,2.1-3.2,3-5.4,3c-0.9,0-1.5-0.1-1.9-0.2c-1.7-0.4-3.2-1.6-3.9-3.3c-0.2-0.5-0.4-1.3-0.4-2.6c0-0.5,0-1.9,0.8-3.3 c0.1-0.2,0.5-0.8,1-1.3c1.6-1.6,4-1.6,4.6-1.6c2.2,0,3.6,0.8,4.3,1.5c0.2,0.2,0.6,0.8,1,1.5c0.3,0.6,0.4,1.1,0.5,1.8L-265.8,432.4 "></path> <path id="path23387" class="st0" d="M-316.9,436.3v-3.3c0-1,0-2.4-0.4-3.4c-0.3-0.6-0.5-1-1.1-1.4c-1.5-1-3.7-0.8-4.2-0.8 c-2.6,0-4,0.7-4.8,1.6c-0.7,0.8-0.8,1.6-1,2.5h4.2c0-0.4,0.1-0.5,0.2-0.7c0.2-0.3,0.6-0.7,1.4-0.7c0.9,0,1.5,0.5,1.5,0.9 c0,0.3,0,0.7-0.2,0.8c-0.2,0.1-0.7,0.3-0.7,0.3c-0.2,0-0.5,0.1-0.8,0.2l-2.2,0.3c-1.3,0.3-2.3,0.6-3.2,1.7 c-0.6,0.8-0.6,1.5-0.6,1.9c0,1.6,0.7,2.5,1.1,2.9c1,0.9,2.6,0.9,2.9,0.9c2,0,3.1-0.9,3.8-1.4l0.2,1.1h4.5 C-316.7,439.1-316.9,438.7-316.9,436.3z M-322.4,437.4c-0.3,0.1-0.8,0.1-0.9,0.1c-0.7,0-1.1-0.7-1.1-1.1c0-0.9,0.7-1,0.9-1.1 l0.5-0.1c0.6-0.2,1.2-0.4,1.8-0.6l0,1.5C-321.4,436.4-321.6,437.2-322.4,437.4"></path> <path id="path23389" class="st0" d="M-283.9,439.8V434c0,0.7,0.2-2.2-0.4-2.5c-0.2-0.1-0.6-0.3-1-0.3c-0.5,0-1.2,0.3-1.3,0.8 c-0.2,0.6-0.4,1-0.4,2.2l0,5.7l-4.4,0v-12h4.2l0.1,1.4c0.6-0.7,1.3-1.6,3.8-1.6c1.8,0,3.2,0.8,3.7,2.6c0.1,0.5,0.1,0.8,0.2,1.7 v7.9H-283.9"></path> </g> </g> </svg> 