<?xml version="1.0" encoding="UTF-8"?> <svg xmlns:svg="http://www.w3.org/2000/svg" xmlns="http://www.w3.org/2000/svg" xmlns:xlink="http://www.w3.org/1999/xlink" version="1.1" id="Layer_1" x="0px" y="0px" viewBox="0 0 120 60" style="enable-background:new 0 0 120 60;" xml:space="preserve"> <style type="text/css"> .st0{fill:#0081C4;} </style> <g> <path id="path3" class="st0" d="M79.8,24.6v-4.2c5.5-0.1,5.7-0.2,7.6-0.1c2.8,0.1,4.5,0.9,5.7,2.1c1.2,1.2,2.1,3,2.1,5.6 c0,1.5-1,7.1-7.7,7.4c-0.8,0.1-2.6,0-3.8,0l1.1-4.3c2.7,0.2,4.8-0.6,4.9-3.2c0.1-2.8-2.4-3.8-4.9-3.3L79.8,24.6"></path> <polyline id="polyline5" class="st0" points="84.7,39.5 79.8,39.5 79.8,23.7 84.7,23.7 84.7,39.5 "></polyline> <path id="path7" class="st0" d="M102.6,27.1l4.1,1.5c2.7,1.1,3.3,3.3,3.3,5.1c-0.1,4.4-3.5,6-6.3,6.2c-3.1,0.3-5.6-0.3-6.4-0.4 v-4.7c2.5,0.8,5.4,0.7,6.4,0.3c0.7-0.3,1.3-0.7,1.3-1.3c0-0.3-0.1-0.7-1-1.1l-3.8-1.4c-2.4-0.9-3.4-3.2-3.3-5.2 c0.2-4.1,3.5-6.2,6.8-6.1c1,0,2.4,0,4.4,0.3V25c-2.2-0.5-3.3-0.5-4.4-0.4c-1.3,0.2-1.9,0.8-1.8,1.5 C101.8,26.5,102.2,26.9,102.6,27.1"></path> <polyline id="polyline9" class="st0" points="32.7,27.5 38.1,27.5 38.1,20.4 43.1,20.4 43.1,39.5 38.1,39.5 38.1,31.8 32.7,31.8 32.7,39.5 27.8,39.5 27.8,20.4 32.7,20.4 32.7,27.5 "></polyline> <rect id="rect11" x="47.8" y="20.4" class="st0" width="5" height="19.2"></rect> <rect id="rect13" x="70" y="20.4" class="st0" width="5" height="19.2"></rect> <polyline id="polyline15" class="st0" points="62.4,35.2 67.6,35.2 67.6,39.5 57.4,39.5 57.4,20.4 62.4,20.4 62.4,35.2 "></polyline> <path id="path17" class="st0" d="M10,24.6v-4.2c5.5-0.1,5.7-0.2,7.6-0.1c2.8,0.1,4.5,0.9,5.7,2.1c1.2,1.2,2.1,3,2.1,5.6 c0,1.5-1,7.1-7.7,7.4c-0.8,0.1-2.6,0-3.7,0l1.1-4.3c2.7,0.2,4.8-0.6,4.9-3.2c0.1-2.8-2.4-3.8-4.9-3.3L10,24.6"></path> <polyline id="polyline19" class="st0" points="15,39.5 10,39.5 10,24 15,24 15,39.5 "></polyline> </g> </svg> 