<?xml version="1.0" encoding="UTF-8"?> <svg xmlns:inkscape="http://www.inkscape.org/namespaces/inkscape" xmlns:cc="http://creativecommons.org/ns#" xmlns:dc="http://purl.org/dc/elements/1.1/" xmlns:sodipodi="http://sodipodi.sourceforge.net/DTD/sodipodi-0.dtd" xmlns:rdf="http://www.w3.org/1999/02/22-rdf-syntax-ns#" xmlns:svg="http://www.w3.org/2000/svg" xmlns="http://www.w3.org/2000/svg" xmlns:xlink="http://www.w3.org/1999/xlink" version="1.1" id="svg2383" inkscape:output_extension="org.inkscape.output.svg.inkscape" sodipodi:version="0.32" x="0px" y="0px" viewBox="0 0 120 60" style="enable-background:new 0 0 120 60;" xml:space="preserve"> <style type="text/css"> .st0{fill:#FDC509;} .st1{fill:#A2CD55;} .st2{fill:#979C8F;} .st3{fill:#936BAC;} .st4{fill:#69BF7A;} .st5{fill:#EF594E;} .st6{fill:#E7891B;} .st7{fill:#0094D3;} .st8{fill:#01B4B2;} .st9{fill:#221E1F;} </style> <defs> </defs> <g> <path id="path2414" sodipodi:nodetypes="cccccccsc" class="st0" d="M12.7,35l-5-5l5-5l5-5l5,5l5,5l-5,5c-2.8,2.8-5,5-5.1,5 S15.5,37.8,12.7,35z"></path> <path id="path2412" sodipodi:nodetypes="cccccccsccccccccsc" class="st1" d="M12.7,35l-5-5l5-5l5-5l5,5l5,5l-5,5 c-2.8,2.8-5,5-5.1,5S15.5,37.8,12.7,35z M12.7,31.7l1.7-1.7l-1.7-1.7L11,26.7l-1.7,1.7L7.7,30l1.7,1.7c0.9,0.9,1.7,1.7,1.7,1.7 S11.8,32.6,12.7,31.7z"></path> <path id="path2410" sodipodi:nodetypes="cscccsscccccccsc" class="st2" d="M16,38.3c-1-1-1.7-1.7-1.7-1.7c0.1,0,0.2-0.1,1.7-1.6 l1.7-1.7l-1.7-1.7c-0.9-0.9-1.7-1.7-1.7-1.7c0,0,0,0,0,0c0,0-0.8-0.7-1.7-1.6L11,26.7l3.4-3.4l3.4-3.4l5,5l5,5l-5,5 c-2.8,2.8-5,5-5.1,5C17.7,40.1,16.9,39.3,16,38.3z"></path> <path id="path2408" sodipodi:nodetypes="cccccccccccscccsc" class="st3" d="M16.1,38.4l-1.7-1.7l3.3-3.4l3.3-3.4l-1.7-1.7l-1.7-1.7 L16,28.3L14.4,30l-1.7-1.7L11,26.7l3.3-3.4c1.8-1.8,3.3-3.4,3.4-3.4c0,0,2.3,2.3,5.1,5l5,5l-2.5,2.5c-2.2,2.2-7.5,7.5-7.6,7.5 C17.7,40,17,39.3,16.1,38.4z"></path> <path id="path2406" sodipodi:nodetypes="cccccccsccccsccccc" class="st4" d="M16.1,38.4l-1.7-1.7l5-5l5-5l1.7,1.7l1.7,1.7l-2.5,2.5 c-2.2,2.2-7.5,7.5-7.6,7.5C17.7,40,17,39.3,16.1,38.4z M12.7,28.3L11,26.7l3.3-3.4c1.8-1.8,3.3-3.4,3.4-3.4s0.8,0.7,1.7,1.7 l1.7,1.7l-3.4,3.4L14.4,30L12.7,28.3z"></path> <path id="path2404" sodipodi:nodetypes="cscccccsccccsccccc" class="st5" d="M19.4,35.1c-0.9-0.9-1.6-1.7-1.6-1.7s1.5-1.6,3.3-3.4 l3.3-3.3l1.7,1.7l1.7,1.7l-3.3,3.3c-1.8,1.8-3.4,3.3-3.4,3.3S20.3,36,19.4,35.1z M12.7,28.3L11,26.7l3.3-3.4 c1.8-1.8,3.3-3.4,3.4-3.4s0.8,0.7,1.7,1.7l1.7,1.7l-3.4,3.4L14.4,30L12.7,28.3z"></path> <path id="path2402" sodipodi:nodetypes="cscccccsccccccsccc" class="st6" d="M19.4,35.1c-0.9-0.9-1.6-1.7-1.6-1.7s1.5-1.6,3.3-3.4 l3.3-3.3l1.7,1.7l1.7,1.7l-3.3,3.3c-1.8,1.8-3.4,3.3-3.4,3.3S20.3,36,19.4,35.1z M12.7,28.3L11,26.7l1.7-1.7l1.7-1.7l1.6,1.6 c0.9,0.9,1.6,1.7,1.7,1.7c0,0-0.3,0.4-1.6,1.7L14.4,30L12.7,28.3z"></path> <path id="path2400" sodipodi:nodetypes="cscccccsc" class="st7" d="M19.4,35.1c-0.9-0.9-1.6-1.7-1.6-1.7s1.5-1.6,3.3-3.4l3.3-3.3 l1.7,1.7l1.7,1.7l-3.3,3.3c-1.8,1.8-3.4,3.3-3.4,3.3S20.3,36,19.4,35.1z"></path> <path id="path2398" sodipodi:nodetypes="cscccccsc" class="st8" d="M19.4,35.1c-0.9-0.9-1.6-1.7-1.6-1.7s0.7-0.8,1.7-1.7l1.7-1.7 l1.7,1.7l1.7,1.7L22.8,35c-0.9,0.9-1.7,1.7-1.7,1.7S20.3,36,19.4,35.1z"></path> <path id="path2396" class="st9" d="M48,38c-1.7-0.2-3.2-1-4.2-2.3c-1.2-1.5-1.6-3.5-1.3-5.4c0.4-1.9,1.7-3.6,3.4-4.4 c2.2-1,4.8-0.8,6.7,0.5c0.4,0.3,1.1,0.9,1.4,1.3c1.5,1.9,1.8,4.6,0.7,6.8c-0.9,2-2.8,3.3-5.1,3.6C49.4,38.1,48.5,38.1,48,38z M49.8,35.4c1.5-0.4,2.5-1.9,2.5-3.6c0-2.1-1.3-3.6-3.1-3.7c-2.1-0.1-3.7,1.6-3.6,4c0.1,1.8,1.2,3.2,2.7,3.5 C48.7,35.5,49.4,35.5,49.8,35.4z M64.6,38c-0.7-0.1-1.3-0.3-1.8-0.6c-0.4-0.2-1-0.9-1.3-1.3c-0.5-0.9-0.7-2-0.4-3.1 c0.4-1.5,1.6-2.6,3.5-2.9c0.6-0.1,1.1-0.1,3-0.1l1.8,0v-0.2c0-0.4-0.2-0.9-0.6-1.2c-0.3-0.3-0.7-0.5-1.1-0.6 c-0.8-0.2-1.8-0.2-2.7,0.1c-0.6,0.2-1.5,0.6-2.4,1.1l-0.4,0.2v-1.5c0-1.4,0-1.5,0.1-1.6c0,0,0.3-0.1,0.7-0.2c1.1-0.4,2-0.6,3-0.7 c2.2-0.2,4,0.4,5.1,1.5c0.6,0.6,1,1.3,1.3,2.4l0.1,0.4l0,4.2l0,4.2h-1.5h-1.5v-0.8c0-0.4,0-0.8,0-0.8c0,0-0.2,0.1-0.3,0.3 c-0.8,0.8-1.7,1.3-2.8,1.4C65.8,38.1,65,38.1,64.6,38z M67.2,35.3c0.5-0.2,0.9-0.4,1.2-0.7c0.4-0.4,0.6-0.7,0.7-1.2 c0.1-0.3,0.2-0.9,0.2-1.2l0-0.1l-1.8,0c-1.6,0-1.8,0-2,0.1c-1,0.2-1.5,0.8-1.5,1.7c0,0.6,0.3,1,0.8,1.3c0.4,0.2,0.6,0.2,1.3,0.2 C66.8,35.4,66.9,35.4,67.2,35.3z M86.5,38.1c-2.4-0.3-4.4-1.8-5.3-4c-1.1-2.9,0-6.2,2.6-7.8c0.9-0.5,1.9-0.9,3-0.9 c0.8-0.1,1.8,0,2.7,0.3c0.5,0.2,1.3,0.6,1.7,0.9c1.5,1,2.4,2.6,2.6,4.4c0.1,0.5,0,1.5-0.1,1.9c-0.5,2.8-2.6,4.8-5.5,5.2 C87.9,38.1,87,38.1,86.5,38.1z M88.2,35.4c0.5-0.1,1-0.5,1.4-0.9c0.4-0.5,0.8-1,0.9-1.7c0.1-0.4,0.2-1.4,0.1-1.8 c-0.2-1.5-1.2-2.6-2.5-3c-0.4-0.1-1.2-0.1-1.6,0c-1,0.3-1.8,1-2.2,2c-0.2,0.5-0.4,1.3-0.3,1.9c0.1,1.8,1.2,3.2,2.8,3.5 C87.2,35.5,87.9,35.5,88.2,35.4z M104.6,38c-2-0.3-3.5-1.4-4.4-3.2c-0.8-1.7-0.9-3.6-0.4-5.4c0.6-2,2.2-3.5,4.1-4 c0.6-0.1,0.9-0.2,1.6-0.2c0.5,0,0.7,0,1,0.1c0.9,0.2,1.6,0.6,2.4,1.3l0.4,0.3v-2.7v-2.7h1.6h1.6v8.1v8.1h-1.5h-1.5v-0.8 c0-0.4,0-0.8,0-0.8c0,0-0.2,0.1-0.4,0.3c-0.6,0.6-1.4,1-2.1,1.2C106.2,38.1,105.3,38.1,104.6,38z M106.8,35.4 c1.2-0.3,2.1-1.3,2.4-2.6c0.2-0.9,0.1-2.1-0.3-2.9c-0.6-1.2-1.7-1.9-3-1.9c-1.5,0-2.6,0.9-3.2,2.3c-0.2,0.5-0.3,1.3-0.2,1.9 c0.1,1,0.4,1.7,1.1,2.3c0.5,0.5,1,0.8,1.7,0.9C105.7,35.5,106.5,35.5,106.8,35.4z M29.6,37.9c0,0,0-3.7,0-8.1v-8.1H33 c3.6,0,3.9,0,4.7,0.2c1.3,0.3,2.3,0.7,3.1,1.5c0.4,0.4,0.7,0.8,0.9,1.3c0.8,1.6,0.7,3.8,0,5.3c-0.3,0.5-0.5,0.8-0.9,1.3 c-1,1-2.2,1.5-3.8,1.7c-0.2,0-1.1,0-2.2,0.1l-1.9,0v2.4v2.4h-1.6C30.3,37.9,29.6,37.9,29.6,37.9z M36.5,30.2 c1.5-0.3,2.4-1.2,2.5-2.7c0.1-1.6-0.7-2.7-2.3-3c-0.3-0.1-0.5-0.1-2.1-0.1l-1.8,0v3v3h1.7C35.8,30.3,36.2,30.3,36.5,30.2z M56.7,37.9c0,0,0-3.7,0-8.1v-8.1h1.6h1.6v8.1v8.1h-1.5C57.4,37.9,56.7,37.9,56.7,37.9z M74.2,37.9c0,0,0-2.8,0-6.2v-6.2h1.5h1.5 v0.8v0.8l0.3-0.3c1-0.9,1.9-1.3,3.2-1.4l0.6,0l0,1.5l0,1.5l-0.5,0c-2.3,0.1-3.3,0.9-3.5,2.7c0,0.2,0,1.6,0,3.6v3.3h-1.5 C74.9,37.9,74.2,37.9,74.2,37.9z M95.1,31.7v-6.2h1.5h1.5v6.2v6.2h-1.5h-1.5V31.7z M95.1,22.9v-1.3h1.6h1.6v1.3v1.3h-1.6h-1.6V22.9 z"></path> </g> </svg> 