<?xml version="1.0" encoding="UTF-8"?> <svg xmlns="http://www.w3.org/2000/svg" xmlns:xlink="http://www.w3.org/1999/xlink" version="1.1" id="Livello_1" x="0px" y="0px" viewBox="0 0 120 60" style="enable-background:new 0 0 120 60;" xml:space="preserve"> <style type="text/css"> .st0{fill:#FFFFFF;} .st1{fill:#706F6F;} .st2{fill:#E32119;} </style> <g> <path class="st0" d="M19.9,27.9c-1.1,0-2,0.9-2,2c0,1.1,0.9,2,2,2c1.1,0,2-0.9,2-2C22,28.9,21.1,27.9,19.9,27.9"></path> <path class="st0" d="M19.9,38.2c-4.5,0-8.3-3.7-8.3-8.3c0-3.2,1.9-6,4.5-7.4c1.1-0.6,2.4-0.9,3.7-0.9c1.3,0,2.6,0.3,3.7,0.9 c2.7,1.4,4.6,4.2,4.6,7.4C28.2,34.5,24.5,38.2,19.9,38.2 M28.9,23.9c-0.7-0.2-1.4-0.5-1.9-1c-0.5-0.5-0.9-1.2-1-1.9 c-0.7-0.5-1.5-0.9-2.3-1.2c-0.5-0.2-1.1-0.3-1.6-0.5C21.4,19.7,20.7,20,20,20c-0.8,0-1.5-0.2-2.1-0.6c-0.6,0.1-1.1,0.3-1.6,0.5 c-0.8,0.3-1.6,0.7-2.3,1.2c-0.2,0.7-0.5,1.4-1,1.9c-0.5,0.5-1.2,0.9-1.9,1c-0.8,1.2-1.4,2.5-1.6,4C9.7,28.5,10,29.2,10,30 S9.7,31.5,9.3,32c0.3,1.5,0.8,2.8,1.6,4c0.7,0.2,1.4,0.5,1.9,1c0.5,0.5,0.9,1.2,1,1.9c1.2,0.8,2.5,1.4,4,1.6 c0.6-0.4,1.3-0.6,2.1-0.6c0.8,0,1.5,0.2,2.1,0.6c1.4-0.3,2.8-0.9,3.9-1.6c0.2-0.7,0.5-1.4,1-1.9c0.5-0.5,1.2-0.9,1.9-1 c0.8-1.2,1.4-2.5,1.6-4c-0.4-0.6-0.6-1.3-0.6-2.1c0-0.8,0.2-1.5,0.6-2.1C30.3,26.4,29.7,25.1,28.9,23.9"></path> <path class="st0" d="M19.9,33.7c-1.8,0-3.2-1.2-3.6-2.9h-0.8v-1.6h0.7h0.1c0.4-1.6,1.8-2.9,3.6-2.9c2,0,3.7,1.6,3.7,3.7 C23.6,32,22,33.7,19.9,33.7 M23.6,24.4c-1.1-0.7-2.3-1.1-3.7-1.1c-1.4,0-2.6,0.4-3.7,1.1c-1.8,1.2-3,3.2-3,5.5c0,3.7,3,6.7,6.7,6.7 c3.7,0,6.7-3,6.7-6.7C26.6,27.6,25.4,25.6,23.6,24.4"></path> <g> <path class="st1" d="M30.5,32c-0.3,1.5-0.8,2.8-1.6,4c-0.7,0.2-1.4,0.5-1.9,1c-0.5,0.5-0.9,1.2-1,1.9c-1.2,0.8-2.5,1.4-4,1.6 c-0.6-0.4-1.3-0.6-2.1-0.6c-0.8,0-1.5,0.2-2.1,0.6c-1.5-0.3-2.8-0.9-3.9-1.6c-0.2-0.7-0.5-1.4-1-1.9c-0.5-0.5-1.2-0.9-1.9-1 c-0.8-1.2-1.4-2.5-1.6-4C9.7,31.5,10,30.7,10,30c0-0.8-0.2-1.5-0.6-2.1c0.3-1.5,0.8-2.8,1.6-4c0.7-0.2,1.4-0.5,1.9-1 c0.5-0.5,0.9-1.2,1-1.9c0.7-0.5,1.5-0.9,2.3-1.2c0.5-0.2,1.1-0.3,1.6-0.5c0.6,0.4,1.3,0.6,2.1,0.6s1.5-0.2,2.1-0.6 c0.6,0.1,1.1,0.3,1.6,0.5c0.8,0.3,1.6,0.7,2.3,1.2c0.2,0.7,0.5,1.4,1,1.9c0.5,0.5,1.2,0.9,1.9,1c0.8,1.2,1.4,2.5,1.6,4 c-0.4,0.6-0.6,1.3-0.6,2.1S30.1,31.5,30.5,32 M31.5,18.1h-23c-0.2,0-0.3,0.2-0.3,0.3v23.1c0,0.2,0.2,0.3,0.3,0.3h23.1 c0.2,0,0.3-0.2,0.3-0.3V18.4C31.8,18.2,31.6,18.1,31.5,18.1"></path> <path class="st1" d="M19.9,36.6c-3.7,0-6.7-3-6.7-6.7c0-2.3,1.2-4.4,3-5.5c1.1-0.7,2.3-1.1,3.7-1.1c1.4,0,2.6,0.4,3.7,1.1 c1.8,1.2,3,3.2,3,5.5C26.6,33.6,23.6,36.6,19.9,36.6 M23.6,22.5c-1.1-0.6-2.4-0.9-3.7-0.9c-1.3,0-2.6,0.3-3.7,0.9 c-2.7,1.4-4.5,4.2-4.5,7.4c0,4.5,3.7,8.3,8.3,8.3s8.3-3.7,8.3-8.3C28.2,26.7,26.3,23.9,23.6,22.5"></path> <path class="st1" d="M19.9,32c-1.1,0-2-0.9-2-2c0-1.1,0.9-2,2-2c1.1,0,2,0.9,2,2C22,31.1,21.1,32,19.9,32 M19.9,26.3 c-1.8,0-3.2,1.2-3.6,2.9h-0.1h-0.7v1.6h0.8c0.4,1.6,1.8,2.9,3.6,2.9c2,0,3.7-1.6,3.7-3.7C23.6,27.9,22,26.3,19.9,26.3"></path> </g> <path class="st1" d="M109.9,19.6v0.6h0.2c0.1,0,0.3,0,0.3-0.3c0-0.3-0.2-0.3-0.3-0.3H109.9z M110.3,19.3c0.4,0,0.7,0.2,0.7,0.6 c0,0.2,0,0.3-0.3,0.5c0.2,0.1,0.3,0.2,0.3,0.5c0,0.3,0,0.4,0.1,0.5h-0.5c0-0.1,0-0.4-0.1-0.5c0-0.1,0-0.3-0.3-0.3h-0.2v0.8h-0.5v-2 H110.3z M110.2,18.8c-0.8,0-1.4,0.6-1.4,1.4c0,0.8,0.6,1.5,1.4,1.5s1.4-0.6,1.4-1.5C111.6,19.5,111,18.8,110.2,18.8L110.2,18.8z M110.2,18.5c1,0,1.8,0.8,1.8,1.8c0,1-0.8,1.8-1.8,1.8c-1,0-1.8-0.8-1.8-1.8C108.4,19.3,109.1,18.5,110.2,18.5L110.2,18.5z"></path> <path class="st2" d="M43.9,26.3c0.8,0,1.4-0.2,1.8-0.6c0.5-0.4,0.6-0.9,0.6-1.5v0c0-0.7-0.2-1.2-0.6-1.6c-0.5-0.3-1.1-0.5-1.9-0.5 h-2.1v4.2L43.9,26.3L43.9,26.3z M37.5,18.3h6.8c1,0,1.9,0.1,2.7,0.4c0.8,0.3,1.5,0.6,2.1,1.1c0.6,0.5,1,1.1,1.3,1.8 s0.5,1.5,0.5,2.4v0c0,1-0.2,1.8-0.5,2.5c-0.3,0.7-0.8,1.3-1.4,1.8s-1.3,0.8-2.2,1.1s-1.8,0.3-2.7,0.3h-2.2v4.5h-4.4V18.3L37.5,18.3 z"></path> <path class="st2" d="M61.6,30.6c0.6,0,1.1-0.1,1.6-0.3c0.5-0.2,0.9-0.5,1.3-0.9c0.3-0.4,0.6-0.8,0.8-1.3s0.3-1.1,0.3-1.6v0 c0-0.6-0.1-1.1-0.3-1.6c-0.2-0.5-0.5-1-0.8-1.4c-0.3-0.4-0.8-0.7-1.3-1c-0.5-0.2-1.1-0.3-1.6-0.3c-0.6,0-1.1,0.1-1.6,0.3 c-0.5,0.2-0.9,0.5-1.3,0.9c-0.3,0.4-0.6,0.8-0.8,1.3c-0.2,0.5-0.3,1.1-0.3,1.6v0c0,0.6,0.1,1.1,0.3,1.6c0.2,0.5,0.5,1,0.8,1.4 c0.3,0.4,0.8,0.7,1.3,1C60.5,30.5,61.1,30.6,61.6,30.6 M61.6,34.5c-1.2,0-2.4-0.2-3.4-0.6c-1-0.4-1.9-1-2.7-1.8 c-0.8-0.7-1.3-1.6-1.8-2.6c-0.4-1-0.6-2.1-0.6-3.2v0c0-1.1,0.2-2.2,0.6-3.2c0.4-1,1-1.9,1.8-2.6c0.8-0.8,1.7-1.3,2.7-1.8 c1-0.4,2.2-0.6,3.4-0.6c1.2,0,2.4,0.2,3.4,0.6c1,0.4,1.9,1,2.7,1.8c0.8,0.7,1.3,1.6,1.8,2.6c0.4,1,0.6,2.1,0.6,3.2v0 c0,1.1-0.2,2.2-0.6,3.2c-0.4,1-1,1.9-1.8,2.6S66,33.4,65,33.8C64,34.3,62.9,34.5,61.6,34.5"></path> <polygon class="st2" points="73.5,18.3 77.9,18.3 77.9,30.3 85.6,30.3 85.6,34.2 73.5,34.2 "></polygon> <polygon class="st2" points="90,22.2 85.3,22.2 85.3,18.3 99.2,18.3 99.2,22.2 94.4,22.2 94.4,34.2 90,34.2 "></polygon> <rect x="101.8" y="18.3" class="st2" width="4.4" height="15.9"></rect> <polygon class="st1" points="37.5,39.2 38,39.2 39.4,41.1 39.4,39.2 39.9,39.2 39.9,42 39.5,42 38,40 38,42 37.5,42 "></polygon> <path class="st1" d="M43.1,40.9l-0.5-1.1l-0.5,1.1H43.1z M42.4,39.2h0.5l1.2,2.8h-0.5l-0.3-0.6H42L41.7,42h-0.5L42.4,39.2z"></path> <polygon class="st1" points="45.8,39.7 44.9,39.7 44.9,39.2 47.1,39.2 47.1,39.7 46.3,39.7 46.3,42 45.8,42 "></polygon> <path class="st1" d="M49.6,42c-0.2,0-0.3,0-0.5-0.1c-0.2,0-0.3-0.1-0.4-0.2c-0.1-0.1-0.2-0.2-0.2-0.4c0-0.2-0.1-0.3-0.1-0.5v-1.6 h0.5v1.6c0,0.3,0.1,0.5,0.2,0.6c0.1,0.1,0.3,0.2,0.5,0.2c0.2,0,0.4-0.1,0.5-0.2c0.1-0.1,0.2-0.3,0.2-0.6v-1.6h0.5v1.6 c0,0.2,0,0.4-0.1,0.5c0,0.2-0.2,0.3-0.2,0.4c-0.1,0.1-0.2,0.2-0.4,0.2C50,42,49.8,42,49.6,42"></path> <path class="st1" d="M53.6,40.6c0.2,0,0.3,0,0.4-0.1c0.1-0.1,0.2-0.2,0.2-0.3l0,0c0-0.2,0-0.3-0.2-0.3c-0.1-0.1-0.2-0.1-0.4-0.1 h-0.7v0.9H53.6L53.6,40.6z M52.4,39.2h1.2c0.2,0,0.3,0,0.5,0.1c0.1,0,0.2,0.1,0.3,0.2c0.1,0.1,0.1,0.2,0.2,0.3 c0,0.1,0.1,0.2,0.1,0.3l0,0c0,0.1,0,0.2,0,0.3c0,0.1-0.1,0.2-0.2,0.2c-0.1,0.1-0.1,0.1-0.2,0.2c-0.1,0-0.2,0.1-0.3,0.1l0.7,1h-0.6 l-0.7-1l0,0h-0.6v1h-0.5V39.2L52.4,39.2z"></path> <path class="st1" d="M57.9,40.9l-0.5-1.1L57,40.9H57.9z M57.2,39.2h0.5l1.2,2.8h-0.5l-0.3-0.6h-1.3L56.6,42h-0.5L57.2,39.2z"></path> <polygon class="st1" points="60.2,39.2 60.7,39.2 60.7,41.5 62.2,41.5 62.2,42 60.2,42 "></polygon> <polygon class="st1" points="65.7,39.2 66.1,39.2 66.1,40.4 67.5,40.4 67.5,39.2 67.9,39.2 67.9,42 67.5,42 67.5,40.8 66.1,40.8 66.1,42 65.7,42 "></polygon> <path class="st1" d="M70.9,41.5c0.2,0,0.3,0,0.4-0.1s0.2-0.1,0.3-0.2c0.1-0.1,0.2-0.2,0.2-0.3s0.1-0.2,0.1-0.4l0,0 c0-0.1,0-0.3-0.1-0.4s-0.1-0.2-0.2-0.3c-0.1-0.1-0.2-0.2-0.3-0.2c-0.1,0-0.2-0.1-0.4-0.1c-0.2,0-0.3,0-0.4,0.1 c-0.1,0-0.2,0.1-0.3,0.2C70.1,40,70,40.1,70,40.2s-0.1,0.2-0.1,0.4l0,0c0,0.1,0,0.3,0.1,0.4s0.1,0.2,0.2,0.3 c0.1,0.1,0.2,0.2,0.3,0.2C70.6,41.5,70.7,41.5,70.9,41.5 M70.9,42c-0.2,0-0.4,0-0.6-0.1c-0.2-0.1-0.3-0.2-0.5-0.3 c-0.1-0.1-0.2-0.3-0.3-0.5c-0.1-0.2-0.1-0.3-0.1-0.5l0,0c0-0.2,0-0.4,0.1-0.5c0.1-0.2,0.2-0.3,0.3-0.5c0.1-0.1,0.3-0.2,0.5-0.3 c0.2-0.1,0.4-0.1,0.6-0.1c0.2,0,0.4,0,0.6,0.1c0.2,0.1,0.3,0.2,0.5,0.3c0.1,0.1,0.2,0.3,0.3,0.5c0.1,0.2,0.1,0.3,0.1,0.5l0,0 c0,0.2,0,0.4-0.1,0.5c-0.1,0.2-0.2,0.3-0.3,0.5c-0.1,0.1-0.3,0.2-0.5,0.3C71.2,42,71,42,70.9,42"></path> <polygon class="st1" points="73.8,39.2 74.3,39.2 75.1,40.5 76,39.2 76.5,39.2 76.5,42 76,42 76,40 75.1,41.3 75.1,41.3 74.3,40 74.3,42 73.8,42 "></polygon> <polygon class="st1" points="78.1,39.2 80.1,39.2 80.1,39.7 78.6,39.7 78.6,40.4 80,40.4 80,40.8 78.6,40.8 78.6,41.5 80.2,41.5 80.2,42 78.1,42 "></polygon> <polygon class="st1" points="83.7,39.2 85.8,39.2 85.8,39.7 84.2,39.7 84.2,40.4 85.6,40.4 85.6,40.9 84.2,40.9 84.2,42 83.7,42 "></polygon> <polygon class="st1" points="87.2,39.2 89.2,39.2 89.2,39.7 87.6,39.7 87.6,40.4 89,40.4 89,40.8 87.6,40.8 87.6,41.5 89.2,41.5 89.2,42 87.2,42 "></polygon> <polygon class="st1" points="90.7,39.2 92.7,39.2 92.7,39.7 91.2,39.7 91.2,40.4 92.6,40.4 92.6,40.8 91.2,40.8 91.2,41.5 92.8,41.5 92.8,42 90.7,42 "></polygon> <polygon class="st1" points="94.3,39.2 94.8,39.2 94.8,41.5 96.2,41.5 96.2,42 94.3,42 "></polygon> <rect x="97.6" y="39.2" class="st1" width="0.5" height="2.8"></rect> <polygon class="st1" points="99.7,39.2 100.2,39.2 101.7,41.1 101.7,39.2 102.1,39.2 102.1,42 101.7,42 100.2,40 100.2,42 99.7,42 "></polygon> <path class="st1" d="M105.1,42c-0.2,0-0.4,0-0.6-0.1c-0.2-0.1-0.3-0.2-0.5-0.3c-0.1-0.1-0.2-0.3-0.3-0.5c-0.1-0.2-0.1-0.3-0.1-0.6 l0,0c0-0.2,0-0.4,0.1-0.5c0.1-0.2,0.2-0.3,0.3-0.5c0.1-0.1,0.3-0.2,0.5-0.3c0.2-0.1,0.3-0.1,0.6-0.1c0.1,0,0.2,0,0.3,0 c0.1,0,0.2,0,0.3,0.1c0.1,0,0.2,0.1,0.2,0.1c0.1,0,0.2,0.1,0.2,0.2l-0.3,0.4c0,0-0.1-0.1-0.2-0.1c0,0-0.1-0.1-0.2-0.1 c-0.1,0-0.1,0-0.2-0.1c-0.1,0-0.2,0-0.2,0c-0.1,0-0.2,0-0.3,0.1c-0.1,0-0.2,0.1-0.3,0.2c-0.1,0.1-0.2,0.2-0.2,0.3 c0,0.1-0.1,0.2-0.1,0.4l0,0c0,0.2,0,0.3,0.1,0.4s0.1,0.2,0.2,0.3c0.1,0.1,0.2,0.2,0.3,0.2c0.1,0,0.2,0.1,0.4,0.1 c0.1,0,0.3,0,0.4-0.1c0.1,0,0.2-0.1,0.3-0.2v-0.4h-0.7v-0.4h1.1v1.1c-0.1,0.1-0.2,0.1-0.2,0.2c-0.1,0-0.2,0.1-0.3,0.2 c-0.1,0-0.2,0.1-0.3,0.1C105.3,42,105.2,42,105.1,42"></path> </g> </svg> 