<?xml version="1.0" encoding="UTF-8"?> <svg xmlns="http://www.w3.org/2000/svg" xmlns:xlink="http://www.w3.org/1999/xlink" version="1.1" id="Layer_1" x="0px" y="0px" viewBox="0 0 120 60" style="enable-background:new 0 0 120 60;" xml:space="preserve"> <style type="text/css"> .st0{clip-path:url(#SVGID_00000165941746993483895130000005731140828741935007_);fill:#005482;} .st1{clip-path:url(#SVGID_00000165941746993483895130000005731140828741935007_);} </style> <g> <defs> <rect id="SVGID_1_" x="7.9" y="21.2" width="104.1" height="17.7"></rect> </defs> <clipPath id="SVGID_00000054224433340559136610000001431554968156236730_"> <use xlink:href="#SVGID_1_" style="overflow:visible;"></use> </clipPath> <path style="clip-path:url(#SVGID_00000054224433340559136610000001431554968156236730_);fill:#005482;" d="M39.1,25.6 c0-3,1-4.4,4.2-4.4h6.8c3.2,0,4.2,1.4,4.2,4.4v3.2c0,3-1,4.4-4.2,4.4h-6.8c-3.2,0-4.2-1.4-4.2-4.4V25.6z M52.7,25 c0-2.1-1.2-2.5-2.8-2.5h-6.5c-1.5,0-2.8,0.5-2.8,2.5v4.4c0,2.1,1.2,2.5,2.8,2.5h6.5c1.5,0,2.8-0.5,2.8-2.5V25z"></path> <polygon style="clip-path:url(#SVGID_00000054224433340559136610000001431554968156236730_);" points="76.5,21.2 80.6,21.2 85.2,30.1 89.9,21.2 93.9,21.2 87.5,33.1 83,33.1 "></polygon> <polygon style="clip-path:url(#SVGID_00000054224433340559136610000001431554968156236730_);" points="100,27.1 94.6,21.2 99.3,21.2 103,25.3 106.8,21.2 111.5,21.2 106,27.1 111.9,33.1 107,33.1 103,28.8 99.1,33.1 94.1,33.1 "></polygon> <path style="clip-path:url(#SVGID_00000054224433340559136610000001431554968156236730_);" d="M70.5,21.2H59.4v3h3.7h2.4h4.2 c1.6,0,2.2,0.4,2.2,2.2v1.6c0,1.7-0.6,2.2-2.2,2.2h-6.5v-4.7h-3.7v7.8h11.1c3.7,0,5-1.2,5-4.2v-3.6C75.5,22.4,74.2,21.2,70.5,21.2"></path> <path style="clip-path:url(#SVGID_00000054224433340559136610000001431554968156236730_);fill:#005482;" d="M17.7,21.3H7.9v11.8 h1.6v-4h0v-2.6h0v-4h7.8c1.4,0,2.2,0.3,2.2,1.7v1.1c0,1.2-0.8,1.7-2,1.7h-5.4v1.3h5.3c3.5,0,3.7-1.3,3.7-4 C21,21.8,19.8,21.3,17.7,21.3"></path> <path style="clip-path:url(#SVGID_00000054224433340559136610000001431554968156236730_);fill:#005482;" d="M36.6,25.6v-1 c0-2.2-0.5-3.3-4-3.3h-9.5v11.8h1.6v-4.7h0v-1.3h0v-4.5h7.3c2.4,0,2.9,0.4,2.9,1.7v1.1c0,1.2-0.8,1.7-2.5,1.7h-5.1v1.3h5.3 c1.5,0,2.4,0.2,2.4,2.1v2.6h1.5v-3c0-1.1-0.4-1.9-2-2.2v0C35.6,27.8,36.6,27.3,36.6,25.6"></path> <polygon style="clip-path:url(#SVGID_00000054224433340559136610000001431554968156236730_);" points="9.3,36.4 7.9,36.4 7.9,36.1 11.1,36.1 11.1,36.4 9.7,36.4 9.7,38.8 9.3,38.8 "></polygon> <polygon style="clip-path:url(#SVGID_00000054224433340559136610000001431554968156236730_);" points="12.6,36.1 12.9,36.1 12.9,37.2 15.4,37.2 15.4,36.1 15.8,36.1 15.8,38.8 15.4,38.8 15.4,37.5 12.9,37.5 12.9,38.8 12.6,38.8 "></polygon> <polygon style="clip-path:url(#SVGID_00000054224433340559136610000001431554968156236730_);" points="17.6,36.1 20.3,36.1 20.3,36.4 17.9,36.4 17.9,37.2 20.2,37.2 20.2,37.5 17.9,37.5 17.9,38.5 20.3,38.5 20.3,38.8 17.6,38.8 "></polygon> <path style="clip-path:url(#SVGID_00000054224433340559136610000001431554968156236730_);" d="M26.1,36.1h0.5l1.6,2.8h-0.4 l-0.3-0.6h-2.2l-0.3,0.6h-0.4L26.1,36.1z M26.3,36.4l-0.9,1.6h1.9L26.3,36.4z"></path> <path style="clip-path:url(#SVGID_00000054224433340559136610000001431554968156236730_);" d="M29.6,36.1h2.2 c0.8,0,0.9,0.3,0.9,0.8v0.2c0,0.4-0.2,0.5-0.5,0.5v0c0.4,0.1,0.5,0.3,0.5,0.5v0.7h-0.4v-0.6c0-0.4-0.2-0.5-0.5-0.5H30v1.1h-0.4 V36.1z M31.8,37.4c0.4,0,0.6-0.1,0.6-0.4v-0.3c0-0.3-0.1-0.4-0.7-0.4H30v1.1H31.8z"></path> <polygon style="clip-path:url(#SVGID_00000054224433340559136610000001431554968156236730_);" points="35.5,36.4 34.1,36.4 34.1,36.1 37.3,36.1 37.3,36.4 35.9,36.4 35.9,38.8 35.5,38.8 "></polygon> <path style="clip-path:url(#SVGID_00000054224433340559136610000001431554968156236730_);" d="M41.6,37.1c0-0.7,0.2-1,1-1h1.6 c0.7,0,1,0.3,1,1v0.8c0,0.7-0.2,1-1,1h-1.6c-0.7,0-1-0.3-1-1V37.1z M44.7,36.9c0-0.5-0.3-0.6-0.6-0.6h-1.5c-0.4,0-0.6,0.1-0.6,0.6 v1c0,0.5,0.3,0.6,0.6,0.6h1.5c0.4,0,0.6-0.1,0.6-0.6V36.9z"></path> <polygon style="clip-path:url(#SVGID_00000054224433340559136610000001431554968156236730_);" points="46.8,36.1 49.4,36.1 49.4,36.4 47.2,36.4 47.2,37.2 49.3,37.2 49.3,37.5 47.2,37.5 47.2,38.8 46.8,38.8 "></polygon> <path style="clip-path:url(#SVGID_00000054224433340559136610000001431554968156236730_);" d="M53.9,36.1h2.2 c0.9,0,1.2,0.3,1.2,1.4c0,1-0.3,1.4-1.2,1.4h-2.2V36.1z M56.9,37.3c0-0.8-0.2-0.9-0.7-0.9h-2v2.1h1.9c0.5,0,0.8-0.1,0.8-0.9V37.3z"></path> <rect x="59" y="36.1" style="clip-path:url(#SVGID_00000054224433340559136610000001431554968156236730_);" width="0.4" height="2.8"></rect> <path style="clip-path:url(#SVGID_00000054224433340559136610000001431554968156236730_);" d="M64.5,37.8c0,0.7-0.2,1-0.9,1H62 c-0.7,0-1-0.3-1-1v-0.8c0-0.7,0.2-1,1-1h1.4c0.5,0,1,0.1,1,0.8v0.1h-0.4c0-0.5-0.2-0.6-1.1-0.6h-1c-0.4,0-0.6,0.1-0.6,0.6v1 c0,0.5,0.3,0.6,0.6,0.6h1.5c0.4,0,0.6-0.1,0.6-0.5v-0.3h-1.4v-0.3h1.8V37.8z"></path> <rect x="66.2" y="36.1" style="clip-path:url(#SVGID_00000054224433340559136610000001431554968156236730_);" width="0.4" height="2.8"></rect> <polygon style="clip-path:url(#SVGID_00000054224433340559136610000001431554968156236730_);" points="69.5,36.4 68.1,36.4 68.1,36.1 71.2,36.1 71.2,36.4 69.8,36.4 69.8,38.8 69.5,38.8 "></polygon> <path style="clip-path:url(#SVGID_00000054224433340559136610000001431554968156236730_);" d="M73.7,36.1h0.5l1.6,2.8h-0.4L75,38.2 h-2.2l-0.3,0.6H72L73.7,36.1z M73.9,36.4L73,37.9h1.9L73.9,36.4z"></path> <polygon style="clip-path:url(#SVGID_00000054224433340559136610000001431554968156236730_);" points="77.2,36.1 77.6,36.1 77.6,38.5 79.7,38.5 79.7,38.8 77.2,38.8 "></polygon> <polygon style="clip-path:url(#SVGID_00000054224433340559136610000001431554968156236730_);" points="83.8,36.1 84.2,36.1 85.5,38.5 86.9,36.1 87.3,36.1 85.8,38.8 85.3,38.8 "></polygon> <rect x="88.8" y="36.1" style="clip-path:url(#SVGID_00000054224433340559136610000001431554968156236730_);" width="0.4" height="2.8"></rect> <polygon style="clip-path:url(#SVGID_00000054224433340559136610000001431554968156236730_);" points="90.9,36.1 93.6,36.1 93.6,36.4 91.3,36.4 91.3,37.2 93.5,37.2 93.5,37.5 91.3,37.5 91.3,38.5 93.6,38.5 93.6,38.8 90.9,38.8 "></polygon> <polygon style="clip-path:url(#SVGID_00000054224433340559136610000001431554968156236730_);" points="94.9,36.1 95.3,36.1 96.2,38.5 97.2,36.1 97.7,36.1 98.6,38.5 99.6,36.1 99.9,36.1 98.8,38.8 98.3,38.8 97.4,36.4 96.5,38.8 96,38.8 "></polygon> <rect x="101.4" y="36.1" style="clip-path:url(#SVGID_00000054224433340559136610000001431554968156236730_);" width="0.4" height="2.8"></rect> <polygon style="clip-path:url(#SVGID_00000054224433340559136610000001431554968156236730_);" points="103.5,36.1 104,36.1 106.6,38.5 106.6,36.1 106.9,36.1 106.9,38.8 106.4,38.8 103.9,36.4 103.9,38.8 103.5,38.8 "></polygon> <path style="clip-path:url(#SVGID_00000054224433340559136610000001431554968156236730_);" d="M112.1,37.8c0,0.7-0.2,1-0.9,1h-1.5 c-0.7,0-1-0.3-1-1v-0.8c0-0.7,0.2-1,1-1h1.4c0.5,0,1,0.1,1,0.8v0.1h-0.4c0-0.5-0.2-0.6-1.1-0.6h-1c-0.4,0-0.6,0.1-0.6,0.6v1 c0,0.5,0.3,0.6,0.6,0.6h1.5c0.4,0,0.6-0.1,0.6-0.5v-0.3h-1.4v-0.3h1.8V37.8z"></path> </g> </svg> 