<?xml version="1.0" encoding="UTF-8"?> <svg xmlns="http://www.w3.org/2000/svg" xmlns:xlink="http://www.w3.org/1999/xlink" version="1.1" id="Layer_1" x="0px" y="0px" viewBox="0 0 120 60" style="enable-background:new 0 0 120 60;" xml:space="preserve"> <style type="text/css"> .st0{fill:#4EB857;} </style> <g> <g> <polygon class="st0" points="80.2,40.7 73.9,40.7 79.4,31.1 80.2,29.8 78.6,29.8 71.5,29.8 71.5,31.1 77.8,31.1 72.3,40.7 71.5,42.1 73.1,42.1 79.4,42.1 "></polygon> <polygon class="st0" points="97.4,29.8 88.7,29.8 88.7,31.1 96.6,31.1 "></polygon> <polygon class="st0" points="97.4,35.3 88.7,35.3 88.7,36.6 96.6,36.6 "></polygon> <polygon class="st0" points="97.4,40.7 88.7,40.7 88.7,42.1 96.6,42.1 "></polygon> <g> <path class="st0" d="M107.3,31.1h4.2c0.9,0,1.7,0.8,1.7,1.7v0.8c0,0.9-0.8,1.7-1.7,1.7h-4.2V31.1z M114.6,33.6v-0.8 c0-1.7-1.4-3-3-3h-4.2H106v6.8v5.5h1.4v-5.5h2.5l3.2,5.5h1.6l-3.2-5.5h0.1C113.2,36.6,114.6,35.3,114.6,33.6"></path> <path class="st0" d="M38.4,31.1h4.2c0.9,0,1.7,0.8,1.7,1.7v0.8c0,0.9-0.8,1.7-1.7,1.7h-4.2V31.1z M45.7,33.6v-0.8 c0-1.7-1.4-3-3-3h-4.2h-1.4v6.8v5.5h1.4v-5.5H41l3.2,5.5h1.6l-3.2-5.5h0.1C44.3,36.6,45.7,35.3,45.7,33.6"></path> </g> <polygon class="st0" points="55.1,42.1 58.6,33.4 62.1,42.1 63.6,42.1 59.3,31.6 58.6,29.8 57.9,31.6 53.6,42.1 "></polygon> <polygon class="st0" points="115.2,30 116.1,30 116.1,30.1 115.8,30.1 115.8,31.1 115.6,31.1 115.6,30.1 115.2,30.1 "></polygon> <polygon class="st0" points="117.3,30 117,30.9 116.8,30 116.4,30 116.4,31.1 116.6,31.1 116.6,30.2 116.6,30.2 116.9,31.1 117.1,31.1 117.4,30.2 117.4,30.2 117.4,31.1 117.6,31.1 117.6,30 "></polygon> <polygon class="st0" points="22.3,48 22.3,48.1 22.4,48.1 22.4,48.4 22.5,48.4 22.5,48.1 22.6,48.1 22.6,48 "></polygon> <polygon class="st0" points="23,48 22.9,48.4 22.8,48 22.7,48 22.7,48.4 22.8,48.4 22.8,48.1 22.8,48.1 22.9,48.4 22.9,48.4 23,48.1 23,48.1 23,48.4 23.1,48.4 23.1,48 "></polygon> <g> <path class="st0" d="M16.2,35.5c-0.3,0.3-1,0.5-1.3,0.7c0.2-0.3,0.4-0.6,0.6-0.8c0.3-0.3,0.6-0.4,0.7-0.4 C16.4,34.9,16.6,35.2,16.2,35.5 M16.3,34.6c-0.3,0-0.7,0.1-1.1,0.5c-0.5,0.4-0.9,1.1-1,1.8c0.5-0.2,1.7-0.6,2.3-1.1 C17.2,35.2,16.8,34.6,16.3,34.6"></path> <path class="st0" d="M27.4,23.8l-0.7,0.3c0,0.1,0,0.2-0.2,0.3c-0.3,0.2-0.2,0.3-0.6,0.5c-0.1,0,0,0.1-0.3,0.2 c-0.2,0.1-0.5,0-0.6,0c-0.2,0-0.5,0.2-0.2,0.6c0.1,0.2,0.5,0.7,0.2,1.2c-0.3,0.4-0.8,0.5-1.2,0.1c-0.4-0.3-1-1.3-1.7-1 c-0.8,0.4-0.5,1.2-0.1,1.9c1,1.5,2.9,2.9,3.8,4.6c1.1,2.2-1.2,4.7-4,3.4c-0.1,0.1-0.3,0.2-0.4,0.3c-1.2,0.6-2.7,0.6-3.6-0.2 c-0.4,1-1.9,1.3-2.2,1.3c-0.3,0.1-0.8,0.2-1.3,0.4c0.5,1.7,2.7,1.6,3.1,0.5c0,0,0.1,0.9-1.2,1.2c-1.3,0.3-2.2-0.7-2.5-1.3 c-0.3,0.3-0.6,0.8-0.5,1.4c0,0.7,0.5,1.4,1.8,1.5c1.8,0.1,4.6-1.3,6.5-0.7c1.7,0.5,1.7,2.5,0.7,3.2c-0.3,0.2-0.9,0.4-1.3,0.4 c-0.2,0-0.2,0.1-0.2,0.2c0,0.1,0.1,0.1,0.3,0.1c0.6-0.1,1.3,0.3,1,1.3c0,0.1,0.2,0.4,0.1,0.6c-0.1,0.3-0.1,0.2-0.1,0.3 c-0.1,0.4-0.3,0.4-0.4,0.7c0,0.2-0.1,0.2-0.2,0.2l-0.1,0.8l0.1,0.4l-0.2-0.3L21,48.4l0.2-0.4l0.1-0.8c-0.1,0-0.2-0.1-0.2-0.3 c0-0.4-0.2-0.4-0.1-0.8c0-0.1-0.1,0,0-0.3c0-0.2,0.3-0.4,0.3-0.5c0-0.1,0.1-0.5-0.4-0.5c-0.2,0-0.9,0.1-1.1-0.4 c-0.2-0.4,0-0.9,0.5-1.1c0.5-0.2,1.6-0.2,1.7-1c0.1-0.8-0.8-1.1-1.6-1c-1.8,0.1-4,1.1-5.9,1c-2.4-0.1-3.5-3.4-0.9-5.1 c0-0.2,0-0.3,0-0.5c0.1-1.3,0.8-2.7,2-3.1c-0.7-0.9-0.1-2.3-0.1-2.6c0.1-0.3,0.3-0.8,0.3-1.4c-1.8-0.4-2.7,1.5-2,2.5 c0,0-0.8-0.4-0.4-1.6c0.4-1.3,1.7-1.6,2.3-1.5c-0.1-0.4-0.4-0.9-0.9-1.2c-0.7-0.3-1.5-0.3-2.2,0.8c-1,1.5-1.2,4.6-2.6,6 c-1.3,1.2-3,0.2-3.1-1c0-0.4,0.1-1,0.3-1.4c0.1-0.2,0-0.2,0-0.2c-0.1,0-0.1,0.1-0.2,0.2c-0.3,0.6-0.9,1-1.6,0.2 c-0.1-0.1-0.4-0.1-0.6-0.2c-0.2-0.2-0.1-0.2-0.2-0.3c-0.3-0.3-0.2-0.4-0.5-0.7c-0.1-0.1-0.1-0.2-0.1-0.3l-0.6-0.5l-0.4-0.1l0.4,0 l-0.1-0.4l0.2,0.4l0.6,0.5C4,31,4.1,31,4.2,31.1c0.3,0.2,0.4,0,0.8,0.3c0.1,0.1,0.1,0,0.3,0.1c0.2,0.1,0.2,0.4,0.3,0.5 c0.1,0.1,0.4,0.3,0.6-0.1c0.1-0.2,0.4-0.8,0.9-0.8c0.5,0,0.8,0.4,0.7,1c-0.1,0.5-0.7,1.5,0,1.9c0.7,0.5,1.3-0.1,1.7-0.9 c0.8-1.6,1-4,2.1-5.6c1.3-2,4.7-1.3,4.9,1.8c0.2,0.1,0.3,0.1,0.4,0.2c1.1,0.7,1.9,2.1,1.7,3.2c1.1-0.1,2.1,1,2.3,1.2 c0.2,0.2,0.6,0.6,1,0.9c1.2-1.3,0-3.1-1.2-3c0,0,0.7-0.5,1.6,0.4c0.9,1,0.5,2.2,0.2,2.8c0.4,0.1,1,0.1,1.5-0.2 c0.6-0.4,1-1.1,0.4-2.3c-0.8-1.6-3.4-3.3-3.9-5.3c-0.4-1.8,1.3-2.7,2.4-2.2c0.4,0.2,0.8,0.6,1,0.9c0.1,0.2,0.2,0.1,0.2,0.1 c0.1-0.1,0-0.1-0.1-0.3c-0.4-0.5-0.4-1.3,0.6-1.5c0.2,0,0.3-0.3,0.4-0.4c0.3-0.1,0.2,0,0.3-0.1c0.4-0.2,0.4,0,0.8-0.1 c0.2,0,0.3,0,0.3,0.1l0.7-0.3l0.3-0.3L27.4,23.8l0.4,0L27.4,23.8z M28.2,23.6c0-0.1-0.1-0.1-0.1-0.1c0-0.1,0-0.2,0-0.3 c0,0-0.1-0.1-0.1-0.1c-0.2-0.1-0.4-0.1-0.6,0l-0.2,0.2l-0.4,0.2c-0.1,0-0.3-0.1-0.4,0c-0.1,0-0.1,0-0.2,0c-0.2,0-0.3-0.1-0.6,0 c-0.1,0-0.2,0-0.4,0.1c-0.2,0.1-0.3,0.2-0.4,0.4c0,0,0,0,0,0.1c-0.6,0.2-0.9,0.5-1,0.7c0,0.1-0.1,0.2-0.1,0.2 c-0.1-0.1-0.2-0.2-0.4-0.2c-0.7-0.3-1.6-0.2-2.2,0.3c-0.7,0.5-1,1.4-0.7,2.3c0.1,0.4,0.2,0.7,0.5,1.1c0.5,0.8,1.2,1.6,1.9,2.3 c0.6,0.6,1.2,1.3,1.5,1.8c0,0,0,0.1,0.1,0.1c0.4,0.8,0.3,1.4-0.2,1.8c-0.2,0.1-0.4,0.2-0.6,0.2c0.2-0.6,0.3-1.4-0.2-2.2 c-0.1-0.2-0.2-0.3-0.3-0.4c-0.9-0.9-1.8-0.7-2.1-0.5c-0.2,0.1-0.2,0.3-0.2,0.5c0,0,0,0,0,0.1c0.1,0.1,0.2,0.2,0.4,0.2 c0.4,0,0.8,0.2,1,0.6c0.1,0.2,0.4,0.7,0,1.3c-0.2-0.2-0.4-0.4-0.6-0.6c0,0-0.1-0.1-0.1-0.1c0,0,0,0,0,0c-0.7-0.8-1.4-1.2-2.1-1.3 c0-0.5-0.2-1-0.4-1.6c-0.3-0.6-0.9-1.2-1.5-1.6c-0.1-0.1-0.2-0.1-0.3-0.2c-0.2-1.8-1.4-2.7-2.4-2.9c-1.2-0.3-2.5,0.2-3.2,1.2 c-0.1,0.1-0.1,0.2-0.2,0.3c-0.5,0.9-0.8,2-1.1,3c-0.2,0.9-0.5,1.7-0.8,2.4c0,0,0,0.1-0.1,0.1c-0.2,0.4-0.4,0.6-0.7,0.7 c-0.1,0-0.2,0-0.4-0.1c-0.2-0.2-0.2-0.5,0-1c0.1-0.2,0.1-0.3,0.1-0.5c0.1-0.4,0-0.8-0.2-1c-0.2-0.3-0.5-0.4-0.9-0.4 c-0.3,0-0.8,0.1-1.2,0.8c0,0.1-0.1,0.1-0.1,0.2c-0.1-0.2-0.1-0.4-0.3-0.5C5.4,31.1,5.3,31,5.2,31c-0.2-0.2-0.4-0.2-0.6-0.2 c-0.1,0-0.1,0-0.2-0.1c-0.2-0.1-0.3-0.1-0.5-0.1l-0.4-0.3l-0.2-0.3c-0.1-0.2-0.3-0.3-0.5-0.2c-0.1,0-0.2,0.1-0.2,0.2 c0,0.1-0.1,0.1-0.1,0.2c-0.1,0-0.2,0.1-0.2,0.2c0,0,0,0.1-0.1,0.2c0,0.2,0.1,0.4,0.3,0.5L3,31.1l0.4,0.3c0,0.1,0.1,0.3,0.2,0.4 c0.1,0.1,0.1,0.1,0.1,0.2c0.1,0.2,0.1,0.3,0.3,0.5c0,0.1,0.1,0.2,0.3,0.3c0.2,0.2,0.4,0.2,0.5,0.2c0,0,0,0,0.1,0 c0.4,0.4,0.8,0.5,1.1,0.5c0.1,0,0.2,0,0.2-0.1c0,0.1,0,0.3,0,0.4c0.1,0.8,0.6,1.5,1.4,1.8c0.8,0.3,1.7,0.1,2.4-0.5 c0.3-0.3,0.5-0.6,0.8-1c0.5-0.8,0.8-1.8,1.1-2.8c0.3-0.9,0.5-1.7,0.8-2.2c0,0,0-0.1,0.1-0.1c0.5-0.8,1-1,1.7-0.7 c0.2,0.1,0.4,0.3,0.5,0.4c-0.6,0.1-1.4,0.5-1.9,1.3c-0.1,0.2-0.2,0.3-0.2,0.5c-0.4,1.2,0.3,1.9,0.6,2.1c0.2,0.1,0.4,0,0.5-0.1 c0,0,0,0,0-0.1c0.1-0.1,0.1-0.3,0-0.5c-0.2-0.3-0.2-0.8,0-1.2c0.1-0.2,0.5-0.7,1.2-0.7c0,0.3-0.1,0.6-0.2,0.8c0,0,0,0.1,0,0.1 c0,0,0,0,0,0.1c-0.3,1-0.4,1.8-0.1,2.4c-0.4,0.3-0.8,0.7-1.1,1.2c-0.4,0.6-0.6,1.3-0.7,2.1c0,0.1,0,0.2,0,0.3 c-1.4,1.1-1.6,2.5-1.3,3.6c0.3,1.2,1.4,2.1,2.7,2.2c0.1,0,0.2,0,0.3,0c1.1,0,2.1-0.3,3.2-0.5c0.9-0.2,1.7-0.4,2.5-0.5 c0,0,0.1,0,0.1,0c0.5,0,0.8,0.1,0.9,0.2c0.1,0.1,0.2,0.2,0.1,0.4c0,0.3-0.3,0.4-0.9,0.5c-0.2,0-0.3,0.1-0.5,0.1 c-0.4,0.1-0.6,0.4-0.8,0.7c-0.1,0.3-0.1,0.6,0,1c0.1,0.3,0.5,0.7,1.3,0.7c0.1,0,0.1,0,0.2,0c-0.1,0.1-0.2,0.3-0.3,0.5 c0,0.2,0,0.3,0,0.4c0,0.3,0,0.5,0.1,0.6c0,0.1,0,0.1,0,0.2c0,0.2,0.1,0.3,0.1,0.5l-0.1,0.4l-0.2,0.3c-0.1,0.2-0.1,0.4,0.1,0.6 c0.1,0.1,0.2,0.1,0.3,0.1c0.1,0,0.1,0,0.2,0c0.1,0.1,0.2,0.1,0.3,0.1c0.1,0,0.1,0,0.2,0c0.2-0.1,0.3-0.3,0.2-0.5l-0.1-0.3 l0.1-0.5c0.1-0.1,0.2-0.2,0.2-0.4c0-0.1,0-0.1,0.1-0.2c0.1-0.1,0.2-0.3,0.3-0.5c0.1-0.1,0.1-0.2,0.1-0.4c0-0.2,0-0.4-0.1-0.6 c0,0,0,0,0-0.1c0.2-0.6,0-1-0.2-1.2c-0.1-0.1-0.1-0.1-0.2-0.2c0.1-0.1,0.3-0.1,0.4-0.2c0.6-0.4,1-1.3,0.8-2.1 c-0.1-0.9-0.7-1.5-1.6-1.8c-0.4-0.1-0.8-0.2-1.2-0.2c-0.9,0-2,0.2-2.9,0.5c-0.9,0.2-1.7,0.4-2.3,0.4c0,0-0.1,0-0.1,0 c-0.9,0-1.4-0.4-1.4-1.1c0-0.3,0-0.5,0.1-0.6c0.4,0.5,1.1,1,2,1c0.2,0,0.4,0,0.5-0.1c1.2-0.3,1.5-1.2,1.5-1.6 c0-0.2-0.2-0.4-0.3-0.4c0,0,0,0-0.1,0c-0.2,0-0.3,0.1-0.4,0.3c-0.1,0.4-0.6,0.6-1.1,0.6c-0.2,0-0.8-0.1-1.2-0.7 c0.3-0.1,0.6-0.2,0.8-0.2c0,0,0.1,0,0.1,0c0,0,0,0,0.1,0c1-0.2,1.8-0.6,2.2-1.1c0.4,0.3,1,0.4,1.6,0.4c0.7,0,1.5-0.2,2.1-0.5 c0.1-0.1,0.2-0.1,0.3-0.2c1.6,0.7,3,0.1,3.8-0.6c0.9-0.9,1.1-2.2,0.5-3.4c0-0.1-0.1-0.2-0.2-0.3c-0.5-0.9-1.3-1.7-2-2.5 c-0.6-0.7-1.2-1.3-1.6-1.9c0,0,0-0.1-0.1-0.1c-0.2-0.4-0.3-0.7-0.3-0.9c0-0.1,0.1-0.2,0.3-0.3c0.2-0.1,0.5,0.1,0.9,0.5 c0.1,0.1,0.2,0.3,0.4,0.4c0.3,0.3,0.7,0.4,1,0.3c0.3,0,0.6-0.2,0.8-0.5c0.2-0.3,0.3-0.8-0.1-1.4c0-0.1-0.1-0.1-0.1-0.2 c0.2,0,0.4,0.1,0.6-0.1c0.2-0.1,0.3-0.1,0.3-0.2c0.3-0.1,0.4-0.3,0.5-0.4c0-0.1,0.1-0.1,0.1-0.1c0.2-0.1,0.3-0.2,0.3-0.4l0.4-0.2 l0.3,0c0.2,0,0.4-0.1,0.4-0.4C28.2,23.8,28.2,23.7,28.2,23.6"></path> <path class="st0" d="M19.2,35.1c-0.4-0.1-0.6-0.3-0.7-0.4c-0.1-0.2,0-0.4,0.4-0.3c0.4,0.1,1,0.6,1.3,0.8 C19.9,35.3,19.6,35.2,19.2,35.1 M18.2,34.9c0.1,0.3,0.5,0.5,0.9,0.7c0.6,0.2,1.4,0.2,2.1,0c-0.5-0.4-1.3-1.2-2.1-1.5 C18.2,33.7,17.9,34.4,18.2,34.9"></path> <path class="st0" d="M17.2,32.8c-0.1,0.2-0.4,0.2-0.5-0.2c-0.1-0.4,0-1.2,0.1-1.5c0.2,0.3,0.3,0.6,0.4,0.9 C17.3,32.4,17.2,32.7,17.2,32.8 M16.5,30.2c-0.1,0.6-0.4,1.8-0.2,2.5c0.2,0.9,0.9,0.9,1.2,0.4c0.1-0.3,0.2-0.7,0.1-1.2 C17.4,31.3,17.1,30.6,16.5,30.2"></path> </g> </g> </g> </svg> 