<?xml version="1.0" encoding="UTF-8"?> <svg xmlns="http://www.w3.org/2000/svg" xmlns:xlink="http://www.w3.org/1999/xlink" version="1.1" id="Layer_1" x="0px" y="0px" viewBox="0 0 120 120" style="enable-background:new 0 0 120 120;" xml:space="preserve"> <style type="text/css"> .st0{fill:none;} .st1{fill:#4EB857;} </style> <g> <rect x="-340.6" y="-30.1" class="st0" width="801.2" height="180.2"></rect> </g> <g> <polygon class="st1" points="81,65 74.4,65 80.2,55 81,53.6 79.4,53.6 72,53.6 72,55 78.6,55 72.8,65 72,66.4 73.6,66.4 80.2,66.4 "></polygon> <polygon class="st1" points="98.9,53.6 89.9,53.6 89.9,55 98.1,55 "></polygon> <polygon class="st1" points="98.9,59.3 89.9,59.3 89.9,60.7 98.1,60.7 "></polygon> <polygon class="st1" points="98.9,65 89.9,65 89.9,66.4 98.1,66.4 "></polygon> <g> <path class="st1" d="M109.3,55h4.4c1,0,1.7,0.8,1.7,1.7v0.8c0,1-0.8,1.7-1.7,1.7h-4.4V55z M116.8,57.5v-0.8c0-1.7-1.4-3.2-3.2-3.2 h-4.4h-1.4v7.1v5.7h1.4v-5.7h2.6l3.3,5.7h1.6l-3.3-5.7h0.1C115.4,60.7,116.8,59.3,116.8,57.5"></path> <path class="st1" d="M37.5,55h4.4c1,0,1.7,0.8,1.7,1.7v0.8c0,1-0.8,1.7-1.7,1.7h-4.4V55z M45.1,57.5v-0.8c0-1.7-1.4-3.2-3.2-3.2 h-4.4h-1.4v7.1v5.7h1.4v-5.7h2.6l3.3,5.7h1.6l-3.3-5.7h0.1C43.7,60.7,45.1,59.3,45.1,57.5"></path> </g> <polygon class="st1" points="54.9,66.4 58.5,57.4 62.2,66.4 63.7,66.4 59.3,55.5 58.5,53.6 57.8,55.5 53.4,66.4 "></polygon> <polygon class="st1" points="117.5,53.8 118.4,53.8 118.4,53.9 118.1,53.9 118.1,55 117.9,55 117.9,53.9 117.5,53.9 "></polygon> <polygon class="st1" points="119.7,53.8 119.4,54.7 119.1,53.8 118.8,53.8 118.8,55 119,55 119,54 119,54 119.3,55 119.5,55 119.8,54 119.8,54 119.8,55 120,55 120,53.8 "></polygon> <polygon class="st1" points="20.8,72.6 20.8,72.7 20.9,72.7 20.9,73 20.9,73 20.9,72.7 21,72.7 21,72.6 "></polygon> <polygon class="st1" points="21.4,72.6 21.4,72.9 21.3,72.6 21.2,72.6 21.2,73 21.2,73 21.2,72.7 21.2,72.7 21.3,73 21.4,73 21.5,72.7 21.5,72.7 21.5,73 21.6,73 21.6,72.6 "></polygon> <g> <path class="st1" d="M14.4,59.5c-0.3,0.3-1.1,0.6-1.4,0.7c0.2-0.3,0.4-0.6,0.6-0.8c0.3-0.3,0.6-0.4,0.7-0.4 C14.6,59,14.8,59.2,14.4,59.5 M14.5,58.6c-0.3,0-0.7,0.2-1.1,0.5c-0.5,0.5-0.9,1.1-1,1.9c0.6-0.2,1.8-0.6,2.4-1.1 C15.4,59.2,15,58.6,14.5,58.6"></path> <path class="st1" d="M26,47.4l-0.7,0.3c0,0.1,0,0.2-0.2,0.3c-0.4,0.2-0.2,0.4-0.7,0.5c-0.1,0,0,0.1-0.3,0.2c-0.2,0.1-0.5,0-0.6,0 c-0.2,0-0.5,0.2-0.2,0.6c0.1,0.2,0.5,0.8,0.2,1.3c-0.3,0.4-0.8,0.5-1.2,0.1c-0.4-0.3-1-1.4-1.8-1c-0.8,0.4-0.6,1.3-0.1,2 c1,1.6,3,3,4,4.8c1.1,2.2-1.2,4.9-4.1,3.5c-0.1,0.1-0.3,0.2-0.4,0.3C18.6,60.9,17,61,16,60.1c-0.4,1.1-2,1.3-2.3,1.4 c-0.3,0.1-0.9,0.2-1.4,0.5c0.5,1.8,2.8,1.6,3.3,0.5c0,0,0.1,0.9-1.2,1.2c-1.3,0.3-2.3-0.7-2.6-1.3c-0.3,0.3-0.6,0.8-0.6,1.5 c0,0.8,0.5,1.5,1.9,1.6c1.9,0.1,4.8-1.4,6.8-0.8c1.8,0.6,1.8,2.6,0.7,3.3c-0.3,0.2-1,0.4-1.4,0.4c-0.2,0-0.2,0.1-0.2,0.2 c0,0.1,0.1,0.1,0.3,0.1c0.7-0.1,1.4,0.3,1,1.3c0,0.2,0.2,0.4,0.1,0.6c-0.1,0.3-0.1,0.2-0.1,0.3c-0.1,0.5-0.3,0.4-0.4,0.8 c0,0.2-0.1,0.2-0.2,0.2l-0.1,0.8l0.1,0.4l-0.2-0.4L19.4,73l0.2-0.4l0.1-0.8c-0.1,0-0.2-0.1-0.2-0.3c0-0.4-0.2-0.4-0.1-0.8 c0-0.1-0.1,0,0-0.3c0-0.2,0.3-0.4,0.3-0.5c0.1-0.2,0.1-0.5-0.4-0.5c-0.2,0-0.9,0.1-1.2-0.4c-0.2-0.5,0-0.9,0.5-1.1 c0.5-0.2,1.7-0.2,1.7-1c0.1-0.9-0.8-1.1-1.7-1.1c-1.9,0.1-4.1,1.1-6.2,1c-2.5-0.1-3.6-3.5-1-5.3c0-0.2,0-0.3,0-0.5 c0.1-1.4,0.9-2.8,2-3.2c-0.7-0.9-0.1-2.4-0.1-2.7c0.1-0.3,0.3-0.8,0.3-1.4c-1.8-0.4-2.8,1.6-2.1,2.6c0,0-0.8-0.4-0.4-1.6 c0.4-1.3,1.8-1.6,2.4-1.6c-0.1-0.4-0.4-0.9-1-1.2c-0.7-0.4-1.6-0.3-2.3,0.9c-1,1.6-1.2,4.8-2.7,6.2c-1.4,1.3-3.1,0.2-3.2-1 c0-0.4,0.1-1,0.3-1.4c0.1-0.2,0-0.2,0-0.3c-0.1,0-0.1,0.1-0.2,0.2c-0.3,0.6-1,1-1.7,0.3c-0.1-0.1-0.4-0.1-0.6-0.2 c-0.2-0.2-0.1-0.2-0.2-0.3c-0.4-0.3-0.2-0.4-0.5-0.7c-0.1-0.1-0.1-0.2-0.1-0.3l-0.6-0.5l-0.4-0.1l0.4,0l-0.1-0.4l0.2,0.4L1.6,55 c0.1-0.1,0.2-0.1,0.4,0c0.4,0.2,0.4,0,0.8,0.3c0.1,0.1,0.1,0,0.3,0.1c0.2,0.1,0.2,0.4,0.3,0.5c0.1,0.1,0.4,0.3,0.6-0.1 C4.1,55.6,4.4,55,5,55c0.5,0,0.8,0.4,0.7,1c-0.1,0.5-0.7,1.5,0,2c0.7,0.5,1.4-0.1,1.8-0.9c0.9-1.6,1.1-4.1,2.2-5.8 c1.4-2.1,4.8-1.4,5.1,1.8c0.2,0.1,0.3,0.1,0.5,0.3c1.1,0.8,2,2.1,1.8,3.4c1.1-0.1,2.2,1.1,2.4,1.3c0.2,0.2,0.6,0.7,1.1,1 c1.3-1.4,0-3.2-1.2-3.1c0,0,0.8-0.5,1.6,0.4c0.9,1,0.5,2.3,0.2,2.9c0.4,0.1,1,0.1,1.5-0.2c0.7-0.4,1-1.2,0.4-2.4 c-0.9-1.7-3.6-3.5-4-5.5c-0.4-1.8,1.3-2.8,2.5-2.3c0.4,0.2,0.8,0.6,1.1,1c0.1,0.2,0.2,0.1,0.2,0.1c0.1-0.1,0-0.2-0.1-0.3 c-0.4-0.5-0.4-1.3,0.6-1.6c0.2,0,0.3-0.4,0.5-0.4c0.3-0.1,0.3,0,0.3-0.1c0.4-0.2,0.5,0,0.9-0.1c0.2,0,0.3,0,0.3,0.1l0.7-0.3 l0.3-0.3L26,47.4l0.4,0L26,47.4z M26.8,47.2c0-0.1-0.1-0.1-0.1-0.1c0-0.1,0-0.2,0-0.3c0,0-0.1-0.1-0.1-0.1c-0.2-0.1-0.4-0.1-0.6,0 l-0.2,0.3l-0.5,0.2C25.1,47,25,47,24.8,47c-0.1,0-0.1,0-0.2,0c-0.2,0-0.3-0.1-0.6,0c-0.1,0-0.2,0-0.4,0.1 c-0.2,0.1-0.4,0.3-0.5,0.4c0,0,0,0,0,0.1c-0.6,0.2-0.9,0.5-1,0.8c0,0.1-0.1,0.2-0.1,0.3c-0.1-0.1-0.2-0.2-0.4-0.2 c-0.7-0.3-1.7-0.2-2.3,0.3c-0.7,0.6-1,1.5-0.8,2.4c0.1,0.4,0.2,0.8,0.5,1.2c0.5,0.9,1.2,1.6,2,2.4c0.6,0.7,1.2,1.3,1.6,1.9 c0,0,0,0.1,0.1,0.1c0.4,0.8,0.4,1.5-0.2,1.9c-0.2,0.1-0.4,0.2-0.6,0.2c0.2-0.6,0.3-1.5-0.2-2.3c-0.1-0.2-0.2-0.3-0.3-0.5 c-0.9-1-1.8-0.8-2.2-0.5c-0.2,0.1-0.2,0.3-0.2,0.5c0,0,0,0,0,0.1c0.1,0.1,0.3,0.2,0.4,0.2c0.4,0,0.8,0.2,1.1,0.7 c0.1,0.2,0.4,0.8,0,1.4c-0.2-0.2-0.4-0.4-0.6-0.6c0,0-0.1-0.1-0.1-0.1c0,0,0,0,0,0c-0.7-0.8-1.5-1.3-2.2-1.4 c0-0.5-0.2-1.1-0.5-1.6c-0.4-0.6-0.9-1.2-1.5-1.7c-0.1-0.1-0.2-0.1-0.3-0.2C15,51,13.8,50,12.7,49.8c-1.3-0.3-2.6,0.2-3.3,1.3 c-0.1,0.1-0.1,0.2-0.2,0.3c-0.5,0.9-0.9,2.1-1.2,3.1c-0.3,0.9-0.5,1.8-0.9,2.5c0,0,0,0.1-0.1,0.1c-0.2,0.4-0.5,0.7-0.7,0.7 c-0.1,0-0.3,0-0.4-0.1c-0.2-0.2-0.2-0.5,0-1.1c0.1-0.2,0.1-0.3,0.1-0.5c0.1-0.4,0-0.8-0.2-1.1c-0.2-0.3-0.5-0.4-0.9-0.5 c-0.3,0-0.9,0.1-1.3,0.8c0,0.1-0.1,0.1-0.1,0.2c-0.1-0.2-0.2-0.4-0.4-0.5c-0.2-0.1-0.3-0.2-0.4-0.2c-0.2-0.2-0.4-0.2-0.6-0.2 c-0.1,0-0.1,0-0.2-0.1c-0.2-0.1-0.3-0.1-0.5-0.1l-0.4-0.3l-0.2-0.3c-0.1-0.2-0.3-0.3-0.5-0.2c-0.1,0-0.2,0.1-0.2,0.2 c0,0.1-0.1,0.1-0.1,0.2c-0.1,0-0.2,0.1-0.2,0.2c0,0,0,0.1-0.1,0.2c0,0.2,0.1,0.4,0.3,0.5L0.7,55l0.4,0.3c0,0.1,0.1,0.3,0.2,0.4 c0.1,0.1,0.1,0.1,0.1,0.2c0.1,0.2,0.1,0.3,0.4,0.5c0,0.1,0.1,0.2,0.3,0.3c0.2,0.2,0.4,0.2,0.6,0.2c0,0,0,0,0.1,0 c0.5,0.5,0.9,0.5,1.2,0.5c0.1,0,0.2,0,0.3-0.1c0,0.2,0,0.3,0,0.4c0.1,0.8,0.7,1.5,1.5,1.8c0.8,0.3,1.8,0.1,2.5-0.5 c0.3-0.3,0.5-0.6,0.8-1c0.5-0.9,0.8-1.9,1.1-2.9c0.3-0.9,0.5-1.7,0.9-2.3c0,0,0-0.1,0.1-0.1c0.5-0.8,1.1-1,1.7-0.7 c0.2,0.1,0.4,0.3,0.5,0.4c-0.7,0.1-1.5,0.5-1.9,1.3c-0.1,0.2-0.2,0.3-0.2,0.5c-0.4,1.3,0.3,2,0.7,2.2c0.2,0.1,0.4,0,0.5-0.1 c0,0,0,0,0-0.1c0.1-0.1,0.1-0.3,0-0.5c-0.2-0.3-0.2-0.8,0-1.3c0.1-0.2,0.5-0.7,1.2-0.7c0,0.3-0.1,0.6-0.2,0.8c0,0,0,0.1,0,0.1 c0,0,0,0,0,0.1c-0.3,1-0.4,1.9-0.1,2.5c-0.5,0.3-0.9,0.7-1.2,1.2c-0.4,0.6-0.6,1.4-0.7,2.2c0,0.1,0,0.2,0,0.3 c-1.5,1.1-1.7,2.6-1.4,3.7c0.4,1.3,1.5,2.2,2.8,2.2c0.1,0,0.2,0,0.3,0c1.1,0,2.2-0.3,3.3-0.6c0.9-0.2,1.8-0.4,2.6-0.5 c0,0,0.1,0,0.1,0c0.5,0,0.8,0.1,1,0.2c0.1,0.1,0.2,0.2,0.1,0.4c0,0.3-0.3,0.4-1,0.5c-0.2,0-0.4,0.1-0.5,0.1 c-0.4,0.1-0.7,0.4-0.8,0.7c-0.1,0.3-0.1,0.7,0,1c0.1,0.3,0.5,0.7,1.3,0.7c0.1,0,0.1,0,0.2,0c-0.1,0.1-0.2,0.3-0.3,0.6 c0,0.2,0,0.3,0,0.4c0,0.3,0,0.5,0.1,0.6c0,0.1,0,0.1,0,0.2c0,0.2,0.1,0.3,0.1,0.5l-0.1,0.5L19,72.8c-0.1,0.2-0.1,0.4,0.1,0.6 c0.1,0.1,0.2,0.1,0.3,0.1c0.1,0,0.1,0,0.2,0c0.1,0.1,0.2,0.1,0.3,0.1c0.1,0,0.1,0,0.2,0c0.2-0.1,0.3-0.3,0.2-0.5l-0.1-0.3l0.1-0.5 c0.1-0.1,0.2-0.2,0.2-0.4c0-0.1,0-0.1,0.1-0.2c0.1-0.1,0.2-0.3,0.3-0.6c0.1-0.1,0.1-0.2,0.1-0.4c0-0.2,0-0.4-0.1-0.6 c0,0,0,0,0-0.1c0.2-0.6,0-1-0.2-1.3c-0.1-0.1-0.1-0.1-0.2-0.2c0.1-0.1,0.3-0.1,0.4-0.2c0.7-0.5,1-1.3,0.9-2.2 c-0.1-0.9-0.8-1.6-1.7-1.9c-0.4-0.1-0.8-0.2-1.3-0.2c-1,0-2,0.3-3.1,0.5C14.9,64.8,14,65,13.4,65c0,0-0.1,0-0.1,0 c-1,0-1.5-0.4-1.5-1.1c0-0.3,0-0.5,0.1-0.7c0.4,0.5,1.2,1,2.1,1c0.2,0,0.4,0,0.6-0.1c1.3-0.3,1.6-1.2,1.5-1.7 c0-0.2-0.2-0.4-0.4-0.4c0,0,0,0-0.1,0c-0.2,0-0.3,0.1-0.4,0.3c-0.2,0.4-0.6,0.6-1.1,0.6c-0.2,0-0.8-0.1-1.2-0.7 c0.3-0.1,0.6-0.2,0.8-0.2c0,0,0.1,0,0.1,0c0,0,0,0,0.1,0c1.1-0.2,1.8-0.6,2.3-1.2c0.5,0.3,1,0.4,1.6,0.4c0.7,0,1.5-0.2,2.2-0.5 c0.1-0.1,0.2-0.1,0.3-0.2c1.7,0.7,3.1,0.1,3.9-0.7c0.9-1,1.2-2.3,0.6-3.5c-0.1-0.1-0.1-0.2-0.2-0.3c-0.5-0.9-1.3-1.8-2.1-2.6 c-0.7-0.7-1.3-1.3-1.7-2c0,0,0-0.1-0.1-0.1c-0.2-0.4-0.3-0.7-0.3-1c0-0.1,0.1-0.2,0.3-0.3c0.2-0.1,0.5,0.1,0.9,0.6 c0.1,0.1,0.2,0.3,0.4,0.4c0.3,0.3,0.7,0.4,1,0.3c0.3,0,0.6-0.2,0.8-0.5c0.2-0.3,0.4-0.8-0.1-1.5c0-0.1-0.1-0.1-0.1-0.2 c0.2,0,0.4,0.1,0.6-0.1c0.2-0.1,0.3-0.2,0.3-0.2c0.3-0.1,0.4-0.3,0.5-0.4c0-0.1,0.1-0.1,0.1-0.1c0.2-0.1,0.3-0.2,0.3-0.4l0.4-0.2 l0.3,0c0.2,0,0.4-0.2,0.4-0.4C26.9,47.3,26.9,47.2,26.8,47.2"></path> <path class="st1" d="M17.6,59.2c-0.4-0.1-0.6-0.3-0.7-0.4c-0.1-0.2,0-0.4,0.5-0.3c0.4,0.1,1,0.6,1.3,0.9 C18.2,59.3,17.9,59.3,17.6,59.2 M16.4,58.9c0.2,0.3,0.5,0.6,1,0.7c0.6,0.2,1.4,0.2,2.1,0c-0.5-0.4-1.4-1.3-2.1-1.5 C16.5,57.7,16.2,58.4,16.4,58.9"></path> <path class="st1" d="M15.4,56.8C15.3,57,15,57,14.9,56.5c-0.1-0.4,0-1.2,0.1-1.6c0.2,0.3,0.3,0.6,0.4,1 C15.5,56.3,15.4,56.6,15.4,56.8 M14.7,54c-0.1,0.6-0.4,1.8-0.2,2.6c0.2,1,0.9,0.9,1.2,0.4c0.2-0.3,0.2-0.7,0.1-1.2 C15.7,55.2,15.3,54.4,14.7,54"></path> </g> </g> </svg> 