<?xml version="1.0" encoding="UTF-8"?> <svg xmlns="http://www.w3.org/2000/svg" xmlns:xlink="http://www.w3.org/1999/xlink" version="1.1" id="Layer_1" x="0px" y="0px" viewBox="0 0 120 60" style="enable-background:new 0 0 120 60;" xml:space="preserve"> <style type="text/css"> .st0{fill-rule:evenodd;clip-rule:evenodd;fill:#25408F;} </style> <g> <polygon class="st0" points="19.3,38.1 22,23.4 28.6,23.4 31.1,38.1 26.8,38.1 25.4,26.6 23.4,38.1 "></polygon> <polygon class="st0" points="35.6,23.3 42.1,23.3 43.5,31.4 45.1,23.3 51.3,23.3 51.3,38.1 47.8,38.1 47.8,27.1 45.5,38.1 41.5,38.1 39.3,27.1 39.3,38.1 35.6,38.1 "></polygon> <path class="st0" d="M71.1,23.3h4.4v10.9c0,0,0,1.2,1,1.2c1.1,0,1-1.2,1-1.2V23.3H82v11.3c0,0,0.1,3.5-5.4,3.5s-5.5-3.5-5.5-3.5 L71.1,23.3z"></path> <polygon class="st0" points="87,23.3 91.9,23.3 96.1,32 96.1,23.3 99.8,23.3 99.8,38.1 95.4,38.1 91,28.8 91,38.1 87,38.1 "></polygon> <path class="st0" d="M110.1,22.8c5.3,0,4.9,2.8,4.9,2.8v2.2h-3.8l0-1.2c0,0,0.1-1-1-1c-1.1,0-1.2,1-1.2,1v8c0,0-0.2,1,1.1,1 c0.8,0,0.8-0.7,0.8-0.7v-2.7h-0.8V30h4.8v6.1c0,0,0.4,2.5-4.9,2.5c-5.3,0-5.3-2.4-5.3-2.4V25.7C104.9,25.7,104.9,22.8,110.1,22.8"></path> <path class="st0" d="M61.6,22.9c4,0,4.7,2.2,4.7,2.2l0,2.4h-3.8c0,0,0-0.7,0-1.1c-0.1-0.4-1-1.3-2-0.1c-0.3,0.8-0.2,1.3,0.5,1.7 s4.5,2.2,5,3c0.5,0.8,0.7,1.6,0.7,3.4c0,2.6-1.5,4.2-5.2,4.2c-3.7,0-5.4-1.7-5.4-3c0-1.3,0-2.4,0-2.4h3.9c0,0,0,1.2,0,1.6 s0.5,0.8,1.4,0.8c0.8,0,1.4-0.8,0.9-1.9c-1.5-0.8-5.1-3.5-5.1-3.5s-1.1-0.8-1.1-3.5C56.2,24.1,57.7,22.8,61.6,22.9"></path> <path class="st0" d="M10.5,22.8c4,0,4.7,2.2,4.7,2.2l0,2.4h-3.8c0,0,0-0.7,0-1.1c-0.1-0.4-1-1.3-2-0.1c-0.3,0.8-0.2,1.3,0.5,1.7 s4.5,2.2,5,3s0.7,1.6,0.7,3.4c0,2.6-1.5,4.2-5.2,4.2S5,36.9,5,35.6c0-1.3,0-2.4,0-2.4h3.9c0,0,0,1.2,0,1.6s0.5,0.8,1.4,0.8 c0.8,0,1.4-0.8,0.9-1.9c-1.5-0.8-5.1-3.5-5.1-3.5S5,29.4,5,26.7S6.5,22.8,10.5,22.8"></path> </g> </svg> 