<?xml version="1.0" encoding="UTF-8"?> <svg xmlns="http://www.w3.org/2000/svg" xmlns:xlink="http://www.w3.org/1999/xlink" version="1.1" id="Logo" x="0px" y="0px" viewBox="0 0 120 60" style="enable-background:new 0 0 120 60;" xml:space="preserve"> <style type="text/css"> .st0{fill-rule:evenodd;clip-rule:evenodd;} </style> <path class="st0" d="M64.1,25.7h1.7v8.6h-2.1l-2.5-4c-0.4-0.7-0.8-1.4-0.8-1.4l0,0v5.4h-1.7v-8.6h2l2.9,4.7c0.3,0.5,0.5,1,0.5,1l0,0 L64.1,25.7z M73.7,29.2h-2.9v-3.5h-2.1v8.6h2.1v-3.7h2.9v3.7h2.1v-8.6h-2.1V29.2z M42.7,30.6h2.7v-1.3h-2.7V27h3.7v-1.3h-5.8v8.6 h5.9v-1.4h-3.7L42.7,30.6z M35.1,27.7c-0.2-0.2,0-0.6,0.3-0.6h3.2v-1.3h-3.7c-1.1,0-1.9,0.9-1.9,1.7c0,0.5,0,0.9,0.8,1.7l2.8,2.9 c0.4,0.4,0.1,0.9-0.3,0.9h-3.5v1.4h4c1.1,0,2.1-0.8,2.1-2c0-0.6-0.1-1-0.9-1.7L35.1,27.7z M54.1,31.4L54.1,31.4c0,0-0.2-0.4-0.5-1 l-2.9-4.7h-2v8.6h1.7v-5.4l0,0c0,0,0.4,0.7,0.8,1.4l2.5,4h2.1v-8.6h-1.7L54.1,31.4z M100.9,30.6h2.7v-1.3h-2.7V27h3.7v-1.3h-5.8v8.6 h5.9v-1.4h-3.7L100.9,30.6z M114,34.3h-2.3l-1.7-3.5h-0.9v3.5h-2.1v-8.6h3.9c1.9,0,2.7,1.2,2.7,2.5c0,0.9-0.5,1.9-1.7,2.3L114,34.3z M111.7,28.2c0-0.4-0.2-1.2-1.4-1.2h-1.3v2.4h1.3C111.5,29.5,111.7,28.6,111.7,28.2z M93.2,27.7c-0.2-0.2,0-0.6,0.3-0.6h3.2v-1.3H93 c-1.1,0-1.9,0.9-1.9,1.7c0,0.5,0,0.9,0.8,1.7l2.8,2.9c0.4,0.4,0.1,0.9-0.3,0.9h-3.5v1.4h4c1.1,0,2.1-0.8,2.1-2c0-0.6-0.1-1-0.9-1.7 L93.2,27.7z M80.8,30.6h2.7v-1.3h-2.7V27h3.7v-1.3h-5.8v8.6h5.9v-1.4h-3.7V30.6z M86.9,34.3H89v-8.6h-2.1V34.3z M6,22.7v14.5h19.4 V22.7C25.4,22.7,6,22.7,6,22.7z M16.7,24.1L16.7,24.1c-1.2,0.4-2.3,1.4-3.2,3.4c-0.3,0.6-0.7,1.7-1,2.2c-1.8,3.9-2.7,4.8-5.4,4.8 V23.8h9.5l0,0c0.1,0,0.1,0,0.1,0.1C16.8,24,16.8,24,16.7,24.1z M24.3,25.6v10.6h-9.5c-0.1,0-0.1,0-0.1-0.1c0-0.1,0-0.1,0.1-0.1l0,0 c1.2-0.4,2.3-1.4,3.2-3.4c0.3-0.6,0.7-1.7,1-2.2C20.7,26.5,21.6,25.6,24.3,25.6z"></path> </svg> 