<?xml version="1.0" encoding="UTF-8"?> <svg xmlns="http://www.w3.org/2000/svg" xmlns:xlink="http://www.w3.org/1999/xlink" version="1.1" id="Layer_1" x="0px" y="0px" viewBox="0 0 120 60" style="enable-background:new 0 0 120 60;" xml:space="preserve"> <style type="text/css"> .st0{fill-rule:evenodd;clip-rule:evenodd;fill:#ED1F50;} </style> <g> <path class="st0" d="M43.1,41.5c0.1-3.1,0-6.7,0-9.9c0-0.6-0.1-0.5,0.2-0.9c1.1-1.3,3.5-1.7,4,0.3c0.2,0.8,0.1,3.3,0.1,4.3 c0,1.4,0,2.9,0,4.3c0,0.8-0.1,1.3,0.4,1.8c1.1,1.1,4.3,0.5,5.4,0.1c0-1.4,0-2.9,0-4.4l0-5.5c0-0.5-0.1-0.5,0.2-0.9 c1.3-1.6,3.6-1.6,4,0.2c0.2,0.8,0.1,3.3,0.1,4.3c0,1.4,0,2.9,0,4.3c0,0.8-0.1,1.3,0.4,1.8c1.2,1.2,4.1,0.4,5.4,0.1 c0.1-2.4,0-4.9,0-7.3c0-2.3,0.3-4.8-0.9-6.4c-1.7-2.4-5.1-3-7.9-1.5c-1.2,0.7-1.4,1.2-1.9,1.7c-0.3-0.5-0.4-0.6-0.8-1 c-0.9-0.9-2.7-1.3-4.1-1.3c-1.4,0-3,0.4-4.1,1.2c-0.4,0.3-0.9,0.8-0.9,0.8c-0.1-0.8-0.1-1.1-0.6-1.6c-0.4-0.3-1-0.5-1.6-0.5 c-0.7,0-1.4,0-2,0.1c-0.2,0-1.7,0.2-1.7,0.4L37.2,40c0,1,0.3,1.5,1.1,1.7c0.8,0.3,1.7,0.2,2.5,0.2C41.3,41.9,42.8,41.6,43.1,41.5 L43.1,41.5z"></path> <path class="st0" d="M82.7,31.7c0-0.8,0.7-1.8,1.4-2.2c2.1-1.1,3.5,0.9,3.2,2.2L82.7,31.7L82.7,31.7z M83.1,25.8 c-0.8,0.2-1.4,0.4-2.1,0.7c-1.2,0.6-2.3,1.5-3,2.6c-0.4,0.5-0.7,1.2-0.9,1.9c-1,3.2,0.1,6.9,1.9,8.6c0.5,0.5,0.9,0.8,1.6,1.2 c0.6,0.3,1.2,0.6,2,0.8c2.6,0.7,7.1,0.6,9.1-1.3c0.9-0.8,1.7-2.5,0.7-3.9c-0.1-0.2-0.8-0.8-1.2-0.5c-0.1,0.1-0.1,0.1-0.2,0.2 c-0.9,0.8-2.5,1.3-3.7,1.4c-1.7,0.1-3.1-0.4-4-1.7c-0.2-0.3-0.5-0.9-0.6-1.3c0.6-0.1,6.2,0,7.3,0c1.2,0,2.1-0.3,2.5-1.1 c0.4-0.8,0.5-2.2,0.3-3.2c-0.4-2-1.7-3.4-3.2-4.1c-0.9-0.4-1.9-0.6-3-0.7C85.1,25.4,84.3,25.6,83.1,25.8L83.1,25.8z"></path> <path class="st0" d="M76.7,25.8l-4.1,0c-0.1-1.1,0.1-2.8,0.8-3.3c0.4-0.3,1-0.4,1.7-0.3c0.7,0.1,1.3,0.4,1.6,0.4 c0.3-0.5,0.5-0.9,0.6-1.6c0-0.7-0.2-1.3-0.5-1.7c-0.6-0.8-1.6-1.2-2.9-1.4c-3.4-0.2-5.5,1.9-6.4,4.7c-0.5,1.5-0.3,1.9-0.5,3.1 c-0.2,0.1-0.5,0.1-0.7,0.2c-1.2,0.4-1.7,1.5-1.4,2.7c0.1,0.6,0.3,0.8,0.5,1.2l1.8,0c0.1,0.5,0,8.5,0,9.2c0,0.7-0.1,1.5,0.2,2.1 c0.9,1.5,4.5,0.6,5.7,0.4l0-11.7c1.5-0.1,2.6,0.2,3.4-0.8C77.1,28.3,77.4,26.8,76.7,25.8L76.7,25.8z"></path> <path class="st0" d="M14.3,36.4c-0.3,0.4-1,0.9-1.1,1.9c-0.1,1,0.5,1.7,1,2.1c1.1,0.9,2.8,1.4,4.6,1.6c3.9,0.4,7.3-0.8,8-4.2 c0.5-2.1-0.1-3.6-1.4-4.4c-2.3-1.6-6.3-1.2-6.7-2.4c-0.3-1,1.1-1.1,1.9-1.1c1.7,0,3.7,0.5,5,1.2c0.7-0.5,1.6-1.9,1.1-3.2 C25.3,24.7,14.9,24,13.3,30c-0.2,0.9-0.2,1.9,0,2.8c0.3,0.9,0.7,1.4,1.3,1.8c2.2,1.8,6.7,1,6.7,2.5c0,1.7-5,0.1-6-0.2 C15,36.8,14.6,36.5,14.3,36.4L14.3,36.4z"></path> <path class="st0" d="M94.6,36.2c0,1,0,2,0,3c0,1-0.1,1.9,0.7,2.3c1.3,0.8,3.8,0.3,5.2-0.1c0.1-1.8,0-4.3,0-6.2c0-0.3,0-0.7,0-1 c0-0.5,0-0.5,0.2-0.9c0.6-1,1.1-1.8,1.9-2.3c1.2-0.8,1.9-0.6,3.4-0.6c0.4-0.4,0.8-1.3,0.8-2.1c0.1-1-0.2-1.7-0.7-2.2 c-1.3-1.1-3.5-0.7-4.8,1.1c-0.2,0.3-0.3,0.5-0.4,0.7c-0.1,0.2-0.2,0.5-0.4,0.8c-0.3-0.6,0.5-2.7-1.7-3.1c-1.2-0.2-3.2,0.1-4.2,0.4 L94.6,36.2L94.6,36.2z"></path> <path class="st0" d="M28.6,40c0,1.4,0.8,1.9,2.3,2c0.8,0,2.9-0.2,3.6-0.5c0-4.1,0-8.4,0-12.5c0-1,0-2.1-0.6-2.7 c-1.1-1-3.3-0.6-4.8-0.3c-0.7,0.2-0.6,0-0.6,0.6L28.6,40L28.6,40z"></path> <path class="st0" d="M31.1,17.9c-4,0.5-3.5,6.3,0.9,5.8c1.6-0.2,2.9-1.5,2.7-3.3C34.4,18.7,32.8,17.7,31.1,17.9L31.1,17.9z"></path> </g> </svg> 