<?xml version="1.0" encoding="UTF-8"?> <svg xmlns="http://www.w3.org/2000/svg" xmlns:xlink="http://www.w3.org/1999/xlink" version="1.1" id="Layer_1" x="0px" y="0px" viewBox="0 0 120 60" style="enable-background:new 0 0 120 60;" xml:space="preserve"> <style type="text/css"> .st0{fill:#ED174F;} .st1{fill-rule:evenodd;clip-rule:evenodd;fill:#ED174F;} .st2{fill:#A9B2BE;} .st3{fill:url(#SVGID_1_);} .st4{fill:url(#SVGID_00000127016424362916540200000013035593767330039737_);} .st5{fill:url(#SVGID_00000171708670558058246630000009607796403503084448_);} .st6{fill:url(#SVGID_00000111893428075693803580000012287188208575330477_);} .st7{fill:#848D95;} .st8{fill:url(#SVGID_00000065035409251632882530000002858970055052199566_);} .st9{fill:url(#SVGID_00000164489691447041263170000001556835915095512466_);} .st10{fill:url(#SVGID_00000075879792336241899860000002021940706041209219_);} .st11{fill:url(#SVGID_00000018935489813032868230000000522269906959515783_);} .st12{fill:url(#SVGID_00000078735641534177970110000003285079934731398047_);} .st13{fill:url(#SVGID_00000044887050010707040990000003741513552292588206_);} .st14{opacity:0.4;fill:#FFFFFF;enable-background:new ;} .st15{fill:#FFFFFF;} .st16{fill:url(#SVGID_00000137813520261749120870000005765132350744184505_);} .st17{fill:url(#SVGID_00000143605108830485932420000013273016708417297039_);} .st18{fill:url(#SVGID_00000044888234532574878140000005715474325930877374_);} .st19{fill:url(#SVGID_00000016783590939433579790000013354638753844283030_);} .st20{fill:url(#SVGID_00000069374548832626680960000000119888637778867101_);} .st21{fill:url(#SVGID_00000090296988207368131080000005810987559885060533_);} .st22{fill:url(#SVGID_00000134241689810074256840000007220382707038752899_);} </style> <g id="Layer_2_00000116202479547866912510000009695129869788702131_"> </g> <g> <g id="Layer_1_00000173155454722085498840000002119248701682901951_"> <path class="st0" d="M41.3,29.1c0,0-2.8,0.2-2.8-1.4c0-1.5,2-1.4,2.2-1.4c2.5,0,4.2,1.3,4.2,1.3v-3.2l-0.7,0.6 c0,0-2.4-0.7-3.7-0.7s-4.7,0.6-4.7,3.7S39.8,31,40,31c0.3,0,2.6-0.2,2.7,1.4c0.1,1.4-1.7,1.5-2.5,1.4c-2.9-0.1-4.2-1.9-4.2-1.9 v3.7l0.8-0.7c0,0,1,0.9,3.6,0.9c2.5,0,5-0.9,5-3.7C45.4,29.1,41.3,29.1,41.3,29.1z"></path> <polygon class="st0" points="52.4,25.8 53.1,25 49.3,25 49.9,25.7 49.9,34.8 49,35.6 53.2,35.6 52.4,34.8 "></polygon> <polygon class="st0" points="69.3,25.2 65.5,25.2 66.3,25.8 66.3,31.5 61.2,25.2 57.7,25.2 58.2,25.6 58.2,34.8 57.2,35.7 61.2,35.7 60.6,34.9 60.6,28.4 65.9,35.7 69.1,35.7 68.6,35 68.6,25.8 "></polygon> <path class="st0" d="M80.9,31.3v1.4c0,0-0.4,1.5-2.3,1.5s-3.5-0.9-3.5-3.8c0-2.9,2.4-3.6,3.4-3.6c2.5,0,4,1.6,4,1.6v-3.2l-0.5,0.5 c0,0-1.4-0.8-3.2-0.8c-1.8,0-5.8,0.5-5.8,5.7s4.8,5.5,5.7,5.5c3.5,0,4.6-2.1,4.6-2.1v-2.6l0.7-0.9h-3.7L80.9,31.3z"></path> <polygon class="st0" points="90.6,33.9 90.6,31.5 94.8,31.5 95.6,32.2 95.6,28.7 94.9,29.5 90.6,29.5 90.6,27.2 95.5,27.2 96.4,28.1 96.4,25.3 87.5,25.3 88.1,25.8 88.1,35.2 87.4,36 96.9,36 96.9,33 95.9,33.9 "></polygon> <path class="st0" d="M107.3,30.2h-3.3v-2.8h3.2c0,0,1.4-0.1,1.4,1.4C108.6,30.2,107.3,30.2,107.3,30.2z M111.9,35.9l-1-0.7 l-2.2-3.3c1-0.3,2.3-1.1,2.3-3c0-3.4-3.2-3.6-3.2-3.6h-7.3l0.8,0.8v9.1l-0.5,0.7h3.7l-0.5-0.8v-3h2l2.1,3.1l-0.4,0.6H111.9z"></path> </g> <g id="Layer_3"> <path class="st1" d="M112.5,25.6c-0.3,0-0.6,0.2-0.7,0.4c-0.1,0.1-0.1,0.3-0.1,0.4c0,0.2,0.1,0.4,0.2,0.6c0.2,0.2,0.4,0.2,0.6,0.2 c0.2,0,0.4-0.1,0.6-0.2s0.2-0.3,0.2-0.6c0-0.2-0.1-0.4-0.2-0.6C112.9,25.7,112.7,25.6,112.5,25.6L112.5,25.6z M112.5,25.7 c0.2,0,0.3,0.1,0.5,0.2c0.1,0.1,0.2,0.3,0.2,0.5c0,0.2-0.1,0.3-0.2,0.5c-0.1,0.1-0.3,0.2-0.5,0.2c-0.2,0-0.3-0.1-0.5-0.2 c-0.1-0.1-0.2-0.3-0.2-0.5c0-0.2,0.1-0.3,0.2-0.5C112.1,25.8,112.3,25.7,112.5,25.7L112.5,25.7z M112.1,25.9v0.9h0.2v-0.4h0.1 l0.2,0.4h0.2l-0.2-0.4c0.1,0,0.2-0.1,0.2-0.2c0-0.2-0.1-0.3-0.4-0.3H112.1L112.1,25.9z M112.3,26.1h0.1c0.1,0,0.2,0.1,0.2,0.1 c0,0.1-0.1,0.1-0.2,0.1h-0.1V26.1L112.3,26.1z"></path> <g> <path class="st2" d="M8.5,30c0-4.2,2.1-7.8,5.2-9.4l-0.7-1.5c-3.6,1.8-6.2,6-6.2,10.9c0,1.5,0.2,2.9,0.7,4.2L9,33.6 C8.6,32.5,8.5,31.3,8.5,30z"></path> <radialGradient id="SVGID_1_" cx="18.7422" cy="39.9071" r="5.1208" gradientTransform="matrix(1 0 0 -1 0 59.8898)" gradientUnits="userSpaceOnUse"> <stop offset="0" style="stop-color:#FFFFFF"></stop> <stop offset="1" style="stop-color:#A9B2BE"></stop> </radialGradient> <path class="st3" d="M16.9,19.8c2.4,0,4.6,1.2,6.1,3.2l1.6-0.8c-1.9-2.5-4.6-4.1-7.7-4.1c-1.4,0-2.8,0.3-4,1l0.7,1.5 C14.6,20.1,15.7,19.8,16.9,19.8z"></path> <radialGradient id="SVGID_00000071520123636266108170000017801874452755221695_" cx="124.8926" cy="131.4166" r="2.5988" gradientTransform="matrix(0.6445 0.3141 0.8962 -1.8388 -188.3224 227.4452)" gradientUnits="userSpaceOnUse"> <stop offset="0" style="stop-color:#FFFFFF"></stop> <stop offset="0.2039" style="stop-color:#F6F7F8"></stop> <stop offset="0.4428" style="stop-color:#E5E7EA"></stop> <stop offset="0.6991" style="stop-color:#CCD1D7"></stop> <stop offset="0.9662" style="stop-color:#ADB6C1"></stop> <stop offset="1" style="stop-color:#A9B2BE"></stop> </radialGradient> <path style="fill:url(#SVGID_00000071520123636266108170000017801874452755221695_);" d="M11.6,25.8c-1.3,2.6-3.1,4.4-4,4 s-0.6-3,0.7-5.6c1.3-2.6,3.1-4.4,4-4C13.2,20.7,12.9,23.2,11.6,25.8z"></path> <linearGradient id="SVGID_00000120550861666853180570000014167422443738671292_" gradientUnits="userSpaceOnUse" x1="22.5097" y1="19.3126" x2="20.5746" y2="37.0831" gradientTransform="matrix(1 0 0 -1 0 59.8898)"> <stop offset="0" style="stop-color:#808C94"></stop> <stop offset="0.498" style="stop-color:#97A2AC"></stop> <stop offset="0.7978" style="stop-color:#A9B2BE"></stop> <stop offset="1" style="stop-color:#A9B2BE"></stop> </linearGradient> <path style="fill:url(#SVGID_00000120550861666853180570000014167422443738671292_);" d="M27.1,30c0-3-0.9-5.7-2.5-7.7L23,23.1 c1.4,1.8,2.3,4.3,2.3,7c0,5.6-3.8,10.1-8.4,10.1v1.7C22.5,41.8,27.1,36.5,27.1,30z"></path> <linearGradient id="SVGID_00000039821207609146529600000007451504882602866108_" gradientUnits="userSpaceOnUse" x1="15.8791" y1="18.5246" x2="8.0676" y2="24.7786" gradientTransform="matrix(1 0 0 -1 0 59.8898)"> <stop offset="0" style="stop-color:#808C94"></stop> <stop offset="0.2231" style="stop-color:#86929B"></stop> <stop offset="0.5438" style="stop-color:#9AA4AF"></stop> <stop offset="0.7268" style="stop-color:#A9B2BE"></stop> </linearGradient> <path style="fill:url(#SVGID_00000039821207609146529600000007451504882602866108_);" d="M16.9,40.2c-3.6,0-6.6-2.7-7.9-6.5 l-1.6,0.6c1.5,4.5,5.2,7.6,9.5,7.6l0,0L16.9,40.2L16.9,40.2z"></path> <rect x="15.9" y="39.9" class="st7" width="2.4" height="1.2"></rect> <linearGradient id="SVGID_00000142166427120250668050000015185088444621545896_" gradientUnits="userSpaceOnUse" x1="26.8792" y1="20.0482" x2="22.9225" y2="42.4879" gradientTransform="matrix(1 0 0 -1 0 59.8898)"> <stop offset="0" style="stop-color:#848D95"></stop> <stop offset="0.2879" style="stop-color:#959CA3"></stop> <stop offset="0.7978" style="stop-color:#BCC0C7"></stop> <stop offset="0.9205" style="stop-color:#CBD0D6"></stop> <stop offset="1" style="stop-color:#D3D8DE"></stop> </linearGradient> <path style="fill:url(#SVGID_00000142166427120250668050000015185088444621545896_);" d="M25,30c0,0.8-0.1,1.7-0.3,2.5l1.6,0.3 c0.2-0.9,0.3-1.9,0.3-2.8c0-3.6-1.4-6.7-3.6-8.9L22,22.4C23.9,24.2,25,27,25,30z"></path> <linearGradient id="SVGID_00000011002847822395452050000009357986297516019887_" gradientUnits="userSpaceOnUse" x1="21.2595" y1="19.0572" x2="17.3032" y2="41.4949" gradientTransform="matrix(1 0 0 -1 0 59.8898)"> <stop offset="0" style="stop-color:#848D95"></stop> <stop offset="0.2879" style="stop-color:#959CA3"></stop> <stop offset="0.7978" style="stop-color:#BCC0C7"></stop> <stop offset="0.9205" style="stop-color:#CBCFD5"></stop> <stop offset="1" style="stop-color:#D3D6DD"></stop> </linearGradient> <path style="fill:url(#SVGID_00000011002847822395452050000009357986297516019887_);" d="M24.8,32.5c-0.9,4.2-4.1,7.4-7.9,7.4 c-0.6,0-1.1-0.1-1.6-0.2l-0.4,1.6c0.7,0.2,1.3,0.3,2.1,0.3c4.6,0,8.4-3.7,9.5-8.6L24.8,32.5z"></path> <linearGradient id="SVGID_00000119091127809329781160000007748450815908413081_" gradientUnits="userSpaceOnUse" x1="12.8577" y1="17.5757" x2="8.9011" y2="40.0146" gradientTransform="matrix(1 0 0 -1 0 59.8898)"> <stop offset="0" style="stop-color:#848D95"></stop> <stop offset="0.2879" style="stop-color:#959CA3"></stop> <stop offset="0.7978" style="stop-color:#BCC0C7"></stop> <stop offset="0.9205" style="stop-color:#CBCFD5"></stop> <stop offset="1" style="stop-color:#D3D6DD"></stop> </linearGradient> <path style="fill:url(#SVGID_00000119091127809329781160000007748450815908413081_);" d="M10.4,36.1l-1.4,1 c1.4,2.1,3.4,3.6,5.7,4.2l0.4-1.6C13.3,39.2,11.6,37.9,10.4,36.1z"></path> <linearGradient id="SVGID_00000140705881782880372320000014146946133045162884_" gradientUnits="userSpaceOnUse" x1="26.1243" y1="27.8267" x2="23.4307" y2="37.8793" gradientTransform="matrix(1 0 0 -1 0 59.8898)"> <stop offset="2.000000e-02" style="stop-color:#76848D"></stop> <stop offset="0.6393" style="stop-color:#808C94"></stop> <stop offset="0.98" style="stop-color:#B2BAC4"></stop> </linearGradient> <path style="fill:url(#SVGID_00000140705881782880372320000014146946133045162884_);" d="M25,30c0,0.8-0.1,1.7-0.3,2.5l1.5,0.4 c0.2-0.9,0.4-1.9,0.4-2.8c0-3.8-1.3-6.8-3.5-8.9L22,22.4C23.9,24.2,25,27,25,30z"></path> <radialGradient id="SVGID_00000135667942783037094490000003282738327454189483_" cx="20.5182" cy="22.8772" r="5.1434" gradientTransform="matrix(1 0 0 -1 0 59.8898)" gradientUnits="userSpaceOnUse"> <stop offset="0" style="stop-color:#D3D6DD"></stop> <stop offset="0.4494" style="stop-color:#FFFFFF"></stop> <stop offset="0.4708" style="stop-color:#ECEDED"></stop> <stop offset="0.5801" style="stop-color:#B4B9BE"></stop> <stop offset="0.6754" style="stop-color:#919AA2"></stop> <stop offset="0.7519" style="stop-color:#7D8A92"></stop> <stop offset="0.8" style="stop-color:#76848D"></stop> </radialGradient> <path style="fill:url(#SVGID_00000135667942783037094490000003282738327454189483_);" d="M24.8,32.5c-0.9,4.2-4.1,7.4-7.9,7.4 c-0.6,0-1.1-0.1-1.6-0.2l-0.4,1.6c0.7,0.2,1.3,0.3,2.1,0.3c4.6,0,8.3-3.7,9.4-8.6L24.8,32.5z"></path> <linearGradient id="SVGID_00000050638658247271217410000015436445561371816371_" gradientUnits="userSpaceOnUse" x1="14.5089" y1="19.3845" x2="9.8705" y2="22.835" gradientTransform="matrix(1 0 0 -1 0 59.8898)"> <stop offset="0" style="stop-color:#76848D"></stop> <stop offset="0.4958" style="stop-color:#8C98A2"></stop> <stop offset="0.9945" style="stop-color:#A9B2BE"></stop> </linearGradient> <path style="fill:url(#SVGID_00000050638658247271217410000015436445561371816371_);" d="M10.4,36.1l-1.4,1 c1.4,2.1,3.4,3.6,5.7,4.2l0.4-1.6C13.3,39.2,11.6,37.9,10.4,36.1z"></path> <path class="st14" d="M16.9,19.5c-4.8,0-8.8,4.7-8.8,10.5s3.9,10.5,8.8,10.5c4.8,0,8.8-4.7,8.8-10.5 C25.7,24.2,21.7,19.5,16.9,19.5z M16.9,40.3c-4.7,0-8.6-4.6-8.6-10.3c0-5.7,3.9-10.3,8.6-10.3c4.7,0,8.6,4.6,8.6,10.3 S21.6,40.3,16.9,40.3z"></path> <g> <path class="st15" d="M16.9,40.4c-4.8,0-8.6-4.6-8.6-10.3s3.9-10.3,8.6-10.3s8.6,4.6,8.6,10.3C25.5,35.7,21.6,40.4,16.9,40.4z M25.6,30c0-5.8-3.9-10.5-8.8-10.5c-4.8,0-8.8,4.7-8.8,10.5s3.9,10.5,8.8,10.5S25.6,35.8,25.6,30z"></path> </g> <linearGradient id="SVGID_00000155128105506188711040000014711876197673146768_" gradientUnits="userSpaceOnUse" x1="16.8664" y1="39.6316" x2="16.8664" y2="24.84" gradientTransform="matrix(1 0 0 -1 0 59.8898)"> <stop offset="0" style="stop-color:#FFFFFF"></stop> <stop offset="0.3224" style="stop-color:#F59096"></stop> <stop offset="0.366" style="stop-color:#F37B82"></stop> <stop offset="0.4257" style="stop-color:#F1606E"></stop> <stop offset="0.4877" style="stop-color:#EF475F"></stop> <stop offset="0.5521" style="stop-color:#EE3156"></stop> <stop offset="0.6204" style="stop-color:#EE1E51"></stop> <stop offset="0.6995" style="stop-color:#ED174F"></stop> <stop offset="1" style="stop-color:#CB1849"></stop> </linearGradient> <path style="fill:url(#SVGID_00000155128105506188711040000014711876197673146768_);" d="M16.9,39.9c-4.5,0-8.1-4.4-8.1-9.8 s3.6-9.8,8.1-9.8S25,24.6,25,30S21.3,39.9,16.9,39.9z"></path> <linearGradient id="SVGID_00000156569775195180037830000014899617452700880009_" gradientUnits="userSpaceOnUse" x1="14.3702" y1="20.3893" x2="25.009" y2="35.2665" gradientTransform="matrix(1 0 0 -1 0 59.8898)"> <stop offset="0.1639" style="stop-color:#BC2549"></stop> <stop offset="0.3661" style="stop-color:#A71E3F"></stop> <stop offset="0.7978" style="stop-color:#C82140"></stop> <stop offset="1" style="stop-color:#E9ACB9"></stop> </linearGradient> <path style="fill:url(#SVGID_00000156569775195180037830000014899617452700880009_);" d="M22.5,23c1,1.6,1.4,3.6,1.4,5.8 c0,5.4-3.5,9.8-7.7,9.8c-2.1,0-4-1-5.4-2.7L10.5,36c1.5,2.3,3.9,3.8,6.4,3.8c4.4,0,8-4.3,8-9.7C24.9,27.3,24,24.7,22.5,23z"></path> <linearGradient id="SVGID_00000002365567006528134390000014549885097729146764_" gradientUnits="userSpaceOnUse" x1="22.9264" y1="36.2338" x2="12.666" y2="22.6725" gradientTransform="matrix(1 0 0 -1 0 59.8898)"> <stop offset="0" style="stop-color:#F06D77"></stop> <stop offset="0.3443" style="stop-color:#CE254B"></stop> <stop offset="0.6284" style="stop-color:#B21842"></stop> <stop offset="0.8728" style="stop-color:#B31843"></stop> <stop offset="0.9724" style="stop-color:#B51846"></stop> <stop offset="1" style="stop-color:#B61847"></stop> </linearGradient> <path style="fill:url(#SVGID_00000002365567006528134390000014549885097729146764_);" d="M22.7,23.8c0,0-0.7-1.1-1.8-1.9 c0,0-0.3-0.2-0.3,0.1c0.1,1.8-1.2,5.1-3.6,8.3c-2.3,3-4.9,5.2-6.6,5.7c0.5,0.8,1.2,1.5,1.9,2.1c2.1,0,5.2-2.1,7.6-5.5 C22.2,29.3,23.3,25.8,22.7,23.8z"></path> <linearGradient id="SVGID_00000159456463918194418060000004236177690916993428_" gradientUnits="userSpaceOnUse" x1="16.8664" y1="39.5765" x2="16.8664" y2="20.204" gradientTransform="matrix(1 0 0 -1 0 59.8898)"> <stop offset="0" style="stop-color:#F0C9D0"></stop> <stop offset="0.5027" style="stop-color:#A93150"></stop> <stop offset="1" style="stop-color:#761336"></stop> </linearGradient> <path style="fill:url(#SVGID_00000159456463918194418060000004236177690916993428_);" d="M16.9,20.1c-4.5,0-8.2,4.5-8.2,9.9 c0,5.5,3.7,9.9,8.2,9.9S25,35.5,25,30S21.4,20.1,16.9,20.1z M16.9,39.7c-4.4,0-8-4.3-8-9.7c0-5.3,3.6-9.7,8-9.7s8,4.4,8,9.7 C24.8,35.4,21.3,39.7,16.9,39.7z"></path> <linearGradient id="SVGID_00000183927568734534159620000008753177061362923169_" gradientUnits="userSpaceOnUse" x1="16.8664" y1="19.6753" x2="16.8664" y2="40.2646" gradientTransform="matrix(1 0 0 -1 0 59.8898)"> <stop offset="0" style="stop-color:#435459"></stop> <stop offset="0.1196" style="stop-color:#49595E"></stop> <stop offset="0.2919" style="stop-color:#5B686E"></stop> <stop offset="0.4962" style="stop-color:#78838C"></stop> <stop offset="0.7233" style="stop-color:#A8B2BD"></stop> <stop offset="0.7268" style="stop-color:#A9B2BE"></stop> </linearGradient> <path style="fill:url(#SVGID_00000183927568734534159620000008753177061362923169_);" d="M16.9,19.8c-4.7,0-8.5,4.6-8.5,10.2 s3.8,10.2,8.5,10.2s8.5-4.6,8.5-10.2S21.6,19.8,16.9,19.8z M16.9,39.9c-4.5,0-8.2-4.5-8.2-9.9s3.7-9.9,8.2-9.9S25,24.5,25,30 C25,35.5,21.4,39.9,16.9,39.9z"></path> <path d="M16.9,19.8c-4.7,0-8.4,4.6-8.4,10.2c0,5.6,3.8,10.2,8.4,10.2c4.7,0,8.4-4.6,8.4-10.2S21.5,19.8,16.9,19.8z M16.9,39.8 c-4.4,0-8-4.4-8-9.8c0-5.4,3.6-9.8,8-9.8s8,4.4,8,9.8C24.9,35.4,21.3,39.8,16.9,39.8z"></path> <g> <path class="st15" d="M12.4,31.8l-0.2-0.2V35c0.7-0.5,1.4-1.1,2.2-1.8C13.1,32.6,12.5,31.8,12.4,31.8z"></path> <path class="st15" d="M17.9,29c-0.2,0-0.3,0-0.3,0l0,0c0,0-1.7,0.1-2.4-0.6c-0.2-0.2-0.3-0.4-0.3-0.7c0-0.3,0.1-0.6,0.3-0.8 c0.2-0.2,0.7-0.5,1.7-0.4H17c0.8,0,1.6,0.2,2.2,0.4c0.3-0.7,0.6-1.3,0.8-1.9c-0.7-0.2-2.2-0.6-3.3-0.6c-1.6,0-4.7,0.8-4.7,3.7 c0,0.8,0.2,1.4,0.7,1.9c1,1,2.8,1.1,3.5,1.1c0,0,0.1,0,0.1,0c0.2-0.2,0.4-0.5,0.6-0.7C17.3,29.9,17.6,29.4,17.9,29z"></path> </g> <path class="st15" d="M19.8,32.6C19,33.9,18,34.9,17,35.8c1.6-0.1,4.7-0.6,4.7-3.7c0-0.7-0.2-1.2-0.5-1.6 C20.8,31.2,20.4,31.9,19.8,32.6z"></path> <g> <linearGradient id="SVGID_00000023252139122272816620000008942510182579050422_" gradientUnits="userSpaceOnUse" x1="23.5351" y1="31.8349" x2="20" y2="34.4651" gradientTransform="matrix(1 0 0 -1 0 59.8898)"> <stop offset="0" style="stop-color:#FFFFFF"></stop> <stop offset="1" style="stop-color:#F8E8EA"></stop> </linearGradient> <path style="fill:url(#SVGID_00000023252139122272816620000008942510182579050422_);" d="M21,27.7l0.2,0.1v-3.5L21,24.4 c0,0-0.6,0.5-0.6,0.6c-0.1,0-0.2-0.1-0.3-0.1c-0.2,0.6-0.5,1.2-0.8,1.9C20.3,27.2,21,27.7,21,27.7z"></path> <linearGradient id="SVGID_00000010309636802728268360000004531602302940889250_" gradientUnits="userSpaceOnUse" x1="18.7364" y1="25.3845" x2="15.2013" y2="28.0147" gradientTransform="matrix(1 0 0 -1 0 59.8898)"> <stop offset="0" style="stop-color:#FFFFFF"></stop> <stop offset="1" style="stop-color:#F8E8EA"></stop> </linearGradient> <path style="fill:url(#SVGID_00000010309636802728268360000004531602302940889250_);" d="M19.8,32.6c0.5-0.7,1-1.5,1.4-2.2 c-0.8-1.1-2.6-1.4-3.3-1.5c-0.3,0.4-0.6,0.9-1,1.4c-0.2,0.2-0.4,0.5-0.6,0.7l0,0c1.6,0,2.4,0.4,2.5,1.3c0,0.3-0.1,0.6-0.3,0.8 c-0.5,0.5-1.5,0.5-2.1,0.5c-0.8,0-1.5-0.2-2.1-0.4c-0.7,0.7-1.5,1.3-2.2,1.8v0.7c0,0,0.8-0.7,0.9-0.8c0.3,0.2,1.3,0.8,3.5,0.8 c0.1,0,0.2,0,0.3,0C18,34.9,19,33.9,19.8,32.6z"></path> </g> </g> </g> </g> </svg> 