<?xml version="1.0" encoding="UTF-8"?> <svg xmlns="http://www.w3.org/2000/svg" xmlns:xlink="http://www.w3.org/1999/xlink" version="1.1" id="Layer_1" x="0px" y="0px" viewBox="0 0 120 60" style="enable-background:new 0 0 120 60;" xml:space="preserve"> <style type="text/css"> .st0{fill:#646569;} .st1{fill:#F36E21;} </style> <g id="Page-1"> <g id="Booth" transform="translate(-64.000000, -115.000000)"> <g id="Logo" transform="translate(64.000000, 115.000000)"> <path id="Shape" class="st0" d="M21.5,21.1c1.8,0,3.4,0.6,4.6,1.8c1.2,1.2,1.9,2.7,1.9,4.5c0,1.7-0.6,3.3-1.9,4.5 c-1.2,1.2-2.7,1.9-4.5,1.9c-1.8,0-3.3-0.6-4.6-1.9c-1.2-1.2-1.9-2.7-1.9-4.4c0-1.1,0.3-2.2,0.8-3.2c0.6-1,1.3-1.7,2.3-2.3 C19.3,21.4,20.3,21.1,21.5,21.1z M21.5,22.2c-0.9,0-1.8,0.2-2.5,0.7c-0.8,0.5-1.4,1.1-1.9,1.9c-0.4,0.8-0.7,1.6-0.7,2.6 c0,1.4,0.5,2.7,1.5,3.6c1,1,2.2,1.5,3.6,1.5c0.9,0,1.8-0.2,2.6-0.7c0.8-0.4,1.4-1.1,1.9-1.9c0.4-0.8,0.7-1.6,0.7-2.6 c0-0.9-0.2-1.8-0.7-2.6c-0.4-0.8-1.1-1.4-1.9-1.9C23.3,22.5,22.4,22.2,21.5,22.2z"></path> <polygon id="Shape_00000168839189668387082030000002348874162608716990_" class="st0" points="31.2,33.9 31.2,21 31.4,21 40,30.9 40,21 41.3,21 41.3,33.9 41,33.9 32.5,24.2 32.5,33.9 "></polygon> <polygon id="Shape_00000131346163002201981180000017734853548962980748_" class="st0" points="44.7,21 46,21 46,33.8 44.7,33.8 "></polygon> <path id="Shape_00000115489670433780503110000017228135498114169241_" class="st0" d="M88.2,21h-2.5l-3.5,9.3l7,0l1.3,3.5h2.5 L88.2,21z M85.3,28.8l1.7-4.4l1.7,4.4H85.3z"></path> <polygon id="Shape_00000017485302345163165890000004375798038825697454_" class="st0" points="95.7,21 98.1,21 98.1,31.4 103,31.4 103,33.8 95.7,33.8 "></polygon> <polygon id="Shape_00000064322661242408420640000014887015150897317534_" class="st0" points="105.6,21 108,21 108,31.4 112.8,31.4 112.8,33.8 105.6,33.8 "></polygon> <path id="Shape_00000119808245529849667300000012753003443635989124_" class="st1" d="M86,39.1c0,0-5.9-2.1-7.3-5.7 c-1.5-4,4-4.9,9.5-4.7c3,0.1,6.6,0.5,6.6,0.5s-8.6,1.1-11.8,3.6C80.2,35.3,86,39.1,86,39.1z"></path> <path id="Shape_00000093861608383446492890000010504159532207892145_" class="st0" d="M60.3,30.8c-1.1,1.3-2.5,1.9-4.2,1.9 c-1.6,0-2.8-0.5-3.8-1.5c-1-1-1.5-2.2-1.5-3.7c0-1,0.2-1.9,0.7-2.6c0.4-0.8,1.1-1.4,1.9-1.9c0.8-0.5,1.7-0.7,2.7-0.7 c0.9,0,1.7,0.2,2.4,0.5c0.7,0.3,1.3,0.8,1.8,1.5v-1.6c-0.4-0.3-0.8-0.7-1.2-0.9c-0.9-0.4-1.9-0.7-3.1-0.7c-1.9,0-3.4,0.6-4.7,1.8 c-1.2,1.2-1.9,2.7-1.9,4.5c0,1.7,0.5,3.1,1.6,4.3c1.2,1.4,2.9,2.1,5,2.1c1.1,0,2.1-0.2,3-0.6c0.4-0.2,0.9-0.6,1.2-0.9V30.8z"></path> <path id="Shape_00000055690422817566925390000000998969441863820978_" class="st0" d="M8.6,26.8c-2.9-0.6-3.4-1.3-3.4-2.5v0 c0-1.2,1.2-2.2,2.8-2.2c1.4,0,2.5,0.4,3.5,1.3l0.1,0.1l0,0v-1.4c-1.1-0.7-2.2-1-3.6-1c-2.3,0-4,1.4-4,3.3v0 c0,1.9,1.2,2.9,4.2,3.5c2.8,0.6,3.3,1.3,3.3,2.5v0c0,1.3-1.2,2.3-2.9,2.3c-1.7,0-2.9-0.5-4.3-1.8l-0.1-0.1l0,0v1.4 c1.3,1,2.7,1.4,4.4,1.4c2.5,0,4.1-1.4,4.1-3.4v0C12.7,28.5,11.5,27.4,8.6,26.8z"></path> <polygon id="Shape_00000045605998222496656760000006944346975839476668_" class="st0" points="78.6,21 75.7,29.7 75.6,29.9 75.6,29.7 72.7,21 70.4,21 67.5,29.7 67.4,29.9 67.4,29.7 64.5,21 61.6,21 66.2,33.8 68.6,33.8 71.4,25.5 71.5,25.3 71.6,25.5 74.5,33.8 76.8,33.8 81.4,21 "></polygon> <path id="Shape_00000091014005107516462680000006710004990516452502_" class="st0" d="M115.6,22.9c-0.2,0.2-0.5,0.3-0.8,0.3 s-0.6-0.1-0.8-0.3s-0.3-0.5-0.3-0.8c0-0.3,0.1-0.6,0.4-0.9c0.2-0.2,0.5-0.3,0.8-0.3c0.3,0,0.6,0.1,0.8,0.3 c0.2,0.2,0.3,0.5,0.3,0.8C116,22.4,115.9,22.7,115.6,22.9z M114.1,21.4c-0.2,0.2-0.3,0.4-0.3,0.7s0.1,0.5,0.3,0.7 c0.2,0.2,0.4,0.3,0.7,0.3c0.3,0,0.5-0.1,0.7-0.3c0.2-0.2,0.3-0.4,0.3-0.7s-0.1-0.5-0.3-0.7c-0.2-0.2-0.4-0.3-0.7-0.3 C114.5,21.1,114.3,21.2,114.1,21.4z M114.3,22.7v-1.3c0.1,0,0.2,0,0.4,0c0.2,0,0.3,0,0.3,0c0.1,0,0.2,0,0.3,0.1 c0.1,0.1,0.2,0.2,0.2,0.3c0,0.1,0,0.2-0.1,0.2c-0.1,0-0.1,0.1-0.2,0.1c0.1,0,0.1,0,0.2,0.1c0.1,0.1,0.1,0.2,0.1,0.3v0.1v0v0v0 H115c0,0,0-0.1,0-0.2c0-0.1,0-0.1,0-0.2s0-0.1-0.1-0.1c0,0-0.1,0-0.1,0h-0.1h-0.1v0.5L114.3,22.7L114.3,22.7z M114.9,21.6 c0,0-0.1,0-0.2,0h-0.1V22h0.1c0.1,0,0.1,0,0.2,0c0,0,0.1-0.1,0.1-0.2C115,21.7,115,21.7,114.9,21.6z"></path> </g> </g> </g> </svg> 