<?xml version="1.0" encoding="UTF-8"?> <svg xmlns="http://www.w3.org/2000/svg" xmlns:xlink="http://www.w3.org/1999/xlink" version="1.1" id="Layer_1" x="0px" y="0px" viewBox="0 0 120 60" style="enable-background:new 0 0 120 60;" xml:space="preserve"> <style type="text/css"> .st0{fill-rule:evenodd;clip-rule:evenodd;} </style> <path id="path-1" class="st0" d="M108,23.9c-0.7,0-1,0.1-1.5,0.8c-0.2,0.3-5.8,6.9-5.9,7.1c-0.1,0.1-0.1,0.2-0.1,0.3v3.2 c0,0.1,0,0.4,0,0.4c0.1,0.2,0.2,0.3,0.4,0.4c0.1,0,0.5,0,0.5,0h2v2H92.8v-2l1.9,0c0.1,0,0.5,0,0.5,0c0.2-0.1,0.4-0.2,0.4-0.4 c0-0.1,0-0.4,0-0.4c0,0,0-3.1,0-3.2c0-0.1,0-0.1-0.1-0.3c-0.1-0.2-5.6-6.7-5.9-6.9c-0.3-0.4-0.9-0.9-1.7-0.9h-1.9v-2h10.8v2h-1.3 c-0.3,0-0.5,0.3-0.2,0.6c0,0,3.6,4.5,3.7,4.6c0,0,0.1,0.1,0.1,0c0,0,3.7-4.5,3.7-4.6c0.2-0.2,0.1-0.6-0.3-0.6h-1.3v-2h8.8v2 L108,23.9L108,23.9z M81.2,25.2l0.2,13h-3.1L65.8,26.7l0,8.2c0,0.9,0.1,1.3,0.9,1.3H69v2h-9v-2H62c0.8,0,0.8-0.8,0.8-1.4v-9.5 c0-0.6-0.1-1.3-1.3-1.3h-1.7v-2h7.7L78.2,32l-0.1-6.8c0-0.9-0.2-1.3-1.1-1.3h-2v-2h9.2v2h-2C81.2,23.9,81.2,24.2,81.2,25.2 L81.2,25.2z M45.6,39.2c-3.6,0-7-1.1-9.2-3.2c-1.7-1.6-2.5-3.7-2.5-5.9c0-2.2,0.9-4.4,2.5-5.9c2.1-2,5.8-3.2,9.2-3.2 c3.8,0,6.9,1,9.2,3.2c1.7,1.6,2.5,3.7,2.5,5.9c0,2.1-0.9,4.4-2.5,5.9C52.7,38,49.3,39.2,45.6,39.2z M50.6,25.2c-1.2-1.3-3.1-2-5-2 c-1.9,0-3.7,0.7-5,2c-1.2,1.2-1.8,2.9-1.8,4.8c0,1.8,0.6,3.6,1.8,4.8c1.2,1.3,3.1,2,5,2c1.9,0,3.7-0.7,5-2c1.2-1.3,1.8-2.9,1.8-4.8 C52.4,28.1,51.8,26.4,50.6,25.2z M20,27.4c1.4,0.1,4.2,0.5,5.5,0.9c0.6,0.2,1.4,0.5,1.9,0.7c0.6,0.3,1.1,0.6,1.6,1.1 c0.3,0.3,1.3,1.5,1.3,3.3c0,1.9-1.1,3-1.6,3.4c-0.9,0.8-2,1.2-3,1.5c-1,0.3-2.4,0.7-5,0.7c-1.6,0-2.4-0.2-3.7-0.5 c-1.6-0.3-3.1-1-3.6-1.2c-0.4-0.2-0.5,0.2-0.5,0.3v0.9h-2.4v-6.4h2.2c0,0.8,0.3,1.5,0.6,1.8c0.9,1.1,1.8,1.6,2.7,1.9 c0.8,0.3,2.9,0.9,4.7,0.9c2.4,0,3.8-0.6,4-0.7c0.2-0.1,1.3-0.5,1.3-1.7c0-1.2-1.1-1.5-1.7-1.6c-0.8-0.2-2.8-0.4-4.8-0.6 c-2-0.2-4-0.6-5-0.8c-2.1-0.5-2.9-1.3-3.4-1.8c0,0-1.2-1.1-1.1-3c0-2.1,1.4-3.4,3.1-4.2c1.9-0.9,4.1-1.2,6-1.2 c3.4,0,6.2,1.2,7.2,1.7c0.4,0.2,0.6,0,0.6-0.3v-0.6h2.2v5.6h-2c-0.2-1-0.8-1.8-1.2-2.1c-0.4-0.3-0.8-0.6-1.2-0.8 c-1.2-0.5-3-1.1-5.2-1.1c-1.8,0-3.6,0.4-4.5,0.9c-0.6,0.4-0.8,0.8-0.8,1.3c0,0.7,0.6,1,0.9,1.1C16.1,27,18.5,27.2,20,27.4L20,27.4z"></path> </svg> 