<?xml version="1.0" encoding="UTF-8"?> <svg xmlns="http://www.w3.org/2000/svg" xmlns:xlink="http://www.w3.org/1999/xlink" version="1.1" id="Layer_1" x="0px" y="0px" viewBox="0 0 120 60" style="enable-background:new 0 0 120 60;" xml:space="preserve"> <g> <path d="M86.7,24.6c0,1,0.8,1.8,1.7,1.8c1,0,1.7-0.8,1.7-1.8c0-1-0.8-1.7-1.7-1.7C87.5,22.9,86.7,23.7,86.7,24.6"></path> <path d="M26.7,33.4c0.1,1.2,1,1.6,2.1,1.6c0.8,0,2.1-0.2,2-1.2c-0.1-1.1-1.5-1.2-3-1.5c-1.5-0.3-2.9-0.8-2.9-2.7 c0-2,2.2-2.6,3.8-2.6c1.9,0,3.6,0.8,3.8,2.8h-2.1c-0.2-1-1-1.2-1.9-1.2c-0.6,0-1.7,0.1-1.7,0.9c0,1,1.5,1.1,3,1.5 c1.5,0.3,3,0.9,3,2.7c0,2.2-2.2,3-4.1,3c-2.3,0-4-1-4.1-3.2C24.7,33.4,26.7,33.4,26.7,33.4z"></path> <path d="M32.6,27.2h1.5v-2.7h2v2.7h1.8v1.5h-1.8v4.9c0,0.8,0.1,1.3,1,1.3c0.3,0,0.6,0,0.8-0.1v1.6c-0.4,0-0.9,0.1-1.3,0.1 c-2.1,0-2.5-0.8-2.5-2.3v-5.4h-1.5L32.6,27.2L32.6,27.2z"></path> <path d="M44.8,30.9L44.8,30.9c-0.1-1.3-0.9-2.4-2.3-2.4c-1.4,0-2.4,1.1-2.4,2.4H44.8z M40.1,32.3c0,1.4,0.8,2.7,2.5,2.7 c1.2,0,1.9-0.5,2.2-1.5h1.9c-0.4,2-2.1,3.1-4.1,3.1c-2.9,0-4.5-2-4.5-4.8c0-2.6,1.7-4.8,4.4-4.8c2.9,0,4.7,2.6,4.3,5.3H40.1z"></path> <path d="M53.7,30.9L53.7,30.9c-0.1-1.3-0.9-2.4-2.3-2.4c-1.4,0-2.4,1.1-2.4,2.4H53.7z M49,32.3c0,1.4,0.8,2.7,2.5,2.7 c1.2,0,1.9-0.5,2.2-1.5h1.9c-0.4,2-2.1,3.1-4.1,3.1c-2.9,0-4.5-2-4.5-4.8c0-2.6,1.7-4.8,4.4-4.8c2.9,0,4.7,2.6,4.3,5.3H49z"></path> <rect x="56.4" y="23.7" width="2" height="12.6"></rect> <path d="M65,29.8c0-0.3-0.2-0.5-0.4-0.7c-0.2-0.2-0.5-0.3-0.8-0.3c-0.5,0-1.1,0.1-1.1,0.7c0,0.3,0.2,0.4,0.4,0.5 c0.6,0.2,1.9,0.3,3.1,0.7c1.2,0.4,2.2,1.1,2.2,2.6c0,2.5-2.4,3.2-4.7,3.2c-2.2,0-4.5-0.9-4.6-3.2h3.3c0,0.3,0.2,0.6,0.4,0.8 c0.2,0.2,0.5,0.3,0.9,0.3c0.5,0,1.2-0.2,1.2-0.7s-0.3-0.7-1.9-1c-2.7-0.5-3.7-1.3-3.7-2.9c0-2.3,2.5-2.9,4.3-2.9 c2,0,4.4,0.5,4.5,2.9L65,29.8L65,29.8z"></path> <path d="M75.3,30.7L75.3,30.7c0-0.8-0.6-1.5-1.5-1.5c-1,0-1.6,0.5-1.8,1.5H75.3z M71.9,32.5c0.1,1,0.7,1.8,1.8,1.8 c0.6,0,1.2-0.2,1.5-0.7h3.3c-0.7,2-2.6,2.9-4.7,2.9c-2.9,0-5.1-1.7-5.1-4.8c0-2.7,1.9-4.8,4.8-4.8c3.6,0,5.2,2,5.2,5.6H71.9z"></path> <path d="M79.2,27.1h3.4v1.5h0c0.6-1.1,1.3-1.7,2.6-1.7c0.4,0,0.7,0.1,1,0.1v3.1c-0.4-0.1-0.7-0.2-1.4-0.2c-1.4,0-2.1,0.8-2.1,2.8 v3.6h-3.5V27.1z"></path> <rect x="86.7" y="27.1" width="3.5" height="9.2"></rect> <path d="M97.3,30.7L97.3,30.7c0-0.8-0.6-1.5-1.5-1.5c-1,0-1.6,0.5-1.8,1.5H97.3z M94,32.5c0.1,1,0.7,1.8,1.8,1.8 c0.6,0,1.2-0.2,1.5-0.7h3.3c-0.7,2-2.6,2.9-4.7,2.9c-2.9,0-5.1-1.7-5.1-4.8c0-2.7,1.9-4.8,4.8-4.8c3.6,0,5.2,2,5.2,5.6H94z"></path> <path d="M106.6,29.8c0-0.3-0.2-0.5-0.4-0.7c-0.2-0.2-0.5-0.3-0.8-0.3c-0.5,0-1.1,0.1-1.1,0.7c0,0.3,0.2,0.4,0.4,0.5 c0.6,0.2,1.9,0.3,3.1,0.7c1.2,0.4,2.2,1.1,2.2,2.6c0,2.5-2.4,3.2-4.7,3.2c-2.2,0-4.5-0.9-4.6-3.2h3.3c0,0.3,0.2,0.6,0.4,0.8 c0.2,0.2,0.5,0.3,0.9,0.3c0.5,0,1.2-0.2,1.2-0.7s-0.3-0.7-1.9-1c-2.7-0.5-3.7-1.3-3.7-2.9c0-2.3,2.5-2.9,4.3-2.9 c2,0,4.4,0.5,4.5,2.9L106.6,29.8L106.6,29.8z"></path> <path d="M18,35.1L18,35.1c-2,0-3.6-1.6-3.6-3.6s1.6-3.6,3.6-3.6c2,0,3.6,1.6,3.6,3.6C21.5,33.5,19.9,35.1,18,35.1 M19,26v-1.5 c0-0.6-0.5-1-1-1s-1,0.5-1,1V26c-2.3,0.4-4.1,2.2-4.5,4.5H11c-0.6,0-1,0.5-1,1c0,0.6,0.5,1,1,1h1.4c0.5,2.6,2.8,4.6,5.5,4.6 c3.1,0,5.6-2.5,5.6-5.6C23.6,28.8,21.6,26.5,19,26z"></path> <path d="M17.3,31.5L17.3,31.5c0-0.4,0.3-0.7,0.7-0.7c0.4,0,0.7,0.3,0.7,0.7c0,0.4-0.3,0.7-0.7,0.7C17.6,32.2,17.3,31.9,17.3,31.5 M15.8,31.5c0,1.2,1,2.2,2.2,2.2c1.2,0,2.2-1,2.2-2.2s-1-2.2-2.2-2.2C16.8,29.3,15.8,30.3,15.8,31.5z"></path> <path d="M13.7,26.3c0,0.6-0.5,1-1,1s-1-0.5-1-1s0.5-1,1-1S13.7,25.8,13.7,26.3"></path> </g> </svg> 