<?xml version="1.0" encoding="UTF-8"?> <svg xmlns="http://www.w3.org/2000/svg" xmlns:xlink="http://www.w3.org/1999/xlink" version="1.1" id="Layer_1" x="0px" y="0px" viewBox="0 0 120 60" style="enable-background:new 0 0 120 60;" xml:space="preserve"> <style type="text/css"> .st0{fill:#231F20;} .st1{fill:#FFFFFF;} </style> <g id="Guides_For_Artboard"> </g> <g id="Layer_1_00000021797569127805429460000004201948104054253720_"> <g> <g> <g> <g> <polygon class="st0" points="21.8,36 21.8,41.3 23.1,43.1 26.5,43.1 26.5,44.6 21.8,44.6 21.8,48.4 27.9,48.4 29.3,46.6 29.3,41.1 27.9,39.3 24.6,39.3 24.6,38 29.3,38 29.3,34.2 23.1,34.2 "></polygon> </g> <g> <polygon class="st0" points="30.5,38 32.8,38 32.8,48.4 35.7,48.4 35.7,38 38,38 38,34.2 30.5,34.2 "></polygon> </g> <g> <path class="st0" d="M40.2,34.2L38.9,36v10.6l1.4,1.8H45l1.4-1.8V36L45,34.2H40.2z M41.7,44.6V38h1.9v6.6L41.7,44.6L41.7,44.6z "></path> </g> <g> <polygon class="st0" points="52.2,39.5 50.5,34.2 47.6,34.2 47.6,48.4 50.5,48.4 50.5,43.1 52.2,48.4 55.1,48.4 55.1,34.2 52.2,34.2 "></polygon> </g> <g> <polygon class="st0" points="56.4,36 56.4,46.6 57.7,48.4 63.9,48.4 63.9,44.6 59.3,44.6 59.3,43.2 62.7,43.2 62.7,39.4 59.3,39.4 59.3,38 63.9,38 63.9,34.2 57.7,34.2 "></polygon> </g> <g> <polygon class="st0" points="67.8,34.2 64.9,34.2 64.9,46.6 66.2,48.4 72.4,48.4 72.4,44.6 67.8,44.6 "></polygon> </g> <g> <rect x="73" y="34.2" class="st0" width="2.9" height="14.2"></rect> </g> <g> <polygon class="st0" points="81.7,39.5 80,34.3 80,34.2 77.1,34.2 77.1,48.4 80,48.4 80,43.1 81.7,48.3 81.7,48.4 84.6,48.4 84.6,34.2 81.7,34.2 "></polygon> </g> <g> <polygon class="st0" points="93.4,38 93.4,34.2 87.2,34.2 85.9,36 85.9,46.6 87.2,48.4 93.4,48.4 93.4,44.6 88.8,44.6 88.8,43.2 92.2,43.2 92.2,39.4 88.8,39.4 88.8,38 "></polygon> </g> </g> <g> <g> <path class="st0" d="M97.9,33c0,0.8-0.6,1.4-1.4,1.4c-0.8,0-1.4-0.6-1.4-1.4s0.6-1.4,1.4-1.4C97.3,31.6,97.9,32.2,97.9,33z M96.5,31.3c-1,0-1.8,0.8-1.8,1.8s0.8,1.8,1.8,1.8c1,0,1.8-0.8,1.8-1.8S97.5,31.3,96.5,31.3z"></path> </g> </g> <g> <polygon class="st0" points="22.5,31.9 34.7,16 40.4,21.2 48.5,11.6 62.5,24.4 66.6,20.5 75.7,27.8 84,20.5 93.6,31.4 84.1,21.8 75.5,28.6 66.6,21.8 62.3,25.6 48.5,13.5 41.1,23.2 34.9,17.4 "></polygon> </g> </g> <path d="M96.9,33.2l0.5,0.8h-0.5l-0.4-0.8h-0.3v0.8h-0.4v-1.9h0.9c0.1,0,0.2,0,0.3,0c0.1,0,0.2,0,0.2,0.1c0.1,0,0.1,0.1,0.1,0.2 c0,0.1,0.1,0.2,0.1,0.3c0,0.2,0,0.3-0.1,0.4C97.2,33.1,97.1,33.1,96.9,33.2L96.9,33.2z"></path> <path class="st1" d="M97,32.5c0,0-0.1,0-0.1-0.1c0,0-0.1,0-0.1,0c0,0-0.1,0-0.1,0h-0.4v0.5h0.5c0.1,0,0.2,0,0.2-0.1 s0.1-0.1,0.1-0.2C97,32.5,97,32.5,97,32.5L97,32.5z"></path> </g> </g> </svg> 