<?xml version="1.0" encoding="UTF-8"?> <svg xmlns="http://www.w3.org/2000/svg" xmlns:xlink="http://www.w3.org/1999/xlink" version="1.1" id="Layer_1" x="0px" y="0px" viewBox="0 0 120 60" style="enable-background:new 0 0 120 60;" xml:space="preserve"> <style type="text/css"> .st0{fill:#231F20;} </style> <g> <path class="st0" d="M70.2,25.3v-8.8c1.2,0.1,2.5,0,3.6,0.2c1.1,0.2,1.9,1.3,1.9,2.5c0,5.4,0.1,10.7,0,16.1c-0.1,2.7-1,5-3.5,6.3 c-1,0.5-2.1,1-3.2,1.3c-2.5,0.7-5,0.7-7.5,0c-2.6-0.7-4.3-2.4-5.2-4.9c-0.8-2.1-0.9-4.3-0.8-6.6c0.1-1.9,0.6-3.7,1.6-5.3 c2.4-4,6.7-4.7,10.1-3.3c1,0.4,1.9,1.2,2.6,2L70.2,25.3z M60.9,32.7c0,1.5,0.2,3,0.9,4.3c0.9,1.6,2.4,2.2,4.2,2.1 c1.6-0.1,2.9-0.9,3.5-2.5c0.9-2.3,0.9-4.6,0.1-6.8c-0.6-1.7-1.8-2.6-3.6-2.8c-1.9-0.2-3.4,0.5-4.4,2.2C61.1,30.2,61,31.5,60.9,32.7 z"></path> <path class="st0" d="M21.5,36.4c0,0,0,0.1,0.1,0.1c0.2,1.7,1.3,2.5,2.9,2.8c1.3,0.2,2.6,0.3,3.8-0.3c0.4-0.2,0.8-0.6,1.1-1 c0.4-0.6,0.1-1.4-0.7-1.7c-0.9-0.4-1.8-0.7-2.8-0.9c-2.1-0.4-4.1-0.9-6.1-1.7c-4.6-2-3.8-7.2-1.3-9.3c1.3-1.1,2.9-1.7,4.6-1.9 c2.4-0.3,4.7-0.2,6.9,0.7c2.4,0.9,3.8,2.6,4.3,5.1c0,0.1,0,0.3,0,0.4c0,0.1,0,0.2,0,0.4c-1.4,0-2.7,0-4,0c-0.6,0-1.1-0.4-1.5-0.9 c-1.1-1.6-2.7-1.8-4.4-1.6c-0.5,0.1-1,0.2-1.5,0.4c-0.6,0.2-0.8,0.7-0.9,1.3c0,0.6,0.3,0.9,0.8,1.1c1.1,0.4,2.2,0.8,3.3,1.1 c1.8,0.5,3.7,0.8,5.5,1.5c0.9,0.4,1.8,0.8,2.4,1.5c1.3,1.5,1.3,3.3,0.9,5c-0.6,2.4-2.3,3.8-4.7,4.5c-2.2,0.6-4.4,0.7-6.6,0.6 c-1.3-0.1-2.7-0.3-3.9-0.9c-2.7-1.2-3.9-3.4-3.8-6.2L21.5,36.4L21.5,36.4z"></path> <path class="st0" d="M103.7,32.8c0,1.8-0.2,3.5-1,5.2c-1.2,2.7-3.1,4.4-6,5.1c-2.5,0.6-4.9,0.5-7.3-0.4c-2.5-0.9-4.2-2.7-4.9-5.3 c-0.9-3-0.9-6.1,0-9.1c1.1-3.4,4-5.7,7.6-5.9c1.7-0.1,3.5-0.1,5.1,0.4c3.3,0.9,5.2,3.3,6,6.4c0.3,1.2,0.4,2.5,0.6,3.7L103.7,32.8z M98.3,33.2c0-1.6-0.1-2.8-0.6-3.9c-0.7-1.7-2.2-2.7-3.9-2.6c-2.3,0.2-3.3,1.1-3.9,2.8c-0.8,2.4-0.6,4.8,0.2,7.2 c0.7,2,3,2.7,4.5,2.4c1.8-0.4,2.8-1.6,3.2-3.3C98.1,34.8,98.2,33.7,98.3,33.2z"></path> <path class="st0" d="M55,22.7v3.9c0,2.7,0,5.4,0,8.1c0,1.6-0.2,3.2-0.8,4.7c-0.5,1.1-1.3,2-2.4,2.6c-4.3,2.2-8.6,2.1-12.8-0.3 c-1.8-1-2.4-2.8-2.7-4.7c-0.1-0.7-0.1-1.3-0.1-2c0-3.9,0-7.9,0-11.8c0-0.1,0-0.2,0-0.4h5.6v0.6c0,4.1,0,8.2,0,12.3 c0,2.8,2.1,3.7,3.8,3.6c0.6,0,1.2-0.1,1.7-0.4c1.4-0.5,2-1.6,2-3c0-3.4,0-6.9,0-10.3c0-1.8,1.1-2.8,2.8-2.8 C53.1,22.7,54.1,22.7,55,22.7z"></path> <path class="st0" d="M77.3,22.7c1.1,0,2.3-0.1,3.3,0c1.2,0.1,2.3,1.2,2.3,2.4c0,5.9,0,11.7,0,17.6c0,0.1,0,0.2,0,0.3h-5.6V22.7z"></path> <path class="st0" d="M82.9,20.8h-5.6v-4.2c1.2,0.1,2.5,0,3.7,0.2c1.2,0.2,1.9,1.3,1.9,2.5C82.9,19.8,82.9,20.3,82.9,20.8z"></path> </g> </svg> 