<?xml version="1.0" encoding="UTF-8"?> <svg xmlns:cc="http://creativecommons.org/ns#" xmlns:inkscape="http://www.inkscape.org/namespaces/inkscape" xmlns:sodipodi="http://sodipodi.sourceforge.net/DTD/sodipodi-0.dtd" xmlns:rdf="http://www.w3.org/1999/02/22-rdf-syntax-ns#" xmlns:svg="http://www.w3.org/2000/svg" xmlns:dc="http://purl.org/dc/elements/1.1/" xmlns="http://www.w3.org/2000/svg" xmlns:xlink="http://www.w3.org/1999/xlink" version="1.1" id="svg3104" inkscape:version="0.48.4 r9939" sodipodi:docname="Synology.svg" x="0px" y="0px" viewBox="0 0 120 60" style="enable-background:new 0 0 120 60;" xml:space="preserve"> <style type="text/css"> .st0{fill:#A7A5A6;} .st1{fill:#231F20;} .st2{fill:none;stroke:#231F20;stroke-width:0.5345;stroke-miterlimit:11.9445;} </style> <g id="layer1" transform="translate(-311.04693,-470.39655)" inkscape:groupmode="layer" inkscape:label="Layer 1"> <g id="g3051" transform="matrix(2.9861316,0,0,-2.9861316,195.28107,2130.6265)"> <g id="g12" transform="translate(39.4376,541.665)"> <path id="path14" inkscape:connector-curvature="0" class="st0" d="M2.7,3.9l1.2,0.1c0.1-0.4,0.2-0.7,0.4-0.9 C4.5,3,4.8,2.9,5.1,2.9C5.5,2.9,5.8,3,6,3.2c0.2,0.2,0.3,0.4,0.3,0.6c0,0.1,0,0.3-0.1,0.4C6.1,4.2,6,4.3,5.8,4.4 c-0.1,0.1-0.5,0.1-1,0.3C4.2,4.8,3.7,5,3.4,5.2C3.1,5.5,2.9,5.9,2.9,6.4C2.9,6.7,3,7,3.2,7.3c0.2,0.3,0.4,0.5,0.7,0.6 C4.2,8,4.6,8.1,5.1,8.1c0.7,0,1.3-0.2,1.7-0.5c0.4-0.3,0.6-0.8,0.6-1.3l-1.2,0C6.1,6.5,6,6.8,5.8,6.9C5.7,7,5.4,7.1,5.1,7.1 C4.7,7.1,4.4,7,4.2,6.9C4.1,6.8,4.1,6.7,4.1,6.5c0-0.1,0.1-0.3,0.2-0.4C4.4,6,4.8,5.9,5.3,5.7c0.6-0.1,1-0.3,1.3-0.4 C6.9,5.2,7.1,5,7.3,4.7c0.2-0.3,0.2-0.6,0.2-1c0-0.3-0.1-0.7-0.3-1S6.8,2.3,6.4,2.1C6.1,2,5.7,1.9,5.1,1.9 c-0.8,0-1.3,0.2-1.7,0.5C3,2.8,2.8,3.3,2.7,3.9"></path> </g> <g id="g16" transform="translate(53.3329,548.733)"> <path id="path18" inkscape:connector-curvature="0" class="st0" d="M-6.5-0.7h1.2l1-3.1l1,3.1h1.2l-1.5-4.2l-0.3-0.8 C-4-5.9-4.1-6.1-4.2-6.2c-0.1-0.1-0.2-0.2-0.3-0.3c-0.1-0.1-0.3-0.1-0.4-0.2c-0.2,0-0.4-0.1-0.6-0.1c-0.2,0-0.4,0-0.6,0.1 l-0.1,0.9c0.2,0,0.3-0.1,0.5-0.1c0.3,0,0.5,0.1,0.6,0.2C-5-5.5-4.9-5.3-4.9-5.1L-6.5-0.7z"></path> </g> <g id="g20" transform="translate(78.1938,535.901)"> <path id="path22" inkscape:connector-curvature="0" class="st0" d="M-23,7.8h-1.1V10c0,0.5,0,0.8-0.1,0.9 c-0.1,0.1-0.1,0.2-0.2,0.3c-0.1,0.1-0.2,0.1-0.4,0.1c-0.2,0-0.4-0.1-0.5-0.2c-0.2-0.1-0.3-0.3-0.3-0.4c-0.1-0.2-0.1-0.5-0.1-1v-2 h-1.1v4.3h1.1v-0.6c0.4,0.5,0.9,0.7,1.4,0.7c0.3,0,0.5,0,0.7-0.1c0.2-0.1,0.4-0.2,0.5-0.3c0.1-0.1,0.2-0.3,0.2-0.5 c0-0.2,0.1-0.4,0.1-0.8V7.8z"></path> </g> <g id="g24" transform="translate(81.6659,542.281)"> <path id="path26" inkscape:connector-curvature="0" class="st0" d="M-25.3,3.5c0-0.4,0.1-0.8,0.3-1c0.2-0.2,0.5-0.3,0.8-0.3 s0.6,0.1,0.8,0.3c0.2,0.2,0.3,0.6,0.3,1c0,0.4-0.1,0.8-0.3,1c-0.2,0.2-0.5,0.3-0.8,0.3s-0.6-0.1-0.8-0.3 C-25.2,4.3-25.3,4-25.3,3.5 M-26.4,3.6c0,0.4,0.1,0.8,0.3,1.1c0.2,0.4,0.5,0.6,0.8,0.8c0.3,0.2,0.7,0.3,1.2,0.3 c0.7,0,1.2-0.2,1.6-0.6c0.4-0.4,0.6-1,0.6-1.6c0-0.7-0.2-1.2-0.6-1.6c-0.4-0.4-1-0.6-1.6-0.6c-0.4,0-0.8,0.1-1.1,0.3 C-25.7,1.7-26,2-26.2,2.3C-26.3,2.7-26.4,3.1-26.4,3.6"></path> </g> <g id="g28" transform="translate(95.59,555.312)"> <path id="path30" inkscape:connector-curvature="0" class="st1" d="M-34.5-5.1v-5.6c0-0.3,0-0.4,0.1-0.5c0-0.1,0.1-0.2,0.2-0.2 c0.1,0,0.2-0.1,0.4-0.1v-0.2h-2.1v0.2c0.2,0,0.3,0,0.4,0.1c0.1,0,0.1,0.1,0.2,0.2c0,0.1,0.1,0.3,0.1,0.5v3.8c0,0.5,0,0.8,0,0.9 c0,0.1-0.1,0.2-0.1,0.2c0,0-0.1,0.1-0.2,0.1c-0.1,0-0.2,0-0.3-0.1l-0.1,0.2l1.2,0.5H-34.5z"></path> </g> <g id="g32" transform="translate(103.261,547.855)"> <path id="path34" inkscape:connector-curvature="0" class="st1" d="M-39.6-0.1c-0.2,0-0.3,0-0.5-0.1c-0.2-0.1-0.3-0.3-0.4-0.5 c-0.1-0.2-0.2-0.6-0.2-0.9c0-0.6,0.1-1.1,0.4-1.6c0.2-0.4,0.6-0.7,1-0.7c0.3,0,0.5,0.1,0.7,0.4c0.2,0.2,0.3,0.7,0.3,1.3 c0,0.7-0.2,1.3-0.5,1.8C-38.9-0.3-39.2-0.1-39.6-0.1 M-39.4,0.2c0.6,0,1.2-0.2,1.5-0.7c0.3-0.4,0.5-0.9,0.5-1.4 c0-0.4-0.1-0.8-0.3-1.1c-0.2-0.4-0.4-0.7-0.8-0.9c-0.3-0.2-0.7-0.3-1.1-0.3c-0.6,0-1.1,0.3-1.5,0.8c-0.3,0.4-0.5,0.9-0.5,1.4 c0,0.4,0.1,0.8,0.3,1.2c0.2,0.4,0.4,0.7,0.8,0.9C-40.1,0.1-39.8,0.2-39.4,0.2"></path> </g> <g id="g36" transform="translate(114.826,548.085)"> <path id="path38" inkscape:connector-curvature="0" class="st1" d="M-47.2-0.3c-0.2,0-0.4-0.1-0.6-0.3C-47.9-0.8-48-1-48-1.4 c0-0.5,0.1-0.9,0.3-1.1c0.2-0.2,0.4-0.3,0.6-0.3c0.2,0,0.4,0.1,0.6,0.3c0.1,0.2,0.2,0.4,0.2,0.8c0,0.5-0.1,0.9-0.3,1.1 C-46.8-0.4-47-0.3-47.2-0.3 M-48.1-4.4c-0.1-0.2-0.2-0.3-0.3-0.4c-0.1-0.1-0.1-0.3-0.1-0.4c0-0.2,0.1-0.3,0.3-0.4 c0.3-0.2,0.8-0.3,1.3-0.3c0.6,0,1,0.1,1.2,0.3c0.3,0.2,0.4,0.4,0.4,0.6c0,0.2-0.1,0.3-0.2,0.3c-0.2,0.1-0.5,0.1-1,0.1 C-47.2-4.5-47.7-4.5-48.1-4.4 M-48-2.9c-0.3,0.1-0.5,0.3-0.6,0.5c-0.1,0.2-0.2,0.5-0.2,0.7c0,0.4,0.2,0.8,0.5,1.1 c0.3,0.3,0.7,0.5,1.2,0.5c0.4,0,0.7-0.1,1-0.3h0.9c0.1,0,0.2,0,0.2,0c0,0,0,0,0,0c0,0,0-0.1,0-0.1c0-0.1,0-0.1,0-0.2c0,0,0,0,0,0 c0,0-0.1,0-0.2,0h-0.6c0.2-0.2,0.3-0.5,0.3-0.9c0-0.4-0.2-0.7-0.5-1c-0.3-0.3-0.7-0.4-1.2-0.4c-0.2,0-0.4,0-0.6,0.1 c-0.1-0.1-0.2-0.2-0.3-0.3c0-0.1-0.1-0.2-0.1-0.2c0-0.1,0-0.1,0.1-0.2c0,0,0.1-0.1,0.3-0.1c0.1,0,0.3,0,0.6,0c0.6,0,1,0,1.2-0.1 c0.3,0,0.5-0.1,0.7-0.3c0.2-0.2,0.3-0.4,0.3-0.6c0-0.3-0.2-0.7-0.5-1c-0.5-0.4-1.1-0.7-1.9-0.7c-0.6,0-1.1,0.1-1.5,0.4 c-0.2,0.2-0.3,0.3-0.3,0.5c0,0.1,0,0.1,0,0.2c0.1,0.1,0.2,0.3,0.3,0.5c0,0,0.2,0.2,0.5,0.5c-0.2,0.1-0.3,0.2-0.3,0.3 C-48.7-4-48.7-4-48.7-3.9c0,0.1,0,0.2,0.1,0.4C-48.5-3.3-48.3-3.1-48-2.9"></path> </g> <g id="g40" transform="translate(122.069,548.41)"> <path id="path42" inkscape:connector-curvature="0" class="st1" d="M-52-0.5h2v-0.2h-0.1c-0.1,0-0.2,0-0.3-0.1 c-0.1-0.1-0.1-0.1-0.1-0.2c0-0.1,0-0.3,0.2-0.5l1-2.1l0.9,2.3c0.1,0.1,0.1,0.3,0.1,0.4c0,0.1,0,0.1,0,0.1c0,0-0.1,0.1-0.1,0.1 c-0.1,0-0.1,0-0.3,0v0.2h1.4v-0.2c-0.1,0-0.2,0-0.3-0.1c-0.1,0-0.1-0.1-0.2-0.2c0,0-0.1-0.2-0.2-0.4l-1.7-4.2 c-0.2-0.4-0.4-0.7-0.7-0.9c-0.3-0.2-0.5-0.3-0.8-0.3c-0.2,0-0.3,0-0.5,0.2c-0.1,0.1-0.2,0.2-0.2,0.4c0,0.1,0,0.2,0.1,0.3 c0.1,0.1,0.2,0.1,0.4,0.1c0.1,0,0.2,0,0.4-0.1c0.1,0,0.2-0.1,0.2-0.1c0.1,0,0.2,0.1,0.3,0.1c0.1,0.1,0.2,0.3,0.3,0.5l0.3,0.7 l-1.5,3.2c0,0.1-0.1,0.2-0.2,0.4c-0.1,0.1-0.1,0.2-0.2,0.2c-0.1,0-0.2,0.1-0.3,0.1V-0.5z"></path> </g> <g id="g44" transform="translate(136.017,550.631)"> <path id="path46" inkscape:connector-curvature="0" class="st1" d="M-61.2-2h0.2c0.1,0,0.1,0,0.1,0c0,0,0.1,0,0.1,0 c0,0,0,0.1,0,0.1c0,0,0,0.1,0,0.1c0,0-0.1,0-0.1,0h-0.3V-2z M-61.4-2.5v0.8h0.4c0.1,0,0.1,0,0.2,0c0,0,0.1,0,0.1-0.1 c0,0,0-0.1,0-0.1c0-0.1,0-0.1-0.1-0.2c0,0-0.1-0.1-0.2-0.1c0,0,0.1,0,0.1,0c0,0,0.1-0.1,0.1-0.1l0.1-0.2h-0.1l-0.1,0.2 c0,0-0.1,0.1-0.1,0.1c0,0,0,0-0.1,0.1c0,0,0,0-0.1,0c0,0,0,0-0.1,0h-0.1v-0.4H-61.4z"></path> </g> <g id="g48" transform="translate(138.473,550.583)"> <path id="path50" inkscape:connector-curvature="0" class="st2" d="M-62.9-2c0-0.3-0.3-0.6-0.6-0.6c-0.3,0-0.6,0.3-0.6,0.6 c0,0.3,0.3,0.6,0.6,0.6C-63.1-1.3-62.9-1.6-62.9-2z"></path> </g> </g> </g> </svg> 