<?xml version="1.0" encoding="UTF-8"?> <svg xmlns="http://www.w3.org/2000/svg" xmlns:xlink="http://www.w3.org/1999/xlink" version="1.1" id="Layer_1" x="0px" y="0px" viewBox="0 0 120 60" style="enable-background:new 0 0 120 60;" xml:space="preserve"> <g> <polygon points="104.9,26.4 104.3,26.4 104.3,26.1 105.8,26.1 105.8,26.4 105.2,26.4 105.2,28.2 104.9,28.2 "></polygon> <polygon points="106.1,26.1 106.5,26.1 107,27.1 107.5,26.1 107.9,26.1 107.9,28.2 107.6,28.2 107.6,26.7 107,27.7 107,27.7 106.4,26.7 106.4,28.2 106.1,28.2 "></polygon> <path d="M86.1,26.4c-2.2,0-4.1,1.4-4.9,3.3c-0.8-1.9-2.7-3.3-4.9-3.3c-2.9,0-5.3,2.4-5.3,5.3s2.4,5.3,5.3,5.3 c2.2,0,4.1-1.4,4.9-3.3c0.8,1.9,2.7,3.3,4.9,3.3c2.9,0,5.3-2.4,5.3-5.3C91.5,28.8,89.1,26.4,86.1,26.4 M99.3,26.4 c-2.9,0-5.3,2.4-5.3,5.3s2.4,5.3,5.3,5.3c2.9,0,5.3-2.4,5.3-5.3C104.7,28.8,102.3,26.4,99.3,26.4 M63.7,24.7l-0.4,0.2l-2.6,2.1v1.6 l0.2,0.2h0.4l2-1.5h0.2v9.3l0.2,0.2h1.6l0.2-0.2V24.9l-0.2-0.2H63.7L63.7,24.7z M34.6,28.4c1.6,0,2.2,0.8,2.4,1.6l0.2,0.2h1.6 L39,30c-0.2-1.8-1.6-3.3-4.3-3.3c-3,0-4.7,2-4.7,5.1s1.8,5.1,4.7,5.1c2.8,0,4.1-1.6,4.3-3.3l-0.2-0.2h-1.6L37,33.5 c-0.2,0.8-0.8,1.6-2.4,1.6c-1.8,0-2.8-1.2-2.8-3.3C31.9,29.6,32.9,28.4,34.6,28.4 M26.4,30.8c0-0.6-0.2-2.4-2.4-2.4 s-2.4,1.8-2.4,2.4l0.2,0.2h4.3L26.4,30.8L26.4,30.8z M28.5,31.8v0.6l-0.2,0.2h-6.5l-0.2,0.2c0,0.4,0.2,2.4,2.6,2.4 c0.8,0,1.6-0.2,2-1.2l0.2-0.2H28l0.2,0.2c-0.2,1.6-1.6,3-3.9,3c-3.2,0-4.7-2.2-4.7-5.1c0-2.8,1.4-5.1,4.5-5.1 C27.2,26.7,28.5,29,28.5,31.8 M16,26.8l-0.2-0.2v-1.8l-0.2-0.2h-1.6l-0.2,0.2v1.8l-0.2,0.2h-1.4L12.1,27v1.4l0.2,0.2h1.4l0.2,0.2 v5.3c0,1.8,1.4,2.6,2.8,2.6h1.6l0.2-0.2v-1.4l-0.2-0.2h-1.6c-0.4,0-0.8-0.2-0.8-0.8v-5.3l0.2-0.2h2.2l0.2-0.2V27l-0.2-0.2H16 L16,26.8z M59.5,34.9l0.2,0.2v1.4l-0.2,0.2h-8.7l-0.2-0.2v-1.4l0,0l0.2-0.4l5.8-4.6c0.5-0.4,0.8-1,0.8-1.7c0-1.2-1.1-2.2-2.4-2.2 c-1.3,0-2.4,1-2.4,2.2l-0.2,0.2h-1.5l-0.2-0.2c0-2.2,1.9-3.9,4.3-3.9c2.4,0,4.3,1.8,4.3,3.9c0,1.2-0.6,2.3-1.5,3l-4.1,3.3v0.2H59.5 L59.5,34.9z"></path> <path d="M45.2,26.7c-1.8,0-2.6,1.2-2.6,1.2h-0.2v-4.7l-0.2-0.2h-1.6l-0.2,0.2v13.4l0.2,0.2h1.6l0.2-0.2v-4.9c0-2.4,1-3.2,2.6-3.2 c1.6,0,2,1.2,2,2.4v5.7l0.2,0.2h1.6l0.2-0.2v-5.7C48.9,28.6,48.1,26.7,45.2,26.7"></path> </g> </svg> 