<?xml version="1.0" encoding="UTF-8"?> <svg xmlns="http://www.w3.org/2000/svg" xmlns:xlink="http://www.w3.org/1999/xlink" version="1.1" id="Layer_1" x="0px" y="0px" viewBox="0 0 120 60" style="enable-background:new 0 0 120 60;" xml:space="preserve"> <style type="text/css"> .st0{fill:#4ACBD6;} </style> <g> <path d="M77.5,38.2c0,0.3,0.3,0.6,0.6,0.6h1.7V24.4l-2.1,1.1C77.5,25.5,77.5,38.2,77.5,38.2z"></path> <path d="M90.6,28.5c-1.8,0-3.5,0.9-4.4,2.2v7.4c0,0.3,0.3,0.6,0.6,0.6h1.7v-7c0.6-0.6,1.4-1.1,2.3-1.1c1.5,0,2.6,1.2,2.6,2.8v5.4 h2.1v-5.5C95.2,30.6,93.2,28.5,90.6,28.5"></path> <path d="M55.4,35.5v-4.6h2.8v-1.9h-2.8v-3L53.3,27v9c0,1.8,1.1,2.9,3,2.9H59V37h-2.2C55.7,36.8,55.4,36.5,55.4,35.5"></path> <path d="M65,28.7c-1.8,0-3.8,1-4.7,2.4v10.8c0,0.3,0.3,0.6,0.6,0.6h1.7V31.9c0.6-0.7,1.5-1.3,2.6-1.3c1.7,0,2.9,1.3,2.9,3 c0,1.8-1.2,3-2.9,3h-1.6v1.8h1.6c2.9,0,5-2,5-5C70,30.8,67.9,28.7,65,28.7"></path> <path d="M83.9,38.7v-9.9h-2.1v9.3c0,0.3,0.3,0.6,0.6,0.6C82.4,38.7,83.9,38.7,83.9,38.7z"></path> <path d="M106.1,38.7l-4.5-5.2l4.1-4.7h-2.5l-3.6,4.3v-8.8l-2.1,1.1v12.7c0,0.3,0.3,0.6,0.6,0.6h1.7v-4.9l4.1,4.9H106.1L106.1,38.7z "></path> <polygon points="72.6,34.8 75.5,34.8 75.5,32.7 71.5,32.7 "></polygon> <path d="M82.8,24.2c-0.8,0-1.5,0.6-1.5,1.5c0,0.4,0.1,0.7,0.4,0.9h2.1c0.3-0.3,0.4-0.6,0.4-0.9C84.3,24.8,83.7,24.2,82.8,24.2"></path> <path class="st0" d="M35.9,12.4c-7.2,0-13,5.8-13,13v2.8h7.3v-2.8c0-3.1,2.5-5.6,5.7-5.6s5.5,2.2,5.5,5.5s-2.4,5.7-5.5,5.7H33v7.4 h2.8c7.1,0,12.8-5.8,12.8-13.1C48.6,17.9,43.2,12.4,35.9,12.4"></path> <path class="st0" d="M13.9,36.8c0,0.9,0.7,1.8,1.8,1.8h6.9v7c0,0.9,0.7,1.8,1.8,1.8h5.9V30.8H13.9V36.8z"></path> </g> </svg> 