<?xml version="1.0" encoding="UTF-8"?> <svg xmlns="http://www.w3.org/2000/svg" xmlns:xlink="http://www.w3.org/1999/xlink" version="1.1" id="图层_1" x="0px" y="0px" viewBox="0 0 120 60" style="enable-background:new 0 0 120 60;" xml:space="preserve"> <style type="text/css"> .st0{fill:url(#SVGID_1_);} .st1{fill:url(#SVGID_00000047019077219803270320000007817586579804010658_);} .st2{fill:url(#SVGID_00000119822258546097402960000007044913022990956477_);} .st3{fill:url(#SVGID_00000013887641663321132820000006462870088624215465_);} .st4{fill:url(#SVGID_00000023960437035916735030000009757848529206911918_);} .st5{fill:url(#SVGID_00000132773890986168560670000005942251733673554364_);} .st6{fill:url(#SVGID_00000028288347510345762320000003234169419217145505_);} .st7{fill:url(#SVGID_00000137109435582961017140000014316475366613951628_);} .st8{fill:url(#SVGID_00000098181160514530294420000004807832032890146466_);} .st9{fill:url(#SVGID_00000164490508938503594350000009991021174409440151_);} .st10{fill:url(#SVGID_00000104680371789184256930000001436722780662136471_);} .st11{fill:url(#SVGID_00000066515519695827481370000007350296498085003452_);} .st12{fill:url(#SVGID_00000090289979290381622100000009543399140233427381_);} .st13{fill:url(#SVGID_00000107547415404049819910000005709849823723406250_);} .st14{fill:url(#SVGID_00000008134006571337026430000011608517198284029874_);} .st15{fill:url(#SVGID_00000127012940530917748810000005240236893233807794_);} .st16{fill:url(#SVGID_00000057851325766313007440000001691322681567358088_);} .st17{fill:url(#SVGID_00000005965485733115519830000015902810669613166472_);} .st18{fill:url(#SVGID_00000013882240041733541340000009195551075336487810_);} .st19{fill:url(#SVGID_00000084506163613333127650000006613921237451407278_);} .st20{fill:url(#SVGID_00000050638858123929820200000012423207270344212360_);} .st21{fill:#E50012;} .st22{opacity:0.68;fill:url(#SVGID_00000046297506698242335970000002704218945742264970_);enable-background:new ;} .st23{opacity:0.52;fill:url(#SVGID_00000011717631370614094740000008176316041486817714_);enable-background:new ;} .st24{fill:url(#SVGID_00000106118382929416303920000006425352917899770524_);} .st25{fill:url(#SVGID_00000116928753664174027980000015781644152275663265_);} .st26{fill:url(#SVGID_00000022559262294133311320000002759257086763034760_);} .st27{fill:url(#SVGID_00000027572314695596632550000005083277135145143949_);} .st28{opacity:0.88;fill:url(#SVGID_00000146463739681486844760000001745284601519425455_);enable-background:new ;} .st29{opacity:0.58;fill:url(#SVGID_00000084531488668652035390000005731550624211386031_);enable-background:new ;} .st30{opacity:0.58;fill:url(#SVGID_00000108287401198492858820000001423129090921359530_);enable-background:new ;} .st31{opacity:0.65;fill:url(#SVGID_00000004548421711080103110000005086641309270847133_);enable-background:new ;} .st32{opacity:0.51;fill:url(#SVGID_00000081619688079377472780000015819779157725940367_);enable-background:new ;} </style> <g> <g> <linearGradient id="SVGID_1_" gradientUnits="userSpaceOnUse" x1="777.9851" y1="-587.5274" x2="670.7223" y2="-562.3723" gradientTransform="matrix(1 0 0 -1 -664.449 -535.8035)"> <stop offset="0" style="stop-color:#FFFFFF"></stop> <stop offset="0.25" style="stop-color:#666666"></stop> <stop offset="0.5" style="stop-color:#FFFFFF"></stop> <stop offset="0.75" style="stop-color:#666666"></stop> <stop offset="1" style="stop-color:#FFFFFF"></stop> </linearGradient> <path class="st0" d="M25.4,24.5c2.2-3.5,6.7-5.7,12.3-6.1l3,0l-3-0.8c-1.9-0.4-3.8-0.6-5.7-0.6c-4.7,0-8.1,1-11.8,3.3 c-0.5,0.3-0.7,0.8-0.7,0.8s0.9-0.3,1.2,0.1c0,0,0.1,0.3-0.1,0.6c-0.1,0.1-0.6,0.9-1.3,2c-1.3-1.1-2.2-1.8-2.4-2 c-0.3-0.3-0.5-0.6-0.4-0.9c0-0.5,0.5-1.2,1.4-2l1.6-1.4l-2,0.6c-2.7,0.8-8.5,3.9-8.7,4l-1.1,0.6L9,22.9c1.8,0.3,2.7,0.9,3.6,1.5 c0.4,0.3,2.2,1.7,4.2,3.3C12.6,34,6.7,43,6.6,43.1l2-0.9c0.1-0.1,4.7-5.3,9.8-7.1l0.1,0l0.1-0.1c0,0,0.9-1.3,2.4-3.7 c0.9,0.8,1.7,1.4,2.3,1.9c0.6,0.5,0.7,0.8,0.9,1.3l0.1,0.3l0.3,0c2.6-0.1,4.5,0.7,6.1,2.6l0.1,0.1l0.2,0c1.1,0,5.5,2.2,8.4,3.9 l2,0.4c-0.2-0.1-10.7-8.7-17.9-14.6C24.2,26.3,24.8,25.4,25.4,24.5z"></path> <linearGradient id="SVGID_00000123430066777913484380000018042566719891059585_" gradientUnits="userSpaceOnUse" x1="781.9104" y1="-570.7902" x2="674.6474" y2="-545.6351" gradientTransform="matrix(1 0 0 -1 -664.449 -535.8035)"> <stop offset="0" style="stop-color:#FFFFFF"></stop> <stop offset="0.25" style="stop-color:#666666"></stop> <stop offset="0.5" style="stop-color:#FFFFFF"></stop> <stop offset="0.75" style="stop-color:#666666"></stop> <stop offset="1" style="stop-color:#FFFFFF"></stop> </linearGradient> <polygon style="fill:url(#SVGID_00000123430066777913484380000018042566719891059585_);" points="94.2,34.4 96.8,32.1 96.8,23.7 94.3,23.7 90.7,29.6 87.1,23.7 83.1,23.7 84.6,25.2 84.6,30.7 83.9,31.6 87,34.3 87,26.9 89.5,31.1 91.8,31.1 94.2,27 "></polygon> <linearGradient id="SVGID_00000159461700284373435910000017875816946904134552_" gradientUnits="userSpaceOnUse" x1="779.3798" y1="-581.5806" x2="672.1168" y2="-556.4254" gradientTransform="matrix(1 0 0 -1 -664.449 -535.8035)"> <stop offset="0" style="stop-color:#FFFFFF"></stop> <stop offset="0.25" style="stop-color:#666666"></stop> <stop offset="0.5" style="stop-color:#FFFFFF"></stop> <stop offset="0.75" style="stop-color:#666666"></stop> <stop offset="1" style="stop-color:#FFFFFF"></stop> </linearGradient> <polygon style="fill:url(#SVGID_00000159461700284373435910000017875816946904134552_);" points="50.1,25.9 48.2,23.7 28.7,23.7 30.6,25.8 31.3,25.1 35.1,25.1 35.1,33.5 37.9,31 37.9,25.1 46.3,25.1 46.9,25.8 44.7,28.1 46.3,31.7 52.3,36 47.7,28.4 "></polygon> <linearGradient id="SVGID_00000065074912861255246010000004700918311129207976_" gradientUnits="userSpaceOnUse" x1="780.3849" y1="-577.2949" x2="673.122" y2="-552.1398" gradientTransform="matrix(1 0 0 -1 -664.449 -535.8035)"> <stop offset="0" style="stop-color:#FFFFFF"></stop> <stop offset="0.25" style="stop-color:#666666"></stop> <stop offset="0.5" style="stop-color:#FFFFFF"></stop> <stop offset="0.75" style="stop-color:#666666"></stop> <stop offset="1" style="stop-color:#FFFFFF"></stop> </linearGradient> <polygon style="fill:url(#SVGID_00000065074912861255246010000004700918311129207976_);" points="55.3,33.2 57.9,30.9 57.9,29.5 59.8,28 61.7,31.7 67.7,36 61.9,26.5 65.5,23.7 61.1,23.7 61.9,24.6 57.9,27.6 57.9,23.7 54.9,23.7 55.3,24.2 "></polygon> <linearGradient id="SVGID_00000047025373295427998840000006440766138161725868_" gradientUnits="userSpaceOnUse" x1="779.9879" y1="-578.9896" x2="672.7247" y2="-553.8344" gradientTransform="matrix(1 0 0 -1 -664.449 -535.8035)"> <stop offset="0" style="stop-color:#FFFFFF"></stop> <stop offset="0.25" style="stop-color:#666666"></stop> <stop offset="0.5" style="stop-color:#FFFFFF"></stop> <stop offset="0.75" style="stop-color:#666666"></stop> <stop offset="1" style="stop-color:#FFFFFF"></stop> </linearGradient> <polygon style="fill:url(#SVGID_00000047025373295427998840000006440766138161725868_);" points="51.5,33.2 54.1,30.9 54.1,23.7 51.1,23.7 51.5,24.2 "></polygon> <linearGradient id="SVGID_00000130639328008537142250000002207155089737976706_" gradientUnits="userSpaceOnUse" x1="779.1387" y1="-582.6075" x2="671.8765" y2="-557.4526" gradientTransform="matrix(1 0 0 -1 -664.449 -535.8035)"> <stop offset="0" style="stop-color:#FFFFFF"></stop> <stop offset="0.25" style="stop-color:#666666"></stop> <stop offset="0.5" style="stop-color:#FFFFFF"></stop> <stop offset="0.75" style="stop-color:#666666"></stop> <stop offset="1" style="stop-color:#FFFFFF"></stop> </linearGradient> <polygon style="fill:url(#SVGID_00000130639328008537142250000002207155089737976706_);" points="43.3,31.2 43.3,26 40.3,26 40.7,26.5 40.7,33.5 "></polygon> <linearGradient id="SVGID_00000161625440524852728000000011225774745332991917_" gradientUnits="userSpaceOnUse" x1="780.8411" y1="-575.3501" x2="673.5781" y2="-550.1949" gradientTransform="matrix(1 0 0 -1 -664.449 -535.8035)"> <stop offset="0" style="stop-color:#FFFFFF"></stop> <stop offset="0.25" style="stop-color:#666666"></stop> <stop offset="0.5" style="stop-color:#FFFFFF"></stop> <stop offset="0.75" style="stop-color:#666666"></stop> <stop offset="1" style="stop-color:#FFFFFF"></stop> </linearGradient> <polygon style="fill:url(#SVGID_00000161625440524852728000000011225774745332991917_);" points="74.4,30.5 70.4,30.5 70.4,28.5 75.3,28.5 73.6,27 70.4,27 70.4,25.1 77.3,25.1 75.7,23.7 66,23.7 67.8,25.6 67.8,34.4 70.3,32.2 77.9,32.2 74.8,29.6 "></polygon> <linearGradient id="SVGID_00000085219911368753380190000006307242637298774163_" gradientUnits="userSpaceOnUse" x1="782.4078" y1="-568.6701" x2="675.1424" y2="-543.5144" gradientTransform="matrix(1 0 0 -1 -664.449 -535.8035)"> <stop offset="0" style="stop-color:#FFFFFF"></stop> <stop offset="0.25" style="stop-color:#666666"></stop> <stop offset="0.5" style="stop-color:#FFFFFF"></stop> <stop offset="0.75" style="stop-color:#666666"></stop> <stop offset="1" style="stop-color:#FFFFFF"></stop> </linearGradient> <polygon style="fill:url(#SVGID_00000085219911368753380190000006307242637298774163_);" points="109.8,30.3 109.8,30.5 110.4,30.5 110.4,32.2 110.5,32.2 110.6,32.2 110.6,30.5 111.2,30.5 111.2,30.3 111.2,30.2 109.8,30.2 "></polygon> <linearGradient id="SVGID_00000137825505407466916960000001505294148919364543_" gradientUnits="userSpaceOnUse" x1="782.4989" y1="-568.2811" x2="675.2354" y2="-543.1258" gradientTransform="matrix(1 0 0 -1 -664.449 -535.8035)"> <stop offset="0" style="stop-color:#FFFFFF"></stop> <stop offset="0.25" style="stop-color:#666666"></stop> <stop offset="0.5" style="stop-color:#FFFFFF"></stop> <stop offset="0.75" style="stop-color:#666666"></stop> <stop offset="1" style="stop-color:#FFFFFF"></stop> </linearGradient> <polygon style="fill:url(#SVGID_00000137825505407466916960000001505294148919364543_);" points="113.2,30.2 113.1,30.2 112.6,31.8 112.1,30.2 111.9,30.2 111.7,30.2 111.7,32.2 111.8,32.2 111.9,32.2 111.9,30.5 112.4,32.2 112.6,32.2 112.7,32.2 113.2,30.5 113.2,30.5 113.2,32.2 113.3,32.2 113.4,32.2 113.4,30.2 "></polygon> <linearGradient id="SVGID_00000077297713168929692390000011515467677622179482_" gradientUnits="userSpaceOnUse" x1="782.4789" y1="-568.3663" x2="675.2161" y2="-543.2112" gradientTransform="matrix(1 0 0 -1 -664.449 -535.8035)"> <stop offset="0" style="stop-color:#FFFFFF"></stop> <stop offset="0.25" style="stop-color:#666666"></stop> <stop offset="0.5" style="stop-color:#FFFFFF"></stop> <stop offset="0.75" style="stop-color:#666666"></stop> <stop offset="1" style="stop-color:#FFFFFF"></stop> </linearGradient> <polygon style="fill:url(#SVGID_00000077297713168929692390000011515467677622179482_);" points="105.8,30.5 101.8,30.5 101.8,28.5 106.8,28.5 105,27 101.8,27 101.8,25.1 108.7,25.1 107.1,23.7 97.4,23.7 99.2,25.6 99.2,34.4 101.7,32.2 109.3,32.2 106.2,29.6 "></polygon> <linearGradient id="SVGID_00000114052532336810441830000017571283268662354367_" gradientUnits="userSpaceOnUse" x1="113.0105" y1="5.4165" x2="5.748" y2="30.5715" gradientTransform="matrix(1 0 0 -1 0 59.3798)"> <stop offset="0" style="stop-color:#FFFFFF"></stop> <stop offset="0.25" style="stop-color:#666666"></stop> <stop offset="0.5" style="stop-color:#FFFFFF"></stop> <stop offset="0.75" style="stop-color:#666666"></stop> <stop offset="1" style="stop-color:#FFFFFF"></stop> </linearGradient> <path style="fill:url(#SVGID_00000114052532336810441830000017571283268662354367_);" d="M45.9,36.9h-2h-2.4v0.4v0.9v0.4h2.4h2 c0.3,0,0.4-0.1,0.4-0.4v-0.9C46.3,37,46.2,36.9,45.9,36.9z M45.8,38l-0.1,0.1h-1.8h-1.8v-0.9h1.8h1.8c0.1,0.1,0.1,0.1,0.1,0.2 L45.8,38L45.8,38z"></path> <linearGradient id="SVGID_00000106835193204878747080000016174223021098765742_" gradientUnits="userSpaceOnUse" x1="113.319" y1="6.7291" x2="6.0558" y2="31.8843" gradientTransform="matrix(1 0 0 -1 0 59.3798)"> <stop offset="0" style="stop-color:#FFFFFF"></stop> <stop offset="0.25" style="stop-color:#666666"></stop> <stop offset="0.5" style="stop-color:#FFFFFF"></stop> <stop offset="0.75" style="stop-color:#666666"></stop> <stop offset="1" style="stop-color:#FFFFFF"></stop> </linearGradient> <path style="fill:url(#SVGID_00000106835193204878747080000016174223021098765742_);" d="M51.8,36.9h-2h-2.4v1.7h0.5v-0.7h1h0.9 h0.1h1.3l0.4,0.7h0.6l-0.4-0.7h0c0.2,0,0.4-0.1,0.4-0.4v-0.3C52.2,37,52.1,36.9,51.8,36.9z M51.5,37.5h-1.7h-1.9v-0.3h1.9h1.7h0 c0.1,0,0.1,0.1,0.1,0.1C51.7,37.4,51.6,37.5,51.5,37.5z"></path> <linearGradient id="SVGID_00000013162498907267524270000010032418516612539017_" gradientUnits="userSpaceOnUse" x1="778.0807" y1="-587.121" x2="670.818" y2="-561.9659" gradientTransform="matrix(1 0 0 -1 -664.449 -535.8035)"> <stop offset="0" style="stop-color:#FFFFFF"></stop> <stop offset="0.25" style="stop-color:#666666"></stop> <stop offset="0.5" style="stop-color:#FFFFFF"></stop> <stop offset="0.75" style="stop-color:#666666"></stop> <stop offset="1" style="stop-color:#FFFFFF"></stop> </linearGradient> <polygon style="fill:url(#SVGID_00000013162498907267524270000010032418516612539017_);" points="53.3,38.6 58.1,38.6 58.1,38.1 53.8,38.1 53.8,37.9 58.1,37.9 58.1,37.5 53.8,37.5 53.8,37.3 58.1,37.3 58.1,36.9 53.3,36.9 "></polygon> <linearGradient id="SVGID_00000080193421932690272910000006681447960154738850_" gradientUnits="userSpaceOnUse" x1="113.9293" y1="9.3294" x2="6.6656" y2="34.4847" gradientTransform="matrix(1 0 0 -1 0 59.3798)"> <stop offset="0" style="stop-color:#FFFFFF"></stop> <stop offset="0.25" style="stop-color:#666666"></stop> <stop offset="0.5" style="stop-color:#FFFFFF"></stop> <stop offset="0.75" style="stop-color:#666666"></stop> <stop offset="1" style="stop-color:#FFFFFF"></stop> </linearGradient> <path style="fill:url(#SVGID_00000080193421932690272910000006681447960154738850_);" d="M63.5,36.9h-2h-1.9 c-0.3,0-0.5,0.1-0.5,0.3v1.4h0.5v-0.7h1.8h1.8l0,0.2v0.5h0.6v-0.5v-0.6v-0.3C63.9,37,63.8,36.9,63.5,36.9z M63.4,37.5h-1.8h-1.8 v-0.1c0-0.1,0.1-0.1,0.1-0.1l1.7,0l1.7,0c0,0,0.1,0,0.1,0.1L63.4,37.5z"></path> <linearGradient id="SVGID_00000016766243926888471220000003413416727188464828_" gradientUnits="userSpaceOnUse" x1="778.6848" y1="-584.5442" x2="671.4221" y2="-559.3891" gradientTransform="matrix(1 0 0 -1 -664.449 -535.8035)"> <stop offset="0" style="stop-color:#FFFFFF"></stop> <stop offset="0.25" style="stop-color:#666666"></stop> <stop offset="0.5" style="stop-color:#FFFFFF"></stop> <stop offset="0.75" style="stop-color:#666666"></stop> <stop offset="1" style="stop-color:#FFFFFF"></stop> </linearGradient> <path style="fill:url(#SVGID_00000016766243926888471220000003413416727188464828_);" d="M69.4,36.9h-1l-0.5,0l-0.5,0h-1h-1 c-0.3,0-0.4,0.1-0.4,0.4v0.9v0.4h0.6v-1.2c0-0.1,0.1-0.1,0.1-0.1h1.4l0,1.3h0.5v-1.3h1.4c0,0,0.1,0,0.2,0.1V38v0.5h0.6v-0.4v-0.9 C69.8,37,69.7,36.9,69.4,36.9z"></path> <linearGradient id="SVGID_00000018933769914973436360000016512106271173361809_" gradientUnits="userSpaceOnUse" x1="779.1018" y1="-582.7659" x2="671.8392" y2="-557.6108" gradientTransform="matrix(1 0 0 -1 -664.449 -535.8035)"> <stop offset="0" style="stop-color:#FFFFFF"></stop> <stop offset="0.25" style="stop-color:#666666"></stop> <stop offset="0.5" style="stop-color:#FFFFFF"></stop> <stop offset="0.75" style="stop-color:#666666"></stop> <stop offset="1" style="stop-color:#FFFFFF"></stop> </linearGradient> <path style="fill:url(#SVGID_00000018933769914973436360000016512106271173361809_);" d="M77.4,36.9h-1l-0.5,0l-0.5,0h-1h-1 c-0.3,0-0.4,0.1-0.4,0.4v0.9v0.4h0.6v-1.2c0-0.1,0.1-0.1,0.1-0.1h1.4l0,1.3h0.5v-1.3h1.4c0,0,0.1,0,0.2,0.1V38v0.5h0.6v-0.4v-0.9 C77.8,37,77.7,36.9,77.4,36.9z"></path> <linearGradient id="SVGID_00000071557159043481224160000000587378584850992776_" gradientUnits="userSpaceOnUse" x1="779.472" y1="-581.1882" x2="672.2088" y2="-556.033" gradientTransform="matrix(1 0 0 -1 -664.449 -535.8035)"> <stop offset="0" style="stop-color:#FFFFFF"></stop> <stop offset="0.25" style="stop-color:#666666"></stop> <stop offset="0.5" style="stop-color:#FFFFFF"></stop> <stop offset="0.75" style="stop-color:#666666"></stop> <stop offset="1" style="stop-color:#FFFFFF"></stop> </linearGradient> <path style="fill:url(#SVGID_00000071557159043481224160000000587378584850992776_);" d="M83.2,37.3c0,0.1-0.1,0.1-0.2,0.2h-3.4 c-0.1,0-0.2,0-0.2-0.1v-0.5h-0.5v0.6c0,0.3,0.1,0.4,0.4,0.4h1.1H81l0,0.7l0.5,0v-0.7h0.8h1c0.2,0,0.4-0.1,0.4-0.4v-0.3v-0.3h-0.5 L83.2,37.3z"></path> <linearGradient id="SVGID_00000136402619555560841290000008501275596800451510_" gradientUnits="userSpaceOnUse" x1="779.7223" y1="-580.1204" x2="672.4597" y2="-554.9653" gradientTransform="matrix(1 0 0 -1 -664.449 -535.8035)"> <stop offset="0" style="stop-color:#FFFFFF"></stop> <stop offset="0.25" style="stop-color:#666666"></stop> <stop offset="0.5" style="stop-color:#FFFFFF"></stop> <stop offset="0.75" style="stop-color:#666666"></stop> <stop offset="1" style="stop-color:#FFFFFF"></stop> </linearGradient> <polygon style="fill:url(#SVGID_00000136402619555560841290000008501275596800451510_);" points="87.4,37.5 87.4,36.9 86.9,36.9 86.9,38.6 91.7,38.6 91.7,38.2 87.4,38.2 "></polygon> <linearGradient id="SVGID_00000079460378739194504110000005670905399135972752_" gradientUnits="userSpaceOnUse" x1="780.1398" y1="-578.3403" x2="672.8766" y2="-553.1851" gradientTransform="matrix(1 0 0 -1 -664.449 -535.8035)"> <stop offset="0" style="stop-color:#FFFFFF"></stop> <stop offset="0.25" style="stop-color:#666666"></stop> <stop offset="0.5" style="stop-color:#FFFFFF"></stop> <stop offset="0.75" style="stop-color:#666666"></stop> <stop offset="1" style="stop-color:#FFFFFF"></stop> </linearGradient> <polygon style="fill:url(#SVGID_00000079460378739194504110000005670905399135972752_);" points="92.8,37.3 94.9,37.3 94.9,37.4 94.9,38.1 92.8,38.1 92.8,38.6 95.4,38.6 97.6,38.6 97.6,38.1 95.4,38.1 95.4,37.3 97.6,37.3 97.6,36.9 92.8,36.9 "></polygon> <linearGradient id="SVGID_00000151520358830234720200000017010695246128960655_" gradientUnits="userSpaceOnUse" x1="780.4459" y1="-577.0351" x2="673.1832" y2="-551.88" gradientTransform="matrix(1 0 0 -1 -664.449 -535.8035)"> <stop offset="0" style="stop-color:#FFFFFF"></stop> <stop offset="0.25" style="stop-color:#666666"></stop> <stop offset="0.5" style="stop-color:#FFFFFF"></stop> <stop offset="0.75" style="stop-color:#666666"></stop> <stop offset="1" style="stop-color:#FFFFFF"></stop> </linearGradient> <polygon style="fill:url(#SVGID_00000151520358830234720200000017010695246128960655_);" points="98.6,38.6 99.2,38.6 99.2,37.9 103.4,37.9 103.4,37.5 99.2,37.5 99.2,37.3 103.4,37.3 103.4,36.9 98.6,36.9 "></polygon> <linearGradient id="SVGID_00000122713397172497247340000000879803856057765535_" gradientUnits="userSpaceOnUse" x1="780.7521" y1="-575.7289" x2="673.4895" y2="-550.5739" gradientTransform="matrix(1 0 0 -1 -664.449 -535.8035)"> <stop offset="0" style="stop-color:#FFFFFF"></stop> <stop offset="0.25" style="stop-color:#666666"></stop> <stop offset="0.5" style="stop-color:#FFFFFF"></stop> <stop offset="0.75" style="stop-color:#666666"></stop> <stop offset="1" style="stop-color:#FFFFFF"></stop> </linearGradient> <polygon style="fill:url(#SVGID_00000122713397172497247340000000879803856057765535_);" points="104.5,38.6 109.3,38.6 109.3,38.1 105.1,38.1 105.1,37.9 109.3,37.9 109.3,37.5 105.1,37.5 105.1,37.3 109.3,37.3 109.3,36.9 104.5,36.9 "></polygon> </g> <g> <path class="st21" d="M20.3,20.6c0.9-0.1,1.3,0.4,0.8,1.2C20.6,22.6,7.5,42.2,7.5,42.2s5.5-6.3,10.6-8.1c0,0,2.4-3.7,6.4-9.9 c2.4-3.7,7-5.7,12.1-6C29.8,16.7,23.3,18.2,20.3,20.6z"></path> <path class="st21" d="M9.2,22.5c0,0,5.7-3,8.3-3.8c-1.6,1.3-1.8,2.5-0.9,3.3c1,0.9,22.6,18.6,22.6,18.6s-7.3-4.2-8.9-4.2 c-1.6-1.9-3.5-2.7-6.1-2.6c-0.2-0.6-0.4-0.9-1-1.4c-2.5-2.2-9.5-7.7-10.4-8.3C11.8,23.3,10.9,22.8,9.2,22.5z"></path> <linearGradient id="SVGID_00000161603431274643328160000011385105081479834548_" gradientUnits="userSpaceOnUse" x1="678.6171" y1="-561.0029" x2="680.1056" y2="-559.0181" gradientTransform="matrix(1 0 0 -1 -664.449 -535.8035)"> <stop offset="0" style="stop-color:#FFFFFF"></stop> <stop offset="1" style="stop-color:#000000"></stop> </linearGradient> <path style="opacity:0.68;fill:url(#SVGID_00000161603431274643328160000011385105081479834548_);enable-background:new ;" d=" M14.7,23.5c-1.7-1.3-3.6-1.3-5.3-1c1.6,0.3,2.5,0.8,3.4,1.5c0.4,0.3,2.3,1.8,4.5,3.5l2.2-0.4C17.6,25.7,15.7,24.2,14.7,23.5z"></path> <linearGradient id="SVGID_00000152962830573410461050000012007040882007913897_" gradientUnits="userSpaceOnUse" x1="685.4914" y1="-567.4374" x2="686.9767" y2="-565.5654" gradientTransform="matrix(1 0 0 -1 -664.449 -535.8035)"> <stop offset="0" style="stop-color:#FFFFFF"></stop> <stop offset="1" style="stop-color:#000000"></stop> </linearGradient> <path style="opacity:0.52;fill:url(#SVGID_00000152962830573410461050000012007040882007913897_);enable-background:new ;" d=" M24.3,33.6c0.5-0.7,0.5-2,0-2.7c-0.7-0.8-2.3-2-4.6-3.7l1,2.8c1,0.8,2,1.6,2.6,2.1c0.6,0.5,0.9,0.9,0.9,1.5c0,0,0,0,0,0L24.3,33.6 C24.3,33.7,24.3,33.6,24.3,33.6z"></path> <linearGradient id="SVGID_00000142158757447642526490000013907149822350807472_" gradientUnits="userSpaceOnUse" x1="692.6603" y1="-568.8238" x2="691.0819" y2="-572.253" gradientTransform="matrix(1 0 0 -1 -664.449 -535.8035)"> <stop offset="0" style="stop-color:#FFFFFF"></stop> <stop offset="1" style="stop-color:#000000"></stop> </linearGradient> <path style="fill:url(#SVGID_00000142158757447642526490000013907149822350807472_);" d="M27.1,33.4c-0.6-0.2-1.9-0.3-2.8,0.3 c0,0,0,0,0,0l0,0c2.7-0.2,4.6,0.7,6.1,2.6c0,0,0,0,0,0c0,0,0,0,0-0.1C29.6,34.6,28.4,33.9,27.1,33.4z"></path> <linearGradient id="SVGID_00000079465981640983549990000000181648632828569507_" gradientUnits="userSpaceOnUse" x1="699.9703" y1="-572.665" x2="698.5107" y2="-575.6885" gradientTransform="matrix(1 0 0 -1 -664.449 -535.8035)"> <stop offset="0" style="stop-color:#FFFFFF"></stop> <stop offset="1" style="stop-color:#000000"></stop> </linearGradient> <path style="fill:url(#SVGID_00000079465981640983549990000000181648632828569507_);" d="M35,37.9c-1.8-1.2-3.4-2-4.6-1.6 c0,0,0,0,0,0c0,0,0,0,0,0.1c2,0,8.9,4.2,8.9,4.2S37.4,39.5,35,37.9z"></path> <linearGradient id="SVGID_00000129192267333568520710000014373802670885929869_" gradientUnits="userSpaceOnUse" x1="678.0656" y1="-574.7039" x2="675.3518" y2="-571.9025" gradientTransform="matrix(1 0 0 -1 -664.449 -535.8035)"> <stop offset="0" style="stop-color:#FFFFFF"></stop> <stop offset="1" style="stop-color:#000000"></stop> </linearGradient> <path style="fill:url(#SVGID_00000129192267333568520710000014373802670885929869_);" d="M12.5,36.3c-1,1.1-3.9,4.5-4.9,5.9 c0,0,0,0,0,0S13,35.8,18.1,34c0,0,0-0.1,0-0.1l0,0C15.3,33.3,13.4,35.3,12.5,36.3z"></path> <linearGradient id="SVGID_00000165199543766325004770000004884196749355892373_" gradientUnits="userSpaceOnUse" x1="684.8948" y1="-566.7833" x2="679.294" y2="-565.6567" gradientTransform="matrix(1 0 0 -1 -664.449 -535.8035)"> <stop offset="0" style="stop-color:#FFFFFF"></stop> <stop offset="1" style="stop-color:#000000"></stop> </linearGradient> <path style="fill:url(#SVGID_00000165199543766325004770000004884196749355892373_);" d="M19.5,27.3c-3.2,4-1.4,6.7-1.4,6.7 c0.1-0.1,0.8-1.3,2.5-3.9L19.5,27.3z"></path> <linearGradient id="SVGID_00000129894340131778508880000010214126533628254367_" gradientUnits="userSpaceOnUse" x1="692.6328" y1="-558.6127" x2="688.0503" y2="-554.2213" gradientTransform="matrix(1 0 0 -1 -664.449 -535.8035)"> <stop offset="0" style="stop-color:#FFFFFF"></stop> <stop offset="1" style="stop-color:#000000"></stop> </linearGradient> <path style="opacity:0.88;fill:url(#SVGID_00000129894340131778508880000010214126533628254367_);enable-background:new ;" d=" M25.4,20.5c-0.4,0.3-1.4,1.3-1.7,1.6c-1,1.2-2.4,3-4.1,5.1l3-0.2c0.6-0.9,1.2-2,1.9-3c2.4-3.6,6.7-5.4,12-5.9 C34.2,17.9,28.2,18.4,25.4,20.5z"></path> <linearGradient id="SVGID_00000128442833155992692930000000516424828143493767_" gradientUnits="userSpaceOnUse" x1="682.3406" y1="-563.0431" x2="681.0099" y2="-552.6058" gradientTransform="matrix(1 0 0 -1 -664.449 -535.8035)"> <stop offset="0" style="stop-color:#FFFFFF"></stop> <stop offset="1" style="stop-color:#000000"></stop> </linearGradient> <path style="opacity:0.58;fill:url(#SVGID_00000128442833155992692930000000516424828143493767_);enable-background:new ;" d=" M17.4,18.7c-1,0.5-2.9,2.7-1.8,3.8c1.7,1.7,3.9,3.4,3.9,3.4l-0.1-1.6c-1.6-1.3-2.6-2.2-2.8-2.3C15.7,21.1,15.9,20.1,17.4,18.7z"></path> <linearGradient id="SVGID_00000062871861099610887110000001536579600031057598_" gradientUnits="userSpaceOnUse" x1="693.6263" y1="-569.9633" x2="695.9525" y2="-566.8437" gradientTransform="matrix(1 0 0 -1 -664.449 -535.8035)"> <stop offset="0" style="stop-color:#FFFFFF"></stop> <stop offset="0.7232" style="stop-color:#000000"></stop> </linearGradient> <path style="opacity:0.58;fill:url(#SVGID_00000062871861099610887110000001536579600031057598_);enable-background:new ;" d=" M22.6,27.1l15.6,12.8c0,0-5.4-4.4-7.3-4.2c-0.4-1.3-1.2-2-2.7-2.8c-0.7-0.4-2.4-0.5-3.3,0c0.8-1,0.2-2.3-0.5-2.8 c-0.6-0.6-3.4-2.9-3.4-2.9L22.6,27.1z"></path> <linearGradient id="SVGID_00000140693957564328650850000015057661287942338235_" gradientUnits="userSpaceOnUse" x1="685.6744" y1="-559.2499" x2="683.5685" y2="-557.5184" gradientTransform="matrix(1 0 0 -1 -664.449 -535.8035)"> <stop offset="0" style="stop-color:#FFFFFF"></stop> <stop offset="1" style="stop-color:#000000"></stop> </linearGradient> <path style="opacity:0.65;fill:url(#SVGID_00000140693957564328650850000015057661287942338235_);enable-background:new ;" d=" M22.2,20.6c-0.3-0.2-1.2-0.2-1.9,0c0.9-0.1,1.3,0.4,0.8,1.2c-0.1,0.2-0.7,1.1-1.6,2.5l0.1,1.4c1.2-1.7,2.1-2.9,2.2-3 C22.3,21.8,22.6,21,22.2,20.6z"></path> <linearGradient id="SVGID_00000063626324915298464850000002527953032722956196_" gradientUnits="userSpaceOnUse" x1="677.5815" y1="-570.6776" x2="676.303" y2="-569.7964" gradientTransform="matrix(1 0 0 -1 -664.449 -535.8035)"> <stop offset="0" style="stop-color:#FFFFFF"></stop> <stop offset="1" style="stop-color:#000000"></stop> </linearGradient> <path style="opacity:0.51;fill:url(#SVGID_00000063626324915298464850000002527953032722956196_);enable-background:new ;" d=" M17.3,27.5c-4,6-9.7,14.6-9.7,14.6s0,0,0.1-0.1c2.5-3.4,7.4-10.1,10.7-14.7L17.3,27.5z"></path> </g> </g> </svg> 