<?xml version="1.0" encoding="UTF-8"?> <svg xmlns="http://www.w3.org/2000/svg" xmlns:xlink="http://www.w3.org/1999/xlink" version="1.1" id="图层_1" x="0px" y="0px" viewBox="0 0 120 60" style="enable-background:new 0 0 120 60;" xml:space="preserve"> <style type="text/css"> .st0{fill:#FF6900;} .st1{fill:#FFFFFF;} </style> <g> <g> <g> <path class="st0" d="M75.8,14.2C72.1,10.4,66.7,10,60,10s-12.1,0.4-15.8,4.2S40,23.4,40,30s0.4,12.1,4.1,15.8S53.3,50,60,50 s12.1-0.4,15.8-4.1C79.6,42.1,80,36.7,80,30S79.6,18,75.8,14.2z"></path> </g> <g> <g> <path class="st1" d="M58.6,37.4c0,0.1-0.1,0.2-0.2,0.2h-3.4c-0.1,0-0.2-0.1-0.2-0.2v-8.9c0-0.1,0.1-0.2,0.2-0.2h3.4 c0.1,0,0.2,0.1,0.2,0.2V37.4z"></path> </g> <g> <path class="st1" d="M65.2,37.4c0,0.1-0.1,0.2-0.2,0.2h-3.2c-0.1,0-0.2-0.1-0.2-0.2v-0.1v-7.6c0-1.3-0.1-2.7-0.8-3.4 c-0.6-0.6-1.7-0.7-2.9-0.8H52c-0.1,0-0.2,0.1-0.2,0.2v10.8v0.8c0,0.1-0.1,0.2-0.2,0.2h-3.2c-0.1,0-0.2-0.1-0.2-0.2V22.6 c0-0.1,0.1-0.2,0.2-0.2h9.4c2.5,0,5,0.1,6.3,1.4c1.3,1.3,1.4,3.8,1.4,6.3L65.2,37.4L65.2,37.4z"></path> </g> <g> <path class="st1" d="M71.9,37.4c0,0.1-0.1,0.2-0.2,0.2h-3.2c-0.1,0-0.2-0.1-0.2-0.2V22.6c0-0.1,0.1-0.2,0.2-0.2h3.2 c0.1,0,0.2,0.1,0.2,0.2V37.4z"></path> </g> </g> </g> </g> </svg> 