<?xml version="1.0" encoding="UTF-8"?> <svg xmlns="http://www.w3.org/2000/svg" xmlns:xlink="http://www.w3.org/1999/xlink" version="1.1" id="レイヤー_1" x="0px" y="0px" viewBox="0 0 120 120" style="enable-background:new 0 0 120 120;" xml:space="preserve"> <style type="text/css"> .st0{fill:none;} .st1{fill:#F26522;} .st2{fill:#808285;} .st3{fill:#FFFFFF;} </style> <g> <rect x="-28" y="-64.4" class="st0" width="175.9" height="248.8"></rect> <g> <g> <path class="st1" d="M79.3,27c-4.6-4.6-11.2-5.1-19.3-5.1c-8.1,0-14.7,0.5-19.3,5.1c-4.6,4.6-5.1,11.2-5.1,19.3 s0.5,14.7,5.1,19.3c4.6,4.6,11.2,5.1,19.3,5.1s14.7-0.5,19.3-5.1c4.6-4.6,5.1-11.2,5.1-19.3C84.4,38.2,83.9,31.6,79.3,27z M58.2,55.3c0,0.2-0.1,0.3-0.3,0.3h-4.2c-0.2,0-0.3-0.1-0.3-0.3V44.5c0-0.2,0.1-0.3,0.3-0.3h4.2c0.2,0,0.3,0.1,0.3,0.3V55.3z M66.3,55.3c0,0.2-0.1,0.3-0.3,0.3h-4c-0.2,0-0.3-0.1-0.3-0.3v0V46c0-1.6-0.1-3.3-0.9-4.2c-0.7-0.7-2.1-0.9-3.5-0.9h-7.2 c-0.2,0-0.3,0.1-0.3,0.3v13.2v1c0,0.2-0.1,0.3-0.3,0.3h-4c-0.2,0-0.3-0.1-0.3-0.3v-18c0-0.2,0.1-0.3,0.3-0.3H57 c3,0,6.1,0.1,7.6,1.7c1.5,1.5,1.7,4.7,1.7,7.6L66.3,55.3L66.3,55.3z M74.5,55.3c0,0.2-0.1,0.3-0.3,0.3h-4c-0.2,0-0.3-0.1-0.3-0.3 V37.3c0-0.2,0.1-0.3,0.3-0.3h4c0.2,0,0.3,0.1,0.3,0.3V55.3z"></path> <g> <path class="st2" d="M56.4,81.6c-0.8-1.1-2.3-1.5-3.8-1.4c-1.5,0.1-2.6,0.4-2.9,0.5c-0.2,0.1-0.2,0.2-0.2,0.3c0,0.3,0,1.1,0,1.4 c0,0.1,0.2,0.2,0.3,0.2c0.6-0.2,1.6-0.5,2.4-0.6c0.9-0.1,2.1,0,2.5,0.5c0.2,0.2,0.2,0.6,0.2,1c-0.6-0.1-1.4-0.1-2.2-0.1 c-0.6,0-1.9,0.1-2.6,0.5c-0.6,0.3-0.9,0.6-1.1,1.1c-0.1,0.4-0.2,0.9-0.1,1.4c0.1,1,0.4,1.4,0.9,1.8c0.7,0.5,1.6,0.8,3.5,0.8 c2.5-0.1,3.1-0.9,3.4-1.4c0.6-1,0.5-2.5,0.4-3.4C57,83.7,57,82.4,56.4,81.6z M53.2,87.2c-0.9,0-1.6,0-2-0.2 c-0.3-0.1-0.5-0.5-0.5-0.8c0-0.3,0-0.5,0.1-0.7c0.3-0.4,1.2-0.5,2-0.5c0.6,0,1.5,0,2.1,0.1c0,0.6,0,1.3-0.2,1.5 C54.5,87.1,53.7,87.2,53.2,87.2z"></path> <path class="st2" d="M63.4,80.3c-1.2,0-2.5,0.2-3.3,0.9c-0.8,0.8-1.1,1.9-1.1,3.4c0,1.4,0.3,2.6,1.1,3.3c0.8,0.8,2.1,1,3.3,1 c1.2,0,2.5-0.2,3.3-0.9c0.8-0.8,1.1-1.9,1.1-3.4s-0.3-2.6-1.1-3.3C65.9,80.5,64.7,80.3,63.4,80.3z M65.3,86.7 c-0.4,0.5-1.2,0.6-1.9,0.6c-0.7,0-1.4-0.1-1.9-0.6c-0.4-0.5-0.5-1.2-0.5-2.1s0-1.5,0.5-2c0.4-0.5,1.1-0.6,1.9-0.6 c0.7,0,1.5,0.1,1.9,0.6s0.5,1.2,0.5,2C65.8,85.5,65.8,86.2,65.3,86.7z"></path> <path class="st2" d="M87.1,80.5h-1.8c-0.1,0-0.1,0.1-0.1,0.1v8c0,0.1,0.1,0.1,0.1,0.1h1.8c0.1,0,0.1-0.1,0.1-0.1v-8 C87.2,80.5,87.2,80.5,87.1,80.5z"></path> <path class="st2" d="M78.9,80.3c-1.2,0-2,0.3-2.4,0.5h-0.3c-0.5-0.3-1.3-0.5-2.5-0.5c-0.9,0-2.1,0.1-2.8,0.7 c-0.6,0.5-0.7,1.1-0.7,2.5v5.2c0,0.1,0.1,0.1,0.1,0.1H72c0.1,0,0.1-0.1,0.1-0.1v0c0,0,0-3.3,0-4.2c0-0.8,0-1.6,0.1-1.9 c0.1-0.2,0.3-0.5,1.3-0.5c1.1,0,1.4,0.1,1.6,0.6c0,0.1,0.1,0.3,0.1,0.5c0,0.3,0,0.7,0,1.7v3.8c0,0.1,0.1,0.1,0.1,0.1l0,0h1.8 l0,0c0.1,0,0.1-0.1,0.1-0.1v-3.8c0-1,0-1.5,0-1.7c0-0.2,0-0.4,0.1-0.5c0.2-0.5,0.4-0.6,1.6-0.6c1,0,1.2,0.3,1.3,0.5 c0.2,0.3,0.1,1.1,0.1,1.9c0,1,0,4.2,0,4.2v0c0,0.1,0.1,0.1,0.1,0.1h1.8c0.1,0,0.1-0.1,0.1-0.1v-4.9c0-1.4,0-2.1-0.7-2.7 C81,80.4,79.8,80.3,78.9,80.3z"></path> <path class="st2" d="M46.2,80.5h-1.8c-0.1,0-0.1,0.1-0.1,0.1v8c0,0.1,0.1,0.1,0.1,0.1h1.8c0.1,0,0.1-0.1,0.1-0.1v-8 C46.3,80.5,46.2,80.5,46.2,80.5z"></path> <path class="st2" d="M38.8,84.5l3.1-3.9c0.1-0.1,0-0.2-0.1-0.2h-2.3c-0.1,0-0.1,0-0.1,0.1l-2.1,2.7l-2-2.7c0,0-0.1-0.1-0.1-0.1 h-2.3c-0.1,0-0.2,0.1-0.1,0.2l3.2,3.9l-3.2,3.9c-0.1,0.1,0,0.2,0.1,0.2h2.3c0.1,0,0.1,0,0.1-0.1l2.1-2.7l2,2.7 c0,0,0.1,0.1,0.1,0.1h2.2c0.1,0,0.2-0.1,0.1-0.2L38.8,84.5z"></path> </g> </g> <g> <path class="st3" d="M57.9,44.2h-4.2c-0.2,0-0.3,0.1-0.3,0.3v10.9c0,0.2,0.1,0.3,0.3,0.3h4.2c0.2,0,0.3-0.1,0.3-0.3V44.5 C58.2,44.3,58.1,44.2,57.9,44.2z"></path> <path class="st3" d="M70.2,55.6h4c0.2,0,0.3-0.1,0.3-0.3V37.3c0-0.2-0.1-0.3-0.3-0.3h-4c-0.2,0-0.3,0.1-0.3,0.3v18.1 C69.9,55.5,70.1,55.6,70.2,55.6z"></path> <path class="st3" d="M45.6,55.6h4c0.2,0,0.3-0.1,0.3-0.3v-1V41.2c0-0.2,0.1-0.3,0.3-0.3h7.2c1.4,0,2.8,0.2,3.5,0.9 c0.8,0.8,0.9,2.5,0.9,4.2v9.3v0c0,0.2,0.1,0.3,0.3,0.3h4c0.2,0,0.3-0.1,0.3-0.3v-9c0-3-0.1-6.1-1.7-7.6C63.1,37.1,60,37,57,37 H45.6c-0.2,0-0.3,0.1-0.3,0.3v18.1C45.3,55.5,45.4,55.6,45.6,55.6z"></path> </g> </g> </g> </svg> 