<?xml version="1.0" encoding="UTF-8"?> <svg xmlns="http://www.w3.org/2000/svg" xmlns:xlink="http://www.w3.org/1999/xlink" version="1.1" id="Layer_1" x="0px" y="0px" viewBox="0 0 120 60" style="enable-background:new 0 0 120 60;" xml:space="preserve"> <style type="text/css"> .st0{fill:#4D4D4F;} .st1{fill:#D31245;} </style> <g> <path class="st0" d="M87.9,15.6v9.3c0,1.2-1,2.2-2.2,2.2h-1.9V15.6h-2v11.6h-1.9c-1.2,0-2.2-1-2.2-2.2v-9.3h-2v9.3 c0,2.3,1.9,4.2,4.2,4.2h6.2c2.3,0,3.8-1.9,3.8-4.2v-9.3H87.9z"></path> <g> <path class="st1" d="M37.8,40.1H19.3c-3.3,0-5.9-2.7-5.9-5.9s2.7-5.9,5.9-5.9h10.3c1.2,0,2.2-1,2.2-2.2s-1-2.2-2.2-2.2H19.3 c-5.7,0-10.4,4.7-10.4,10.4s4.7,10.4,10.4,10.4h18.5c1.2,0,2.2-1,2.2-2.2C40,41.1,39,40.1,37.8,40.1"></path> <path class="st1" d="M29.6,15.6H11.1c-1.2,0-2.2,1-2.2,2.2c0,1.2,1,2.2,2.2,2.2h18.5c3.3,0,5.9,2.7,5.9,5.9S32.9,32,29.6,32H19.2 C18,32,17,33,17,34.2s1,2.2,2.2,2.2h10.3c5.7,0,10.4-4.7,10.4-10.4C40,20.3,35.3,15.6,29.6,15.6"></path> </g> <g> <path class="st0" d="M76.3,34.9l-0.5-0.1c0-0.2,0.2-0.4,0.3-0.5c0.1-0.1,0.4-0.2,0.7-0.2c0.3,0,0.5,0,0.6,0.1 c0.1,0,0.2,0.1,0.3,0.2s0.1,0.3,0.1,0.5v0.7c0,0.2,0,0.4,0,0.5c0,0.1,0,0.2,0.1,0.3h-0.6c0,0,0-0.1,0-0.2c0,0,0,0,0-0.1 c-0.1,0.1-0.2,0.2-0.3,0.2c-0.1,0-0.2,0.1-0.4,0.1c-0.2,0-0.4,0-0.5-0.2c-0.1-0.1-0.2-0.3-0.2-0.5c0-0.1,0-0.2,0.1-0.4 c0-0.1,0.1-0.2,0.3-0.2c0.1,0,0.3-0.1,0.5-0.1c0.3,0,0.5-0.1,0.6-0.1v0c0-0.1,0-0.2-0.1-0.2c0,0-0.2-0.1-0.3-0.1 c-0.1,0-0.2,0-0.3,0C76.4,34.8,76.3,34.8,76.3,34.9z M77.1,35.4c-0.1,0-0.2,0-0.4,0.1c-0.2,0-0.3,0.1-0.3,0.1 c-0.1,0-0.1,0.1-0.1,0.2s0,0.1,0.1,0.2c0,0,0.1,0.1,0.2,0.1c0.1,0,0.2,0,0.3-0.1c0.1,0,0.1-0.1,0.1-0.2s0-0.1,0-0.3 C77.1,35.6,77.1,35.4,77.1,35.4z"></path> <path class="st0" d="M79.5,36.5v-3.2h0.6v1.1c0.2-0.2,0.4-0.3,0.7-0.3s0.5,0.1,0.7,0.3c0.2,0.2,0.3,0.5,0.3,0.9 c0,0.4-0.1,0.7-0.3,0.9c-0.2,0.2-0.4,0.3-0.7,0.3c-0.1,0-0.3,0-0.4-0.1c-0.1,0-0.2-0.2-0.3-0.3v0.3C80.1,36.5,79.5,36.5,79.5,36.5 z M80.1,35.4c0,0.2,0,0.4,0.1,0.5c0.1,0.2,0.2,0.2,0.4,0.2c0.1,0,0.2,0,0.4-0.2c0.1-0.1,0.1-0.3,0.1-0.5c0-0.3,0-0.5-0.1-0.6 c-0.1-0.1-0.2-0.2-0.4-0.2c-0.1,0-0.3,0-0.4,0.2C80.2,34.9,80.1,35.1,80.1,35.4z"></path> <path class="st0" d="M82.9,36.5h-0.6v-2.3h0.5v0.3c0.1-0.1,0.2-0.3,0.3-0.3c0.1,0,0.2-0.1,0.3-0.1c0.1,0,0.3,0,0.4,0.1l-0.2,0.5 c-0.1,0-0.2-0.1-0.3-0.1s-0.1,0-0.2,0.1c0,0-0.1,0.1-0.1,0.3c0,0.1,0,0.4,0,0.8L82.9,36.5L82.9,36.5z"></path> <path class="st0" d="M84.5,34.9l-0.5-0.1c0-0.2,0.2-0.4,0.3-0.5c0.1-0.1,0.4-0.2,0.7-0.2c0.3,0,0.5,0,0.6,0.1 c0.1,0,0.2,0.1,0.3,0.2s0.1,0.3,0.1,0.5v0.7c0,0.2,0,0.4,0,0.5c0,0.1,0,0.2,0.1,0.3h-0.6c0,0,0-0.1,0-0.2c0,0,0,0,0-0.1 c-0.1,0.1-0.2,0.2-0.3,0.2c-0.1,0-0.2,0.1-0.4,0.1c-0.2,0-0.4,0-0.5-0.2C84,36.3,84,36.1,84,35.9c0-0.1,0-0.2,0.1-0.4 c0-0.1,0.1-0.2,0.3-0.2c0.1,0,0.3-0.1,0.5-0.1c0.3,0,0.5-0.1,0.6-0.1v0c0-0.1,0-0.2-0.1-0.2c0,0-0.2-0.1-0.3-0.1 c-0.1,0-0.2,0-0.3,0C84.6,34.8,84.5,34.8,84.5,34.9z M85.3,35.4c-0.1,0-0.2,0-0.4,0.1c-0.2,0-0.3,0.1-0.3,0.1 c-0.1,0-0.1,0.1-0.1,0.2s0,0.1,0.1,0.2c0,0,0.1,0.1,0.2,0.1c0.1,0,0.2,0,0.3-0.1c0.1,0,0.1-0.1,0.1-0.2s0-0.1,0-0.3 C85.3,35.6,85.3,35.4,85.3,35.4z"></path> <path class="st0" d="M88.6,36.5H88v-1.1c0-0.2,0-0.4,0-0.5s0-0.1-0.1-0.2c0,0-0.1,0-0.2,0c-0.1,0-0.2,0-0.3,0.1 c-0.1,0-0.1,0.1-0.2,0.2c0,0.1,0,0.3,0,0.5v1.1h-0.6v-2.3H87v0.3c0.2-0.3,0.5-0.4,0.8-0.4c0.1,0,0.3,0,0.4,0.1 c0.1,0,0.2,0.1,0.3,0.2c0,0.1,0.1,0.2,0.1,0.3c0,0.1,0,0.2,0,0.4L88.6,36.5L88.6,36.5z"></path> <path class="st0" d="M91.3,36.5h-0.5v-0.3c-0.1,0.1-0.2,0.2-0.3,0.3c-0.1,0-0.3,0.1-0.4,0.1c-0.3,0-0.5-0.1-0.7-0.3 c-0.2-0.2-0.3-0.5-0.3-0.9s0.1-0.7,0.3-0.9c0.2-0.2,0.4-0.3,0.7-0.3s0.5,0.1,0.7,0.3v-1.1h0.6C91.3,33.3,91.3,36.5,91.3,36.5z M89.7,35.4c0,0.2,0,0.4,0.1,0.5c0.1,0.1,0.2,0.2,0.4,0.2c0.1,0,0.3,0,0.4-0.2c0.1-0.1,0.1-0.3,0.1-0.5c0-0.3,0-0.5-0.1-0.6 c-0.1-0.1-0.2-0.2-0.4-0.2c-0.1,0-0.3,0-0.4,0.2C89.7,34.9,89.7,35.1,89.7,35.4z"></path> <path class="st0" d="M93.2,36.5v-3.2h0.6v1.1c0.2-0.2,0.4-0.3,0.7-0.3s0.5,0.1,0.7,0.3c0.2,0.2,0.3,0.5,0.3,0.9s-0.1,0.7-0.3,0.9 c-0.2,0.2-0.4,0.3-0.7,0.3c-0.1,0-0.3,0-0.4-0.1c-0.1,0-0.2-0.2-0.3-0.3v0.3L93.2,36.5L93.2,36.5z M93.8,35.4c0,0.2,0,0.4,0.1,0.5 c0.1,0.2,0.2,0.2,0.4,0.2c0.1,0,0.2,0,0.4-0.2c0.1-0.1,0.1-0.3,0.1-0.5c0-0.3,0-0.5-0.1-0.6c-0.1-0.1-0.2-0.2-0.4-0.2 c-0.1,0-0.3,0-0.4,0.2C93.8,34.9,93.8,35.1,93.8,35.4z"></path> <path class="st0" d="M95.6,34.3h0.6l0.5,1.6l0.5-1.6H98l-0.8,2.2l-0.1,0.4c0,0.1-0.1,0.2-0.1,0.3c0,0.1-0.1,0.1-0.2,0.2 c0,0-0.1,0.1-0.2,0.1c-0.1,0-0.2,0-0.3,0c-0.1,0-0.2,0-0.4,0l0-0.5c0.1,0,0.2,0,0.3,0c0.1,0,0.2,0,0.3-0.1c0-0.1,0.1-0.2,0.1-0.3 L95.6,34.3z"></path> <path class="st0" d="M99.6,33.4h1.3c0.3,0,0.5,0,0.5,0c0.1,0,0.2,0,0.3,0.1c0.1,0,0.2,0.1,0.2,0.3c0,0.1,0.1,0.2,0.1,0.4 c0,0.1,0,0.3-0.1,0.4c-0.1,0.1-0.2,0.2-0.3,0.3c0.2,0,0.4,0.1,0.5,0.3c0.1,0.1,0.1,0.3,0.1,0.5c0,0.1,0,0.3-0.1,0.4 c0,0.1-0.1,0.2-0.3,0.3c-0.1,0.1-0.3,0.1-0.4,0.1c-0.1,0-0.4,0-0.8,0h-1.1L99.6,33.4C99.6,33.4,99.6,33.4,99.6,33.4z M100.3,33.9 v0.7h0.4c0.2,0,0.4,0,0.5,0c0.1,0,0.2,0,0.3-0.1c0,0,0.1-0.1,0.1-0.2c0-0.1,0-0.2-0.1-0.2c0,0-0.1-0.1-0.2-0.1c0,0-0.2,0-0.5,0 L100.3,33.9L100.3,33.9z M100.3,35.2V36h0.6c0.2,0,0.4,0,0.5,0c0.1,0,0.2,0,0.2-0.1c0,0,0.1-0.1,0.1-0.3c0-0.1,0-0.2-0.1-0.2 c0,0-0.1-0.1-0.2-0.1c-0.1,0-0.3,0-0.5,0L100.3,35.2L100.3,35.2z"></path> <path class="st0" d="M104.2,35.8l0.6,0.1c-0.1,0.2-0.2,0.4-0.4,0.5c-0.2,0.1-0.4,0.2-0.6,0.2c-0.4,0-0.7-0.1-0.9-0.4 c-0.1-0.2-0.2-0.5-0.2-0.8c0-0.4,0.1-0.7,0.3-0.9c0.2-0.2,0.5-0.3,0.8-0.3c0.4,0,0.6,0.1,0.8,0.3c0.2,0.2,0.3,0.6,0.3,1.1h-1.6 c0,0.2,0,0.3,0.1,0.4c0.1,0.1,0.2,0.1,0.4,0.1c0.1,0,0.2,0,0.2-0.1C104.1,36,104.1,35.9,104.2,35.8z M104.2,35.2 c0-0.2,0-0.3-0.1-0.4c-0.1-0.1-0.2-0.1-0.3-0.1c-0.1,0-0.2,0-0.3,0.1c-0.1,0.1-0.1,0.2-0.1,0.4H104.2z"></path> <path class="st0" d="M107.4,36.5h-0.6v-1.1c0-0.2,0-0.4,0-0.5c0-0.1,0-0.1-0.1-0.2c0,0-0.1,0-0.2,0c-0.1,0-0.2,0-0.3,0.1 c-0.1,0-0.1,0.1-0.2,0.2c0,0.1,0,0.3,0,0.5v1.1h-0.6v-2.3h0.5v0.3c0.2-0.3,0.5-0.4,0.8-0.4c0.1,0,0.3,0,0.4,0.1 c0.1,0,0.2,0.1,0.3,0.2s0.1,0.2,0.1,0.3c0,0.1,0,0.2,0,0.4L107.4,36.5C107.5,36.5,107.4,36.5,107.4,36.5z"></path> <path class="st0" d="M110.6,36.2c0.1,0.1,0.3,0.2,0.5,0.3l-0.2,0.5c-0.1,0-0.2-0.1-0.3-0.1c0,0-0.2-0.1-0.4-0.3 c-0.2,0.1-0.5,0.1-0.7,0.1c-0.5,0-0.9-0.1-1.1-0.4S108,35.5,108,35c0-0.5,0.1-0.9,0.4-1.2c0.3-0.3,0.6-0.5,1.1-0.5 c0.5,0,0.9,0.1,1.1,0.5c0.3,0.3,0.4,0.7,0.4,1.2c0,0.3,0,0.5-0.1,0.7C110.9,35.9,110.8,36,110.6,36.2z M110.1,35.8 c0.1-0.1,0.1-0.2,0.2-0.4c0-0.1,0-0.3,0-0.5c0-0.4-0.1-0.6-0.2-0.8c-0.2-0.2-0.4-0.3-0.6-0.3c-0.3,0-0.5,0.1-0.6,0.3 c-0.2,0.2-0.2,0.5-0.2,0.8s0.1,0.6,0.2,0.8c0.2,0.2,0.4,0.3,0.6,0.3c0.1,0,0.2,0,0.3,0c-0.1-0.1-0.3-0.1-0.4-0.2l0.2-0.4 C109.7,35.5,109.9,35.6,110.1,35.8z"></path> </g> <g> <path class="st0" d="M66.4,29.2c-3.8,0-6.8-3.1-6.8-6.8s3.1-6.8,6.8-6.8c3.8,0,6.8,3.1,6.8,6.8S70.1,29.2,66.4,29.2z M66.4,17.6 c-2.7,0-4.8,2.1-4.8,4.8s2.1,4.8,4.8,4.8c2.7,0,4.8-2.1,4.8-4.8S69,17.6,66.4,17.6z"></path> </g> <g> <rect x="93.8" y="15.6" class="st0" width="2" height="13.6"></rect> </g> <path class="st0" d="M48.5,26.4c0-0.3,0.2-0.6,0.5-0.7l7.7-4.8h0c0.8-0.5,1.3-1.4,1.3-2.4c0-1.6-1.3-2.8-2.8-2.8h-8.6v2h8.6 c0.5,0,0.8,0.4,0.8,0.8c0,0.3-0.1,0.5-0.4,0.7L48,23.9c-0.9,0.6-1.5,1.4-1.5,2.5c0,1.6,1.3,2.8,2.8,2.8h8.6v-2h-8.6 C48.9,27.2,48.5,26.8,48.5,26.4z"></path> <path class="st0" d="M102.9,17.6h8.2v-2h-8.2c-1.9,0-3.4,1.5-3.4,3.4v6.8c0,1.9,1.5,3.4,3.4,3.4h8.2v-2h-8.2 c-0.7,0-1.4-0.6-1.4-1.4v-2.4h9.6v-2h-9.6V19C101.5,18.2,102.1,17.6,102.9,17.6z"></path> </g> </svg> 