<?xml version="1.0" encoding="UTF-8"?> <svg xmlns="http://www.w3.org/2000/svg" id="Layer_1" viewBox="0 0 1080 1080"><defs><style>.cls-1{fill:#aed9fc;}</style></defs><path class="cls-1" d="M1080,541.48c0-.21-.04-.4-.04-.61,0-.28,.02-.57,.02-.86,0-141.12-53.67-274.45-151.13-375.47C826.47,58.45,688.38,.01,540,.01S253.53,58.45,151.16,164.54C53.71,265.56,.03,398.89,.03,540.01c0,.28,.02,.55,.02,.82,0,.21-.04,.43-.04,.65,0,.48,.08,.95,.09,1.42,.72,140.04,54.27,272.26,151.06,372.57,102.36,106.09,240.47,164.53,388.84,164.53s286.47-58.43,388.85-164.53c96.82-100.33,150.36-232.59,151.07-372.66,0-.45,.09-.89,.09-1.34m-539.97,465.37h-.01c-39.04,0-75.5-37.66-102.68-134.65-11.36-40.53-20.42-86.55-26.99-136.06,41.86,3.77,85.29,5.76,129.67,5.76s87.83-1.98,129.7-5.76c-6.57,49.52-15.63,95.53-26.99,136.06-27.18,96.99-63.65,134.64-102.68,134.65m-.02-324.54c-46.89,0-92.84-2.6-136.38-7.56-3.77-43.47-5.72-88.85-5.72-135.01s1.94-91.02,5.66-134.27c43.55-4.97,89.53-7.57,136.44-7.57s92.91,2.61,136.47,7.57c3.73,43.24,5.66,88.36,5.66,134.27s-1.95,91.54-5.72,135.01c-43.55,4.97-89.52,7.57-136.41,7.57M113.71,539.99c.09-39.02,47.24-75.46,132.78-102.64,13.78-4.38,28.34-8.39,43.45-12.08-3.75,37.23-5.72,75.61-5.72,114.74s1.98,77.65,5.74,114.94c-15.12-3.69-29.68-7.71-43.47-12.09-85.48-27.15-132.6-63.56-132.77-102.54,0-.11,0-.22,0-.33M540.01,56.85h.01c39.04,0,75.51,53.42,102.68,150.42,11.63,41.49,20.83,88.74,27.44,139.59-42.01-3.8-85.6-5.79-130.15-5.79s-88.12,1.99-130.11,5.79c6.6-50.85,15.81-98.1,27.43-139.59,27.18-96.99,63.65-150.41,102.68-150.42m249.32,368.23c15.38,3.74,30.18,7.82,44.18,12.26,85.57,27.18,132.72,63.64,132.79,102.68v.23c-.13,39.01-47.26,75.44-132.79,102.61-14.01,4.45-28.81,8.53-44.2,12.27,3.77-37.35,5.76-75.86,5.76-115.13s-1.98-77.64-5.74-114.93m44.18-234.28c57.16,61.65,97.07,137.4,117.36,220.39-7.1-3.08-14.37-6.12-22.02-9.06-43.48-16.73-93.44-30.23-147.86-40.26-12.92-79.02-34.45-150.97-63.74-210.71-12.88-26.27-26.91-49.25-41.79-68.97,58.21,22.36,112.11,59.06,158.04,108.61m-587.02,0c45.67-49.27,99.22-85.85,157.05-108.25-14.78,19.64-28.7,42.5-41.51,68.61-29.3,59.78-50.85,131.78-63.76,210.85-54.13,10.03-103.85,23.47-147.13,40.12-7.64,2.93-14.91,5.98-22.01,9.06,20.29-82.99,60.19-158.74,117.36-220.39m0,697.86c-56.26-60.68-95.78-135.02-116.36-216.46,6.79,2.93,13.74,5.82,21.02,8.62,43.41,16.7,93.29,30.18,147.61,40.21,12.97,77.88,34.35,148.81,63.28,207.82,10.03,20.46,20.78,38.87,32.04,55.38-54.2-18.41-104.42-49-147.59-95.56m587.02,0c-43.42,46.83-93.97,77.52-148.53,95.89,11.35-16.59,22.17-35.11,32.27-55.7,28.91-58.97,50.29-129.85,63.26-207.68,54.6-10.05,104.74-23.57,148.34-40.35,7.28-2.8,14.24-5.69,21.02-8.62-20.58,81.44-60.11,155.78-116.37,216.46"></path></svg> 