<?xml version="1.0" encoding="UTF-8"?> <svg xmlns="http://www.w3.org/2000/svg" id="Layer_1" viewBox="0 0 1080 1080"><defs><style>.cls-1{fill:#aed9fc;}</style></defs><path class="cls-1" d="M864.09,815.52c67.33-22.82,115.82-86.5,115.82-161.55,0-94.2-76.37-170.57-170.58-170.57-8.36,0-16.55,.72-24.58,1.89-35.22-77.44-105.97-135.18-191.4-152.65,67.6-22.67,116.33-86.48,116.33-161.71C709.68,76.72,633.31,.36,539.1,.36s-170.57,76.37-170.57,170.57c0,75.23,48.73,139.04,116.32,161.71-85.29,17.44-155.94,75.02-191.22,152.26-7.8-1.09-15.74-1.76-23.84-1.76-94.21,0-170.58,76.36-170.58,170.57,0,75.19,48.68,138.97,116.22,161.67C92.48,840.53,0,949.31,0,1079.69H113.6c11.98-128.75,64.17-227.19,156.19-227.19s144.21,98.44,156.19,227.19h226.96c11.98-128.75,64.16-227.19,156.18-227.19s144.22,98.44,156.2,227.19h113.59c0-130.17-92.19-238.79-214.83-264.17m-64.94-290.55c3.34-.64,6.73-1.06,10.18-1.06,46.16,0,83.57,58.23,83.57,130.07s-37.41,130.07-83.57,130.07c-24.1,0-45.76-15.98-61-41.39-13.71-22.85-22.21-53.31-22.49-86.92,0-.6-.06-1.16-.06-1.76,0-20.53,3.14-39.88,8.59-57.15,12.17-38.62,36.22-66.43,64.79-71.85M539.1,40.86c45.92,0,83.13,58.24,83.13,130.07s-37.21,130.07-83.13,130.07-83.13-58.23-83.13-130.07,37.22-130.07,83.13-130.07M186.51,652.84c.15-33.57,8.47-64.03,21.97-86.99,15.23-25.89,37.01-42.22,61.3-42.22,3.18,0,6.31,.34,9.41,.89,28.87,5.07,53.19,33.2,65.41,72.3,5.38,17.2,8.48,36.46,8.48,56.89,0,71.84-37.29,130.07-83.3,130.07s-83.3-58.23-83.3-130.07c0-.29,.03-.58,.03-.87m352.95,422.18c-2.19-128.29-93.84-234.79-215.31-259.64,67.54-22.7,116.21-86.49,116.21-161.67,0-46.09-18.34-87.84-48.05-118.53,21.16-97.22,70.14-165.55,146.79-165.55s125.98,68.78,147.01,166.53c-29.3,30.62-47.35,72.08-47.35,117.81,0,74.99,48.41,138.62,115.66,161.49-121.29,24.98-212.78,131.39-214.96,259.56"></path></svg> 