<?xml version="1.0" encoding="UTF-8"?> <svg xmlns="http://www.w3.org/2000/svg" id="Layer_1" viewBox="0 0 1080 1080"><defs><style>.cls-1{fill:#aed9fc;}</style></defs><path class="cls-1" d="M1000.14,151.15C951.1,53.68,886.37,.01,817.86,.01s-133.24,53.67-182.28,151.14c-32.36,64.32-55.56,142.75-68.36,228.97-39.15-43.78-85.6-67.47-134.2-67.47-61.77,0-120.14,38.13-164.37,107.38-37.17,58.21-60.93,132.7-68.95,214.16-13.99-5.85-28.62-8.91-43.56-8.91-40.8,0-79.36,22.59-108.57,63.63C16.89,732.01,0,790.16,0,852.63s16.89,120.63,47.57,163.73c29.21,41.03,67.77,63.63,108.57,63.63s79.37-22.6,108.58-63.63c5.86-8.23,11.05-17.16,15.88-26.41,42.54,58.19,96.04,90.04,152.42,90.04,61.78,0,120.15-38.14,164.37-107.38,11.62-18.2,21.93-37.98,30.87-59.07,2.4,5.17,4.82,10.32,7.33,15.32,49.04,97.46,113.77,151.14,182.28,151.14s133.24-53.68,182.28-151.14c51.5-102.37,79.86-240.48,79.86-388.86s-28.36-286.48-79.86-388.85M186.85,970.03c-8.09,34.25-18.96,53.12-30.58,53.12s-22.49-18.86-30.58-53.12c-7.57-32.03-11.74-73.72-11.74-117.4s4.17-85.36,11.74-117.4c8.09-34.25,18.96-53.11,30.58-53.11s22.49,18.86,30.58,53.11c7.57,32.04,11.74,73.72,11.74,117.4s-4.17,85.37-11.74,117.4m334.73-48.69c-23.53,65.65-55.12,101.8-88.92,101.8s-65.38-36.15-88.92-101.8c-22.01-61.4-34.14-141.31-34.14-225.02s12.13-163.63,34.14-225.02c23.54-65.65,55.11-101.8,88.92-101.8s65.38,36.15,88.92,101.8c22.01,61.4,34.14,141.31,34.14,225.02s-12.13,163.63-34.14,225.02m403.54-48.69c-28.38,97.05-66.48,150.5-107.27,150.5s-78.87-53.45-107.27-150.5c-26.55-90.77-41.18-208.9-41.18-332.64s14.63-241.89,41.18-332.65c28.4-97.05,66.49-150.5,107.27-150.5s78.88,53.45,107.27,150.5c26.55,90.76,41.18,208.89,41.18,332.65s-14.63,241.87-41.18,332.64"></path></svg> 