<?xml version="1.0" encoding="UTF-8"?> <svg xmlns="http://www.w3.org/2000/svg" id="Layer_1" viewBox="0 0 1080 1080"><defs><style>.cls-1{fill:#aed9fc;}</style></defs><path class="cls-1" d="M52.09,52.09c-127.63,127.63-12.65,449.59,256.8,719.03,269.44,269.44,591.4,384.42,719.03,256.8,127.63-127.63,12.65-449.59-256.8-719.03C501.67,39.44,179.71-75.54,52.09,52.09ZM991.31,991.31c-81.96,81.96-350.43-53.62-599.71-302.9C142.31,439.13,6.74,170.65,88.69,88.69,170.65,6.74,439.13,142.31,688.41,391.59c249.28,249.28,384.86,517.76,302.9,599.71Z"></path><path class="cls-1" d="M1027.91,52.09c-127.63-127.63-449.59-12.65-719.03,256.8C39.44,578.33-75.54,900.29,52.09,1027.91c127.63,127.63,449.59,12.65,719.03-256.8C1040.56,501.67,1155.54,179.71,1027.91,52.09ZM88.69,991.31c-81.96-81.96,53.62-350.43,302.9-599.71C640.87,142.31,909.35,6.74,991.31,88.69c81.96,81.96-53.62,350.43-302.9,599.71S170.65,1073.26,88.69,991.31Z"></path></svg> 