<?xml version="1.0" encoding="UTF-8"?> <svg xmlns="http://www.w3.org/2000/svg" id="Layer_1" viewBox="0 0 1080 1080"><defs><style>.cls-1{fill:#aed9fc;}</style></defs><path class="cls-1" d="M867.84,279.74c-.16-.16-.32-.33-.48-.5-.01-.01-.04-.03-.05-.04l42.72-42.72h-171.64v171.64l32.67-32.67s.03,.04,.04,.05c.17,.16,.33,.33,.49,.49,168.26,168.31,301.88,327.34,239.72,389.51-62.24,62.23-221.51-71.71-390-240.2-168.49-168.49-302.43-327.77-240.2-390,44.41-44.41,138.27,11.16,249.6,107.82l86.12-86.12c-147.95-95.3-293.87-120.47-364.19-50.16-40.58,40.58-49.3,106.37-31.17,183.16-117.32-55.13-224.19-60.99-281.26-3.93-94.44,94.44-16.75,325.26,171.94,514.21,.16,.16,.32,.33,.48,.5,.01,.01,.03,.03,.04,.05l-42.72,42.72h171.64v-171.64l-32.67,32.67s-.04-.03-.05-.04c-.16-.16-.33-.33-.49-.5C140.14,535.72,6.52,376.68,68.69,314.52c62.23-62.23,221.51,71.71,390,240.2,168.49,168.49,302.43,327.77,240.2,390-44.41,44.4-138.27-11.16-249.6-107.82l-86.13,86.12c147.95,95.3,293.88,120.48,364.2,50.16,40.58-40.57,49.3-106.37,31.17-183.16,117.32,55.13,224.19,60.99,281.25,3.93,94.44-94.44,16.75-325.26-171.93-514.21"></path></svg> 