<?xml version="1.0" encoding="UTF-8"?> <svg xmlns="http://www.w3.org/2000/svg" id="Layer_1" viewBox="0 0 1080 1080"><defs><style>.cls-1{fill:#aed9fc;}</style></defs><path class="cls-1" d="M1080,0l-166.37,5.46,40.24,40.24c-26.95,26.69-451.88,447.57-504.63,506.79-10.04,11.28-19.92,22.9-19.92,22.9-24.54,28.67-46.88,57.62-66.86,86.21-7.89,11.38-15.58,22.76-22.76,34-96.02,150.14-125.94,288.43-63.73,351.1l-.15,.15c44.33,44.33,126.36,42.67,223.82,4.18l-60.55-60.55c-70.06,41.38-122.32,56.37-142.8,35.9l-.04,.04c-29.91-30.87,19.08-132.61,116.57-257.69,5.27-6.9,10.74-13.8,16.43-20.7,22.41-28.03,47.23-56.91,73.84-86.36,0,0,12.96-14.29,26.61-28.74,60.05-63.6,480.62-482.8,504.66-506.76l40.24,40.24L1080,0Z"></path><path class="cls-1" d="M866.52,467.15c-12.11,11.2-24.18,22.64-36.14,34.59-17.36,17.36-34,35.07-49.86,52.78-6.83,7.54-13.45,15.22-19.85,22.83-24.4,28.6-46.66,57.41-66.58,85.93-7.9,11.31-15.51,22.69-22.69,33.86-95.82,149.81-125.62,287.81-63.24,350.12,62.31,62.31,200.24,32.58,350.12-63.31l-72.84-72.77c-125.13,97.45-226.7,146.25-257.08,115.88-30.37-30.37,18.42-132.02,115.88-257.08,5.27-6.83,10.74-13.73,16.36-20.63,22.34-27.88,47.09-56.69,73.62-86,8.61-9.46,17.43-19.06,26.46-28.67,16.22-17.36,33.08-34.71,50.5-52.14,11.96-11.96,23.89-23.53,35.8-34.93l40.17,40.17,5.41-166.41-166.37,5.46,40.32,40.32Z"></path><path class="cls-1" d="M422.26,377.55c28.9-20.18,58.1-42.74,87.07-67.47,2.67-2.28,11.57-9.83,23.14-20.11,22.36-19.86,51.08-46.62,83.52-80.32l39.25,39.25,5.41-166.41-166.37,5.46,39.65,39.65c-30.26,31.06-58.17,58.14-82.69,81.14-15.14,14.21-26.33,24.35-29.05,26.81-29.7,26.89-58.89,51.97-87.15,74.6-7,5.7-13.99,11.24-20.91,16.58-126.72,98.75-229.73,148.2-260.51,117.42-30.78-30.78,18.67-133.71,117.42-260.51L97.31,109.84C.14,261.72-29.99,401.48,33.16,464.63c63.14,63.22,202.98,33.01,354.79-64.08,11.32-7.28,22.85-14.99,34.31-22.99Z"></path></svg> 