<?xml version="1.0" encoding="UTF-8"?> <svg xmlns="http://www.w3.org/2000/svg" id="Layer_1" viewBox="0 0 1080 1080"><defs><style>.cls-1{fill:#aed9fc;}</style></defs><polygon class="cls-1" points="994.98 957.71 0 957.71 0 1043.02 994.98 1043.02 994.98 1080.01 1080 1000.34 994.98 920.73 994.98 957.71"></polygon><path class="cls-1" d="M540,334.53c83.35,0,130.61,89.15,141.46,205.76h102.88c0-118.08-83.76-216.6-195.11-239.38,61.17-20.56,105.25-78.33,105.25-146.43,0-41.74-16.61-79.56-43.52-107.35-4.66-4.82-9.59-9.37-14.84-13.54-20.38-16.22-44.92-27.41-71.79-31.67-.9-.14-1.82-.2-2.73-.32-7.07-.99-14.26-1.6-21.6-1.6-85.32,0-154.48,69.16-154.48,154.49,0,68.1,44.08,125.86,105.25,146.43-111.35,22.78-195.11,121.3-195.11,239.38h102.88c10.85-116.61,58.12-205.76,141.46-205.76Zm-75.44-180.04c0-.26,.02-.52,.02-.78,.13-30.4,7.67-57.99,19.9-78.78,13.79-23.45,33.53-38.24,55.52-38.24,2.88,0,5.72,.31,8.52,.8,26.15,4.59,48.18,30.07,59.25,65.48,4.87,15.58,7.67,33.02,7.67,51.52,0,65.06-33.78,117.8-75.44,117.8s-75.44-52.74-75.44-117.8Z"></path><path class="cls-1" d="M923.75,899.4c86.27,0,156.25-70.13,156.25-156.57s-69.99-156.58-156.25-156.58-156.25,70.07-156.25,156.58,69.99,156.57,156.25,156.57Zm0-271.04c39.35,0,71.24,51.28,71.24,114.47s-31.88,114.47-71.24,114.47-71.24-51.28-71.24-114.47,31.88-114.47,71.24-114.47Z"></path><path class="cls-1" d="M539.85,586.25c-86.26,0-156.25,70.07-156.25,156.58s69.99,156.57,156.25,156.57,156.25-70.13,156.25-156.57-69.99-156.58-156.25-156.58Zm0,271.04c-39.35,0-71.24-51.28-71.24-114.47s31.88-114.47,71.24-114.47,71.24,51.28,71.24,114.47-31.88,114.47-71.24,114.47Z"></path><path class="cls-1" d="M156.25,899.4c86.27,0,156.25-70.13,156.25-156.57s-69.99-156.58-156.25-156.58S0,656.32,0,742.82s69.99,156.57,156.25,156.57Zm0-271.04c39.35,0,71.24,51.28,71.24,114.47s-31.88,114.47-71.24,114.47-71.24-51.28-71.24-114.47,31.88-114.47,71.24-114.47Z"></path></svg> 