<?xml version="1.0" encoding="UTF-8"?> <svg xmlns="http://www.w3.org/2000/svg" id="Layer_1" viewBox="0 0 1080 1080"><defs><style>.cls-1{fill:#a587f9;}</style></defs><polygon class="cls-1" points="1080 965.99 958.66 852.36 958.66 909.19 649.03 909.19 649.03 1022.86 958.66 1022.86 958.66 1079.69 1080 965.99"></polygon><path class="cls-1" d="M781.1,531.41c102.06,0,184.8,112,184.8,249.99h113.35c0-164.77-133.59-298.29-298.14-298.29-2.41,0-4.83,0-7.24,.07,40.13-50.78,64.06-114.98,64.06-184.72C837.92,133.7,704.4,.18,539.77,.18S241.63,133.7,241.63,298.47c0,69.74,23.93,133.94,64.06,184.72-2.49-.07-4.97-.07-7.53-.07C133.53,483.12,.01,616.64,.01,781.41s133.52,298.29,298.14,298.29,298.14-133.59,298.14-298.29c0-144.92,77.32-249.99,184.8-249.99ZM539.77,48.47c102.13,0,184.8,112,184.8,249.99s-82.67,249.99-184.8,249.99-184.8-112-184.8-249.99S437.64,48.47,539.77,48.47Zm-241.61,982.93c-102.13,0-184.8-112-184.8-249.99s82.67-249.99,184.8-249.99,184.8,112,184.8,249.99-82.74,249.99-184.8,249.99Z"></path></svg> 