<?xml version="1.0" encoding="UTF-8"?> <svg xmlns="http://www.w3.org/2000/svg" width="120" height="120" viewBox="0 0 120 120" fill="none"><path d="M43.922 51.2H38.55V58.196H32.958V51.2H27.586V68.8H32.958V61.878H38.55V68.8H43.922V51.2ZM62.612 65.265V51.2H57.24V68.8H66.953L67.762 65.265H62.612ZM53.267 51.2H47.896V68.8H53.267V51.2ZM75.048 51.2H69.676V68.8H75.048V51.2ZM101.538 55.692C101.538 54.735 102.495 54.293 104.04 54.293C105.732 54.293 107.572 54.661 108.823 55.177L108.382 51.348C106.984 51.054 105.733 50.833 103.452 50.833C99.111 50.833 96.167 52.545 96.167 56.135C96.167 62.321 104.555 61.069 104.555 63.941C104.555 65.046 103.746 65.635 101.759 65.635C99.993 65.635 97.27 65.046 95.652 64.236L96.241 68.286C97.86 68.875 100.067 69.17 101.833 69.17C106.322 69.17 110.001 67.697 110.001 63.279C110 57.386 101.538 58.49 101.538 55.692ZM86.38 64.602C91.384 64.602 94.548 62.025 94.548 57.533C94.548 52.599 91.163 50.832 85.644 50.832C83.51 50.832 80.935 50.979 79.095 51.2V68.8H84.467V64.602H86.38ZM89.25 57.606C89.25 59.889 88.146 61.435 85.35 61.435H84.467V54.163C84.78 54.145 85.074 54.145 85.35 54.145C87.999 54.146 89.25 55.397 89.25 57.606ZM17.285 64.602C22.289 64.602 25.453 62.025 25.453 57.533C25.453 52.599 22.068 50.832 16.549 50.832C14.415 50.832 11.84 50.979 10 51.2V68.8H15.372V64.602H17.285ZM20.154 57.606C20.154 59.889 19.05 61.435 16.254 61.435H15.371V54.163C15.684 54.145 15.978 54.145 16.254 54.145C18.904 54.146 20.154 55.397 20.154 57.606Z" fill="#3863AE"></path></svg> 