<?xml version="1.0" encoding="UTF-8"?> <svg xmlns="http://www.w3.org/2000/svg" width="120" height="120" viewBox="0 0 120 120" fill="none"><path d="M68.3841 48.5132H63.1201V71.2942H79.2871V66.8582H68.3841V48.5132Z" fill="#6D6E71"></path><path d="M90.8648 62.6108H95.1488V66.5938C94.3598 66.8958 92.8198 67.1968 91.3538 67.1968C86.6158 67.1968 85.0368 64.7888 85.0368 59.9028C85.0368 55.2408 86.5398 52.4968 91.2768 52.4968C93.9098 52.4968 95.4118 53.3238 96.6528 54.9038L99.9258 51.8958C97.9318 49.0398 94.4348 48.1748 91.1648 48.1748C83.7968 48.1748 79.9248 52.1968 79.9248 59.8658C79.9248 67.4988 83.4208 71.6338 91.1278 71.6338C94.6618 71.6338 98.1208 70.7308 99.9998 69.4168V58.3618H90.8648V62.6108Z" fill="#6D6E71"></path><path d="M37.611 42.3799C27.891 42.3799 20 50.2669 20 59.9999C20 69.7329 27.891 77.6199 37.611 77.6199C47.309 77.6199 55.169 69.8079 55.245 60.1369V59.8609C55.169 50.1919 47.309 42.3799 37.611 42.3799Z" fill="url(#paint0_radial_1914_43271)"></path><path d="M25.6901 48.0721C19.8021 53.9611 19.2061 62.9351 24.3761 68.1061C29.5461 73.2741 38.5131 72.6831 44.4031 66.7901C50.3021 60.8881 50.8961 51.9171 45.7291 46.7471C43.3691 44.3861 40.2171 43.2251 36.9211 43.2251C33.0071 43.2261 28.8931 44.8681 25.6901 48.0721Z" fill="url(#paint1_linear_1914_43271)"></path><path d="M36.7082 67.897L37.1432 67.649L37.1412 52.762L37.0322 52.589L37.1412 52.557V52.535H37.2172L38.5342 52.083L38.7702 52.49C38.7702 52.49 38.8052 52.525 38.8032 52.602L38.7902 66.158H41.9932L42.2502 66.56C42.2742 66.59 42.2892 66.623 42.2892 66.725V68.088C42.2892 68.164 42.2442 68.197 42.1902 68.205H37.2902C37.1732 68.209 37.0712 68.152 37.0442 68.134L36.7082 67.897ZM52.6062 59.189L41.7062 59.193V60.938L41.9772 61.3C41.9772 61.3 42.0102 61.336 42.0702 61.336H50.3782H51.1782H51.1812H51.1912C50.7202 68.232 44.9032 73.632 37.9532 73.632C34.4122 73.632 31.0812 72.256 28.5712 69.768C26.0702 67.277 24.6942 63.969 24.6942 60.447C24.6942 56.923 25.9982 53.543 28.4992 51.056C31.0162 48.573 34.1822 47.263 37.9732 47.18L38.6892 47.169H38.7692C38.8192 47.163 38.8612 47.162 38.8612 47.052V45.623C38.8612 45.519 38.8262 45.469 38.8262 45.468L38.5052 45.064L37.7792 45.168L37.4122 45.289C29.1352 45.289 22.9282 52.208 22.9282 60.446C22.9282 64.432 24.4942 68.185 27.3302 71.005C30.1632 73.827 33.9192 75.255 37.9272 75.255C41.9532 75.255 45.7342 73.737 48.5652 70.914C51.4052 68.093 52.9662 64.341 52.9662 60.355V59.496L52.6062 59.189ZM32.2152 52.289C30.9052 52.289 29.8452 53.345 29.8452 54.644C29.8452 55.94 30.9062 56.992 32.2152 56.992C33.5242 56.992 34.5832 55.94 34.5832 54.644C34.5832 53.345 33.5232 52.289 32.2152 52.289Z" fill="url(#paint2_linear_1914_43271)"></path><path d="M37.067 67.5539L36.708 67.8969H41.993L41.649 67.5439L37.067 67.5539Z" fill="#616D76"></path><path d="M41.649 66.4922L41.993 66.1582H38.534L38.124 66.4922H41.649Z" fill="#879AA4"></path><path d="M38.534 52.082H36.708L37.05 52.41L38.143 52.408L38.534 52.082Z" fill="#8E9BA1"></path><path d="M38.1531 66.466L38.5341 66.158V52.082L38.1431 52.408L38.1531 66.466Z" fill="url(#paint3_linear_1914_43271)"></path><path d="M41.6489 66.4922V67.5442L41.9929 67.8972V66.1582L41.6489 66.4922Z" fill="url(#paint4_linear_1914_43271)"></path><path d="M36.708 52.082V67.897L37.067 67.554L37.05 52.41L36.708 52.082Z" fill="#B5BEC4"></path><path d="M29.6909 54.3742C29.6909 55.6402 30.7219 56.6662 31.9919 56.6662C33.2639 56.6662 34.2909 55.6402 34.2909 54.3742C34.2909 53.1072 33.2629 52.0752 31.9919 52.0752C30.7209 52.0762 29.6909 53.1072 29.6909 54.3742ZM33.9489 54.3742C33.9489 55.4502 33.0689 56.3222 31.9919 56.3222C30.9109 56.3222 30.0309 55.4502 30.0309 54.3742C30.0309 53.2952 30.9099 52.4212 31.9919 52.4212C33.0689 52.4212 33.9489 53.2952 33.9489 54.3742Z" fill="url(#paint5_linear_1914_43271)"></path><path d="M51.1171 60.5379L41.9831 60.5269L41.6431 60.8849H50.7661L50.9471 60.6959L51.1171 60.5379Z" fill="#505C61"></path><path d="M41.9831 59.4978L52.1981 59.4808L52.5441 59.1328L41.6431 59.1358L41.9831 59.4978Z" fill="#8F9DA5"></path><path d="M52.5441 59.9952V59.1332L52.1981 59.4812V59.9952C52.1981 63.8922 50.6841 67.5541 47.9311 70.3121C45.1811 73.0691 41.5101 74.5882 37.6041 74.5882C33.7141 74.5882 30.0511 73.0691 27.3001 70.3121C24.5461 67.5521 23.0291 63.8892 23.0291 59.9952C23.0291 51.9462 29.5681 45.4022 37.6051 45.4022L38.1621 45.3952L38.5031 45.0642L37.6051 45.0562C29.3811 45.0562 22.6851 51.7572 22.6851 59.9952C22.6851 63.9812 24.2391 67.7332 27.0571 70.5552C29.8721 73.3752 33.6201 74.9322 37.6051 74.9322C41.6031 74.9322 45.3601 73.3752 48.1741 70.5552C50.9941 67.7342 52.5441 63.9812 52.5441 59.9952Z" fill="url(#paint6_linear_1914_43271)"></path><path d="M38.1588 46.4802L37.7738 46.4712H37.4108C33.8798 46.5222 30.5648 47.9252 28.0438 50.4282C25.4958 52.9812 24.0918 56.3792 24.0918 59.9952C24.0918 63.6102 25.4958 67.0042 28.0438 69.5592C30.5658 72.0752 33.8938 73.4812 37.4358 73.5242H37.7838C44.7958 73.4352 50.6318 67.9252 51.1058 60.9122L51.1178 60.5392L50.9458 60.6962L50.7638 60.8852C50.2948 67.7822 44.5158 73.1812 37.6108 73.1812C34.0918 73.1812 30.7828 71.8062 28.2888 69.3162C25.8028 66.8262 24.4368 63.5182 24.4368 59.9962C24.4368 56.4712 25.8038 53.1582 28.2888 50.6712C30.7878 48.1892 34.0958 46.8162 37.6108 46.8162L38.4998 46.8242L38.1588 46.4802Z" fill="url(#paint7_linear_1914_43271)"></path><path d="M41.9831 59.4982L41.6431 59.1362V60.8852L41.9831 60.5272V59.4982Z" fill="#B5BEC4"></path><path d="M38.1611 46.4819L38.5021 46.8239V45.0649L38.1611 45.3959V46.4819Z" fill="url(#paint8_linear_1914_43271)"></path><path d="M36.9018 52.2691V67.7121H41.8118V66.3351H38.3088V52.2691H36.9018ZM37.4148 45.2441C29.3848 45.3401 22.8608 51.9201 22.8608 59.9951C22.8608 63.9371 24.3958 67.6361 27.1788 70.4231C29.9588 73.2101 33.6688 74.7441 37.5938 74.7441C41.5438 74.7441 45.2508 73.2101 48.0318 70.4231C50.8168 67.6361 52.3478 63.9371 52.3478 59.9951V59.3241L51.7648 59.3261H41.8228V60.6951H50.9468C50.9458 60.7271 50.9458 60.8681 50.9428 60.8951C50.4688 67.8461 44.6748 73.3671 37.6028 73.3671C34.0368 73.3671 30.6818 71.9751 28.1478 69.4471C25.6298 66.9251 24.2388 63.5681 24.2388 59.9951C24.2388 56.4181 25.6298 53.0591 28.1478 50.5391C30.6808 48.0211 34.0368 46.6291 37.6028 46.6291C37.7568 46.6291 38.1388 46.6291 38.3078 46.6331V45.2521C38.1688 45.2521 37.9378 45.2471 37.7558 45.2441H37.4148Z" fill="url(#paint9_radial_1914_43271)"></path><path d="M29.8652 54.3738C29.8652 55.5388 30.8192 56.4798 31.9832 56.4798C33.1452 56.4798 34.0972 55.5388 34.0972 54.3738C34.0972 53.1998 33.1452 52.2598 31.9832 52.2598C30.8192 52.2598 29.8652 53.1998 29.8652 54.3738Z" fill="url(#paint10_radial_1914_43271)"></path><path d="M32.3627 52.6402C32.8477 52.6402 33.2897 52.8132 33.6477 53.0902C33.2627 52.5882 32.6597 52.2612 31.9837 52.2612C30.8177 52.2612 29.8647 53.2012 29.8647 54.3752C29.8647 55.0502 30.1917 55.6432 30.6867 56.0282C30.4147 55.6742 30.2437 55.2392 30.2437 54.7562C30.2437 53.5842 31.1967 52.6402 32.3627 52.6402Z" fill="white"></path><path d="M38.3078 45.2512C38.1238 45.2482 37.7728 45.2412 37.5958 45.2412C29.4798 45.2412 22.8628 51.8612 22.8628 59.9952C22.8628 63.9402 24.3978 67.6362 27.1788 70.4242C27.2678 70.5132 27.3608 70.5972 27.4508 70.6852C24.8258 67.9272 23.3788 64.3392 23.3788 60.5122C23.3778 52.3972 29.1238 45.6592 38.3078 45.2512Z" fill="white"></path><path d="M38.3076 66.3354C38.3076 66.3354 39.3196 66.6294 41.8086 66.6294V66.3354H38.3076Z" fill="white"></path><path d="M38.3079 52.7031V52.2671H36.9019V67.7111C36.9019 67.7111 37.3409 65.3621 37.3409 52.7031H38.3079Z" fill="white"></path><path d="M52.3468 59.3232L41.8218 59.3252V60.6942H42.2038V59.7062C51.3758 59.7062 52.3468 59.3232 52.3468 59.3232Z" fill="white"></path><path d="M50.948 60.6963C50.945 60.7263 50.945 60.8733 50.94 60.9003C50.471 67.8463 44.674 73.3683 37.602 73.3683C34.036 73.3683 30.679 71.9763 28.147 69.4473C26.498 67.7993 25.335 65.7903 24.728 63.6013C26.31 69.3583 31.575 73.5303 37.832 73.5303C44.549 73.5303 50.737 68.2693 51.121 60.6973H50.948V60.6963Z" fill="white"></path><defs><radialGradient id="paint0_radial_1914_43271" cx="0" cy="0" r="1" gradientUnits="userSpaceOnUse" gradientTransform="translate(36.9677 59.461) scale(18.3713 18.3713)"><stop stop-color="#C00C3F"></stop><stop offset="0.5" stop-color="#C00C3F"></stop><stop offset="0.7363" stop-color="#BF0C3E"></stop><stop offset="0.8358" stop-color="#B90A3B"></stop><stop offset="0.9094" stop-color="#B00737"></stop><stop offset="0.9701" stop-color="#A30330"></stop><stop offset="1" stop-color="#9A002B"></stop></radialGradient><linearGradient id="paint1_linear_1914_43271" x1="30.4039" y1="44.6563" x2="39.7006" y2="70.1987" gradientUnits="userSpaceOnUse"><stop stop-color="#F48996"></stop><stop offset="0.0112" stop-color="#F28693"></stop><stop offset="0.263" stop-color="#DB5A69"></stop><stop offset="0.4875" stop-color="#CC3750"></stop><stop offset="0.6746" stop-color="#C31B43"></stop><stop offset="0.8011" stop-color="#C00C3F"></stop><stop offset="1" stop-color="#C00C3F"></stop></linearGradient><linearGradient id="paint2_linear_1914_43271" x1="25.8624" y1="50.969" x2="47.1861" y2="72.2927" gradientUnits="userSpaceOnUse"><stop stop-color="#CE425C"></stop><stop offset="0.0902" stop-color="#BD3551"></stop><stop offset="0.2501" stop-color="#A82242"></stop><stop offset="0.431" stop-color="#9B1438"></stop><stop offset="0.6483" stop-color="#930933"></stop><stop offset="1" stop-color="#910531"></stop></linearGradient><linearGradient id="paint3_linear_1914_43271" x1="38.1428" y1="59.2742" x2="38.5339" y2="59.2742" gradientUnits="userSpaceOnUse"><stop stop-color="#B5BEC4"></stop><stop offset="0.1753" stop-color="#99A2A9"></stop><stop offset="0.569" stop-color="#646C74"></stop><stop offset="0.8544" stop-color="#424950"></stop><stop offset="1" stop-color="#333940"></stop></linearGradient><linearGradient id="paint4_linear_1914_43271" x1="41.6488" y1="67.0273" x2="41.993" y2="67.0273" gradientUnits="userSpaceOnUse"><stop stop-color="#B4BCC2"></stop><stop offset="0.1351" stop-color="#989FA4"></stop><stop offset="0.548" stop-color="#585D61"></stop><stop offset="0.8473" stop-color="#373E41"></stop><stop offset="1" stop-color="#2B3337"></stop></linearGradient><linearGradient id="paint5_linear_1914_43271" x1="30.3601" y1="52.7417" x2="33.6093" y2="55.9909" gradientUnits="userSpaceOnUse"><stop stop-color="#ABBAC3"></stop><stop offset="1" stop-color="#202428"></stop></linearGradient><linearGradient id="paint6_linear_1914_43271" x1="25.7008" y1="50.7307" x2="46.9958" y2="72.0257" gradientUnits="userSpaceOnUse"><stop stop-color="#B5BEC4"></stop><stop offset="1" stop-color="#3E454D"></stop></linearGradient><linearGradient id="paint7_linear_1914_43271" x1="51.1187" y1="59.9982" x2="24.0893" y2="59.9982" gradientUnits="userSpaceOnUse"><stop stop-color="#B5BEC4"></stop><stop offset="1" stop-color="#485059"></stop></linearGradient><linearGradient id="paint8_linear_1914_43271" x1="38.1606" y1="45.9443" x2="38.5017" y2="45.9443" gradientUnits="userSpaceOnUse"><stop stop-color="#B4BCC2"></stop><stop offset="0.1351" stop-color="#989FA4"></stop><stop offset="0.548" stop-color="#585D61"></stop><stop offset="0.8473" stop-color="#373E41"></stop><stop offset="1" stop-color="#2B3337"></stop></linearGradient><radialGradient id="paint9_radial_1914_43271" cx="0" cy="0" r="1" gradientUnits="userSpaceOnUse" gradientTransform="translate(31.6611 53.7491) scale(22.552 22.552)"><stop stop-color="white"></stop><stop offset="0.35" stop-color="white"></stop><stop offset="0.5295" stop-color="#F6F8F9"></stop><stop offset="0.7147" stop-color="#E6EBEF"></stop><stop offset="0.902" stop-color="#CFD9DE"></stop><stop offset="1" stop-color="#C0CCD3"></stop></radialGradient><radialGradient id="paint10_radial_1914_43271" cx="0" cy="0" r="1" gradientUnits="userSpaceOnUse" gradientTransform="translate(31.1066 53.5939) scale(3.29303)"><stop stop-color="white"></stop><stop offset="0.35" stop-color="white"></stop><stop offset="0.5653" stop-color="#F6F8F9"></stop><stop offset="0.7879" stop-color="#E6EBEF"></stop><stop offset="1" stop-color="#D0DADF"></stop></radialGradient></defs></svg> 