<?xml version="1.0" encoding="UTF-8"?> <svg xmlns="http://www.w3.org/2000/svg" width="120" height="120" viewBox="0 0 120 120" fill="none"><path d="M9.18 56.1312C9.104 55.8142 9.122 55.4792 9.164 55.3052C9.271 54.8042 9.612 54.2452 10.603 54.2452C11.523 54.2452 12.064 54.8172 12.064 55.6732C12.064 55.9632 12.064 56.6462 12.064 56.6462H15.986V55.5412C15.986 52.1202 12.902 51.5752 10.678 51.5752C7.885 51.5752 5.602 52.5022 5.185 55.0702C5.071 55.7752 5.051 56.3952 5.216 57.1902C5.897 60.4052 11.486 61.3352 12.299 63.3692C12.451 63.7472 12.405 64.2332 12.33 64.5302C12.201 65.0592 11.846 65.5922 10.794 65.5922C9.812 65.5922 9.224 65.0202 9.224 64.1602L9.22 62.6482H5V63.8502C5 67.3662 7.761 68.4232 10.717 68.4232C13.558 68.4232 15.891 67.4552 16.272 64.8232C16.461 63.4672 16.319 62.5842 16.255 62.2492C15.591 58.9492 9.627 57.9722 9.18 56.1312ZM60.322 56.1702C60.252 55.8592 60.272 55.5302 60.308 55.3572C60.42 54.8542 60.759 54.3052 61.733 54.3052C62.641 54.3052 63.174 54.8712 63.174 55.7212C63.174 56.0082 63.174 56.6832 63.174 56.6832H67.051V55.5872C67.051 52.1992 64.013 51.6662 61.814 51.6662C59.044 51.6662 56.782 52.5792 56.369 55.1292C56.26 55.8232 56.233 56.4392 56.406 57.2252C57.08 60.4042 62.614 61.3262 63.417 63.3362C63.559 63.7172 63.518 64.2022 63.446 64.4892C63.326 65.0122 62.974 65.5382 61.931 65.5382C60.952 65.5382 60.363 64.9762 60.363 64.1282L60.362 62.6192H56.189V63.8192C56.189 67.2952 58.912 68.3442 61.844 68.3442C64.653 68.3442 66.972 67.3842 67.345 64.7832C67.522 63.4392 67.389 62.5632 67.317 62.2342C66.667 58.9702 60.768 57.9902 60.322 56.1702ZM96.03 64.7382L92.327 52.0772H86.491V67.6382H90.351L90.127 54.5722L94.104 67.6382H99.701V52.0772H95.815L96.03 64.7382ZM21.836 52.0772L18.923 67.8022H23.171L25.366 53.2452L27.508 67.8022H31.726L28.825 52.0772H21.836ZM45.588 52.0772L43.604 64.3692L41.621 52.0772H35.206L34.866 67.8022H38.796L38.902 53.2452L41.606 67.8022H45.594L48.301 53.2452L48.408 67.8022H52.348L51.996 52.0772H45.588ZM82.13 52.0772H78.153V63.7102C78.159 63.9132 78.153 64.1402 78.118 64.3072C78.035 64.6982 77.704 65.4492 76.607 65.4492C75.524 65.4492 75.184 64.6972 75.108 64.3072C75.068 64.1402 75.063 63.9122 75.068 63.7102V52.0772H71.092V63.3502C71.087 63.6402 71.11 64.2342 71.127 64.3902C71.401 67.3272 73.716 68.2812 76.607 68.2812C79.503 68.2812 81.817 67.3272 82.096 64.3902C82.118 64.2352 82.147 63.6412 82.13 63.3502V52.0772ZM109.437 58.9762V61.2692H111.049V63.5452C111.054 63.7482 111.043 63.9672 111.008 64.1432C110.944 64.5672 110.541 65.2902 109.397 65.2902C108.26 65.2902 107.864 64.5672 107.795 64.1432C107.766 63.9672 107.754 63.7482 107.754 63.5452V56.3582C107.754 56.1042 107.771 55.8262 107.825 55.6152C107.903 55.2322 108.243 54.4772 109.388 54.4772C110.591 54.4772 110.891 55.2732 110.96 55.6152C111.005 55.8422 111.008 56.2222 111.008 56.2222V57.0952H114.969V56.5792C114.969 56.5792 114.987 56.0412 114.939 55.5382C114.641 52.5882 112.211 51.6552 109.424 51.6552C106.632 51.6552 104.251 52.5972 103.904 55.5382C103.873 55.8072 103.825 56.2912 103.825 56.5792V63.1902C103.825 63.4782 103.834 63.7012 103.888 64.2272C104.146 67.0962 106.633 68.1132 109.414 68.1132C112.212 68.1132 114.681 67.0962 114.944 64.2272C114.991 63.7012 114.996 63.4782 115.002 63.1902V58.9772H109.437V58.9762Z" fill="#005AAA"></path></svg> 