<?xml version="1.0" encoding="UTF-8"?> <svg xmlns="http://www.w3.org/2000/svg" width="120" height="120" viewBox="0 0 120 120" fill="none"><path d="M58.7461 49.2202H41.1141C37.0261 49.2202 35.2091 51.7802 34.7961 54.2172V49.2202H25.0101C23.6471 49.2202 22.9871 49.6332 22.3261 50.5832L19.6421 54.5062H58.7471V49.2202H58.7461Z" fill="#1D1D1B"></path><path d="M9.93701 69.866H16.957L25.752 55.662L19.476 55.042L9.93701 69.866Z" fill="#1D1D1B"></path><path d="M65.5588 49.2202H59.7778V54.5062H65.5588V49.2202Z" fill="#1D1D1B"></path><path d="M102.256 57.4783L84.1698 56.4053C84.1698 59.1723 85.9868 61.0303 89.0838 61.2783L101.968 62.2693C102.959 62.3513 103.579 62.5993 103.579 63.4253C103.579 64.2103 102.877 64.4993 101.432 64.4993H83.8818V69.8673H101.803C107.46 69.8673 109.938 67.8853 109.938 63.3843C109.937 59.3373 107.707 57.8093 102.256 57.4783Z" fill="#1D1D1B"></path><path d="M83.9351 56.405L78.2371 56.075V62.145C78.2371 64.044 77.2871 64.623 73.9841 64.623H69.4421C66.7171 64.623 65.5601 63.838 65.5601 62.145V55.497L59.7791 55.084V62.641H59.6551C59.3251 60.453 58.4991 57.892 53.0071 57.521L34.9201 56.322C34.9201 59.089 36.9021 60.74 39.9991 61.071L52.5931 62.351C53.5841 62.434 54.3271 62.723 54.3271 63.549C54.3271 64.457 53.5841 64.54 52.4281 64.54H34.7131V56.281L28.9321 55.909V69.866H52.4691C57.7131 69.866 59.4061 67.141 59.6541 64.87H59.7781C60.4391 68.463 63.5771 69.866 68.9041 69.866H74.7681C81.0031 69.866 83.9351 67.967 83.9351 63.507V56.405Z" fill="#1D1D1B"></path><path d="M109.537 54.5052V49.2202H90.1288C86.0868 49.2202 84.2658 51.7232 83.9458 54.1342C83.9418 54.1622 83.9378 54.1892 83.9348 54.2172V49.2202H78.2368V54.5062H83.9468H109.537V54.5052Z" fill="#1D1D1B"></path></svg> 