<?xml version="1.0" encoding="UTF-8"?> <svg xmlns="http://www.w3.org/2000/svg" width="120" height="120" viewBox="0 0 120 120" fill="none"><path d="M108.445 68.7403C111.845 68.7403 114.515 67.0403 115 63.3993L114.758 63.1553H113.787L113.543 63.3993C113.058 66.0683 111.358 67.5263 108.444 67.5263C104.803 67.5263 102.132 64.8553 102.132 59.9993C102.132 55.1433 104.803 52.4733 108.444 52.4733C111.358 52.4733 113.058 53.9293 113.543 56.3573L113.787 56.6013H114.758L115 56.3573C114.515 52.9583 111.845 51.2593 108.445 51.2593C104.318 51.2593 100.675 54.1733 100.675 59.9993C100.675 65.8273 104.318 68.7403 108.445 68.7403ZM97.7619 68.2543V51.7443L97.5209 51.5013H95.8209L95.5779 51.7443L89.2649 66.5543H89.0219L82.7099 51.7443L82.4659 51.5013H80.7669L80.5229 51.7443V68.2543L80.7669 68.4983H81.7379L81.9809 68.2543V54.1733H82.2249L88.2939 68.2543L88.5379 68.4983H89.7519L89.9949 68.2543L96.0649 54.1733H96.3079V68.2543L96.5519 68.4983H97.5229L97.7619 68.2543ZM77.3679 68.2543V67.5263L77.1239 67.2823H68.1419L67.8979 67.0393V60.7273L68.1419 60.4843H76.6389L76.8819 60.2403V59.5123L76.6389 59.2683H68.1419L67.8979 59.0253V52.9553L68.1419 52.7123H77.1239L77.3679 52.4693V51.7403L77.1239 51.4973H66.6859L66.4419 51.7403V68.2503L66.6859 68.4943H77.1249L77.3679 68.2543Z" fill="#939598"></path><path d="M62.582 65.1201V68.4981H51.618V51.5021H55.478V65.1201H62.582ZM51.618 51.5021H55.478H51.618ZM11.889 68.4981C15.844 68.4981 19.167 65.7971 20.115 62.1391L29.73 69.6511L39.339 62.1441V68.4991H50.303V65.1201H43.2V51.5021H39.34V57.8571L30.123 65.0581L28.062 63.4471L32.474 60.0001L37.279 56.2461L34.536 54.1031L25.319 61.3041L23.258 59.6931L32.475 52.4921L29.732 50.3491L20.117 57.8611C19.169 54.2031 15.845 51.5021 11.89 51.5021H5V68.4981H11.889ZM8.86 65.1201V54.8801H11.889C14.45 54.8801 16.527 57.1721 16.527 60.0001C16.527 62.8281 14.451 65.1201 11.889 65.1201H8.86Z" fill="#0087CC"></path></svg> 