<?xml version="1.0" encoding="UTF-8"?> <svg xmlns="http://www.w3.org/2000/svg" width="120" height="120" viewBox="0 0 120 120" fill="none"><path d="M59.4131 67.8279C55.4791 67.8279 54.1931 67.4119 54.0801 63.1769V56.7839C54.1941 52.5859 55.4801 52.1699 59.4131 52.1699C63.3461 52.1699 64.7451 52.5859 64.7451 56.7839V63.1769C64.7451 67.4129 63.3461 67.8279 59.4131 67.8279ZM59.4131 74.4109C67.0911 74.4109 72.5381 72.7459 72.5381 64.0089V55.9899C72.5381 47.2529 67.0911 45.5889 59.4131 45.5889C51.7351 45.5889 46.2881 47.2529 46.2881 55.9899V64.0079C46.2881 72.7449 51.7341 74.4109 59.4131 74.4109Z" fill="#00467F"></path><path d="M100.309 63.4419V64.2729C100.309 67.3759 100.272 70.1739 97.6992 72.3299C95.1272 74.4479 91.9882 74.4109 88.6972 74.4109C80.9822 74.4109 75.3462 74.0319 75.3462 63.6689V56.3299C75.3462 46.9499 80.3762 45.5889 88.6972 45.5889C96.4892 45.5889 100.12 46.3829 100.272 54.8939V55.9899H92.4802V54.8939C92.2152 52.3589 90.4382 52.1699 87.8642 52.1699C83.5532 52.1699 83.1362 53.4939 83.1362 57.5409V61.9659C83.1362 66.2029 83.3252 67.8279 87.8642 67.8279C91.0042 67.8279 92.5172 67.6019 92.5172 64.2729V63.4419H100.309V63.4419Z" fill="#00467F"></path><path d="M22.792 74.1829L31.066 56.2159C32.408 53.3059 33.155 52.3959 36.106 52.3959V60.3389V66.9199V74.1829H43.671V45.8149H35.125C28.09 45.8149 26.68 48.8209 23.274 56.2159L15 74.1829H22.792Z" fill="#00467F"></path><path d="M101.805 47.5839C101.805 46.7439 102.43 46.1109 103.232 46.1109C104.023 46.1109 104.648 46.7439 104.648 47.5839C104.648 48.4369 104.023 49.0659 103.232 49.0659C102.43 49.0659 101.805 48.4369 101.805 47.5839ZM103.232 49.3609C104.186 49.3609 105 48.6109 105 47.5829C105 46.5649 104.186 45.8149 103.232 45.8149C102.269 45.8149 101.454 46.5649 101.454 47.5829C101.454 48.6109 102.268 49.3609 103.232 49.3609ZM102.861 47.7239H103.213L103.745 48.6109H104.087L103.513 47.7099C103.81 47.6729 104.036 47.5129 104.036 47.1479C104.036 46.7439 103.801 46.5659 103.323 46.5659H102.555V48.6109H102.86V47.7239H102.861ZM102.861 47.4609V46.8279H103.278C103.49 46.8279 103.717 46.8749 103.717 47.1279C103.717 47.4429 103.486 47.4609 103.228 47.4609H102.861V47.4609Z" fill="#00467F"></path></svg> 