<?xml version="1.0" encoding="UTF-8"?> <svg xmlns="http://www.w3.org/2000/svg" id="Layer_1" viewBox="0 0 1080 1080"><defs><style>.cls-1{fill:#a587f9;}</style></defs><g><polygon class="cls-1" points="254.14 964.78 254.14 1078.55 367.91 1078.55 367.91 964.78 367.91 851.01 254.14 851.01 254.14 964.78"></polygon><polygon class="cls-1" points="481.68 851.01 481.68 964.78 481.68 1078.55 595.45 1078.55 595.45 964.78 595.45 851.01 595.45 737.24 481.68 737.24 481.68 851.01"></polygon><polygon class="cls-1" points="709.22 623.47 709.22 737.24 709.22 851.01 709.22 964.78 709.22 1078.55 822.99 1078.55 822.99 964.78 822.99 851.01 822.99 737.24 822.99 623.47 709.22 623.47"></polygon></g><path class="cls-1" d="M1078.92,101.09h-38.7c0,271.29-232.86,491.2-520.08,491.2S0,372.38,0,101.09H112.25c0,248.19,182.61,434.58,407.9,434.58s407.83-186.39,407.83-434.58h-38.43L984.19,0l94.72,101.09Z"></path></svg> 