<?xml version="1.0" encoding="UTF-8"?> <svg xmlns="http://www.w3.org/2000/svg" id="Layer_1" viewBox="0 0 1080 1080"><defs><style>.cls-1{fill:#a587f9;}</style></defs><path class="cls-1" d="M540,341.05c-109.92,0-198.95,89.03-198.95,198.95s89.03,198.95,198.95,198.95,198.95-89.1,198.95-198.95-89.1-198.95-198.95-198.95m0,341.05c-47.11,0-85.26-63.66-85.26-142.11s38.16-142.11,85.26-142.11,85.26,63.59,85.26,142.11-38.23,142.11-85.26,142.11"></path><path class="cls-1" d="M539.93,0C241.72,0,0,241.72,0,539.93v.14c.07,298.21,241.79,539.93,539.93,539.93s540-241.72,540.07-539.93v-.14C1080,241.72,838.21,0,539.93,0m-10.16,56.98h1.78c2.77-.07,5.54-.14,8.31-.14s5.61,.07,8.38,.14h1.78c169.32,4.48,314.19,120.72,379.35,286.2-98.27-53.93-236.39-87.39-389.37-87.39s-291.32,33.54-389.58,87.47C215.64,177.77,360.52,61.46,529.77,56.98M113.68,539.93c.07-125.62,190.92-227.3,426.32-227.3s426.17,101.68,426.24,227.3v.14c-.07,125.55-190.92,227.3-426.24,227.3s-426.25-101.75-426.32-227.3v-.14Zm436.33,483.09h-1.78c-2.77,.07-5.54,.14-8.38,.14s-5.54-.07-8.31-.14h-1.78c-169.11-4.48-313.98-120.79-379.21-286.2,98.27,53.86,236.39,87.39,389.44,87.39s290.96-33.47,389.23-87.32c-65.16,165.41-210.03,281.65-379.21,286.13"></path><path class="cls-1" d="M540,341.05c-109.92,0-198.95,89.03-198.95,198.95s89.03,198.95,198.95,198.95,198.95-89.1,198.95-198.95-89.1-198.95-198.95-198.95m0,341.05c-47.11,0-85.26-63.66-85.26-142.11s38.16-142.11,85.26-142.11,85.26,63.59,85.26,142.11-38.23,142.11-85.26,142.11"></path><path class="cls-1" d="M540,341.05c-109.92,0-198.95,89.03-198.95,198.95s89.03,198.95,198.95,198.95,198.95-89.1,198.95-198.95-89.1-198.95-198.95-198.95m0,341.05c-47.11,0-85.26-63.66-85.26-142.11s38.16-142.11,85.26-142.11,85.26,63.59,85.26,142.11-38.23,142.11-85.26,142.11"></path></svg> 