<?xml version="1.0" encoding="UTF-8"?> <svg xmlns="http://www.w3.org/2000/svg" id="Layer_1" viewBox="0 0 1080 1080"><defs><style>.cls-1{fill:#a587f9;}</style></defs><path class="cls-1" d="M324.29,815.58c67.57-22.71,116.26-86.52,116.26-161.74,0-46.11-18.35-87.88-48.08-118.58-5.15-5.32-10.6-10.35-16.4-14.96-22.51-17.92-49.62-30.28-79.3-34.98-.99-.16-2.02-.22-3.01-.36-7.81-1.1-15.75-1.77-23.86-1.77-94.25,0-170.65,76.4-170.65,170.65,0,75.22,48.69,139.03,116.26,161.74C92.53,840.74,0,949.56,0,1080H113.65c11.98-128.81,64.19-227.29,156.26-227.29s144.28,98.48,156.26,227.29h113.65c0-130.44-92.52-239.26-215.52-264.42Zm-137.69-162.61c.14-33.58,8.47-64.06,21.98-87.02,15.23-25.9,37.03-42.24,61.33-42.24,3.19,0,6.32,.34,9.41,.88,28.88,5.07,53.22,33.21,65.44,72.33,5.38,17.21,8.48,36.47,8.48,56.91,0,71.87-37.31,130.13-83.33,130.13s-83.33-58.26-83.33-130.13c0-.29,.03-.57,.03-.86Z"></path><path class="cls-1" d="M824.01,0H468.78c-155.6,0-255.7,114.5-255.7,255.7h113.64c0-109.81,46.79-198.88,142.06-198.88h355.23c95,0,142.06,89.07,142.06,198.88V824.3c0,116.15-63.57,198.88-142.06,198.88v56.82c141.2,0,255.7-108.65,255.7-255.7V255.7C1079.72,114.5,978.49,0,824.01,0Z"></path><rect class="cls-1" x="440.37" y="198.88" width="412.05" height="56.82"></rect><rect class="cls-1" x="440.37" y="369.35" width="412.05" height="56.82"></rect><rect class="cls-1" x="646.4" y="539.81" width="206.03" height="56.82"></rect></svg> 