<?xml version="1.0" encoding="UTF-8"?> <svg xmlns="http://www.w3.org/2000/svg" viewBox="0 0 328.3 75"><g id="Layer_2" data-name="Layer 2"><g id="Layer_1-2" data-name="Layer 1"><path d="M316.6,28.8h5v.7h-2.1v5.3h-.8V29.5h-2.1Z"></path><path d="M325.3,34.8l-1.9-4.6v4.6h-.8v-6h.9l2,5,2-5h.8v6h-.7V30.2l-1.9,4.6Z"></path><path d="M309.9,17.8v11h-9.5V43.6c0,1.8-.8,3.4-3.1,3.4s-3.1-1.6-3.1-3.4V28.8h-9.8V43.6c0,1.8-.8,3.4-3.1,3.4s-3.1-1.6-3.1-3.4V28.8h-9.9c0-11.4.1-7.9.1-11C268.4,5.8,279,0,289.2,0S309.9,5.7,309.9,17.8Z"></path><path d="M297.6,58.3a11.71,11.71,0,0,1-8.4-4.1h-.1a11.71,11.71,0,0,1-8.4,4.1,13.35,13.35,0,0,1-9.8-4.1h-2.7a20.8,20.8,0,0,0,41.6,0h-2.6a12.58,12.58,0,0,1-9.6,4.1Z"></path><path d="M0,28.7H10.1V46.2c0,1.9.8,3.5,3.2,3.5s3.2-1.6,3.2-3.5V28.7H26.6V46.2c0,1.9.8,3.5,3.2,3.5S33,48.1,33,46.2V28.7H43.1V47.9c0,7.1-6.1,11.6-12.8,11.6a12.2,12.2,0,0,1-8.7-4.3,12.2,12.2,0,0,1-8.7,4.3C6.2,59.5.1,55,.1,47.9V28.7Z"></path><path d="M82.3,58.7H71.6V55.4h-.1c-1.9,3-5.6,4.3-9.1,4.3-8.9,0-15.1-7.4-15.1-16s6.1-16,15-16a12.38,12.38,0,0,1,9.3,3.9V28.7H82.2v30Zm-24-15a6.38,6.38,0,0,0,6.8,6.7,6.38,6.38,0,0,0,6.8-6.7,6.8,6.8,0,0,0-13.6,0"></path><rect x="88.2" y="10.2" width="10.6" height="48.5"></rect><rect x="105.8" y="10.2" width="10.6" height="48.5"></rect><path d="M123.1,10.2h10.6V31.6a12.38,12.38,0,0,1,9.3-3.9c8.9,0,15,7.4,15,16s-6.2,16-15.1,16c-3.5,0-7.1-1.3-9.1-4.3h-.1v3.3H123.1V10.2Zm10.3,33.5a6.8,6.8,0,0,0,13.6,0,6.8,6.8,0,0,0-13.6,0"></path><path d="M197.3,43.7c0,10.2-8.4,16-18.1,16s-18.1-5.7-18.1-16,8.4-16,18.1-16,18.1,5.8,18.1,16m-24.9,0a6.8,6.8,0,0,0,13.6,0,6.8,6.8,0,0,0-13.6,0"></path><polygon points="197 28.7 210.5 28.7 215.8 34.9 221.2 28.7 235 28.7 222.6 42.4 237.5 58.7 223.6 58.7 215.8 49.8 208.1 58.7 194.2 58.7 209.1 42.4 197 28.7"></polygon></g></g></svg> 