<?xml version="1.0" encoding="UTF-8"?> <svg xmlns="http://www.w3.org/2000/svg" xmlns:xlink="http://www.w3.org/1999/xlink" version="1.1" id="图层_1" x="0px" y="0px" viewBox="0 0 120 60" style="enable-background:new 0 0 120 60;" xml:space="preserve"> <g> <rect x="86.51" y="19.74" width="4.65" height="20.53"></rect> <polygon points="43.77,24.49 50.11,24.49 50.11,40.26 54.82,40.26 54.82,24.49 61.13,24.49 61.13,19.74 43.77,19.74 "></polygon> <polygon points="24.45,40.26 39.84,40.26 39.84,35.51 29.1,35.51 29.1,32.38 39.22,32.38 39.22,27.62 29.1,27.62 29.1,24.49 39.84,24.49 39.84,19.74 24.45,19.74 "></polygon> <polygon points="112.93,19.74 95.58,19.74 95.58,24.49 101.92,24.49 101.92,40.26 106.62,40.26 106.62,24.49 112.93,24.49 "></polygon> <polygon points="81.88,23.14 79.07,19.43 69.96,26.33 69.96,19.73 65.31,19.73 65.31,40.26 69.96,40.26 69.96,33.66 79.08,40.57 81.89,36.86 72.82,30 "></polygon> <path d="M12.59,19.74H3.7v20.53h4.68v-5.73h4.21c1.98,0,3.83-0.77,5.23-2.17c1.4-1.4,2.17-3.25,2.17-5.24 c0-1.98-0.77-3.83-2.17-5.23C16.43,20.51,14.57,19.74,12.59,19.74z M15.24,27.14c0,1.46-1.19,2.64-2.64,2.64H8.38v-5.29h4.21 C14.05,24.49,15.24,25.68,15.24,27.14z"></path> <path d="M113.98,35.78c-1.28,0-2.32,1.04-2.32,2.32c0,1.28,1.04,2.32,2.32,2.32c1.28,0,2.32-1.04,2.32-2.32 C116.3,36.82,115.26,35.78,113.98,35.78z M113.98,40.03c-1.07,0-1.94-0.87-1.94-1.94c0-1.07,0.87-1.94,1.94-1.94 c1.07,0,1.94,0.87,1.94,1.94C115.92,39.17,115.05,40.03,113.98,40.03z"></path> <path d="M115.09,37.48c0-0.55-0.34-0.83-1.02-0.83h-0.91v2.9h0.43v-1.2h0.43l0.7,1.2h0.49l-0.73-1.25 C114.87,38.18,115.09,37.89,115.09,37.48z M114.02,37.97h-0.43v-0.95h0.43c0.45,0,0.64,0.14,0.64,0.46 C114.66,37.81,114.45,37.97,114.02,37.97z"></path> </g> </svg> 