<?xml version="1.0" encoding="UTF-8"?> <svg xmlns="http://www.w3.org/2000/svg" xmlns:xlink="http://www.w3.org/1999/xlink" version="1.1" id="Layer_1" x="0px" y="0px" viewBox="0 0 120 60" style="enable-background:new 0 0 120 60;" xml:space="preserve"> <style type="text/css"> .st0{fill:#F8951D;} </style> <g> <g> <path d="M14.4,45.6c0-0.4,0.3-0.7,0.7-0.7c0.4,0,0.7,0.3,0.7,0.7v1.3c0.8-1.1,1.9-2.1,3.6-2.1c2.3,0,4.5,1.8,4.5,4.9v0 c0,3.1-2.2,4.9-4.5,4.9c-1.8,0-2.9-1-3.6-2v4.1c0,0.4-0.3,0.7-0.7,0.7c-0.4,0-0.7-0.3-0.7-0.7V45.6z M22.5,49.7L22.5,49.7 c0-2.3-1.5-3.7-3.3-3.7c-1.8,0-3.4,1.5-3.4,3.6v0c0,2.2,1.7,3.7,3.4,3.7C21,53.4,22.5,52,22.5,49.7"></path> <path d="M25.7,41.7c0-0.4,0.3-0.7,0.7-0.7c0.4,0,0.7,0.3,0.7,0.7v4.9c0.6-1,1.6-1.8,3.2-1.8c2.3,0,3.6,1.5,3.6,3.8v5.3 c0,0.4-0.3,0.7-0.7,0.7c-0.4,0-0.7-0.3-0.7-0.7v-4.9c0-1.8-1-2.9-2.6-2.9c-1.6,0-2.8,1.2-2.8,3v4.8c0,0.4-0.3,0.7-0.7,0.7 c-0.4,0-0.7-0.3-0.7-0.7V41.7z"></path> <path d="M35.6,49.7L35.6,49.7c0-2.7,2.1-5,4.9-5c2.8,0,4.9,2.2,4.9,4.9v0c0,2.7-2.1,4.9-5,4.9C37.7,54.6,35.6,52.4,35.6,49.7 M44,49.7L44,49.7c0-2.1-1.5-3.7-3.5-3.7c-2,0-3.5,1.7-3.5,3.7v0c0,2,1.5,3.7,3.5,3.7C42.6,53.4,44,51.7,44,49.7"></path> <path d="M47.7,51.9v-5.7H47c-0.3,0-0.6-0.3-0.6-0.6c0-0.3,0.3-0.6,0.6-0.6h0.8v-2.2c0-0.4,0.3-0.7,0.7-0.7c0.4,0,0.7,0.3,0.7,0.7 V45h2.5c0.3,0,0.6,0.3,0.6,0.6c0,0.3-0.3,0.6-0.6,0.6h-2.5v5.5c0,1.2,0.6,1.6,1.6,1.6c0.5,0,0.8-0.1,0.9-0.1 c0.3,0,0.6,0.3,0.6,0.6c0,0.3-0.2,0.5-0.4,0.5c-0.4,0.2-0.8,0.3-1.4,0.3C48.9,54.6,47.7,53.8,47.7,51.9"></path> <path d="M53,49.7L53,49.7c0-2.7,2.1-5,4.9-5c2.8,0,4.9,2.2,4.9,4.9v0c0,2.7-2.1,4.9-5,4.9C55.1,54.6,53,52.4,53,49.7 M61.4,49.7 L61.4,49.7c0-2.1-1.5-3.7-3.5-3.7c-2,0-3.5,1.7-3.5,3.7v0c0,2,1.5,3.7,3.5,3.7C60,53.4,61.4,51.7,61.4,49.7"></path> <path d="M64.6,45.6c0-0.4,0.3-0.7,0.7-0.7c0.4,0,0.7,0.3,0.7,0.7v1c0.6-0.9,1.5-1.8,3.1-1.8c1.5,0,2.5,0.8,3,1.9 c0.7-1,1.7-1.9,3.3-1.9c2.2,0,3.5,1.5,3.5,3.8v5.2c0,0.4-0.3,0.7-0.7,0.7c-0.4,0-0.7-0.3-0.7-0.7v-4.9c0-1.8-0.9-2.9-2.5-2.9 c-1.4,0-2.6,1.1-2.6,2.9v4.8c0,0.4-0.3,0.7-0.7,0.7c-0.4,0-0.7-0.3-0.7-0.7v-4.9c0-1.8-0.9-2.8-2.4-2.8c-1.5,0-2.6,1.2-2.6,3v4.8 c0,0.4-0.3,0.7-0.7,0.7c-0.4,0-0.7-0.3-0.7-0.7V45.6z"></path> <path d="M80.5,51.7L80.5,51.7c0-2,1.6-3.1,4-3.1c1.2,0,2.1,0.2,2.9,0.4v-0.3c0-1.7-1-2.6-2.8-2.6c-1,0-1.8,0.2-2.5,0.5 c-0.1,0-0.2,0.1-0.3,0.1c-0.3,0-0.6-0.3-0.6-0.6c0-0.3,0.2-0.5,0.4-0.6c0.9-0.4,1.9-0.6,3.1-0.6c1.3,0,2.4,0.3,3.1,1 c0.6,0.6,1,1.6,1,2.8v5.2c0,0.4-0.3,0.7-0.7,0.7c-0.4,0-0.7-0.3-0.7-0.7V53c-0.7,0.9-1.8,1.6-3.4,1.6 C82.3,54.6,80.5,53.6,80.5,51.7 M87.5,50.9V50c-0.7-0.2-1.6-0.4-2.8-0.4c-1.8,0-2.8,0.8-2.8,2v0c0,1.2,1.1,1.9,2.4,1.9 C86.1,53.5,87.5,52.4,87.5,50.9"></path> <path d="M91.5,51.9v-5.7h-0.8c-0.3,0-0.6-0.3-0.6-0.6c0-0.3,0.3-0.6,0.6-0.6h0.8v-2.2c0-0.4,0.3-0.7,0.7-0.7 c0.4,0,0.7,0.3,0.7,0.7V45h2.5c0.3,0,0.6,0.3,0.6,0.6c0,0.3-0.3,0.6-0.6,0.6h-2.5v5.5c0,1.2,0.6,1.6,1.6,1.6 c0.5,0,0.8-0.1,0.9-0.1c0.3,0,0.6,0.3,0.6,0.6c0,0.3-0.2,0.5-0.4,0.5c-0.4,0.2-0.8,0.3-1.4,0.3C92.6,54.6,91.5,53.8,91.5,51.9"></path> <path d="M101.4,54.6c-2.6,0-4.7-2-4.7-4.9v0c0-2.7,1.9-4.9,4.5-4.9c2.8,0,4.4,2.3,4.4,4.8c0,0.4-0.3,0.7-0.7,0.7h-6.8 c0.2,2,1.6,3.2,3.3,3.2c1.2,0,2-0.5,2.7-1.1c0.1-0.1,0.2-0.2,0.4-0.2c0.3,0,0.6,0.3,0.6,0.6c0,0.2-0.1,0.3-0.2,0.5 C104.1,54.1,103,54.6,101.4,54.6 M104.2,49.2c-0.1-1.7-1.1-3.2-3-3.2c-1.6,0-2.9,1.4-3.1,3.2H104.2z"></path> </g> <g> <polygon class="st0" points="68.1,15.5 69.4,17.8 69.4,16.3 "></polygon> <polygon class="st0" points="64,8.4 65.8,11.5 69.4,11.5 69.4,5.3 "></polygon> <polygon class="st0" points="64.2,12.3 65.9,13.3 65.3,12.3 "></polygon> <polygon class="st0" points="54.5,11.4 57,11.4 59.1,10.3 56.2,8.6 "></polygon> <polygon class="st0" points="58.7,11.4 61.1,11.5 59.9,10.7 "></polygon> <polygon class="st0" points="60.7,10.3 62.8,11.5 64.8,11.5 63.3,8.8 "></polygon> <polygon class="st0" points="50.3,11.4 53.6,11.4 55.5,8.2 50.3,5.2 "></polygon> <polygon class="st0" points="56.6,7.9 59.9,9.8 62.9,8.1 59.6,2.6 "></polygon> <polygon class="st0" points="50.2,31.4 53.1,31.4 51.9,29.4 50.2,28.5 "></polygon> <polygon class="st0" points="61.2,32.3 58.4,32.3 59.8,33.1 "></polygon> <polygon class="st0" points="65.8,30.6 64.3,31.4 65.3,31.4 "></polygon> <polygon class="st0" points="68,28.3 69.5,27.5 69.5,25.9 "></polygon> <polygon class="st0" points="53.3,13.6 55.6,12.3 54,12.3 "></polygon> <polygon class="st0" points="66.2,31.4 69.5,31.4 69.5,28.5 67.2,29.7 "></polygon> <polygon class="st0" points="50.2,27.5 51.1,28 50.2,26.5 "></polygon> <polygon class="st0" points="50.3,15.3 51.8,14.4 53.1,12.3 50.3,12.2 "></polygon> <polygon class="st0" points="55.4,31.4 53.3,30.3 54,31.4 "></polygon> <polygon class="st0" points="66.2,12.3 67.3,14.1 69.4,15.3 69.4,12.3 "></polygon> <polygon class="st0" points="49.4,20.2 48.5,21.8 49.4,23.4 "></polygon> <polygon class="st0" points="70.3,28 70.3,31.4 76.4,31.4 73.4,26.2 "></polygon> <polygon class="st0" points="79.1,21.9 73.6,18.7 71.8,21.8 73.7,25.1 "></polygon> <polygon class="st0" points="70.3,15.8 73.3,17.6 76.3,12.3 70.3,12.3 "></polygon> <polygon class="st0" points="46.5,25.3 49.4,27 49.4,25.1 48,22.7 "></polygon> <polygon class="st0" points="47.6,21.8 45.8,18.8 40.5,21.9 45.8,24.9 "></polygon> <polygon class="st0" points="49.5,16.8 46.6,18.4 48,21 49.5,18.6 "></polygon> <polygon class="st0" points="49.4,28 46.1,26.1 43,31.4 49.4,31.4 "></polygon> <polygon class="st0" points="49.5,12.2 43,12.2 46.1,17.7 49.5,15.8 "></polygon> <polygon class="st0" points="62.9,32.3 60.6,33.5 63.2,35 64.8,32.3 "></polygon> <polygon class="st0" points="59,33.5 56.8,32.3 54.5,32.3 56.2,35.2 "></polygon> <polygon class="st0" points="62.8,35.7 59.8,34 56.6,35.9 59.6,41.2 "></polygon> <polygon class="st0" points="50.3,17.1 51,15.9 50.3,16.3 "></polygon> <polygon class="st0" points="53.5,32.3 50.2,32.3 50.2,38.6 55.4,35.6 "></polygon> <polygon class="st0" points="69.5,32.3 65.8,32.3 63.9,35.4 69.5,38.7 "></polygon> <polygon class="st0" points="73,25.5 71.3,22.6 70.3,24.4 70.3,27 "></polygon> <polygon class="st0" points="72.9,18.3 70.3,16.8 70.3,19.2 71.3,21 "></polygon> <polygon class="st0" points="70.8,21.8 70.3,20.8 70.3,22.8 "></polygon> </g> </g> </svg> 