<?xml version="1.0" encoding="UTF-8"?> <svg xmlns="http://www.w3.org/2000/svg" xmlns:xlink="http://www.w3.org/1999/xlink" version="1.1" id="Layer_1" x="0px" y="0px" viewBox="0 0 120 60" style="enable-background:new 0 0 120 60;" xml:space="preserve"> <style type="text/css"> .st0{fill:#231F20;} </style> <g> <g> <path class="st0" d="M16.52,56.92c-1.42,0-2.5-0.3-3.42-1.24l1.18-1.18c0.59,0.59,1.39,0.79,2.26,0.79c1.08,0,1.66-0.41,1.66-1.16 c0-0.33-0.09-0.6-0.29-0.79c-0.18-0.17-0.39-0.26-0.83-0.33l-1.13-0.16c-0.8-0.12-1.39-0.37-1.81-0.78 c-0.45-0.45-0.67-1.05-0.67-1.84c0-1.67,1.24-2.84,3.26-2.84c1.29,0,2.22,0.32,3.02,1.09l-1.16,1.14 c-0.59-0.56-1.3-0.64-1.92-0.64c-0.97,0-1.45,0.54-1.45,1.18c0,0.24,0.08,0.49,0.28,0.67c0.19,0.17,0.49,0.32,0.87,0.37l1.1,0.16 c0.85,0.12,1.39,0.35,1.79,0.72c0.5,0.47,0.72,1.16,0.72,1.99C19.99,55.89,18.47,56.92,16.52,56.92z"></path> <path class="st0" d="M22.74,53.95c0,0.88,0.54,1.53,1.5,1.53c0.75,0,1.12-0.21,1.55-0.64l1.04,1.01c-0.7,0.7-1.37,1.08-2.6,1.08 c-1.62,0-3.17-0.74-3.17-3.51c0-2.23,1.21-3.5,2.98-3.5c1.91,0,2.98,1.39,2.98,3.27v0.76H22.74z M25.19,52.04 c-0.18-0.41-0.57-0.71-1.14-0.71c-0.58,0-0.96,0.3-1.14,0.71c-0.11,0.25-0.14,0.43-0.16,0.74h2.6 C25.33,52.47,25.29,52.29,25.19,52.04z"></path> <path class="st0" d="M30.79,59.43c-1.05,0-1.78-0.21-2.48-0.89l1.07-1.08c0.38,0.37,0.76,0.53,1.34,0.53 c1.02,0,1.38-0.72,1.38-1.42v-0.7c-0.45,0.5-0.96,0.68-1.63,0.68c-0.67,0-1.25-0.22-1.63-0.61c-0.64-0.64-0.7-1.52-0.7-2.72 c0-1.2,0.05-2.06,0.7-2.71c0.38-0.38,0.97-0.6,1.64-0.6c0.72,0,1.2,0.2,1.67,0.72v-0.64h1.66v6.6 C33.8,58.23,32.63,59.43,30.79,59.43z M30.96,51.45c-1.01,0-1.12,0.87-1.12,1.77c0,0.91,0.11,1.79,1.12,1.79 c1.01,0,1.13-0.88,1.13-1.79C32.09,52.32,31.97,51.45,30.96,51.45z"></path> <path class="st0" d="M42.46,56.84h-1.41l-1.43-4.3l-1.43,4.3h-1.41l-2.1-6.85h1.81l1.1,4.23l1.39-4.23h1.25l1.41,4.23l1.1-4.23 h1.8L42.46,56.84z"></path> <path class="st0" d="M48.94,56.84V56.3c-0.46,0.41-0.89,0.61-1.68,0.61c-0.78,0-1.34-0.2-1.75-0.6c-0.37-0.38-0.56-0.93-0.56-1.54 c0-1.09,0.75-2.11,2.34-2.11h1.62v-0.21c0-0.75-0.37-1.08-1.28-1.08c-0.66,0-0.96,0.16-1.31,0.57l-1.09-1.06 c0.67-0.74,1.33-0.95,2.47-0.95c1.92,0,2.92,0.82,2.92,2.42v4.51H48.94z M48.91,53.82h-1.35c-0.62,0-0.96,0.42-0.96,0.9 c0,0.47,0.32,0.79,0.99,0.79c0.47,0,0.78-0.04,1.08-0.33c0.18-0.17,0.25-0.45,0.25-0.87V53.82z"></path> <g> <polygon class="st0" points="56,49.99 54.64,54.13 53.22,49.99 51.42,49.99 53.75,56.33 52.55,59.35 54.36,59.35 57.8,49.99 "></polygon> </g> <path class="st0" d="M58.5,53.94v-1.59h4.05v1.59H58.5z"></path> <path class="st0" d="M69.82,56.84l-3.71-5.74v5.74h-1.83v-9.36h1.63l3.71,5.73v-5.73h1.83v9.36H69.82z"></path> <path class="st0" d="M73.8,49.44c-0.59,0-1.08-0.49-1.08-1.08c0-0.59,0.49-1.06,1.08-1.06c0.59,0,1.07,0.47,1.07,1.06 C74.86,48.95,74.39,49.44,73.8,49.44z M72.95,56.84v-6.55h1.71v6.55H72.95z"></path> <path class="st0" d="M80.12,56.84V52.7c0-0.93-0.59-1.25-1.13-1.25c-0.54,0-1.14,0.32-1.14,1.25v4.14h-1.71v-6.85h1.67v0.63 c0.45-0.47,1.08-0.71,1.71-0.71c0.68,0,1.23,0.22,1.62,0.6c0.55,0.55,0.7,1.2,0.7,1.95v4.38H80.12z"></path> <path class="st0" d="M84.64,53.95c0,0.88,0.54,1.53,1.5,1.53c0.75,0,1.12-0.21,1.55-0.64l1.04,1.01c-0.7,0.7-1.37,1.08-2.6,1.08 c-1.62,0-3.17-0.74-3.17-3.51c0-2.23,1.21-3.5,2.98-3.5c1.91,0,2.98,1.39,2.98,3.27v0.76H84.64z M87.08,52.04 c-0.18-0.41-0.57-0.71-1.14-0.71c-0.58,0-0.96,0.3-1.14,0.71c-0.1,0.25-0.14,0.43-0.16,0.74h2.6 C87.23,52.47,87.19,52.29,87.08,52.04z"></path> <path class="st0" d="M95.06,56.3c-0.38,0.38-1,0.62-1.67,0.62c-0.72,0-1.24-0.2-1.71-0.72v0.64h-1.66v-9.36h1.71v3.11 c0.45-0.5,0.96-0.68,1.66-0.68c0.67,0,1.29,0.24,1.67,0.62c0.68,0.68,0.7,1.85,0.7,2.88C95.76,54.43,95.75,55.62,95.06,56.3z M92.89,51.45c-1.03,0-1.16,0.84-1.16,1.96c0,1.12,0.13,1.97,1.16,1.97c1.03,0,1.16-0.85,1.16-1.97 C94.05,52.29,93.92,51.45,92.89,51.45z"></path> <path class="st0" d="M101.79,56.08c-0.42,0.45-1.12,0.84-2.13,0.84c-1.01,0-1.7-0.39-2.12-0.84c-0.62-0.64-0.77-1.42-0.77-2.67 c0-1.24,0.16-2.01,0.77-2.66c0.42-0.45,1.1-0.84,2.12-0.84c1.01,0,1.71,0.39,2.13,0.84c0.62,0.64,0.78,1.42,0.78,2.66 C102.57,54.66,102.41,55.43,101.79,56.08z M100.47,51.75c-0.2-0.2-0.46-0.3-0.8-0.3c-0.34,0-0.59,0.1-0.79,0.3 c-0.35,0.35-0.39,0.95-0.39,1.66c0,0.71,0.04,1.31,0.39,1.67c0.2,0.2,0.45,0.3,0.79,0.3c0.34,0,0.61-0.1,0.8-0.3 c0.35-0.36,0.39-0.96,0.39-1.67C100.86,52.7,100.82,52.11,100.47,51.75z"></path> <path class="st0" d="M105.97,56.84c-1.39,0-1.98-0.99-1.98-1.96v-3.39h-0.72v-1.3h0.72v-2.02h1.71v2.02h1.21v1.3h-1.21v3.29 c0,0.39,0.18,0.62,0.59,0.62h0.62v1.45H105.97z"></path> </g> <path class="st0" d="M60.13,0.57c-10.36,0-18.76,8.4-18.76,18.76c0,10.36,8.4,18.76,18.76,18.76c10.36,0,18.76-8.4,18.76-18.76 C78.89,8.97,70.49,0.57,60.13,0.57z M47.85,17.98c0-0.54,0.44-0.98,0.97-0.98h12.14c0.54,0,0.97,0.44,0.97,0.98 c0,0.54-0.44,0.97-0.97,0.97H48.82C48.29,18.95,47.85,18.52,47.85,17.98z M66.16,19.61c0,0-2.86,9.15-3.42,10.94 c-0.81,2.55-3.62,3.71-5.96,2.64c-2.37-1.08-1.96-3.31-1.76-3.96l1.22-3.92c0.33-1.06,0.43-1.67-0.06-2.4 c-0.55-0.78-1.56-0.73-1.92-0.73l-1.4,0c-0.54,0-0.97-0.43-0.97-0.97c0-0.54,0.43-0.98,0.97-0.98h5.74c1.32,0,1.96,0.73,1.34,1.95 l-3.08,6.09c-0.59,1.16-0.61,2.61,0.71,3.17c1.64,0.69,3.02-0.5,3.51-2.07c0.23-0.74,3.24-10.35,3.24-10.35 c0.27-0.83,0.48-1.82-0.05-2.56c-0.49-0.7-1.58-0.73-1.94-0.73H51.47c-0.54,0-0.97-0.44-0.97-0.98c0-0.54,0.43-0.97,0.97-0.97 h10.87c0.42,0,2.34-0.04,3.48,1.43C66.67,16.29,66.76,17.74,66.16,19.61z M65.22,12.8c-1.81,0-3.27-1.47-3.27-3.27 c0-1.81,1.47-3.27,3.27-3.27c1.81,0,3.27,1.46,3.27,3.27C68.5,11.34,67.03,12.8,65.22,12.8z"></path> </g> </svg> 