<?xml version="1.0" encoding="UTF-8"?> <svg xmlns="http://www.w3.org/2000/svg" xmlns:xlink="http://www.w3.org/1999/xlink" version="1.1" id="图层_1" x="0px" y="0px" viewBox="0 0 120 60" style="enable-background:new 0 0 120 60;" xml:space="preserve"> <style type="text/css"> .st0{fill-rule:evenodd;clip-rule:evenodd;fill:#008BD5;} .st1{fill:#E73829;} .st2{fill:#008BD5;} </style> <g> <g> <g> <g> <path class="st0" d="M22.01,21.05c0-1.61-0.83-3.05-2.69-3.05c-2.3,0-14.44,0-14.44,0c-1.97,0-2.92,1.45-2.92,3.19v2.17h7.08 v17.99h5.9V23.35h7.07V21.05z"></path> <rect x="28.28" y="25.42" class="st0" width="5.56" height="15.92"></rect> <path class="st0" d="M44.64,25.42c-3.95,0-6.06,0-8.55,0c-0.68,0-0.79,0.33-0.79,0.77c0,4.87,0,10.25,0,15.15 c1.47,0,3.82,0,5.3,0c0-0.2,0-11.77,0-11.77c0-0.23,0.07-0.49,0.36-0.49c1.08,0,1,0,1.83,0c1.33,0,1.88,0.4,1.88,1.95v10.32 h5.31V30.46C49.98,26.85,48.39,25.42,44.64,25.42z"></path> <path class="st0" d="M60.01,25.42c-1.08,0-8.25,0-8.25,0v1.52c0,1.63,1.05,2.13,2.28,2.13c0,0,3.73,0,4.22,0 c1.33,0,1.78,0.53,1.78,1.95v0.65h-4.8c-2.58,0-4.08,1.81-4.08,4.73c0,3,1.43,4.93,3.84,4.93h10.35V30.46 C65.35,26.85,63.76,25.42,60.01,25.42z M60.03,37.69h-2.48c-0.58,0-1.03-0.34-1.03-1.29c0-0.94,0.44-1.28,1.03-1.28h2.48V37.69z "></path> <path class="st0" d="M22.01,26.88v-1.46H17v15.93h0.68h4.55v-7.23c0-2.89,2.85-4.14,4.57-4.14v-4.56c0,0-0.12,0-0.24,0 C24.91,25.42,23.34,25.94,22.01,26.88z"></path> </g> <g> <g> <g> <path class="st1" d="M35.54,18.88c0-2.47-2-4.47-4.47-4.47c-2.47,0-4.47,2-4.47,4.47c0,2.47,2,4.47,4.47,4.47 C33.54,23.35,35.54,21.35,35.54,18.88z"></path> </g> </g> </g> </g> </g> <g> <path class="st2" d="M72.23,41.59c-2.06,0-4.18-0.37-4.92-0.57v-1.44c0.96,0.11,3.03,0.42,4.86,0.42c2.88,0,3.79-0.99,3.79-2.54 c0-1.53-0.68-2.12-3.45-3.25l-1.1-0.42c-2.94-1.19-4.3-2.4-4.3-4.58c0-2.54,1.78-3.73,5.49-3.73c1.89,0,3.76,0.31,4.5,0.54v1.41 c-1.44-0.2-3.22-0.34-4.41-0.34c-2.54,0-3.7,0.45-3.7,2.12c0,1.44,0.79,2.06,3.17,3.03l1.1,0.45c3.42,1.44,4.55,2.43,4.55,4.75 C77.8,39.61,76.56,41.59,72.23,41.59z"></path> <path class="st2" d="M84.93,41.59c-4.35,0-6.39-2.49-6.39-7.24v-1.64c0-4.72,2.04-7.24,6.39-7.24c4.35,0,6.39,2.52,6.39,7.24v1.64 C91.32,39.1,89.28,41.59,84.93,41.59z M89.48,32.71c0-3.93-1.36-5.6-4.55-5.6c-3.17,0-4.55,1.67-4.55,5.6v1.64 c0,3.93,1.36,5.63,4.55,5.63c3.2,0,4.55-1.7,4.55-5.63V32.71z"></path> <path class="st2" d="M93.18,41.22V19.37h1.84v21.86H93.18z"></path> <path class="st2" d="M106.44,41.22v-1.1c-1.07,0.65-2.83,1.47-5.12,1.47c-3,0-4.58-1.36-4.58-4.41v-0.42 c0-3.9,2.52-4.69,7.01-4.69h2.6v-1.3c0-3-0.65-3.7-4.07-3.7c-1.5,0-2.77,0.11-4.5,0.31v-1.36c1.44-0.25,2.66-0.54,4.64-0.54 c4.89,0,5.8,1.67,5.8,5.29v10.46H106.44z M106.36,33.51h-2.6c-3.7,0-5.17,0.51-5.17,3.25v0.54c0,2.12,1.19,2.86,3.11,2.86 s3.82-0.85,4.67-1.39V33.51z"></path> <path class="st2" d="M112.27,28.56v12.67h-1.81V25.87h1.81v1.24c1.81-1.3,3.99-1.64,5.77-1.64v1.67 C116.34,27.14,113.97,27.54,112.27,28.56z"></path> </g> </g> </svg> 