<?xml version="1.0" encoding="UTF-8"?> <svg xmlns="http://www.w3.org/2000/svg" xmlns:xlink="http://www.w3.org/1999/xlink" version="1.1" id="Layer_1" x="0px" y="0px" viewBox="0 0 120 60" style="enable-background:new 0 0 120 60;" xml:space="preserve"> <style type="text/css"> .st0{fill:#CAAA79;} </style> <g> <g id="XMLID_378_"> <g id="XMLID_392_"> <g id="XMLID_393_"> <path id="XMLID_394_" class="st0" d="M71.65,40.36c-1.39,0.2-2.65-0.91-2.59-2.35l-0.17-6.57c0.05-1.19-0.47-2.33-1.39-3.09h0 c-0.36-0.3-1.04-0.51-1.56-0.65c-1.8-0.49-3.77-0.02-5.09,1.3l-0.27,0.27c-0.5-0.83-1-1.3-2.02-1.46l-1.08-0.15 c-0.21-0.03-0.39,0.13-0.39,0.34l0.09,6.71c0.02,1.33,0.1,2.63-0.7,3.69c-0.31,0.41-0.83,0.64-1.33,0.53 c-0.65-0.14-1.04-0.74-1.02-1.37l-0.14-8.33c0.04-0.85-0.63-1.52-1.48-1.49c-0.88,0.03-1.52,0.47-2.05,1.27 c-0.53,0.8-2.12,1.48-2.8,1.48c0,0,0.03-0.71-0.01-1.77c-0.06-1.59-1.59-2.71-2.99-1.97c-1.59,0.85-1.67,3.05-0.2,4.03 c0.55,0.36,1.15,0.6,1.78,0.71c0,0,0.07,4.23,0.06,5.18c-0.01,0.95-1.06,1.8-2.27,1.8s-1.45-1.17-1.48-2.12 c-0.03-0.96-0.18-5.88-0.18-5.88c-0.1-1.74-1.11-2.9-2.79-3.21l-0.95-0.18c-0.21-0.04-0.4,0.12-0.4,0.33c0,0,0.4,8.19,0.34,9.46 c-0.06,1.27-0.81,1.78-1.73,1.78c-0.92,0-1.67-0.61-1.71-1.58c0,0-0.1-4.43-0.1-5.84c0-1.42-0.13-3.12-1.66-3.74 c-0.76-0.31-2.02-0.38-2.64-0.13l-0.84,0.34c-0.17,0.07-0.19,0.31-0.03,0.4l0.24,0.14c0.76,0.46,1.06,1.22,1.11,2.2 s-0.05,2.15-0.05,4.76c0,4.44,2.91,5.88,4.92,5.88s3.04-2.36,3.04-2.36s1.6,2.23,3.93,2.36c3.29,0.18,4.78-2.11,4.72-4.11 c-0.06-2-0.15-5.36-0.15-5.36c1.22,0,2.31-0.42,2.31-0.42s-0.42,2.97,0.01,5.55c0.53,3.13,2.19,4.34,3.95,4.34 c1.76,0,2.76-0.96,3.46-2.21l0.4-0.72l0.03,1.44c0,0.85,0.68,1.47,1.7,1.47s1.74-0.4,1.82-1.47l-0.23-8.33 c0.05-0.64,0.7-1.15,1.27-1.44c0.97-0.5,2.43,0.17,2.41,1.55l0.41,5.71c0,1.81,1.33,3.44,3.02,4.08 c1.18,0.45,2.49,0.42,3.65-0.08c0.2-0.08,0.29-0.31,0.2-0.5C71.96,40.43,71.81,40.34,71.65,40.36z M46.37,30.19 c-0.44-0.13-0.86-0.33-1.23-0.63c-0.48-0.39-0.52-1.14,0.01-1.44c0.58-0.32,1.16,0.22,1.23,0.8 C46.44,29.5,46.37,30.19,46.37,30.19z"></path> </g> </g> <g id="XMLID_387_"> <g id="XMLID_388_"> <path id="XMLID_389_" class="st0" d="M29.82,36.1c-0.14,0.04-0.17,1.01-0.86,2c-0.39,0.56-1.23,1.31-1.99,1.08 c-0.77-0.23-0.86-1.24-0.87-1.89c0-0.17-0.12-7.15-0.21-12.01c0.64-0.05,1.26-0.09,1.84-0.11c0.75-0.03,1.43-0.03,2.05-0.01 c0.62,0.02,1.16,0.04,1.61,0.05c0.49,0.02,0.87,0.03,1.11,0.04c0.2,0.01,0.3-0.04,0.32-0.08c0.02-0.05-0.09-0.11-0.3-0.18 c-0.23-0.08-0.58-0.2-1.04-0.34c-0.44-0.13-0.97-0.27-1.59-0.41c-0.61-0.14-1.34-0.27-2.12-0.34c-0.6-0.06-1.24-0.09-1.91-0.11 c-0.03-1.85-0.05-3.14-0.05-3.14c0-0.54-0.08-1.73-0.08-1.73c-0.03-1.47-1.19-2.67-2.67-2.74l-1.2-0.06 c-0.34-0.02-0.63,0.26-0.63,0.6c0,0,0.02,3.32,0.11,7.43c-0.65,0.14-1.3,0.32-1.96,0.57l-0.38,0.15 c-0.06,0.02-0.23,0.09-0.32,0.12c-0.16,0.05-0.37,0.1-0.57,0.12c-0.4,0.04-0.83-0.02-1.24-0.16c-0.07-0.02-0.13-0.06-0.2-0.09 c0.1-0.09,0.2-0.18,0.3-0.28c0.21-0.24,0.33-0.44,0.45-0.72c0.1-0.27,0.2-0.63,0.04-1.03c-0.16-0.41-0.56-0.63-0.87-0.71 c-0.15-0.05-0.36-0.06-0.46-0.07c-0.17-0.01-0.32,0-0.48,0.03c-0.63,0.1-1.3,0.56-1.5,1.31c-0.1,0.37-0.05,0.8,0.13,1.14 c0.04,0.09,0.1,0.17,0.15,0.24c0.04,0.06,0.15,0.18,0.18,0.21c0.05,0.04,0.08,0.08,0.12,0.11c-0.52,0.21-1.05,0.34-1.56,0.38 c-0.36,0.03-0.7,0.01-1.01-0.07c-0.15-0.04-0.3-0.09-0.43-0.15c-0.08-0.04-0.15-0.07-0.23-0.1c-0.07-0.03-0.17-0.06-0.25-0.09 c-0.66-0.21-1.26-0.11-1.69,0.01c-0.44,0.13-0.77,0.27-0.99,0.35c-0.1,0.04-0.18,0.07-0.24,0.09c-0.07,0.03-0.01,0.18,0.07,0.16 c0.06-0.02,0.13-0.04,0.23-0.06c0.23-0.06,0.57-0.17,0.99-0.26c0.42-0.08,0.96-0.11,1.49,0.1c0.06,0.03,0.12,0.05,0.19,0.09 c0.07,0.04,0.14,0.08,0.21,0.11c0.16,0.09,0.33,0.17,0.51,0.23c0.36,0.12,0.76,0.17,1.17,0.17c0.7-0.01,1.44-0.16,2.18-0.45 c0.32,0.22,0.66,0.41,1.03,0.56c0.54,0.22,1.15,0.36,1.76,0.34c0.31,0,0.6-0.05,0.94-0.13c0.16-0.04,0.22-0.06,0.4-0.12 l0.33-0.1c0.49-0.14,1-0.25,1.51-0.34c0.16,5.87,0.64,12.5,1.12,13.55c0.56,1.24,1.99,1.74,3.05,1.73 c0.92,0,2.45-0.36,3.52-1.59c0.44-0.51,0.77-1.15,0.95-1.8C30.15,37.3,30.3,35.96,29.82,36.1z M15.88,23.06 c0.08-0.02,0.18-0.03,0.25-0.03c0.15,0,0.18,0,0.27,0.02c0.16,0.03,0.23,0.08,0.25,0.13c0.03,0.05,0.04,0.19-0.02,0.36 c-0.05,0.16-0.17,0.37-0.26,0.48c-0.12,0.15-0.28,0.29-0.45,0.42c-0.07-0.04-0.14-0.08-0.2-0.13c-0.09-0.06-0.2-0.15-0.26-0.2 l-0.03-0.03l-0.01-0.01c-0.01-0.01-0.02-0.01-0.03-0.03c-0.02-0.02-0.04-0.05-0.06-0.08c-0.06-0.1-0.09-0.21-0.07-0.33 C15.3,23.38,15.55,23.13,15.88,23.06z"></path> </g> </g> <g id="XMLID_379_"> <g id="XMLID_380_"> <path id="XMLID_381_" class="st0" d="M111.65,47.34c0-0.27-0.06-0.7-0.22-1.21c-0.16-0.51-0.46-1.1-0.96-1.67 c-0.43-0.48-1.02-0.94-1.75-1.23c-0.03-0.25-0.07-0.49-0.16-0.73c-0.19-0.61-0.52-1.2-0.96-1.7c-0.87-0.99-2.21-1.62-3.59-1.62 c-0.03,0-0.07,0-0.1,0l0.05-6.83c0.03-2.32-1.65-4.51-3.85-4.51c-1.1,0-1.82,0.75-1.82,1.75l0.01,7.96 c-0.09,2.21-2.12,1.89-2.08,0.69l0.11-7.9c0.02-0.34-0.14-1.04-0.38-1.35c-0.55-0.68-1.24-1.07-2.11-1.16l-0.69-0.07 c-0.26-0.03-0.48,0.18-0.47,0.44c0,0,0.07,3.36,0.13,5.9c0.03,1.41-0.47,2.77-1.4,3.82c-0.45,0.5-1.41,1.36-2.16,1.13 c-0.76-0.22-1.11-1.38-1.13-2.03c-0.18-2.79-0.23-6.37-0.23-6.37c3.99-1.61,6.52-6.75,4.93-10.77v0 c-0.38-0.97-1.16-1.73-2.14-2.09c-3.71-1.36-7.16,0.89-7.16,5.17c0,2.15,0.16,8.97,0.35,12.39c0.16,2.92-0.95,4.23-2.75,4.16 c-1.4-0.05-2.63-3.27-2.63-3.92c1.09-0.99,1.97-2.31,2.58-3.47c0.61-1.16,0.86-2.46,0.86-3.42c0-0.74-0.18-1.33-0.55-1.77 c-0.37-0.44-0.91-0.66-1.63-0.66c-1.35,0-2.4,1.53-3.17,4.59l-0.25-10.36c-0.03-1.46-1.34-2.74-2.79-2.81l-1-0.05 c-0.34-0.02-0.8,0.26-0.8,0.6l0.65,21.15c0,0.87,0.7,1.46,1.56,1.46h0.8c0.8,0,1.54-0.32,1.92-1.02c0.28-0.52,0.5-0.95,0.78-1.9 c0,0.06,1.22,3.1,3.4,3.1c2.62,0,3.51-2.55,3.51-2.51s0.3,0.7,0.39,0.83c0.31,0.47,1.25,1.71,3,1.71c2.3,0,3.37-1.19,3.83-1.7 c0.5-0.55,0.95-1.16,1.33-1.76c0,0.09,0,0.06,0.01,0.13c0.04,1.75,1.5,3.12,3.25,3.12h0.2c1.77,0,3.39-1.19,3.64-2.95 l-0.02,2.52c-0.39,0.31-0.99,0.73-2.05,2.15c-3.4,4.6-1.73,9.72-0.71,10.83c0.66,0.71,2.16,1.25,3.87,0.28 c1.71-0.97,2.71-3.59,2.71-6.52c0-2.94,0.09-6.61,0.09-6.61c0.05,0,0.1-0.01,0.15-0.01c0.98-0.06,1.99,0.33,2.69,1.05 c0.37,0.37,0.65,0.83,0.82,1.31c0,0,0,0,0,0c-0.22-0.03-0.4-0.07-0.74,0.01c-0.63,0.15-1.12,0.79-1.07,1.51 c0.02,0.35,0.21,0.71,0.43,0.93c0.28,0.29,0.64,0.42,1.03,0.44c0.38,0.01,0.76-0.13,1.05-0.39c0.29-0.27,0.49-0.65,0.5-1.07 l0.02-0.42c0-0.02,0-0.04,0-0.06c0.55,0.22,1.01,0.54,1.37,0.89c0.49,0.48,0.81,1,1,1.46c0.18,0.47,0.27,0.84,0.3,1.12 c0.02,0.13,0.03,0.22,0.03,0.29c0.01,0.08,0.05,0.12,0.09,0.12c0.05,0,0.09-0.04,0.09-0.11 C111.66,47.59,111.65,47.47,111.65,47.34z M78.27,33.11c0.16-1.31,0.4-2.12,0.57-2.73c0.17-0.62,0.53-0.92,0.9-0.92 c0.35,0,0.52,0.2,0.52,0.59c0,0.41-0.09,0.93-0.43,1.67c-0.6,1.35-1.71,2.45-1.71,2.45L78.27,33.11z M87.75,23.87 c0-1.08,0.57-2.08,1.5-2.63l0.1-0.06c0.85-0.49,1.91-0.06,2.15,0.87l0.02,0.08c0.57,2.18-0.75,5.54-3.63,7.5L87.75,23.87z M100.18,44.1c0.01,2.22-0.1,5-1.32,6.86c-0.4,0.61-1.13,0.93-1.44-0.61c-0.72-3.6,0.39-6.11,2.77-8.45 C100.19,41.9,100.18,43.26,100.18,44.1z M107.44,44.9c-0.15,0.01-0.32-0.05-0.4-0.13c-0.15-0.14-0.21-0.25-0.25-0.41 c-0.05-0.31,0.16-0.65,0.46-0.75c0.03-0.01,0.06-0.02,0.09-0.03l0.15-0.01c0.11,0.01,0.22,0.01,0.32,0.02 c0.05,0.01,0.11,0.01,0.16,0.02c0.01,0.1,0.03,0.18,0.04,0.3l0,0.42C108.02,44.62,107.76,44.89,107.44,44.9z"></path> </g> </g> </g> <path class="st0" d="M107.86,27.83h-0.45v-2.24h-0.76V25.2h1.98v0.39h-0.77V27.83z M110.04,27.83l-0.73-2.03h-0.03l0.02,0.47v1.56 h-0.43V25.2h0.68l0.71,2.03L111,25.2h0.65v2.62h-0.46V26.3l0.02-0.5h-0.03l-0.77,2.03H110.04z"></path> <path id="XMLID_11_" class="st0" d="M59.97,15.43c-0.3-0.76-1.11-1.05-1.85-1.18c-0.86-0.15-1.75-0.15-2.6,0.08 c-0.21-1.11-0.64-2.2-1.35-3.09c-0.11-0.13-0.79-0.86-0.94-0.86c-0.09,0-0.52,0.6-0.7,0.85c-0.29,0.42-0.55,0.86-0.75,1.33 c-0.1,0.23-0.23,0.62-0.29,0.87c-0.04,0.16-0.16,0.51,0,0.54c0.18,0.03,0.23-0.12,0.27-0.34c0.06-0.33,0.2-0.61,0.35-0.91 c0.27-0.55,0.65-1.04,1.08-1.49c0.64,0.74,1.02,1.69,1.19,2.65c0.04,0.25,0.08,0.5,0.09,0.75c0.01,0.21-0.02,0.47,0.04,0.68 c0.14,0.45,0.53,0.4,0.87,0.3c0.83-0.26,2.05-0.13,2.85,0.21c0.42,0.18,0.03,0.51-0.17,0.72c-0.36,0.38-0.77,0.69-1.18,1.01 c-0.36,0.27-0.76,0.51-1.1,0.8c-0.41,0.35-0.26,0.75-0.17,1.19c0.14,0.72,0.3,1.57,0.3,2.29c0,0.16-0.14,0.04-0.21-0.02 c-0.26-0.2-0.5-0.44-0.72-0.68c-0.32-0.33-0.62-0.68-0.9-1.04c-0.28-0.36-0.56-0.7-1.03-0.79c-0.72-0.13-1.36,0.53-1.91,0.91 c-0.24,0.17-0.56,0.4-0.84,0.49c-0.04-0.11,0.1-0.54,0.29-1.08c0.19-0.55,0.52-1,0.29-1.5c-0.23-0.53-0.82-0.85-1.26-1.19 c-0.59-0.45-1.15-0.94-1.65-1.49c0.96-0.38,2.01-0.37,2.99-0.05c0.46,0.15,0.91,0.35,1.33,0.59c0.2,0.12,0.47,0.35,0.61,0.25 c0.17-0.12-0.07-0.38-0.33-0.68c-1.31-1.52-3.09-2.33-5.11-1.96c-0.74,0.13-1.58,0.41-2.01,1.07c-0.4,0.63,0.01,1.3,0.35,1.86 c0.5,0.84,1.16,1.72,1.85,2.41c-0.21,0.51-0.36,1.13-0.42,1.39c-0.11,0.54-0.17,1.1-0.19,1.66c-0.02,0.49,0,1,0.06,1.48 c0.08,0.82,0.84,1.43,1.65,1.34c0.51-0.05,1.63-0.69,2.11-0.97c0.78-0.46,1.72-1.31,1.79-1.37c0.44,0.45,1.12,0.99,1.67,1.31 c1.15,0.66,2.02,0.95,2.43,0.98c0.86,0.05,1-0.55,1.16-1.33c0.28-1.37,0.16-2.58-0.27-3.91c-0.06-0.19,0.2-0.31,0.33-0.44 c0.19-0.17,0.38-0.35,0.57-0.53c0.3-0.29,0.6-0.58,0.85-0.91C59.89,17,60.29,16.19,59.97,15.43C59.83,15.06,60.13,15.8,59.97,15.43 z"></path> </g> </svg> 