<?xml version="1.0" encoding="UTF-8"?> <svg xmlns="http://www.w3.org/2000/svg" xmlns:xlink="http://www.w3.org/1999/xlink" version="1.1" id="圖層_1" x="0px" y="0px" viewBox="0 0 120 60" style="enable-background:new 0 0 120 60;" xml:space="preserve"> <style type="text/css"> .st0{fill-rule:evenodd;clip-rule:evenodd;fill:#014FA2;} .st1{fill:none;} </style> <g> <path class="st0" d="M106.9,29.8l4.6-7.4h-6.1l-3.5,6.4v-6.4h-5.3v5.8c-0.1-0.5-0.2-0.9-0.4-1.4c-0.4-1-0.9-1.8-1.7-2.5 c-0.8-0.7-1.6-1.3-2.6-1.7c-1-0.4-2.1-0.6-3.2-0.6c-1.1,0-2.2,0.2-3.2,0.6c-0.7,0.3-1.3,0.6-1.9,1.1c-0.6-0.4-1.2-0.8-1.9-1.1 c-1-0.4-2.1-0.6-3.2-0.6h0c-1.1,0-2.2,0.2-3.1,0.6c-1,0.4-1.8,1-2.6,1.7c-0.8,0.7-1.3,1.6-1.7,2.5c-0.4,1-0.6,2-0.6,3.1 c0,0.5,0.1,1,0.1,1.4c-0.1-0.2-0.2-0.4-0.4-0.6c-0.5-0.6-1.3-1-2.3-1.2c0.8-0.2,1.3-0.5,1.7-1.1c0.4-0.5,0.6-1.2,0.6-2.1 c0-1.3-0.4-2.3-1.3-3c-0.9-0.7-2.1-1.1-3.6-1.1h-7.2V35l-4.4-12.6h-6l-4.3,12.2l-2.1-3.2c0.9-0.1,1.6-0.5,2.1-1.2 c0.5-0.7,0.8-1.6,0.8-2.7c0-1.6-0.5-2.9-1.6-3.8c-1-0.9-2.5-1.3-4.5-1.3h-8.1v8.2c0,0.9-0.1,1.6-0.3,1.9c-0.3,0.4-0.6,0.5-1.2,0.5 c-0.6,0-0.9-0.2-1.2-0.5c-0.2-0.4-0.4-1-0.4-2v-8.2h-5.4V27c-0.1-0.3-0.3-0.6-0.5-0.9c-0.7-1.1-1.7-2-3-2.7 c-0.6-0.3-1.4-0.6-2.4-0.7c-0.3-0.1-0.7-0.1-1.1-0.1c-0.7-0.1-1.5-0.1-2.4-0.1H7.9v15.1h4c1.1,0,2,0,2.8-0.1c0.4,0,0.8-0.1,1.1-0.1 c1-0.1,1.8-0.4,2.4-0.7c1.3-0.7,2.3-1.6,3-2.7c0.2-0.4,0.4-0.8,0.6-1.2c0,0.2,0.1,0.4,0.1,0.6c0.1,0.7,0.4,1.3,0.7,1.7 c0.6,0.9,1.4,1.7,2.5,2.2c1,0.5,2.2,0.8,3.6,0.8c1.3,0,2.5-0.3,3.6-0.8c1-0.5,1.9-1.2,2.5-2.2c0.3-0.5,0.5-1,0.7-1.8 c0.1-0.7,0.2-1.6,0.2-2.6v-4.3h2.3c0.5,0,0.9,0.1,1.2,0.4c0.3,0.3,0.4,0.6,0.4,1.1c0,0.5-0.1,0.8-0.4,1.1c-0.3,0.3-0.7,0.4-1.2,0.4 h-1.1v3.4l2.6,4.8h8.9l0.5-1.9l0.9-3.6l0.5-1.7c0.2-0.9,0.4-1.5,0.5-2c0.1-0.5,0.1-0.9,0.1-1.3h0.1c0,0.4,0.1,0.9,0.1,1.3 c0.1,0.5,0.2,1.1,0.5,2l0.5,1.7l0.9,3.6l0.5,1.9h12.2c1.8,0,3.2-0.4,4.2-1.1c0.9-0.7,1.4-1.8,1.4-3.2c0-0.1,0-0.3,0-0.4 c0,0.1,0,0.2,0.1,0.3c0.4,0.9,0.9,1.8,1.7,2.5c0.8,0.8,1.6,1.3,2.6,1.7c1,0.4,2,0.6,3.1,0.6h0c1.1,0,2.2-0.2,3.1-0.6 c0.7-0.3,1.3-0.6,1.9-1.1c0.6,0.4,1.2,0.8,1.9,1.1c1,0.4,2,0.6,3.1,0.6s2.2-0.2,3.1-0.6c1-0.4,1.9-1,2.6-1.7 c0.8-0.7,1.3-1.6,1.7-2.5c0.2-0.4,0.3-0.9,0.4-1.4v5.8h5.3v-6.3l3.7,6.3h6.6L106.9,29.8z M15.9,32.1c-0.3,0.3-0.7,0.4-1.2,0.5 c-0.5,0.1-1.2,0.2-2.1,0.2V27h0.9c0.5,0,0.9,0,1.2,0.1c0.5,0.1,0.9,0.3,1.3,0.6c0.5,0.5,0.8,1.2,0.8,2.2 C16.7,31,16.5,31.7,15.9,32.1 M62.5,25.6h1.9c0.5,0,0.9,0.1,1.2,0.3c0.3,0.2,0.4,0.5,0.4,0.9c0,0.4-0.1,0.7-0.4,0.9 c-0.2,0.2-0.6,0.3-1.2,0.3h-1.9V25.6z M66.1,33.7c-0.3,0.3-0.8,0.4-1.4,0.4h-2.2v-2.8h2.2c0.6,0,1.1,0.1,1.4,0.4 c0.3,0.3,0.5,0.6,0.5,1C66.6,33.1,66.4,33.4,66.1,33.7 M78.6,33c-1.5,0-2.7-1.3-2.7-3c0-1.7,1.2-3,2.7-3c1.5,0,2.7,1.3,2.7,3 C81.2,31.6,80,33,78.6,33 M88.7,33c-1.5,0-2.7-1.3-2.7-3c0-1.7,1.2-3,2.7-3c1.5,0,2.7,1.3,2.7,3C91.4,31.6,90.2,33,88.7,33"></path> </g> <rect x="-16.5" y="-185.7" class="st1" width="210" height="148.5"></rect> </svg> 