<?xml version="1.0" encoding="UTF-8"?> <svg xmlns="http://www.w3.org/2000/svg" xmlns:xlink="http://www.w3.org/1999/xlink" version="1.1" id="Layer_1" x="0px" y="0px" viewBox="0 0 120 60" style="enable-background:new 0 0 120 60;" xml:space="preserve"> <style type="text/css"> .st0{fill:#5BB133;} </style> <g> <path class="st0" d="M20.6,29.7c0.4,0,0.8-0.3,0.8-0.8v0c0-0.4-0.3-0.8-0.8-0.8h-3.5c-0.4,0-0.8,0.3-0.8,0.8v0 c0,0.4,0.3,0.8,0.8,0.8H20.6z M25.8,34.2h-8.2c-0.5,0-0.8,0.4-0.8,0.9c0.1,0.4,0.4,0.6,0.8,0.6h5.4c0.4,0,0.8,0.3,0.8,0.8v0 c0,0.4-0.3,0.8-0.8,0.8h-2.3c-0.4,0-0.7,0.3-0.8,0.6c-0.1,0.5,0.3,0.9,0.8,0.9H25l0,0h0.1c0.2,0,0.4-0.1,0.4-0.3l0.7-3.8 C26.2,34.4,26,34.2,25.8,34.2z M92.8,22c-2.2,0-4.2,0.6-5.9,1.6c-0.3,0.2-0.7-0.1-0.7-0.4v-0.3c0-0.2-0.2-0.3-0.3-0.3h-5.5 c-0.1,0-0.3,0.1-0.3,0.2l-4.4,8.3c-0.2,0.3-0.7,0.3-0.7-0.1l-1.2-8.1c0-0.2-0.2-0.3-0.4-0.3H61.9c-0.2,0-0.4,0.1-0.4,0.3l-1.7,8.7 c-0.3,1.7-1.5,2.7-3.1,2.7c-1.6,0-2.4-1-2.1-2.7l1.6-8.5c0-0.2-0.1-0.5-0.4-0.5h-5.2c-0.2,0-0.4,0.1-0.4,0.3l-0.5,2.5 c-0.1,0.4-0.6,0.4-0.7,0.1c-1-2.1-3.4-3.4-6.8-3.4c-2.1,0-4.1,0.5-5.7,1.4c-0.1,0.1-0.3,0.1-0.4,0c-1.2-0.9-2.9-1.4-4.9-1.4 c0,0,0,0-0.1,0h-8.3c-0.4,0-0.7,0.3-0.8,0.6c-0.1,0.5,0.3,0.9,0.8,0.9h1.6c0.4,0,0.7,0.3,0.8,0.6c0.1,0.5-0.3,0.9-0.8,0.9h-6.8 c-0.4,0-0.7,0.3-0.8,0.6c-0.1,0.5,0.3,0.9,0.8,0.9h8.6c0.4,0,0.7,0.3,0.8,0.6c0.1,0.5-0.3,0.9-0.8,0.9h-3c-0.4,0-0.8,0.3-0.8,0.8v0 c0,0.4,0.3,0.8,0.8,0.8h0.8c0.4,0,0.7,0.3,0.8,0.6c0.1,0.5-0.3,0.9-0.8,0.9h-4.8c-0.4,0-0.7,0.3-0.8,0.6c-0.1,0.5,0.3,0.9,0.8,0.9 h6.7c0.2,0,0.3-0.1,0.4-0.3l0.5-2.6c0.3-1.7,1.5-2.7,3.1-2.7c1.6,0,2.4,1,2.1,2.7l0,0l-1.6,8.6c0,0.2,0.1,0.5,0.4,0.5h5.2 c0.2,0,0.4-0.1,0.4-0.3l1.7-8.7c0.3-1.7,1.5-2.7,3.1-2.7c1.6,0,2.4,1,2.1,2.7l-1.6,8.5c0,0.2,0.1,0.5,0.4,0.5h5.2 c0.2,0,0.4-0.1,0.4-0.3l0.5-2.5c0.1-0.4,0.6-0.4,0.7-0.1c1,2.1,3.4,3.4,6.8,3.4c5.2,0,9.2-3,10-7.5l1.1-5.9c0.1-0.4,0.7-0.4,0.8,0 l3.1,12.6c0,0.2,0.2,0.3,0.4,0.3h4.9c0.1,0,0.3-0.1,0.3-0.2l5.3-8.5c0,0.2-0.1,0.4-0.1,0.5c-0.9,5,2.4,8.7,7.8,8.7 c4.1,0,7.9-2.1,9.9-5.4c0.2-0.3,0-0.6-0.3-0.6H94c-0.1,0-0.2,0-0.3,0.1c-0.8,0.9-2,1.4-3.3,1.4c-1.7,0-2.8-0.8-3-2.4 c0-0.2,0.2-0.4,0.4-0.4H100c0.2,0,0.3-0.1,0.4-0.3c0.1-0.4,0.2-0.8,0.3-1.2l0,0C101.6,25.8,98.4,22,92.8,22z M94.6,28.9h-5.9 c-0.3,0-0.5-0.4-0.3-0.6c0.8-1.2,2.1-1.9,3.6-1.9c1.6,0,2.7,0.7,3,2C95.1,28.7,94.9,28.9,94.6,28.9z M18.7,23.6h1.5 c0.4,0,0.8-0.3,0.8-0.8v0c0-0.4-0.3-0.8-0.8-0.8h-1.5c-0.4,0-0.8,0.3-0.8,0.8v0C17.9,23.2,18.3,23.6,18.7,23.6z"></path> <g> <path class="st0" d="M100.9,22c0-0.8,0.6-1.4,1.4-1.4c0.7,0,1.4,0.6,1.4,1.4c0,0.8-0.6,1.4-1.4,1.4 C101.5,23.4,100.9,22.9,100.9,22z M103.3,22c0-0.7-0.5-1.1-1.1-1.1s-1.1,0.5-1.1,1.1c0,0.7,0.5,1.1,1.1,1.1S103.3,22.7,103.3,22z M101.7,21.3h0.6c0.3,0,0.6,0.1,0.6,0.5c0,0.2-0.1,0.3-0.3,0.4l0.3,0.6h-0.3l-0.3-0.5H102v0.5h-0.3V21.3z M102.2,22 c0.2,0,0.3-0.1,0.3-0.2c0-0.1-0.1-0.2-0.3-0.2H102V22H102.2z"></path> </g> </g> </svg> 