<?xml version="1.0" encoding="UTF-8"?> <svg xmlns="http://www.w3.org/2000/svg" xmlns:xlink="http://www.w3.org/1999/xlink" version="1.1" id="图层_1" x="0px" y="0px" viewBox="0 0 120 60" style="enable-background:new 0 0 120 60;" xml:space="preserve"> <g> <path d="M41.7,20.7c0,0.3,0.3,0.6,0.6,0.6h5c0.3,0,0.6-0.3,0.6-0.6l0-7.6c0-1.9,0.9-2.7,2.8-2.7h3.4h23.6c0.2,0,0.3-0.1,0.4-0.2 c0.1-0.1,0.2-0.3,0.2-0.4l-0.1-4.3c0-0.3-0.3-0.6-0.6-0.6H60h-8.9c-3.1,0-5.4,0.6-7,1.7c-1.6,1.2-2.5,3-2.5,5.3v0l0.1,2.2V20.7z"></path> <path d="M78.3,15.6c0-0.3-0.3-0.6-0.6-0.6h-5.1c-0.3,0-0.6,0.3-0.6,0.6v7.5c0,1.9-0.9,2.7-2.8,2.7h-3.4H42.3 c-0.2,0-0.3,0.1-0.4,0.2c-0.1,0.1-0.2,0.3-0.2,0.4l0.1,4.3c0,0.3,0.3,0.6,0.6,0.6H60h8.9c3.1,0,5.4-0.6,7-1.7 c1.6-1.2,2.5-3,2.5-5.3v0l0-2.2V15.6z"></path> <g> <path d="M49.4,41.6c-0.1-0.2-0.3-0.4-0.4-0.5c-0.2-0.1-0.4-0.3-0.7-0.3c-0.3-0.1-0.5-0.1-0.8-0.1h-0.6c-0.2,0-0.4,0-0.5-0.1 c-0.2-0.1-0.3-0.1-0.4-0.2c-0.1-0.1-0.2-0.2-0.3-0.3c-0.1-0.1-0.1-0.3-0.1-0.4c0-0.3,0.1-0.5,0.4-0.7c0.3-0.2,0.6-0.3,0.9-0.3 c0.4,0,0.8,0.1,1.1,0.2c0.3,0.1,0.6,0.3,0.9,0.4c0,0,0.1,0,0.1,0c0.1,0,0.1,0,0.1,0l0.3-0.2c0.1-0.1,0.1-0.1,0-0.2 c-0.3-0.2-0.7-0.4-1.1-0.5c-0.4-0.1-0.9-0.2-1.4-0.2c-0.3,0-0.5,0-0.8,0.1c-0.3,0.1-0.5,0.2-0.7,0.3c-0.2,0.1-0.3,0.3-0.4,0.5 c-0.1,0.2-0.2,0.4-0.2,0.6c0,0.2,0.1,0.4,0.2,0.6c0.1,0.2,0.3,0.4,0.4,0.5c0.2,0.1,0.4,0.3,0.7,0.3c0.2,0.1,0.5,0.1,0.8,0.1h0.6 c0.4,0,0.7,0.1,0.9,0.3c0.3,0.2,0.4,0.4,0.4,0.7c0,0.1,0,0.3-0.1,0.4c-0.1,0.1-0.2,0.2-0.3,0.3c-0.1,0.1-0.3,0.2-0.4,0.2 c-0.2,0.1-0.3,0.1-0.5,0.1c-0.4,0-0.8-0.1-1.1-0.2c-0.3-0.1-0.6-0.3-0.9-0.4c0,0-0.1,0-0.1,0c-0.1,0-0.1,0-0.1,0L45,42.9 C45,42.9,45,43,45,43c0.3,0.2,0.7,0.4,1.1,0.5c0.4,0.1,0.9,0.2,1.4,0.2c0.3,0,0.5-0.1,0.8-0.1c0.2-0.1,0.5-0.2,0.7-0.3 c0.2-0.1,0.3-0.3,0.5-0.6c0.1-0.2,0.2-0.4,0.2-0.5C49.6,42,49.5,41.7,49.4,41.6"></path> <path d="M51.7,38.1v3.8c0,0.2,0,0.4,0.1,0.5c0.1,0.2,0.2,0.3,0.4,0.4c0.2,0.1,0.3,0.2,0.5,0.3c0.2,0.1,0.4,0.1,0.7,0.1 c0.2,0,0.5,0,0.7-0.1c0.2-0.1,0.4-0.2,0.6-0.3c0.2-0.1,0.3-0.3,0.4-0.4c0.1-0.2,0.1-0.3,0.1-0.5v-3.8c0-0.1,0-0.1,0.1-0.1h0.5 c0.1,0,0.1,0,0.1,0.1v3.8c0,0.3-0.1,0.5-0.2,0.8c-0.1,0.2-0.3,0.4-0.5,0.6c-0.2,0.2-0.5,0.3-0.8,0.4c-0.3,0.1-0.6,0.1-1,0.1 c-0.3,0-0.7-0.1-1-0.2c-0.3-0.1-0.6-0.2-0.8-0.4c-0.2-0.2-0.4-0.4-0.5-0.6c-0.1-0.2-0.2-0.5-0.2-0.8v-3.8c0-0.1,0-0.1,0.1-0.1h0.5 C51.7,38,51.7,38,51.7,38.1"></path> <path d="M59.9,38c0.3,0,0.7,0.1,1,0.1c0.3,0.1,0.6,0.2,0.8,0.4c0.2,0.2,0.4,0.4,0.5,0.6c0.1,0.2,0.2,0.5,0.2,0.8 c0,0.3-0.1,0.5-0.2,0.8c-0.1,0.2-0.3,0.4-0.5,0.6c-0.2,0.2-0.5,0.3-0.8,0.4c-0.3,0.1-0.6,0.1-1,0.1h-1.6c-0.1,0-0.1,0-0.1,0.1v0 v1.7c0,0.1,0,0.1-0.1,0.1h-0.5c-0.1,0-0.1,0-0.1-0.1v-5.6c0-0.1,0-0.1,0.1-0.1H59.9z M58.1,41.2c0,0.1,0,0.1,0.1,0.1h1.6 c0.2,0,0.5,0,0.7-0.1c0.2-0.1,0.4-0.2,0.6-0.3c0.2-0.1,0.3-0.3,0.4-0.4c0.1-0.2,0.1-0.3,0.1-0.5c0-0.2,0-0.4-0.1-0.5 c-0.1-0.2-0.2-0.3-0.4-0.4c-0.2-0.1-0.3-0.2-0.6-0.3c-0.2-0.1-0.4-0.1-0.7-0.1h-1.6c-0.1,0-0.1,0-0.1,0.1V41.2z"></path> <path d="M64.5,43.1c0,0.1,0,0.1,0.1,0.1h4c0.1,0,0.1,0,0.1,0.1v0.4c0,0.1,0,0.1-0.1,0.1h-4.7c-0.1,0-0.1,0-0.1-0.1V38 c0-0.1,0-0.1,0.1-0.1h4.7c0.1,0,0.1,0,0.1,0.1v0.4c0,0.1,0,0.1-0.1,0.1h-4c-0.1,0-0.1,0-0.1,0.1v1.9c0,0.1,0,0.1,0.1,0.1h2.7 c0.1,0,0.1,0,0.1,0.1v0.4c0,0.1,0,0.1-0.1,0.1h-2.7c-0.1,0-0.1,0-0.1,0.1V43.1z"></path> <path d="M72.7,38c0.3,0,0.7,0.1,1,0.2c0.3,0.1,0.6,0.2,0.8,0.4c0.2,0.2,0.4,0.4,0.5,0.6c0.1,0.2,0.2,0.5,0.2,0.8 c0,0.3-0.1,0.5-0.2,0.8c-0.1,0.2-0.3,0.4-0.5,0.6c-0.2,0.2-0.5,0.3-0.7,0.4c0.4,0.2,0.8,0.5,1,0.9c0.3,0.3,0.4,0.7,0.4,1.2 c0,0.1,0,0.1-0.1,0.1h-0.5c-0.1,0-0.1,0-0.1-0.1c0-0.3-0.1-0.5-0.2-0.7c-0.1-0.2-0.3-0.4-0.5-0.6c-0.2-0.1-0.4-0.2-0.6-0.3 c-0.1,0-0.1,0-0.2-0.1c-0.3-0.1-0.6-0.1-0.9-0.1H71c-0.1,0-0.1,0-0.1,0.1v1.8c0,0.1,0,0.1-0.1,0.1h-0.5c-0.1,0-0.1,0-0.1-0.1v-5.6 c0-0.1,0-0.1,0.1-0.1H72.7z M71,41.3h1.6c0.2,0,0.5,0,0.7-0.1c0.2-0.1,0.4-0.2,0.6-0.3c0.2-0.1,0.3-0.3,0.4-0.4 c0.1-0.1,0.1-0.2,0.1-0.3v0v0v0c0-0.1,0-0.1,0-0.2c0-0.2,0-0.4-0.1-0.5c-0.1-0.2-0.2-0.3-0.4-0.4c-0.2-0.1-0.3-0.2-0.6-0.3 c-0.2-0.1-0.4-0.1-0.7-0.1H71c-0.1,0-0.1,0-0.1,0.1v2.6C70.9,41.2,71,41.3,71,41.3"></path> </g> <g> <path d="M41.2,55.1c2.2,0,3.2-0.7,3.2-2l0-0.7v-1.9l-11,0l0-1c0-0.7,0.4-1,1.2-1h1.3h8.6l0-1.3h-5.7h-3.9c-2.2,0-3.2,0.7-3.2,2 l0,0.7v1.9h1.8v0h9.2v1c0,0.7-0.4,1-1.2,1h-1.3h-8.6l0,1.3h7.2H41.2z"></path> <path d="M59.3,51.1c0-2.6-2.4-3.9-6.5-3.9c-4,0-6.4,1.3-6.4,3.9c0,2.6,2.4,3.9,6.5,3.9C56.9,55,59.3,53.7,59.3,51.1z M48.1,51.1 c0-1.7,1.8-2.6,4.7-2.6c2.9,0,4.7,0.9,4.7,2.6c0,1.7-1.8,2.6-4.7,2.6C50,53.7,48.1,52.8,48.1,51.1z"></path> <path d="M88.5,51.1c0-2.6-2.4-3.9-6.5-3.9c-4,0-6.4,1.3-6.4,3.9c0,2.6,2.4,3.9,6.5,3.9C86.1,55,88.5,53.7,88.5,51.1z M77.3,51.1 c0-1.7,1.8-2.6,4.7-2.6c2.9,0,4.7,0.9,4.7,2.6c0,1.7-1.8,2.6-4.7,2.6C79.1,53.7,77.3,52.8,77.3,51.1z"></path> <path d="M67.3,55l6.3,0v-1.3h-6.3c-2.8,0-4.2-0.9-4.2-2.6c0-1.7,1.4-2.6,4.3-2.6l3.9,0h2.5v-0.3v-1h-6.4c-3.9,0-5.9,1.3-5.9,3.9 C61.3,53.7,63.3,55,67.3,55z"></path> </g> </g> </svg> 