<?xml version="1.0" encoding="UTF-8"?> <svg xmlns="http://www.w3.org/2000/svg" xmlns:xlink="http://www.w3.org/1999/xlink" version="1.1" id="Ebene_1" x="0px" y="0px" viewBox="0 0 120 60" style="enable-background:new 0 0 120 60;" xml:space="preserve"> <style type="text/css"> .st0{fill:#E4291B;} .st1{clip-path:url(#SVGID_00000025443734869498426090000011726446997677275039_);fill:#E4291B;} </style> <g> <polygon class="st0" points="15.3,21.4 24.1,21.4 24.1,25.7 19.8,25.7 19.8,27.7 24.1,27.7 24.1,31.7 19.8,31.7 19.8,33.7 24.1,33.7 24.1,38 15.3,38 "></polygon> <polygon class="st0" points="3,21.4 14.5,21.4 14.5,25.7 10.9,25.7 10.9,38 6.4,38 6.4,25.7 3,25.7 "></polygon> <polygon class="st0" points="25.5,21.4 30.1,21.4 30.1,33.7 34,33.7 34,38 25.5,38 "></polygon> <polygon class="st0" points="34.8,21.4 43.6,21.4 43.6,25.7 39.3,25.7 39.3,27.7 43.6,27.7 43.6,31.7 39.3,31.7 39.3,33.7 43.6,33.7 43.6,38 34.8,38 "></polygon> <polygon class="st0" points="81,21.4 85.6,21.4 85.6,27.9 88.5,21.4 93.2,21.4 89.6,29.5 93.5,38 88.5,38 85.6,31.4 85.6,38 81,38 "></polygon> <polygon class="st0" points="93.9,21.3 102.7,21.3 102.7,25.6 98.5,25.6 98.5,27.7 102.7,27.7 102.7,31.6 98.5,31.6 98.5,33.7 102.7,33.7 102.7,38 93.9,38 "></polygon> <polygon class="st0" points="104,21.4 108.1,21.4 111.1,29 111.1,21.4 115.4,21.4 115.4,38 111.4,38 108.3,30.4 108.3,38 104,38 "></polygon> <g> <defs> <rect id="SVGID_1_" x="3" y="21.3" width="118" height="17.3"></rect> </defs> <clipPath id="SVGID_00000140008956366208459850000006257083135758940302_"> <use xlink:href="#SVGID_1_" style="overflow:visible;"></use> </clipPath> <path style="clip-path:url(#SVGID_00000140008956366208459850000006257083135758940302_);fill:#E4291B;" d="M68.3,21.4V38h4.3 v-7.7l3.1,7.7h4V21.4h-4.3V29l-3-7.6H68.3z M55.1,21.4l0,13c0,5.7,11.8,5.7,11.8,0v-13h-4.6v12.1c0,1.7-2.7,1.7-2.7,0V21.4H55.1z M45.2,21.4H54v4.3h-4.3v2.1H54v3.9h-4.3l0,6.4h-4.6V21.4z"></path> </g> </g> </svg> 