<?xml version="1.0" encoding="UTF-8"?> <svg xmlns="http://www.w3.org/2000/svg" xmlns:xlink="http://www.w3.org/1999/xlink" version="1.1" id="Livello_1" x="0px" y="0px" viewBox="0 0 120 60" style="enable-background:new 0 0 120 60;" xml:space="preserve"> <g> <g> <path d="M21.7,25.5l-6.3,8.2c-0.3,0.4-1,0.4-1.3,0L5.9,23.1H2.1l9.8,12.7c1.4,1.8,4.3,1.8,5.7,0l9.8-12.7H9.7l1.9,2.4L21.7,25.5z"></path> <path d="M30.7,23.1l-10.9,14h2.6c0.8,0,1.5-0.3,1.9-0.9l10.2-13.1H30.7z"></path> </g> <g> <path d="M72.3,29.2C72.3,29.2,72.3,29.2,72.3,29.2l0,4.3c0,0,0,0,0,0c0,0,0,0-0.1,0h-1.4c0,0,0,0-0.1,0c0,0,0,0,0,0v-4.3 c0,0,0,0,0,0H72.3z"></path> <path d="M67.4,27.8c-0.2,0-0.3,0.1-0.5,0.2c-0.1,0.1-0.2,0.3-0.2,0.4v5.1c0,0,0,0,0,0c0,0,0,0,0,0h-1.4c0,0,0,0-0.1,0c0,0,0,0,0,0 v-4.9c0-0.5,0.2-1,0.7-1.4c0.4-0.4,1-0.6,1.6-0.6h2.8h0.6h1.6H73h2.8c0.6,0,1.1,0.2,1.6,0.6c0.4,0.4,0.7,0.9,0.7,1.4v4.9 c0,0,0,0,0,0c0,0,0,0-0.1,0h-1.4c0,0,0,0,0,0c0,0,0,0,0,0v-5.1c0-0.2-0.1-0.3-0.2-0.4c-0.1-0.1-0.3-0.2-0.5-0.2H67.4z"></path> <path d="M82.4,29.2C82.4,29.2,82.4,29.2,82.4,29.2l0,2.6c0,0.2,0.1,0.3,0.2,0.4c0.1,0.1,0.3,0.2,0.5,0.2h6.7 c0.2,0,0.4-0.1,0.5-0.2c0.1-0.1,0.2-0.3,0.2-0.4v-3.4c0-0.2-0.1-0.3-0.2-0.4c-0.1-0.1-0.3-0.2-0.5-0.2h-8.7c0,0,0,0,0,0 c0.1-0.2,0.3-0.4,0.5-0.6c0.4-0.4,1-0.6,1.6-0.6h6.6c0.6,0,1.1,0.2,1.6,0.6c0.4,0.4,0.7,0.9,0.7,1.4v3c0,0.6-0.2,1-0.7,1.4 c-0.4,0.4-1,0.6-1.6,0.6h-6.7c-0.6,0-1.1-0.2-1.6-0.6c-0.4-0.4-0.7-0.9-0.7-1.4v-2.3c0,0,0,0,0,0H82.4z"></path> <path d="M108.3,29.2C108.3,29.2,108.3,29.2,108.3,29.2l0,2.6c0,0.2,0.1,0.3,0.2,0.4c0.1,0.1,0.3,0.2,0.5,0.2h6.7 c0.2,0,0.4-0.1,0.5-0.2c0.1-0.1,0.2-0.3,0.2-0.4v-3.4c0-0.2-0.1-0.3-0.2-0.4c-0.1-0.1-0.3-0.2-0.5-0.2H107c0,0,0,0,0,0 c0.1-0.2,0.3-0.4,0.5-0.6c0.4-0.4,1-0.6,1.6-0.6h6.6c0.6,0,1.1,0.2,1.6,0.6c0.4,0.4,0.7,0.9,0.7,1.4v3c0,0.6-0.2,1-0.7,1.4 c-0.4,0.4-1,0.6-1.6,0.6H109c-0.6,0-1.1-0.2-1.6-0.6c-0.4-0.4-0.7-0.9-0.7-1.4v-2.3c0,0,0,0,0,0H108.3z"></path> <path d="M104,27.8h-9.2c0,0-0.1,0-0.1,0l-0.9-1.1h11.1l-0.9,1.1C104,27.8,104,27.8,104,27.8"></path> <path d="M100.1,33.6h-1.5c0,0-0.1,0-0.1,0v-4.3c0,0,0,0,0.1,0h1.5c0,0,0.1,0,0.1,0L100.1,33.6C100.2,33.6,100.1,33.6,100.1,33.6"></path> <path d="M60.5,27.8l-3.2,4.1c-0.2,0.2-0.5,0.2-0.7,0l-4.1-5.3h-1.9l4.9,6.3c0.7,0.9,2.1,0.9,2.8,0l4-5.1l0.9-1.2h-1.9L60.5,27.8z"></path> </g> <rect x="42.3" y="19.4" width="0.8" height="21.1"></rect> </g> </svg> 