<?xml version="1.0" encoding="UTF-8"?> <svg xmlns="http://www.w3.org/2000/svg" id="_图层_1" data-name="图层 1" viewBox="0 0 200 80"><defs><style> .cls-1 { fill: #f47920; } .cls-2 { fill: #636466; } </style></defs><g><path class="cls-1" d="m161.7,29.08c.8-.52,1.67-.92,2.6-1.2v10.54c-1.06,2.42-9.43,2.28-11.11,2.28s-10.05.14-11.11-2.28v-2.51c0-.64.33-1.24.87-1.59.8-.52,1.67-.92,2.6-1.2v3.84s.13.69,7.65.69,7.65-.69,7.65-.69v-6.3c0-.64.33-1.24.87-1.59m-8.51-9.32c-1.68,0-10.05-.14-11.11,2.28v10.54c.93-.28,1.8-.68,2.6-1.2.54-.35.87-.95.87-1.59v-6.3s0-.69,7.65-.69,7.65.69,7.65.69h0v3.84c.93-.28,1.8-.68,2.6-1.2.54-.35.87-.95.87-1.59v-2.51c-1.06-2.42-9.43-2.28-11.11-2.28"></path><path class="cls-1" d="m53.92,36.96s0,.69-7.49.69-7.49-.69-7.49-.69v-16.91h-3.46v18.36c1.06,2.42,9.27,2.28,10.96,2.28s9.89.14,10.96-2.28v-18.36h-3.46v16.91Z"></path><path class="cls-1" d="m189.1,20.05v15.94l-8.22-8.22-8.22,8.22v-15.94h-3.28v20.36h2.3c.55,0,1.09-.22,1.48-.61l7.71-7.71,7.71,7.71c.39.39.93.61,1.48.61h2.3v-20.36h-3.28Z"></path><path class="cls-1" d="m110.36,28.39h-9.18c-.64,0-1.24.33-1.59.87-.47.73-.83,1.52-1.08,2.37h9.48s.37.02.37,2.77c0,2.4-.37,2.4-.37,2.4h-15.01s-.63.02-.63-6.57.63-6.57.63-6.57h15.42c.7,0,1.36-.35,1.74-.94.53-.82.95-1.72,1.23-2.67h-20.21c-2.22.97-2.09,8.64-2.09,10.18s-.13,9.21,2.09,10.18h19.2c1.31-.57,1.23-5.1,1.23-6.01s.08-5.43-1.23-6.01"></path><path class="cls-1" d="m135.75,31.63c1.31-.57,1.23-4.88,1.23-5.79s.08-5.21-1.23-5.79h-19.29v3.61h16.91s.37,0,.37,2.18c0,2.55-.37,2.55-.37,2.55h-16.91v12.01h3.28v-8.78h5.49l8.17,8.17c.39.39.93.61,1.48.61h4.12l-8.78-8.78h5.53Z"></path><path class="cls-1" d="m26.33,28.39h0s-14.41,0-14.41,0c-1.04,0-1.04-1.04-1.04-1.04v-2.64s0-1.04,1.04-1.04h15.5c.7,0,1.37-.35,1.75-.94.53-.82.94-1.72,1.23-2.67H11.91c-4.29,0-4.29,3.73-4.29,3.73v4.12s0,3.73,4.29,3.73h14.41c1.04,0,1.04,1.04,1.04,1.04v3.08s0,1.04-1.04,1.04h-15.73c-.7,0-1.36.35-1.74.94-.53.82-.94,1.72-1.23,2.67h18.7c4.29,0,4.29-3.73,4.29-3.73v-4.56s0-3.73-4.29-3.73"></path><path class="cls-1" d="m81.24,35.73l-15.06-15.06c-.39-.39-.93-.61-1.48-.61h-2.22v20.36h3.46v-15.67l15.06,15.06c.39.39.93.61,1.48.61h2.22v-20.36h-3.46v15.67Z"></path></g><g><g><path class="cls-2" d="m36.22,56.82c-.78-.85-1.17-2-1.17-3.43s.39-2.56,1.17-3.4c.78-.84,1.82-1.27,3.14-1.27,1.02,0,1.89.28,2.63.85.73.56,1.16,1.29,1.29,2.18h-.41c-.29,0-.54-.18-.64-.45-.18-.45-.48-.84-.91-1.16-.55-.42-1.21-.62-1.96-.62-1.03,0-1.85.35-2.45,1.05-.61.7-.92,1.64-.92,2.82s.31,2.14.92,2.85c.61.71,1.43,1.06,2.46,1.06.77,0,1.43-.18,1.97-.55.41-.28.7-.63.88-1.05.11-.26.36-.43.64-.43h.42c-.16.89-.6,1.58-1.3,2.08-.7.5-1.57.76-2.62.76-1.32,0-2.37-.43-3.14-1.28"></path><path class="cls-2" d="m45.43,58.02v-9.44h.33c.3,0,.55.25.55.55v8.89h-.88Z"></path><path class="cls-2" d="m53.91,55.98h.5c-.11.62-.43,1.12-.98,1.52-.55.4-1.21.6-1.99.6-1,0-1.8-.33-2.39-.99-.59-.67-.88-1.56-.88-2.69s.29-2.01.88-2.69c.59-.67,1.37-1.01,2.34-1.01s1.7.32,2.27.95c.56.63.84,1.49.84,2.57v.39h-5.42v.05c0,.81.22,1.46.65,1.93.43.47,1,.71,1.72.71.53,0,.98-.13,1.36-.38.27-.18.47-.4.6-.66.09-.19.28-.3.49-.3m-4.13-3.81c-.42.43-.65,1.01-.69,1.74h4.49c0-.72-.21-1.3-.62-1.74-.41-.44-.94-.66-1.59-.66s-1.18.22-1.6.66"></path><path class="cls-2" d="m57.09,57.53c-.45-.39-.67-.89-.67-1.51s.23-1.1.68-1.45c.45-.35,1.11-.55,1.98-.62l2.22-.15v-.62c0-.53-.16-.94-.48-1.23-.33-.29-.78-.44-1.35-.44-.5,0-.92.12-1.25.36-.24.18-.41.4-.52.67-.09.21-.28.35-.51.35h-.44c.03-.63.31-1.15.82-1.55.5-.41,1.14-.61,1.9-.61.83,0,1.49.21,1.98.64.49.43.73,1.01.73,1.74v4.92h-.84v-1.38h-.02c-.2.44-.52.79-.96,1.06-.45.27-.95.4-1.51.4-.71,0-1.3-.19-1.75-.58m3.55-.78c.44-.38.66-.86.66-1.43v-.8l-2.11.15c-1.24.08-1.86.53-1.86,1.36,0,.39.16.7.47.94.31.24.72.36,1.22.36.64,0,1.18-.19,1.62-.58"></path><path class="cls-2" d="m64.05,58.02v-7.22h.28c.3,0,.55.25.55.55v.8h.03c.21-.46.51-.81.93-1.05.42-.25.92-.38,1.5-.38.8,0,1.43.24,1.9.71.47.47.71,1.12.71,1.94v4.64h-.88v-4.5c0-.63-.17-1.13-.52-1.48-.35-.35-.83-.52-1.45-.52s-1.16.21-1.55.63c-.4.42-.6.96-.6,1.64v4.24h-.88Z"></path></g><g><path class="cls-2" d="m88.4,57.1c-.61-.67-.92-1.56-.92-2.69s.31-2.01.92-2.69c.61-.67,1.42-1,2.43-1s1.82.33,2.43,1c.61.67.92,1.57.92,2.69s-.31,2.01-.92,2.69c-.61.67-1.42,1.01-2.43,1.01s-1.82-.34-2.43-1.01m4.2-.56c.43-.52.65-1.23.65-2.12s-.22-1.61-.65-2.12c-.43-.51-1.02-.77-1.78-.77s-1.34.26-1.77.77c-.43.52-.65,1.23-.65,2.12s.22,1.61.65,2.12c.43.51,1.02.77,1.77.77s1.35-.26,1.78-.77"></path><path class="cls-2" d="m111.81,55.98h.5c-.11.62-.43,1.12-.98,1.52-.55.4-1.21.6-1.99.6-1,0-1.8-.33-2.39-.99-.59-.67-.88-1.56-.88-2.69s.29-2.01.88-2.69c.59-.67,1.37-1.01,2.34-1.01s1.7.32,2.27.95c.56.63.84,1.49.84,2.57v.39h-5.42v.05c0,.81.22,1.46.65,1.93.43.47,1,.71,1.72.71.53,0,.98-.13,1.36-.38.27-.18.47-.4.6-.66.09-.19.28-.3.49-.3m-4.13-3.81c-.42.43-.65,1.01-.69,1.74h4.49c0-.72-.21-1.3-.62-1.74-.41-.44-.94-.66-1.59-.66s-1.18.22-1.6.66"></path><path class="cls-2" d="m85.13,51.74c.57.67.85,1.56.85,2.67s-.28,2-.85,2.67c-.56.68-1.3,1.02-2.21,1.02-.56,0-1.07-.15-1.51-.44-.42-.27-.74-.65-.95-1.13h-.02v3.71h-.88v-9.44h.29c.3,0,.55.25.55.55v.94h.02c.2-.47.52-.85.97-1.13.46-.3.97-.44,1.53-.44.91,0,1.65.34,2.22,1.02m-.69,4.77c.42-.53.64-1.23.64-2.1s-.21-1.56-.64-2.1c-.43-.53-.99-.8-1.69-.8s-1.25.27-1.68.8c-.43.54-.65,1.24-.65,2.09s.22,1.56.65,2.09c.43.54.99.8,1.68.8s1.26-.26,1.69-.79"></path><path class="cls-2" d="m104.9,50.8l-2.06,7.22h-.93l-1.81-6.01h-.02l-1.81,6.01h-.93l-2.06-7.22h.47c.25,0,.47.17.53.41l1.53,5.8h.02l1.81-6.21h.9l1.82,6.21h.02l1.53-5.8c.06-.24.28-.41.53-.41h.47Z"></path><path class="cls-2" d="m114.53,58.02v-7.22h.28c.3,0,.55.25.55.55v.73h.03c.13-.43.35-.76.67-1.01.33-.24.71-.36,1.16-.36.1,0,.2,0,.29.03.11.01.19.03.24.05v.88c-.07-.03-.16-.06-.27-.07-.15-.02-.28-.03-.38-.03-.51,0-.92.18-1.23.55-.3.37-.46.84-.46,1.42v4.48h-.88Z"></path></g><g><path class="cls-2" d="m153.46,57.53c-.45-.39-.67-.89-.67-1.51s.23-1.1.68-1.45c.45-.35,1.11-.55,1.98-.62l2.22-.15v-.62c0-.53-.16-.94-.48-1.23-.33-.29-.78-.44-1.35-.44-.5,0-.92.12-1.25.36-.23.18-.41.4-.52.67-.08.21-.28.35-.51.35h-.44c.03-.63.31-1.15.82-1.55.5-.41,1.14-.61,1.9-.61.83,0,1.49.21,1.98.64.49.43.73,1.01.73,1.74v4.92h-.84v-1.38h-.02c-.2.44-.52.79-.96,1.06-.45.27-.95.4-1.51.4-.71,0-1.3-.19-1.75-.58m3.55-.78c.44-.38.66-.86.66-1.43v-.8l-2.11.15c-1.24.08-1.86.53-1.86,1.36,0,.39.16.7.47.94.31.24.72.36,1.22.36.64,0,1.18-.19,1.62-.58"></path><path class="cls-2" d="m160.99,58.02v-9.44h.33c.3,0,.55.25.55.55v8.89h-.88Z"></path><path class="cls-2" d="m164.06,58.02v-9.44h.33c.3,0,.55.25.55.55v8.89h-.88Z"></path></g><g><path class="cls-2" d="m132.55,57.1c-.61-.67-.92-1.56-.92-2.69s.31-2.01.92-2.69c.61-.67,1.42-1,2.43-1s1.82.33,2.43,1c.61.67.92,1.57.92,2.69s-.3,2.01-.92,2.69c-.61.67-1.42,1.01-2.43,1.01s-1.82-.34-2.43-1.01m4.2-.56c.43-.52.65-1.23.65-2.12s-.22-1.61-.65-2.12c-.43-.51-1.02-.77-1.78-.77s-1.34.26-1.77.77c-.43.52-.65,1.23-.65,2.12s.22,1.61.65,2.12c.43.51,1.02.77,1.77.77s1.35-.26,1.78-.77"></path><path class="cls-2" d="m140.38,58.02v-7.22h.28c.3,0,.55.25.55.55v.73h.03c.13-.43.35-.76.67-1.01.33-.24.71-.36,1.16-.36.1,0,.2,0,.29.03.11.01.19.03.24.05v.88c-.07-.03-.16-.06-.27-.07-.15-.02-.27-.03-.38-.03-.51,0-.92.18-1.23.55-.3.37-.46.84-.46,1.42v4.48h-.88Z"></path><path class="cls-2" d="m129.5,48.59c-.6,0-1.03.11-1.34.41-.3.29-.44.6-.44,1.41v.82h-1v.74h1v6.05h.89v-6.05h1.47v-.74h-1.47v-.81c0-.54.07-.7.22-.87.15-.17.41-.21.74-.21.18,0,.34.02.5.05v-.74c-.17-.04-.37-.06-.58-.06"></path></g></g></svg> 