<svg width="276" height="40" viewBox="0 0 276 40" fill="none" xmlns="http://www.w3.org/2000/svg">
<path d="M82.6203 19.7534C82.6203 12.8536 99.7671 11.4544 119.63 11.4544V0.782227C98.6697 0.782227 81.6875 9.27331 81.6875 19.7534C81.6875 30.2335 98.6697 38.7246 119.63 38.7246V28.0525C99.7671 28.0525 82.6203 26.6533 82.6203 19.7534Z" fill="white"/>
<path d="M42.4425 19.7534C42.4425 12.8536 59.5893 11.4544 79.4522 11.4544V0.782227C58.4919 0.782227 41.5098 9.27331 41.5098 19.7534C41.5098 30.2335 58.4919 38.7246 79.4522 38.7246V28.0525C59.5756 28.0525 42.4425 26.6533 42.4425 19.7534Z" fill="white"/>
<path d="M20.2885 1.71501C27.1884 1.71501 28.5876 18.8618 28.5876 38.7246H39.2597C39.2597 17.7781 30.7686 0.782227 20.2885 0.782227C9.80842 0.782227 1.33105 17.7644 1.33105 38.7246H12.0032C11.9895 18.8618 13.4024 1.71501 20.2885 1.71501Z" fill="white"/>
<path d="M130.893 19.7119H138.177C144.048 19.7119 147.957 23.5116 147.957 29.2181C147.957 34.9245 144.048 38.7243 138.177 38.7243H130.893V19.7119ZM138.081 35.9259C141.853 35.9259 144.349 33.2373 144.349 29.2181C144.349 25.1989 141.853 22.5103 138.081 22.5103H134.391V35.9259H138.081Z" fill="white"/>
<path d="M152.264 18.752C153.512 18.752 154.459 19.6985 154.459 20.9193C154.459 22.1676 153.512 23.1141 152.264 23.1141C151.043 23.1141 150.097 22.1676 150.097 20.9193C150.097 19.7122 151.043 18.752 152.264 18.752ZM150.577 25.062H153.951V38.7245H150.577V25.062Z" fill="white"/>
<path d="M156.146 34.4587L159.274 34.3489C159.411 35.8716 160.66 36.8455 162.347 36.8455C163.732 36.8455 164.871 36.2145 164.871 35.1034C164.871 34.2118 164.171 33.7454 162.758 33.4984L160.618 33.1144C157.793 32.6754 156.462 31.1253 156.462 29.0677C156.462 26.2968 158.794 24.5547 162.059 24.5547C165.323 24.5547 167.683 26.434 167.847 29.2872L164.802 29.4244C164.72 27.9566 163.581 26.9278 162.004 26.9278C160.728 26.9278 159.699 27.6137 159.699 28.7248C159.699 29.5341 160.33 30.0279 161.332 30.22L163.444 30.6041C166.462 31.0705 168.177 32.4834 168.177 34.7604C168.177 37.4765 165.735 39.2186 162.36 39.2186C158.808 39.2049 156.366 37.3668 156.146 34.4587Z" fill="white"/>
<path d="M172.155 34.1569V27.8606H169.686V25.0622H172.155V21.6191H175.529V25.0622H178.821V27.8606H175.529V33.8962C175.529 36.0636 176.969 36.2282 178.41 35.803L178.437 38.6287C175.433 39.4518 172.155 38.615 172.155 34.1569Z" fill="white"/>
<path d="M181.029 25.0622H184.404L184.321 28.807C184.925 25.6246 187.175 24.5684 189.479 25.0348V28.3818C186.846 27.9977 184.404 29.1911 184.404 32.9223V38.7385H181.029V25.0622Z" fill="white"/>
<path d="M193.087 18.752C194.336 18.752 195.282 19.6985 195.282 20.9193C195.282 22.1676 194.336 23.1141 193.087 23.1141C191.866 23.1141 190.92 22.1676 190.92 20.9193C190.92 19.7122 191.866 18.752 193.087 18.752ZM191.414 25.062H194.788V38.7245H191.414V25.062Z" fill="white"/>
<path d="M197.546 19.7119H200.92V26.941C201.949 25.5281 203.472 24.7462 205.379 24.7462C209.041 24.7462 211.647 27.7092 211.647 31.9204C211.647 36.1042 209.041 39.0672 205.379 39.0672C203.472 39.0672 201.949 38.2853 200.92 36.8724V38.7517H197.546V19.7119ZM204.473 36.2826C206.641 36.2826 208.245 34.4307 208.245 31.9067C208.245 29.3553 206.641 27.5034 204.473 27.5034C202.278 27.5034 200.728 29.3004 200.728 31.9067C200.728 34.4856 202.278 36.2826 204.473 36.2826Z" fill="white"/>
<path d="M219.905 36.3372C221.619 36.3372 222.648 35.1438 222.84 33.0451V25.0615H226.215V33.923V38.7378H222.84L222.895 36.6527C222.141 38.1754 220.7 39.067 218.739 39.067C215.831 39.067 213.883 36.9271 213.883 33.6623V25.0752H217.257V32.9765C217.244 35.0752 218.218 36.3372 219.905 36.3372Z" fill="white"/>
<path d="M230.742 34.1569V27.8606H228.272V25.0622H230.742V21.6191H234.116V25.0622H237.408V27.8606H234.116V33.8962C234.116 36.0636 235.556 36.2282 236.997 35.803L237.024 38.6287C234.034 39.4518 230.742 38.615 230.742 34.1569Z" fill="white"/>
<path d="M241.304 18.752C242.552 18.752 243.499 19.6985 243.499 20.9193C243.499 22.1676 242.552 23.1141 241.304 23.1141C240.083 23.1141 239.137 22.1676 239.137 20.9193C239.137 19.7122 240.083 18.752 241.304 18.752ZM239.631 25.062H243.005V38.7245H239.631V25.062Z" fill="white"/>
<path d="M245.296 31.8795C245.296 27.6682 248.286 24.6504 252.443 24.6504C256.572 24.6504 259.562 27.6682 259.562 31.8795C259.562 36.1182 256.572 39.136 252.443 39.136C248.286 39.1223 245.296 36.1182 245.296 31.8795ZM252.443 36.2828C254.637 36.2828 256.16 34.4583 256.16 31.8795C256.16 29.328 254.637 27.5036 252.443 27.5036C250.22 27.5036 248.698 29.328 248.698 31.8795C248.698 34.4583 250.22 36.2828 252.443 36.2828Z" fill="white"/>
<path d="M261.866 25.0616H265.241L265.158 27.9697C265.762 25.9533 267.271 24.7324 269.479 24.7324C272.442 24.7324 274.418 26.9272 274.418 30.3017V38.7242H271.057V30.823C271.057 28.7105 270.055 27.4485 268.259 27.4485C266.324 27.4485 265.241 28.8888 265.241 31.4128V38.7242H261.866V25.0616Z" fill="white"/>
</svg>
