<svg width="249" height="36" viewBox="0 0 249 36" fill="none" xmlns="http://www.w3.org/2000/svg">
<path d="M74.3581 17.7778C74.3581 11.5679 89.7902 10.3086 107.667 10.3086V0.703705C88.8025 0.703705 73.5186 8.34568 73.5186 17.7778C73.5186 27.2099 88.8025 34.8518 107.667 34.8518V25.2469C89.7902 25.2469 74.3581 23.9877 74.3581 17.7778Z" fill="#1D0A5A"/>
<path d="M38.1969 17.7778C38.1969 11.5679 53.629 10.3086 71.5056 10.3086V0.703705C52.6414 0.703705 37.3574 8.34568 37.3574 17.7778C37.3574 27.2099 52.6414 34.8518 71.5056 34.8518V25.2469C53.6167 25.2469 38.1969 23.9877 38.1969 17.7778Z" fill="#1D0A5A"/>
<path d="M18.259 1.54321C24.4689 1.54321 25.7281 16.9753 25.7281 34.8518H35.3331C35.3331 16 27.6911 0.703705 18.259 0.703705C8.82689 0.703705 1.19727 15.9877 1.19727 34.8518H10.8022C10.7899 16.9753 12.0615 1.54321 18.259 1.54321Z" fill="#1D0A5A"/>
<path d="M117.802 17.7408H124.357C129.641 17.7408 133.16 21.1605 133.16 26.2963C133.16 31.4321 129.641 34.8519 124.357 34.8519H117.802V17.7408ZM124.271 32.3333C127.666 32.3333 129.913 29.9136 129.913 26.2963C129.913 22.679 127.666 20.2593 124.271 20.2593H120.95V32.3333H124.271Z" fill="#1D0A5A"/>
<path d="M137.037 16.8766C138.16 16.8766 139.012 17.7284 139.012 18.8272C139.012 19.9506 138.16 20.8025 137.037 20.8025C135.938 20.8025 135.086 19.9506 135.086 18.8272C135.086 17.7408 135.938 16.8766 137.037 16.8766ZM135.518 22.5556H138.555V34.8519H135.518V22.5556Z" fill="#1D0A5A"/>
<path d="M140.53 31.0124L143.345 30.9136C143.469 32.284 144.592 33.1605 146.111 33.1605C147.357 33.1605 148.382 32.5926 148.382 31.5926C148.382 30.7901 147.752 30.3704 146.481 30.1482L144.555 29.8025C142.012 29.4074 140.814 28.0124 140.814 26.1605C140.814 23.6667 142.913 22.0988 145.851 22.0988C148.79 22.0988 150.913 23.7901 151.061 26.358L148.32 26.4815C148.246 25.1605 147.222 24.2346 145.802 24.2346C144.654 24.2346 143.728 24.8519 143.728 25.8519C143.728 26.5803 144.296 27.0247 145.197 27.1976L147.098 27.5432C149.814 27.963 151.357 29.2346 151.357 31.284C151.357 33.7284 149.16 35.2963 146.123 35.2963C142.925 35.284 140.728 33.6297 140.53 31.0124Z" fill="#1D0A5A"/>
<path d="M154.938 30.7408V25.0741H152.716V22.5556H154.938V19.4568H157.975V22.5556H160.938V25.0741H157.975V30.5062C157.975 32.4568 159.271 32.605 160.568 32.2222L160.592 34.7655C157.889 35.5062 154.938 34.7531 154.938 30.7408Z" fill="#1D0A5A"/>
<path d="M162.925 22.5556H165.962L165.888 25.9259C166.431 23.0617 168.456 22.1111 170.53 22.5309V25.5432C168.159 25.1975 165.962 26.2716 165.962 29.6296V34.8642H162.925V22.5556Z" fill="#1D0A5A"/>
<path d="M173.777 16.8766C174.9 16.8766 175.752 17.7284 175.752 18.8272C175.752 19.9506 174.9 20.8025 173.777 20.8025C172.678 20.8025 171.826 19.9506 171.826 18.8272C171.826 17.7408 172.678 16.8766 173.777 16.8766ZM172.271 22.5556H175.308V34.8519H172.271V22.5556Z" fill="#1D0A5A"/>
<path d="M177.789 17.7408H180.826V24.2469C181.752 22.9753 183.122 22.2716 184.838 22.2716C188.135 22.2716 190.48 24.9383 190.48 28.7284C190.48 32.4938 188.135 35.1605 184.838 35.1605C183.122 35.1605 181.752 34.4568 180.826 33.1852V34.8766H177.789V17.7408ZM184.024 32.6543C185.974 32.6543 187.419 30.9877 187.419 28.7161C187.419 26.4198 185.974 24.7531 184.024 24.7531C182.048 24.7531 180.653 26.3704 180.653 28.7161C180.653 31.0371 182.048 32.6543 184.024 32.6543Z" fill="#1D0A5A"/>
<path d="M197.913 32.7037C199.456 32.7037 200.382 31.6296 200.555 29.7408V22.5556H203.592V30.5309V34.8642H200.555L200.604 32.9877C199.925 34.358 198.629 35.1605 196.864 35.1605C194.246 35.1605 192.493 33.2346 192.493 30.2963V22.5679H195.53V29.679C195.518 31.5679 196.394 32.7037 197.913 32.7037Z" fill="#1D0A5A"/>
<path d="M207.666 30.7408V25.0741H205.443V22.5556H207.666V19.4568H210.703V22.5556H213.666V25.0741H210.703V30.5062C210.703 32.4568 211.999 32.605 213.295 32.2222L213.32 34.7655C210.629 35.5062 207.666 34.7531 207.666 30.7408Z" fill="#1D0A5A"/>
<path d="M217.172 16.8766C218.296 16.8766 219.148 17.7284 219.148 18.8272C219.148 19.9506 218.296 20.8025 217.172 20.8025C216.074 20.8025 215.222 19.9506 215.222 18.8272C215.222 17.7408 216.074 16.8766 217.172 16.8766ZM215.666 22.5556H218.703V34.8519H215.666V22.5556Z" fill="#1D0A5A"/>
<path d="M220.765 28.6914C220.765 24.9013 223.456 22.1852 227.197 22.1852C230.913 22.1852 233.604 24.9013 233.604 28.6914C233.604 32.5062 230.913 35.2222 227.197 35.2222C223.456 35.2099 220.765 32.5062 220.765 28.6914ZM227.197 32.6543C229.172 32.6543 230.542 31.0124 230.542 28.6914C230.542 26.3951 229.172 24.7531 227.197 24.7531C225.197 24.7531 223.826 26.3951 223.826 28.6914C223.826 31.0124 225.197 32.6543 227.197 32.6543Z" fill="#1D0A5A"/>
<path d="M235.679 22.5556H238.716L238.642 25.1729C239.185 23.358 240.543 22.2593 242.531 22.2593C245.197 22.2593 246.975 24.2346 246.975 27.2716V34.8519H243.95V27.7408C243.95 25.8395 243.049 24.7037 241.432 24.7037C239.691 24.7037 238.716 26 238.716 28.2716V34.8519H235.679V22.5556Z" fill="#1D0A5A"/>
</svg>
