<svg width="31" height="30" viewBox="0 0 31 30" fill="none" xmlns="http://www.w3.org/2000/svg">
<g clip-path="url(#clip0_191_5979)">
<path d="M27.198 0H4.28724C2.31318 0 0.712891 1.59712 0.712891 3.56728V26.4327C0.712891 28.4029 2.31318 30 4.28724 30H27.198C29.1721 30 30.7724 28.4029 30.7724 26.4327V3.56728C30.7724 1.59712 29.1721 0 27.198 0Z" fill="#1D0A5A"/>
<path d="M13.1919 11.2002H16.6676V12.7439C16.6821 12.7478 16.6965 12.7517 16.7106 12.7556C16.7407 12.7193 16.7751 12.6858 16.8001 12.6464C17.4312 11.6462 18.3624 11.1141 19.5118 10.9492C20.3324 10.8315 21.1448 10.9044 21.9377 11.155C23.07 11.5129 23.7605 12.3014 24.1261 13.4022C24.4026 14.236 24.4937 15.1002 24.4991 15.9707C24.5128 18.2066 24.5085 20.4425 24.5104 22.6784C24.5104 22.7287 24.503 22.7794 24.4983 22.8418H20.8773C20.8773 22.7451 20.8773 22.6617 20.8773 22.5786C20.8773 20.6604 20.8867 18.7418 20.8707 16.8236C20.8667 16.3605 20.8144 15.8908 20.7215 15.4366C20.5484 14.5915 20.0001 14.1518 19.1369 14.1031C18.4518 14.0645 17.8241 14.1959 17.3683 14.7595C17.0664 15.133 16.9243 15.5801 16.8789 16.0517C16.8418 16.438 16.8192 16.8271 16.818 17.2153C16.8118 19.0104 16.8153 20.8058 16.8153 22.6009V22.8421H13.1927V11.2002H13.1919Z" fill="#DFF0FE"/>
<path d="M7.2832 11.1995H10.8882V22.8418H7.2832V11.1995Z" fill="#DFF0FE"/>
<path d="M9.08314 5.39332C10.251 5.39644 11.1856 6.33548 11.1805 7.5006C11.1755 8.66573 10.2322 9.59775 9.06518 9.58996C7.9075 9.58255 6.97598 8.64741 6.97559 7.49242C6.9752 6.32846 7.91688 5.3902 9.08314 5.39332Z" fill="#DFF0FE"/>
</g>
<defs>
<clipPath id="clip0_191_5979">
<rect width="30.0595" height="30" fill="white" transform="translate(0.712891)"/>
</clipPath>
</defs>
</svg>
