<?xml version="1.0" encoding="UTF-8"?> <svg xmlns="http://www.w3.org/2000/svg" xmlns:xlink="http://www.w3.org/1999/xlink" version="1.1" id="Layer_1" x="0px" y="0px" viewBox="0 0 120 120" style="enable-background:new 0 0 120 120;" xml:space="preserve"> <style type="text/css"> .st0{fill:#EC2027;} </style> <g> <g> <path d="M113.1,53.6c0.4,0,0.6,0,0.6,0.4c0,0.2-0.2,0.3-0.5,0.3h-0.8l0-0.7L113.1,53.6L113.1,53.6z M112.4,54.8h0.5l0.6,1.1l0.7,0 l-0.7-1.2c0.5,0,0.8-0.2,0.8-0.8c0-0.6-0.4-0.9-1-0.9l-1.6,0V56l0.7,0L112.4,54.8z M113,52.5c1.2,0,2,0.8,2,2c0,1.2-0.8,2-2,2 c-1.2,0-2-0.8-2-2C111,53.3,111.8,52.5,113,52.5z M113,51.9c-1.9,0-2.7,1.4-2.7,2.7c0,1.3,0.8,2.6,2.7,2.6c1.6,0,2.7-1.2,2.7-2.7 C115.7,53.1,114.7,51.9,113,51.9"></path> </g> <polygon points="28,58 31.1,58 31.2,72.6 28.1,72.6 "></polygon> <polygon points="28,52.1 31.1,52.1 31.1,56.7 28,56.7 "></polygon> <polygon points="99.3,52 102.4,52 102.4,72.5 99.3,72.5 "></polygon> <rect x="104.6" y="52" transform="matrix(1 -1.731470e-03 1.731470e-03 1 -0.1076 0.1838)" width="3.1" height="20.5"></rect> <path d="M19.9,63.8c1.1,0,2-0.7,1.9-1.8c0-1.1-0.9-1.8-1.9-1.8l-12.4,0v3.6L19.9,63.8z M20.4,70.4c1.3,0,2.3-0.9,2.3-2.1 c0-1.2-1-2.3-2.3-2.3L7.4,66v4.4L20.4,70.4z M4.3,58l17.2,0c2.9,0,3.7,2.3,3.6,3.6c0,1.4-0.6,2.6-1.4,3c1.4,0.7,2.3,2.4,2.3,3.8 c-0.1,3.9-3.9,4.2-5.5,4.2l-16.2,0L4.3,58z"></path> <path d="M82.6,57.9c-1.1,0-3.8,0.6-3.9,3.1c0,2.2,1.1,3.2,1.9,3.4c-1,0.4-1.8,2.1-1.8,3.6c0,1.5,0.6,4.5,5.4,4.4l13.2,0l0-2.2 l-12.8,0c-1.3,0-2.3-0.9-2.3-2.1c0-1.2,1-2.3,2.3-2.3l12.2,0l0-2.2l-12.5,0c-1.1,0-2-0.7-2-1.8c0-1.1,0.9-1.8,2-1.8l13.1,0l0-2.2 L82.6,57.9z"></path> <path d="M73.2,62.5l3.1,0c0-3.6-1.6-4.6-6.1-4.6l-8.6,0c-1.9,0-5.3,0.9-5.3,3.8c0,3,1.1,4.2,4.6,4.2l10.2,0c1.2,0,2.4,0.7,2.4,2.1 c0,1.4-0.7,2.3-2.8,2.3l-8.1,0c-1,0-3.2-0.1-3.2-2.4l-3.1,0c0,1.8,0.4,4.6,5.1,4.6l10.1,0c2,0,5.2-1,5.2-4.6c0-3.7-3.1-4.2-4.8-4.2 l-10.2,0c-1.7,0-2.2-1-2.2-1.8c0-0.8,0.5-1.8,2.2-1.8l8.9,0C72.3,60.1,73.2,60.7,73.2,62.5z"></path> <path d="M51.1,62.5l3.1,0c0-3.6-1.6-4.6-6.1-4.6l-8.6,0c-1.9,0-5.3,0.9-5.3,3.8c0,3,1.1,4.2,4.6,4.2l10.2,0c1.2,0,2.4,0.7,2.4,2.1 c0,1.4-0.7,2.3-2.8,2.3l-8.1,0c-1,0-3.2-0.1-3.2-2.4l-3.1,0c0,1.8,0.4,4.6,5.1,4.6l10.1,0c2,0,5.2-1,5.2-4.6c0-3.7-3.1-4.2-4.8-4.2 l-10.2,0c-1.7,0-2.2-1-2.2-1.8c0-0.8,0.5-1.8,2.2-1.8l8.9,0C50.2,60.1,51.1,60.7,51.1,62.5z"></path> <path class="st0" d="M98.4,98.7c4.8,0,2.9-4.6,2-6.1c-1.3-2.2-8-14.2-8-14.2l-71.9,0.1c0,0-6.7,12-7.9,14.2c-0.9,1.5-2.8,6,2,6 L98.4,98.7z"></path> <path class="st0" d="M34.2,52.2l43.6,0c0,0-10.9-20.1-13.5-24.7c-2.4-4.2-3.8-6.2-8.4-6.2c-4.6,0-5.9,2-8.3,6.4 C45.1,31.8,34.2,52.2,34.2,52.2z"></path> </g> </svg> 